<svg width="44" height="50" viewBox="0 0 44 50" fill="none" xmlns="http://www.w3.org/2000/svg">
<path d="M7.92217 49.9987C7.4248 49.7709 6.87665 49.6146 6.43787 49.3021C5.13976 48.3777 4.73093 46.646 5.40407 45.2021C5.46527 45.0719 5.53558 44.9443 5.64625 44.7282C5.1619 44.7282 4.73614 44.7295 4.30908 44.7282C3.66328 44.7255 3.31824 44.4586 3.33126 43.9769C3.34298 43.5121 3.675 43.266 4.29996 43.266C12.3881 43.266 20.4762 43.266 28.5656 43.266C28.7766 43.266 28.9914 43.2777 29.1997 43.2504C29.8299 43.1709 30.2908 42.6345 30.283 42.0082C30.2752 41.3781 29.8065 40.8664 29.1659 40.8039C28.9563 40.783 28.7427 40.7883 28.5318 40.7883C20.9319 40.7883 13.3321 40.7883 5.73088 40.7856C3.88202 40.7856 2.50448 39.7258 2.18679 38.0631C2.09565 37.584 2.04357 37.0983 1.97847 36.6153C1.32876 31.8304 0.681659 27.0442 0.0319525 22.2593C-0.15684 20.8687 0.494168 20.1187 1.90035 20.1174C2.74666 20.1174 3.59297 20.1148 4.43928 20.1174C5.04211 20.12 5.38715 20.3948 5.37934 20.8583C5.37152 21.3205 5.0317 21.5783 4.41584 21.5796C3.60208 21.5822 2.78832 21.5796 1.97456 21.5809C1.81702 21.5809 1.65817 21.5952 1.43683 21.6056C1.56573 22.5835 1.68421 23.5144 1.81051 24.444C2.38079 28.6495 2.95238 32.8538 3.52396 37.0593C3.54349 37.2038 3.56042 37.3496 3.58385 37.4942C3.79348 38.7597 4.4536 39.3196 5.75171 39.3209C9.85306 39.3235 13.9544 39.3209 18.0558 39.3209C21.5061 39.3209 24.9565 39.3209 28.4068 39.3209C29.7726 39.3209 30.4601 38.7441 30.6437 37.3952C31.2504 32.9488 31.8441 28.5011 32.4431 24.0534C32.5511 23.2488 32.6631 22.4454 32.7816 21.5822C32.5511 21.5822 32.3597 21.5822 32.1696 21.5822C24.1141 21.5822 16.0585 21.5822 8.0016 21.5822C7.83884 21.5822 7.67479 21.5913 7.51334 21.577C7.08888 21.5405 6.80374 21.245 6.80114 20.8531C6.79853 20.4599 7.08237 20.1591 7.50423 20.1226C7.66568 20.1083 7.82973 20.1174 7.99248 20.1174C16.1132 20.1174 24.2338 20.1174 32.3558 20.1174C32.5485 20.1174 32.7425 20.1174 32.9769 20.1174C33.0915 19.2711 33.2165 18.4574 33.3089 17.6384C33.5094 15.8624 34.4195 15.037 36.2059 15.037C37.7514 15.037 39.2982 15.0239 40.8437 15.0435C41.9191 15.0565 42.8371 15.8794 42.9777 16.9028C43.1326 18.029 42.5089 19.0511 41.4426 19.3662C41.1522 19.4521 40.8332 19.469 40.5273 19.4716C38.6888 19.4807 36.8491 19.4873 35.0106 19.4677C34.6317 19.4638 34.5224 19.5862 34.4729 19.9534C33.9117 24.1927 33.3284 28.4282 32.7542 32.6663C32.5342 34.2938 32.3076 35.92 32.1058 37.5501C31.9873 38.5071 31.6514 39.3417 30.908 39.9771C32.4912 42.4106 31.6306 44.4534 28.8977 44.7594C29.0331 45.107 29.2023 45.4417 29.2935 45.7958C29.7505 47.5757 28.7076 49.3659 26.9368 49.8776C26.8144 49.9128 26.6947 49.9584 26.5736 49.9987H25.4994C25.3783 49.9584 25.2598 49.9128 25.1374 49.8776C23.3706 49.3659 22.3277 47.577 22.7808 45.801C22.8719 45.4469 23.0412 45.1136 23.1753 44.7685H11.2853C11.3556 44.9143 11.4051 45.0159 11.4532 45.1162C12.4011 47.0575 11.3894 49.31 9.31012 49.8893C9.20336 49.9193 9.1005 49.9623 8.99634 50H7.92217V49.9987ZM26.015 48.5326C27.0553 48.5444 27.9212 47.7046 27.9394 46.6669C27.9576 45.6252 27.123 44.7542 26.0853 44.7308C25.0255 44.706 24.1414 45.5627 24.1362 46.6213C24.1297 47.6603 24.9773 48.5222 26.015 48.5339V48.5326ZM6.55375 46.6304C6.55375 47.672 7.39876 48.5261 8.43907 48.5326C9.47678 48.5392 10.3426 47.6928 10.3569 46.6564C10.3726 45.6018 9.49891 44.7242 8.44168 44.7295C7.40137 44.7347 6.55506 45.5862 6.55506 46.6291L6.55375 46.6304ZM34.8075 18.0069C36.8191 18.0069 38.7995 18.0212 40.7773 17.9873C41.0129 17.9834 41.3358 17.7621 41.4582 17.5499C41.7473 17.0486 41.3228 16.5069 40.6692 16.5043C39.1589 16.4965 37.6485 16.5004 36.1382 16.5017C35.1356 16.5017 34.7463 16.9262 34.8062 18.0069H34.8075Z" fill="#00E7BB"/>
<path d="M17.4909 0.00130202C17.6198 0.0611948 17.7474 0.12239 17.8776 0.179678C18.776 0.572887 19.2994 1.24733 19.3645 2.23296C19.4309 3.23681 19.0143 4.01542 18.1289 4.48675C17.806 4.65862 17.7057 4.83829 17.7083 5.19374C17.724 7.79778 17.7174 10.4005 17.7174 13.0045C17.7174 13.179 17.7174 13.3535 17.7174 13.5761H21.4217C22.1986 13.5761 22.587 13.1899 22.587 12.4173C22.587 11.0502 22.5844 9.6831 22.5896 8.31728C22.5896 8.07641 22.5623 7.91626 22.3018 7.77955C21.2238 7.21317 20.7394 6.09214 21.0545 4.99193C21.3553 3.9412 22.3565 3.20296 23.4268 3.24202C24.5205 3.28238 25.4814 4.07922 25.6949 5.12344C25.9319 6.28223 25.4072 7.30041 24.2965 7.84074C24.2236 7.8759 24.152 7.91496 24.0804 7.95142V9.9422C24.885 9.9422 25.6624 9.96043 26.4371 9.92397C26.5607 9.91876 26.7001 9.6831 26.7873 9.52816C27.3133 8.59982 28.4356 8.09073 29.4499 8.33681C30.4902 8.5881 31.235 9.48519 31.278 10.5385C31.3235 11.6517 30.6868 12.5892 29.6491 12.9368C28.5567 13.3014 27.3302 12.8236 26.7886 11.7702C26.6337 11.4682 26.4592 11.3952 26.1532 11.4031C25.4736 11.4213 24.7926 11.4096 24.0492 11.4096C24.0492 12.0176 24.0518 12.5827 24.0492 13.1465C24.0413 14.3665 23.363 15.0383 22.1339 15.0396C20.686 15.0422 19.2395 15.0396 17.7161 15.0396C17.7161 15.6594 17.7161 16.2544 17.7161 16.8507C17.7161 17.3064 17.724 17.7621 17.7122 18.2178C17.7005 18.7308 17.4336 19.0329 17.0078 19.0433C16.5639 19.055 16.2644 18.7438 16.2553 18.2087C16.241 17.3142 16.2514 16.4184 16.2488 15.5239C16.2488 15.3807 16.2344 15.2375 16.224 15.0409C15.6876 15.0409 15.172 15.0409 14.6564 15.0409C13.6643 15.0409 12.6708 15.0487 11.6787 15.0383C10.6905 15.0266 9.98086 14.3573 9.93529 13.3704C9.90665 12.7402 9.93008 12.1075 9.93008 11.4148C9.08768 11.4148 8.29605 11.4005 7.50703 11.4317C7.39636 11.4356 7.27527 11.6596 7.19325 11.8028C6.50708 13.0124 4.98112 13.4212 3.82232 12.6999C2.65181 11.972 2.33672 10.4187 3.12835 9.28728C4.13871 7.84335 6.35995 7.98136 7.19064 9.56331C7.3586 9.88231 7.53828 9.96173 7.86248 9.95131C8.52651 9.93048 9.19054 9.9448 9.92097 9.9448C9.92097 9.30812 9.94441 8.70919 9.90274 8.11547C9.89363 7.98917 9.66447 7.84986 9.50953 7.76523C8.63458 7.28478 8.10987 6.30827 8.23876 5.36821C8.38199 4.324 9.10721 3.52977 10.1163 3.30973C11.266 3.05974 12.4104 3.66648 12.8453 4.75757C13.2867 5.86298 12.8635 7.13505 11.8089 7.70273C11.4639 7.88892 11.3753 8.09724 11.3792 8.4592C11.3975 9.97215 11.3988 11.4864 11.3792 12.9993C11.374 13.442 11.5172 13.5957 11.9716 13.5852C13.2398 13.5579 14.5093 13.5761 15.7787 13.5748C15.9207 13.5748 16.0626 13.5592 16.2227 13.5501C16.2331 13.4108 16.2475 13.3001 16.2475 13.1894C16.2488 10.4877 16.2527 7.78736 16.2384 5.08568C16.2384 4.91641 16.1264 4.66382 15.9923 4.59221C15.0496 4.09094 14.5418 3.32144 14.6082 2.2629C14.6785 1.13926 15.31 0.407531 16.3959 0.080725C16.4389 0.0677049 16.4727 0.0273423 16.5118 0C16.8373 0 17.1628 0 17.4883 0L17.4909 0.00130202ZM10.6175 6.56216C11.1423 6.56477 11.5446 6.16895 11.5459 5.64685C11.5485 5.12864 11.1397 4.70939 10.6293 4.70549C10.1332 4.70158 9.69312 5.13646 9.68921 5.63513C9.68531 6.14422 10.1006 6.55956 10.6175 6.56216ZM23.3369 6.56216C23.8591 6.57128 24.2757 6.17807 24.29 5.66247C24.303 5.1638 23.8812 4.72111 23.3786 4.70679C22.8773 4.69247 22.4438 5.11041 22.4334 5.62081C22.4216 6.14291 22.8161 6.55435 23.3369 6.56347V6.56216ZM5.08919 9.7495C4.56708 9.7469 4.15564 10.1492 4.15304 10.6635C4.15043 11.1648 4.5788 11.601 5.07877 11.6036C5.58135 11.6075 6.00581 11.183 6.00971 10.6739C6.01362 10.1531 5.6126 9.7508 5.08919 9.7482V9.7495ZM29.8171 10.6817C29.8223 10.1544 29.4317 9.75471 28.907 9.7495C28.3875 9.74429 27.9669 10.1479 27.9617 10.6583C27.9565 11.1531 28.3901 11.5984 28.8861 11.6049C29.3952 11.6114 29.8132 11.1973 29.8184 10.6804L29.8171 10.6817ZM16.9974 1.46867C16.4936 1.46477 16.06 1.88923 16.0548 2.3905C16.0496 2.89438 16.4714 3.31884 16.9818 3.32405C17.4987 3.32926 17.9088 2.92433 17.9127 2.40613C17.9167 1.89053 17.5078 1.47258 16.9974 1.46867Z" fill="#00E7BB"/>
<path d="M11.8451 30.4776C11.8451 31.9242 11.8608 33.372 11.8399 34.8185C11.8256 35.8068 11.1525 36.5671 10.1773 36.769C9.31141 36.9486 8.37526 36.502 7.99247 35.6714C7.84795 35.3576 7.76332 34.9852 7.76071 34.6402C7.74248 31.8434 7.74248 29.0467 7.7542 26.25C7.75941 24.974 8.64478 24.0873 9.84785 24.1042C11.0223 24.1212 11.8412 25.0052 11.8477 26.2825C11.8556 27.6809 11.849 29.0792 11.849 30.4776H11.8451ZM10.3856 30.4164C10.3856 29.8149 10.3856 29.2147 10.3856 28.6131C10.3856 27.8007 10.3882 26.9882 10.3817 26.1758C10.3791 25.8138 10.1955 25.5859 9.8218 25.5742C9.44422 25.5625 9.26584 25.7956 9.22288 26.1458C9.20595 26.2903 9.21507 26.4375 9.21507 26.5846C9.21507 28.8423 9.21507 31.1013 9.21507 33.359C9.21507 33.8303 9.19814 34.3029 9.22939 34.7717C9.25282 35.1232 9.47417 35.3524 9.84003 35.3302C10.172 35.3107 10.3647 35.0985 10.3804 34.7534C10.3856 34.6232 10.3856 34.493 10.3856 34.3641C10.3856 33.0478 10.3856 31.7328 10.3856 30.4164Z" fill="#00E7BB"/>
<path d="M15.127 30.4344C15.127 29.053 15.1218 27.6702 15.1283 26.2888C15.1348 24.9907 15.9707 24.1027 17.1698 24.104C18.3638 24.104 19.2179 25.0011 19.2218 26.2927C19.2309 29.0725 19.2322 31.8536 19.2218 34.6334C19.2179 35.7909 18.5057 36.6281 17.4341 36.7909C16.4759 36.9367 15.502 36.3156 15.2207 35.3495C15.1452 35.0904 15.1335 34.8053 15.1309 34.5319C15.1218 33.166 15.127 31.8002 15.127 30.4344ZM16.5904 30.4305C16.5904 30.9175 16.5904 31.4057 16.5904 31.8927C16.5904 32.8353 16.5904 33.7767 16.5943 34.7193C16.5943 35.0865 16.7909 35.317 17.149 35.3313C17.5136 35.3456 17.7063 35.1073 17.7518 34.7571C17.7688 34.6295 17.761 34.498 17.761 34.3678C17.761 31.7521 17.761 29.1363 17.761 26.5205C17.761 26.3591 17.8065 26.1482 17.7245 26.0453C17.5709 25.8539 17.3573 25.6352 17.136 25.5922C16.8313 25.5323 16.636 25.7732 16.6009 26.0922C16.5865 26.2211 16.5917 26.3513 16.5917 26.4815C16.5917 27.7978 16.5917 29.1129 16.5917 30.4292L16.5904 30.4305Z" fill="#00E7BB"/>
<path d="M22.4744 30.3996C22.4744 29.0325 22.4705 27.6667 22.4744 26.2995C22.4783 25.0118 23.3246 24.1069 24.5173 24.103C25.7138 24.0991 26.5679 25.0014 26.5718 26.2826C26.5757 27.6497 26.5744 29.0155 26.5718 30.3827C26.5718 30.9894 26.2971 31.337 25.8362 31.3344C25.3779 31.3305 25.111 30.9816 25.1097 30.3722C25.1071 29.0377 25.1097 27.7044 25.1084 26.3699C25.1084 25.8282 24.9274 25.5808 24.5394 25.5717C24.1371 25.5626 23.9392 25.8269 23.9392 26.3907C23.9379 29.108 23.9327 31.824 23.9496 34.5413C23.9509 34.7731 24.0511 35.0738 24.2139 35.2223C24.5537 35.5308 25.0719 35.2418 25.1032 34.7431C25.1266 34.3707 25.1032 33.9945 25.1123 33.6208C25.1253 33.1221 25.4026 32.8135 25.8284 32.8057C26.2789 32.7966 26.5627 33.1091 26.5731 33.639C26.581 34.0127 26.581 34.3877 26.5731 34.7613C26.5458 35.9149 25.6409 36.8133 24.5186 36.8081C23.3962 36.8029 22.4939 35.9058 22.4809 34.7444C22.4653 33.2966 22.477 31.8487 22.4757 30.4009L22.4744 30.3996Z" fill="#00E7BB"/>
</svg>
