<svg width="51" height="50" viewBox="0 0 51 50" fill="none" xmlns="http://www.w3.org/2000/svg">
<path d="M0 14.7462V12.0117C0.330072 11.0659 1.04892 10.5062 1.87997 10.0117C3.37508 9.12068 4.83496 8.1696 6.31963 7.26027C6.57404 7.10502 6.67319 6.93673 6.66928 6.63927C6.65492 5.30463 6.65884 3.9713 6.66406 2.63666C6.67189 1.06067 7.73125 0 9.30202 0C19.8004 0 30.2988 0 40.7971 0C42.3653 0 43.426 1.06067 43.4325 2.63666C43.439 3.95434 43.4455 5.27332 43.426 6.591C43.4207 6.9302 43.5382 7.11024 43.8226 7.28376C45.2811 8.17221 46.7149 9.10241 48.18 9.98043C49.0189 10.484 49.7665 11.0437 50.0978 12.0104V14.7449C49.8108 15.3646 49.5134 15.9948 48.8611 16.3001C48.4814 16.4775 48.424 16.7162 48.424 17.092C48.4344 25.7821 48.4331 34.4723 48.4318 43.1624C48.4318 45.2603 47.0085 46.6732 44.8989 46.6745C42.6327 46.6771 40.3666 46.6745 38.1005 46.6745C37.9296 46.6745 37.7599 46.6745 37.5903 46.6745C37.5447 47.6491 37.2537 48.4749 36.5571 49.0411C36.0548 49.4494 35.4155 49.6869 34.8363 50H15.2642C13.6138 49.516 12.634 48.4644 12.4945 46.6745C12.3027 46.6745 12.1265 46.6745 11.9504 46.6745C9.73255 46.6745 7.51598 46.6745 5.29811 46.6745C3.05153 46.6745 1.66732 45.2981 1.66601 43.0646C1.66601 34.407 1.66601 25.7495 1.66601 17.092C1.66601 16.9615 1.68167 16.8284 1.65949 16.7019C1.64514 16.6197 1.59556 16.5062 1.53033 16.4775C0.741031 16.1409 0.327462 15.4821 0 14.7436L0 14.7462ZM46.7606 16.7136H3.36334C3.35421 16.8819 3.33855 17.0241 3.33855 17.1663C3.33855 25.8095 3.33594 34.4527 3.33855 43.0959C3.33855 44.3288 4.00652 44.9993 5.2407 45.002C7.52381 45.0072 9.80691 45.0046 12.09 45.002C12.2283 45.002 12.3679 44.9811 12.5258 44.9693C12.5258 44.7254 12.5258 44.531 12.5258 44.3366C12.5258 37.6464 12.5258 30.9563 12.5258 24.2661C12.5258 22.4775 13.6217 21.1285 15.3999 20.8832C16.3288 20.7554 17.2864 20.8428 18.2309 20.805C18.4136 20.7971 18.6367 20.7032 18.7645 20.5753C19.1298 20.2074 19.5447 20 20.0652 20.0039C20.4723 20.0065 20.8845 20.0365 21.2864 19.9896C21.516 19.9622 21.79 19.8604 21.94 19.6973C23.4834 18.0222 26.12 17.8213 27.7782 19.3842C28.3301 19.9048 28.8545 20.0704 29.5421 20.0065C29.7521 19.987 29.9739 19.9739 30.1761 20.0209C30.471 20.09 30.8689 20.1305 31.0176 20.3327C31.4351 20.9041 31.9922 20.8141 32.5506 20.8154C33.0398 20.8167 33.529 20.8154 34.0183 20.8154C36.1605 20.8219 37.5721 22.2296 37.5721 24.3627C37.5721 31.0359 37.5721 37.7104 37.5721 44.3836C37.5721 44.574 37.5721 44.7632 37.5721 44.9798C37.786 44.9889 37.9452 45.002 38.1044 45.002C40.3222 45.0033 42.5401 45.0046 44.758 45.002C46.1226 45.002 46.7593 44.3627 46.7606 42.9967C46.7606 34.4188 46.7606 25.8408 46.7606 17.2629V16.7123V16.7136ZM32.531 44.9785V25.8995H17.5682V44.9785H32.531ZM41.7391 6.62492C41.7391 5.37639 41.7391 4.15916 41.7391 2.94194C41.7391 1.87997 41.5186 1.6621 40.4475 1.6621C30.1787 1.6621 19.9087 1.6621 9.63992 1.6621C9.55903 1.6621 9.47684 1.6621 9.39596 1.6621C8.66014 1.67384 8.3666 1.96086 8.36138 2.70711C8.35355 3.89432 8.35877 5.08284 8.36138 6.27006C8.36138 6.38095 8.38356 6.49185 8.39791 6.62361H41.7417L41.7391 6.62492ZM31.7599 24.1461C32.0313 24.1461 32.2583 24.1396 32.484 24.1461C33.5577 24.1826 34.2387 24.8767 34.2387 25.953C34.2414 32.2661 34.2414 38.5806 34.2387 44.8937C34.2387 45.9687 33.5382 46.6732 32.4697 46.6745C27.5134 46.6784 22.5571 46.6784 17.6021 46.6745C16.561 46.6745 15.8578 45.9635 15.8578 44.9198C15.8539 38.5897 15.8552 32.2596 15.8578 25.9295C15.8578 24.8845 16.5388 24.1892 17.5864 24.1474C17.8265 24.137 18.0678 24.1461 18.3301 24.1461V22.5166C17.5786 22.5166 16.8637 22.514 16.1487 22.5166C14.805 22.5219 14.1918 23.1416 14.1918 24.4997C14.1918 31.773 14.1918 39.0476 14.1918 46.3209C14.1918 47.7104 14.8271 48.3379 16.2309 48.3379C22.1005 48.3379 27.9687 48.3379 33.8382 48.3379C35.2955 48.3379 35.9061 47.7221 35.9061 46.2505C35.9061 39.0254 35.9061 31.8004 35.9061 24.5753C35.9061 24.4123 35.9126 24.2492 35.8982 24.0874C35.8291 23.3307 35.3386 22.6393 34.6562 22.5819C33.7065 22.5023 32.7462 22.5623 31.7599 22.5623V24.1448V24.1461ZM30.0287 21.6751C29.3816 21.6751 28.7802 21.6569 28.1813 21.6817C27.7091 21.7012 27.3855 21.5238 27.1168 21.1389C26.0587 19.623 24.0391 19.6269 22.9733 21.1455C22.7019 21.5316 22.3744 21.6999 21.9048 21.6817C21.2942 21.6569 20.6823 21.6751 20.0861 21.6751V24.1083H30.0287V21.6751ZM29.1833 14.9563V12.5297H20.9132V14.9563H29.1833ZM19.1611 12.531H10.8832V14.955H19.1611V12.531ZM39.2107 12.5271H30.9498V14.9589H39.2107V12.5271ZM9.15851 12.5388H1.66732C1.66732 13.0007 1.66732 13.4234 1.66732 13.8447C1.66993 14.7162 1.92955 14.9811 2.79974 14.9824C4.75538 14.985 6.71102 14.9837 8.66797 14.9824C8.82583 14.9824 8.98239 14.9641 9.15982 14.9537V12.5388H9.15851ZM48.4266 12.5232H40.9524V14.9733C43.2094 14.9733 45.4247 14.9824 47.6386 14.9654C48.1187 14.9615 48.3992 14.6432 48.4214 14.137C48.4449 13.619 48.4266 13.0985 48.4266 12.5232ZM21.0489 8.34051C19.4299 8.34051 17.9335 8.38487 16.441 8.32224C15.6517 8.28963 15.0437 8.49315 14.4749 9.03588C13.8395 9.64384 13.1324 10.1774 12.3483 10.8337C14.7893 10.8337 17.0789 10.835 19.3673 10.8271C19.4599 10.8271 19.5916 10.7554 19.6399 10.6771C20.0978 9.93477 20.5414 9.1846 21.0476 8.34051H21.0489ZM37.7078 10.835C37.5225 10.6601 37.4273 10.5597 37.3216 10.471C36.5858 9.85649 35.8604 9.22766 35.1037 8.64057C34.8924 8.4775 34.5871 8.35877 34.3222 8.35486C32.7449 8.32877 31.1663 8.34181 29.5877 8.34312C29.4364 8.34312 29.2838 8.35616 29.0594 8.3666C29.5082 9.11285 29.9243 9.76908 30.3001 10.4488C30.4631 10.7436 30.6484 10.848 30.9863 10.8454C33.0528 10.8297 35.1194 10.8376 37.1846 10.8376C37.3229 10.8376 37.4612 10.8376 37.7078 10.8376V10.835ZM28.561 10.8193C28.1226 10.0874 27.7143 9.44292 27.3464 8.77756C27.1676 8.45401 26.9641 8.31833 26.5806 8.33138C25.653 8.36269 24.7202 8.38226 23.7952 8.32616C23.2107 8.29093 22.8689 8.46836 22.6106 8.99543C22.3079 9.61122 21.9178 10.184 21.5395 10.8193H28.561ZM12.6184 8.40574C12.4801 8.37182 12.4214 8.34442 12.3627 8.34442C10.8963 8.34181 9.42988 8.33659 7.96217 8.34964C7.79648 8.35095 7.61644 8.43444 7.47032 8.52446C6.37573 9.19765 5.28637 9.87997 4.1983 10.5623C4.09915 10.6236 4.01435 10.7084 3.8578 10.835C5.79517 10.835 7.63731 10.8363 9.47815 10.831C9.58513 10.831 9.7182 10.8089 9.79517 10.7462C10.7241 9.98695 11.6438 9.21722 12.6184 8.40574ZM46.1448 10.8337C46.1539 10.7997 46.1644 10.7645 46.1735 10.7306C44.9472 9.96477 43.7208 9.19635 42.4918 8.43575C42.4005 8.37965 42.2779 8.34573 42.1696 8.34573C40.6549 8.34573 39.1402 8.35095 37.6256 8.35877C37.606 8.35877 37.5864 8.40052 37.5408 8.4514C38.4514 9.212 39.3594 9.97391 40.274 10.7254C40.3536 10.7906 40.4801 10.8284 40.5858 10.8284C42.4397 10.835 44.2922 10.8324 46.1461 10.8324L46.1448 10.8337Z" fill="#00E7BB"/>
<path d="M27.9674 34.9821C28.6184 34.9821 29.2694 34.973 29.9204 34.9848C30.5154 34.9952 30.9081 35.35 30.9015 35.8458C30.895 36.3285 30.5284 36.6769 29.9491 36.6834C28.6302 36.699 27.3112 36.6977 25.9935 36.6834C25.4064 36.6769 25.0568 36.3429 25.049 35.8484C25.0411 35.3344 25.409 34.9939 26.0144 34.9848C26.6654 34.973 27.3164 34.9821 27.9674 34.9821Z" fill="#00E7BB"/>
<path d="M27.9738 30.8503C27.3228 30.8503 26.6718 30.8568 26.0208 30.849C25.4167 30.8412 25.0462 30.5085 25.0488 29.9945C25.0528 29.4922 25.3894 29.1713 25.9869 29.166C27.3046 29.153 28.6235 29.153 29.9412 29.166C30.5257 29.1713 30.891 29.5052 30.9014 29.988C30.9119 30.4837 30.5152 30.8425 29.9256 30.8503C29.2745 30.8594 28.6235 30.8529 27.9725 30.8529L27.9738 30.8503Z" fill="#00E7BB"/>
<path d="M27.9855 42.4993C27.3189 42.4993 26.6509 42.5071 25.9842 42.4967C25.3906 42.4876 25.0527 42.1771 25.0527 41.6682C25.0527 41.1686 25.4115 40.832 25.9816 40.8294C27.3163 40.8228 28.6509 40.8215 29.9842 40.8294C30.5126 40.832 30.887 41.1777 30.9053 41.6408C30.9236 42.1223 30.5465 42.4849 29.9869 42.4967C29.3202 42.5097 28.6522 42.4993 27.9855 42.5006V42.4993Z" fill="#00E7BB"/>
<path d="M20.7695 41.1414C21.1009 40.6469 21.414 40.1746 21.7323 39.7063C22.1081 39.1544 22.5621 39.0122 23.0017 39.2992C23.4505 39.5928 23.5079 40.0742 23.1492 40.6195C22.6678 41.3514 22.1811 42.082 21.6893 42.8061C21.2248 43.491 20.7265 43.5301 20.125 42.9405C19.962 42.7813 19.8028 42.6182 19.6423 42.4577C19.1413 41.9528 19.0709 41.5419 19.4114 41.1388C19.7363 40.7552 20.1342 40.7448 20.7682 41.1401L20.7695 41.1414Z" fill="#00E7BB"/>
<path d="M20.7606 29.4867C21.1024 28.9766 21.4221 28.4913 21.7495 28.0112C22.1031 27.4932 22.6093 27.3549 23.032 27.6524C23.4482 27.9433 23.5003 28.4182 23.1572 28.9414C22.6575 29.6994 22.1553 30.4561 21.6412 31.2049C21.2459 31.7816 20.7097 31.8298 20.2061 31.351C20.0065 31.1606 19.8134 30.9636 19.6191 30.7666C19.1442 30.2865 19.0763 29.8833 19.4038 29.4867C19.7195 29.1032 20.1696 29.0901 20.7606 29.4867Z" fill="#00E7BB"/>
<path d="M20.7702 35.3055C21.112 34.794 21.429 34.3061 21.7591 33.8273C22.1166 33.3094 22.568 33.1854 23.0011 33.4685C23.4356 33.753 23.506 34.2331 23.1707 34.7458C22.6736 35.5051 22.1701 36.2618 21.6573 37.0106C21.2281 37.6368 20.705 37.6773 20.1557 37.1424C19.947 36.9389 19.7382 36.7327 19.536 36.5214C19.1368 36.1052 19.095 35.6799 19.4082 35.3068C19.6965 34.9623 20.1192 34.9245 20.5888 35.2024C20.6293 35.2259 20.671 35.2494 20.7702 35.3055Z" fill="#00E7BB"/>
<path d="M36.7057 4.99872C35.9242 4.99872 35.1414 5.00524 34.3599 4.99611C33.7611 4.98958 33.371 4.63603 33.3893 4.14027C33.4062 3.66147 33.7924 3.32879 34.3599 3.32618C35.9555 3.32096 37.5524 3.32096 39.1479 3.32618C39.705 3.32879 40.0951 3.68495 40.0964 4.16245C40.0964 4.64255 39.7181 4.98698 39.1479 4.9948C38.3338 5.00524 37.5198 4.99741 36.7044 4.99741L36.7057 4.99872Z" fill="#00E7BB"/>
<path d="M11.2658 4.99259C10.4269 4.99781 10.0225 4.73558 10.0082 4.18111C9.99381 3.6136 10.423 3.32397 11.2789 3.32397C11.4093 3.32397 11.5398 3.31875 11.6703 3.32658C12.1725 3.35398 12.5144 3.68535 12.5235 4.14719C12.5326 4.62338 12.2156 4.95476 11.7055 4.99129C11.5594 5.00173 11.4119 4.99259 11.2658 4.99259Z" fill="#00E7BB"/>
<path d="M15.4256 4.9856C15.2625 4.9856 15.0981 4.99996 14.9377 4.98299C14.4915 4.93472 14.194 4.60335 14.1914 4.1689C14.1888 3.74881 14.498 3.3783 14.9272 3.33525C15.2338 3.30524 15.5469 3.31307 15.8548 3.32742C16.3402 3.3496 16.7068 3.71359 16.7107 4.15716C16.7146 4.60465 16.3597 4.95821 15.8653 4.99082C15.7191 4.99995 15.5717 4.99213 15.4256 4.99213C15.4256 4.98952 15.4256 4.98691 15.4256 4.9843V4.9856Z" fill="#00E7BB"/>
<path d="M19.6139 4.98846C19.4508 4.98846 19.2877 5.0015 19.1273 4.98585C18.6733 4.94018 18.3836 4.62446 18.3771 4.18219C18.3693 3.72688 18.6746 3.37202 19.1403 3.33418C19.4312 3.3107 19.7261 3.31722 20.0183 3.32896C20.5271 3.35114 20.8598 3.67861 20.8689 4.14566C20.8794 4.6349 20.5441 4.96628 20.0053 4.99498C19.8761 5.0015 19.7457 4.99498 19.6152 4.99498C19.6152 4.99237 19.6152 4.98976 19.6152 4.98715L19.6139 4.98846Z" fill="#00E7BB"/>
</svg>
