<svg width="50" height="50" viewBox="0 0 50 50" fill="none" xmlns="http://www.w3.org/2000/svg">
<path d="M42.5438 40.0058C44.6683 40.0058 46.7664 40.0058 48.8659 40.0058C49.7587 40.0058 49.9948 40.2464 49.9948 41.1506C49.9948 43.7364 49.9948 46.3236 49.9948 48.9095C49.9948 49.7399 49.7379 50 48.9159 50C32.9628 50 17.0111 50 1.05808 50C0.265213 50 0 49.7343 0 48.9401C0 46.3195 0 43.6974 0 41.0768C0 40.2575 0.259659 40.0044 1.09557 40.0044C3.02288 40.0044 4.9488 40.0044 6.87611 40.0044C7.06356 40.0044 7.25102 40.0044 7.49957 40.0044V39.3576C7.49957 31.2342 7.52456 23.1095 7.48013 14.9861C7.47041 13.1639 7.65786 11.4016 8.16052 9.65726C8.49655 8.4944 8.7687 7.31206 9.05197 6.13529C9.12417 5.83623 9.15889 5.52047 9.16027 5.21306C9.17138 3.80678 9.16305 2.40049 9.16583 0.994207C9.16722 0.297323 9.45048 0.00660718 10.1364 0.00521619C12.8274 0.00243422 15.5171 0.00243422 18.2081 0.00521619C18.8204 0.00521619 19.1717 0.329316 19.1592 0.856499C19.1481 1.35725 18.801 1.66466 18.2164 1.66466C15.96 1.66883 13.7036 1.66605 11.4472 1.66605C11.2598 1.66605 11.0737 1.66605 10.8571 1.66605V5.00303H11.3903C15.7476 5.00303 20.1048 5.00024 24.4607 5.00859C24.7954 5.00859 25.0411 4.9293 25.28 4.68032C25.9742 3.95144 26.6963 3.24899 27.41 2.53959C27.9682 1.98459 28.3681 1.98181 28.9207 2.52568C29.3651 2.96523 29.8025 3.41174 30.2468 3.85129C30.6564 4.25746 31.1341 4.38126 31.6742 4.14479C32.1977 3.91528 32.4893 3.51328 32.4977 2.93046C32.5032 2.53264 32.4977 2.13621 32.4977 1.66466C32.288 1.66466 32.1047 1.66466 31.9214 1.66466C28.5708 1.66466 25.2216 1.66188 21.8711 1.66883C21.4615 1.66883 21.1115 1.60068 20.9144 1.1959C20.6672 0.68819 20.9741 0.0956302 21.5337 0.0121711C21.6697 -0.00730267 21.8114 0.00243422 21.9502 0.00243422C27.3142 0.00243422 32.6782 0.00243422 38.0421 0.00243422C38.9128 0.00243422 39.1613 0.247248 39.1627 1.10409C39.1627 1.69387 39.1599 2.28504 39.1627 2.87482C39.1669 3.46877 39.4154 3.91667 39.9806 4.14201C40.536 4.36456 41.0289 4.25746 41.451 3.82069C41.8857 3.3714 42.3286 2.93185 42.7757 2.49369C43.2714 2.00684 43.6949 1.99015 44.174 2.46448C45.3098 3.587 46.4387 4.71648 47.5607 5.85292C47.9939 6.29247 47.9856 6.72646 47.5523 7.17714C47.1191 7.62782 46.6748 8.06737 46.2249 8.50135C45.7833 8.92699 45.5959 9.41245 45.8486 10.0022C46.1041 10.5962 46.5692 10.8549 47.2121 10.8396C47.837 10.8243 48.4618 10.8299 49.0867 10.8396C49.6796 10.8479 49.9892 11.147 49.992 11.7354C50.0003 13.367 50.0003 14.9986 49.992 16.6303C49.9892 17.1853 49.6726 17.4885 49.1117 17.4969C48.4702 17.508 47.8273 17.5038 47.1844 17.4982C46.572 17.4941 46.0999 17.7222 45.8597 18.3092C45.6222 18.8878 45.7528 19.3858 46.2068 19.8184C46.647 20.2371 47.0733 20.6711 47.4982 21.1037C48.0008 21.6156 48.005 22.0315 47.5023 22.5392C46.4762 23.5755 45.4417 24.6034 44.4114 25.6341C43.6547 26.3922 43.3936 26.4005 42.5438 25.6439V40.0016V40.0058ZM34.1264 26.6718H37.4978C37.4978 26.1836 37.4923 25.7677 37.4978 25.3531C37.5173 24.0762 38.131 23.1776 39.2821 22.663C40.4416 22.1441 41.6579 22.3695 42.5508 23.243C42.859 23.5449 43.1409 23.8759 43.4145 24.1722C44.2393 23.3473 45.0113 22.5767 45.8291 21.7574C45.5278 21.4765 45.1987 21.1941 44.896 20.8839C44.0393 20.0006 43.8032 18.7682 44.3031 17.6624C44.828 16.5037 45.7097 15.843 47.0205 15.8374C47.4468 15.836 47.8745 15.8374 48.3313 15.8374C48.3313 15.2309 48.3313 14.6954 48.3313 14.1599C48.3313 13.6244 48.3313 13.0652 48.3313 12.5004C47.8342 12.5004 47.419 12.5074 47.0039 12.5004C45.7292 12.474 44.8169 11.8648 44.3226 10.7061C43.8227 9.53346 43.9879 8.42902 44.8752 7.48037C45.1807 7.15488 45.525 6.86695 45.9 6.51781C45.4487 6.08799 45.0502 5.72634 44.6725 5.34382C44.2865 4.95156 43.9213 4.53844 43.5061 4.08915C43.134 4.48419 42.8493 4.81246 42.5369 5.11152C41.6468 5.96559 40.4152 6.19649 39.3127 5.69017C38.1574 5.16021 37.5006 4.27415 37.4978 2.96523C37.4978 2.53959 37.4978 2.11395 37.4978 1.69526H34.1611C34.1611 2.13342 34.1625 2.54516 34.1611 2.95689C34.1556 4.19765 33.4794 5.21863 32.356 5.69156C31.1883 6.18258 29.9872 5.96141 29.0902 5.07953C28.7861 4.78047 28.4986 4.46471 28.2654 4.2199C27.4433 5.04197 26.6769 5.80841 25.8895 6.5957C26.1756 6.87668 26.5199 7.17296 26.8157 7.51097C27.6488 8.45962 27.853 9.5432 27.3392 10.6991C26.8324 11.8397 25.9479 12.4879 24.6607 12.5018C24.2316 12.506 23.8026 12.5018 23.3596 12.5018V15.8388C23.8053 15.8388 24.2191 15.8332 24.6315 15.8388C25.8812 15.8569 26.7921 16.43 27.3017 17.5664C27.8349 18.7529 27.6863 19.8699 26.7963 20.845C26.4936 21.1774 26.1409 21.4639 25.8271 21.7574C26.6477 22.5753 27.4197 23.3459 28.2223 24.1472C29.2693 22.9064 30.4732 21.8993 32.2755 22.6254C34.0959 23.3585 34.3153 24.9039 34.125 26.6732L34.1264 26.6718ZM1.6857 48.3016H48.2897V41.6958H1.6857V48.3016ZM12.4984 39.9807V39.3242C12.4984 34.3778 12.4984 29.4315 12.4984 24.4852C12.4984 23.5782 12.733 23.3376 13.6231 23.3376C16.764 23.3376 19.9063 23.3376 23.0472 23.3376C23.9136 23.3376 24.1608 23.5838 24.1608 24.4462C24.1608 29.4273 24.1608 34.4084 24.1608 39.3896C24.1608 39.5885 24.1608 39.7874 24.1608 39.978H40.797V24.1666C39.925 23.9622 39.196 24.5074 39.1655 25.3782C39.1447 25.9846 39.1613 26.5925 39.1599 27.2004C39.1599 27.9724 39.0586 28.1198 38.3268 28.4008C38.3268 29.6735 38.3268 30.9574 38.3268 32.2399C38.3268 33.0731 38.0699 33.3346 37.2507 33.3346C34.0751 33.3346 30.898 33.3346 27.7224 33.3346C26.9296 33.3346 26.6644 33.0689 26.6644 32.2761C26.663 30.28 26.6588 28.2839 26.6685 26.2879C26.6699 25.9346 26.7352 25.5827 26.7796 25.1487C25.9534 24.3294 25.0647 23.4531 24.1816 22.5698C23.6484 22.0342 23.647 21.6281 24.1705 21.0995C24.5052 20.7601 24.8509 20.4332 25.1619 20.1286C24.4843 19.945 23.8192 19.8574 23.2444 19.5833C22.6528 19.301 22.1488 18.835 21.5906 18.4386C20.7533 19.4192 19.6772 20.002 18.3192 20.002C16.9473 20.002 15.8725 19.3816 15.0005 18.3746C13.1718 20.2385 11.9152 20.4235 9.18804 19.2606V39.9807H12.4984ZM14.1841 39.9766H22.4668V25.0374H14.1841V39.9766ZM32.4713 26.7038H28.3695V31.6432H36.6314V28.334C35.7344 28.334 34.8693 28.3076 34.0056 28.341C32.7976 28.3869 32.3991 28.206 32.4949 26.8916C32.499 26.8415 32.4824 26.79 32.4713 26.7052V26.7038ZM20.7949 11.645V6.70698H15.8545V11.645H20.7949ZM9.1686 13.3531C9.1686 14.2656 9.12417 15.1336 9.17832 15.9946C9.25886 17.2826 10.2822 18.2549 11.55 18.3301C12.765 18.4024 13.9188 17.5386 14.0827 16.2617C14.2049 15.3144 14.1063 14.3379 14.1063 13.3531H9.16722H9.1686ZM20.77 13.3615H15.8378C15.8378 14.2712 15.7851 15.1558 15.8503 16.0321C15.9447 17.3202 16.9945 18.2828 18.2553 18.3314C19.4592 18.3787 20.5839 17.5302 20.7463 16.2756C20.8685 15.3269 20.7713 14.3491 20.7713 13.3615H20.77ZM10.6488 6.6889C10.2378 8.34139 9.82956 9.97719 9.41716 11.6339H14.1257V6.6889H10.6488ZM22.4918 10.7993C22.6112 10.8187 22.6612 10.8326 22.7111 10.8326C23.3013 10.8354 23.8914 10.8396 24.4816 10.834C25.1522 10.8285 25.5993 10.5503 25.8035 10.0161C26.0256 9.43331 25.8868 8.94925 25.4452 8.50414C24.887 7.94079 24.3705 7.3371 23.8289 6.75706C23.7789 6.7042 23.6845 6.67082 23.6082 6.66943C23.2499 6.66108 22.8903 6.66525 22.4904 6.66525C22.4904 6.83913 22.4904 6.95736 22.4904 7.07698C22.4904 8.30662 22.4904 9.53625 22.4904 10.7979L22.4918 10.7993ZM32.4032 24.9734C32.2172 24.4142 31.8187 24.1791 31.3188 24.0971C30.612 23.983 30.2274 24.4601 29.7914 24.9734H32.4032ZM23.2013 17.4746C23.8997 18.2675 24.8412 18.4984 25.6951 18.1478C25.0925 17.17 24.1302 17.604 23.2013 17.4746Z" fill="#00E7BB"/>
<path d="M39.9979 14.2052C39.9951 16.5004 38.1303 18.3392 35.8114 18.3351C33.5064 18.3309 31.668 16.4781 31.668 14.1635C31.668 11.8531 33.5161 10.0059 35.8253 10.0059C38.1608 10.0059 40.0007 11.8587 39.9979 14.2052ZM33.337 14.1844C33.3467 15.5309 34.484 16.6617 35.835 16.6687C37.1722 16.6756 38.3302 15.5239 38.3316 14.1844C38.333 12.8143 37.168 11.6556 35.8072 11.675C34.4562 11.6945 33.3259 12.8421 33.337 14.1844Z" fill="#00E7BB"/>
<path d="M40.834 11.7298C40.834 11.1707 41.1714 10.8382 41.7393 10.8396C42.2961 10.841 42.7002 11.2291 42.703 11.7632C42.7058 12.2932 42.2795 12.716 41.7504 12.7063C41.2256 12.698 40.834 12.2793 40.834 11.7284V11.7298Z" fill="#00E7BB"/>
<path d="M39.1606 20.0513C39.169 20.6091 38.7899 21.0264 38.2622 21.0417C37.7332 21.057 37.2972 20.6425 37.293 20.1153C37.2875 19.5867 37.6971 19.1819 38.2442 19.1722C38.8093 19.1625 39.1537 19.4921 39.1606 20.0513Z" fill="#00E7BB"/>
<path d="M29.8988 17.5006C29.3462 17.495 28.9588 17.1278 28.9629 16.6145C28.9671 16.1054 29.3739 15.7298 29.9113 15.7382C30.4751 15.7465 30.8319 16.0943 30.8291 16.6326C30.8264 17.1792 30.4764 17.5061 29.8988 17.5006Z" fill="#00E7BB"/>
<path d="M32.5 8.22507C32.5028 7.6645 32.8249 7.30284 33.3248 7.30006C33.8316 7.29728 34.269 7.79108 34.2551 8.35304C34.244 8.82319 33.8608 9.17094 33.3595 9.16815C32.8166 9.16398 32.4972 8.81484 32.5 8.22646V8.22507Z" fill="#00E7BB"/>
<path d="M39.1612 8.22228C39.164 8.81067 38.8446 9.16259 38.3031 9.16676C37.8004 9.17094 37.4172 8.82458 37.4047 8.35443C37.3894 7.79386 37.8254 7.29728 38.3322 7.30006C38.8335 7.30145 39.1584 7.6645 39.1612 8.22228Z" fill="#00E7BB"/>
<path d="M42.6992 16.6866C42.6908 17.1442 42.3243 17.5017 41.8633 17.5017C41.3328 17.5017 40.8177 17.0107 40.8385 16.5266C40.8579 16.0773 41.2842 15.6878 41.7438 15.699C42.2354 15.7115 42.7089 16.2011 42.6992 16.6866Z" fill="#00E7BB"/>
<path d="M33.4559 19.1799C33.9071 19.1869 34.307 19.6028 34.3043 20.0646C34.3015 20.5542 33.8224 21.0383 33.3351 21.0411C32.856 21.0439 32.4839 20.6572 32.5005 20.1731C32.5172 19.6654 32.9921 19.173 33.4559 19.1813V19.1799Z" fill="#00E7BB"/>
<path d="M30.8279 11.7007C30.8265 12.1959 30.4377 12.5965 29.9545 12.5993C29.4755 12.6021 29.0672 12.1959 29.0645 11.7119C29.0617 11.2083 29.4324 10.8411 29.9462 10.8397C30.478 10.8397 30.8293 11.1819 30.8279 11.6994V11.7007Z" fill="#00E7BB"/>
<path d="M9.99767 45.0031C9.46169 45.0031 8.92571 45.0115 8.38973 45.0003C7.83153 44.9906 7.48717 44.6498 7.50244 44.1449C7.51633 43.665 7.85374 43.3478 8.39111 43.3437C9.46308 43.3353 10.535 43.3353 11.607 43.3437C12.1444 43.3478 12.4832 43.6664 12.4957 44.1463C12.5096 44.6512 12.1652 44.9906 11.6056 45.0017C11.0696 45.0115 10.5336 45.0045 9.99767 45.0045V45.0031Z" fill="#00E7BB"/>
<path d="M39.1246 45.002C38.5887 45.002 38.0527 45.0117 37.5167 44.9992C36.9932 44.9867 36.6586 44.6459 36.6641 44.1604C36.6697 43.6778 37.0071 43.3481 37.5375 43.3425C38.6262 43.3328 39.7162 43.3314 40.8048 43.3425C41.3283 43.3481 41.6629 43.6945 41.6574 44.1799C41.6518 44.6612 41.313 44.9881 40.784 44.9992C40.2313 45.0103 39.6773 45.002 39.1246 45.002Z" fill="#00E7BB"/>
<path d="M25.816 46.6702C25.28 46.6702 24.744 46.6786 24.208 46.6674C23.6776 46.6563 23.3402 46.3294 23.336 45.8481C23.3305 45.3627 23.6651 45.0163 24.1886 45.0108C25.2772 44.9996 26.3672 45.001 27.4558 45.0108C27.9849 45.0149 28.3237 45.3474 28.3292 45.8287C28.3348 46.3141 28.0002 46.6549 27.4753 46.6674C26.9226 46.6799 26.3686 46.6702 25.816 46.6702Z" fill="#00E7BB"/>
</svg>
