<svg width="51" height="52" viewBox="0 0 51 52" fill="none" xmlns="http://www.w3.org/2000/svg">
<path d="M24.0681 1.0026C24.1644 1.29686 24.3441 1.59111 24.3454 1.88537C24.3623 7.5973 24.3571 13.3105 24.3571 19.0225C24.3571 19.2152 24.3571 19.4065 24.3571 19.6279H29.7175C29.0574 18.7581 29.3061 17.8025 29.3686 16.8754C29.4975 14.9432 29.6719 13.015 29.7982 11.0841C29.8139 10.8458 29.7045 10.5581 29.5626 10.3589C29.1655 9.8016 29.0808 8.34595 29.5587 7.859C29.9089 7.50225 29.7969 7.23403 29.6602 6.87598C29.0522 5.27841 29.8529 3.68345 31.4987 3.21082C31.7916 3.12619 32.1067 3.08582 32.4127 3.08322C33.7629 3.0702 35.1157 3.04286 36.4645 3.09364C37.0023 3.11447 37.5322 3.41653 38.066 3.41653C38.5998 3.41653 39.1298 3.11447 39.6675 3.09364C40.9994 3.04286 42.3366 3.06629 43.6699 3.07931C45.257 3.09624 46.4666 4.07665 46.6541 5.60392C46.7127 6.08175 46.4601 6.59735 46.3442 7.09472C46.3156 7.21971 46.2635 7.3395 46.2244 7.45668C47.0291 8.35897 47.0968 9.57505 46.4275 10.5203C46.3377 10.6466 46.3195 10.8523 46.3312 11.0164C46.4731 13.0775 46.6267 15.1385 46.7778 17.1983C46.839 18.0225 46.9757 18.8545 46.3833 19.6565C47.4626 19.6565 48.4483 19.6552 49.4339 19.6565C50.0523 19.6578 50.2021 19.8102 50.2073 20.4403C50.2125 21.107 50.2138 21.7749 50.2073 22.4415C50.2008 23.0366 50.0497 23.1889 49.4495 23.1889C46.9601 23.1915 44.4693 23.1902 41.9799 23.1902C41.7872 23.1902 41.5958 23.1902 41.3315 23.1902C41.3315 23.8282 41.3354 24.4245 41.3315 25.0195C41.3275 25.6406 41.1687 25.802 40.5529 25.802C36.6468 25.8033 32.7408 25.8033 28.8347 25.802C28.241 25.802 28.0822 25.6406 28.0783 25.0534C28.0744 24.4544 28.0783 23.8542 28.0783 23.224H23.7881C23.7881 23.8243 23.7894 24.418 23.7881 25.013C23.7855 25.6692 23.6501 25.8033 22.9809 25.8033C19.1074 25.8033 15.2339 25.8033 11.3604 25.8033C10.6899 25.8033 10.5675 25.6783 10.5649 25.0013C10.5623 24.4193 10.5649 23.8386 10.5649 23.1915H9.93994C7.27082 23.1915 4.60169 23.1915 1.93257 23.1915C1.1735 23.1915 1.05892 23.0756 1.05762 22.3152C1.05632 21.7137 1.05632 21.1109 1.05762 20.5094C1.06022 19.788 1.18391 19.6669 1.90913 19.6552C2.03543 19.6539 2.16303 19.6422 2.34401 19.6331C2.34401 19.4 2.34401 19.1943 2.34401 18.9873C2.34401 13.291 2.34401 7.59469 2.3427 1.89839C2.3427 1.54945 2.33099 1.20702 2.68774 1C9.81625 1 16.9448 1 24.0733 1L24.0681 1.0026ZM15.092 16.5239V2.07807H13.7158C13.3994 3.3319 12.9059 3.83448 12.0127 3.83318C11.117 3.83188 10.5923 3.29284 10.3214 2.08458H3.39994V16.5239H15.092ZM38.0517 10.8302C38.0309 10.937 38.0113 10.9995 38.0074 11.0633C37.8369 13.4459 37.6572 15.8286 37.5061 18.2126C37.458 18.9626 37.9658 19.4482 38.7561 19.4521C40.6739 19.4625 42.5931 19.4625 44.511 19.4521C45.3482 19.4482 45.8078 18.9574 45.77 18.128C45.7388 17.4457 45.688 16.7648 45.6372 16.0851C45.5695 15.1672 45.4927 14.2506 45.4172 13.304C44.7701 13.304 44.1698 13.3066 43.5709 13.304C43.209 13.3014 42.9082 13.192 42.9134 12.7624C42.9186 12.3314 43.2233 12.2403 43.5865 12.2429C44.1659 12.2455 44.7466 12.2429 45.3729 12.2429C45.3273 11.7351 45.2883 11.2911 45.2466 10.8328H38.053L38.0517 10.8302ZM16.1844 14.5761C17.2573 14.5761 18.2793 14.58 19.3027 14.5735C19.6634 14.5709 19.9746 14.6373 19.985 15.0761C19.9954 15.5435 19.666 15.6242 19.2897 15.6242C18.7038 15.6242 18.1192 15.6242 17.5333 15.6242C17.0867 15.6242 16.6401 15.6242 16.2013 15.6242V16.5122H23.2765V2.08718H21.869C21.7153 3.16004 21.205 3.74204 20.3652 3.82797C19.455 3.92041 18.9564 3.4595 18.4811 2.08588H16.1896V4.6886C18.5827 4.51153 19.1712 4.59095 20.2258 5.28753C21.4732 6.1117 22.1789 7.26528 22.2544 8.76911C22.313 9.94613 21.9419 10.9916 21.1346 11.8458C19.7766 13.2845 18.0984 13.6738 16.1844 13.1894V14.5761ZM30.7096 13.2936C30.681 13.4433 30.6576 13.5228 30.6511 13.6022C30.5404 15.0774 30.4219 16.5525 30.3282 18.029C30.2683 18.973 30.7357 19.4508 31.6888 19.4534C33.2342 19.4573 34.7784 19.4547 36.3239 19.4534C36.4437 19.4534 36.5648 19.4378 36.5804 19.4365C36.5453 18.8063 36.4789 18.2152 36.4893 17.6254C36.4997 16.9926 36.583 16.3611 36.6299 15.7297C36.6885 14.9276 36.7406 14.1243 36.7966 13.3131C36.3122 13.261 35.7081 13.4251 35.7185 12.7715C35.7315 12.0111 36.445 12.3405 36.8968 12.1869C36.9228 11.7494 36.9489 11.3054 36.9788 10.8107C36.7367 10.8107 36.5609 10.8107 36.3838 10.8107C34.9685 10.8107 33.5545 10.8107 32.1393 10.8107C31.2582 10.8107 30.799 11.2473 30.7617 12.1205C30.7617 12.1465 30.7891 12.1739 30.8255 12.2403C30.9622 12.2403 31.1224 12.2403 31.2825 12.2403C32.2903 12.2403 33.2993 12.2429 34.3071 12.239C34.6717 12.2377 34.9841 12.3301 34.9933 12.7507C35.0024 13.2025 34.6782 13.3053 34.2928 13.2949C34.147 13.291 33.9998 13.2949 33.854 13.2949C32.815 13.2949 31.776 13.2949 30.7109 13.2949L30.7096 13.2936ZM11.6208 20.7372V24.7253H22.7257V20.7372H11.6208ZM40.2651 20.7411H29.172V24.7148H40.2651V20.7411ZM16.1662 8.9618C16.1662 9.87191 16.1766 10.782 16.1597 11.6921C16.1544 11.9695 16.2404 12.1309 16.5151 12.1648C16.9955 12.2246 17.4799 12.3418 17.9564 12.3197C20.0214 12.2233 21.5474 10.2951 21.1542 8.32252C20.7493 6.29138 18.4069 5.0102 16.463 5.77578C16.3263 5.83047 16.1844 6.07264 16.1792 6.23148C16.1518 7.14029 16.1662 8.0517 16.1662 8.9618ZM15.1115 17.6397H3.40254V19.4196H15.1115V17.6397ZM16.1792 19.4261H23.266V17.6423H16.1792V19.4261ZM2.12527 22.133H10.5285V20.7437H2.12657V22.133H2.12527ZM49.1474 20.7398H41.3744V22.1317H49.1474V20.7398ZM41.6609 8.41366C40.4409 8.41366 39.2222 8.41236 38.0022 8.41626C37.859 8.41626 37.5986 8.43449 37.5921 8.47485C37.5374 8.83681 37.4905 9.20919 37.5283 9.57115C37.5374 9.65968 37.8564 9.77947 38.0335 9.78077C40.3745 9.79509 42.7155 9.78988 45.0565 9.78988C45.5817 9.78988 45.8429 9.52167 45.8403 8.98524C45.8403 8.95269 45.8364 8.92014 45.8403 8.88759C45.8846 8.52823 45.7284 8.40324 45.3664 8.40845C44.1308 8.42538 42.8952 8.41496 41.6596 8.41496L41.6609 8.41366ZM37.7587 5.48153H45.5344C45.4015 4.74198 44.7193 4.15608 43.8951 4.14176C42.4004 4.11572 40.9057 4.11702 39.411 4.14176C38.5894 4.15478 37.9137 4.73027 37.7587 5.48153ZM36.4437 8.43449C36.2823 8.42668 36.1547 8.41496 36.0271 8.41496C34.3045 8.41496 32.5806 8.42668 30.8581 8.40454C30.4258 8.39934 30.2513 8.53605 30.3151 8.9618C30.3203 8.99305 30.3151 9.02691 30.3151 9.05946C30.3151 9.54641 30.5508 9.78988 31.0221 9.78988C32.453 9.78988 33.8826 9.78988 35.3136 9.78988H36.4437V8.43449ZM37.1312 4.23159C37.0504 4.20165 36.9775 4.15087 36.9046 4.15087C35.294 4.14436 33.6821 4.11181 32.0728 4.15608C31.289 4.17821 30.6419 4.8162 30.5534 5.51408C32.3306 5.51408 34.104 5.49455 35.8773 5.5271C36.3851 5.53621 36.7041 5.462 36.7939 4.89692C36.8304 4.67037 37.0075 4.46596 37.1312 4.23159ZM23.8246 20.7385V22.1408H28.0379V20.7385H23.8246ZM37.9332 6.57782C38.0439 7.32908 38.0751 7.35903 38.7444 7.35903C40.6635 7.35903 42.584 7.35903 44.5032 7.35903C44.9927 7.35903 45.2865 7.09863 45.3846 6.57782H37.9332ZM30.7214 6.55308C30.8533 7.09038 31.1588 7.35903 31.638 7.35903C33.2629 7.35903 34.8878 7.35903 36.514 7.35903C36.6676 7.35903 36.8213 7.34601 36.9762 7.3382C37.0075 7.29914 37.04 7.26007 37.0713 7.21971C36.8851 6.99707 36.7028 6.58693 36.5101 6.58303C34.5948 6.53485 32.6783 6.55438 30.7227 6.55438L30.7214 6.55308ZM11.4242 2.07676C11.4268 2.52986 11.6104 2.78376 12.0271 2.77204C12.4372 2.76032 12.6104 2.50513 12.5895 2.07676H11.4255H11.4242ZM20.7753 2.09369H19.5839C19.6373 2.52205 19.7988 2.79287 20.2245 2.77334C20.6164 2.75511 20.7883 2.51424 20.7753 2.09369Z" fill="#00E7BB" stroke="#00E7BB" stroke-width="0.2"/>
<path d="M6.58531 50.9998C6.54755 50.6183 6.49286 50.2368 6.47464 49.854C6.45511 49.4517 6.47073 49.0494 6.47073 48.582C5.95253 48.582 5.48641 48.582 5.02029 48.582C3.94613 48.582 2.87197 48.5846 1.79781 48.582C1.20149 48.5794 1.05566 48.4335 1.05045 47.8281C1.04525 47.1615 0.920252 46.4597 1.08431 45.836C1.26008 45.1655 1.05306 44.5679 1.05176 43.9377C1.04655 40.6176 1.04915 37.2987 1.04915 33.9786C1.04915 33.1935 1.34341 32.5594 1.9892 32.0946C2.35898 31.8277 2.72484 31.5556 3.07769 31.2691C3.59068 30.8538 3.64536 30.3903 3.26778 29.8447C2.98264 29.4346 2.92405 27.8591 3.26518 27.5011C3.49824 27.2563 3.87973 27.035 4.20783 27.0167C5.29501 26.9569 6.3874 26.9816 7.47719 26.9985C8.19069 27.0102 8.62556 27.4555 8.62035 28.1794C8.61645 28.8461 8.77269 29.54 8.20761 30.1168C7.97976 30.3499 8.23235 30.9775 8.60733 31.2691C9.1073 31.6584 9.6203 32.0308 10.1333 32.4149C10.6228 32.0425 11.1189 31.678 11.6007 31.2952C12.1501 30.859 12.1514 30.4384 11.8467 29.8226C11.4809 29.0843 11.5264 28.2706 11.8233 27.5128C11.9769 27.1209 12.3858 26.9946 12.8024 26.9933C13.8922 26.9907 14.9833 26.9803 16.0731 26.9959C16.7944 27.0063 17.2345 27.4464 17.2227 28.1638C17.2123 28.8278 17.392 29.5257 16.823 30.1038C16.5978 30.3317 16.8491 30.9644 17.2175 31.2548C17.7149 31.648 18.2253 32.0243 18.7383 32.4162C19.2474 32.0282 19.7721 31.6493 20.2734 31.2418C20.7603 30.846 20.7929 30.3733 20.4504 29.8421C20.3333 29.6611 20.2682 29.4242 20.2499 29.208C20.2174 28.837 20.2304 28.4594 20.2447 28.0857C20.2682 27.4438 20.6731 27.0128 21.3228 26.9998C22.4607 26.9764 23.6013 26.9764 24.7393 26.9998C25.4085 27.0128 25.8317 27.4555 25.8238 28.1274C25.816 28.807 25.9488 29.4893 25.441 30.1273C25.1898 30.4436 25.4293 30.9462 25.7991 31.2379C26.1819 31.5399 26.5725 31.8329 26.9644 32.1245C27.5568 32.5646 27.8472 33.1622 27.8485 33.8875C27.855 37.2727 27.8563 40.6566 27.8446 44.0419C27.8446 44.3596 27.7417 44.6772 27.6818 45.0288H31.9498C31.0358 43.6096 31.4004 42.0641 31.4759 40.5616C31.5527 39.0213 32.0878 37.6086 32.9367 36.3235C33.4211 35.5918 33.9445 34.8861 34.4327 34.157C34.9926 33.3211 35.2335 32.3941 35.214 31.3863C35.1892 30.1507 35.1892 28.9151 35.1866 27.6795C35.1866 26.8462 35.6098 26.4178 36.4417 26.4035C36.93 26.3944 37.4183 26.3918 37.9065 26.4035C38.6799 26.4243 39.1109 26.8566 39.1122 27.63C39.1148 28.9463 39.0952 30.264 39.0913 31.5803C39.0887 32.5503 39.3765 33.4344 39.9468 34.2989C40.0444 34.1622 40.1303 34.0593 40.1968 33.9448C40.6316 33.1974 40.8491 32.3862 40.8478 31.5243C40.8452 30.2887 40.8113 29.0531 40.8048 27.8188C40.7996 26.7459 41.1733 26.3775 42.2331 26.3762C42.6393 26.3762 43.0469 26.3736 43.4531 26.3762C44.3398 26.3827 44.759 26.7993 44.7538 27.7016C44.7486 28.6586 44.7642 29.6195 44.6952 30.5738C44.5676 32.3264 45.1118 33.8276 46.2042 35.1791C47.3695 36.6204 48.1989 38.2427 48.4111 40.0981C48.5413 41.2399 48.5466 42.4039 48.5062 43.5549C48.4893 44.0445 48.2119 44.5249 48.0427 45.0444C48.4919 45.0444 48.9892 45.0392 49.4866 45.0457C50.0178 45.0522 50.1936 45.2189 50.2014 45.7449C50.2118 46.461 50.2118 47.1771 50.2014 47.8932C50.1936 48.427 50.0335 48.5781 49.4853 48.5794C47.2237 48.5833 44.9621 48.5807 42.6992 48.5807C42.5247 48.5807 42.3503 48.5807 42.1823 48.5807C42.1289 49.4244 42.0795 50.2108 42.03 50.9972H28.9448C28.9096 50.2095 28.8758 49.4218 28.8393 48.6158H19.6888C19.6888 49.052 19.7044 49.4556 19.6849 49.8566C19.6653 50.2381 19.6093 50.617 19.5703 50.9972H6.58531V50.9998ZM34.2492 36.1725C33.9054 36.7571 33.5956 37.2493 33.3195 37.761C32.3235 39.6085 32.3665 41.6162 32.481 43.62C32.5201 44.301 33.1841 44.81 33.9367 44.8153C36.085 44.8322 38.2333 44.8361 40.3803 44.8127C41.2253 44.8035 41.8542 44.1903 41.8542 43.3635C41.8542 42.2594 41.8477 41.1475 41.7227 40.0525C41.56 38.6385 40.9584 37.3808 40.0223 36.2181C39.5679 36.6894 39.1499 37.1438 38.7099 37.5761C37.7698 38.4966 36.5212 38.4901 35.5837 37.5604C35.1475 37.1282 34.7322 36.6738 34.2505 36.1686L34.2492 36.1725ZM4.56458 30.32C4.56458 31.2275 4.14143 31.842 3.44746 32.3042C3.19096 32.4748 2.9592 32.6844 2.7014 32.8537C2.24961 33.1505 2.08425 33.5555 2.08686 34.0932C2.10118 37.3443 2.09337 40.5954 2.09467 43.8466C2.09467 44.6095 2.32382 44.8426 3.07378 44.8439C4.91092 44.8452 6.74806 44.8439 8.5852 44.8439C9.41979 44.8439 9.6242 44.6421 9.62551 43.8166C9.62551 40.8584 9.63071 37.899 9.62551 34.9408C9.6216 33.1219 9.8182 33.4422 8.33131 32.3459C7.63733 31.8342 7.1608 31.2327 7.15949 30.3187H4.56589L4.56458 30.32ZM21.7459 30.32C21.7537 31.217 21.3423 31.8225 20.664 32.2782C20.3944 32.4592 20.1484 32.6753 19.8762 32.8524C19.4414 33.1362 19.263 33.5177 19.2656 34.0411C19.2786 37.3248 19.2708 40.6098 19.2734 43.8934C19.2734 44.616 19.5065 44.8413 20.246 44.8413C22.0832 44.8426 23.9203 44.8413 25.7574 44.8413C26.5907 44.8413 26.8003 44.6343 26.8003 43.814C26.8003 40.822 26.7509 37.83 26.8264 34.8392C26.8537 33.7286 26.5842 32.937 25.5973 32.3797C24.8226 31.9423 24.3343 31.2704 24.3461 30.3173H21.7446L21.7459 30.32ZM13.1305 30.32C13.1605 31.2991 12.6162 31.9266 11.8637 32.4279C11.6475 32.5724 11.4535 32.7482 11.2387 32.894C10.8416 33.1635 10.6723 33.5229 10.6736 34.0086C10.684 37.3079 10.6775 40.6085 10.6801 43.9078C10.6801 44.6017 10.921 44.84 11.6202 44.8413C13.4899 44.8439 15.3596 44.8426 17.228 44.8413C17.9831 44.8413 18.2071 44.6134 18.2071 43.8492C18.2071 40.809 18.1615 37.7688 18.2331 34.7299C18.2578 33.6778 17.9662 32.963 17.0587 32.4422C16.2645 31.9852 15.6994 31.3329 15.7306 30.32H13.1292H13.1305ZM18.6263 50.1131V46.1316H7.52666V50.1131H18.6263ZM29.9421 50.1092H41.0405V46.1342H29.9421V50.1092ZM42.9114 43.3869C43.2539 43.3869 43.5442 43.3791 43.832 43.3895C44.1549 43.4013 44.3593 43.5718 44.3658 43.9012C44.3723 44.2333 44.1666 44.409 43.8489 44.4299C43.5572 44.4494 43.2591 44.4077 42.9726 44.4481C42.7956 44.4741 42.6341 44.6043 42.4649 44.689C42.4844 44.7371 42.5052 44.7853 42.5247 44.8335C43.7408 44.8335 44.9595 44.8686 46.173 44.8205C46.9177 44.7905 47.4763 44.1317 47.4932 43.3739C47.5089 42.6422 47.5062 41.9105 47.4802 41.1787C47.4151 39.352 46.7797 37.7284 45.6925 36.2415C44.6574 37.0422 44.0208 38.4914 42.3034 38.188C42.9804 39.8884 42.9297 41.5993 42.9114 43.3883V43.3869ZM36.2777 31.411C36.236 32.894 35.7738 34.2182 34.8533 35.3978C35.3858 35.9212 35.878 36.4173 36.3845 36.8977C36.7842 37.2766 37.2855 37.3795 37.6682 37.0618C38.2984 36.5397 38.87 35.9446 39.4793 35.3692C38.5067 34.1752 38.0654 32.8589 38.0185 31.411H36.2777ZM43.6445 31.4488H41.8946C41.8698 32.868 41.4415 34.1205 40.5275 35.3014C41.0405 35.8613 41.53 36.442 42.0703 36.9732C42.431 37.3287 42.9596 37.369 43.319 37.0605C43.9296 36.5384 44.4921 35.9616 45.0637 35.4173C43.9374 33.6427 43.8893 33.5073 43.6445 31.4488ZM28.8484 46.1355H19.733V47.5208H28.8484V46.1355ZM42.1433 47.5091H49.126V46.129H42.1433V47.5091ZM2.12982 46.1095V47.5065H6.43037V46.1095H2.13243H2.12982ZM21.2993 28.061V29.2093H24.7653V28.061H21.2993ZM4.12711 29.2015H7.59437V28.0844H4.12711V29.2015ZM16.1759 29.2471V28.0753H12.7009V29.2106C12.8259 29.225 12.9209 29.2458 13.0146 29.2458C14.0497 29.2484 15.0848 29.2471 16.1759 29.2471ZM36.2855 27.4243V28.501H38.1109C38.1109 28.2133 38.1396 27.9672 38.0992 27.7316C38.0797 27.6183 37.9365 27.4438 37.8401 27.4386C37.3284 27.41 36.8141 27.4243 36.2855 27.4243ZM41.8829 27.4751V28.5206H43.6653V27.4751H41.8829ZM36.292 29.6195V30.3278H38.0107V29.6195H36.292ZM43.6562 29.6351H41.8802C41.8959 29.8903 41.9076 30.1064 41.9206 30.3187H43.6562V29.6351Z" fill="#00E7BB" stroke="#00E7BB" stroke-width="0.2"/>
<path d="M9.45491 13.3899C6.94203 13.3808 4.88095 11.3952 4.86532 8.96565C4.8497 6.51136 6.95245 4.50626 9.52783 4.52058C12.0134 4.53491 14.0875 6.53219 14.0927 8.91618C14.0979 11.3887 12.0147 13.399 9.45491 13.3899ZM9.51611 12.3392C11.4665 12.3392 13.0302 10.8184 13.0302 8.92008C13.0302 7.053 11.4808 5.57782 9.5122 5.57001C7.51752 5.56219 5.89912 7.08034 5.90302 8.95524C5.90693 10.8366 7.51101 12.3379 9.51741 12.3379L9.51611 12.3392Z" fill="#00E7BB" stroke="#00E7BB" stroke-width="0.2"/>
<path d="M9.2447 14.5767C9.8944 14.5767 10.5441 14.5833 11.1925 14.5741C11.5584 14.5689 11.8097 14.7135 11.8136 15.0936C11.8162 15.4803 11.5467 15.6223 11.1938 15.6236C9.91133 15.6262 8.62885 15.6262 7.34637 15.6236C6.9779 15.6236 6.68494 15.4934 6.70187 15.0715C6.71749 14.6835 6.99092 14.5689 7.34506 14.5741C7.97784 14.582 8.61192 14.5767 9.2447 14.5767Z" fill="#00E7BB" stroke="#00E7BB" stroke-width="0.2"/>
<path d="M40.1471 13.3023C39.7096 13.3023 39.2721 13.3023 38.8359 13.3023C38.4805 13.3023 38.224 13.1643 38.2266 12.7724C38.2292 12.3766 38.4987 12.2529 38.8476 12.2516C39.7538 12.2503 40.6613 12.2477 41.5688 12.2529C41.9009 12.2542 42.1443 12.3909 42.1521 12.7594C42.16 13.1513 41.9178 13.2997 41.5584 13.301C41.0884 13.3036 40.6197 13.301 40.1497 13.301L40.1471 13.3023Z" fill="#00E7BB" stroke="#00E7BB" stroke-width="0.2"/>
<path d="M17.419 21.3146C17.9372 21.3146 18.4554 21.3146 18.9736 21.3146C19.3069 21.3146 19.553 21.4318 19.5725 21.8003C19.5933 22.1961 19.3472 22.3562 18.9931 22.3588C17.9567 22.368 16.9203 22.3666 15.8826 22.3601C15.5323 22.3588 15.2667 22.2117 15.2798 21.8198C15.2928 21.4318 15.5571 21.3094 15.9112 21.3133C16.4138 21.3185 16.9151 21.3146 17.4177 21.3146H17.419Z" fill="#00E7BB" stroke="#00E7BB" stroke-width="0.2"/>
<path d="M16.6751 23.9861C16.3834 23.9861 16.0931 23.9939 15.8014 23.9835C15.4785 23.9731 15.2767 23.8064 15.2793 23.4731C15.2819 23.145 15.472 22.968 15.8014 22.9653C16.3834 22.9601 16.9667 22.9614 17.5487 22.9653C17.8833 22.9667 18.0708 23.158 18.0734 23.4744C18.076 23.796 17.8768 23.977 17.5487 23.9848C17.2584 23.9913 16.9667 23.9861 16.6751 23.9848V23.9861Z" fill="#00E7BB" stroke="#00E7BB" stroke-width="0.2"/>
<path d="M34.9613 21.3146C35.4795 21.3146 35.9977 21.3185 36.5159 21.3133C36.8596 21.3094 37.0979 21.4579 37.1161 21.8055C37.1357 22.1844 36.887 22.3588 36.5276 22.3601C35.4912 22.3654 34.4548 22.3654 33.4171 22.3601C33.063 22.3588 32.8078 22.2091 32.8208 21.8159C32.8338 21.4201 33.0994 21.3094 33.4536 21.3133C33.9561 21.3198 34.4574 21.3146 34.96 21.3146H34.9613Z" fill="#00E7BB" stroke="#00E7BB" stroke-width="0.2"/>
<path d="M34.207 22.9663C34.5156 22.9663 34.8385 22.9103 35.1263 22.9871C35.3085 23.0353 35.5234 23.2553 35.5754 23.4402C35.6562 23.724 35.4674 23.9584 35.1562 23.9688C34.5247 23.9897 33.8906 23.9897 33.2592 23.9688C32.9441 23.9584 32.7618 23.7201 32.8373 23.4402C32.8868 23.2553 33.1029 23.034 33.2865 22.9858C33.5743 22.9103 33.8985 22.965 34.2057 22.9663H34.207Z" fill="#00E7BB" stroke="#00E7BB" stroke-width="0.2"/>
<path d="M41.6523 40.8724C41.6835 41.2005 41.5963 41.4714 41.2304 41.5234C40.8424 41.5794 40.7031 41.3372 40.6146 40.9922C40.3906 40.1173 40.1445 39.2475 39.8841 38.383C39.7852 38.0523 39.8229 37.7893 40.1458 37.6512C40.4427 37.525 40.7187 37.6382 40.8242 37.9403C41.1601 38.8973 41.4661 39.866 41.7838 40.8295C41.7395 40.8438 41.6965 40.8581 41.6523 40.8724Z" fill="#00E7BB" stroke="#00E7BB" stroke-width="0.2"/>
<path d="M37.1282 44.4364C36.7884 44.4364 36.4472 44.4403 36.1074 44.4364C35.7663 44.4325 35.5319 44.2684 35.5293 43.9182C35.5267 43.5732 35.7415 43.3896 36.0918 43.3883C36.7884 43.3857 37.4849 43.3831 38.1815 43.3896C38.5252 43.3935 38.7362 43.5641 38.731 43.926C38.7258 44.2658 38.5109 44.4195 38.1971 44.4325C37.8417 44.4468 37.4849 44.4364 37.1282 44.4377V44.4364Z" fill="#00E7BB" stroke="#00E7BB" stroke-width="0.2"/>
<path d="M9.1157 37.7897C9.1157 38.7011 9.12221 39.6125 9.1144 40.5226C9.10658 41.4431 8.61703 41.9405 7.6952 41.9483C6.47522 41.9587 5.25523 41.9587 4.03394 41.9483C3.13035 41.9405 2.63168 41.4666 2.62256 40.5656C2.60433 38.6946 2.60564 36.8236 2.62256 34.9526C2.63037 34.0373 3.14337 33.5451 4.06389 33.536C5.26825 33.5256 6.47131 33.5243 7.67567 33.536C8.60791 33.5451 9.10789 34.0633 9.1144 35.006C9.12091 35.933 9.1157 36.8614 9.1144 37.7884L9.1157 37.7897ZM8.06237 37.7428C8.06237 36.8483 8.04935 35.9539 8.06888 35.0594C8.07669 34.6948 7.94258 34.5776 7.58453 34.5828C6.42965 34.5985 5.27606 34.5959 4.12118 34.5841C3.79177 34.5802 3.65376 34.6883 3.65506 35.0333C3.66547 36.8548 3.66417 38.6751 3.65506 40.4966C3.65506 40.8143 3.78917 40.9301 4.09514 40.9288C5.26565 40.9223 6.43616 40.9197 7.60666 40.9301C7.93868 40.9327 8.07148 40.8156 8.06628 40.4744C8.05065 39.5643 8.06107 38.6529 8.06107 37.7428H8.06237Z" fill="#00E7BB" stroke="#00E7BB" stroke-width="0.2"/>
<path d="M19.7903 37.7331C19.7903 36.823 19.7838 35.9129 19.7916 35.0028C19.7994 34.0627 20.3033 33.5445 21.2329 33.5354C22.4516 33.5237 23.6703 33.5211 24.889 33.5354C25.7704 33.5458 26.2873 34.0562 26.2938 34.9377C26.3082 36.8061 26.3069 38.6745 26.2938 40.5429C26.2873 41.4386 25.79 41.936 24.9033 41.9451C23.669 41.9581 22.4334 41.9568 21.1991 41.9451C20.2877 41.936 19.8007 41.4334 19.7916 40.5103C19.7825 39.5846 19.7903 38.6575 19.789 37.7318L19.7903 37.7331ZM20.8436 37.7722C20.8436 38.6667 20.8527 39.5611 20.8384 40.4556C20.8332 40.7837 20.94 40.9309 21.2837 40.9282C22.4542 40.9178 23.626 40.9178 24.7965 40.9282C25.1311 40.9309 25.2535 40.8007 25.2522 40.4647C25.2418 38.6588 25.2418 36.8543 25.2522 35.0484C25.2535 34.719 25.152 34.5783 24.8056 34.5822C23.6351 34.5953 22.4633 34.5953 21.2928 34.5822C20.953 34.5783 20.8332 34.7033 20.8384 35.0405C20.854 35.9507 20.8436 36.8621 20.8436 37.7735V37.7722Z" fill="#00E7BB" stroke="#00E7BB" stroke-width="0.2"/>
<path d="M17.7057 37.7419C17.7057 38.652 17.7122 39.5621 17.7044 40.4722C17.6966 41.4552 17.2135 41.9435 16.2383 41.95C15.0522 41.9578 13.8661 41.9565 12.6799 41.95C11.6956 41.9448 11.2021 41.4617 11.1982 40.4891C11.1917 38.6689 11.1917 36.85 11.1982 35.0298C11.2008 34.0598 11.7047 33.5442 12.663 33.5364C13.8491 33.526 15.0353 33.5273 16.2214 33.5364C17.1901 33.5429 17.694 34.0468 17.7031 35.0129C17.7122 35.923 17.7044 36.8331 17.7057 37.7419ZM12.2503 37.7015C12.2503 38.6129 12.262 39.523 12.2451 40.4331C12.2385 40.7847 12.3505 40.9331 12.7177 40.9292C13.8726 40.9149 15.0275 40.9162 16.1823 40.9292C16.5417 40.9331 16.6641 40.7951 16.6615 40.4384C16.6485 38.6494 16.6485 36.8604 16.6615 35.0715C16.6641 34.7186 16.5547 34.5767 16.1876 34.5819C15.0327 34.5975 13.8778 34.5975 12.7229 34.5819C12.3583 34.5767 12.2385 34.7095 12.2464 35.0676C12.2646 35.9451 12.2529 36.824 12.2516 37.7028L12.2503 37.7015Z" fill="#00E7BB" stroke="#00E7BB" stroke-width="0.2"/>
<path d="M13.3287 46.6974C13.8651 46.6974 14.4028 46.6974 14.9393 46.6974C15.2648 46.6974 15.4744 46.8341 15.4926 47.1752C15.5122 47.5437 15.296 47.7221 14.9549 47.7247C13.8807 47.7351 12.8079 47.7325 11.7337 47.7247C11.4134 47.7221 11.1947 47.5489 11.1973 47.2169C11.1986 46.8653 11.4121 46.6935 11.7663 46.6961C12.2871 46.6987 12.8079 46.6961 13.3287 46.6961V46.6974Z" fill="#00E7BB" stroke="#00E7BB" stroke-width="0.2"/>
<path d="M12.6186 48.3596C12.9103 48.3596 13.2202 48.2984 13.4871 48.3804C13.6863 48.4416 13.9532 48.6825 13.9597 48.8517C13.9662 49.0223 13.7006 49.3387 13.5314 49.3556C12.9064 49.4168 12.2684 49.4155 11.6447 49.3543C11.4768 49.3374 11.2138 49.0158 11.2229 48.8452C11.232 48.676 11.5028 48.4364 11.702 48.3804C11.9872 48.301 12.3114 48.3596 12.6186 48.3609V48.3596Z" fill="#00E7BB" stroke="#00E7BB" stroke-width="0.2"/>
<path d="M35.4843 47.7299C34.9817 47.7299 34.4791 47.7325 33.9766 47.7299C33.6289 47.7273 33.3516 47.6023 33.3555 47.2078C33.3594 46.8224 33.612 46.6896 33.9753 46.6922C34.996 46.6987 36.0168 46.6987 37.0389 46.6922C37.397 46.6896 37.6508 46.8042 37.6548 47.2052C37.6587 47.6114 37.3839 47.7247 37.0402 47.7299C36.522 47.7364 36.0025 47.7312 35.4843 47.7299Z" fill="#00E7BB" stroke="#00E7BB" stroke-width="0.2"/>
<path d="M34.7782 48.3597C35.0698 48.3597 35.3797 48.2985 35.6453 48.3805C35.8445 48.4417 36.1114 48.6839 36.1179 48.8531C36.1231 49.0237 35.8562 49.3388 35.6857 49.3544C35.0607 49.4143 34.4227 49.4143 33.799 49.3518C33.6324 49.3349 33.372 49.0107 33.3811 48.8414C33.3902 48.6722 33.6623 48.4339 33.8602 48.3792C34.1454 48.2998 34.4696 48.3584 34.7768 48.3597H34.7782Z" fill="#00E7BB" stroke="#00E7BB" stroke-width="0.2"/>
<path d="M47.4682 41.013C47.2026 41.2291 47.0372 41.457 46.8237 41.5169C46.5047 41.6067 46.3342 41.371 46.2547 41.0651C46.0152 40.1458 45.7756 39.2266 45.5126 38.3139C45.4214 37.9962 45.4774 37.7592 45.773 37.6264C46.0712 37.4936 46.3472 37.5939 46.4526 37.8973C46.799 38.8998 47.1141 39.9141 47.4695 41.013H47.4682Z" fill="#00E7BB" stroke="#00E7BB" stroke-width="0.2"/>
<path d="M13.5612 29.0332C13.3893 28.9967 13.194 28.9993 13.0547 28.9121C12.9674 28.8574 12.9635 28.6673 12.9219 28.5384C13.1654 28.4629 13.4062 28.3366 13.6523 28.3301C13.8411 28.3249 14.0429 28.459 14.2161 28.5671C14.2395 28.5814 14.1705 28.8652 14.0807 28.9186C13.9387 29.0032 13.7447 28.9993 13.5612 29.0345V29.0332Z" fill="#00E7BB" stroke="#00E7BB" stroke-width="0.2"/>
</svg>
