<svg width="49" height="50" viewBox="0 0 49 50" fill="none" xmlns="http://www.w3.org/2000/svg">
<path d="M6.34321 0H14.6449C15.6502 0.380248 16.0135 1.12121 15.9913 2.1734C15.951 4.02776 15.9796 5.88343 15.9796 7.73909C15.9796 8.30295 15.9796 8.86811 15.9796 9.43458H17.6387C17.653 9.38379 17.6621 9.36947 17.6621 9.35384C17.6647 7.61277 17.6621 5.87171 17.6725 4.13064C17.6777 3.21257 18.2481 2.51328 19.1349 2.39869C19.6467 2.33227 20.1754 2.3453 20.6937 2.38046C21.1 2.4078 21.3357 2.68778 21.3565 3.09798C21.3773 3.48083 21.0687 3.78946 20.6468 3.8168C20.3382 3.83634 20.0269 3.84676 19.7196 3.82071C19.2795 3.78425 19.1167 3.93791 19.1245 4.3989C19.1492 5.89515 19.1492 7.394 19.1245 8.89025C19.1167 9.33951 19.256 9.48015 19.7079 9.47755C22.6535 9.46062 25.5991 9.46192 28.5447 9.47625C28.9641 9.47885 29.1177 9.35775 29.1112 8.9215C29.0891 7.45651 29.1034 5.99151 29.1034 4.52782C29.1034 4.05989 28.8699 3.82549 28.4028 3.82462C26.9873 3.82462 25.5705 3.82983 24.155 3.82071C23.5859 3.8168 23.2499 3.46651 23.3359 2.98078C23.4192 2.50938 23.7565 2.35962 24.1927 2.35962C25.6903 2.35962 27.1878 2.35571 28.6841 2.35962C29.8626 2.36353 30.5632 3.06542 30.5658 4.24393C30.5697 5.83915 30.5658 7.43437 30.5684 9.02829C30.5684 9.16762 30.584 9.30696 30.5931 9.44109H32.2574C32.2574 9.32128 32.2574 9.22622 32.2574 9.13246C32.2574 7.35884 32.2482 5.58392 32.26 3.81029C32.2678 2.74378 32.9371 1.98328 33.9437 1.97286C36.4661 1.94682 38.9885 1.94812 41.5109 1.97286C42.472 1.98198 43.1491 2.70341 43.183 3.66184C43.1999 4.13324 43.1882 4.60595 43.1882 5.07735C43.1882 6.52151 43.1882 7.96698 43.1882 9.44239C43.3822 9.45151 43.5398 9.46583 43.6973 9.46583C44.6896 9.46844 45.6832 9.45802 46.6755 9.47104C47.5493 9.48276 48.1913 10.1013 48.2252 10.9647C48.2473 11.5168 48.2499 12.0729 48.2226 12.6237C48.1835 13.4259 47.578 14.0158 46.7823 14.0731C46.6573 14.0822 46.5323 14.0952 46.3591 14.1121C46.3591 14.3127 46.3591 14.4872 46.3591 14.663C46.3591 15.8024 46.3682 16.9419 46.3526 18.08C46.3448 18.584 46.0452 18.8744 45.6103 18.8692C45.1702 18.8639 44.9045 18.5788 44.8993 18.0605C44.8889 17.0682 44.8954 16.0746 44.8954 15.0823C44.8954 14.762 44.8954 14.4429 44.8954 14.1056H43.2168V48.5077H44.8954C44.8954 48.285 44.8954 48.0779 44.8954 47.8722C44.8954 39.2632 44.8954 30.6529 44.8954 22.044C44.8954 21.8656 44.8889 21.6846 44.9058 21.5075C44.9436 21.1077 45.1819 20.8824 45.5699 20.8563C45.9593 20.8303 46.2315 21.0282 46.3187 21.4137C46.3643 21.6168 46.3591 21.833 46.3591 22.044C46.3604 30.7024 46.3526 39.3609 46.3721 48.018C46.3747 48.9491 46.0856 49.6237 45.2118 50H42.8678C41.9732 49.6119 41.6555 48.914 41.7154 47.9672C41.7583 47.2771 41.7232 46.583 41.7232 45.8915H6.5112C6.5112 46.6077 6.47864 47.2888 6.51901 47.9672C6.57631 48.9113 6.26638 49.6145 5.36655 50H3.02255C2.15267 49.6211 1.85316 48.9517 1.86228 48.0167C1.89353 44.5828 1.874 41.1475 1.8766 37.7136C1.8766 37.5208 1.88051 37.3177 1.9352 37.1354C2.04068 36.7786 2.31415 36.6002 2.67747 36.6353C3.03688 36.6705 3.27518 36.884 3.32337 37.2578C3.34681 37.4349 3.33899 37.6146 3.33899 37.7943C3.33899 41.1801 3.33899 44.5658 3.33899 47.9516C3.33899 48.1378 3.33899 48.324 3.33899 48.4959H5.00583V14.1187H3.33899C3.33899 14.3492 3.33899 14.5406 3.33899 14.7333C3.33899 20.984 3.33899 27.2346 3.33899 33.4853C3.33899 33.6637 3.34681 33.8447 3.32597 34.0218C3.27909 34.4163 3.03818 34.6403 2.65012 34.6651C2.28289 34.6885 2.01854 34.4997 1.92609 34.1403C1.8753 33.9397 1.8753 33.7223 1.8753 33.5126C1.87269 27.2463 1.874 20.9787 1.87269 14.7125C1.87269 14.5106 1.87269 14.3075 1.87269 14.1148C0.44937 13.9936 0.00140642 13.4975 0.00140642 12.1367C0.00140642 11.7629 -0.00250027 11.3879 0.0027086 11.0142C0.0105219 10.531 0.173299 10.0857 0.580894 9.83566C0.897333 9.64293 1.29451 9.50229 1.66043 9.48797C2.77643 9.44369 3.89374 9.47234 5.0449 9.47234C5.0449 9.28482 5.0449 9.15851 5.0449 9.03219C5.0449 6.75331 5.08006 4.47442 5.02927 2.19554C5.00583 1.13944 5.35483 0.40499 6.34191 0.00130222L6.34321 0ZM41.701 14.1134H6.54766V15.9939C6.71044 15.9939 6.83936 15.9939 6.96697 15.9939C9.29404 15.9939 11.6211 15.9913 13.9482 15.9939C15.3337 15.9952 15.9783 16.6398 15.9796 18.024C15.9822 20.3667 15.9796 22.7107 15.9809 25.0534C15.9809 25.1771 15.9992 25.2995 16.0083 25.4271H17.6686C17.6686 25.237 17.6686 25.0781 17.6686 24.918C17.6686 23.3722 17.6673 21.8265 17.6686 20.2808C17.6712 19.0267 18.3419 18.3587 19.6024 18.3574C22.4334 18.3561 25.2671 18.4134 28.0968 18.3365C29.9329 18.2871 30.6726 19.0228 30.584 20.8199C30.5085 22.3422 30.5684 23.8723 30.5684 25.4232H32.2574V24.9544C32.2574 22.6443 32.2561 20.3328 32.2574 18.0227C32.2574 16.6371 32.9007 15.9952 34.2875 15.9926C36.6302 15.9899 38.9742 15.9926 41.3169 15.9913C41.4419 15.9913 41.5669 15.9769 41.6997 15.9691V14.1121L41.701 14.1134ZM41.6984 30.1034H6.55547V31.7598C8.34081 31.7598 10.0845 31.8002 11.8229 31.7468C13.0653 31.709 14.0576 32.3146 14.0094 33.9501C13.943 36.2264 13.9924 38.5066 13.9937 40.7855C13.9937 40.9248 14.0068 41.0629 14.0133 41.1905H17.6686C17.6686 38.6655 17.6673 36.1769 17.6686 33.6884C17.6686 32.4448 18.3549 31.7559 19.6024 31.7546C22.6131 31.7507 25.6239 31.7507 28.6359 31.7546C29.8808 31.7559 30.5671 32.4461 30.5684 33.691C30.571 36.035 30.5684 38.379 30.5684 40.7217C30.5684 40.878 30.5684 41.0355 30.5684 41.1892H32.2574C32.2574 38.6941 32.2548 36.2368 32.2574 33.7796C32.2587 32.4344 32.9267 31.7676 34.2654 31.7663C36.5599 31.7663 38.8557 31.7663 41.1502 31.7663C41.3247 31.7663 41.4979 31.7663 41.6984 31.7663V30.1021V30.1034ZM24.1055 41.2283C25.603 41.2283 27.1006 41.2191 28.5968 41.2348C28.9732 41.2387 29.1112 41.1254 29.1086 40.7347C29.0943 38.4076 29.0943 36.0793 29.1086 33.7522C29.1112 33.3459 28.9706 33.2118 28.5708 33.2131C25.5926 33.2235 22.6144 33.2235 19.635 33.2131C19.256 33.2131 19.1219 33.3459 19.1245 33.7275C19.1375 36.0545 19.1388 38.3829 19.1232 40.71C19.1206 41.1241 19.2651 41.2387 19.661 41.2348C21.1416 41.2165 22.6235 41.2283 24.1042 41.227L24.1055 41.2283ZM1.47942 12.5729H46.7419V10.979H1.47942V12.5729ZM33.7224 21.4879C33.7224 22.6261 33.7354 23.7655 33.7158 24.9036C33.708 25.3308 33.8617 25.4688 34.2849 25.4662C36.5781 25.4506 38.8713 25.4519 41.1645 25.4662C41.5786 25.4688 41.7375 25.3529 41.7349 24.9141C41.7167 22.6039 41.7193 20.2951 41.7336 17.9849C41.7362 17.5813 41.6021 17.4484 41.1984 17.451C38.8883 17.4654 36.5794 17.4667 34.2693 17.451C33.8304 17.4471 33.7093 17.6125 33.7158 18.024C33.7354 19.1791 33.7224 20.3342 33.7224 21.4879ZM41.6971 42.7232H6.53854V44.3653H41.6971V42.7232ZM6.53333 28.5798H41.6932V26.9624H6.53333V28.5798ZM24.1419 19.8224C22.6613 19.8224 21.1807 19.8328 19.7001 19.8146C19.2938 19.8094 19.1167 19.9057 19.1232 20.355C19.1466 21.8838 19.1414 23.4139 19.1258 24.9427C19.1219 25.3203 19.2417 25.4649 19.6271 25.4636C22.6209 25.4545 25.6147 25.4545 28.6072 25.4636C28.9927 25.4636 29.1125 25.3203 29.1086 24.9427C29.093 23.4295 29.0878 21.9163 29.1112 20.4045C29.1177 19.963 28.9953 19.8041 28.533 19.8133C27.0693 19.8393 25.6043 19.8224 24.1406 19.8224H24.1419ZM37.7215 9.46974C38.8765 9.46974 40.0329 9.45671 41.188 9.47755C41.5865 9.48406 41.7362 9.36035 41.7323 8.95015C41.7154 7.28982 41.7167 5.62949 41.7323 3.96916C41.7362 3.57589 41.6151 3.42093 41.2023 3.42353C38.8909 3.43786 36.5794 3.43656 34.2693 3.42353C33.8747 3.42093 33.7132 3.54724 33.7171 3.95484C33.7302 5.61517 33.7302 7.2755 33.7171 8.93583C33.7145 9.3304 33.8448 9.48536 34.2563 9.47755C35.4113 9.45671 36.5677 9.46974 37.7228 9.46974H37.7215ZM12.8061 17.5214C12.8061 18.4121 12.8074 19.2885 12.8061 20.1649C12.8035 21.1012 12.3998 21.4124 11.5495 21.023C10.8267 20.6923 10.1861 20.704 9.46723 21.023C8.61168 21.4046 8.19757 21.0972 8.19627 20.1714C8.19497 19.2807 8.19627 18.3912 8.19627 17.4562C7.78607 17.4562 7.42926 17.4823 7.07766 17.4497C6.61277 17.4068 6.49948 17.6086 6.50208 18.0422C6.51901 20.3042 6.52292 22.5662 6.49948 24.8281C6.49427 25.3216 6.64012 25.4714 7.13496 25.4662C9.37998 25.4428 11.6263 25.4571 13.8726 25.4558C14.5003 25.4558 14.5133 25.4402 14.5146 24.7838C14.5146 22.8149 14.5329 20.8446 14.5094 18.877C14.4899 17.201 14.861 17.4693 12.9689 17.4641C12.9389 17.4641 12.9077 17.4836 12.8074 17.5188L12.8061 17.5214ZM8.19757 1.465C7.77826 1.465 7.40582 1.48713 7.03729 1.45979C6.62579 1.42853 6.50208 1.59522 6.50469 1.995C6.51771 4.30514 6.52031 6.61397 6.50469 8.92411C6.50208 9.35514 6.64793 9.48276 7.06985 9.47885C9.36306 9.46192 11.6563 9.46192 13.9495 9.47885C14.374 9.48146 14.529 9.34863 14.5224 8.9202C14.5029 7.73258 14.5159 6.54495 14.5159 5.35863C14.5159 4.23612 14.529 3.11361 14.5029 1.9924C14.499 1.8166 14.3362 1.50927 14.2164 1.49365C13.762 1.43505 13.2945 1.47021 12.8074 1.47021C12.8074 2.49115 12.8048 3.43395 12.8074 4.37546C12.8087 4.77914 12.6577 5.1034 12.2423 5.1633C12.0027 5.19716 11.7136 5.13725 11.4948 5.02396C10.8228 4.67757 10.1756 4.65153 9.51672 5.03308C9.47505 5.05652 9.42556 5.06824 9.37998 5.08386C8.62209 5.35472 8.20148 5.07084 8.19627 4.27649C8.19106 3.36624 8.19627 2.45599 8.19627 1.465H8.19757ZM40.0394 33.3238C40.0394 34.2523 40.0472 35.1951 40.0368 36.1366C40.029 36.7981 39.5511 37.1718 38.9651 36.8788C38.1082 36.4504 37.3321 36.483 36.4818 36.8854C35.9049 37.1575 35.4504 36.8007 35.4335 36.1626C35.4204 35.6587 35.4296 35.1547 35.4296 34.6507C35.4296 34.1872 35.4296 33.7236 35.4296 33.23C34.9868 33.23 34.63 33.2509 34.2758 33.2248C33.8396 33.1923 33.7145 33.3837 33.7171 33.7978C33.7302 36.091 33.7315 38.3829 33.7171 40.6761C33.7145 41.098 33.8474 41.24 34.2771 41.2361C36.569 41.2178 38.8622 41.2152 41.1554 41.2374C41.6112 41.2413 41.7414 41.098 41.7362 40.654C41.7167 38.6538 41.7284 36.6536 41.7284 34.6547C41.7284 33.6094 41.1997 33.141 40.1423 33.2496C40.128 33.2509 40.1162 33.2678 40.042 33.3238H40.0394ZM6.5112 37.2422C6.5112 38.3972 6.52422 39.5523 6.50469 40.7061C6.49818 41.1098 6.6323 41.24 7.0386 41.2348C8.69762 41.2152 10.3566 41.2139 12.0157 41.2348C12.4415 41.24 12.5379 41.0772 12.5366 40.6904C12.5248 38.3816 12.5235 36.0715 12.5366 33.7626C12.5392 33.3629 12.4076 33.2183 12.0014 33.2222C10.3593 33.2378 8.71585 33.2391 7.07376 33.2222C6.65705 33.2183 6.49427 33.3407 6.50338 33.777C6.52682 34.9307 6.5112 36.0858 6.5112 37.2409V37.2422ZM36.9167 35.2146C37.4727 34.837 38.0119 34.9008 38.5445 35.1638V33.2639H36.9167V35.2146ZM9.68601 3.25425H11.3151V1.48844H9.68601V3.25425ZM11.3229 17.4914H9.69642V19.2416H11.3229V17.4914Z" fill="#00E7BB"/>
</svg>
