<svg width="49" height="52" viewBox="0 0 49 52" fill="none" xmlns="http://www.w3.org/2000/svg">
<path d="M35.9797 1C36.106 1.16276 36.2818 1.30859 36.3469 1.49219C36.5422 2.04167 36.1685 2.46224 35.5032 2.46354C32.1998 2.46615 28.8977 2.46875 25.5943 2.46224C24.8118 2.46094 24.0722 2.60937 23.4016 3.01823C22.1438 3.78516 21.429 4.90104 21.4146 6.38802C21.3899 9.13802 21.4003 11.8867 21.4146 14.6367C21.4146 14.8112 21.5396 15.0365 21.6777 15.1523C22.8248 16.1146 23.3782 17.3385 23.3756 18.8294C23.3717 21.3672 23.3821 23.9062 23.3665 26.444C23.3639 26.7891 23.4498 27.0182 23.7909 27.0911C24.3899 27.2201 24.9915 27.4245 25.5943 27.4323C28.4081 27.4687 31.2232 27.4479 34.0383 27.4492C34.86 27.4492 35.0761 27.6667 35.0787 28.4909C35.0813 29.2865 35.0787 30.0833 35.0787 30.9883C35.2818 30.8437 35.4198 30.7513 35.5514 30.651C36.7922 29.7031 38.0383 28.763 39.2662 27.7982C39.5943 27.5404 39.9303 27.4297 40.3404 27.4427C40.9745 27.4635 41.61 27.4505 42.2441 27.4479C44.7297 27.4375 46.4407 25.7331 46.4446 23.2396C46.4524 19.0091 46.4472 14.7799 46.4472 10.5495C46.4472 9.2474 46.4537 7.94661 46.4459 6.64453C46.4316 4.17578 44.7297 2.47656 42.2701 2.46615C41.7167 2.46354 41.1633 2.45964 40.61 2.46745C40.2076 2.47396 39.8027 2.48047 39.6282 2.01953C39.468 1.59505 39.6659 1.27214 39.9823 1C41.0253 1 42.067 1 43.1087 1C43.5266 1.12109 43.955 1.21484 44.3626 1.36589C46.4563 2.13932 47.8925 4.11068 47.9003 6.33594C47.9225 12.0794 47.9303 17.8242 47.8977 23.5677C47.8821 26.4792 45.5305 28.7799 42.5553 28.9062C42.442 28.9115 42.3248 28.9271 42.2141 28.9089C40.7935 28.6797 39.6659 29.1836 38.6034 30.1276C37.4758 31.1289 36.2154 31.9818 35.0149 32.9036C34.7219 33.1289 34.4381 33.332 34.0409 33.1419C33.6256 32.9427 33.6073 32.5833 33.61 32.1927C33.6191 31.1224 33.6126 30.0521 33.6126 28.9635C30.1933 28.724 26.7883 29.2292 23.4003 28.6263V32.306C23.5878 32.306 23.7623 32.306 23.9381 32.306C25.761 32.306 27.5865 32.3711 29.4042 32.2904C31.7623 32.1849 33.4485 33.8099 33.304 36.2214C33.2454 37.2109 33.304 38.2057 33.287 39.1979C33.2766 39.7969 32.8469 40.1172 32.317 39.9531C31.9212 39.8307 31.8287 39.5169 31.8287 39.1471C31.83 38.0898 31.8313 37.0312 31.8287 35.974C31.8235 34.5169 31.0891 33.7747 29.6386 33.7721C26.6451 33.7669 23.6503 33.7682 20.6568 33.7721C19.1933 33.7734 18.455 34.5052 18.4537 35.9557C18.4498 38.9492 18.4485 41.944 18.4537 44.9375C18.4563 46.3503 19.2141 47.0964 20.6321 47.0977C22.162 47.099 23.6907 47.0977 25.2206 47.0977C26.1451 47.0977 26.33 47.2825 26.3339 48.207C26.3339 48.3529 26.3339 48.4987 26.3339 48.7201C26.481 48.6354 26.5891 48.5872 26.6829 48.5182C26.9576 48.3151 27.248 48.1263 27.4915 47.8906C28.1373 47.2669 28.8678 47.0234 29.7831 47.0768C31.0045 47.1471 31.7909 46.3216 31.8274 45.0951C31.8391 44.6888 31.8183 44.2812 31.8417 43.875C31.8691 43.4154 32.1243 43.1823 32.5553 43.1797C32.9863 43.1771 33.2779 43.4089 33.2766 43.862C33.274 44.5898 33.3092 45.3411 33.1503 46.0417C32.8118 47.5391 31.4823 48.5664 29.9498 48.543C29.2675 48.5326 28.7454 48.7266 28.2389 49.1602C27.4902 49.8021 26.6946 50.3893 25.9198 51H25.3339C24.955 50.7083 24.8248 50.3281 24.8626 49.8542C24.8951 49.4505 24.8691 49.043 24.8691 48.5625C24.6712 48.5625 24.4993 48.5625 24.3274 48.5625C23.0735 48.5625 21.8209 48.5651 20.567 48.5625C18.4355 48.5573 17.0045 47.1562 16.9915 45.0273C16.9758 42.5378 16.9876 40.0469 16.9876 37.5573C16.9876 37.3984 16.9876 37.2396 16.9876 36.9661C16.7688 37.1237 16.6308 37.2174 16.4993 37.319C15.4941 38.0924 14.4863 38.8659 13.4863 39.6458C13.2024 39.8672 12.9172 40.0299 12.5501 39.8607C12.1568 39.6797 12.1113 39.3411 12.1152 38.9622C12.1243 38.168 12.1178 37.3737 12.1178 36.5078C11.8782 36.5078 11.6894 36.5078 11.5006 36.5078C9.54745 36.5078 7.59433 36.5208 5.6412 36.5039C3.27922 36.4831 1.50058 35.0443 1.07089 32.8281C1.02532 32.5898 1.00709 32.3438 1.00579 32.1003C1.00058 29.6589 0.997975 27.2174 1.00188 24.776C1.00188 24.1849 1.30527 23.8906 1.82219 23.9466C2.23626 23.9909 2.45501 24.2617 2.46152 24.7773C2.47063 25.5911 2.46412 26.4049 2.46412 27.2188C2.46412 28.7487 2.46152 30.2786 2.46412 31.8086C2.46933 33.7956 3.6985 35.0326 5.69589 35.0404C7.94198 35.0508 10.1881 35.0417 12.4342 35.043C13.4016 35.043 13.58 35.2214 13.5813 36.1771C13.5813 36.6458 13.5813 37.1146 13.5813 37.6602C13.748 37.5573 13.8573 37.5026 13.9524 37.4284C14.9068 36.6953 15.8639 35.9635 16.8079 35.2161C16.9472 35.1055 17.0631 34.9258 17.1165 34.7539C17.5761 33.3099 18.7337 32.3945 20.2532 32.3203C20.7844 32.2943 21.3196 32.3164 21.9107 32.3164V31.7253C21.9107 27.4453 21.9133 23.1641 21.9107 18.8841C21.9094 16.9154 20.6451 15.6523 18.6698 15.651C14.3404 15.6471 10.011 15.6471 5.68157 15.651C3.72584 15.6523 2.47584 16.901 2.46542 18.8477C2.46282 19.2865 2.47584 19.7266 2.46021 20.1654C2.44198 20.6771 2.17115 20.9427 1.71152 20.9362C1.24537 20.9297 0.997975 20.6745 1.00709 20.138C1.01881 19.3424 0.970631 18.5299 1.11256 17.7565C1.49016 15.7057 3.27532 14.2109 5.36256 14.1979C9.91985 14.1706 14.4771 14.1875 19.0344 14.1927C19.3079 14.1927 19.5813 14.2448 19.9146 14.2773C19.9238 14.0951 19.9407 13.9258 19.9407 13.7565C19.942 11.4453 19.9407 9.13411 19.942 6.82292C19.9446 3.73568 21.6021 1.70052 24.623 1.06771C24.6685 1.05859 24.7089 1.02344 24.7506 1.0013C28.4941 1.0013 32.2376 1.0013 35.981 1.0013L35.9797 1Z" fill="#00E7BB" stroke="#00E7BB" stroke-width="0.2"/>
<path d="M10.1993 23.186C10.3347 22.3748 10.461 21.6066 10.5912 20.8383C10.6186 20.6782 10.6368 20.5115 10.698 20.3644C10.8503 19.9985 11.1433 19.854 11.5261 19.9334C11.9193 20.0154 12.1186 20.2941 12.0782 20.6782C12.0144 21.2745 11.8998 21.867 11.8087 22.4607C11.7748 22.6834 11.7423 22.906 11.7019 23.1834C12.2423 23.1834 12.7436 23.2042 13.241 23.1665C13.3425 23.1586 13.4831 22.9451 13.5092 22.8071C13.6537 22.074 13.7579 21.3331 13.8946 20.5988C13.991 20.0818 14.3321 19.837 14.7813 19.9308C15.1941 20.0167 15.4024 20.3748 15.323 20.8709C15.2097 21.5766 15.0938 22.2823 14.9831 22.9881C14.9753 23.0336 14.991 23.0818 15.0001 23.186C15.6615 23.186 16.3243 23.186 16.9883 23.186C17.3868 23.186 17.6915 23.3409 17.8035 23.7446C17.9337 24.2159 17.5951 24.6326 17.0548 24.6443C16.2917 24.66 15.5287 24.6482 14.7123 24.6482C14.612 25.2355 14.5144 25.8006 14.4037 26.4464C15.1277 26.4464 15.8035 26.4464 16.4805 26.4464C16.7084 26.4464 16.9376 26.4386 17.1628 26.4633C17.5782 26.5089 17.8087 26.7511 17.8217 27.1717C17.8347 27.5753 17.5691 27.8774 17.1238 27.8943C16.3764 27.923 15.6277 27.9086 14.879 27.91C14.168 27.9113 14.1654 27.91 14.0417 28.6131C13.9363 29.2211 13.8451 29.8318 13.7344 30.4399C13.6329 30.9985 13.3021 31.2641 12.8477 31.1756C12.4232 31.0935 12.2149 30.7159 12.3008 30.1925C12.4219 29.4581 12.5404 28.7238 12.668 27.9464H10.9102C10.7709 28.7719 10.6342 29.5857 10.4975 30.3982C10.4011 30.9685 10.1016 31.242 9.64069 31.1795C9.19017 31.1183 8.9584 30.7433 9.04694 30.1834C9.16283 29.449 9.29173 28.7159 9.42715 27.91C8.86595 27.91 8.35033 27.91 7.836 27.91C7.64069 27.91 7.44408 27.9191 7.25137 27.8982C6.81126 27.8527 6.54694 27.5714 6.54824 27.173C6.54824 26.7576 6.8308 26.4711 7.30606 26.4555C7.90762 26.436 8.51048 26.4295 9.11074 26.4542C9.50918 26.4711 9.75007 26.4047 9.76439 25.9282C9.77611 25.5284 9.88027 25.1313 9.9571 24.6521C9.42324 24.6521 8.94277 24.6521 8.46231 24.6521C8.08861 24.6521 7.71361 24.6599 7.33991 24.6482C6.84382 24.6326 6.54173 24.3435 6.54694 23.9152C6.55215 23.492 6.86335 23.199 7.36074 23.1925C8.28652 23.1808 9.21231 23.1886 10.2071 23.1886L10.1993 23.186ZM11.1628 26.4152H12.9193C13.0144 25.824 13.1068 25.2602 13.2045 24.6508C12.6602 24.6508 12.1902 24.6378 11.7227 24.6613C11.6146 24.6665 11.4389 24.7823 11.4206 24.8735C11.3139 25.3761 11.2462 25.8878 11.1628 26.4152Z" fill="#00E7BB" stroke="#00E7BB" stroke-width="0.2"/>
<path d="M25.1249 37.5247C26.3032 36.8294 27.4009 36.8619 28.3319 37.6002C29.2577 38.3333 29.5897 39.6119 29.1874 40.8789C28.9269 41.7005 28.4139 42.3541 27.7381 42.8515C27.048 43.3606 26.3111 43.8112 25.5676 44.2408C25.3723 44.3541 25.0272 44.3906 24.8345 44.2942C23.729 43.7395 22.6535 43.1276 21.8306 42.1692C21.272 41.5182 20.9543 40.7708 20.94 39.9049C20.923 38.7955 21.3228 37.8906 22.3085 37.3333C23.2616 36.7942 24.2095 36.8867 25.1236 37.5234L25.1249 37.5247ZM28.0025 39.914C27.9621 39.8932 27.9217 39.8724 27.8814 39.8515C27.8853 39.2005 27.5871 38.7252 27.0611 38.5442C26.5389 38.3645 26.2082 38.5039 25.759 39.0937C25.3801 39.5911 24.8592 39.5468 24.4517 38.9648C24.1939 38.5963 23.8644 38.4127 23.4139 38.4765C22.9491 38.5429 22.6418 38.8151 22.4999 39.2513C22.2499 40.0221 22.4296 40.7421 23.0038 41.2669C23.5975 41.8086 24.2954 42.2395 24.9582 42.7031C25.0402 42.7604 25.2264 42.7734 25.3046 42.7187C25.9803 42.2447 26.6978 41.8086 27.2876 41.2434C27.6327 40.9127 27.7707 40.3645 28.0012 39.914H28.0025Z" fill="#00E7BB" stroke="#00E7BB" stroke-width="0.2"/>
<path d="M30.9118 12.8881C31.6188 12.0547 32.4678 11.1889 33.1423 10.2045C33.5264 9.64328 33.6396 8.89067 33.8454 8.21489C33.93 7.93885 33.8896 7.62244 33.9873 7.35421C34.2008 6.76958 34.6553 6.43364 35.2725 6.38026C35.8962 6.32687 36.3883 6.5925 36.6904 7.14197C37.5303 8.66411 37.6644 10.2513 37.0876 11.8946C37.0238 12.0769 36.9534 12.2566 36.8545 12.5209C37.3102 12.5209 37.7217 12.5209 38.1318 12.5209C38.8962 12.5209 39.6618 12.5157 40.4261 12.5261C41.5173 12.5417 42.3298 13.3125 42.3363 14.3894C42.3519 16.7487 42.3493 19.1068 42.3363 21.4662C42.3311 22.4141 41.6423 23.1576 40.6982 23.2956C40.5537 23.3165 40.4066 23.3282 40.2607 23.3282C38.0485 23.3295 35.835 23.3321 33.6227 23.3282C32.6449 23.3269 31.723 23.099 31.055 22.7045C30.5381 22.8243 30.1839 22.9688 29.8245 22.9779C28.6865 23.0092 27.5472 22.9922 26.4079 22.9883C25.7399 22.9857 25.5042 22.7514 25.5029 22.0743C25.499 19.2435 25.499 16.4128 25.5029 13.5821C25.5029 12.9076 25.736 12.6823 26.4209 12.6784C27.5928 12.6719 28.7633 12.6641 29.9352 12.6849C30.2256 12.6902 30.5146 12.8021 30.9092 12.8868L30.9118 12.8881ZM35.4001 7.83729C35.3532 8.02218 35.3271 8.08208 35.3258 8.14067C35.2646 9.6602 34.624 10.9167 33.6123 12.0209C32.7777 12.931 31.9639 13.862 31.1605 14.7995C31.0264 14.9558 30.9144 15.1915 30.9131 15.392C30.8936 17.0821 30.8936 18.7735 30.9144 20.4636C30.917 20.6524 31.0472 20.8907 31.1943 21.017C31.9027 21.6237 32.7516 21.8646 33.6748 21.8646C35.8376 21.8646 37.999 21.8659 40.1618 21.8646C40.7777 21.8646 40.8792 21.7618 40.8792 21.1654C40.8805 19.0196 40.8805 16.8737 40.8792 14.7266C40.8792 14.0508 40.8141 13.9883 40.1123 13.987C38.7464 13.9844 37.3805 13.9831 36.0146 13.9792C35.1227 13.9753 34.8271 13.5443 35.1579 12.7357C35.3545 12.2553 35.5745 11.7826 35.7399 11.2904C36.1266 10.1407 36.0277 9.02609 35.3988 7.83599L35.4001 7.83729ZM29.4183 14.1771H27.0055V21.4922H29.4183V14.1771Z" fill="#00E7BB" stroke="#00E7BB" stroke-width="0.2"/>
</svg>
