<svg width="52" height="52" viewBox="0 0 52 52" fill="none" xmlns="http://www.w3.org/2000/svg">
<path d="M11.8654 41.4773C12.6741 42.8794 13.4666 44.2544 14.2591 45.6293C14.5964 46.2159 14.9445 46.7957 15.271 47.3877C15.9375 48.5947 15.5799 50.0021 14.4514 50.6591C13.2891 51.3351 11.8857 50.9558 11.1705 49.7339C9.88897 47.5448 8.63185 45.3421 7.36255 43.1462C7.29617 43.0311 7.22031 42.92 7.19186 42.874C6.29508 42.874 5.43352 43.0081 4.63022 42.8482C2.52374 42.4283 1.03362 40.4546 1.00246 38.2289C0.971307 36.0262 2.36795 34.1934 4.48527 33.6176C7.06046 32.9173 9.6641 32.2996 12.1932 31.4597C15.8765 30.2378 19.1304 28.2654 21.7205 25.3191C22.2759 24.6864 22.7338 23.9671 23.2445 23.2939C23.4897 22.9714 23.4964 22.6545 23.407 22.2562C23.2986 21.7753 23.2282 21.2402 23.3271 20.7674C23.5249 19.8097 24.4013 19.1866 25.3645 19.1784C26.3751 19.1703 27.2149 19.7934 27.4954 20.8067C27.9898 22.5989 28.4585 24.3965 28.9394 26.1928C29.1047 26.8132 29.2957 27.4282 29.4312 28.0554C29.5084 28.409 29.6709 28.5079 30.0191 28.4971C30.7289 28.4767 31.4401 28.5201 32.1513 28.5093C32.5929 28.5025 32.8449 28.6799 32.956 29.1094C33.2526 30.254 33.5615 31.396 33.8744 32.5366C33.9814 32.9241 33.8541 33.1923 33.5181 33.3887C32.876 33.7639 32.2448 34.1595 31.5918 34.5158C31.2979 34.677 31.2477 34.8382 31.3358 35.1606C31.9847 37.5231 32.6105 39.8924 33.2391 42.2603C33.5886 43.5757 32.979 44.7583 31.791 45.0848C30.5447 45.4275 29.3797 44.7176 29.0573 43.3508C28.9313 42.8144 28.6509 42.5177 28.1835 42.2833C25.206 40.7892 22.0307 40.2852 18.7362 40.3733C16.562 40.4315 14.4311 40.7932 12.3273 41.3351C12.1837 41.3717 12.0442 41.4204 11.864 41.476L11.8654 41.4773ZM23.9814 24.4575C20.9863 28.6434 16.8844 31.0858 12.2068 32.7913C12.8259 35.0996 13.4395 37.3876 14.0572 39.6932C16.5146 39.2123 18.9231 39.0498 21.348 39.2205C23.7633 39.3912 26.096 39.929 28.4179 41.0208C26.9223 35.4383 25.4688 30.0116 23.98 24.4575H23.9814ZM11.058 33.2221C10.9713 33.2099 10.9375 33.195 10.9077 33.2031C8.78357 33.7599 6.64594 34.2733 4.53946 34.8897C2.76215 35.4112 1.83828 37.328 2.36795 39.1744C2.90168 41.0357 4.66408 42.1221 6.47254 41.6737C7.47227 41.4258 8.45846 41.1224 9.45277 40.8488C10.5704 40.5413 11.6907 40.2405 12.8543 39.9249C12.2474 37.6599 11.65 35.4302 11.058 33.2207V33.2221ZM25.4133 20.399C24.698 20.3854 24.3187 20.9882 24.5382 21.8064C26.1922 27.9904 27.8489 34.1744 29.5057 40.3584C29.763 41.3215 30.0069 42.2874 30.2846 43.2451C30.439 43.7802 30.9362 44.0471 31.4266 43.9143C31.9386 43.7762 32.2028 43.3413 32.112 42.7818C32.093 42.6653 32.0605 42.5516 32.0307 42.4364C30.7574 37.6708 29.4826 32.9064 28.2079 28.1421C27.601 25.8745 26.9941 23.6054 26.3845 21.3391C26.2125 20.6997 25.9077 20.4084 25.416 20.399H25.4133ZM8.43678 42.4134C8.43678 42.4947 8.42459 42.5339 8.43814 42.5583C9.71151 44.7691 10.9781 46.9826 12.2677 49.1853C12.6064 49.7637 13.262 49.9209 13.8053 49.6201C14.3593 49.314 14.5706 48.6366 14.2333 48.0433C13.0995 46.0452 11.9453 44.0579 10.7857 42.0734C10.7207 41.9623 10.5135 41.8349 10.4078 41.8607C9.74131 42.0232 9.08431 42.2264 8.43543 42.412L8.43678 42.4134ZM32.601 32.5095C32.3707 31.652 32.1567 30.823 31.9183 30.0007C31.8871 29.8924 31.7354 29.746 31.6338 29.7406C31.0825 29.7149 30.5298 29.7284 29.8931 29.7284C30.2345 31.0086 30.5596 32.2345 30.8996 33.512C31.4889 33.1652 32.0348 32.8414 32.5997 32.5095H32.601Z" fill="#00E7BB" stroke="#00E7BB" stroke-width="0.2"/>
<path d="M34.5245 14.9532C34.0138 14.9532 33.5451 14.9559 33.0764 14.9532C31.0756 14.937 29.7453 13.6081 29.7385 11.6018C29.7304 9.18243 29.7304 6.76167 29.7385 4.34226C29.7453 2.35092 31.0999 1.00576 33.0953 1.00305C37.9355 0.998984 42.7757 0.998984 47.6158 1.00305C49.6288 1.0044 50.9808 2.36583 50.9849 4.38967C50.9889 6.79282 50.9903 9.19597 50.9849 11.5991C50.9808 13.5932 49.637 14.9438 47.6416 14.9519C45.4078 14.9614 43.1739 14.9654 40.9401 14.9451C40.5026 14.941 40.1761 15.0724 39.8483 15.3488C38.4882 16.4921 37.1187 17.6246 35.7274 18.7286C35.5107 18.9007 35.1395 19.0158 34.8808 18.963C34.5109 18.8871 34.5231 18.4916 34.5245 18.1597C34.5299 17.1139 34.5272 16.0668 34.5272 14.9559L34.5245 14.9532ZM35.7437 17.1532C37.0238 16.102 38.2078 15.147 39.3674 14.1621C39.7264 13.8587 40.0908 13.7232 40.5608 13.7259C42.9301 13.7435 45.298 13.7408 47.6673 13.7313C48.9502 13.7259 49.7616 12.9104 49.7643 11.6343C49.7711 9.18107 49.7724 6.7278 49.7643 4.27453C49.7603 3.07024 48.9204 2.22359 47.7201 2.22223C42.8136 2.21546 37.9057 2.21546 32.9992 2.22223C31.7895 2.22359 30.9631 3.05263 30.9577 4.27046C30.9482 6.74135 30.9482 9.21087 30.9577 11.6818C30.9618 12.9091 31.7664 13.711 32.9897 13.7327C33.6331 13.7435 34.2752 13.7273 34.9187 13.7381C35.5391 13.7476 35.7383 13.9522 35.7423 14.5658C35.7477 15.3894 35.7423 16.2131 35.7423 17.1545L35.7437 17.1532Z" fill="#00E7BB" stroke="#00E7BB" stroke-width="0.2"/>
<path d="M10.2746 7.19003C12.4068 7.19003 14.5391 7.18597 16.6713 7.19003C18.4337 7.19409 19.5052 8.27104 19.5079 10.0443C19.512 12.6845 19.5133 15.3247 19.5079 17.9636C19.5038 19.6935 18.4106 20.7948 16.6902 20.7961C12.4082 20.8002 8.12749 20.8002 3.84544 20.7961C2.10065 20.7948 1.00474 19.6867 1.00203 17.9311C0.999323 15.2908 0.999323 12.6506 1.00203 10.0118C1.00339 8.28865 2.09659 7.19409 3.82648 7.19003C5.97495 7.18461 8.12478 7.19003 10.2746 7.19003ZM10.2353 19.5797C12.3513 19.5797 14.4686 19.581 16.5846 19.5797C17.7591 19.5783 18.2874 19.05 18.2887 17.8742C18.2914 15.2841 18.2914 12.6926 18.2887 10.1025C18.2887 8.92398 17.7699 8.41057 16.5805 8.41057C12.3648 8.40922 8.14781 8.40922 3.93214 8.41057C2.75224 8.41057 2.22257 8.93617 2.22122 10.1066C2.21986 12.6967 2.21986 15.2881 2.22122 17.8782C2.22122 19.0405 2.76308 19.5783 3.9362 19.5797C6.03591 19.5824 8.13562 19.5797 10.2353 19.5797Z" fill="#00E7BB" stroke="#00E7BB" stroke-width="0.2"/>
<path d="M44.6179 40.4991C45.3047 39.7459 46.1175 39.2596 47.1322 39.2068C49.7195 39.0713 51.7529 41.8348 50.7193 44.2136C50.2709 45.2458 49.5583 46.1954 48.8268 47.0665C47.8176 48.2694 46.6865 49.3694 45.5919 50.4978C44.9823 51.1264 44.2833 51.1751 43.7225 50.5859C42.3475 49.1418 40.9739 47.6937 39.6653 46.19C39.1749 45.6265 38.7807 44.941 38.4922 44.2488C37.4925 41.8524 39.454 39.0957 42.0455 39.2027C42.8894 39.2379 43.6128 39.5793 44.2359 40.1415C44.3592 40.2526 44.4798 40.3691 44.6179 40.4978V40.4991ZM44.6586 49.8218C46.0417 48.2802 47.399 46.7982 48.713 45.2783C49.072 44.8638 49.3484 44.3558 49.5719 43.8519C50.0853 42.695 49.4744 41.1954 48.308 40.6346C47.2013 40.1022 45.959 40.5587 45.2695 41.6993C45.1232 41.9418 44.8293 42.2209 44.5854 42.2371C44.3836 42.252 44.095 41.9445 43.9501 41.7142C43.4882 40.9814 42.884 40.4829 42.0021 40.4246C40.3576 40.3162 39.0151 42.1288 39.5651 43.6975C39.6369 43.9034 39.7249 44.1093 39.8374 44.2962C41.1013 46.3932 42.9219 47.9971 44.6572 49.8205L44.6586 49.8218Z" fill="#00E7BB" stroke="#00E7BB" stroke-width="0.2"/>
<path d="M36.4687 30.6573C36.2953 30.4663 36.0407 30.301 35.9662 30.0775C35.8456 29.7172 36.0732 29.4598 36.4294 29.3623C37.3411 29.1103 38.2555 28.8732 39.1685 28.6281C39.6251 28.5061 40.0789 28.3693 40.5381 28.2636C40.9079 28.1783 41.1775 28.3436 41.2764 28.7053C41.3712 29.0534 41.2059 29.3271 40.8754 29.4205C39.4774 29.8134 38.0726 30.1805 36.6706 30.5557C36.6381 30.5638 36.6028 30.5625 36.5703 30.5652C36.5365 30.5964 36.5026 30.6275 36.4687 30.6587V30.6573Z" fill="#00E7BB" stroke="#00E7BB" stroke-width="0.2"/>
<path d="M39.6486 38.0758C39.3872 37.958 39.2124 37.8957 39.0553 37.8063C37.9418 37.1696 36.8309 36.5288 35.7215 35.8854C35.246 35.6104 35.1159 35.2961 35.3191 34.9493C35.5223 34.6025 35.8515 34.5592 36.3297 34.8342C37.4866 35.4979 38.6394 36.1658 39.7949 36.8336C40.0875 37.003 40.2799 37.2549 40.1268 37.5841C40.036 37.7819 39.8112 37.9174 39.65 38.0772L39.6486 38.0758Z" fill="#00E7BB" stroke="#00E7BB" stroke-width="0.2"/>
<path d="M36.1192 21.9146C36.0149 22.1544 35.9621 22.3143 35.8808 22.4579C35.2265 23.5998 34.5641 24.7364 33.9125 25.8797C33.7012 26.2509 33.4248 26.45 33.0022 26.259C32.6567 26.1019 32.5944 25.7253 32.8396 25.2972C33.5088 24.1254 34.1889 22.9591 34.8621 21.79C35.0328 21.4947 35.2861 21.3078 35.6112 21.4432C35.8131 21.5272 35.954 21.7548 36.1206 21.9174L36.1192 21.9146Z" fill="#00E7BB" stroke="#00E7BB" stroke-width="0.2"/>
<path d="M40.4212 4.52247C42.3678 4.52247 44.3144 4.52247 46.2611 4.52247C46.4128 4.52247 46.5672 4.51705 46.7176 4.53331C47.0522 4.56989 47.296 4.78257 47.2323 5.09685C47.1849 5.32578 46.9533 5.54388 46.7514 5.70102C46.6417 5.78636 46.425 5.7403 46.2556 5.7403C42.3285 5.74166 38.4014 5.7403 34.4743 5.7403C34.4065 5.7403 34.3388 5.7403 34.2711 5.7403C33.7373 5.72676 33.442 5.50595 33.4434 5.12123C33.4434 4.73515 33.7278 4.52518 34.2765 4.52383C36.3247 4.52112 38.3729 4.52383 40.4212 4.52383V4.52247Z" fill="#00E7BB" stroke="#00E7BB" stroke-width="0.2"/>
<path d="M40.3509 8.60147C38.3867 8.60147 36.4238 8.60147 34.4595 8.60147C34.2902 8.60147 34.0735 8.65024 33.9637 8.56625C33.7578 8.40911 33.5032 8.18695 33.4693 7.96208C33.4192 7.63696 33.6684 7.40531 34.0355 7.3877C34.1534 7.38229 34.2726 7.38364 34.3905 7.38364C38.3691 7.38364 42.3463 7.38364 46.3249 7.38364C46.4766 7.38364 46.669 7.33623 46.7733 7.40938C46.9603 7.54078 47.2027 7.7372 47.2217 7.9255C47.2393 8.11515 47.0537 8.38066 46.8803 8.51477C46.7449 8.62044 46.4929 8.59741 46.2938 8.59741C44.3133 8.60283 42.3328 8.60012 40.3523 8.60012L40.3509 8.60147Z" fill="#00E7BB" stroke="#00E7BB" stroke-width="0.2"/>
<path d="M43.4031 10.2377C44.434 10.2377 45.4662 10.235 46.4971 10.2377C47.0024 10.2404 47.272 10.4531 47.2517 10.8445C47.2273 11.3254 46.9022 11.4555 46.4836 11.4555C44.4205 11.4555 42.3587 11.4582 40.2955 11.4528C39.7767 11.4528 39.4719 11.1995 39.5112 10.8066C39.5586 10.3298 39.8878 10.2282 40.3091 10.2336C41.34 10.2444 42.3722 10.2377 43.4031 10.2377Z" fill="#00E7BB" stroke="#00E7BB" stroke-width="0.2"/>
<path d="M7.971 13.9858C7.971 13.3776 7.95474 12.7693 7.97506 12.1624C8.01164 11.0232 9.01002 10.4447 10.0016 10.9961C11.0637 11.5867 12.1162 12.1936 13.158 12.8181C14.1279 13.4006 14.1292 14.5724 13.1566 15.1589C12.1162 15.7861 11.0623 16.3903 10.0003 16.9809C9.00866 17.5309 8.01164 16.9498 7.97642 15.8105C7.95745 15.2036 7.97371 14.594 7.97235 13.9872L7.971 13.9858ZM9.22541 16.0245C10.4202 15.335 11.5405 14.6875 12.7516 13.9872C11.527 13.28 10.4134 12.6379 9.22541 11.9511V16.0232V16.0245Z" fill="#00E7BB" stroke="#00E7BB" stroke-width="0.2"/>
</svg>
