<svg width="42" height="50" viewBox="0 0 42 50" fill="none" xmlns="http://www.w3.org/2000/svg">
<path d="M37.3377 46.7935H4.66364C4.66364 47.5285 4.66494 48.2608 4.66364 48.9918C4.66105 49.7267 4.407 49.9933 3.70318 49.996C2.79585 49.9987 1.88853 49.9987 0.981205 49.996C0.24757 49.9946 0.00129618 49.7362 0.00129618 48.9635C0 39.1355 0 29.3075 0 19.4795C0 13.3479 0 7.21638 0 1.08347C0 0.240805 0.226831 0.00254266 1.02916 0.00119655C1.92093 0.00119655 2.81141 -0.00149568 3.70318 0.00119655C4.4083 0.00388878 4.66364 0.267728 4.66364 1.00405C4.66364 7.70771 4.66364 14.41 4.66364 21.1137V21.7423H5.44524C5.44524 21.5539 5.44524 21.3735 5.44524 21.1931C5.44524 17.4469 5.44524 13.7006 5.44524 9.95438C5.44524 9.11036 5.67207 8.8721 6.4744 8.8721C10.0881 8.8721 13.7019 8.8721 17.3156 8.8721H17.8911C17.8911 8.02809 17.8911 7.22715 17.8911 6.42621C17.8911 5.40182 17.8872 4.37607 17.8924 3.35168C17.895 2.71227 18.1659 2.42286 18.7751 2.42286C21.7887 2.41882 24.8036 2.42017 27.8172 2.42286C28.5224 2.42286 28.7764 2.68939 28.7777 3.42572C28.7777 9.32171 28.7777 15.219 28.7777 21.115V21.7437H30.337C30.337 20.4931 30.337 19.2547 30.337 18.0176C30.337 17.1763 30.5638 16.938 31.3688 16.938C32.779 16.938 34.188 16.9367 35.5982 16.938C36.3007 16.938 36.5548 17.2059 36.5561 17.9436C36.5587 19.2009 36.5561 20.4581 36.5561 21.745H37.3377V21.1406C37.3377 14.4706 37.3377 7.80194 37.3377 1.13193C37.3377 0.22196 37.5476 0.00254266 38.4187 0.00254266C39.3104 0.00254266 40.2009 -0.00149568 41.0927 0.00254266C41.7317 0.0052349 42 0.286573 42 0.958285C42 16.9851 42 33.012 42 49.0389C42 49.7106 41.7304 49.9919 41.0927 49.996C40.1361 50.0013 39.1808 50.0013 38.2242 49.996C37.6137 49.9919 37.3428 49.7065 37.339 49.0685C37.3338 48.3295 37.339 47.5918 37.339 46.7949L37.3377 46.7935ZM22.5587 33.0645C22.5587 32.2878 22.5587 31.5838 22.5587 30.8811C22.5599 30.0856 22.7997 29.8406 23.5787 29.8392C27.5489 29.8392 31.5178 29.8392 35.488 29.8392C36.3318 29.8392 36.5561 30.0681 36.5561 30.9323C36.5561 34.6785 36.5561 38.4247 36.5561 42.171C36.5561 42.35 36.5561 42.5291 36.5561 42.7067H37.2988V25.8305H4.69345V42.7067H5.44524C5.44524 41.3795 5.44135 40.0885 5.44653 38.7963C5.44913 38.2376 5.72003 37.9132 6.22035 37.9092C7.77576 37.8971 9.33117 37.8984 10.8866 37.9092C11.3714 37.9132 11.6539 38.2269 11.6604 38.7451C11.6708 39.5514 11.663 40.3578 11.663 41.1641C11.663 41.6783 11.663 42.1939 11.663 42.7067H13.2223C13.2223 42.4873 13.2223 42.3043 13.2223 42.1212C13.2223 39.4505 13.2223 36.7798 13.2223 34.1077C13.2223 33.3108 13.4634 33.0659 14.2424 33.0659C16.7051 33.0659 19.1679 33.0659 21.6306 33.0659H22.5561L22.5587 33.0645ZM17.8574 21.7517V10.5211H15.5541C15.5541 11.8551 15.5593 13.1474 15.5515 14.4396C15.5489 15.0117 15.2638 15.3133 14.7155 15.316C13.2093 15.324 11.7019 15.3227 10.1957 15.316C9.61633 15.3133 9.34025 15.0198 9.33636 14.4127C9.32988 13.2712 9.33636 12.1284 9.33377 10.9869C9.33377 10.8253 9.31951 10.6651 9.31303 10.5211H7.02398V21.7517H17.8561H17.8574ZM32.6675 31.4586C32.6675 32.7724 32.6701 34.0445 32.6675 35.3166C32.6662 36.0125 32.4005 36.2844 31.7226 36.2858C30.2813 36.2885 28.8386 36.2885 27.3973 36.2858C26.7168 36.2858 26.4524 36.0152 26.4498 35.3219C26.4459 34.4147 26.4498 33.5087 26.4498 32.6014C26.4498 32.2232 26.4498 31.8463 26.4498 31.4761H24.1426V42.7081H34.9682V31.4599H32.6688L32.6675 31.4586ZM3.07583 48.3645V1.65288H1.57874V48.3658H3.07583V48.3645ZM40.4148 48.3645V1.65154H38.9151V48.3645H40.4148ZM19.4647 12.0624H27.1873V4.05704H25.6656C25.6656 4.8351 25.6708 5.58623 25.6643 6.33737C25.6591 6.96735 25.383 7.25003 24.7673 7.25407C23.86 7.25946 22.9527 7.25676 22.0467 7.25407C21.234 7.25407 21.0032 7.01716 21.0019 6.1866C21.0019 5.47316 21.0019 4.75837 21.0019 4.0557H19.4647V12.0611V12.0624ZM19.4673 21.7423H27.1899V13.7316H25.6669C25.6669 14.5056 25.6708 15.2567 25.6656 16.0079C25.6604 16.6432 25.3882 16.9273 24.7764 16.9313C23.8535 16.9367 22.9294 16.934 22.0065 16.9313C21.2417 16.9313 21.0045 16.6782 21.0032 15.8719C21.0032 15.1571 21.0032 14.4423 21.0032 13.7302H19.4686V21.741L19.4673 21.7423ZM22.5237 42.7202V34.7148H20.9981C20.9981 35.4943 21.0019 36.2319 20.9981 36.9709C20.9929 37.6077 20.722 37.8944 20.1128 37.8984C19.173 37.9038 18.2333 37.9025 17.2949 37.8984C16.5911 37.8971 16.3383 37.6305 16.337 36.8942C16.3344 36.1619 16.337 35.431 16.337 34.7148H14.8036V42.7189H22.525L22.5237 42.7202ZM4.68438 24.1599H37.3156V23.4102H4.68438V24.1599ZM4.68438 45.1271H37.3156V44.3786H4.68438V45.1271ZM10.9086 13.675H13.9624V10.509H10.9086V13.675ZM31.9132 21.745H34.9708V18.5843H31.9132V21.745ZM28.0233 34.6489H31.0823V31.4855H28.0233V34.6489ZM7.02009 42.7148H10.0817V39.5487H7.02009V42.7148ZM22.582 4.05435V5.61316H24.0778V4.05435H22.582ZM24.0933 13.7329H22.5833V15.289H24.0933V13.7329ZM17.908 36.2656H19.418V34.7095H17.908V36.2656Z" fill="#00E7BB"/>
</svg>
