<svg width="59" height="59" viewBox="0 0 59 59" fill="none" xmlns="http://www.w3.org/2000/svg">
<mask id="mask0_8_3684" style="mask-type:alpha" maskUnits="userSpaceOnUse" x="0" y="0" width="59" height="59">
<rect width="59" height="59" fill="#D9D9D9"/>
</mask>
<g mask="url(#mask0_8_3684)">
<path d="M36.6487 47.9374C31.4987 47.9374 27.1366 46.1502 23.5623 42.576C19.9881 39.0018 18.201 34.6397 18.201 29.4897C18.201 24.3614 19.9881 20.0081 23.5623 16.4298C27.1366 12.8516 31.4987 11.0625 36.6487 11.0625C41.777 11.0625 46.1303 12.8516 49.7085 16.4298C53.2867 20.0081 55.0758 24.3614 55.0758 29.4897C55.0758 34.6397 53.2867 39.0018 49.7085 42.576C46.1303 46.1502 41.777 47.9374 36.6487 47.9374ZM36.6288 44.8488C40.8879 44.8488 44.5124 43.3597 47.5024 40.3814C50.4923 37.4032 51.9873 33.7792 51.9873 29.5096C51.9873 25.2504 50.4955 21.6259 47.512 18.636C44.5285 15.6461 40.9072 14.1511 36.6481 14.1511C32.3784 14.1511 28.7513 15.6428 25.7666 18.6264C22.782 21.6098 21.2896 25.2311 21.2896 29.4903C21.2896 33.7599 22.7787 37.3871 25.757 40.3717C28.7352 43.3564 32.3592 44.8488 36.6288 44.8488ZM42.7922 37.8361L44.9794 35.6647L38.2079 28.868L38.1827 20.0448H35.0941V30.1271L42.7922 37.8361ZM6.38216 21.2109V18.1223H15.7427V21.2109H6.38216ZM3.92383 31.0442V27.9557H15.7427V31.0442H3.92383ZM6.38216 40.8775V37.789H15.7427V40.8775H6.38216Z" fill="#01EAC3"/>
</g>
</svg>
