<svg width="55" height="55" viewBox="0 0 55 55" fill="none" xmlns="http://www.w3.org/2000/svg">
<g filter="url(#filter0_d_38_6494)">
<circle cx="27.5" cy="25.5" r="20.5" transform="rotate(-180 27.5 25.5)" fill="#EBEBEB"/>
</g>
<path d="M36.5303 25.5303C36.8232 25.2374 36.8232 24.7626 36.5303 24.4697L31.7574 19.6967C31.4645 19.4038 30.9896 19.4038 30.6967 19.6967C30.4038 19.9896 30.4038 20.4645 30.6967 20.7574L34.9393 25L30.6967 29.2426C30.4038 29.5355 30.4038 30.0104 30.6967 30.3033C30.9896 30.5962 31.4645 30.5962 31.7574 30.3033L36.5303 25.5303ZM20 24.25C19.5858 24.25 19.25 24.5858 19.25 25C19.25 25.4142 19.5858 25.75 20 25.75L20 24.25ZM36 24.25L20 24.25L20 25.75L36 25.75L36 24.25Z" fill="#D2D2D2"/>
<defs>
<filter id="filter0_d_38_6494" x="0" y="0" width="55" height="55" filterUnits="userSpaceOnUse" color-interpolation-filters="sRGB">
<feFlood flood-opacity="0" result="BackgroundImageFix"/>
<feColorMatrix in="SourceAlpha" type="matrix" values="0 0 0 0 0 0 0 0 0 0 0 0 0 0 0 0 0 0 127 0" result="hardAlpha"/>
<feOffset dy="2"/>
<feGaussianBlur stdDeviation="3.5"/>
<feComposite in2="hardAlpha" operator="out"/>
<feColorMatrix type="matrix" values="0 0 0 0 0 0 0 0 0 0 0 0 0 0 0 0 0 0 0.25 0"/>
<feBlend mode="normal" in2="BackgroundImageFix" result="effect1_dropShadow_38_6494"/>
<feBlend mode="normal" in="SourceGraphic" in2="effect1_dropShadow_38_6494" result="shape"/>
</filter>
</defs>
</svg>
