<svg width="55" height="55" viewBox="0 0 55 55" fill="none" xmlns="http://www.w3.org/2000/svg">
<g filter="url(#filter0_d_8_2798)">
<circle cx="27.5" cy="25.5" r="20.5" fill="#EBEBEB"/>
</g>
<path d="M18.4697 25.4697C18.1768 25.7626 18.1768 26.2374 18.4697 26.5303L23.2426 31.3033C23.5355 31.5962 24.0104 31.5962 24.3033 31.3033C24.5962 31.0104 24.5962 30.5355 24.3033 30.2426L20.0607 26L24.3033 21.7574C24.5962 21.4645 24.5962 20.9896 24.3033 20.6967C24.0104 20.4038 23.5355 20.4038 23.2426 20.6967L18.4697 25.4697ZM35 26.75C35.4142 26.75 35.75 26.4142 35.75 26C35.75 25.5858 35.4142 25.25 35 25.25L35 26.75ZM19 26.75L35 26.75L35 25.25L19 25.25L19 26.75Z" fill="#D2D2D2"/>
<defs>
<filter id="filter0_d_8_2798" x="0" y="0" width="55" height="55" filterUnits="userSpaceOnUse" color-interpolation-filters="sRGB">
<feFlood flood-opacity="0" result="BackgroundImageFix"/>
<feColorMatrix in="SourceAlpha" type="matrix" values="0 0 0 0 0 0 0 0 0 0 0 0 0 0 0 0 0 0 127 0" result="hardAlpha"/>
<feOffset dy="2"/>
<feGaussianBlur stdDeviation="3.5"/>
<feComposite in2="hardAlpha" operator="out"/>
<feColorMatrix type="matrix" values="0 0 0 0 0 0 0 0 0 0 0 0 0 0 0 0 0 0 0.25 0"/>
<feBlend mode="normal" in2="BackgroundImageFix" result="effect1_dropShadow_8_2798"/>
<feBlend mode="normal" in="SourceGraphic" in2="effect1_dropShadow_8_2798" result="shape"/>
</filter>
</defs>
</svg>
