<svg width="34" height="15" viewBox="0 0 34 15" fill="none" xmlns="http://www.w3.org/2000/svg">
<path d="M1.99219 6.5C1.4399 6.5 0.992188 6.94772 0.992188 7.5C0.992188 8.05228 1.4399 8.5 1.99219 8.5V6.5ZM32.716 8.20711C33.1065 7.81658 33.1065 7.18342 32.716 6.79289L26.352 0.428932C25.9615 0.0384078 25.3283 0.0384078 24.9378 0.428932C24.5473 0.819457 24.5473 1.45262 24.9378 1.84315L30.5946 7.5L24.9378 13.1569C24.5473 13.5474 24.5473 14.1805 24.9378 14.5711C25.3283 14.9616 25.9615 14.9616 26.352 14.5711L32.716 8.20711ZM1.99219 8.5H32.0089V6.5H1.99219V8.5Z" fill="#01EAC3"/>
</svg>
