<svg width="11" height="3365" viewBox="0 0 11 3365" fill="none" xmlns="http://www.w3.org/2000/svg">
<path d="M0.104655 5.99561C0.104655 8.94112 2.49247 11.3289 5.43799 11.3289C8.38351 11.3289 10.7713 8.94112 10.7713 5.99561C10.7713 3.05009 8.38351 0.662272 5.43799 0.662272C2.49247 0.662272 0.104655 3.05009 0.104655 5.99561ZM0.104655 3359C0.104655 3361.95 2.49247 3364.34 5.43799 3364.34C8.38351 3364.34 10.7713 3361.95 10.7713 3359C10.7713 3356.06 8.38351 3353.67 5.43799 3353.67C2.49247 3353.67 0.104655 3356.06 0.104655 3359ZM4.43799 5.99561V9.48832H6.43799V5.99561H4.43799ZM4.43799 16.4738V23.4592H6.43799V16.4738H4.43799ZM4.43799 30.4446V37.43H6.43799V30.4446H4.43799ZM4.43799 44.4155V51.4009H6.43799V44.4155H4.43799ZM4.43799 58.3863V65.3718H6.43799V58.3863H4.43799ZM4.43799 72.3572V79.3426H6.43799V72.3572H4.43799ZM4.43799 86.328V93.3135H6.43799V86.328H4.43799ZM4.43799 100.299V107.284H6.43799V100.299H4.43799ZM4.43799 114.27V121.255H6.43799V114.27H4.43799ZM4.43799 128.241V135.226H6.43799V128.241H4.43799ZM4.43799 142.211V149.197H6.43799V142.211H4.43799ZM4.43799 156.182V163.168H6.43799V156.182H4.43799ZM4.43799 170.153V177.139H6.43799V170.153H4.43799ZM4.43799 184.124V191.109H6.43799V184.124H4.43799ZM4.43799 198.095V205.08H6.43799V198.095H4.43799ZM4.43799 212.066V219.051H6.43799V212.066H4.43799ZM4.43799 226.037V233.022H6.43799V226.037H4.43799ZM4.43799 240.007V246.993H6.43799V240.007H4.43799ZM4.43799 253.978V260.964H6.43799V253.978H4.43799ZM4.43799 267.949V274.935H6.43799V267.949H4.43799ZM4.43799 281.92V288.906H6.43799V281.92H4.43799ZM4.43799 295.891V302.876H6.43799V295.891H4.43799ZM4.43799 309.862V316.847H6.43799V309.862H4.43799ZM4.43799 323.833V330.818H6.43799V323.833H4.43799ZM4.43799 337.804V344.789H6.43799V337.804H4.43799ZM4.43799 351.774V358.76H6.43799V351.774H4.43799ZM4.43799 365.745V372.731H6.43799V365.745H4.43799ZM4.43799 379.716V386.702H6.43799V379.716H4.43799ZM4.43799 393.687V400.673H6.43799V393.687H4.43799ZM4.43799 407.658V414.643H6.43799V407.658H4.43799ZM4.43799 421.629V428.614H6.43799V421.629H4.43799ZM4.43799 435.6V442.585H6.43799V435.6H4.43799ZM4.43799 449.571V456.556H6.43799V449.571H4.43799ZM4.43799 463.542V470.527H6.43799V463.542H4.43799ZM4.43799 477.512V484.498H6.43799V477.512H4.43799ZM4.43799 491.483V498.469H6.43799V491.483H4.43799ZM4.43799 505.454V512.44H6.43799V505.454H4.43799ZM4.43799 519.425V526.41H6.43799V519.425H4.43799ZM4.43799 533.396V540.381H6.43799V533.396H4.43799ZM4.43799 547.367V554.352H6.43799V547.367H4.43799ZM4.43799 561.338V568.323H6.43799V561.338H4.43799ZM4.43799 575.308V582.294H6.43799V575.308H4.43799ZM4.43799 589.279V596.265H6.43799V589.279H4.43799ZM4.43799 603.25V610.235H6.43799V603.25H4.43799ZM4.43799 617.221V624.206H6.43799V617.221H4.43799ZM4.43799 631.192V638.177H6.43799V631.192H4.43799ZM4.43799 645.162V652.148H6.43799V645.162H4.43799ZM4.43799 659.133V666.119H6.43799V659.133H4.43799ZM4.43799 673.104V680.09H6.43799V673.104H4.43799ZM4.43799 687.075V694.06H6.43799V687.075H4.43799ZM4.43799 701.046V708.031H6.43799V701.046H4.43799ZM4.43799 715.017V722.002H6.43799V715.017H4.43799ZM4.43799 728.987V735.973H6.43799V728.987H4.43799ZM4.43799 742.958V749.944H6.43799V742.958H4.43799ZM4.43799 756.929V763.915H6.43799V756.929H4.43799ZM4.43799 770.9V777.885H6.43799V770.9H4.43799ZM4.43799 784.871V791.856H6.43799V784.871H4.43799ZM4.43799 798.842V805.827H6.43799V798.842H4.43799ZM4.43799 812.812V819.798H6.43799V812.812H4.43799ZM4.43799 826.783V833.769H6.43799V826.783H4.43799ZM4.43799 840.754V847.739H6.43799V840.754H4.43799ZM4.43799 854.725V861.71H6.43799V854.725H4.43799ZM4.43799 868.696V875.681H6.43799V868.696H4.43799ZM4.43799 882.667V889.652H6.43799V882.667H4.43799ZM4.43799 896.637V903.623H6.43799V896.637H4.43799ZM4.43799 910.608V917.594H6.43799V910.608H4.43799ZM4.43799 924.579V931.564H6.43799V924.579H4.43799ZM4.43799 938.55V945.535H6.43799V938.55H4.43799ZM4.43799 952.521V959.506H6.43799V952.521H4.43799ZM4.43799 966.491V973.477H6.43799V966.491H4.43799ZM4.43799 980.462V987.448H6.43799V980.462H4.43799ZM4.43799 994.433V1001.42H6.43799V994.433H4.43799ZM4.43799 1008.4V1015.39H6.43799V1008.4H4.43799ZM4.43799 1022.37V1029.36H6.43799V1022.37H4.43799ZM4.43799 1036.35V1043.33H6.43799V1036.35H4.43799ZM4.43799 1050.32V1057.3H6.43799V1050.32H4.43799ZM4.43799 1064.29V1071.27H6.43799V1064.29H4.43799ZM4.43799 1078.26V1085.24H6.43799V1078.26H4.43799ZM4.43799 1092.23V1099.21H6.43799V1092.23H4.43799ZM4.43799 1106.2V1113.19H6.43799V1106.2H4.43799ZM4.43799 1120.17V1127.16H6.43799V1120.17H4.43799ZM4.43799 1134.14V1141.13H6.43799V1134.14H4.43799ZM4.43799 1148.11V1155.1H6.43799V1148.11H4.43799ZM4.43799 1162.08V1169.07H6.43799V1162.08H4.43799ZM4.43799 1176.06V1183.04H6.43799V1176.06H4.43799ZM4.43799 1190.03V1197.01H6.43799V1190.03H4.43799ZM4.43799 1204V1210.98H6.43799V1204H4.43799ZM4.43799 1217.97V1224.95H6.43799V1217.97H4.43799ZM4.43799 1231.94V1238.92H6.43799V1231.94H4.43799ZM4.43799 1245.91V1252.9H6.43799V1245.91H4.43799ZM4.43799 1259.88V1266.87H6.43799V1259.88H4.43799ZM4.43799 1273.85V1280.84H6.43799V1273.85H4.43799ZM4.43799 1287.82V1294.81H6.43799V1287.82H4.43799ZM4.43799 1301.79V1308.78H6.43799V1301.79H4.43799ZM4.43799 1315.76V1322.75H6.43799V1315.76H4.43799ZM4.43799 1329.74V1336.72H6.43799V1329.74H4.43799ZM4.43799 1343.71V1350.69H6.43799V1343.71H4.43799ZM4.43799 1357.68V1364.66H6.43799V1357.68H4.43799ZM4.43799 1371.65V1378.63H6.43799V1371.65H4.43799ZM4.43799 1385.62V1392.6H6.43799V1385.62H4.43799ZM4.43799 1399.59V1406.58H6.43799V1399.59H4.43799ZM4.43799 1413.56V1420.55H6.43799V1413.56H4.43799ZM4.43799 1427.53V1434.52H6.43799V1427.53H4.43799ZM4.43799 1441.5V1448.49H6.43799V1441.5H4.43799ZM4.43799 1455.47V1462.46H6.43799V1455.47H4.43799ZM4.43799 1469.44V1476.43H6.43799V1469.44H4.43799ZM4.43799 1483.42V1490.4H6.43799V1483.42H4.43799ZM4.43799 1497.39V1504.37H6.43799V1497.39H4.43799ZM4.43799 1511.36V1518.34H6.43799V1511.36H4.43799ZM4.43799 1525.33V1532.31H6.43799V1525.33H4.43799ZM4.43799 1539.3V1546.29H6.43799V1539.3H4.43799ZM4.43799 1553.27V1560.26H6.43799V1553.27H4.43799ZM4.43799 1567.24V1574.23H6.43799V1567.24H4.43799ZM4.43799 1581.21V1588.2H6.43799V1581.21H4.43799ZM4.43799 1595.18V1602.17H6.43799V1595.18H4.43799ZM4.43799 1609.15V1616.14H6.43799V1609.15H4.43799ZM4.43799 1623.13V1630.11H6.43799V1623.13H4.43799ZM4.43799 1637.1V1644.08H6.43799V1637.1H4.43799ZM4.43799 1651.07V1658.05H6.43799V1651.07H4.43799ZM4.43799 1665.04V1672.02H6.43799V1665.04H4.43799ZM4.43799 1679.01V1685.99H6.43799V1679.01H4.43799ZM4.43799 1692.98V1699.97H6.43799V1692.98H4.43799ZM4.43799 1706.95V1713.94H6.43799V1706.95H4.43799ZM4.43799 1720.92V1727.91H6.43799V1720.92H4.43799ZM4.43799 1734.89V1741.88H6.43799V1734.89H4.43799ZM4.43799 1748.86V1755.85H6.43799V1748.86H4.43799ZM4.43799 1762.83V1769.82H6.43799V1762.83H4.43799ZM4.43799 1776.81V1783.79H6.43799V1776.81H4.43799ZM4.43799 1790.78V1797.76H6.43799V1790.78H4.43799ZM4.43799 1804.75V1811.73H6.43799V1804.75H4.43799ZM4.43799 1818.72V1825.7H6.43799V1818.72H4.43799ZM4.43799 1832.69V1839.67H6.43799V1832.69H4.43799ZM4.43799 1846.66V1853.65H6.43799V1846.66H4.43799ZM4.43799 1860.63V1867.62H6.43799V1860.63H4.43799ZM4.43799 1874.6V1881.59H6.43799V1874.6H4.43799ZM4.43799 1888.57V1895.56H6.43799V1888.57H4.43799ZM4.43799 1902.54V1909.53H6.43799V1902.54H4.43799ZM4.43799 1916.52V1923.5H6.43799V1916.52H4.43799ZM4.43799 1930.49V1937.47H6.43799V1930.49H4.43799ZM4.43799 1944.46V1951.44H6.43799V1944.46H4.43799ZM4.43799 1958.43V1965.41H6.43799V1958.43H4.43799ZM4.43799 1972.4V1979.38H6.43799V1972.4H4.43799ZM4.43799 1986.37V1993.36H6.43799V1986.37H4.43799ZM4.43799 2000.34V2007.33H6.43799V2000.34H4.43799ZM4.43799 2014.31V2021.3H6.43799V2014.31H4.43799ZM4.43799 2028.28V2035.27H6.43799V2028.28H4.43799ZM4.43799 2042.25V2049.24H6.43799V2042.25H4.43799ZM4.43799 2056.22V2063.21H6.43799V2056.22H4.43799ZM4.43799 2070.2V2077.18H6.43799V2070.2H4.43799ZM4.43799 2084.17V2091.15H6.43799V2084.17H4.43799ZM4.43799 2098.14V2105.12H6.43799V2098.14H4.43799ZM4.43799 2112.11V2119.09H6.43799V2112.11H4.43799ZM4.43799 2126.08V2133.06H6.43799V2126.08H4.43799ZM4.43799 2140.05V2147.03H6.43799V2140.05H4.43799ZM4.43799 2154.02V2161H6.43799V2154.02H4.43799ZM4.43799 2167.99V2174.98H6.43799V2167.99H4.43799ZM4.43799 2181.96V2188.95H6.43799V2181.96H4.43799ZM4.43799 2195.93V2202.92H6.43799V2195.93H4.43799ZM4.43799 2209.9V2216.89H6.43799V2209.9H4.43799ZM4.43799 2223.87V2230.86H6.43799V2223.87H4.43799ZM4.43799 2237.84V2244.83H6.43799V2237.84H4.43799ZM4.43799 2251.81V2258.8H6.43799V2251.81H4.43799ZM4.43799 2265.79V2272.77H6.43799V2265.79H4.43799ZM4.43799 2279.76V2286.74H6.43799V2279.76H4.43799ZM4.43799 2293.73V2300.71H6.43799V2293.73H4.43799ZM4.43799 2307.7V2314.68H6.43799V2307.7H4.43799ZM4.43799 2321.67V2328.65H6.43799V2321.67H4.43799ZM4.43799 2335.64V2342.62H6.43799V2335.64H4.43799ZM4.43799 2349.61V2356.59H6.43799V2349.61H4.43799ZM4.43799 2363.58V2370.57H6.43799V2363.58H4.43799ZM4.43799 2377.55V2384.54H6.43799V2377.55H4.43799ZM4.43799 2391.52V2398.51H6.43799V2391.52H4.43799ZM4.43799 2405.49V2412.48H6.43799V2405.49H4.43799ZM4.43799 2419.46V2426.45H6.43799V2419.46H4.43799ZM4.43799 2433.43V2440.42H6.43799V2433.43H4.43799ZM4.43799 2447.4V2454.39H6.43799V2447.4H4.43799ZM4.43799 2461.38V2468.36H6.43799V2461.38H4.43799ZM4.43799 2475.35V2482.33H6.43799V2475.35H4.43799ZM4.43799 2489.32V2496.3H6.43799V2489.32H4.43799ZM4.43799 2503.29V2510.27H6.43799V2503.29H4.43799ZM4.43799 2517.26V2524.24H6.43799V2517.26H4.43799ZM4.43799 2531.23V2538.21H6.43799V2531.23H4.43799ZM4.43799 2545.2V2552.18H6.43799V2545.2H4.43799ZM4.43799 2559.17V2566.16H6.43799V2559.17H4.43799ZM4.43799 2573.14V2580.13H6.43799V2573.14H4.43799ZM4.43799 2587.11V2594.1H6.43799V2587.11H4.43799ZM4.43799 2601.08V2608.07H6.43799V2601.08H4.43799ZM4.43799 2615.05V2622.04H6.43799V2615.05H4.43799ZM4.43799 2629.02V2636.01H6.43799V2629.02H4.43799ZM4.43799 2642.99V2649.98H6.43799V2642.99H4.43799ZM4.43799 2656.96V2663.95H6.43799V2656.96H4.43799ZM4.43799 2670.94V2677.92H6.43799V2670.94H4.43799ZM4.43799 2684.91V2691.89H6.43799V2684.91H4.43799ZM4.43799 2698.88V2705.86H6.43799V2698.88H4.43799ZM4.43799 2712.85V2719.83H6.43799V2712.85H4.43799ZM4.43799 2726.82V2733.8H6.43799V2726.82H4.43799ZM4.43799 2740.79V2747.77H6.43799V2740.79H4.43799ZM4.43799 2754.76V2761.75H6.43799V2754.76H4.43799ZM4.43799 2768.73V2775.72H6.43799V2768.73H4.43799ZM4.43799 2782.7V2789.69H6.43799V2782.7H4.43799ZM4.43799 2796.67V2803.66H6.43799V2796.67H4.43799ZM4.43799 2810.64V2817.63H6.43799V2810.64H4.43799ZM4.43799 2824.61V2831.6H6.43799V2824.61H4.43799ZM4.43799 2838.58V2845.57H6.43799V2838.58H4.43799ZM4.43799 2852.55V2859.54H6.43799V2852.55H4.43799ZM4.43799 2866.53V2873.51H6.43799V2866.53H4.43799ZM4.43799 2880.5V2887.48H6.43799V2880.5H4.43799ZM4.43799 2894.47V2901.45H6.43799V2894.47H4.43799ZM4.43799 2908.44V2915.42H6.43799V2908.44H4.43799ZM4.43799 2922.41V2929.39H6.43799V2922.41H4.43799ZM4.43799 2936.38V2943.36H6.43799V2936.38H4.43799ZM4.43799 2950.35V2957.34H6.43799V2950.35H4.43799ZM4.43799 2964.32V2971.31H6.43799V2964.32H4.43799ZM4.43799 2978.29V2985.28H6.43799V2978.29H4.43799ZM4.43799 2992.26V2999.25H6.43799V2992.26H4.43799ZM4.43799 3006.23V3013.22H6.43799V3006.23H4.43799ZM4.43799 3020.2V3027.19H6.43799V3020.2H4.43799ZM4.43799 3034.17V3041.16H6.43799V3034.17H4.43799ZM4.43799 3048.14V3055.13H6.43799V3048.14H4.43799ZM4.43799 3062.12V3069.1H6.43799V3062.12H4.43799ZM4.43799 3076.09V3083.07H6.43799V3076.09H4.43799ZM4.43799 3090.06V3097.04H6.43799V3090.06H4.43799ZM4.43799 3104.03V3111.01H6.43799V3104.03H4.43799ZM4.43799 3118V3124.98H6.43799V3118H4.43799ZM4.43799 3131.97V3138.95H6.43799V3131.97H4.43799ZM4.43799 3145.94V3152.92H6.43799V3145.94H4.43799ZM4.43799 3159.91V3166.9H6.43799V3159.91H4.43799ZM4.43799 3173.88V3180.87H6.43799V3173.88H4.43799ZM4.43799 3187.85V3194.84H6.43799V3187.85H4.43799ZM4.43799 3201.82V3208.81H6.43799V3201.82H4.43799ZM4.43799 3215.79V3222.78H6.43799V3215.79H4.43799ZM4.43799 3229.76V3236.75H6.43799V3229.76H4.43799ZM4.43799 3243.73V3250.72H6.43799V3243.73H4.43799ZM4.43799 3257.71V3264.69H6.43799V3257.71H4.43799ZM4.43799 3271.68V3278.66H6.43799V3271.68H4.43799ZM4.43799 3285.65V3292.63H6.43799V3285.65H4.43799ZM4.43799 3299.62V3306.6H6.43799V3299.62H4.43799ZM4.43799 3313.59V3320.57H6.43799V3313.59H4.43799ZM4.43799 3327.56V3334.54H6.43799V3327.56H4.43799ZM4.43799 3341.53V3348.51H6.43799V3341.53H4.43799ZM4.43799 3355.5V3359H6.43799V3355.5H4.43799Z" fill="url(#paint0_linear_13_6316)"/>
<circle cx="5.5" cy="2036.5" r="5.5" fill="#298ADC"/>
<circle cx="5.5" cy="2520.5" r="5.5" fill="#1CABD4"/>
<circle cx="5.5" cy="3038.5" r="5.5" fill="#04E3C5"/>
<defs>
<linearGradient id="paint0_linear_13_6316" x1="5.93799" y1="5.99561" x2="5.93799" y2="3359" gradientUnits="userSpaceOnUse">
<stop stop-color="#A7A7A7"/>
<stop offset="1" stop-color="#84C8FA"/>
</linearGradient>
</defs>
</svg>
