<svg width="33" height="16" viewBox="0 0 33 16" fill="none" xmlns="http://www.w3.org/2000/svg">
<path d="M1.9834 7C1.43111 7 0.983398 7.44772 0.983398 8C0.983398 8.55228 1.43111 9 1.9834 9V7ZM32.7072 8.70711C33.0977 8.31658 33.0977 7.68342 32.7072 7.29289L26.3432 0.928932C25.9527 0.538408 25.3195 0.538408 24.929 0.928932C24.5385 1.31946 24.5385 1.95262 24.929 2.34315L30.5858 8L24.929 13.6569C24.5385 14.0474 24.5385 14.6805 24.929 15.0711C25.3195 15.4616 25.9527 15.4616 26.3432 15.0711L32.7072 8.70711ZM1.9834 9H32.0001V7H1.9834V9Z" fill="white"/>
</svg>
