<svg width="505" height="292" viewBox="0 0 505 292" fill="none" xmlns="http://www.w3.org/2000/svg">
<path d="M81.9377 0.586966C65.5039 2.50922 48.7658 10.2772 32.0408 23.733L31.7762 23.9436L31.4321 23.891C29.2621 23.5355 27.489 23.5355 25.2397 23.5355C10.645 24.602 -0.694585 37.5048 0.0331619 52.3035C1.10493 66.8916 14.0985 78.1881 28.9314 77.4508C41.131 76.7661 51.6105 67.3787 53.8467 55.1605L53.8997 54.9104L54.0848 54.7392C64.7497 45.0622 75.6659 40.3092 87.3231 40.3092C88.6727 40.3092 90.0488 40.375 91.4249 40.5066C107.052 42.3104 123.591 52.3035 142.037 71.0389C160.163 89.4582 178.662 114.29 195.956 138.37L221.308 174.09C231.999 189.139 243.048 204.702 254.241 219.277C264.139 231.666 277.385 247.321 291.966 258.3C307.46 269.966 322.597 274.508 338.184 272.19L343.186 271.309L340.327 267.898C310.874 237.104 287.083 202.108 269.71 176.552L240.045 133.67C218.913 103.283 198.947 74.5806 178.053 51.7374C146.919 16.9392 119.251 0.586966 90.975 0.257812C86.635 0.257812 83.6049 0.376308 81.9377 0.586966Z" fill="#2F557E" fill-opacity="0.7"/>
<path d="M54.9692 151.774L54.9428 152.038C53.8445 165.56 43.2062 176.145 29.6701 177.198C29.2203 177.225 28.7704 177.225 28.3204 177.225C14.0302 177.225 1.80406 166.178 0.758747 152.051C0.0310001 137.252 11.3706 124.349 25.9916 123.283H28.1617L72.2234 78.3602C78.6276 71.8033 87.5062 68.1169 96.6228 68.4328C105.488 68.6699 113.559 72.4354 119.355 79.0316L120.85 81.1118L54.9692 151.761V151.774Z" fill="#2F557E" fill-opacity="0.7"/>
<path d="M28.4244 220.869L27.8553 220.843C12.9299 220.843 0.783203 232.929 0.783203 247.794C0.783203 262.658 12.9299 274.745 27.8686 274.745C29.1124 274.745 30.3033 274.574 31.547 274.389L32.0763 274.31C44.5407 272.362 53.8557 262.277 54.7556 249.703V249.44L166.524 129.114L142.204 100.004L28.4244 220.869Z" fill="#2F557E" fill-opacity="0.7"/>
<path d="M436.455 291.425C457.111 289.12 477.487 277.837 498.922 256.863L499.147 256.652H502.429C516.997 255.559 528.006 242.67 526.921 227.911C525.85 213.31 512.843 201.987 498.009 202.75C484.327 203.829 473.849 214.403 473.107 227.898V228.161L472.923 228.359C457.772 245.54 442.595 253.111 426.598 251.518C410.984 249.714 394.432 239.721 376 220.986C357.858 202.553 339.361 177.722 322.081 153.641L296.649 117.816C285.984 102.806 274.962 87.2702 263.794 72.7348C253.884 60.3454 240.638 44.6909 226.057 33.7105C210.563 22.0452 195.439 17.503 179.839 19.8202L175.062 20.3863L178.409 23.7173C207.877 54.5129 231.681 89.5348 249.055 115.09L273.559 150.559C298.382 187.201 319.236 216.469 340.34 240.274C371.461 275.059 399.129 291.411 427.419 291.74C431.89 291.74 434.272 291.621 436.455 291.411V291.425Z" fill="#2F557E" fill-opacity="0.7"/>
<path d="M500.253 162.424H501.682C508.972 162.082 515.615 158.962 520.352 153.643C525.102 148.311 527.431 141.359 526.915 134.051C525.87 119.898 513.643 108.852 499.353 108.852C498.904 108.852 498.467 108.852 498.016 108.878C484.11 109.944 473.472 120.833 472.731 134.763V135.052L397.944 214.905L399.401 216.643C405.236 223.304 413.44 227.083 422.49 227.268C422.715 227.268 422.939 227.268 423.152 227.268C432.016 227.268 440.512 223.674 446.519 217.34L500.226 162.411L500.253 162.424Z" fill="#2F557E" fill-opacity="0.7"/>
<path d="M351.951 166.546L376.588 195.709L502.461 61.9668L502.726 61.9404C517.374 60.479 527.999 47.8527 526.927 33.1857C525.855 18.5976 512.875 7.23519 498.016 8.02515C483.13 9.10477 472.016 21.5862 472.743 36.4244V36.7404L351.938 166.546H351.951Z" fill="#2F557E" fill-opacity="0.7"/>
</svg>
