<svg width="48" height="48" viewBox="0 0 48 48" fill="none" xmlns="http://www.w3.org/2000/svg">
<mask id="mask0_1388_2310" style="mask-type:alpha" maskUnits="userSpaceOnUse" x="0" y="0" width="48" height="48">
<rect width="48" height="48" fill="#D9D9D9"/>
</mask>
<g mask="url(#mask0_1388_2310)">
<path d="M11.8596 45.5C10.3754 45.5 9.11113 44.9785 8.0667 43.9355C7.02227 42.8926 6.50005 41.6291 6.50005 40.1449C6.50005 38.6607 7.02095 37.3985 8.06275 36.3581C9.10458 35.3176 10.3697 34.7974 11.858 34.7974C12.2903 34.7974 12.6976 34.8451 13.0801 34.9404C13.4625 35.0357 13.8383 35.1731 14.2077 35.3526L18.8629 29.5717C18.1809 28.7931 17.6911 27.9213 17.3937 26.9564C17.0963 25.9914 17.03 24.9987 17.195 23.9782L10.459 21.732C9.98375 22.5397 9.34902 23.1781 8.55475 23.6474C7.76048 24.1166 6.85767 24.3512 5.8463 24.3512C4.36887 24.3512 3.10847 23.8309 2.0651 22.7902C1.0217 21.7495 0.5 20.4859 0.5 18.9992C0.5 17.5125 1.02147 16.2491 2.0644 15.209C3.1073 14.1688 4.37083 13.6487 5.855 13.6487C7.33917 13.6487 8.60145 14.169 9.64185 15.2095C10.6823 16.25 11.2025 17.5135 11.2025 19C11.2025 19.082 11.1993 19.1628 11.1929 19.2423C11.1865 19.3218 11.1833 19.3876 11.1833 19.4397L17.9334 21.7743C18.4573 20.8171 19.1331 20.0385 19.9609 19.4385C20.7887 18.8385 21.7376 18.4347 22.8077 18.227V11.0602C21.5205 10.7576 20.5055 10.1057 19.7628 9.1044C19.0201 8.10313 18.6487 7.0161 18.6487 5.8433C18.6487 4.36997 19.169 3.11108 20.2097 2.06665C21.2504 1.02222 22.514 0.5 24.0007 0.5C25.4874 0.5 26.7508 1.02168 27.791 2.06505C28.8311 3.10842 29.3512 4.37048 29.3512 5.85125C29.3512 7.01875 28.9747 8.10313 28.2217 9.1044C27.4687 10.1057 26.4589 10.7576 25.1923 11.0602V18.227C26.2623 18.4347 27.2136 18.8385 28.0461 19.4385C28.8785 20.0385 29.5631 20.8171 30.0999 21.7743L36.8167 19.4397C36.8038 19.3854 36.7974 19.3186 36.7974 19.2391V19C36.7974 17.5135 37.3169 16.25 38.3558 15.2095C39.3947 14.169 40.6562 13.6487 42.1404 13.6487C43.6245 13.6487 44.8888 14.169 45.9333 15.2097C46.9777 16.2504 47.4999 17.514 47.4999 19.0007C47.4999 20.4874 46.9782 21.7508 45.9349 22.791C44.8915 23.8311 43.6311 24.3512 42.1537 24.3512C41.1464 24.3512 40.2395 24.1145 39.4329 23.641C38.6263 23.1675 37.9957 22.5311 37.541 21.732L30.805 23.9782C30.9785 24.9987 30.9179 25.9918 30.623 26.9576C30.3281 27.9234 29.8328 28.7884 29.1371 29.5525L33.7923 35.3359C34.1504 35.1607 34.5235 35.0271 34.9116 34.9353C35.2996 34.8434 35.7049 34.7974 36.1275 34.7974C37.6366 34.7974 38.9093 35.3169 39.9456 36.3558C40.9818 37.3947 41.5 38.6562 41.5 40.1404C41.5 41.6245 40.9785 42.8888 39.9356 43.9333C38.8927 44.9777 37.6291 45.5 36.145 45.5C34.6608 45.5 33.3985 44.9793 32.3581 43.9381C31.3177 42.8968 30.7975 41.6325 30.7975 40.145C30.7975 39.5082 30.8906 38.9214 31.0769 38.3844C31.2631 37.8475 31.5516 37.3317 31.9424 36.8372L27.2871 31.0178C26.2886 31.5956 25.1877 31.8845 23.9845 31.8845C22.7813 31.8845 21.6805 31.5956 20.6821 31.0178L16.0577 36.8705C16.4363 37.3577 16.7218 37.866 16.9141 38.3956C17.1064 38.9251 17.2026 39.5082 17.2026 40.145C17.2026 41.6325 16.6831 42.8968 15.6442 43.9381C14.6053 44.9793 13.3437 45.5 11.8596 45.5ZM5.8547 21.8385C6.64643 21.8385 7.31688 21.5627 7.86605 21.0113C8.41522 20.4599 8.6898 19.7883 8.6898 18.9966C8.6898 18.2048 8.41408 17.5343 7.86265 16.9852C7.31122 16.436 6.63962 16.1615 5.84785 16.1615C5.05612 16.1615 4.38567 16.4372 3.8365 16.9886C3.28737 17.54 3.0128 18.2116 3.0128 19.0034C3.0128 19.7951 3.28852 20.4656 3.83995 21.0147C4.39138 21.5639 5.06297 21.8385 5.8547 21.8385ZM11.8547 42.9872C12.6464 42.9872 13.3169 42.7114 13.8661 42.16C14.4152 41.6086 14.6898 40.937 14.6898 40.1453C14.6898 39.3535 14.4141 38.6831 13.8627 38.1339C13.3112 37.5847 12.6396 37.3102 11.8479 37.3102C11.0561 37.3102 10.3857 37.5859 9.8365 38.1373C9.28737 38.6887 9.0128 39.3603 9.0128 40.1521C9.0128 40.9438 9.28852 41.6143 9.83995 42.1635C10.3914 42.7126 11.063 42.9872 11.8547 42.9872ZM24.0034 8.68975C24.7952 8.68975 25.4656 8.41403 26.0147 7.8626C26.5639 7.31117 26.8385 6.63957 26.8385 5.8478C26.8385 5.05607 26.5628 4.38562 26.0114 3.83645C25.4599 3.28732 24.7883 3.01275 23.9966 3.01275C23.2048 3.01275 22.5344 3.28847 21.9853 3.8399C21.4361 4.39133 21.1615 5.06292 21.1615 5.85465C21.1615 6.64638 21.4372 7.31683 21.9887 7.866C22.5401 8.41517 23.2117 8.68975 24.0034 8.68975ZM24.0103 29.3717C25.2248 29.3717 26.2553 28.945 27.1019 28.0916C27.9485 27.2382 28.3718 26.2042 28.3718 24.9897C28.3718 23.7752 27.9472 22.7446 27.0982 21.898C26.2491 21.0515 25.2164 20.6282 24 20.6282C22.7923 20.6282 21.7618 21.0527 20.9083 21.9018C20.055 22.7508 19.6283 23.7836 19.6283 25C19.6283 26.2077 20.055 27.2382 20.9083 28.0916C21.7618 28.945 22.7957 29.3717 24.0103 29.3717ZM36.1522 42.9872C36.9439 42.9872 37.6143 42.7114 38.1635 42.16C38.7126 41.6086 38.9872 40.937 38.9872 40.1453C38.9872 39.3535 38.7115 38.6831 38.1601 38.1339C37.6086 37.5847 36.937 37.3102 36.1453 37.3102C35.3536 37.3102 34.6831 37.5859 34.134 38.1373C33.5848 38.6887 33.3102 39.3603 33.3102 40.1521C33.3102 40.9438 33.5859 41.6143 34.1374 42.1635C34.6888 42.7126 35.3604 42.9872 36.1522 42.9872ZM42.1522 21.8385C42.9439 21.8385 43.6143 21.5627 44.1635 21.0113C44.7126 20.4599 44.9872 19.7883 44.9872 18.9966C44.9872 18.2048 44.7115 17.5343 44.1601 16.9852C43.6086 16.436 42.937 16.1615 42.1453 16.1615C41.3536 16.1615 40.6831 16.4372 40.134 16.9886C39.5848 17.54 39.3102 18.2116 39.3102 19.0034C39.3102 19.7951 39.5859 20.4656 40.1374 21.0147C40.6888 21.5639 41.3604 21.8385 42.1522 21.8385Z" fill="white"/>
</g>
</svg>
