<svg width="48" height="48" viewBox="0 0 48 48" fill="none" xmlns="http://www.w3.org/2000/svg">
<mask id="mask0_8_1428" style="mask-type:alpha" maskUnits="userSpaceOnUse" x="0" y="0" width="48" height="48">
<rect width="48" height="48" fill="#D9D9D9"/>
</mask>
<g mask="url(#mask0_8_1428)">
<path d="M11.8596 45.5003C10.3754 45.5003 9.11113 44.9788 8.0667 43.9359C7.02227 42.893 6.50005 41.6294 6.50005 40.1453C6.50005 38.6611 7.02095 37.3988 8.06275 36.3584C9.10458 35.318 10.3697 34.7978 11.858 34.7978C12.2903 34.7978 12.6976 34.8454 13.0801 34.9407C13.4625 35.036 13.8383 35.1734 14.2077 35.3529L18.8629 29.5721C18.1809 28.7934 17.6911 27.9217 17.3937 26.9567C17.0963 25.9918 17.03 24.999 17.195 23.9785L10.459 21.7323C9.98375 22.54 9.34902 23.1785 8.55475 23.6477C7.76048 24.117 6.85767 24.3516 5.8463 24.3516C4.36887 24.3516 3.10847 23.8312 2.0651 22.7906C1.0217 21.7499 0.5 20.4862 0.5 18.9996C0.5 17.5129 1.02147 16.2495 2.0644 15.2093C3.1073 14.1691 4.37083 13.6491 5.855 13.6491C7.33917 13.6491 8.60145 14.1693 9.64185 15.2099C10.6823 16.2504 11.2025 17.5138 11.2025 19.0003C11.2025 19.0824 11.1993 19.1632 11.1929 19.2426C11.1865 19.3221 11.1833 19.3879 11.1833 19.4401L17.9334 21.7747C18.4573 20.8175 19.1331 20.0389 19.9609 19.4389C20.7887 18.8389 21.7376 18.435 22.8077 18.2273V11.0605C21.5205 10.758 20.5055 10.1061 19.7628 9.10477C19.0201 8.1035 18.6487 7.01647 18.6487 5.84367C18.6487 4.37033 19.169 3.11145 20.2097 2.06702C21.2504 1.02258 22.514 0.500366 24.0007 0.500366C25.4874 0.500366 26.7508 1.02205 27.791 2.06542C28.8311 3.10878 29.3512 4.37085 29.3512 5.85162C29.3512 7.01912 28.9747 8.1035 28.2217 9.10477C27.4687 10.1061 26.4589 10.758 25.1923 11.0605V18.2273C26.2623 18.435 27.2136 18.8389 28.0461 19.4389C28.8785 20.0389 29.5631 20.8175 30.0999 21.7747L36.8167 19.4401C36.8038 19.3858 36.7974 19.3189 36.7974 19.2394V19.0003C36.7974 17.5138 37.3169 16.2504 38.3558 15.2099C39.3947 14.1693 40.6562 13.6491 42.1404 13.6491C43.6245 13.6491 44.8888 14.1694 45.9333 15.2101C46.9777 16.2507 47.4999 17.5144 47.4999 19.0011C47.4999 20.4877 46.9782 21.7512 45.9349 22.7913C44.8915 23.8315 43.6311 24.3516 42.1537 24.3516C41.1464 24.3516 40.2395 24.1148 39.4329 23.6413C38.6263 23.1678 37.9957 22.5315 37.541 21.7323L30.805 23.9785C30.9785 24.999 30.9179 25.9922 30.623 26.958C30.3281 27.9238 29.8328 28.7887 29.1371 29.5528L33.7923 35.3363C34.1504 35.161 34.5235 35.0275 34.9116 34.9356C35.2996 34.8437 35.7049 34.7978 36.1275 34.7978C37.6366 34.7978 38.9093 35.3172 39.9456 36.3562C40.9818 37.3951 41.5 38.6566 41.5 40.1407C41.5 41.6249 40.9785 42.8892 39.9356 43.9336C38.8927 44.9781 37.6291 45.5003 36.145 45.5003C34.6608 45.5003 33.3985 44.9797 32.3581 43.9384C31.3177 42.8972 30.7975 41.6328 30.7975 40.1454C30.7975 39.5086 30.8906 38.9217 31.0769 38.3848C31.2631 37.8478 31.5516 37.3321 31.9424 36.8375L27.2871 31.0182C26.2886 31.5959 25.1877 31.8848 23.9845 31.8848C22.7813 31.8848 21.6805 31.5959 20.6821 31.0182L16.0577 36.8709C16.4363 37.358 16.7218 37.8664 16.9141 38.3959C17.1064 38.9255 17.2026 39.5086 17.2026 40.1454C17.2026 41.6328 16.6831 42.8972 15.6442 43.9384C14.6053 44.9797 13.3437 45.5003 11.8596 45.5003ZM5.8547 21.8388C6.64643 21.8388 7.31688 21.5631 7.86605 21.0117C8.41522 20.4602 8.6898 19.7887 8.6898 18.9969C8.6898 18.2052 8.41408 17.5347 7.86265 16.9856C7.31122 16.4364 6.63962 16.1618 5.84785 16.1618C5.05612 16.1618 4.38567 16.4375 3.8365 16.989C3.28737 17.5404 3.0128 18.212 3.0128 19.0037C3.0128 19.7955 3.28852 20.4659 3.83995 21.0151C4.39138 21.5642 5.06297 21.8388 5.8547 21.8388ZM11.8547 42.9875C12.6464 42.9875 13.3169 42.7118 13.8661 42.1604C14.4152 41.6089 14.6898 40.9374 14.6898 40.1456C14.6898 39.3539 14.4141 38.6834 13.8627 38.1343C13.3112 37.5851 12.6396 37.3105 11.8479 37.3105C11.0561 37.3105 10.3857 37.5862 9.8365 38.1377C9.28737 38.6891 9.0128 39.3607 9.0128 40.1525C9.0128 40.9442 9.28852 41.6147 9.83995 42.1638C10.3914 42.713 11.063 42.9875 11.8547 42.9875ZM24.0034 8.69012C24.7952 8.69012 25.4656 8.4144 26.0147 7.86297C26.5639 7.31153 26.8385 6.63993 26.8385 5.84817C26.8385 5.05643 26.5628 4.38598 26.0114 3.83682C25.4599 3.28768 24.7883 3.01312 23.9966 3.01312C23.2048 3.01312 22.5344 3.28883 21.9853 3.84027C21.4361 4.3917 21.1615 5.06328 21.1615 5.85502C21.1615 6.64675 21.4372 7.3172 21.9887 7.86637C22.5401 8.41553 23.2117 8.69012 24.0034 8.69012ZM24.0103 29.3721C25.2248 29.3721 26.2553 28.9454 27.1019 28.092C27.9485 27.2386 28.3718 26.2046 28.3718 24.9901C28.3718 23.7755 27.9472 22.745 27.0982 21.8984C26.2491 21.0518 25.2164 20.6286 24 20.6286C22.7923 20.6286 21.7618 21.0531 20.9083 21.9021C20.055 22.7512 19.6283 23.7839 19.6283 25.0003C19.6283 26.208 20.055 27.2386 20.9083 28.092C21.7618 28.9454 22.7957 29.3721 24.0103 29.3721ZM36.1522 42.9875C36.9439 42.9875 37.6143 42.7118 38.1635 42.1604C38.7126 41.6089 38.9872 40.9374 38.9872 40.1456C38.9872 39.3539 38.7115 38.6834 38.1601 38.1343C37.6086 37.5851 36.937 37.3105 36.1453 37.3105C35.3536 37.3105 34.6831 37.5862 34.134 38.1377C33.5848 38.6891 33.3102 39.3607 33.3102 40.1525C33.3102 40.9442 33.5859 41.6147 34.1374 42.1638C34.6888 42.713 35.3604 42.9875 36.1522 42.9875ZM42.1522 21.8388C42.9439 21.8388 43.6143 21.5631 44.1635 21.0117C44.7126 20.4602 44.9872 19.7887 44.9872 18.9969C44.9872 18.2052 44.7115 17.5347 44.1601 16.9856C43.6086 16.4364 42.937 16.1618 42.1453 16.1618C41.3536 16.1618 40.6831 16.4375 40.134 16.989C39.5848 17.5404 39.3102 18.212 39.3102 19.0037C39.3102 19.7955 39.5859 20.4659 40.1374 21.0151C40.6888 21.5642 41.3604 21.8388 42.1522 21.8388Z" fill="#01EAC3"/>
</g>
</svg>
