<svg width="54" height="54" viewBox="0 0 54 54" fill="none" xmlns="http://www.w3.org/2000/svg">
<mask id="mask0_1388_2313" style="mask-type:alpha" maskUnits="userSpaceOnUse" x="0" y="0" width="54" height="54">
<rect width="54" height="54" fill="#D9D9D9"/>
</mask>
<g mask="url(#mask0_1388_2313)">
<path d="M6.73851 42.6382C5.76569 42.6382 4.94324 42.2982 4.27116 41.6181C3.59901 40.938 3.26294 40.1116 3.26294 39.1388C3.26294 38.166 3.59975 37.3436 4.27336 36.6715C4.94701 35.9994 5.76571 35.6633 6.72946 35.6633C6.95975 35.6633 7.1773 35.6835 7.38213 35.7239C7.58695 35.7643 7.79031 35.8249 7.99221 35.9056L19.7053 24.1926C19.6245 23.9907 19.5639 23.7873 19.5235 23.5825C19.4831 23.3777 19.4629 23.1601 19.4629 22.9298C19.4629 21.9661 19.803 21.1474 20.483 20.4737C21.1631 19.8001 21.9895 19.4633 22.9623 19.4633C23.9351 19.4633 24.7576 19.8022 25.4297 20.4799C26.1018 21.1576 26.4378 21.9812 26.4378 22.9508C26.4378 23.196 26.3715 23.5955 26.2388 24.1493L33.9018 31.8123C34.1037 31.7604 34.2999 31.7143 34.4903 31.6739C34.6807 31.6335 34.8841 31.6133 35.1004 31.6133C35.3168 31.6133 35.5238 31.6335 35.7214 31.6739C35.919 31.7143 36.1115 31.7749 36.299 31.8556L44.0053 24.1493C43.9245 23.9618 43.864 23.7693 43.8236 23.5717C43.7832 23.3741 43.763 23.1601 43.763 22.9298C43.763 21.9661 44.103 21.1474 44.7831 20.4737C45.4632 19.8001 46.2896 19.4633 47.2624 19.4633C48.2352 19.4633 49.0576 19.8033 49.7297 20.4834C50.4018 21.1635 50.7379 21.9899 50.7379 22.9627C50.7379 23.9355 50.4011 24.758 49.7275 25.43C49.0538 26.1021 48.2351 26.4382 47.2714 26.4382C47.0411 26.4382 46.8271 26.418 46.6295 26.3776C46.4319 26.3372 46.2394 26.2767 46.0519 26.1959L38.3456 33.9022C38.4263 34.0897 38.4869 34.2822 38.5273 34.4798C38.5677 34.6774 38.5879 34.8914 38.5879 35.1217C38.5879 36.0854 38.2479 36.9041 37.5678 37.5778C36.8877 38.2514 36.0613 38.5882 35.0885 38.5882C34.1157 38.5882 33.2932 38.2514 32.6212 37.5778C31.9491 36.9041 31.613 36.0854 31.613 35.1217C31.613 34.8914 31.6332 34.6738 31.6736 34.469C31.714 34.2642 31.7745 34.0608 31.8553 33.8589L24.1923 26.1959C23.9904 26.2767 23.787 26.3372 23.5822 26.3776C23.3774 26.418 23.1668 26.4382 22.9504 26.4382C22.7052 26.4382 22.3057 26.3719 21.7519 26.2392L10.0389 37.9522C10.0908 38.1541 10.1369 38.3503 10.1773 38.5407C10.2177 38.7311 10.2379 38.9414 10.2379 39.1717C10.2379 40.1354 9.89785 40.9541 9.21779 41.6278C8.53773 42.3014 7.7113 42.6382 6.73851 42.6382ZM9.45044 20.7137L8.45009 18.5511L6.2875 17.5508L8.45009 16.5504L9.45044 14.3878L10.4508 16.5504L12.6134 17.5508L10.4508 18.5511L9.45044 20.7137ZM33.7504 20.2377L32.1019 16.4993L28.3635 14.8508L32.1019 13.2022L33.7504 9.46387L35.399 13.2022L39.1373 14.8508L35.399 16.4993L33.7504 20.2377Z" fill="#ffffff"/>
</g>
</svg>
