<svg width="54" height="54" viewBox="0 0 54 54" fill="none" xmlns="http://www.w3.org/2000/svg">
<mask id="mask0_8_13" style="mask-type:alpha" maskUnits="userSpaceOnUse" x="0" y="0" width="54" height="54">
<rect width="54" height="54" fill="#D9D9D9"/>
</mask>
<g mask="url(#mask0_8_13)">
<path d="M6.73827 42.638C5.76545 42.638 4.943 42.2979 4.27092 41.6179C3.59877 40.9378 3.2627 40.1114 3.2627 39.1386C3.2627 38.1658 3.5995 37.3433 4.27311 36.6712C4.94676 35.9991 5.76546 35.6631 6.72921 35.6631C6.9595 35.6631 7.17706 35.6833 7.38188 35.7237C7.58671 35.764 7.79007 35.8246 7.99197 35.9054L19.705 24.1923C19.6242 23.9904 19.5637 23.7871 19.5233 23.5823C19.4829 23.3774 19.4627 23.1599 19.4627 22.9296C19.4627 21.9658 19.8027 21.1471 20.4828 20.4735C21.1629 19.7999 21.9893 19.4631 22.9621 19.4631C23.9349 19.4631 24.7573 19.8019 25.4294 20.4797C26.1015 21.1574 26.4376 21.981 26.4376 22.9505C26.4376 23.1957 26.3712 23.5953 26.2386 24.1491L33.9016 31.8121C34.1035 31.7602 34.2997 31.714 34.4901 31.6737C34.6804 31.6333 34.8838 31.6131 35.1002 31.6131C35.3165 31.6131 35.5235 31.6333 35.7211 31.6737C35.9187 31.714 36.1113 31.7746 36.2988 31.8554L44.0051 24.1491C43.9243 23.9616 43.8637 23.769 43.8233 23.5715C43.7829 23.3738 43.7628 23.1599 43.7628 22.9296C43.7628 21.9658 44.1028 21.1471 44.7828 20.4735C45.4629 19.7999 46.2893 19.4631 47.2621 19.4631C48.2349 19.4631 49.0574 19.8031 49.7295 20.4832C50.4016 21.1632 50.7376 21.9897 50.7376 22.9624C50.7376 23.9353 50.4008 24.7577 49.7272 25.4298C49.0536 26.1019 48.2349 26.438 47.2711 26.438C47.0408 26.438 46.8269 26.4178 46.6293 26.3774C46.4317 26.337 46.2391 26.2764 46.0516 26.1956L38.3453 33.9019C38.4261 34.0894 38.4867 34.282 38.5271 34.4796C38.5674 34.6772 38.5876 34.8912 38.5876 35.1214C38.5876 36.0852 38.2476 36.9039 37.5675 37.5775C36.8875 38.2512 36.0611 38.588 35.0883 38.588C34.1154 38.588 33.293 38.2512 32.6209 37.5775C31.9488 36.9039 31.6128 36.0852 31.6128 35.1214C31.6128 34.8912 31.6329 34.6736 31.6733 34.4688C31.7137 34.2639 31.7743 34.0606 31.8551 33.8587L24.192 26.1956C23.9901 26.2764 23.7868 26.337 23.5819 26.3774C23.3771 26.4178 23.1665 26.438 22.9502 26.438C22.705 26.438 22.3055 26.3716 21.7516 26.2389L10.0386 37.9519C10.0905 38.1539 10.1367 38.35 10.1771 38.5404C10.2174 38.7308 10.2376 38.9412 10.2376 39.1714C10.2376 40.1352 9.89761 40.9539 9.21755 41.6275C8.53748 42.3012 7.71106 42.638 6.73827 42.638ZM9.4502 20.7135L8.44985 18.5509L6.28726 17.5505L8.44985 16.5502L9.4502 14.3876L10.4505 16.5502L12.6131 17.5505L10.4505 18.5509L9.4502 20.7135ZM33.7502 20.2374L32.1017 16.499L28.3633 14.8505L32.1017 13.202L33.7502 9.46362L35.3987 13.202L39.1371 14.8505L35.3987 16.499L33.7502 20.2374Z" fill="#01EAC3"/>
</g>
</svg>
