<svg width="49" height="49" viewBox="0 0 49 49" fill="none" xmlns="http://www.w3.org/2000/svg">
<g filter="url(#filter0_d_1699_4119)">
<circle cx="24.5" cy="22.5" r="20.5" fill="white"/>
</g>
<path d="M15.4697 22.4697C15.1768 22.7626 15.1768 23.2374 15.4697 23.5303L20.2426 28.3033C20.5355 28.5962 21.0104 28.5962 21.3033 28.3033C21.5962 28.0104 21.5962 27.5355 21.3033 27.2426L17.0607 23L21.3033 18.7574C21.5962 18.4645 21.5962 17.9896 21.3033 17.6967C21.0104 17.4038 20.5355 17.4038 20.2426 17.6967L15.4697 22.4697ZM32 23.75C32.4142 23.75 32.75 23.4142 32.75 23C32.75 22.5858 32.4142 22.25 32 22.25L32 23.75ZM16 23.75L32 23.75L32 22.25L16 22.25L16 23.75Z" fill="#00EAC3"/>
<defs>
<filter id="filter0_d_1699_4119" x="0" y="0" width="49" height="49" filterUnits="userSpaceOnUse" color-interpolation-filters="sRGB">
<feFlood flood-opacity="0" result="BackgroundImageFix"/>
<feColorMatrix in="SourceAlpha" type="matrix" values="0 0 0 0 0 0 0 0 0 0 0 0 0 0 0 0 0 0 127 0" result="hardAlpha"/>
<feOffset dy="2"/>
<feGaussianBlur stdDeviation="2"/>
<feComposite in2="hardAlpha" operator="out"/>
<feColorMatrix type="matrix" values="0 0 0 0 0 0 0 0 0 0 0 0 0 0 0 0 0 0 0.25 0"/>
<feBlend mode="normal" in2="BackgroundImageFix" result="effect1_dropShadow_1699_4119"/>
<feBlend mode="normal" in="SourceGraphic" in2="effect1_dropShadow_1699_4119" result="shape"/>
</filter>
</defs>
</svg>
