<svg width="842" height="752" viewBox="0 0 842 752" fill="none" xmlns="http://www.w3.org/2000/svg">
<rect x="233" y="148" width="376" height="376" rx="188" fill="url(#paint0_linear_1699_4111)"/>
<rect x="254.289" y="168.348" width="334.504" height="334.5" rx="167.25" fill="url(#paint1_linear_1699_4111)"/>
<path d="M345.021 361.565C344.953 360.878 344.66 360.344 344.143 359.963C343.626 359.582 342.924 359.392 342.038 359.392C341.436 359.392 340.927 359.477 340.512 359.648C340.098 359.812 339.779 360.043 339.558 360.338C339.342 360.634 339.234 360.969 339.234 361.344C339.223 361.656 339.288 361.929 339.43 362.162C339.578 362.395 339.779 362.597 340.035 362.767C340.291 362.932 340.586 363.077 340.922 363.202C341.257 363.321 341.615 363.423 341.995 363.509L343.564 363.884C344.325 364.054 345.024 364.281 345.66 364.565C346.297 364.849 346.848 365.199 347.314 365.614C347.779 366.028 348.14 366.517 348.396 367.08C348.657 367.642 348.791 368.287 348.797 369.014C348.791 370.082 348.518 371.009 347.978 371.793C347.444 372.571 346.672 373.176 345.66 373.608C344.654 374.034 343.441 374.247 342.021 374.247C340.612 374.247 339.385 374.031 338.339 373.599C337.299 373.168 336.487 372.528 335.902 371.682C335.322 370.83 335.018 369.776 334.99 368.52H338.561C338.6 369.105 338.768 369.594 339.064 369.986C339.365 370.372 339.765 370.665 340.265 370.864C340.771 371.057 341.342 371.153 341.978 371.153C342.603 371.153 343.146 371.062 343.606 370.881C344.072 370.699 344.433 370.446 344.689 370.122C344.944 369.798 345.072 369.426 345.072 369.006C345.072 368.614 344.956 368.284 344.723 368.017C344.495 367.75 344.16 367.523 343.717 367.335C343.279 367.148 342.743 366.977 342.106 366.824L340.206 366.347C338.734 365.989 337.572 365.429 336.72 364.668C335.868 363.906 335.444 362.881 335.45 361.591C335.444 360.534 335.725 359.611 336.294 358.821C336.868 358.031 337.654 357.415 338.654 356.972C339.654 356.528 340.791 356.307 342.064 356.307C343.359 356.307 344.49 356.528 345.456 356.972C346.427 357.415 347.183 358.031 347.723 358.821C348.262 359.611 348.541 360.526 348.558 361.565H345.021ZM362.06 356.545H365.75V367.881C365.75 369.153 365.446 370.267 364.838 371.222C364.236 372.176 363.392 372.92 362.307 373.455C361.222 373.983 359.958 374.247 358.515 374.247C357.066 374.247 355.799 373.983 354.713 373.455C353.628 372.92 352.784 372.176 352.182 371.222C351.58 370.267 351.279 369.153 351.279 367.881V356.545H354.969V367.565C354.969 368.23 355.114 368.821 355.404 369.338C355.699 369.855 356.114 370.261 356.648 370.557C357.182 370.852 357.804 371 358.515 371C359.23 371 359.853 370.852 360.381 370.557C360.915 370.261 361.327 369.855 361.617 369.338C361.912 368.821 362.06 368.23 362.06 367.565V356.545ZM368.787 374V356.545H375.673C376.997 356.545 378.125 356.798 379.056 357.304C379.988 357.804 380.699 358.5 381.187 359.392C381.681 360.278 381.929 361.301 381.929 362.46C381.929 363.619 381.679 364.642 381.179 365.528C380.679 366.415 379.954 367.105 379.005 367.599C378.062 368.094 376.92 368.341 375.579 368.341H371.19V365.384H374.983C375.693 365.384 376.278 365.261 376.738 365.017C377.204 364.767 377.551 364.423 377.778 363.986C378.011 363.543 378.127 363.034 378.127 362.46C378.127 361.881 378.011 361.375 377.778 360.943C377.551 360.506 377.204 360.168 376.738 359.929C376.272 359.685 375.681 359.562 374.966 359.562H372.477V374H368.787ZM384.326 374V356.545H391.212C392.536 356.545 393.664 356.798 394.596 357.304C395.527 357.804 396.238 358.5 396.726 359.392C397.221 360.278 397.468 361.301 397.468 362.46C397.468 363.619 397.218 364.642 396.718 365.528C396.218 366.415 395.493 367.105 394.544 367.599C393.601 368.094 392.459 368.341 391.118 368.341H386.729V365.384H390.522C391.232 365.384 391.817 365.261 392.277 365.017C392.743 364.767 393.09 364.423 393.317 363.986C393.55 363.543 393.667 363.034 393.667 362.46C393.667 361.881 393.55 361.375 393.317 360.943C393.09 360.506 392.743 360.168 392.277 359.929C391.811 359.685 391.221 359.562 390.505 359.562H388.016V374H384.326ZM399.865 374V356.545H403.555V370.957H411.038V374H399.865ZM410.233 356.545H414.366L418.346 364.062H418.517L422.497 356.545H426.63L420.264 367.83V374H416.599V367.83L410.233 356.545ZM449.601 362.656H445.868C445.8 362.173 445.661 361.744 445.451 361.369C445.24 360.989 444.971 360.665 444.641 360.398C444.311 360.131 443.931 359.926 443.499 359.784C443.073 359.642 442.61 359.571 442.11 359.571C441.206 359.571 440.419 359.795 439.749 360.244C439.078 360.687 438.559 361.335 438.189 362.188C437.82 363.034 437.635 364.062 437.635 365.273C437.635 366.517 437.82 367.562 438.189 368.409C438.564 369.256 439.087 369.895 439.757 370.327C440.428 370.759 441.203 370.974 442.084 370.974C442.578 370.974 443.036 370.909 443.456 370.778C443.882 370.648 444.26 370.457 444.59 370.207C444.919 369.952 445.192 369.642 445.408 369.278C445.63 368.915 445.783 368.5 445.868 368.034L449.601 368.051C449.505 368.852 449.263 369.625 448.877 370.369C448.496 371.108 447.982 371.77 447.334 372.355C446.692 372.935 445.925 373.395 445.033 373.736C444.147 374.071 443.144 374.239 442.025 374.239C440.468 374.239 439.076 373.886 437.848 373.182C436.627 372.477 435.661 371.457 434.951 370.122C434.246 368.787 433.894 367.17 433.894 365.273C433.894 363.369 434.252 361.75 434.968 360.415C435.684 359.08 436.655 358.062 437.882 357.364C439.11 356.659 440.49 356.307 442.025 356.307C443.036 356.307 443.973 356.449 444.837 356.733C445.706 357.017 446.476 357.432 447.147 357.977C447.817 358.517 448.363 359.179 448.783 359.963C449.209 360.747 449.482 361.645 449.601 362.656ZM452.248 374V356.545H455.938V363.747H463.429V356.545H467.111V374H463.429V366.79H455.938V374H452.248ZM473.162 374H469.208L475.233 356.545H479.989L486.006 374H482.051L477.679 360.534H477.543L473.162 374ZM472.915 367.139H482.256V370.02H472.915V367.139ZM491.797 356.545V374H488.107V356.545H491.797ZM509.433 356.545V374H506.245L498.652 363.014H498.524V374H494.833V356.545H498.072L505.606 367.523H505.76V356.545H509.433Z" fill="white"/>
<rect x="227" y="139" width="376" height="376" rx="188" fill="url(#paint2_linear_1699_4111)"/>
<rect x="248.289" y="159.348" width="334.504" height="334.5" rx="167.25" fill="url(#paint3_linear_1699_4111)"/>
<path d="M338.31 316.565C338.242 315.878 337.949 315.344 337.432 314.963C336.915 314.582 336.213 314.392 335.327 314.392C334.725 314.392 334.216 314.477 333.801 314.648C333.387 314.812 333.069 315.043 332.847 315.338C332.631 315.634 332.523 315.969 332.523 316.344C332.512 316.656 332.577 316.929 332.719 317.162C332.867 317.395 333.069 317.597 333.324 317.767C333.58 317.932 333.875 318.077 334.211 318.202C334.546 318.321 334.904 318.423 335.284 318.509L336.853 318.884C337.614 319.054 338.313 319.281 338.949 319.565C339.586 319.849 340.137 320.199 340.603 320.614C341.069 321.028 341.429 321.517 341.685 322.08C341.946 322.642 342.08 323.287 342.086 324.014C342.08 325.082 341.807 326.009 341.267 326.793C340.733 327.571 339.961 328.176 338.949 328.608C337.944 329.034 336.73 329.247 335.31 329.247C333.901 329.247 332.674 329.031 331.628 328.599C330.588 328.168 329.776 327.528 329.191 326.682C328.611 325.83 328.307 324.776 328.279 323.52H331.85C331.89 324.105 332.057 324.594 332.353 324.986C332.654 325.372 333.054 325.665 333.554 325.864C334.06 326.057 334.631 326.153 335.267 326.153C335.892 326.153 336.435 326.062 336.895 325.881C337.361 325.699 337.722 325.446 337.978 325.122C338.233 324.798 338.361 324.426 338.361 324.006C338.361 323.614 338.245 323.284 338.012 323.017C337.784 322.75 337.449 322.523 337.006 322.335C336.569 322.148 336.032 321.977 335.395 321.824L333.495 321.347C332.023 320.989 330.861 320.429 330.009 319.668C329.157 318.906 328.733 317.881 328.739 316.591C328.733 315.534 329.015 314.611 329.583 313.821C330.157 313.031 330.944 312.415 331.944 311.972C332.944 311.528 334.08 311.307 335.353 311.307C336.648 311.307 337.779 311.528 338.745 311.972C339.716 312.415 340.472 313.031 341.012 313.821C341.551 314.611 341.83 315.526 341.847 316.565H338.31ZM343.903 314.588V311.545H358.238V314.588H352.895V329H349.247V314.588H343.903ZM375.842 320.273C375.842 322.176 375.481 323.795 374.76 325.131C374.044 326.466 373.066 327.486 371.828 328.19C370.595 328.889 369.208 329.239 367.669 329.239C366.118 329.239 364.725 328.886 363.493 328.182C362.26 327.477 361.285 326.457 360.569 325.122C359.853 323.787 359.495 322.17 359.495 320.273C359.495 318.369 359.853 316.75 360.569 315.415C361.285 314.08 362.26 313.062 363.493 312.364C364.725 311.659 366.118 311.307 367.669 311.307C369.208 311.307 370.595 311.659 371.828 312.364C373.066 313.062 374.044 314.08 374.76 315.415C375.481 316.75 375.842 318.369 375.842 320.273ZM372.1 320.273C372.1 319.04 371.916 318 371.547 317.153C371.183 316.307 370.669 315.665 370.004 315.227C369.339 314.79 368.561 314.571 367.669 314.571C366.777 314.571 365.998 314.79 365.333 315.227C364.669 315.665 364.152 316.307 363.782 317.153C363.419 318 363.237 319.04 363.237 320.273C363.237 321.506 363.419 322.545 363.782 323.392C364.152 324.239 364.669 324.881 365.333 325.318C365.998 325.756 366.777 325.974 367.669 325.974C368.561 325.974 369.339 325.756 370.004 325.318C370.669 324.881 371.183 324.239 371.547 323.392C371.916 322.545 372.1 321.506 372.1 320.273ZM378.576 329V311.545H385.462C386.78 311.545 387.905 311.781 388.837 312.253C389.775 312.719 390.488 313.381 390.976 314.239C391.471 315.091 391.718 316.094 391.718 317.247C391.718 318.406 391.468 319.403 390.968 320.239C390.468 321.068 389.743 321.705 388.794 322.148C387.851 322.591 386.709 322.812 385.368 322.812H380.757V319.847H384.772C385.476 319.847 386.061 319.75 386.527 319.557C386.993 319.364 387.34 319.074 387.567 318.688C387.8 318.301 387.917 317.821 387.917 317.247C387.917 316.668 387.8 316.179 387.567 315.781C387.34 315.384 386.99 315.082 386.519 314.878C386.053 314.668 385.465 314.562 384.755 314.562H382.266V329H378.576ZM388.002 321.057L392.34 329H388.266L384.022 321.057H388.002ZM394.326 329V311.545H406.087V314.588H398.016V318.747H405.482V321.79H398.016V325.957H406.121V329H394.326ZM417.584 329H413.63L419.655 311.545H424.411L430.428 329H426.473L422.101 315.534H421.965L417.584 329ZM417.337 322.139H426.678V325.02H417.337V322.139ZM447.128 311.545V329H443.941L436.347 318.014H436.219V329H432.529V311.545H435.767L443.301 322.523H443.455V311.545H447.128ZM456.365 329H450.177V311.545H456.416C458.172 311.545 459.683 311.895 460.95 312.594C462.217 313.287 463.191 314.284 463.873 315.585C464.561 316.886 464.904 318.443 464.904 320.256C464.904 322.074 464.561 323.636 463.873 324.943C463.191 326.25 462.211 327.253 460.933 327.952C459.66 328.651 458.137 329 456.365 329ZM453.868 325.838H456.211C457.302 325.838 458.22 325.645 458.964 325.259C459.714 324.866 460.277 324.261 460.652 323.443C461.032 322.619 461.223 321.557 461.223 320.256C461.223 318.966 461.032 317.912 460.652 317.094C460.277 316.276 459.717 315.673 458.973 315.287C458.228 314.901 457.311 314.707 456.22 314.707H453.868V325.838ZM370.923 345.565C370.855 344.878 370.563 344.344 370.045 343.963C369.528 343.582 368.827 343.392 367.94 343.392C367.338 343.392 366.83 343.477 366.415 343.648C366 343.812 365.682 344.043 365.46 344.338C365.244 344.634 365.136 344.969 365.136 345.344C365.125 345.656 365.19 345.929 365.332 346.162C365.48 346.395 365.682 346.597 365.938 346.767C366.193 346.932 366.489 347.077 366.824 347.202C367.159 347.321 367.517 347.423 367.898 347.509L369.466 347.884C370.227 348.054 370.926 348.281 371.562 348.565C372.199 348.849 372.75 349.199 373.216 349.614C373.682 350.028 374.043 350.517 374.298 351.08C374.56 351.642 374.693 352.287 374.699 353.014C374.693 354.082 374.42 355.009 373.881 355.793C373.347 356.571 372.574 357.176 371.562 357.608C370.557 358.034 369.344 358.247 367.923 358.247C366.514 358.247 365.287 358.031 364.241 357.599C363.202 357.168 362.389 356.528 361.804 355.682C361.224 354.83 360.92 353.776 360.892 352.52H364.463C364.503 353.105 364.67 353.594 364.966 353.986C365.267 354.372 365.668 354.665 366.168 354.864C366.673 355.057 367.244 355.153 367.881 355.153C368.506 355.153 369.048 355.062 369.509 354.881C369.974 354.699 370.335 354.446 370.591 354.122C370.847 353.798 370.974 353.426 370.974 353.006C370.974 352.614 370.858 352.284 370.625 352.017C370.398 351.75 370.063 351.523 369.619 351.335C369.182 351.148 368.645 350.977 368.009 350.824L366.108 350.347C364.636 349.989 363.474 349.429 362.622 348.668C361.77 347.906 361.347 346.881 361.352 345.591C361.347 344.534 361.628 343.611 362.196 342.821C362.77 342.031 363.557 341.415 364.557 340.972C365.557 340.528 366.693 340.307 367.966 340.307C369.261 340.307 370.392 340.528 371.358 340.972C372.33 341.415 373.085 342.031 373.625 342.821C374.165 343.611 374.443 344.526 374.46 345.565H370.923ZM377.181 358V340.545H384.067C385.391 340.545 386.519 340.798 387.451 341.304C388.383 341.804 389.093 342.5 389.582 343.392C390.076 344.278 390.323 345.301 390.323 346.46C390.323 347.619 390.073 348.642 389.573 349.528C389.073 350.415 388.349 351.105 387.4 351.599C386.457 352.094 385.315 352.341 383.974 352.341H379.585V349.384H383.377C384.087 349.384 384.673 349.261 385.133 349.017C385.599 348.767 385.945 348.423 386.173 347.986C386.406 347.543 386.522 347.034 386.522 346.46C386.522 345.881 386.406 345.375 386.173 344.943C385.945 344.506 385.599 344.168 385.133 343.929C384.667 343.685 384.076 343.562 383.36 343.562H380.871V358H377.181ZM393.713 358H389.759L395.784 340.545H400.54L406.557 358H402.602L398.23 344.534H398.094L393.713 358ZM393.466 351.139H402.807V354.02H393.466V351.139ZM423.238 346.656H419.505C419.437 346.173 419.298 345.744 419.087 345.369C418.877 344.989 418.607 344.665 418.278 344.398C417.948 344.131 417.567 343.926 417.136 343.784C416.71 343.642 416.246 343.571 415.746 343.571C414.843 343.571 414.056 343.795 413.386 344.244C412.715 344.687 412.195 345.335 411.826 346.188C411.457 347.034 411.272 348.062 411.272 349.273C411.272 350.517 411.457 351.562 411.826 352.409C412.201 353.256 412.724 353.895 413.394 354.327C414.065 354.759 414.84 354.974 415.721 354.974C416.215 354.974 416.673 354.909 417.093 354.778C417.519 354.648 417.897 354.457 418.227 354.207C418.556 353.952 418.829 353.642 419.045 353.278C419.266 352.915 419.42 352.5 419.505 352.034L423.238 352.051C423.141 352.852 422.9 353.625 422.513 354.369C422.133 355.108 421.619 355.77 420.971 356.355C420.329 356.935 419.562 357.395 418.67 357.736C417.783 358.071 416.781 358.239 415.661 358.239C414.104 358.239 412.712 357.886 411.485 357.182C410.263 356.477 409.298 355.457 408.587 354.122C407.883 352.787 407.531 351.17 407.531 349.273C407.531 347.369 407.888 345.75 408.604 344.415C409.32 343.08 410.292 342.062 411.519 341.364C412.746 340.659 414.127 340.307 415.661 340.307C416.673 340.307 417.61 340.449 418.474 340.733C419.343 341.017 420.113 341.432 420.783 341.977C421.454 342.517 421.999 343.179 422.42 343.963C422.846 344.747 423.119 345.645 423.238 346.656ZM425.884 358V340.545H437.646V343.588H429.575V347.747H437.04V350.79H429.575V354.957H437.68V358H425.884Z" fill="white"/>
<rect x="229" y="146" width="376" height="376" rx="188" fill="url(#paint4_linear_1699_4111)"/>
<rect x="250.289" y="166.348" width="334.504" height="334.5" rx="167.25" fill="url(#paint5_linear_1699_4111)"/>
<path d="M343.763 318.545H348.314L353.121 330.273H353.326L358.132 318.545H362.684V336H359.104V324.639H358.959L354.442 335.915H352.005L347.488 324.597H347.343V336H343.763V318.545ZM365.724 336V318.545H377.485V321.588H369.414V325.747H376.88V328.79H369.414V332.957H377.52V336H365.724ZM380.419 336V318.545H387.306C388.624 318.545 389.749 318.781 390.681 319.253C391.618 319.719 392.331 320.381 392.82 321.239C393.314 322.091 393.561 323.094 393.561 324.247C393.561 325.406 393.311 326.403 392.811 327.239C392.311 328.068 391.587 328.705 390.638 329.148C389.695 329.591 388.553 329.812 387.212 329.812H382.601V326.847H386.615C387.32 326.847 387.905 326.75 388.371 326.557C388.837 326.364 389.184 326.074 389.411 325.688C389.644 325.301 389.76 324.821 389.76 324.247C389.76 323.668 389.644 323.179 389.411 322.781C389.184 322.384 388.834 322.082 388.363 321.878C387.897 321.668 387.309 321.562 386.598 321.562H384.11V336H380.419ZM389.846 328.057L394.184 336H390.11L385.865 328.057H389.846ZM411.57 324.656H407.837C407.769 324.173 407.63 323.744 407.419 323.369C407.209 322.989 406.939 322.665 406.61 322.398C406.28 322.131 405.9 321.926 405.468 321.784C405.042 321.642 404.578 321.571 404.078 321.571C403.175 321.571 402.388 321.795 401.718 322.244C401.047 322.687 400.527 323.335 400.158 324.188C399.789 325.034 399.604 326.062 399.604 327.273C399.604 328.517 399.789 329.562 400.158 330.409C400.533 331.256 401.056 331.895 401.726 332.327C402.397 332.759 403.172 332.974 404.053 332.974C404.547 332.974 405.005 332.909 405.425 332.778C405.851 332.648 406.229 332.457 406.559 332.207C406.888 331.952 407.161 331.642 407.377 331.278C407.598 330.915 407.752 330.5 407.837 330.034L411.57 330.051C411.473 330.852 411.232 331.625 410.846 332.369C410.465 333.108 409.951 333.77 409.303 334.355C408.661 334.935 407.894 335.395 407.002 335.736C406.115 336.071 405.113 336.239 403.993 336.239C402.436 336.239 401.044 335.886 399.817 335.182C398.596 334.477 397.63 333.457 396.919 332.122C396.215 330.787 395.863 329.17 395.863 327.273C395.863 325.369 396.221 323.75 396.936 322.415C397.652 321.08 398.624 320.062 399.851 319.364C401.078 318.659 402.459 318.307 403.993 318.307C405.005 318.307 405.942 318.449 406.806 318.733C407.675 319.017 408.445 319.432 409.115 319.977C409.786 320.517 410.331 321.179 410.752 321.963C411.178 322.747 411.451 323.645 411.57 324.656ZM414.216 336V318.545H417.907V325.747H425.398V318.545H429.08V336H425.398V328.79H417.907V336H414.216ZM435.131 336H431.176L437.202 318.545H441.958L447.975 336H444.02L439.648 322.534H439.512L435.131 336ZM434.884 329.139H444.225V332.02H434.884V329.139ZM464.675 318.545V336H461.488L453.894 325.014H453.766V336H450.076V318.545H453.314L460.848 329.523H461.002V318.545H464.675ZM473.912 336H467.724V318.545H473.963C475.718 318.545 477.23 318.895 478.497 319.594C479.764 320.287 480.738 321.284 481.42 322.585C482.108 323.886 482.451 325.443 482.451 327.256C482.451 329.074 482.108 330.636 481.42 331.943C480.738 333.25 479.758 334.253 478.48 334.952C477.207 335.651 475.684 336 473.912 336ZM471.414 332.838H473.758C474.849 332.838 475.767 332.645 476.511 332.259C477.261 331.866 477.824 331.261 478.199 330.443C478.579 329.619 478.77 328.557 478.77 327.256C478.77 325.966 478.579 324.912 478.199 324.094C477.824 323.276 477.264 322.673 476.52 322.287C475.775 321.901 474.858 321.707 473.767 321.707H471.414V332.838ZM488.875 318.545V336H485.185V318.545H488.875ZM501.38 323.565C501.312 322.878 501.02 322.344 500.502 321.963C499.985 321.582 499.284 321.392 498.397 321.392C497.795 321.392 497.287 321.477 496.872 321.648C496.457 321.812 496.139 322.043 495.917 322.338C495.701 322.634 495.593 322.969 495.593 323.344C495.582 323.656 495.647 323.929 495.789 324.162C495.937 324.395 496.139 324.597 496.395 324.767C496.65 324.932 496.946 325.077 497.281 325.202C497.616 325.321 497.974 325.423 498.355 325.509L499.923 325.884C500.684 326.054 501.383 326.281 502.02 326.565C502.656 326.849 503.207 327.199 503.673 327.614C504.139 328.028 504.5 328.517 504.755 329.08C505.017 329.642 505.15 330.287 505.156 331.014C505.15 332.082 504.877 333.009 504.338 333.793C503.804 334.571 503.031 335.176 502.02 335.608C501.014 336.034 499.801 336.247 498.38 336.247C496.971 336.247 495.744 336.031 494.699 335.599C493.659 335.168 492.846 334.528 492.261 333.682C491.681 332.83 491.377 331.776 491.349 330.52H494.92C494.96 331.105 495.127 331.594 495.423 331.986C495.724 332.372 496.125 332.665 496.625 332.864C497.13 333.057 497.701 333.153 498.338 333.153C498.963 333.153 499.505 333.062 499.966 332.881C500.431 332.699 500.792 332.446 501.048 332.122C501.304 331.798 501.431 331.426 501.431 331.006C501.431 330.614 501.315 330.284 501.082 330.017C500.855 329.75 500.52 329.523 500.076 329.335C499.639 329.148 499.102 328.977 498.466 328.824L496.565 328.347C495.093 327.989 493.931 327.429 493.079 326.668C492.227 325.906 491.804 324.881 491.809 323.591C491.804 322.534 492.085 321.611 492.653 320.821C493.227 320.031 494.014 319.415 495.014 318.972C496.014 318.528 497.15 318.307 498.423 318.307C499.718 318.307 500.849 318.528 501.815 318.972C502.787 319.415 503.542 320.031 504.082 320.821C504.622 321.611 504.9 322.526 504.917 323.565H501.38ZM511.328 318.545V336H507.638V318.545H511.328ZM528.964 318.545V336H525.777L518.183 325.014H518.055V336H514.365V318.545H517.603L525.137 329.523H525.291V318.545H528.964ZM543.587 324.188C543.468 323.773 543.3 323.406 543.084 323.088C542.868 322.764 542.604 322.491 542.292 322.27C541.985 322.043 541.632 321.869 541.235 321.75C540.843 321.631 540.408 321.571 539.931 321.571C539.039 321.571 538.255 321.793 537.578 322.236C536.908 322.679 536.385 323.324 536.01 324.17C535.635 325.011 535.448 326.04 535.448 327.256C535.448 328.472 535.632 329.506 536.002 330.358C536.371 331.21 536.894 331.861 537.57 332.31C538.246 332.753 539.044 332.974 539.965 332.974C540.8 332.974 541.513 332.827 542.104 332.531C542.701 332.23 543.155 331.807 543.468 331.261C543.786 330.716 543.945 330.071 543.945 329.327L544.695 329.438H540.195V326.659H547.499V328.858C547.499 330.392 547.175 331.71 546.527 332.812C545.88 333.909 544.988 334.756 543.851 335.352C542.715 335.943 541.414 336.239 539.948 336.239C538.311 336.239 536.874 335.878 535.635 335.156C534.397 334.429 533.431 333.398 532.738 332.062C532.05 330.722 531.706 329.131 531.706 327.29C531.706 325.875 531.911 324.614 532.32 323.506C532.735 322.392 533.314 321.449 534.059 320.676C534.803 319.903 535.669 319.315 536.658 318.912C537.647 318.509 538.718 318.307 539.871 318.307C540.86 318.307 541.78 318.452 542.632 318.741C543.485 319.026 544.24 319.429 544.9 319.952C545.564 320.474 546.107 321.097 546.527 321.818C546.948 322.534 547.218 323.324 547.337 324.188H543.587Z" fill="white"/>
<rect x="207" y="119" width="418" height="418" rx="209" fill="#94B3FA"/>
<rect x="256" y="165" width="324" height="324" rx="162" fill="#5F96F4"/>
<path d="M253.077 424.089L251.273 420.379L261.815 415.452L263.634 419.192C264.145 420.245 264.375 421.249 264.322 422.206C264.273 423.162 263.955 424.027 263.368 424.803C262.782 425.583 261.942 426.228 260.848 426.74C259.749 427.253 258.706 427.488 257.716 427.445C256.728 427.405 255.837 427.101 255.042 426.531C254.249 425.966 253.594 425.151 253.077 424.089ZM254.259 421.699L254.942 423.104C255.26 423.758 255.644 424.254 256.094 424.591C256.55 424.93 257.079 425.096 257.683 425.09C258.291 425.086 258.988 424.9 259.774 424.533C260.553 424.169 261.134 423.757 261.517 423.298C261.902 422.842 262.103 422.336 262.119 421.781C262.136 421.226 261.985 420.621 261.667 419.967L260.981 418.557L254.259 421.699Z" fill="white"/>
<path d="M257.546 432.801L256.219 430.522L268.445 428.402L270.04 431.142L261.853 440.201L260.527 437.922L266.933 431.089L266.888 431.01L257.546 432.801ZM261.474 430.46L264.607 435.842L262.923 436.765L259.79 431.383L261.474 430.46Z" fill="white"/>
<path d="M270.805 436.377L272.518 435.29L277.924 443.171L276.211 444.257L274.196 441.32L266.083 446.467L264.707 444.461L272.82 439.314L270.805 436.377Z" fill="white"/>
<path d="M270.584 452.695L268.938 450.636L280.854 446.925L282.834 449.401L275.931 459.382L274.285 457.323L279.722 449.763L279.666 449.692L270.584 452.695ZM274.179 449.874L278.068 454.738L276.515 455.868L272.626 451.005L274.179 449.874Z" fill="white"/>
<path d="M290.714 458.316L281.816 465.814L280.13 464.022L289.028 456.523L290.714 458.316Z" fill="white"/>
<path d="M299.366 466.785L290.851 474.716L289.312 473.251L291.004 464.769L290.943 464.71L285.583 469.702L283.801 468.006L292.316 460.075L293.88 461.563L292.163 470.014L292.237 470.084L297.592 465.097L299.366 466.785Z" fill="white"/>
<path d="M299.352 469.485L300.74 468.006L308.131 474.065L306.743 475.544L303.988 473.285L297.414 480.293L295.534 478.751L302.107 471.744L299.352 469.485Z" fill="white"/>
<path d="M302.054 484.035L309.489 475.083L315.864 479.649L314.568 481.209L310.193 478.076L308.422 480.209L312.468 483.108L311.172 484.668L307.126 481.77L305.35 483.907L309.743 487.053L308.447 488.614L302.054 484.035Z" fill="white"/>
<path d="M310.923 490.328L317.836 480.968L319.919 482.277L314.211 490.005L318.434 492.66L317.229 494.292L310.923 490.328Z" fill="white"/>
<path d="M320.147 496.06L326.48 486.297L328.641 487.472L323.413 495.533L327.796 497.915L326.692 499.617L320.147 496.06Z" fill="white"/>
<path d="M337.304 491.942L331.398 501.968L329.187 500.89L335.093 490.864L337.304 491.942Z" fill="white"/>
<path d="M345.192 499.547C345.246 499.27 345.255 499.01 345.22 498.766C345.187 498.518 345.109 498.288 344.985 498.076C344.866 497.862 344.703 497.668 344.495 497.494C344.291 497.322 344.042 497.174 343.749 497.051C343.201 496.82 342.651 496.748 342.1 496.835C341.552 496.924 341.033 497.17 340.543 497.574C340.055 497.974 339.624 498.535 339.251 499.254C338.878 499.974 338.674 500.634 338.64 501.234C338.605 501.834 338.727 502.355 339.004 502.795C339.284 503.233 339.706 503.571 340.272 503.809C340.785 504.026 341.268 504.123 341.722 504.101C342.18 504.077 342.59 503.945 342.949 503.703C343.312 503.462 343.607 503.122 343.835 502.681L344.262 502.941L341.498 501.775L342.35 500.131L346.837 502.023L346.162 503.324C345.692 504.232 345.089 504.929 344.352 505.413C343.618 505.895 342.811 506.165 341.929 506.223C341.05 506.279 340.16 506.117 339.26 505.737C338.255 505.313 337.482 504.727 336.943 503.979C336.405 503.228 336.128 502.367 336.112 501.397C336.101 500.426 336.378 499.395 336.942 498.305C337.376 497.468 337.889 496.774 338.48 496.224C339.077 495.673 339.722 495.264 340.416 495C341.11 494.735 341.823 494.612 342.554 494.629C343.285 494.646 344.005 494.804 344.713 495.103C345.321 495.359 345.842 495.684 346.276 496.076C346.713 496.465 347.053 496.899 347.298 497.379C347.546 497.861 347.688 498.37 347.725 498.906C347.764 499.439 347.687 499.976 347.496 500.518L345.192 499.547Z" fill="white"/>
<path d="M347.063 508.769L351.69 498.092L359.106 500.638L358.3 502.499L353.21 500.752L352.108 503.296L356.816 504.912L356.009 506.773L351.301 505.157L350.196 507.707L355.307 509.461L354.501 511.322L347.063 508.769Z" fill="white"/>
<path d="M370.734 503.935L366.824 514.895L364.774 514.336L362.351 506.105L362.268 506.082L359.808 512.98L357.434 512.333L361.344 501.373L363.427 501.941L365.814 510.156L365.912 510.183L368.371 503.29L370.734 503.935Z" fill="white"/>
<path d="M382.514 510.524L380.073 510.04C380.113 509.721 380.098 509.427 380.027 509.158C379.957 508.886 379.837 508.643 379.669 508.429C379.501 508.215 379.288 508.034 379.03 507.886C378.777 507.74 378.487 507.634 378.16 507.569C377.569 507.452 377.015 507.495 376.497 507.696C375.98 507.894 375.526 508.244 375.134 508.744C374.743 509.24 374.441 509.877 374.227 510.655C374.007 511.455 373.943 512.151 374.035 512.743C374.131 513.336 374.36 513.815 374.722 514.179C375.085 514.544 375.554 514.783 376.13 514.897C376.453 514.961 376.764 514.978 377.062 514.949C377.363 514.92 377.644 514.847 377.904 514.729C378.164 514.607 378.397 514.443 378.603 514.237C378.812 514.032 378.985 513.786 379.123 513.497L381.562 513.992C381.357 514.494 381.063 514.96 380.678 515.388C380.299 515.814 379.846 516.173 379.319 516.465C378.797 516.754 378.214 516.951 377.571 517.054C376.932 517.155 376.246 517.133 375.514 516.988C374.496 516.786 373.648 516.379 372.97 515.767C372.295 515.156 371.844 514.375 371.615 513.425C371.39 512.475 371.445 511.39 371.78 510.17C372.116 508.947 372.636 507.952 373.34 507.187C374.044 506.421 374.859 505.893 375.785 505.603C376.712 505.309 377.677 505.261 378.68 505.46C379.341 505.591 379.93 505.804 380.444 506.098C380.962 506.394 381.393 506.76 381.735 507.198C382.078 507.631 382.318 508.128 382.454 508.686C382.595 509.245 382.614 509.858 382.514 510.524Z" fill="white"/>
<path d="M384.001 518.396L386.267 506.982L394.044 507.988L393.648 509.978L388.312 509.287L387.772 512.007L392.708 512.646L392.313 514.635L387.377 513.997L386.836 516.722L392.195 517.415L391.8 519.405L384.001 518.396Z" fill="white"/>
<path d="M400.438 519.187L397.805 519.061L403.063 507.684L406.23 507.836L408.991 519.597L406.357 519.471L404.407 510.406L404.316 510.401L400.438 519.187ZM400.763 514.632L406.983 514.93L406.778 516.839L400.557 516.541L400.763 514.632Z" fill="white"/>
<path d="M421.902 507.81L421.569 519.442L419.444 519.489L414.593 512.281L414.508 512.283L414.298 519.604L411.838 519.659L412.172 508.028L414.33 507.979L419.142 515.183L419.244 515.18L419.454 507.865L421.902 507.81Z" fill="white"/>
<path d="M429.299 518.911L425.19 519.278L424.641 507.655L428.783 507.284C429.949 507.18 430.964 507.323 431.827 507.713C432.69 508.1 433.369 508.706 433.862 509.532C434.36 510.358 434.637 511.374 434.694 512.581C434.751 513.792 434.572 514.853 434.157 515.764C433.745 516.674 433.126 517.4 432.299 517.942C431.476 518.483 430.476 518.806 429.299 518.911ZM427.541 516.953L429.098 516.814C429.822 516.75 430.425 516.566 430.907 516.265C431.393 515.959 431.747 515.523 431.971 514.956C432.197 514.385 432.29 513.666 432.249 512.799C432.209 511.941 432.049 511.25 431.771 510.728C431.496 510.205 431.105 509.837 430.599 509.624C430.092 509.411 429.477 509.337 428.753 509.402L427.191 509.541L427.541 516.953Z" fill="white"/>
<path d="M452.201 507.967L449.753 508.415C449.659 508.105 449.525 507.839 449.349 507.617C449.172 507.391 448.962 507.21 448.719 507.074C448.476 506.937 448.205 506.848 447.908 506.806C447.614 506.764 447.303 506.773 446.975 506.833C446.382 506.941 445.889 507.183 445.495 507.559C445.1 507.932 444.825 508.421 444.67 509.027C444.514 509.629 444.497 510.328 444.62 511.126C444.746 511.946 444.974 512.612 445.302 513.126C445.634 513.639 446.042 513.997 446.525 514.201C447.009 514.405 447.539 514.455 448.117 514.349C448.441 514.29 448.734 514.192 448.997 514.055C449.263 513.918 449.491 513.747 449.682 513.543C449.872 513.335 450.02 513.098 450.124 512.833C450.233 512.567 450.291 512.275 450.3 511.958L452.749 511.521C452.767 512.061 452.688 512.599 452.51 513.136C452.335 513.668 452.065 514.166 451.7 514.629C451.338 515.088 450.882 515.483 450.331 515.815C449.784 516.142 449.143 516.373 448.409 516.507C447.388 516.694 446.44 516.628 445.563 516.311C444.691 515.994 443.954 515.438 443.352 514.643C442.754 513.848 442.359 512.825 442.166 511.575C441.973 510.32 442.043 509.211 442.377 508.245C442.711 507.279 443.245 506.493 443.978 505.885C444.712 505.274 445.581 504.876 446.587 504.692C447.251 504.571 447.88 504.552 448.475 504.636C449.074 504.718 449.621 504.899 450.116 505.178C450.611 505.454 451.036 505.824 451.391 506.291C451.75 506.756 452.02 507.315 452.201 507.967Z" fill="white"/>
<path d="M466.253 506.203C466.555 507.436 466.578 508.545 466.324 509.532C466.074 510.517 465.605 511.342 464.917 512.007C464.232 512.667 463.393 513.127 462.4 513.386C461.4 513.647 460.446 513.653 459.539 513.405C458.632 513.156 457.842 512.66 457.169 511.916C456.496 511.171 456.009 510.185 455.709 508.956C455.408 507.723 455.382 506.614 455.633 505.629C455.883 504.644 456.351 503.821 457.036 503.161C457.719 502.497 458.562 502.034 459.562 501.773C460.555 501.514 461.505 501.509 462.412 501.757C463.322 502.001 464.113 502.495 464.786 503.24C465.463 503.983 465.952 504.971 466.253 506.203ZM463.84 506.833C463.645 506.035 463.361 505.393 462.989 504.907C462.62 504.42 462.187 504.09 461.689 503.919C461.191 503.748 460.654 503.737 460.079 503.887C459.503 504.037 459.036 504.31 458.676 504.705C458.317 505.101 458.085 505.604 457.981 506.214C457.88 506.823 457.927 507.527 458.122 508.326C458.318 509.124 458.599 509.767 458.968 510.254C459.34 510.74 459.775 511.069 460.273 511.24C460.771 511.412 461.308 511.422 461.884 511.272C462.459 511.122 462.927 510.849 463.286 510.454C463.646 510.059 463.876 509.556 463.976 508.947C464.081 508.336 464.035 507.632 463.84 506.833Z" fill="white"/>
<path d="M471.341 510.679L467.74 499.614L470.076 498.841L473.049 507.977L477.786 506.411L478.413 508.339L471.341 510.679Z" fill="white"/>
<path d="M481.927 507.04L477.594 496.24L479.882 495.336L483.46 504.253L488.099 502.418L488.854 504.3L481.927 507.04Z" fill="white"/>
<path d="M494.444 501.821L492.056 502.938L490.604 490.772L493.476 489.429L502.2 498.194L499.812 499.311L493.245 492.473L493.162 492.511L494.444 501.821ZM492.294 497.778L497.935 495.14L498.775 496.867L493.134 499.505L492.294 497.778Z" fill="white"/>
<path d="M504.798 496.758L498.937 486.705L503.022 484.464C503.773 484.052 504.462 483.818 505.092 483.763C505.721 483.707 506.275 483.804 506.755 484.055C507.232 484.303 507.618 484.679 507.912 485.183C508.141 485.575 508.262 485.964 508.276 486.349C508.289 486.731 508.211 487.094 508.042 487.437C507.876 487.774 507.637 488.08 507.328 488.354L507.385 488.452C507.783 488.255 508.21 488.163 508.665 488.177C509.123 488.189 509.564 488.317 509.986 488.56C510.406 488.8 510.761 489.167 511.049 489.661C511.36 490.195 511.503 490.745 511.478 491.311C511.455 491.873 511.253 492.417 510.873 492.946C510.493 493.474 509.921 493.947 509.157 494.367L504.798 496.758ZM505.942 493.837L507.7 492.872C508.301 492.542 508.674 492.189 508.818 491.812C508.96 491.432 508.92 491.052 508.699 490.672C508.537 490.394 508.326 490.186 508.066 490.048C507.806 489.91 507.514 489.85 507.191 489.867C506.871 489.883 506.539 489.985 506.193 490.175L504.385 491.167L505.942 493.837ZM503.547 489.729L505.146 488.851C505.441 488.689 505.674 488.494 505.844 488.267C506.016 488.035 506.112 487.787 506.135 487.525C506.16 487.26 506.095 486.995 505.941 486.73C505.729 486.367 505.427 486.146 505.035 486.068C504.646 485.987 504.213 486.078 503.735 486.341L502.096 487.24L503.547 489.729Z" fill="white"/>
<path d="M521.281 480.096C522.005 481.139 522.417 482.156 522.519 483.147C522.625 484.136 522.464 485.046 522.036 485.877C521.61 486.704 520.964 487.394 520.1 487.947C519.229 488.505 518.314 488.813 517.354 488.87C516.394 488.928 515.46 488.72 514.551 488.246C513.641 487.772 512.826 487.015 512.105 485.975C511.382 484.933 510.968 483.917 510.862 482.928C510.757 481.939 510.918 481.031 511.344 480.205C511.769 479.376 512.416 478.682 513.287 478.124C514.151 477.571 515.063 477.265 516.023 477.207C516.984 477.145 517.919 477.351 518.828 477.825C519.74 478.296 520.558 479.054 521.281 480.096ZM519.181 481.442C518.713 480.767 518.214 480.263 517.685 479.932C517.159 479.6 516.627 479.433 516.087 479.432C515.548 479.432 515.028 479.592 514.527 479.912C514.026 480.233 513.672 480.633 513.465 481.112C513.259 481.591 513.212 482.128 513.327 482.725C513.444 483.319 513.737 483.954 514.206 484.63C514.674 485.305 515.171 485.809 515.697 486.142C516.226 486.473 516.76 486.639 517.299 486.64C517.839 486.64 518.359 486.48 518.86 486.159C519.36 485.839 519.714 485.439 519.921 484.96C520.128 484.481 520.173 483.945 520.055 483.35C519.941 482.753 519.65 482.117 519.181 481.442Z" fill="white"/>
<path d="M527.53 482.709L520.177 473.691L523.866 470.958C524.572 470.434 525.274 470.11 525.971 469.984C526.67 469.852 527.331 469.911 527.954 470.161C528.578 470.405 529.133 470.825 529.619 471.421C530.107 472.02 530.393 472.634 530.477 473.264C530.559 473.891 530.439 474.508 530.117 475.113C529.799 475.716 529.28 476.284 528.562 476.816L526.092 478.646L524.843 477.114L526.993 475.521C527.37 475.241 527.643 474.959 527.811 474.674C527.979 474.389 528.043 474.102 528.002 473.812C527.964 473.52 527.824 473.226 527.582 472.929C527.338 472.63 527.07 472.424 526.778 472.311C526.488 472.195 526.174 472.179 525.836 472.26C525.497 472.336 525.138 472.515 524.758 472.797L523.425 473.785L529.507 481.245L527.53 482.709ZM529.233 474.864L534.903 477.247L532.721 478.863L527.101 476.444L529.233 474.864Z" fill="white"/>
<path d="M538.617 474.114L536.61 475.823L531.648 464.788L534.061 462.733L545.136 468.562L543.129 470.272L534.722 465.657L534.653 465.716L538.617 474.114ZM535.339 470.907L540.08 466.869L541.404 468.261L536.663 472.298L535.339 470.907Z" fill="white"/>
<path d="M539.644 460.482L538.145 459.116L545.009 452.466L546.508 453.832L543.949 456.311L551.051 462.783L549.304 464.475L542.203 458.003L539.644 460.482Z" fill="white"/>
<path d="M548.918 449.677L557.905 457.068L556.219 458.86L547.232 451.468L548.918 449.677Z" fill="white"/>
<path d="M562.427 442.906C563.452 443.655 564.168 444.475 564.577 445.367C564.988 446.256 565.116 447.155 564.963 448.063C564.809 448.965 564.4 449.809 563.738 450.593C563.071 451.383 562.282 451.953 561.372 452.304C560.462 452.655 559.494 452.75 558.467 452.59C557.44 452.43 556.415 451.977 555.393 451.231C554.369 450.483 553.651 449.664 553.24 448.775C552.829 447.885 552.7 446.989 552.854 446.087C553.005 445.182 553.415 444.335 554.082 443.545C554.745 442.761 555.531 442.193 556.441 441.842C557.35 441.486 558.318 441.388 559.345 441.548C560.374 441.706 561.402 442.158 562.427 442.906ZM560.817 444.812C560.153 444.327 559.514 444.013 558.899 443.868C558.286 443.72 557.72 443.73 557.198 443.896C556.676 444.063 556.224 444.373 555.84 444.828C555.456 445.282 555.239 445.764 555.188 446.275C555.138 446.785 555.261 447.301 555.558 447.822C555.858 448.34 556.339 448.841 557.003 449.326C557.667 449.81 558.305 450.126 558.918 450.274C559.532 450.418 560.101 450.408 560.622 450.241C561.144 450.074 561.596 449.764 561.98 449.31C562.364 448.855 562.581 448.373 562.632 447.863C562.682 447.352 562.558 446.838 562.258 446.32C561.961 445.799 561.481 445.296 560.817 444.812Z" fill="white"/>
<path d="M564.91 429.658L574.801 435.787L573.549 437.504L564.341 437.737L564.29 437.805L570.516 441.663L569.066 443.651L559.175 437.522L560.447 435.777L569.627 435.574L569.688 435.491L563.467 431.636L564.91 429.658Z" fill="white"/>
<path d="M585 327C585 419.784 509.784 495 417 495C324.216 495 249 419.784 249 327C249 234.216 324.216 159 417 159C509.784 159 585 234.216 585 327Z" fill="#0074E9"/>
<path d="M528 328C528 389.856 477.856 440 416 440C354.144 440 304 389.856 304 328C304 266.144 354.144 216 416 216C477.856 216 528 266.144 528 328Z" fill="url(#paint6_linear_1699_4111)"/>
<path d="M367.165 207.787L363.383 208.94L364.055 190.487L368.604 189.1L379.451 204.04L375.668 205.193L367.558 193.589L367.427 193.628L367.165 207.787ZM364.928 201.296L373.862 198.571L374.703 201.327L365.768 204.052L364.928 201.296Z" fill="white"/>
<path d="M381.248 185.939L385.044 202.976L381.442 203.778L377.646 186.742L381.248 185.939Z" fill="white"/>
<path d="M398.818 182.271L395.98 203.726L392.879 204.136L395.717 182.681L398.818 182.271Z" fill="white"/>
<path d="M419.81 187.761C419.686 187.347 419.514 186.982 419.295 186.666C419.076 186.345 418.809 186.075 418.494 185.857C418.185 185.633 417.831 185.463 417.432 185.348C417.039 185.233 416.603 185.178 416.126 185.183C415.234 185.192 414.452 185.422 413.781 185.872C413.115 186.322 412.599 186.972 412.233 187.823C411.867 188.668 411.69 189.698 411.703 190.914C411.716 192.13 411.911 193.162 412.289 194.01C412.668 194.859 413.197 195.504 413.878 195.945C414.559 196.381 415.359 196.595 416.28 196.585C417.115 196.576 417.826 196.421 418.414 196.119C419.008 195.812 419.458 195.384 419.764 194.835C420.077 194.287 420.229 193.64 420.221 192.896L420.972 192.999L416.473 193.046L416.444 190.268L423.747 190.191L423.77 192.39C423.786 193.924 423.476 195.245 422.84 196.354C422.204 197.458 421.321 198.313 420.191 198.922C419.061 199.525 417.763 199.834 416.297 199.849C414.661 199.866 413.219 199.521 411.973 198.812C410.727 198.098 409.75 197.077 409.043 195.749C408.342 194.415 407.981 192.828 407.962 190.987C407.947 189.573 408.139 188.309 408.536 187.197C408.939 186.079 409.509 185.13 410.245 184.349C410.981 183.569 411.841 182.972 412.826 182.558C413.81 182.144 414.879 181.931 416.032 181.919C417.021 181.909 417.943 182.044 418.798 182.325C419.653 182.6 420.413 182.995 421.078 183.511C421.748 184.027 422.297 184.643 422.725 185.361C423.153 186.072 423.431 186.859 423.559 187.721L419.81 187.761Z" fill="white"/>
<path d="M426.482 199.76L428.12 182.382L439.829 183.486L439.544 186.515L431.508 185.758L431.118 189.899L438.551 190.599L438.265 193.629L430.832 192.928L430.441 197.077L438.51 197.838L438.225 200.867L426.482 199.76Z" fill="white"/>
<path d="M458.333 186.84L454.974 203.968L451.846 203.354L446.508 191.112L446.383 191.088L444.269 201.868L440.647 201.158L444.006 184.03L447.185 184.653L452.465 196.875L452.616 196.905L454.728 186.133L458.333 186.84Z" fill="white"/>
<path d="M465.522 207.062L461.789 205.757L473.235 191.268L477.725 192.836L477.647 211.299L473.914 209.994L474.228 195.84L474.1 195.795L465.522 207.062ZM467.552 200.503L476.37 203.585L475.42 206.304L466.602 203.223L467.552 200.503Z" fill="white"/>
<path d="M489.531 197.658L482.533 213.649L479.153 212.169L486.151 196.179L489.531 197.658Z" fill="white"/>
<path d="M391.35 288.046C389.074 288.312 386.755 289.388 384.438 291.252L384.402 291.281L384.354 291.274C384.053 291.224 383.808 291.224 383.496 291.224C381.475 291.372 379.904 293.159 380.005 295.209C380.153 297.23 381.953 298.795 384.008 298.693C385.698 298.598 387.149 297.298 387.459 295.605L387.466 295.571L387.492 295.547C388.969 294.206 390.481 293.548 392.096 293.548C392.283 293.548 392.474 293.557 392.664 293.575C394.829 293.825 397.12 295.209 399.675 297.805C402.186 300.356 404.748 303.796 407.144 307.131L410.656 312.079C412.137 314.164 413.667 316.32 415.218 318.339C416.589 320.055 418.424 322.223 420.443 323.744C422.59 325.36 424.686 325.989 426.846 325.668L427.538 325.546L427.142 325.074C423.063 320.808 419.767 315.96 417.36 312.42L413.251 306.48C410.324 302.271 407.558 298.295 404.664 295.131C400.351 290.311 396.519 288.046 392.602 288C392.001 288 391.581 288.016 391.35 288.046Z" fill="white"/>
<path d="M387.614 308.988L387.611 309.025C387.459 310.898 385.985 312.364 384.11 312.51C384.048 312.513 383.985 312.513 383.923 312.513C381.944 312.513 380.25 310.983 380.105 309.026C380.004 306.976 381.575 305.189 383.6 305.041H383.901L390.005 298.819C390.892 297.91 392.122 297.4 393.384 297.444C394.612 297.476 395.73 297.998 396.533 298.912L396.74 299.2L387.614 308.986V308.988Z" fill="white"/>
<path d="M383.936 318.559L383.857 318.556C381.79 318.556 380.107 320.23 380.107 322.289C380.107 324.348 381.79 326.022 383.859 326.022C384.032 326.022 384.197 325.998 384.369 325.973L384.442 325.962C386.169 325.692 387.459 324.295 387.584 322.553V322.517L403.066 305.849L399.697 301.817L383.936 318.559Z" fill="white"/>
<path d="M440.458 328.332C443.319 328.013 446.142 326.45 449.111 323.545L449.142 323.516H449.597C451.615 323.364 453.14 321.579 452.989 319.535C452.841 317.512 451.039 315.943 448.985 316.049C447.089 316.199 445.638 317.663 445.535 319.533V319.569L445.51 319.597C443.411 321.977 441.309 323.025 439.093 322.805C436.93 322.555 434.637 321.17 432.084 318.575C429.571 316.022 427.008 312.582 424.615 309.247L421.092 304.284C419.615 302.205 418.088 300.053 416.541 298.039C415.168 296.323 413.333 294.155 411.313 292.634C409.167 291.018 407.072 290.389 404.911 290.71L404.25 290.788L404.713 291.249C408.795 295.515 412.093 300.367 414.499 303.906L417.893 308.82C421.332 313.895 424.221 317.95 427.144 321.247C431.455 326.065 435.288 328.331 439.206 328.376C439.826 328.376 440.156 328.36 440.458 328.331V328.332Z" fill="white"/>
<path d="M449.296 310.463H449.494C450.504 310.416 451.424 309.984 452.081 309.247C452.738 308.508 453.061 307.545 452.99 306.533C452.845 304.573 451.151 303.042 449.172 303.042C449.109 303.042 449.049 303.042 448.987 303.046C447.06 303.194 445.587 304.702 445.484 306.632V306.672L435.125 317.733L435.326 317.974C436.135 318.897 437.271 319.42 438.525 319.446C438.556 319.446 438.587 319.446 438.616 319.446C439.844 319.446 441.021 318.948 441.853 318.07L449.293 310.462L449.296 310.463Z" fill="white"/>
<path d="M428.752 311.035L432.165 315.075L449.601 296.549L449.637 296.545C451.666 296.343 453.138 294.594 452.99 292.562C452.841 290.541 451.043 288.967 448.985 289.077C446.923 289.226 445.383 290.955 445.484 293.011V293.054L428.75 311.035H428.752Z" fill="white"/>
<path d="M365.142 357V339.545H376.903V342.588H368.832V346.747H376.298V349.79H368.832V353.957H376.938V357H365.142ZM388.164 351.426V343.909H391.795V357H388.309V354.622H388.173C387.877 355.389 387.386 356.006 386.698 356.472C386.016 356.937 385.184 357.17 384.201 357.17C383.326 357.17 382.556 356.972 381.891 356.574C381.227 356.176 380.707 355.611 380.332 354.878C379.962 354.145 379.775 353.267 379.769 352.244V343.909H383.4V351.597C383.406 352.369 383.613 352.98 384.022 353.429C384.431 353.878 384.979 354.102 385.667 354.102C386.104 354.102 386.513 354.003 386.894 353.804C387.275 353.599 387.582 353.298 387.815 352.901C388.053 352.503 388.17 352.011 388.164 351.426ZM394.699 357V343.909H398.219V346.193H398.355C398.594 345.381 398.994 344.767 399.557 344.352C400.119 343.932 400.767 343.722 401.5 343.722C401.682 343.722 401.878 343.733 402.088 343.756C402.298 343.778 402.483 343.81 402.642 343.849V347.071C402.472 347.02 402.236 346.974 401.935 346.935C401.634 346.895 401.358 346.875 401.108 346.875C400.574 346.875 400.097 346.991 399.676 347.224C399.261 347.452 398.932 347.77 398.688 348.179C398.449 348.588 398.33 349.06 398.33 349.594V357H394.699ZM409.876 357.256C408.529 357.256 407.37 356.983 406.398 356.438C405.433 355.886 404.688 355.108 404.165 354.102C403.643 353.091 403.381 351.895 403.381 350.514C403.381 349.168 403.643 347.986 404.165 346.969C404.688 345.952 405.424 345.159 406.373 344.591C407.327 344.023 408.447 343.739 409.731 343.739C410.594 343.739 411.398 343.878 412.143 344.156C412.893 344.429 413.546 344.841 414.103 345.392C414.665 345.943 415.103 346.636 415.415 347.472C415.728 348.301 415.884 349.273 415.884 350.386V351.384H404.83V349.134H412.467C412.467 348.611 412.353 348.148 412.126 347.744C411.898 347.341 411.583 347.026 411.18 346.798C410.782 346.565 410.319 346.449 409.79 346.449C409.239 346.449 408.751 346.577 408.325 346.832C407.904 347.082 407.575 347.42 407.336 347.847C407.097 348.267 406.975 348.736 406.969 349.253V351.392C406.969 352.04 407.089 352.599 407.327 353.071C407.572 353.543 407.915 353.906 408.359 354.162C408.802 354.418 409.327 354.545 409.935 354.545C410.339 354.545 410.708 354.489 411.043 354.375C411.379 354.261 411.665 354.091 411.904 353.864C412.143 353.636 412.325 353.358 412.45 353.028L415.808 353.25C415.637 354.057 415.288 354.761 414.759 355.364C414.237 355.96 413.56 356.426 412.731 356.761C411.907 357.091 410.955 357.256 409.876 357.256ZM421.543 353.233L421.552 348.878H422.08L426.273 343.909H430.441L424.808 350.489H423.947L421.543 353.233ZM418.254 357V339.545H421.884V357H418.254ZM426.435 357L422.583 351.298L425.004 348.733L430.688 357H426.435ZM435.955 357.247C435.12 357.247 434.376 357.102 433.722 356.812C433.069 356.517 432.552 356.082 432.171 355.509C431.796 354.929 431.609 354.207 431.609 353.344C431.609 352.616 431.742 352.006 432.009 351.511C432.276 351.017 432.64 350.619 433.1 350.318C433.56 350.017 434.083 349.79 434.668 349.636C435.259 349.483 435.879 349.375 436.526 349.312C437.288 349.233 437.901 349.159 438.367 349.091C438.833 349.017 439.171 348.909 439.381 348.767C439.592 348.625 439.697 348.415 439.697 348.136V348.085C439.697 347.545 439.526 347.128 439.185 346.832C438.85 346.537 438.373 346.389 437.754 346.389C437.1 346.389 436.58 346.534 436.194 346.824C435.808 347.108 435.552 347.466 435.427 347.898L432.069 347.625C432.239 346.83 432.575 346.142 433.075 345.562C433.575 344.977 434.219 344.528 435.009 344.216C435.805 343.898 436.725 343.739 437.771 343.739C438.498 343.739 439.194 343.824 439.859 343.994C440.529 344.165 441.123 344.429 441.64 344.787C442.163 345.145 442.575 345.605 442.876 346.168C443.177 346.724 443.327 347.392 443.327 348.17V357H439.884V355.185H439.782C439.572 355.594 439.29 355.955 438.938 356.267C438.586 356.574 438.163 356.815 437.668 356.991C437.174 357.162 436.603 357.247 435.955 357.247ZM436.995 354.741C437.529 354.741 438.001 354.636 438.41 354.426C438.819 354.21 439.14 353.92 439.373 353.557C439.606 353.193 439.722 352.781 439.722 352.321V350.932C439.609 351.006 439.452 351.074 439.254 351.136C439.06 351.193 438.842 351.247 438.597 351.298C438.353 351.344 438.109 351.386 437.864 351.426C437.62 351.46 437.398 351.491 437.2 351.52C436.773 351.582 436.401 351.682 436.083 351.818C435.765 351.955 435.518 352.139 435.342 352.372C435.165 352.599 435.077 352.884 435.077 353.224C435.077 353.719 435.256 354.097 435.614 354.358C435.978 354.614 436.438 354.741 436.995 354.741ZM449.221 357H445.266L451.292 339.545H456.048L462.065 357H458.11L453.738 343.534H453.602L449.221 357ZM448.974 350.139H458.315V353.02H448.974V350.139ZM467.856 339.545V357H464.165V339.545H467.856Z" fill="white"/>
<defs>
<linearGradient id="paint0_linear_1699_4111" x1="274.607" y1="194.5" x2="551.563" y2="496.453" gradientUnits="userSpaceOnUse">
<stop stop-color="#CD66F9"/>
<stop offset="1" stop-color="#7CD3FA"/>
</linearGradient>
<linearGradient id="paint1_linear_1699_4111" x1="318" y1="212.342" x2="511.769" y2="484.114" gradientUnits="userSpaceOnUse">
<stop stop-color="#954CF2"/>
<stop offset="1" stop-color="#599EF4"/>
</linearGradient>
<linearGradient id="paint2_linear_1699_4111" x1="268.607" y1="185.5" x2="545.563" y2="487.453" gradientUnits="userSpaceOnUse">
<stop stop-color="#F362D3"/>
<stop offset="1" stop-color="#CF65F7"/>
</linearGradient>
<linearGradient id="paint3_linear_1699_4111" x1="312" y1="203.342" x2="505.769" y2="475.114" gradientUnits="userSpaceOnUse">
<stop stop-color="#E041AC"/>
<stop offset="1" stop-color="#A542E8"/>
</linearGradient>
<linearGradient id="paint4_linear_1699_4111" x1="270.607" y1="192.5" x2="547.563" y2="494.453" gradientUnits="userSpaceOnUse">
<stop stop-color="#F8C550"/>
<stop offset="1" stop-color="#F46CCE"/>
</linearGradient>
<linearGradient id="paint5_linear_1699_4111" x1="314" y1="210.342" x2="507.769" y2="482.114" gradientUnits="userSpaceOnUse">
<stop stop-color="#EF843D"/>
<stop offset="1" stop-color="#E84B96"/>
</linearGradient>
<linearGradient id="paint6_linear_1699_4111" x1="431.5" y1="520" x2="416" y2="193" gradientUnits="userSpaceOnUse">
<stop stop-color="#3374E2"/>
<stop offset="1" stop-color="#00EAC3"/>
</linearGradient>
</defs>
</svg>
