<svg width="842" height="752" viewBox="0 0 842 752" fill="none" xmlns="http://www.w3.org/2000/svg">
<rect x="227" y="376" width="376" height="376" rx="188" fill="url(#paint0_linear_1927_5550)" fill-opacity="0.5"/>
<rect x="248.289" y="396.348" width="334.504" height="334.5" rx="167.25" fill="url(#paint1_linear_1927_5550)"/>
<path d="M339.021 589.565C338.953 588.878 338.66 588.344 338.143 587.963C337.626 587.582 336.924 587.392 336.038 587.392C335.436 587.392 334.927 587.477 334.512 587.648C334.098 587.812 333.779 588.043 333.558 588.338C333.342 588.634 333.234 588.969 333.234 589.344C333.223 589.656 333.288 589.929 333.43 590.162C333.578 590.395 333.779 590.597 334.035 590.767C334.291 590.932 334.586 591.077 334.922 591.202C335.257 591.321 335.615 591.423 335.995 591.509L337.564 591.884C338.325 592.054 339.024 592.281 339.66 592.565C340.297 592.849 340.848 593.199 341.314 593.614C341.779 594.028 342.14 594.517 342.396 595.08C342.657 595.642 342.791 596.287 342.797 597.014C342.791 598.082 342.518 599.009 341.978 599.793C341.444 600.571 340.672 601.176 339.66 601.608C338.654 602.034 337.441 602.247 336.021 602.247C334.612 602.247 333.385 602.031 332.339 601.599C331.299 601.168 330.487 600.528 329.902 599.682C329.322 598.83 329.018 597.776 328.99 596.52H332.561C332.6 597.105 332.768 597.594 333.064 597.986C333.365 598.372 333.765 598.665 334.265 598.864C334.771 599.057 335.342 599.153 335.978 599.153C336.603 599.153 337.146 599.062 337.606 598.881C338.072 598.699 338.433 598.446 338.689 598.122C338.944 597.798 339.072 597.426 339.072 597.006C339.072 596.614 338.956 596.284 338.723 596.017C338.495 595.75 338.16 595.523 337.717 595.335C337.279 595.148 336.743 594.977 336.106 594.824L334.206 594.347C332.734 593.989 331.572 593.429 330.72 592.668C329.868 591.906 329.444 590.881 329.45 589.591C329.444 588.534 329.725 587.611 330.294 586.821C330.868 586.031 331.654 585.415 332.654 584.972C333.654 584.528 334.791 584.307 336.064 584.307C337.359 584.307 338.49 584.528 339.456 584.972C340.427 585.415 341.183 586.031 341.723 586.821C342.262 587.611 342.541 588.526 342.558 589.565H339.021ZM356.06 584.545H359.75V595.881C359.75 597.153 359.446 598.267 358.838 599.222C358.236 600.176 357.392 600.92 356.307 601.455C355.222 601.983 353.958 602.247 352.515 602.247C351.066 602.247 349.799 601.983 348.713 601.455C347.628 600.92 346.784 600.176 346.182 599.222C345.58 598.267 345.279 597.153 345.279 595.881V584.545H348.969V595.565C348.969 596.23 349.114 596.821 349.404 597.338C349.699 597.855 350.114 598.261 350.648 598.557C351.182 598.852 351.804 599 352.515 599C353.23 599 353.853 598.852 354.381 598.557C354.915 598.261 355.327 597.855 355.617 597.338C355.912 596.821 356.06 596.23 356.06 595.565V584.545ZM362.787 602V584.545H369.673C370.997 584.545 372.125 584.798 373.056 585.304C373.988 585.804 374.699 586.5 375.187 587.392C375.681 588.278 375.929 589.301 375.929 590.46C375.929 591.619 375.679 592.642 375.179 593.528C374.679 594.415 373.954 595.105 373.005 595.599C372.062 596.094 370.92 596.341 369.579 596.341H365.19V593.384H368.983C369.693 593.384 370.278 593.261 370.738 593.017C371.204 592.767 371.551 592.423 371.778 591.986C372.011 591.543 372.127 591.034 372.127 590.46C372.127 589.881 372.011 589.375 371.778 588.943C371.551 588.506 371.204 588.168 370.738 587.929C370.272 587.685 369.681 587.562 368.966 587.562H366.477V602H362.787ZM378.326 602V584.545H385.212C386.536 584.545 387.664 584.798 388.596 585.304C389.527 585.804 390.238 586.5 390.726 587.392C391.221 588.278 391.468 589.301 391.468 590.46C391.468 591.619 391.218 592.642 390.718 593.528C390.218 594.415 389.493 595.105 388.544 595.599C387.601 596.094 386.459 596.341 385.118 596.341H380.729V593.384H384.522C385.232 593.384 385.817 593.261 386.277 593.017C386.743 592.767 387.09 592.423 387.317 591.986C387.55 591.543 387.667 591.034 387.667 590.46C387.667 589.881 387.55 589.375 387.317 588.943C387.09 588.506 386.743 588.168 386.277 587.929C385.811 587.685 385.221 587.562 384.505 587.562H382.016V602H378.326ZM393.865 602V584.545H397.555V598.957H405.038V602H393.865ZM404.233 584.545H408.366L412.346 592.062H412.517L416.497 584.545H420.63L414.264 595.83V602H410.599V595.83L404.233 584.545ZM443.601 590.656H439.868C439.8 590.173 439.661 589.744 439.451 589.369C439.24 588.989 438.971 588.665 438.641 588.398C438.311 588.131 437.931 587.926 437.499 587.784C437.073 587.642 436.61 587.571 436.11 587.571C435.206 587.571 434.419 587.795 433.749 588.244C433.078 588.687 432.559 589.335 432.189 590.188C431.82 591.034 431.635 592.062 431.635 593.273C431.635 594.517 431.82 595.562 432.189 596.409C432.564 597.256 433.087 597.895 433.757 598.327C434.428 598.759 435.203 598.974 436.084 598.974C436.578 598.974 437.036 598.909 437.456 598.778C437.882 598.648 438.26 598.457 438.59 598.207C438.919 597.952 439.192 597.642 439.408 597.278C439.63 596.915 439.783 596.5 439.868 596.034L443.601 596.051C443.505 596.852 443.263 597.625 442.877 598.369C442.496 599.108 441.982 599.77 441.334 600.355C440.692 600.935 439.925 601.395 439.033 601.736C438.147 602.071 437.144 602.239 436.025 602.239C434.468 602.239 433.076 601.886 431.848 601.182C430.627 600.477 429.661 599.457 428.951 598.122C428.246 596.787 427.894 595.17 427.894 593.273C427.894 591.369 428.252 589.75 428.968 588.415C429.684 587.08 430.655 586.062 431.882 585.364C433.11 584.659 434.49 584.307 436.025 584.307C437.036 584.307 437.973 584.449 438.837 584.733C439.706 585.017 440.476 585.432 441.147 585.977C441.817 586.517 442.363 587.179 442.783 587.963C443.209 588.747 443.482 589.645 443.601 590.656ZM446.248 602V584.545H449.938V591.747H457.429V584.545H461.111V602H457.429V594.79H449.938V602H446.248ZM467.162 602H463.208L469.233 584.545H473.989L480.006 602H476.051L471.679 588.534H471.543L467.162 602ZM466.915 595.139H476.256V598.02H466.915V595.139ZM485.797 584.545V602H482.107V584.545H485.797ZM503.433 584.545V602H500.245L492.652 591.014H492.524V602H488.833V584.545H492.072L499.606 595.523H499.76V584.545H503.433Z" fill="white"/>
<rect width="376" height="376" rx="188" fill="url(#paint2_linear_1927_5550)" fill-opacity="0.5"/>
<rect x="21.2891" y="20.3477" width="334.504" height="334.5" rx="167.25" fill="url(#paint3_linear_1927_5550)"/>
<path d="M111.31 177.565C111.242 176.878 110.949 176.344 110.432 175.963C109.915 175.582 109.213 175.392 108.327 175.392C107.725 175.392 107.216 175.477 106.801 175.648C106.387 175.812 106.069 176.043 105.847 176.338C105.631 176.634 105.523 176.969 105.523 177.344C105.512 177.656 105.577 177.929 105.719 178.162C105.867 178.395 106.069 178.597 106.324 178.767C106.58 178.932 106.875 179.077 107.211 179.202C107.546 179.321 107.904 179.423 108.284 179.509L109.853 179.884C110.614 180.054 111.313 180.281 111.949 180.565C112.586 180.849 113.137 181.199 113.603 181.614C114.069 182.028 114.429 182.517 114.685 183.08C114.946 183.642 115.08 184.287 115.086 185.014C115.08 186.082 114.807 187.009 114.267 187.793C113.733 188.571 112.961 189.176 111.949 189.608C110.944 190.034 109.73 190.247 108.31 190.247C106.901 190.247 105.674 190.031 104.628 189.599C103.588 189.168 102.776 188.528 102.191 187.682C101.611 186.83 101.307 185.776 101.279 184.52H104.85C104.89 185.105 105.057 185.594 105.353 185.986C105.654 186.372 106.054 186.665 106.554 186.864C107.06 187.057 107.631 187.153 108.267 187.153C108.892 187.153 109.435 187.062 109.895 186.881C110.361 186.699 110.722 186.446 110.978 186.122C111.233 185.798 111.361 185.426 111.361 185.006C111.361 184.614 111.245 184.284 111.012 184.017C110.784 183.75 110.449 183.523 110.006 183.335C109.569 183.148 109.032 182.977 108.395 182.824L106.495 182.347C105.023 181.989 103.861 181.429 103.009 180.668C102.157 179.906 101.733 178.881 101.739 177.591C101.733 176.534 102.015 175.611 102.583 174.821C103.157 174.031 103.944 173.415 104.944 172.972C105.944 172.528 107.08 172.307 108.353 172.307C109.648 172.307 110.779 172.528 111.745 172.972C112.716 173.415 113.472 174.031 114.012 174.821C114.551 175.611 114.83 176.526 114.847 177.565H111.31ZM116.903 175.588V172.545H131.238V175.588H125.895V190H122.247V175.588H116.903ZM148.842 181.273C148.842 183.176 148.481 184.795 147.76 186.131C147.044 187.466 146.066 188.486 144.828 189.19C143.595 189.889 142.208 190.239 140.669 190.239C139.118 190.239 137.725 189.886 136.493 189.182C135.26 188.477 134.285 187.457 133.569 186.122C132.853 184.787 132.495 183.17 132.495 181.273C132.495 179.369 132.853 177.75 133.569 176.415C134.285 175.08 135.26 174.062 136.493 173.364C137.725 172.659 139.118 172.307 140.669 172.307C142.208 172.307 143.595 172.659 144.828 173.364C146.066 174.062 147.044 175.08 147.76 176.415C148.481 177.75 148.842 179.369 148.842 181.273ZM145.1 181.273C145.1 180.04 144.916 179 144.547 178.153C144.183 177.307 143.669 176.665 143.004 176.227C142.339 175.79 141.561 175.571 140.669 175.571C139.777 175.571 138.998 175.79 138.333 176.227C137.669 176.665 137.152 177.307 136.782 178.153C136.419 179 136.237 180.04 136.237 181.273C136.237 182.506 136.419 183.545 136.782 184.392C137.152 185.239 137.669 185.881 138.333 186.318C138.998 186.756 139.777 186.974 140.669 186.974C141.561 186.974 142.339 186.756 143.004 186.318C143.669 185.881 144.183 185.239 144.547 184.392C144.916 183.545 145.1 182.506 145.1 181.273ZM151.576 190V172.545H158.462C159.78 172.545 160.905 172.781 161.837 173.253C162.775 173.719 163.488 174.381 163.976 175.239C164.471 176.091 164.718 177.094 164.718 178.247C164.718 179.406 164.468 180.403 163.968 181.239C163.468 182.068 162.743 182.705 161.794 183.148C160.851 183.591 159.709 183.812 158.368 183.812H153.757V180.847H157.772C158.476 180.847 159.061 180.75 159.527 180.557C159.993 180.364 160.34 180.074 160.567 179.688C160.8 179.301 160.917 178.821 160.917 178.247C160.917 177.668 160.8 177.179 160.567 176.781C160.34 176.384 159.99 176.082 159.519 175.878C159.053 175.668 158.465 175.562 157.755 175.562H155.266V190H151.576ZM161.002 182.057L165.34 190H161.266L157.022 182.057H161.002ZM167.326 190V172.545H179.087V175.588H171.016V179.747H178.482V182.79H171.016V186.957H179.121V190H167.326ZM190.584 190H186.63L192.655 172.545H197.411L203.428 190H199.473L195.101 176.534H194.965L190.584 190ZM190.337 183.139H199.678V186.02H190.337V183.139ZM220.128 172.545V190H216.941L209.347 179.014H209.219V190H205.529V172.545H208.767L216.301 183.523H216.455V172.545H220.128ZM229.365 190H223.177V172.545H229.416C231.172 172.545 232.683 172.895 233.95 173.594C235.217 174.287 236.191 175.284 236.873 176.585C237.561 177.886 237.904 179.443 237.904 181.256C237.904 183.074 237.561 184.636 236.873 185.943C236.191 187.25 235.211 188.253 233.933 188.952C232.66 189.651 231.137 190 229.365 190ZM226.868 186.838H229.211C230.302 186.838 231.22 186.645 231.964 186.259C232.714 185.866 233.277 185.261 233.652 184.443C234.032 183.619 234.223 182.557 234.223 181.256C234.223 179.966 234.032 178.912 233.652 178.094C233.277 177.276 232.717 176.673 231.973 176.287C231.228 175.901 230.311 175.707 229.22 175.707H226.868V186.838ZM143.923 206.565C143.855 205.878 143.563 205.344 143.045 204.963C142.528 204.582 141.827 204.392 140.94 204.392C140.338 204.392 139.83 204.477 139.415 204.648C139 204.812 138.682 205.043 138.46 205.338C138.244 205.634 138.136 205.969 138.136 206.344C138.125 206.656 138.19 206.929 138.332 207.162C138.48 207.395 138.682 207.597 138.938 207.767C139.193 207.932 139.489 208.077 139.824 208.202C140.159 208.321 140.517 208.423 140.898 208.509L142.466 208.884C143.227 209.054 143.926 209.281 144.562 209.565C145.199 209.849 145.75 210.199 146.216 210.614C146.682 211.028 147.043 211.517 147.298 212.08C147.56 212.642 147.693 213.287 147.699 214.014C147.693 215.082 147.42 216.009 146.881 216.793C146.347 217.571 145.574 218.176 144.562 218.608C143.557 219.034 142.344 219.247 140.923 219.247C139.514 219.247 138.287 219.031 137.241 218.599C136.202 218.168 135.389 217.528 134.804 216.682C134.224 215.83 133.92 214.776 133.892 213.52H137.463C137.503 214.105 137.67 214.594 137.966 214.986C138.267 215.372 138.668 215.665 139.168 215.864C139.673 216.057 140.244 216.153 140.881 216.153C141.506 216.153 142.048 216.062 142.509 215.881C142.974 215.699 143.335 215.446 143.591 215.122C143.847 214.798 143.974 214.426 143.974 214.006C143.974 213.614 143.858 213.284 143.625 213.017C143.398 212.75 143.063 212.523 142.619 212.335C142.182 212.148 141.645 211.977 141.009 211.824L139.108 211.347C137.636 210.989 136.474 210.429 135.622 209.668C134.77 208.906 134.347 207.881 134.352 206.591C134.347 205.534 134.628 204.611 135.196 203.821C135.77 203.031 136.557 202.415 137.557 201.972C138.557 201.528 139.693 201.307 140.966 201.307C142.261 201.307 143.392 201.528 144.358 201.972C145.33 202.415 146.085 203.031 146.625 203.821C147.165 204.611 147.443 205.526 147.46 206.565H143.923ZM150.181 219V201.545H157.067C158.391 201.545 159.519 201.798 160.451 202.304C161.383 202.804 162.093 203.5 162.582 204.392C163.076 205.278 163.323 206.301 163.323 207.46C163.323 208.619 163.073 209.642 162.573 210.528C162.073 211.415 161.349 212.105 160.4 212.599C159.457 213.094 158.315 213.341 156.974 213.341H152.585V210.384H156.377C157.087 210.384 157.673 210.261 158.133 210.017C158.599 209.767 158.945 209.423 159.173 208.986C159.406 208.543 159.522 208.034 159.522 207.46C159.522 206.881 159.406 206.375 159.173 205.943C158.945 205.506 158.599 205.168 158.133 204.929C157.667 204.685 157.076 204.562 156.36 204.562H153.871V219H150.181ZM166.713 219H162.759L168.784 201.545H173.54L179.557 219H175.602L171.23 205.534H171.094L166.713 219ZM166.466 212.139H175.807V215.02H166.466V212.139ZM196.238 207.656H192.505C192.437 207.173 192.298 206.744 192.087 206.369C191.877 205.989 191.607 205.665 191.278 205.398C190.948 205.131 190.567 204.926 190.136 204.784C189.71 204.642 189.246 204.571 188.746 204.571C187.843 204.571 187.056 204.795 186.386 205.244C185.715 205.687 185.195 206.335 184.826 207.188C184.457 208.034 184.272 209.062 184.272 210.273C184.272 211.517 184.457 212.562 184.826 213.409C185.201 214.256 185.724 214.895 186.394 215.327C187.065 215.759 187.84 215.974 188.721 215.974C189.215 215.974 189.673 215.909 190.093 215.778C190.519 215.648 190.897 215.457 191.227 215.207C191.556 214.952 191.829 214.642 192.045 214.278C192.266 213.915 192.42 213.5 192.505 213.034L196.238 213.051C196.141 213.852 195.9 214.625 195.513 215.369C195.133 216.108 194.619 216.77 193.971 217.355C193.329 217.935 192.562 218.395 191.67 218.736C190.783 219.071 189.781 219.239 188.661 219.239C187.104 219.239 185.712 218.886 184.485 218.182C183.263 217.477 182.298 216.457 181.587 215.122C180.883 213.787 180.531 212.17 180.531 210.273C180.531 208.369 180.888 206.75 181.604 205.415C182.32 204.08 183.292 203.062 184.519 202.364C185.746 201.659 187.127 201.307 188.661 201.307C189.673 201.307 190.61 201.449 191.474 201.733C192.343 202.017 193.113 202.432 193.783 202.977C194.454 203.517 194.999 204.179 195.42 204.963C195.846 205.747 196.119 206.645 196.238 207.656ZM198.884 219V201.545H210.646V204.588H202.575V208.747H210.04V211.79H202.575V215.957H210.68V219H198.884Z" fill="white"/>
<rect x="466" width="376" height="376" rx="188" fill="url(#paint4_linear_1927_5550)" fill-opacity="0.5"/>
<rect x="487.289" y="20.3477" width="334.504" height="334.5" rx="167.25" fill="url(#paint5_linear_1927_5550)"/>
<path d="M580.763 172.545H585.314L590.121 184.273H590.326L595.132 172.545H599.684V190H596.104V178.639H595.959L591.442 189.915H589.005L584.488 178.597H584.343V190H580.763V172.545ZM602.724 190V172.545H614.485V175.588H606.414V179.747H613.88V182.79H606.414V186.957H614.52V190H602.724ZM617.419 190V172.545H624.306C625.624 172.545 626.749 172.781 627.681 173.253C628.618 173.719 629.331 174.381 629.82 175.239C630.314 176.091 630.561 177.094 630.561 178.247C630.561 179.406 630.311 180.403 629.811 181.239C629.311 182.068 628.587 182.705 627.638 183.148C626.695 183.591 625.553 183.812 624.212 183.812H619.601V180.847H623.615C624.32 180.847 624.905 180.75 625.371 180.557C625.837 180.364 626.184 180.074 626.411 179.688C626.644 179.301 626.76 178.821 626.76 178.247C626.76 177.668 626.644 177.179 626.411 176.781C626.184 176.384 625.834 176.082 625.363 175.878C624.897 175.668 624.309 175.562 623.598 175.562H621.11V190H617.419ZM626.846 182.057L631.184 190H627.11L622.865 182.057H626.846ZM648.57 178.656H644.837C644.769 178.173 644.63 177.744 644.419 177.369C644.209 176.989 643.939 176.665 643.61 176.398C643.28 176.131 642.9 175.926 642.468 175.784C642.042 175.642 641.578 175.571 641.078 175.571C640.175 175.571 639.388 175.795 638.718 176.244C638.047 176.687 637.527 177.335 637.158 178.188C636.789 179.034 636.604 180.062 636.604 181.273C636.604 182.517 636.789 183.562 637.158 184.409C637.533 185.256 638.056 185.895 638.726 186.327C639.397 186.759 640.172 186.974 641.053 186.974C641.547 186.974 642.005 186.909 642.425 186.778C642.851 186.648 643.229 186.457 643.559 186.207C643.888 185.952 644.161 185.642 644.377 185.278C644.598 184.915 644.752 184.5 644.837 184.034L648.57 184.051C648.473 184.852 648.232 185.625 647.846 186.369C647.465 187.108 646.951 187.77 646.303 188.355C645.661 188.935 644.894 189.395 644.002 189.736C643.115 190.071 642.113 190.239 640.993 190.239C639.436 190.239 638.044 189.886 636.817 189.182C635.596 188.477 634.63 187.457 633.919 186.122C633.215 184.787 632.863 183.17 632.863 181.273C632.863 179.369 633.221 177.75 633.936 176.415C634.652 175.08 635.624 174.062 636.851 173.364C638.078 172.659 639.459 172.307 640.993 172.307C642.005 172.307 642.942 172.449 643.806 172.733C644.675 173.017 645.445 173.432 646.115 173.977C646.786 174.517 647.331 175.179 647.752 175.963C648.178 176.747 648.451 177.645 648.57 178.656ZM651.216 190V172.545H654.907V179.747H662.398V172.545H666.08V190H662.398V182.79H654.907V190H651.216ZM672.131 190H668.176L674.202 172.545H678.958L684.975 190H681.02L676.648 176.534H676.512L672.131 190ZM671.884 183.139H681.225V186.02H671.884V183.139ZM701.675 172.545V190H698.488L690.894 179.014H690.766V190H687.076V172.545H690.314L697.848 183.523H698.002V172.545H701.675ZM710.912 190H704.724V172.545H710.963C712.718 172.545 714.23 172.895 715.497 173.594C716.764 174.287 717.738 175.284 718.42 176.585C719.108 177.886 719.451 179.443 719.451 181.256C719.451 183.074 719.108 184.636 718.42 185.943C717.738 187.25 716.758 188.253 715.48 188.952C714.207 189.651 712.684 190 710.912 190ZM708.414 186.838H710.758C711.849 186.838 712.767 186.645 713.511 186.259C714.261 185.866 714.824 185.261 715.199 184.443C715.579 183.619 715.77 182.557 715.77 181.256C715.77 179.966 715.579 178.912 715.199 178.094C714.824 177.276 714.264 176.673 713.52 176.287C712.775 175.901 711.858 175.707 710.767 175.707H708.414V186.838ZM725.875 172.545V190H722.185V172.545H725.875ZM738.38 177.565C738.312 176.878 738.02 176.344 737.502 175.963C736.985 175.582 736.284 175.392 735.397 175.392C734.795 175.392 734.287 175.477 733.872 175.648C733.457 175.812 733.139 176.043 732.917 176.338C732.701 176.634 732.593 176.969 732.593 177.344C732.582 177.656 732.647 177.929 732.789 178.162C732.937 178.395 733.139 178.597 733.395 178.767C733.65 178.932 733.946 179.077 734.281 179.202C734.616 179.321 734.974 179.423 735.355 179.509L736.923 179.884C737.684 180.054 738.383 180.281 739.02 180.565C739.656 180.849 740.207 181.199 740.673 181.614C741.139 182.028 741.5 182.517 741.755 183.08C742.017 183.642 742.15 184.287 742.156 185.014C742.15 186.082 741.877 187.009 741.338 187.793C740.804 188.571 740.031 189.176 739.02 189.608C738.014 190.034 736.801 190.247 735.38 190.247C733.971 190.247 732.744 190.031 731.699 189.599C730.659 189.168 729.846 188.528 729.261 187.682C728.681 186.83 728.377 185.776 728.349 184.52H731.92C731.96 185.105 732.127 185.594 732.423 185.986C732.724 186.372 733.125 186.665 733.625 186.864C734.13 187.057 734.701 187.153 735.338 187.153C735.963 187.153 736.505 187.062 736.966 186.881C737.431 186.699 737.792 186.446 738.048 186.122C738.304 185.798 738.431 185.426 738.431 185.006C738.431 184.614 738.315 184.284 738.082 184.017C737.855 183.75 737.52 183.523 737.076 183.335C736.639 183.148 736.102 182.977 735.466 182.824L733.565 182.347C732.093 181.989 730.931 181.429 730.079 180.668C729.227 179.906 728.804 178.881 728.809 177.591C728.804 176.534 729.085 175.611 729.653 174.821C730.227 174.031 731.014 173.415 732.014 172.972C733.014 172.528 734.15 172.307 735.423 172.307C736.718 172.307 737.849 172.528 738.815 172.972C739.787 173.415 740.542 174.031 741.082 174.821C741.622 175.611 741.9 176.526 741.917 177.565H738.38ZM748.328 172.545V190H744.638V172.545H748.328ZM765.964 172.545V190H762.777L755.183 179.014H755.055V190H751.365V172.545H754.603L762.137 183.523H762.291V172.545H765.964ZM780.587 178.188C780.468 177.773 780.3 177.406 780.084 177.088C779.868 176.764 779.604 176.491 779.292 176.27C778.985 176.043 778.632 175.869 778.235 175.75C777.843 175.631 777.408 175.571 776.931 175.571C776.039 175.571 775.255 175.793 774.578 176.236C773.908 176.679 773.385 177.324 773.01 178.17C772.635 179.011 772.448 180.04 772.448 181.256C772.448 182.472 772.632 183.506 773.002 184.358C773.371 185.21 773.894 185.861 774.57 186.31C775.246 186.753 776.044 186.974 776.965 186.974C777.8 186.974 778.513 186.827 779.104 186.531C779.701 186.23 780.155 185.807 780.468 185.261C780.786 184.716 780.945 184.071 780.945 183.327L781.695 183.438H777.195V180.659H784.499V182.858C784.499 184.392 784.175 185.71 783.527 186.812C782.88 187.909 781.988 188.756 780.851 189.352C779.715 189.943 778.414 190.239 776.948 190.239C775.311 190.239 773.874 189.878 772.635 189.156C771.397 188.429 770.431 187.398 769.738 186.062C769.05 184.722 768.706 183.131 768.706 181.29C768.706 179.875 768.911 178.614 769.32 177.506C769.735 176.392 770.314 175.449 771.059 174.676C771.803 173.903 772.669 173.315 773.658 172.912C774.647 172.509 775.718 172.307 776.871 172.307C777.86 172.307 778.78 172.452 779.632 172.741C780.485 173.026 781.24 173.429 781.9 173.952C782.564 174.474 783.107 175.097 783.527 175.818C783.948 176.534 784.218 177.324 784.337 178.188H780.587Z" fill="white"/>
<rect x="208" y="119" width="418" height="418" rx="209" fill="#94B3FA"/>
<rect x="257" y="165" width="324" height="324" rx="162" fill="#5F96F4"/>
<path d="M254.076 424.089L252.272 420.379L262.814 415.452L264.633 419.192C265.144 420.245 265.374 421.249 265.321 422.206C265.272 423.162 264.954 424.027 264.367 424.803C263.781 425.583 262.941 426.228 261.847 426.74C260.749 427.253 259.705 427.488 258.715 427.445C257.727 427.405 256.836 427.101 256.041 426.531C255.248 425.966 254.593 425.151 254.076 424.089ZM255.258 421.699L255.941 423.104C256.259 423.758 256.643 424.254 257.093 424.591C257.549 424.93 258.078 425.096 258.682 425.09C259.29 425.086 259.987 424.9 260.773 424.533C261.552 424.169 262.133 423.757 262.516 423.298C262.901 422.842 263.102 422.336 263.118 421.781C263.135 421.226 262.984 420.621 262.666 419.967L261.98 418.557L255.258 421.699Z" fill="white"/>
<path d="M258.545 432.801L257.218 430.522L269.444 428.402L271.039 431.142L262.852 440.201L261.526 437.922L267.932 431.089L267.887 431.01L258.545 432.801ZM262.473 430.46L265.606 435.842L263.922 436.765L260.789 431.383L262.473 430.46Z" fill="white"/>
<path d="M271.804 436.377L273.517 435.29L278.923 443.171L277.21 444.257L275.195 441.32L267.082 446.467L265.706 444.461L273.819 439.314L271.804 436.377Z" fill="white"/>
<path d="M271.583 452.695L269.937 450.636L281.853 446.925L283.833 449.401L276.93 459.382L275.284 457.323L280.721 449.763L280.665 449.692L271.583 452.695ZM275.178 449.874L279.067 454.738L277.514 455.868L273.625 451.005L275.178 449.874Z" fill="white"/>
<path d="M291.713 458.316L282.815 465.814L281.129 464.022L290.027 456.523L291.713 458.316Z" fill="white"/>
<path d="M300.364 466.785L291.849 474.716L290.31 473.251L292.002 464.769L291.941 464.71L286.581 469.702L284.799 468.006L293.314 460.075L294.878 461.563L293.161 470.014L293.235 470.084L298.59 465.097L300.364 466.785Z" fill="white"/>
<path d="M300.351 469.485L301.739 468.006L309.129 474.065L307.742 475.544L304.987 473.285L298.413 480.293L296.532 478.751L303.106 471.744L300.351 469.485Z" fill="white"/>
<path d="M303.052 484.035L310.487 475.083L316.862 479.649L315.566 481.209L311.191 478.076L309.42 480.209L313.466 483.108L312.17 484.668L308.124 481.77L306.348 483.907L310.741 487.053L309.445 488.614L303.052 484.035Z" fill="white"/>
<path d="M311.922 490.328L318.835 480.968L320.918 482.277L315.21 490.005L319.433 492.66L318.228 494.292L311.922 490.328Z" fill="white"/>
<path d="M321.146 496.06L327.478 486.297L329.64 487.472L324.411 495.533L328.794 497.915L327.691 499.617L321.146 496.06Z" fill="white"/>
<path d="M338.304 491.942L332.398 501.968L330.187 500.89L336.092 490.864L338.304 491.942Z" fill="white"/>
<path d="M346.192 499.547C346.246 499.27 346.255 499.01 346.22 498.766C346.187 498.518 346.108 498.288 345.984 498.076C345.865 497.862 345.702 497.668 345.494 497.494C345.29 497.322 345.041 497.174 344.748 497.051C344.2 496.82 343.651 496.748 343.099 496.835C342.552 496.924 342.033 497.17 341.543 497.574C341.054 497.974 340.624 498.535 340.251 499.254C339.878 499.974 339.674 500.634 339.639 501.234C339.605 501.834 339.726 502.355 340.004 502.795C340.283 503.233 340.706 503.571 341.271 503.809C341.784 504.026 342.268 504.123 342.721 504.101C343.18 504.077 343.589 503.945 343.948 503.703C344.311 503.462 344.607 503.122 344.835 502.681L345.262 502.941L342.497 501.775L343.35 500.131L347.836 502.023L347.162 503.324C346.691 504.232 346.088 504.929 345.352 505.413C344.618 505.895 343.81 506.165 342.929 506.223C342.05 506.279 341.16 506.117 340.259 505.737C339.254 505.313 338.482 504.727 337.942 503.979C337.404 503.228 337.127 502.367 337.111 501.397C337.1 500.426 337.377 499.395 337.942 498.305C338.376 497.468 338.888 496.774 339.48 496.224C340.076 495.673 340.721 495.264 341.416 495C342.11 494.735 342.823 494.612 343.554 494.629C344.285 494.646 345.004 494.804 345.713 495.103C346.32 495.359 346.841 495.684 347.276 496.076C347.712 496.465 348.053 496.899 348.297 497.379C348.545 497.861 348.688 498.37 348.725 498.906C348.763 499.439 348.687 499.976 348.495 500.518L346.192 499.547Z" fill="white"/>
<path d="M348.062 508.769L352.689 498.092L360.105 500.638L359.299 502.499L354.209 500.752L353.107 503.296L357.815 504.912L357.008 506.773L352.3 505.157L351.195 507.707L356.306 509.461L355.5 511.322L348.062 508.769Z" fill="white"/>
<path d="M371.732 503.935L367.822 514.895L365.772 514.336L363.349 506.105L363.267 506.082L360.806 512.98L358.433 512.333L362.343 501.373L364.425 501.941L366.812 510.156L366.911 510.183L369.37 503.29L371.732 503.935Z" fill="white"/>
<path d="M383.512 510.524L381.071 510.04C381.112 509.721 381.097 509.427 381.025 509.158C380.955 508.886 380.836 508.643 380.667 508.429C380.499 508.215 380.286 508.034 380.029 507.886C379.775 507.74 379.485 507.634 379.158 507.569C378.567 507.452 378.013 507.495 377.495 507.696C376.979 507.894 376.524 508.244 376.132 508.744C375.741 509.24 375.439 509.877 375.225 510.655C375.006 511.455 374.942 512.151 375.034 512.743C375.13 513.336 375.359 513.815 375.721 514.179C376.083 514.544 376.552 514.783 377.128 514.897C377.451 514.961 377.762 514.978 378.06 514.949C378.362 514.92 378.643 514.847 378.902 514.729C379.163 514.607 379.396 514.443 379.601 514.237C379.81 514.032 379.984 513.786 380.122 513.497L382.56 513.992C382.355 514.494 382.061 514.96 381.677 515.388C381.298 515.814 380.845 516.173 380.318 516.465C379.795 516.754 379.213 516.951 378.569 517.054C377.93 517.155 377.245 517.133 376.513 516.988C375.495 516.786 374.647 516.379 373.968 515.767C373.294 515.156 372.842 514.375 372.614 513.425C372.389 512.475 372.444 511.39 372.779 510.17C373.115 508.947 373.635 507.952 374.339 507.187C375.042 506.421 375.857 505.893 376.783 505.603C377.71 505.309 378.675 505.261 379.679 505.46C380.34 505.591 380.928 505.804 381.443 506.098C381.961 506.394 382.391 506.76 382.733 507.198C383.077 507.631 383.316 508.128 383.453 508.686C383.593 509.245 383.613 509.858 383.512 510.524Z" fill="white"/>
<path d="M384.999 518.396L387.266 506.982L395.042 507.988L394.647 509.978L389.31 509.287L388.77 512.007L393.706 512.646L393.311 514.635L388.375 513.997L387.834 516.722L393.193 517.415L392.798 519.405L384.999 518.396Z" fill="white"/>
<path d="M401.435 519.187L398.802 519.061L404.061 507.684L407.227 507.836L409.988 519.597L407.355 519.471L405.405 510.406L405.314 510.401L401.435 519.187ZM401.761 514.632L407.981 514.93L407.775 516.839L401.555 516.541L401.761 514.632Z" fill="white"/>
<path d="M422.902 507.81L422.568 519.442L420.444 519.489L415.592 512.281L415.507 512.283L415.297 519.604L412.838 519.659L413.171 508.028L415.33 507.979L420.141 515.183L420.244 515.18L420.453 507.865L422.902 507.81Z" fill="white"/>
<path d="M430.298 518.911L426.189 519.278L425.64 507.655L429.782 507.284C430.948 507.18 431.963 507.323 432.826 507.713C433.689 508.1 434.368 508.706 434.861 509.532C435.359 510.358 435.636 511.374 435.693 512.581C435.75 513.792 435.571 514.853 435.156 515.764C434.744 516.674 434.125 517.4 433.298 517.942C432.475 518.483 431.475 518.806 430.298 518.911ZM428.54 516.953L430.097 516.814C430.821 516.75 431.424 516.566 431.906 516.265C432.392 515.959 432.746 515.523 432.97 514.956C433.196 514.385 433.289 513.666 433.248 512.799C433.208 511.941 433.048 511.25 432.77 510.728C432.495 510.205 432.104 509.837 431.598 509.624C431.091 509.411 430.476 509.337 429.752 509.402L428.19 509.541L428.54 516.953Z" fill="white"/>
<path d="M453.199 507.967L450.751 508.415C450.657 508.105 450.523 507.839 450.347 507.617C450.17 507.391 449.96 507.21 449.717 507.074C449.474 506.937 449.203 506.848 448.906 506.806C448.612 506.764 448.301 506.773 447.973 506.833C447.38 506.941 446.887 507.183 446.493 507.559C446.099 507.932 445.823 508.421 445.668 509.027C445.512 509.629 445.495 510.328 445.618 511.126C445.744 511.946 445.972 512.612 446.3 513.126C446.632 513.639 447.04 513.997 447.523 514.201C448.007 514.405 448.537 514.455 449.115 514.349C449.439 514.29 449.732 514.192 449.995 514.055C450.261 513.918 450.489 513.747 450.68 513.543C450.87 513.335 451.018 513.098 451.122 512.833C451.231 512.567 451.289 512.275 451.298 511.958L453.747 511.521C453.765 512.061 453.686 512.599 453.508 513.136C453.333 513.668 453.063 514.166 452.698 514.629C452.336 515.088 451.88 515.483 451.329 515.815C450.782 516.142 450.141 516.373 449.407 516.507C448.386 516.694 447.438 516.628 446.561 516.311C445.689 515.994 444.952 515.438 444.35 514.643C443.752 513.848 443.357 512.825 443.164 511.575C442.971 510.32 443.041 509.211 443.375 508.245C443.709 507.279 444.243 506.493 444.976 505.885C445.71 505.274 446.579 504.876 447.585 504.692C448.249 504.571 448.878 504.552 449.473 504.636C450.072 504.718 450.619 504.899 451.114 505.178C451.609 505.454 452.034 505.824 452.389 506.291C452.748 506.756 453.018 507.315 453.199 507.967Z" fill="white"/>
<path d="M467.252 506.203C467.554 507.436 467.577 508.545 467.323 509.532C467.073 510.517 466.604 511.342 465.916 512.007C465.231 512.667 464.393 513.127 463.399 513.386C462.399 513.647 461.445 513.653 460.538 513.405C459.631 513.156 458.841 512.66 458.168 511.916C457.495 511.171 457.008 510.185 456.708 508.956C456.407 507.723 456.381 506.614 456.632 505.629C456.882 504.644 457.35 503.821 458.035 503.161C458.718 502.497 459.561 502.034 460.561 501.773C461.554 501.514 462.504 501.509 463.411 501.757C464.321 502.001 465.112 502.495 465.785 503.24C466.462 503.983 466.951 504.971 467.252 506.203ZM464.839 506.833C464.644 506.035 464.36 505.393 463.988 504.907C463.619 504.42 463.186 504.09 462.688 503.919C462.19 503.748 461.653 503.737 461.078 503.887C460.502 504.037 460.035 504.31 459.675 504.705C459.316 505.101 459.084 505.604 458.98 506.214C458.879 506.823 458.926 507.527 459.121 508.326C459.317 509.124 459.598 509.767 459.967 510.254C460.339 510.74 460.774 511.069 461.272 511.24C461.77 511.412 462.307 511.422 462.883 511.272C463.458 511.122 463.926 510.849 464.285 510.454C464.645 510.059 464.875 509.556 464.975 508.947C465.08 508.336 465.034 507.632 464.839 506.833Z" fill="white"/>
<path d="M472.339 510.679L468.738 499.614L471.074 498.841L474.047 507.977L478.784 506.411L479.411 508.339L472.339 510.679Z" fill="white"/>
<path d="M482.926 507.04L478.592 496.24L480.88 495.336L484.458 504.253L489.097 502.418L489.853 504.3L482.926 507.04Z" fill="white"/>
<path d="M495.442 501.821L493.054 502.938L491.602 490.772L494.474 489.429L503.198 498.194L500.81 499.311L494.243 492.473L494.16 492.511L495.442 501.821ZM493.292 497.778L498.933 495.14L499.773 496.867L494.132 499.505L493.292 497.778Z" fill="white"/>
<path d="M505.796 496.758L499.936 486.705L504.02 484.464C504.771 484.052 505.461 483.818 506.09 483.763C506.719 483.707 507.273 483.804 507.753 484.055C508.23 484.303 508.616 484.679 508.91 485.183C509.139 485.575 509.26 485.964 509.274 486.349C509.287 486.731 509.209 487.094 509.04 487.437C508.874 487.774 508.635 488.08 508.326 488.354L508.383 488.452C508.781 488.255 509.208 488.163 509.663 488.177C510.121 488.189 510.562 488.317 510.984 488.56C511.405 488.8 511.759 489.167 512.047 489.661C512.358 490.195 512.501 490.745 512.476 491.311C512.453 491.873 512.251 492.417 511.871 492.946C511.491 493.474 510.919 493.947 510.155 494.367L505.796 496.758ZM506.94 493.837L508.698 492.872C509.3 492.542 509.672 492.189 509.816 491.812C509.958 491.432 509.919 491.052 509.697 490.672C509.535 490.394 509.324 490.186 509.064 490.048C508.804 489.91 508.512 489.85 508.189 489.867C507.869 489.883 507.537 489.985 507.192 490.175L505.383 491.167L506.94 493.837ZM504.545 489.729L506.144 488.851C506.439 488.689 506.672 488.494 506.842 488.267C507.014 488.035 507.11 487.787 507.133 487.525C507.158 487.26 507.094 486.995 506.939 486.73C506.727 486.367 506.425 486.146 506.033 486.068C505.644 485.987 505.211 486.078 504.733 486.341L503.094 487.24L504.545 489.729Z" fill="white"/>
<path d="M522.279 480.096C523.002 481.139 523.415 482.156 523.517 483.147C523.622 484.136 523.461 485.046 523.034 485.877C522.607 486.704 521.962 487.394 521.097 487.947C520.227 488.505 519.311 488.813 518.352 488.87C517.392 488.928 516.457 488.72 515.548 488.246C514.639 487.772 513.824 487.015 513.103 485.975C512.38 484.933 511.965 483.917 511.86 482.928C511.755 481.939 511.915 481.031 512.342 480.205C512.766 479.376 513.414 478.682 514.284 478.124C515.149 477.571 516.061 477.265 517.021 477.207C517.981 477.145 518.916 477.351 519.826 477.825C520.738 478.296 521.556 479.054 522.279 480.096ZM520.179 481.442C519.71 480.767 519.211 480.263 518.683 479.932C518.157 479.6 517.624 479.433 517.085 479.432C516.545 479.432 516.025 479.592 515.525 479.912C515.024 480.233 514.67 480.633 514.463 481.112C514.256 481.591 514.21 482.128 514.324 482.725C514.442 483.319 514.735 483.954 515.203 484.63C515.672 485.305 516.169 485.809 516.694 486.142C517.223 486.473 517.758 486.639 518.297 486.64C518.836 486.64 519.356 486.48 519.857 486.159C520.358 485.839 520.712 485.439 520.919 484.96C521.126 484.481 521.17 483.945 521.053 483.35C520.938 482.753 520.647 482.117 520.179 481.442Z" fill="white"/>
<path d="M528.528 482.709L521.175 473.691L524.864 470.958C525.57 470.434 526.272 470.11 526.97 469.984C527.668 469.852 528.329 469.911 528.952 470.161C529.576 470.405 530.131 470.825 530.617 471.421C531.105 472.02 531.391 472.634 531.475 473.264C531.557 473.891 531.437 474.508 531.115 475.113C530.797 475.716 530.278 476.284 529.56 476.816L527.09 478.646L525.841 477.114L527.991 475.521C528.368 475.241 528.641 474.959 528.809 474.674C528.977 474.389 529.041 474.102 529 473.812C528.962 473.52 528.822 473.226 528.58 472.929C528.336 472.63 528.068 472.424 527.776 472.311C527.486 472.195 527.172 472.179 526.834 472.26C526.495 472.336 526.136 472.515 525.756 472.797L524.423 473.785L530.505 481.245L528.528 482.709ZM530.231 474.864L535.901 477.247L533.719 478.863L528.099 476.444L530.231 474.864Z" fill="white"/>
<path d="M539.616 474.114L537.609 475.823L532.646 464.788L535.06 462.733L546.135 468.562L544.128 470.272L535.721 465.657L535.651 465.716L539.616 474.114ZM536.338 470.907L541.079 466.869L542.402 468.261L537.661 472.298L536.338 470.907Z" fill="white"/>
<path d="M540.642 460.482L539.143 459.116L546.007 452.466L547.506 453.832L544.947 456.311L552.049 462.783L550.302 464.475L543.201 458.003L540.642 460.482Z" fill="white"/>
<path d="M549.916 449.677L558.903 457.068L557.217 458.86L548.23 451.468L549.916 449.677Z" fill="white"/>
<path d="M563.426 442.906C564.451 443.655 565.168 444.475 565.576 445.367C565.987 446.256 566.116 447.155 565.962 448.063C565.808 448.965 565.4 449.809 564.737 450.593C564.07 451.383 563.281 451.953 562.372 452.304C561.462 452.655 560.493 452.75 559.466 452.59C558.439 452.43 557.415 451.977 556.393 451.231C555.368 450.483 554.65 449.664 554.239 448.775C553.828 447.885 553.7 446.989 553.854 446.087C554.005 445.182 554.414 444.335 555.082 443.545C555.744 442.761 556.53 442.193 557.44 441.842C558.349 441.486 559.318 441.388 560.345 441.548C561.374 441.706 562.401 442.158 563.426 442.906ZM561.816 444.812C561.152 444.327 560.513 444.013 559.898 443.868C559.286 443.72 558.719 443.73 558.197 443.896C557.676 444.063 557.223 444.373 556.839 444.828C556.456 445.282 556.238 445.764 556.188 446.275C556.138 446.785 556.261 447.301 556.558 447.822C556.857 448.34 557.339 448.841 558.003 449.326C558.667 449.81 559.305 450.126 559.917 450.274C560.532 450.418 561.1 450.408 561.622 450.241C562.143 450.074 562.596 449.764 562.98 449.31C563.364 448.855 563.581 448.373 563.631 447.863C563.682 447.352 563.557 446.838 563.258 446.32C562.961 445.799 562.48 445.296 561.816 444.812Z" fill="white"/>
<path d="M565.909 429.658L575.8 435.787L574.548 437.504L565.34 437.737L565.289 437.805L571.515 441.663L570.065 443.651L560.174 437.522L561.446 435.777L570.626 435.574L570.687 435.491L564.466 431.636L565.909 429.658Z" fill="white"/>
<path d="M586 327C586 419.784 510.784 495 418 495C325.216 495 250 419.784 250 327C250 234.216 325.216 159 418 159C510.784 159 586 234.216 586 327Z" fill="#0074E9"/>
<path d="M529 328C529 389.856 478.856 440 417 440C355.144 440 305 389.856 305 328C305 266.144 355.144 216 417 216C478.856 216 529 266.144 529 328Z" fill="url(#paint6_linear_1927_5550)"/>
<path d="M368.164 207.787L364.381 208.94L365.053 190.487L369.602 189.1L380.449 204.04L376.666 205.193L368.556 193.589L368.426 193.628L368.164 207.787ZM365.926 201.296L374.861 198.571L375.701 201.327L366.766 204.052L365.926 201.296Z" fill="white"/>
<path d="M382.246 185.939L386.042 202.976L382.44 203.778L378.644 186.742L382.246 185.939Z" fill="white"/>
<path d="M399.816 182.271L396.978 203.726L393.878 204.136L396.715 182.681L399.816 182.271Z" fill="white"/>
<path d="M420.809 187.761C420.685 187.347 420.514 186.982 420.295 186.666C420.075 186.345 419.808 186.075 419.494 185.857C419.184 185.633 418.83 185.463 418.431 185.348C418.038 185.233 417.603 185.178 417.126 185.183C416.234 185.192 415.452 185.422 414.78 185.872C414.115 186.322 413.599 186.972 413.233 187.823C412.866 188.668 412.69 189.698 412.702 190.914C412.715 192.13 412.911 193.162 413.289 194.01C413.667 194.859 414.197 195.504 414.878 195.945C415.558 196.381 416.359 196.595 417.279 196.585C418.114 196.576 418.826 196.421 419.414 196.119C420.007 195.812 420.457 195.384 420.764 194.835C421.076 194.287 421.229 193.64 421.221 192.896L421.972 192.999L417.472 193.046L417.443 190.268L424.747 190.191L424.77 192.39C424.786 193.924 424.476 195.245 423.84 196.354C423.203 197.458 422.32 198.313 421.19 198.922C420.06 199.525 418.762 199.834 417.296 199.849C415.66 199.866 414.219 199.521 412.973 198.812C411.727 198.098 410.75 197.077 410.043 195.749C409.341 194.415 408.981 192.828 408.962 190.987C408.947 189.573 409.138 188.309 409.535 187.197C409.939 186.079 410.508 185.13 411.244 184.349C411.981 183.569 412.841 182.972 413.825 182.558C414.809 182.144 415.878 181.931 417.032 181.919C418.02 181.909 418.942 182.044 419.797 182.325C420.653 182.6 421.413 182.995 422.077 183.511C422.747 184.027 423.296 184.643 423.724 185.361C424.152 186.072 424.43 186.859 424.559 187.721L420.809 187.761Z" fill="white"/>
<path d="M427.482 199.76L429.12 182.382L440.829 183.486L440.544 186.515L432.508 185.758L432.118 189.899L439.551 190.599L439.265 193.629L431.832 192.928L431.441 197.077L439.51 197.838L439.225 200.867L427.482 199.76Z" fill="white"/>
<path d="M459.332 186.84L455.973 203.968L452.845 203.354L447.508 191.112L447.382 191.088L445.268 201.868L441.647 201.158L445.006 184.03L448.184 184.653L453.465 196.875L453.615 196.905L455.728 186.133L459.332 186.84Z" fill="white"/>
<path d="M466.521 207.062L462.788 205.757L474.235 191.268L478.724 192.836L478.646 211.299L474.913 209.994L475.228 195.84L475.099 195.795L466.521 207.062ZM468.551 200.503L477.369 203.585L476.419 206.304L467.601 203.223L468.551 200.503Z" fill="white"/>
<path d="M490.53 197.658L483.532 213.649L480.151 212.169L487.149 196.179L490.53 197.658Z" fill="white"/>
<path d="M392.35 285.046C390.074 285.312 387.755 286.388 385.438 288.252L385.402 288.281L385.354 288.274C385.053 288.224 384.808 288.224 384.496 288.224C382.475 288.372 380.904 290.159 381.005 292.209C381.153 294.23 382.953 295.795 385.008 295.693C386.698 295.598 388.149 294.298 388.459 292.605L388.466 292.571L388.492 292.547C389.969 291.206 391.481 290.548 393.096 290.548C393.283 290.548 393.474 290.557 393.664 290.575C395.829 290.825 398.12 292.209 400.675 294.805C403.186 297.356 405.748 300.796 408.144 304.131L411.656 309.079C413.137 311.164 414.667 313.32 416.218 315.339C417.589 317.055 419.424 319.223 421.443 320.744C423.59 322.36 425.686 322.989 427.846 322.668L428.538 322.546L428.142 322.074C424.063 317.808 420.767 312.96 418.36 309.42L414.251 303.48C411.324 299.271 408.558 295.295 405.664 292.131C401.351 287.311 397.519 285.046 393.602 285C393.001 285 392.581 285.016 392.35 285.046Z" fill="white"/>
<path d="M388.615 305.988L388.612 306.025C388.46 307.898 386.986 309.364 385.111 309.51C385.049 309.513 384.986 309.513 384.924 309.513C382.945 309.513 381.251 307.983 381.106 306.026C381.005 303.976 382.576 302.189 384.601 302.041H384.902L391.006 295.819C391.893 294.91 393.122 294.4 394.385 294.444C395.613 294.476 396.731 294.998 397.534 295.912L397.741 296.2L388.615 305.986V305.988Z" fill="white"/>
<path d="M384.936 315.559L384.857 315.556C382.79 315.556 381.107 317.23 381.107 319.289C381.107 321.348 382.79 323.022 384.859 323.022C385.032 323.022 385.197 322.998 385.369 322.973L385.442 322.962C387.169 322.692 388.459 321.295 388.584 319.553V319.517L404.066 302.849L400.697 298.817L384.936 315.559Z" fill="white"/>
<path d="M441.459 325.332C444.32 325.013 447.142 323.45 450.111 320.545L450.143 320.516H450.597C452.615 320.364 454.14 318.579 453.99 316.535C453.842 314.512 452.04 312.943 449.985 313.049C448.09 313.199 446.638 314.663 446.536 316.533V316.569L446.51 316.597C444.411 318.977 442.309 320.025 440.093 319.805C437.93 319.555 435.637 318.17 433.084 315.575C430.571 313.022 428.009 309.582 425.615 306.247L422.092 301.284C420.615 299.205 419.088 297.053 417.541 295.039C416.169 293.323 414.334 291.155 412.314 289.634C410.168 288.018 408.073 287.389 405.912 287.71L405.25 287.788L405.714 288.249C409.796 292.515 413.093 297.367 415.5 300.906L418.894 305.82C422.332 310.895 425.221 314.95 428.145 318.247C432.455 323.065 436.288 325.331 440.207 325.376C440.826 325.376 441.156 325.36 441.459 325.331V325.332Z" fill="white"/>
<path d="M450.297 307.463H450.495C451.505 307.416 452.425 306.984 453.081 306.247C453.739 305.508 454.062 304.545 453.99 303.533C453.845 301.573 452.152 300.042 450.172 300.042C450.11 300.042 450.05 300.042 449.987 300.046C448.061 300.194 446.587 301.702 446.484 303.632V303.672L436.125 314.733L436.327 314.974C437.135 315.897 438.271 316.42 439.525 316.446C439.556 316.446 439.587 316.446 439.617 316.446C440.845 316.446 442.021 315.948 442.854 315.07L450.293 307.462L450.297 307.463Z" fill="white"/>
<path d="M429.752 308.035L433.165 312.075L450.601 293.549L450.637 293.545C452.666 293.343 454.138 291.594 453.99 289.562C453.841 287.541 452.043 285.967 449.985 286.077C447.923 286.226 446.383 287.955 446.484 290.011V290.054L429.75 308.035H429.752Z" fill="white"/>
<path d="M366.142 358V340.545H377.903V343.588H369.832V347.747H377.298V350.79H369.832V354.957H377.938V358H366.142ZM389.164 352.426V344.909H392.795V358H389.309V355.622H389.173C388.877 356.389 388.386 357.006 387.698 357.472C387.016 357.937 386.184 358.17 385.201 358.17C384.326 358.17 383.556 357.972 382.891 357.574C382.227 357.176 381.707 356.611 381.332 355.878C380.962 355.145 380.775 354.267 380.769 353.244V344.909H384.4V352.597C384.406 353.369 384.613 353.98 385.022 354.429C385.431 354.878 385.979 355.102 386.667 355.102C387.104 355.102 387.513 355.003 387.894 354.804C388.275 354.599 388.582 354.298 388.815 353.901C389.053 353.503 389.17 353.011 389.164 352.426ZM395.699 358V344.909H399.219V347.193H399.355C399.594 346.381 399.994 345.767 400.557 345.352C401.119 344.932 401.767 344.722 402.5 344.722C402.682 344.722 402.878 344.733 403.088 344.756C403.298 344.778 403.483 344.81 403.642 344.849V348.071C403.472 348.02 403.236 347.974 402.935 347.935C402.634 347.895 402.358 347.875 402.108 347.875C401.574 347.875 401.097 347.991 400.676 348.224C400.261 348.452 399.932 348.77 399.688 349.179C399.449 349.588 399.33 350.06 399.33 350.594V358H395.699ZM410.876 358.256C409.529 358.256 408.37 357.983 407.398 357.438C406.433 356.886 405.688 356.108 405.165 355.102C404.643 354.091 404.381 352.895 404.381 351.514C404.381 350.168 404.643 348.986 405.165 347.969C405.688 346.952 406.424 346.159 407.373 345.591C408.327 345.023 409.447 344.739 410.731 344.739C411.594 344.739 412.398 344.878 413.143 345.156C413.893 345.429 414.546 345.841 415.103 346.392C415.665 346.943 416.103 347.636 416.415 348.472C416.728 349.301 416.884 350.273 416.884 351.386V352.384H405.83V350.134H413.467C413.467 349.611 413.353 349.148 413.126 348.744C412.898 348.341 412.583 348.026 412.18 347.798C411.782 347.565 411.319 347.449 410.79 347.449C410.239 347.449 409.751 347.577 409.325 347.832C408.904 348.082 408.575 348.42 408.336 348.847C408.097 349.267 407.975 349.736 407.969 350.253V352.392C407.969 353.04 408.089 353.599 408.327 354.071C408.572 354.543 408.915 354.906 409.359 355.162C409.802 355.418 410.327 355.545 410.935 355.545C411.339 355.545 411.708 355.489 412.043 355.375C412.379 355.261 412.665 355.091 412.904 354.864C413.143 354.636 413.325 354.358 413.45 354.028L416.808 354.25C416.637 355.057 416.288 355.761 415.759 356.364C415.237 356.96 414.56 357.426 413.731 357.761C412.907 358.091 411.955 358.256 410.876 358.256ZM422.543 354.233L422.552 349.878H423.08L427.273 344.909H431.441L425.808 351.489H424.947L422.543 354.233ZM419.254 358V340.545H422.884V358H419.254ZM427.435 358L423.583 352.298L426.004 349.733L431.688 358H427.435ZM436.955 358.247C436.12 358.247 435.376 358.102 434.722 357.812C434.069 357.517 433.552 357.082 433.171 356.509C432.796 355.929 432.609 355.207 432.609 354.344C432.609 353.616 432.742 353.006 433.009 352.511C433.276 352.017 433.64 351.619 434.1 351.318C434.56 351.017 435.083 350.79 435.668 350.636C436.259 350.483 436.879 350.375 437.526 350.312C438.288 350.233 438.901 350.159 439.367 350.091C439.833 350.017 440.171 349.909 440.381 349.767C440.592 349.625 440.697 349.415 440.697 349.136V349.085C440.697 348.545 440.526 348.128 440.185 347.832C439.85 347.537 439.373 347.389 438.754 347.389C438.1 347.389 437.58 347.534 437.194 347.824C436.808 348.108 436.552 348.466 436.427 348.898L433.069 348.625C433.239 347.83 433.575 347.142 434.075 346.562C434.575 345.977 435.219 345.528 436.009 345.216C436.805 344.898 437.725 344.739 438.771 344.739C439.498 344.739 440.194 344.824 440.859 344.994C441.529 345.165 442.123 345.429 442.64 345.787C443.163 346.145 443.575 346.605 443.876 347.168C444.177 347.724 444.327 348.392 444.327 349.17V358H440.884V356.185H440.782C440.572 356.594 440.29 356.955 439.938 357.267C439.586 357.574 439.163 357.815 438.668 357.991C438.174 358.162 437.603 358.247 436.955 358.247ZM437.995 355.741C438.529 355.741 439.001 355.636 439.41 355.426C439.819 355.21 440.14 354.92 440.373 354.557C440.606 354.193 440.722 353.781 440.722 353.321V351.932C440.609 352.006 440.452 352.074 440.254 352.136C440.06 352.193 439.842 352.247 439.597 352.298C439.353 352.344 439.109 352.386 438.864 352.426C438.62 352.46 438.398 352.491 438.2 352.52C437.773 352.582 437.401 352.682 437.083 352.818C436.765 352.955 436.518 353.139 436.342 353.372C436.165 353.599 436.077 353.884 436.077 354.224C436.077 354.719 436.256 355.097 436.614 355.358C436.978 355.614 437.438 355.741 437.995 355.741ZM450.221 358H446.266L452.292 340.545H457.048L463.065 358H459.11L454.738 344.534H454.602L450.221 358ZM449.974 351.139H459.315V354.02H449.974V351.139ZM468.856 340.545V358H465.165V340.545H468.856Z" fill="white"/>
<defs>
<linearGradient id="paint0_linear_1927_5550" x1="268.607" y1="422.5" x2="545.563" y2="724.453" gradientUnits="userSpaceOnUse">
<stop stop-color="#17BBD1"/>
<stop offset="1" stop-color="#55A0F2"/>
</linearGradient>
<linearGradient id="paint1_linear_1927_5550" x1="312" y1="440.342" x2="505.769" y2="712.114" gradientUnits="userSpaceOnUse">
<stop stop-color="#14BCCF"/>
<stop offset="1" stop-color="#599EF4"/>
<stop offset="1" stop-color="#02E7C4"/>
</linearGradient>
<linearGradient id="paint2_linear_1927_5550" x1="41.6066" y1="46.5" x2="318.563" y2="348.453" gradientUnits="userSpaceOnUse">
<stop stop-color="#1FA4D6"/>
<stop offset="1" stop-color="#18B5D1"/>
</linearGradient>
<linearGradient id="paint3_linear_1927_5550" x1="85" y1="64.342" x2="278.769" y2="336.114" gradientUnits="userSpaceOnUse">
<stop stop-color="#1FA3D6"/>
<stop offset="1" stop-color="#16B8D0"/>
</linearGradient>
<linearGradient id="paint4_linear_1927_5550" x1="507.607" y1="46.5" x2="784.563" y2="348.453" gradientUnits="userSpaceOnUse">
<stop stop-color="#3374E2"/>
<stop offset="1" stop-color="#1DA6D6"/>
</linearGradient>
<linearGradient id="paint5_linear_1927_5550" x1="551" y1="64.342" x2="744.769" y2="336.114" gradientUnits="userSpaceOnUse">
<stop stop-color="#3374E2"/>
<stop offset="1" stop-color="#1CA8D5"/>
</linearGradient>
<linearGradient id="paint6_linear_1927_5550" x1="432.5" y1="520" x2="417" y2="193" gradientUnits="userSpaceOnUse">
<stop stop-color="#3374E2"/>
<stop offset="1" stop-color="#00EAC3"/>
</linearGradient>
</defs>
</svg>
