<svg width="418" height="458" viewBox="0 0 418 458" fill="none" xmlns="http://www.w3.org/2000/svg">
<rect width="418" height="418" rx="209" fill="#94B3FA"/>
<rect x="49" y="46" width="324" height="324" rx="162" fill="#5F96F4"/>
<path d="M46.077 305.089L44.2732 301.379L54.8149 296.452L56.6336 300.192C57.1454 301.245 57.3749 302.249 57.3222 303.206C57.2729 304.162 56.9548 305.027 56.3677 305.803C55.7823 306.583 54.9422 307.228 53.8476 307.74C52.7495 308.253 51.7056 308.488 50.7159 308.445C49.7279 308.405 48.8365 308.101 48.0418 307.531C47.2487 306.966 46.5938 306.151 46.077 305.089ZM47.2587 302.699L47.9419 304.104C48.2599 304.758 48.6441 305.254 49.0944 305.591C49.5498 305.93 50.0793 306.096 50.6827 306.09C51.2913 306.086 51.9885 305.9 52.7743 305.533C53.5532 305.169 54.1343 304.757 54.5175 304.298C54.9023 303.842 55.1029 303.336 55.1193 302.781C55.1356 302.226 54.9848 301.621 54.6668 300.967L53.9811 299.557L47.2587 302.699Z" fill="white"/>
<path d="M50.5455 313.801L49.2191 311.522L61.4447 309.402L63.0399 312.142L54.8534 321.201L53.527 318.922L59.9333 312.089L59.8875 312.01L50.5455 313.801ZM54.4737 311.46L57.6067 316.842L55.9226 317.765L52.7895 312.383L54.4737 311.46Z" fill="white"/>
<path d="M63.8051 317.377L65.5179 316.29L70.924 324.171L69.2112 325.257L67.1959 322.32L59.0829 327.467L57.7072 325.461L65.8203 320.314L63.8051 317.377Z" fill="white"/>
<path d="M63.5841 333.695L61.9377 331.636L73.8538 327.925L75.8337 330.401L68.9315 340.382L67.285 338.323L72.7224 330.763L72.6656 330.692L63.5841 333.695ZM67.1789 330.874L71.0679 335.738L69.5153 336.868L65.6263 332.005L67.1789 330.874Z" fill="white"/>
<path d="M83.7139 339.316L74.8158 346.814L73.1304 345.022L82.0284 337.523L83.7139 339.316Z" fill="white"/>
<path d="M92.3663 347.785L83.8514 355.716L82.3121 354.251L84.0043 345.769L83.9426 345.71L78.5834 350.702L76.8013 349.006L85.3162 341.075L86.8801 342.563L85.1633 351.014L85.2374 351.084L90.5924 346.097L92.3663 347.785Z" fill="white"/>
<path d="M92.3523 350.485L93.7401 349.006L101.131 355.065L99.7431 356.544L96.988 354.285L90.4144 361.293L88.5337 359.751L95.1074 352.744L92.3523 350.485Z" fill="white"/>
<path d="M95.0541 365.035L102.489 356.083L108.864 360.649L107.568 362.209L103.193 359.076L101.422 361.209L105.468 364.108L104.172 365.668L100.126 362.77L98.3503 364.907L102.743 368.053L101.447 369.614L95.0541 365.035Z" fill="white"/>
<path d="M103.923 371.328L110.836 361.968L112.919 363.277L107.211 371.005L111.434 373.66L110.229 375.292L103.923 371.328Z" fill="white"/>
<path d="M113.147 377.06L119.48 367.297L121.641 368.472L116.413 376.533L120.796 378.915L119.692 380.617L113.147 377.06Z" fill="white"/>
<path d="M130.304 372.942L124.398 382.968L122.187 381.89L128.093 371.864L130.304 372.942Z" fill="white"/>
<path d="M138.192 380.547C138.246 380.27 138.255 380.01 138.22 379.766C138.187 379.518 138.109 379.288 137.985 379.076C137.866 378.862 137.703 378.668 137.495 378.494C137.291 378.322 137.042 378.174 136.749 378.051C136.201 377.82 135.651 377.748 135.1 377.835C134.552 377.924 134.033 378.17 133.543 378.574C133.055 378.974 132.624 379.535 132.251 380.254C131.878 380.974 131.674 381.634 131.64 382.234C131.605 382.834 131.727 383.355 132.004 383.795C132.284 384.233 132.706 384.571 133.272 384.809C133.785 385.026 134.268 385.123 134.722 385.101C135.18 385.077 135.59 384.945 135.949 384.703C136.312 384.462 136.607 384.122 136.835 383.681L137.262 383.941L134.498 382.775L135.35 381.131L139.837 383.023L139.162 384.324C138.692 385.232 138.089 385.929 137.352 386.413C136.618 386.895 135.811 387.165 134.929 387.223C134.05 387.279 133.16 387.117 132.26 386.737C131.255 386.313 130.482 385.727 129.943 384.979C129.405 384.228 129.128 383.367 129.112 382.397C129.101 381.426 129.378 380.395 129.942 379.305C130.376 378.468 130.889 377.774 131.48 377.224C132.077 376.673 132.722 376.264 133.416 376C134.11 375.735 134.823 375.612 135.554 375.629C136.285 375.646 137.005 375.804 137.713 376.103C138.321 376.359 138.842 376.684 139.276 377.076C139.713 377.465 140.053 377.899 140.298 378.379C140.546 378.861 140.688 379.37 140.725 379.906C140.764 380.439 140.687 380.976 140.496 381.518L138.192 380.547Z" fill="white"/>
<path d="M140.063 389.769L144.69 379.092L152.106 381.638L151.3 383.499L146.21 381.752L145.108 384.296L149.816 385.912L149.009 387.773L144.301 386.157L143.196 388.707L148.307 390.461L147.501 392.322L140.063 389.769Z" fill="white"/>
<path d="M163.734 384.935L159.824 395.895L157.774 395.336L155.351 387.105L155.268 387.082L152.808 393.98L150.434 393.333L154.344 382.373L156.427 382.941L158.814 391.156L158.912 391.183L161.371 384.29L163.734 384.935Z" fill="white"/>
<path d="M175.514 391.524L173.073 391.04C173.113 390.721 173.098 390.427 173.027 390.158C172.957 389.886 172.837 389.643 172.669 389.429C172.501 389.215 172.288 389.034 172.03 388.886C171.777 388.74 171.487 388.634 171.16 388.569C170.569 388.452 170.015 388.495 169.497 388.696C168.98 388.894 168.526 389.244 168.134 389.744C167.743 390.24 167.441 390.877 167.227 391.655C167.007 392.455 166.943 393.151 167.035 393.743C167.131 394.336 167.36 394.815 167.722 395.179C168.085 395.544 168.554 395.783 169.13 395.897C169.453 395.961 169.764 395.978 170.062 395.949C170.363 395.92 170.644 395.847 170.904 395.729C171.164 395.607 171.397 395.443 171.603 395.237C171.812 395.032 171.985 394.786 172.123 394.497L174.562 394.992C174.357 395.494 174.063 395.96 173.678 396.388C173.299 396.814 172.846 397.173 172.319 397.465C171.797 397.754 171.214 397.951 170.571 398.054C169.932 398.155 169.246 398.133 168.514 397.988C167.496 397.786 166.648 397.379 165.97 396.767C165.295 396.156 164.844 395.375 164.615 394.425C164.39 393.475 164.445 392.39 164.78 391.17C165.116 389.947 165.636 388.952 166.34 388.187C167.044 387.421 167.859 386.893 168.785 386.603C169.712 386.309 170.677 386.261 171.68 386.46C172.341 386.591 172.93 386.804 173.444 387.098C173.962 387.394 174.393 387.76 174.735 388.198C175.078 388.631 175.318 389.128 175.454 389.686C175.595 390.245 175.614 390.858 175.514 391.524Z" fill="white"/>
<path d="M177.001 399.396L179.267 387.982L187.044 388.988L186.648 390.978L181.312 390.287L180.772 393.007L185.708 393.646L185.313 395.635L180.377 394.997L179.836 397.722L185.195 398.415L184.8 400.405L177.001 399.396Z" fill="white"/>
<path d="M193.438 400.187L190.805 400.061L196.063 388.684L199.23 388.836L201.991 400.597L199.357 400.471L197.407 391.406L197.316 391.401L193.438 400.187ZM193.763 395.632L199.983 395.93L199.778 397.839L193.557 397.541L193.763 395.632Z" fill="white"/>
<path d="M214.902 388.81L214.569 400.442L212.444 400.489L207.593 393.281L207.508 393.283L207.298 400.604L204.838 400.659L205.172 389.028L207.33 388.979L212.142 396.183L212.244 396.18L212.454 388.865L214.902 388.81Z" fill="white"/>
<path d="M222.299 399.911L218.19 400.278L217.641 388.655L221.783 388.284C222.949 388.18 223.964 388.323 224.827 388.713C225.69 389.1 226.369 389.706 226.862 390.532C227.36 391.358 227.637 392.374 227.694 393.581C227.751 394.792 227.572 395.853 227.157 396.764C226.745 397.674 226.126 398.4 225.299 398.942C224.476 399.483 223.476 399.806 222.299 399.911ZM220.541 397.953L222.098 397.814C222.822 397.75 223.425 397.566 223.907 397.265C224.393 396.959 224.747 396.523 224.971 395.956C225.197 395.385 225.29 394.666 225.249 393.799C225.209 392.941 225.049 392.25 224.771 391.728C224.496 391.205 224.105 390.837 223.599 390.624C223.092 390.411 222.477 390.337 221.753 390.402L220.191 390.541L220.541 397.953Z" fill="white"/>
<path d="M245.201 388.967L242.753 389.415C242.659 389.105 242.525 388.839 242.349 388.617C242.172 388.391 241.962 388.21 241.719 388.074C241.476 387.937 241.205 387.848 240.908 387.806C240.614 387.764 240.303 387.773 239.975 387.833C239.382 387.941 238.889 388.183 238.495 388.559C238.1 388.932 237.825 389.421 237.67 390.027C237.514 390.629 237.497 391.328 237.62 392.126C237.746 392.946 237.974 393.612 238.302 394.126C238.634 394.639 239.042 394.997 239.525 395.201C240.009 395.405 240.539 395.455 241.117 395.349C241.441 395.29 241.734 395.192 241.997 395.055C242.263 394.918 242.491 394.747 242.682 394.543C242.872 394.335 243.02 394.098 243.124 393.833C243.233 393.567 243.291 393.275 243.3 392.958L245.749 392.521C245.767 393.061 245.688 393.599 245.51 394.136C245.335 394.668 245.065 395.166 244.7 395.629C244.338 396.088 243.882 396.483 243.331 396.815C242.784 397.142 242.143 397.373 241.409 397.507C240.388 397.694 239.44 397.628 238.563 397.311C237.691 396.994 236.954 396.438 236.352 395.643C235.754 394.848 235.359 393.825 235.166 392.575C234.973 391.32 235.043 390.211 235.377 389.245C235.711 388.279 236.245 387.493 236.978 386.885C237.712 386.274 238.581 385.876 239.587 385.692C240.251 385.571 240.88 385.552 241.475 385.636C242.074 385.718 242.621 385.899 243.116 386.178C243.611 386.454 244.036 386.824 244.391 387.291C244.75 387.756 245.02 388.315 245.201 388.967Z" fill="white"/>
<path d="M259.253 387.203C259.555 388.436 259.578 389.545 259.324 390.532C259.074 391.517 258.605 392.342 257.917 393.007C257.232 393.667 256.393 394.127 255.4 394.386C254.4 394.647 253.446 394.653 252.539 394.405C251.632 394.156 250.842 393.66 250.169 392.916C249.496 392.171 249.009 391.185 248.709 389.956C248.408 388.723 248.382 387.614 248.633 386.629C248.883 385.644 249.351 384.821 250.036 384.161C250.719 383.497 251.562 383.034 252.562 382.773C253.555 382.514 254.505 382.509 255.412 382.757C256.322 383.001 257.113 383.495 257.786 384.24C258.463 384.983 258.952 385.971 259.253 387.203ZM256.84 387.833C256.645 387.035 256.361 386.393 255.989 385.907C255.62 385.42 255.187 385.09 254.689 384.919C254.191 384.748 253.654 384.737 253.079 384.887C252.503 385.037 252.036 385.31 251.676 385.705C251.317 386.101 251.085 386.604 250.981 387.214C250.88 387.823 250.927 388.527 251.122 389.326C251.318 390.124 251.599 390.767 251.968 391.254C252.34 391.74 252.775 392.069 253.273 392.24C253.771 392.412 254.308 392.422 254.884 392.272C255.459 392.122 255.927 391.849 256.286 391.454C256.646 391.059 256.876 390.556 256.976 389.947C257.081 389.336 257.035 388.632 256.84 387.833Z" fill="white"/>
<path d="M264.341 391.679L260.74 380.614L263.076 379.841L266.049 388.977L270.786 387.411L271.413 389.339L264.341 391.679Z" fill="white"/>
<path d="M274.927 388.04L270.594 377.24L272.882 376.336L276.46 385.253L281.099 383.418L281.854 385.3L274.927 388.04Z" fill="white"/>
<path d="M287.444 382.821L285.056 383.938L283.604 371.772L286.476 370.429L295.2 379.194L292.812 380.311L286.245 373.473L286.162 373.511L287.444 382.821ZM285.294 378.778L290.935 376.14L291.775 377.867L286.134 380.505L285.294 378.778Z" fill="white"/>
<path d="M297.798 377.758L291.937 367.705L296.022 365.464C296.773 365.052 297.462 364.818 298.092 364.763C298.721 364.707 299.275 364.804 299.755 365.055C300.232 365.303 300.618 365.679 300.912 366.183C301.141 366.575 301.262 366.964 301.276 367.349C301.289 367.731 301.211 368.094 301.042 368.437C300.876 368.774 300.637 369.08 300.328 369.354L300.385 369.452C300.783 369.255 301.21 369.163 301.665 369.177C302.123 369.189 302.564 369.317 302.986 369.56C303.406 369.8 303.761 370.167 304.049 370.661C304.36 371.195 304.503 371.745 304.478 372.311C304.455 372.873 304.253 373.417 303.873 373.946C303.493 374.474 302.921 374.947 302.157 375.367L297.798 377.758ZM298.942 374.837L300.7 373.872C301.301 373.542 301.674 373.189 301.818 372.812C301.96 372.432 301.92 372.052 301.699 371.672C301.537 371.394 301.326 371.186 301.066 371.048C300.806 370.91 300.514 370.85 300.191 370.867C299.871 370.883 299.539 370.985 299.193 371.175L297.385 372.167L298.942 374.837ZM296.547 370.729L298.146 369.851C298.441 369.689 298.674 369.494 298.844 369.267C299.016 369.035 299.112 368.787 299.135 368.525C299.16 368.26 299.095 367.995 298.941 367.73C298.729 367.367 298.427 367.146 298.035 367.068C297.646 366.987 297.213 367.078 296.735 367.341L295.096 368.24L296.547 370.729Z" fill="white"/>
<path d="M314.281 361.096C315.005 362.139 315.417 363.156 315.519 364.147C315.625 365.136 315.464 366.046 315.036 366.877C314.61 367.704 313.964 368.394 313.1 368.947C312.229 369.505 311.314 369.813 310.354 369.87C309.394 369.928 308.46 369.72 307.551 369.246C306.641 368.772 305.826 368.015 305.105 366.975C304.382 365.933 303.968 364.917 303.862 363.928C303.757 362.939 303.918 362.031 304.344 361.205C304.769 360.376 305.416 359.682 306.287 359.124C307.151 358.571 308.063 358.265 309.023 358.207C309.984 358.145 310.919 358.351 311.828 358.825C312.74 359.296 313.558 360.054 314.281 361.096ZM312.181 362.442C311.713 361.767 311.214 361.263 310.685 360.932C310.159 360.6 309.627 360.433 309.087 360.432C308.548 360.432 308.028 360.592 307.527 360.912C307.026 361.233 306.672 361.633 306.465 362.112C306.259 362.591 306.212 363.128 306.327 363.725C306.444 364.319 306.737 364.954 307.206 365.63C307.674 366.305 308.171 366.809 308.697 367.142C309.226 367.473 309.76 367.639 310.299 367.64C310.839 367.64 311.359 367.48 311.86 367.159C312.36 366.839 312.714 366.439 312.921 365.96C313.128 365.481 313.173 364.945 313.055 364.35C312.941 363.753 312.65 363.117 312.181 362.442Z" fill="white"/>
<path d="M320.53 363.709L313.177 354.691L316.866 351.958C317.572 351.434 318.274 351.11 318.971 350.984C319.67 350.852 320.331 350.911 320.954 351.161C321.578 351.405 322.133 351.825 322.619 352.421C323.107 353.02 323.393 353.634 323.477 354.264C323.559 354.891 323.439 355.508 323.117 356.113C322.799 356.716 322.28 357.284 321.562 357.816L319.092 359.646L317.843 358.114L319.993 356.521C320.37 356.241 320.643 355.959 320.811 355.674C320.979 355.389 321.043 355.102 321.002 354.812C320.964 354.52 320.824 354.226 320.582 353.929C320.338 353.63 320.07 353.424 319.778 353.311C319.488 353.195 319.174 353.179 318.836 353.26C318.497 353.336 318.138 353.515 317.758 353.797L316.425 354.785L322.507 362.245L320.53 363.709ZM322.233 355.864L327.903 358.247L325.721 359.863L320.101 357.444L322.233 355.864Z" fill="white"/>
<path d="M331.617 355.114L329.61 356.823L324.648 345.788L327.061 343.733L338.136 349.562L336.129 351.272L327.722 346.657L327.653 346.716L331.617 355.114ZM328.339 351.907L333.08 347.869L334.404 349.261L329.663 353.298L328.339 351.907Z" fill="white"/>
<path d="M332.644 341.482L331.145 340.116L338.009 333.466L339.508 334.832L336.949 337.311L344.051 343.783L342.304 345.475L335.203 339.003L332.644 341.482Z" fill="white"/>
<path d="M341.918 330.677L350.905 338.068L349.219 339.86L340.232 332.468L341.918 330.677Z" fill="white"/>
<path d="M355.427 323.906C356.452 324.655 357.168 325.475 357.577 326.367C357.988 327.256 358.116 328.155 357.963 329.063C357.809 329.965 357.4 330.809 356.738 331.593C356.071 332.383 355.282 332.953 354.372 333.304C353.462 333.655 352.494 333.75 351.467 333.59C350.44 333.43 349.415 332.977 348.393 332.231C347.369 331.483 346.651 330.664 346.24 329.775C345.829 328.885 345.7 327.989 345.854 327.087C346.005 326.182 346.415 325.335 347.082 324.545C347.745 323.761 348.531 323.193 349.441 322.842C350.35 322.486 351.318 322.388 352.345 322.548C353.374 322.706 354.402 323.158 355.427 323.906ZM353.817 325.812C353.153 325.327 352.514 325.013 351.899 324.868C351.286 324.72 350.72 324.73 350.198 324.896C349.676 325.063 349.224 325.373 348.84 325.828C348.456 326.282 348.239 326.764 348.188 327.275C348.138 327.785 348.261 328.301 348.558 328.822C348.858 329.34 349.339 329.841 350.003 330.326C350.667 330.81 351.305 331.126 351.918 331.274C352.532 331.418 353.101 331.408 353.622 331.241C354.144 331.074 354.596 330.764 354.98 330.31C355.364 329.855 355.581 329.373 355.632 328.863C355.682 328.352 355.558 327.838 355.258 327.32C354.961 326.799 354.481 326.296 353.817 325.812Z" fill="white"/>
<path d="M357.91 310.658L367.801 316.787L366.549 318.504L357.341 318.737L357.29 318.805L363.516 322.663L362.066 324.651L352.175 318.522L353.447 316.777L362.627 316.574L362.688 316.491L356.467 312.636L357.91 310.658Z" fill="white"/>
<path d="M378 208C378 300.784 302.784 376 210 376C117.216 376 42 300.784 42 208C42 115.216 117.216 40 210 40C302.784 40 378 115.216 378 208Z" fill="#0074E9"/>
<path d="M321 209C321 270.856 270.856 321 209 321C147.144 321 97 270.856 97 209C97 147.144 147.144 97 209 97C270.856 97 321 147.144 321 209Z" fill="url(#paint0_linear_1_2473)"/>
<path d="M160.165 88.7865L156.383 89.9401L157.055 71.487L161.604 70.0997L172.451 85.0399L168.668 86.1935L160.558 74.5886L160.427 74.6284L160.165 88.7865ZM157.928 82.2962L166.862 79.5714L167.703 82.3268L158.768 85.0516L157.928 82.2962Z" fill="white"/>
<path d="M174.248 66.939L178.044 83.9758L174.442 84.7783L170.646 67.7416L174.248 66.939Z" fill="white"/>
<path d="M191.818 63.2714L188.98 84.726L185.879 85.1359L188.717 63.6813L191.818 63.2714Z" fill="white"/>
<path d="M212.81 68.7606C212.686 68.3471 212.514 67.9824 212.295 67.6665C212.076 67.3449 211.809 67.0749 211.494 66.8566C211.185 66.6326 210.831 66.463 210.432 66.3479C210.039 66.2327 209.603 66.1776 209.126 66.1826C208.234 66.1919 207.452 66.4217 206.781 66.872C206.115 67.3222 205.599 67.9725 205.233 68.823C204.867 69.6678 204.69 70.6981 204.703 71.9139C204.716 73.1298 204.911 74.1619 205.289 75.0102C205.668 75.8586 206.197 76.5036 206.878 76.9454C207.559 77.3814 208.359 77.5946 209.28 77.585C210.115 77.5762 210.826 77.421 211.414 77.1194C212.008 76.812 212.458 76.384 212.764 75.8353C213.077 75.2865 213.229 74.64 213.221 73.8957L213.972 73.9986L209.473 74.0458L209.444 71.2676L216.747 71.191L216.77 73.3897C216.786 74.9237 216.476 76.2452 215.84 77.3542C215.204 78.4576 214.321 79.3135 213.191 79.9219C212.061 80.5247 210.763 80.8338 209.297 80.8492C207.661 80.8664 206.219 80.5207 204.973 79.8121C203.727 79.0978 202.75 78.0768 202.043 76.7489C201.342 75.4153 200.981 73.8281 200.962 71.9872C200.947 70.5726 201.139 69.3091 201.536 68.1969C201.939 67.079 202.509 66.1298 203.245 65.3493C203.981 64.5688 204.841 63.9717 205.826 63.5579C206.81 63.1442 207.879 62.9313 209.032 62.9192C210.021 62.9088 210.943 63.044 211.798 63.3248C212.653 63.6 213.413 63.9954 214.078 64.5112C214.748 65.0269 215.297 65.6434 215.725 66.3605C216.153 67.072 216.431 67.8589 216.559 68.7212L212.81 68.7606Z" fill="white"/>
<path d="M219.482 80.7597L221.12 63.3823L232.829 64.4863L232.544 67.5155L224.508 66.7579L224.118 70.8986L231.551 71.5994L231.265 74.6286L223.832 73.9278L223.441 78.077L231.51 78.8378L231.225 81.867L219.482 80.7597Z" fill="white"/>
<path d="M251.333 67.8396L247.974 84.9678L244.846 84.3544L239.508 72.1125L239.383 72.0878L237.269 82.8683L233.647 82.158L237.006 65.0298L240.185 65.6531L245.465 77.8752L245.616 77.9047L247.728 67.1326L251.333 67.8396Z" fill="white"/>
<path d="M258.522 88.0618L254.789 86.7572L266.235 72.2675L270.725 73.8363L270.647 92.2987L266.914 90.9942L267.228 76.8398L267.1 76.7948L258.522 88.0618ZM260.552 81.5035L269.37 84.5849L268.42 87.3043L259.602 84.2229L260.552 81.5035Z" fill="white"/>
<path d="M282.531 78.6584L275.533 94.6487L272.153 93.1691L279.151 77.1788L282.531 78.6584Z" fill="white"/>
<path d="M184.35 169.046C182.074 169.312 179.755 170.388 177.438 172.252L177.402 172.281L177.354 172.274C177.053 172.224 176.808 172.224 176.496 172.224C174.475 172.372 172.904 174.159 173.005 176.209C173.153 178.23 174.953 179.795 177.008 179.693C178.698 179.598 180.149 178.298 180.459 176.605L180.466 176.571L180.492 176.547C181.969 175.206 183.481 174.548 185.096 174.548C185.283 174.548 185.474 174.557 185.664 174.575C187.829 174.825 190.12 176.209 192.675 178.805C195.186 181.356 197.748 184.796 200.144 188.131L203.656 193.079C205.137 195.164 206.667 197.32 208.218 199.339C209.589 201.055 211.424 203.223 213.443 204.744C215.59 206.36 217.686 206.989 219.846 206.668L220.538 206.546L220.142 206.074C216.063 201.808 212.767 196.96 210.36 193.42L206.251 187.48C203.324 183.271 200.558 179.295 197.664 176.131C193.351 171.311 189.519 169.046 185.602 169C185.001 169 184.581 169.016 184.35 169.046Z" fill="white"/>
<path d="M180.614 189.988L180.611 190.025C180.459 191.898 178.985 193.364 177.11 193.51C177.048 193.513 176.985 193.513 176.923 193.513C174.944 193.513 173.25 191.983 173.105 190.026C173.004 187.976 174.575 186.189 176.6 186.041H176.901L183.005 179.819C183.892 178.91 185.122 178.4 186.384 178.444C187.612 178.476 188.73 178.998 189.533 179.912L189.74 180.2L180.614 189.986V189.988Z" fill="white"/>
<path d="M176.936 199.559L176.857 199.556C174.79 199.556 173.107 201.23 173.107 203.289C173.107 205.348 174.79 207.022 176.859 207.022C177.032 207.022 177.197 206.998 177.369 206.973L177.442 206.962C179.169 206.692 180.459 205.295 180.584 203.553V203.517L196.066 186.849L192.697 182.817L176.936 199.559Z" fill="white"/>
<path d="M233.458 209.332C236.319 209.013 239.142 207.45 242.111 204.545L242.142 204.516H242.597C244.615 204.364 246.14 202.579 245.989 200.535C245.841 198.512 244.039 196.943 241.985 197.049C240.089 197.199 238.638 198.663 238.535 200.533V200.569L238.51 200.597C236.411 202.977 234.309 204.025 232.093 203.805C229.93 203.555 227.637 202.17 225.084 199.575C222.571 197.022 220.008 193.582 217.615 190.247L214.092 185.284C212.615 183.205 211.088 181.053 209.541 179.039C208.168 177.323 206.333 175.155 204.313 173.634C202.167 172.018 200.072 171.389 197.911 171.71L197.25 171.788L197.713 172.249C201.795 176.515 205.093 181.367 207.499 184.906L210.893 189.82C214.332 194.895 217.221 198.95 220.144 202.247C224.455 207.065 228.288 209.331 232.206 209.376C232.826 209.376 233.156 209.36 233.458 209.331V209.332Z" fill="white"/>
<path d="M242.296 191.463H242.494C243.504 191.416 244.424 190.984 245.081 190.247C245.738 189.508 246.061 188.545 245.99 187.533C245.845 185.573 244.151 184.042 242.172 184.042C242.109 184.042 242.049 184.042 241.987 184.046C240.06 184.194 238.587 185.702 238.484 187.632V187.672L228.125 198.733L228.326 198.974C229.135 199.897 230.271 200.42 231.525 200.446C231.556 200.446 231.587 200.446 231.616 200.446C232.844 200.446 234.021 199.948 234.853 199.07L242.293 191.462L242.296 191.463Z" fill="white"/>
<path d="M221.752 192.035L225.165 196.075L242.601 177.549L242.637 177.545C244.666 177.343 246.138 175.594 245.99 173.562C245.841 171.541 244.043 169.967 241.985 170.077C239.923 170.226 238.383 171.955 238.484 174.011V174.054L221.75 192.035H221.752Z" fill="white"/>
<path d="M158.142 238V220.545H169.903V223.588H161.832V227.747H169.298V230.79H161.832V234.957H169.938V238H158.142ZM181.164 232.426V224.909H184.795V238H181.309V235.622H181.173C180.877 236.389 180.386 237.006 179.698 237.472C179.016 237.937 178.184 238.17 177.201 238.17C176.326 238.17 175.556 237.972 174.891 237.574C174.227 237.176 173.707 236.611 173.332 235.878C172.962 235.145 172.775 234.267 172.769 233.244V224.909H176.4V232.597C176.406 233.369 176.613 233.98 177.022 234.429C177.431 234.878 177.979 235.102 178.667 235.102C179.104 235.102 179.513 235.003 179.894 234.804C180.275 234.599 180.582 234.298 180.815 233.901C181.053 233.503 181.17 233.011 181.164 232.426ZM187.699 238V224.909H191.219V227.193H191.355C191.594 226.381 191.994 225.767 192.557 225.352C193.119 224.932 193.767 224.722 194.5 224.722C194.682 224.722 194.878 224.733 195.088 224.756C195.298 224.778 195.483 224.81 195.642 224.849V228.071C195.472 228.02 195.236 227.974 194.935 227.935C194.634 227.895 194.358 227.875 194.108 227.875C193.574 227.875 193.097 227.991 192.676 228.224C192.261 228.452 191.932 228.77 191.688 229.179C191.449 229.588 191.33 230.06 191.33 230.594V238H187.699ZM202.876 238.256C201.529 238.256 200.37 237.983 199.398 237.438C198.433 236.886 197.688 236.108 197.165 235.102C196.643 234.091 196.381 232.895 196.381 231.514C196.381 230.168 196.643 228.986 197.165 227.969C197.688 226.952 198.424 226.159 199.373 225.591C200.327 225.023 201.447 224.739 202.731 224.739C203.594 224.739 204.398 224.878 205.143 225.156C205.893 225.429 206.546 225.841 207.103 226.392C207.665 226.943 208.103 227.636 208.415 228.472C208.728 229.301 208.884 230.273 208.884 231.386V232.384H197.83V230.134H205.467C205.467 229.611 205.353 229.148 205.126 228.744C204.898 228.341 204.583 228.026 204.18 227.798C203.782 227.565 203.319 227.449 202.79 227.449C202.239 227.449 201.751 227.577 201.325 227.832C200.904 228.082 200.575 228.42 200.336 228.847C200.097 229.267 199.975 229.736 199.969 230.253V232.392C199.969 233.04 200.089 233.599 200.327 234.071C200.572 234.543 200.915 234.906 201.359 235.162C201.802 235.418 202.327 235.545 202.935 235.545C203.339 235.545 203.708 235.489 204.043 235.375C204.379 235.261 204.665 235.091 204.904 234.864C205.143 234.636 205.325 234.358 205.45 234.028L208.808 234.25C208.637 235.057 208.288 235.761 207.759 236.364C207.237 236.96 206.56 237.426 205.731 237.761C204.907 238.091 203.955 238.256 202.876 238.256ZM214.543 234.233L214.552 229.878H215.08L219.273 224.909H223.441L217.808 231.489H216.947L214.543 234.233ZM211.254 238V220.545H214.884V238H211.254ZM219.435 238L215.583 232.298L218.004 229.733L223.688 238H219.435ZM228.955 238.247C228.12 238.247 227.376 238.102 226.722 237.812C226.069 237.517 225.552 237.082 225.171 236.509C224.796 235.929 224.609 235.207 224.609 234.344C224.609 233.616 224.742 233.006 225.009 232.511C225.276 232.017 225.64 231.619 226.1 231.318C226.56 231.017 227.083 230.79 227.668 230.636C228.259 230.483 228.879 230.375 229.526 230.312C230.288 230.233 230.901 230.159 231.367 230.091C231.833 230.017 232.171 229.909 232.381 229.767C232.592 229.625 232.697 229.415 232.697 229.136V229.085C232.697 228.545 232.526 228.128 232.185 227.832C231.85 227.537 231.373 227.389 230.754 227.389C230.1 227.389 229.58 227.534 229.194 227.824C228.808 228.108 228.552 228.466 228.427 228.898L225.069 228.625C225.239 227.83 225.575 227.142 226.075 226.562C226.575 225.977 227.219 225.528 228.009 225.216C228.805 224.898 229.725 224.739 230.771 224.739C231.498 224.739 232.194 224.824 232.859 224.994C233.529 225.165 234.123 225.429 234.64 225.787C235.163 226.145 235.575 226.605 235.876 227.168C236.177 227.724 236.327 228.392 236.327 229.17V238H232.884V236.185H232.782C232.572 236.594 232.29 236.955 231.938 237.267C231.586 237.574 231.163 237.815 230.668 237.991C230.174 238.162 229.603 238.247 228.955 238.247ZM229.995 235.741C230.529 235.741 231.001 235.636 231.41 235.426C231.819 235.21 232.14 234.92 232.373 234.557C232.606 234.193 232.722 233.781 232.722 233.321V231.932C232.609 232.006 232.452 232.074 232.254 232.136C232.06 232.193 231.842 232.247 231.597 232.298C231.353 232.344 231.109 232.386 230.864 232.426C230.62 232.46 230.398 232.491 230.2 232.52C229.773 232.582 229.401 232.682 229.083 232.818C228.765 232.955 228.518 233.139 228.342 233.372C228.165 233.599 228.077 233.884 228.077 234.224C228.077 234.719 228.256 235.097 228.614 235.358C228.978 235.614 229.438 235.741 229.995 235.741ZM242.221 238H238.266L244.292 220.545H249.048L255.065 238H251.11L246.738 224.534H246.602L242.221 238ZM241.974 231.139H251.315V234.02H241.974V231.139ZM260.856 220.545V238H257.165V220.545H260.856Z" fill="white"/>
<defs>
<linearGradient id="paint0_linear_1_2473" x1="224.5" y1="401" x2="209" y2="74" gradientUnits="userSpaceOnUse">
<stop stop-color="#3374E2"/>
<stop offset="1" stop-color="#00EAC3"/>
</linearGradient>
</defs>
</svg>
