<svg width="250" height="250" viewBox="0 0 250 250" fill="none" xmlns="http://www.w3.org/2000/svg">
<circle cx="125" cy="125" r="125" fill="url(#paint0_linear_8_908)"/>
<circle cx="124.714" cy="124.714" r="115.714" fill="url(#paint1_linear_8_908)"/>
<path d="M142.357 83H146.068C146.427 83.2617 146.533 83.6172 146.53 84.0534C146.518 86.5586 146.526 89.0651 146.521 91.5716C146.521 91.7643 146.512 91.9674 146.451 92.1471C146.339 92.4792 146.072 92.6289 145.727 92.6016C145.382 92.5742 145.148 92.3854 145.086 92.0365C145.055 91.862 145.061 91.6797 145.061 91.5013C145.06 89.3372 145.061 87.1732 145.061 85.0091V84.4935H143.387V128.354H145.061V127.704C145.061 117.079 145.061 106.453 145.061 95.8281C145.061 95.6172 145.052 95.4023 145.081 95.1953C145.132 94.8216 145.37 94.6172 145.738 94.5938C146.105 94.5703 146.37 94.7422 146.471 95.1042C146.514 95.2578 146.522 95.4245 146.522 95.5859C146.525 106.667 146.525 117.749 146.522 128.829C146.522 129.615 146.284 129.846 145.497 129.85C144.802 129.853 144.105 129.85 143.35 129.85C143.35 130.613 143.331 131.326 143.357 132.036C143.372 132.477 143.225 132.792 142.842 133H138.253C138.069 132.745 137.823 132.514 137.716 132.23C137.469 131.578 137.279 130.905 137.086 130.233C137.009 129.964 136.898 129.842 136.589 129.842C129.038 129.852 121.488 129.852 113.937 129.842C113.629 129.842 113.518 129.962 113.44 130.233C113.249 130.905 113.057 131.578 112.81 132.23C112.702 132.514 112.456 132.745 112.273 133H107.684C107.298 132.793 107.152 132.477 107.169 132.036C107.195 131.326 107.176 130.613 107.176 129.85C106.454 129.85 105.79 129.85 105.128 129.85C104.208 129.85 104.005 129.648 104.005 128.732C104.005 123.378 104.005 118.023 104.005 112.671C104.005 111.921 104.234 111.56 104.72 111.542C105.224 111.523 105.469 111.892 105.469 112.673C105.469 117.702 105.469 122.73 105.469 127.758V128.341H107.151V84.5H105.469V85.1628C105.469 92.8919 105.469 100.622 105.469 108.352C105.469 108.547 105.477 108.743 105.453 108.936C105.405 109.329 105.169 109.552 104.773 109.569C104.378 109.586 104.125 109.38 104.04 108.996C104.007 108.84 104.007 108.673 104.007 108.512C104.005 100.359 104.007 92.2057 104 84.0534C104 83.6159 104.102 83.2604 104.462 83H108.173C108.57 83.2617 108.648 83.6432 108.647 84.0951C108.637 88.099 108.641 92.1016 108.641 96.1055C108.641 96.2943 108.641 96.4818 108.641 96.6693H111.896C111.896 96.4414 111.896 96.2487 111.896 96.056C111.896 93.013 111.896 89.9701 111.896 86.9271C111.896 86.0807 112.122 85.8529 112.965 85.8516C114.82 85.8503 116.676 85.8516 118.531 85.8516C119.484 85.8516 119.687 86.0521 119.687 86.987C119.687 90.0299 119.687 93.0729 119.687 96.1159V96.681H121.367C121.367 96.4674 121.367 96.2773 121.367 96.0859C121.367 93.026 121.367 89.9674 121.367 86.9076C121.367 86.0898 121.599 85.8529 122.406 85.8516C124.294 85.849 126.182 85.8503 128.07 85.8516C128.941 85.8516 129.159 86.0742 129.159 86.957C129.159 90 129.159 93.043 129.159 96.0859V96.6732H130.839V96.1159C130.839 93.0729 130.839 90.0299 130.839 86.987C130.839 86.0508 131.04 85.8529 131.993 85.8516C133.849 85.8516 135.704 85.8503 137.56 85.8516C138.402 85.8516 138.629 86.082 138.629 86.9271C138.629 89.987 138.629 93.0456 138.629 96.1055V96.6693H141.884C141.884 96.4414 141.884 96.2487 141.884 96.056C141.884 92.069 141.888 88.082 141.878 84.0951C141.878 83.6432 141.954 83.2617 142.352 83H142.357ZM126.892 109.421V104.638C126.276 104.431 126.062 104.169 126.137 103.723C126.206 103.311 126.507 103.124 127.107 103.121C127.628 103.12 128.148 103.121 128.669 103.121C129.613 103.121 130.557 103.121 131.501 103.121C131.885 103.121 132.172 103.289 132.275 103.665C132.371 104.017 132.243 104.31 131.918 104.491C131.797 104.559 131.658 104.591 131.56 104.628V109.41H134.772V104.632C134.716 104.612 134.659 104.591 134.599 104.573C134.181 104.449 133.962 104.176 134.03 103.738C134.099 103.293 134.414 103.125 134.836 103.121C135.031 103.118 135.227 103.121 135.422 103.121C136.741 103.121 138.06 103.099 139.376 103.142C139.632 103.15 139.954 103.362 140.103 103.578C140.208 103.732 140.143 104.091 140.029 104.284C139.922 104.464 139.65 104.546 139.457 104.668V109.408H141.855V101.341H141.297C139.637 101.341 137.977 101.341 136.316 101.341C136.203 101.341 136.089 101.346 135.975 101.339C135.486 101.309 135.171 101.016 135.173 100.595C135.176 100.171 135.484 99.8815 135.986 99.8802C137.76 99.8724 139.534 99.8763 141.309 99.8763C141.483 99.8763 141.658 99.8763 141.846 99.8763V98.207H108.678V99.8763H109.337C116.906 99.8763 124.474 99.8763 132.043 99.8763C132.221 99.8763 132.404 99.8646 132.579 99.8893C132.948 99.9414 133.164 100.163 133.194 100.535C133.224 100.905 133.059 101.176 132.701 101.279C132.503 101.336 132.284 101.337 132.074 101.337C124.473 101.34 116.872 101.34 109.271 101.34H108.682V109.409H111.098V104.637C111.047 104.616 111.007 104.591 110.962 104.581C110.542 104.478 110.309 104.217 110.337 103.779C110.362 103.382 110.686 103.134 111.164 103.121C111.505 103.112 111.848 103.118 112.189 103.118C113.361 103.118 114.533 103.118 115.704 103.118C116.083 103.118 116.422 103.266 116.465 103.654C116.492 103.902 116.35 104.195 116.212 104.426C116.138 104.548 115.91 104.577 115.78 104.635V109.409H118.995V104.626C118.893 104.594 118.785 104.57 118.686 104.525C118.352 104.372 118.185 104.109 118.24 103.742C118.294 103.374 118.538 103.135 118.897 103.13C120.508 103.112 122.12 103.112 123.73 103.13C124.087 103.134 124.336 103.361 124.395 103.733C124.452 104.1 124.298 104.367 123.961 104.522C123.861 104.568 123.753 104.594 123.659 104.625V109.417H126.892V109.421ZM108.664 128.354H141.858V123.561H108.664V128.354ZM141.867 114.086H108.681V122.03H111.9C111.9 121.823 111.9 121.646 111.9 121.469C111.9 119.906 111.9 118.345 111.9 116.783C111.9 115.973 112.13 115.747 112.953 115.746C114.857 115.745 116.76 115.743 118.664 115.746C119.451 115.746 119.689 115.983 119.69 116.759C119.693 118.257 119.69 119.753 119.69 121.25V122.034H121.37C121.37 121.833 121.37 121.659 121.37 121.483C121.37 119.905 121.368 118.327 121.37 116.749C121.37 115.992 121.609 115.747 122.358 115.746C124.294 115.742 126.23 115.742 128.167 115.746C128.917 115.746 129.159 115.992 129.16 116.743C129.163 118.337 129.16 119.932 129.16 121.527C129.16 121.698 129.16 121.868 129.16 122.022H130.84C130.84 120.228 130.837 118.471 130.84 116.715C130.84 115.999 131.091 115.747 131.811 115.746C133.763 115.742 135.716 115.742 137.668 115.746C138.383 115.747 138.626 116.001 138.629 116.728C138.633 118.322 138.629 119.917 138.629 121.512V122.031H141.863V114.085L141.867 114.086ZM141.866 110.943H108.674V112.556H141.866V110.943ZM113.387 122.027H118.206V117.253H113.387V122.027ZM132.34 117.237V122.034H137.134V117.237H132.34ZM127.661 122.048V117.249H122.87V122.048H127.661ZM118.199 87.3516H113.392V89.6849H118.199V87.3516ZM127.659 89.6836V87.3529H122.865V89.6836H127.659ZM132.331 89.6719H137.135V87.3477H132.331V89.6719ZM118.189 96.6771V94.3594H113.395V96.6771H118.189ZM122.855 96.6589H127.66V94.3594H122.855V96.6589ZM137.135 96.6745V94.3555H132.333V96.6745H137.135ZM118.201 91.207H113.392V92.8216H118.201V91.207ZM127.671 91.207H122.862V92.8216H127.671V91.207ZM132.328 92.8268H137.13V91.2201H132.328V92.8268ZM114.238 109.422V104.615H112.605V109.422H114.238ZM122.118 109.422V104.624H120.517V109.422H122.118ZM130.016 109.421V104.609H128.418V109.421H130.016ZM137.918 109.423V104.622H136.307V109.423H137.918ZM108.663 131.535C109.56 131.535 110.402 131.54 111.243 131.529C111.349 131.527 111.52 131.454 111.548 131.374C111.719 130.892 111.857 130.4 112.012 129.891H108.663V131.535ZM138.512 129.874C138.677 130.411 138.811 130.876 138.967 131.333C138.996 131.417 139.117 131.523 139.197 131.525C140.083 131.538 140.97 131.534 141.855 131.534V129.874H138.51H138.512Z" fill="white"/>
<path d="M40.7193 147.455H44.5119L48.5176 157.227H48.688L52.6937 147.455H56.4863V162H53.5034V152.533H53.3826L49.6184 161.929H47.5872L43.823 152.497H43.7022V162H40.7193V147.455ZM59.0201 162V147.455H68.8212V149.99H62.0953V153.456H68.3169V155.991H62.0953V159.464H68.8496V162H59.0201ZM71.2662 162V147.455H77.0048C78.1033 147.455 79.0408 147.651 79.8173 148.044C80.5985 148.432 81.1928 148.984 81.6 149.699C82.0119 150.409 82.2179 151.245 82.2179 152.206C82.2179 153.172 82.0095 154.003 81.5929 154.699C81.1762 155.39 80.5725 155.92 79.7818 156.29C78.9958 156.659 78.0441 156.844 76.9267 156.844H73.0843V154.372H76.4295C77.0166 154.372 77.5043 154.292 77.8926 154.131C78.2808 153.97 78.5697 153.728 78.7591 153.406C78.9532 153.084 79.0502 152.684 79.0502 152.206C79.0502 151.723 78.9532 151.316 78.7591 150.984C78.5697 150.653 78.2785 150.402 77.8855 150.232C77.4972 150.056 77.0072 149.969 76.4153 149.969H74.3414V162H71.2662ZM79.1213 155.381L82.7363 162H79.3414L75.8045 155.381H79.1213ZM97.225 152.547H94.1142C94.0574 152.144 93.9413 151.787 93.7662 151.474C93.591 151.157 93.3661 150.887 93.0914 150.665C92.8168 150.442 92.4996 150.272 92.1397 150.153C91.7846 150.035 91.3987 149.976 90.9821 149.976C90.2292 149.976 89.5734 150.163 89.0147 150.537C88.456 150.906 88.0228 151.446 87.715 152.156C87.4073 152.862 87.2534 153.719 87.2534 154.727C87.2534 155.764 87.4073 156.635 87.715 157.341C88.0275 158.046 88.4631 158.579 89.0218 158.939C89.5806 159.299 90.2269 159.479 90.9608 159.479C91.3727 159.479 91.7538 159.424 92.1042 159.315C92.4593 159.206 92.7742 159.048 93.0488 158.839C93.3234 158.626 93.5507 158.368 93.7306 158.065C93.9153 157.762 94.0431 157.417 94.1142 157.028L97.225 157.043C97.1445 157.71 96.9432 158.354 96.6213 158.974C96.304 159.59 95.8755 160.142 95.3358 160.629C94.8007 161.112 94.1615 161.496 93.4181 161.78C92.6795 162.059 91.8438 162.199 90.911 162.199C89.6137 162.199 88.4537 161.905 87.4309 161.318C86.4129 160.731 85.608 159.881 85.0162 158.768C84.429 157.656 84.1355 156.309 84.1355 154.727C84.1355 153.141 84.4338 151.792 85.0304 150.679C85.627 149.566 86.4366 148.719 87.4593 148.136C88.4821 147.549 89.6326 147.256 90.911 147.256C91.7538 147.256 92.5351 147.374 93.2548 147.611C93.9792 147.848 94.6208 148.193 95.1795 148.648C95.7382 149.098 96.1928 149.649 96.5431 150.303C96.8983 150.956 97.1255 151.704 97.225 152.547ZM99.4302 162V147.455H102.506V153.456H108.748V147.455H111.817V162H108.748V155.991H102.506V162H99.4302ZM116.859 162H113.564L118.585 147.455H122.548L127.562 162H124.267L120.623 150.778H120.51L116.859 162ZM116.653 156.283H124.437V158.683H116.653V156.283ZM141.479 147.455V162H138.823L132.495 152.845H132.388V162H129.313V147.455H132.012L138.29 156.602H138.418V147.455H141.479ZM149.176 162H144.02V147.455H149.219C150.682 147.455 151.941 147.746 152.997 148.328C154.053 148.906 154.865 149.737 155.433 150.821C156.006 151.905 156.293 153.203 156.293 154.713C156.293 156.228 156.006 157.53 155.433 158.619C154.865 159.708 154.048 160.544 152.983 161.126C151.923 161.709 150.654 162 149.176 162ZM147.095 159.365H149.048C149.958 159.365 150.722 159.204 151.343 158.882C151.968 158.555 152.436 158.051 152.749 157.369C153.066 156.683 153.225 155.797 153.225 154.713C153.225 153.638 153.066 152.76 152.749 152.078C152.436 151.396 151.97 150.894 151.35 150.572C150.729 150.25 149.965 150.089 149.056 150.089H147.095V159.365ZM161.646 147.455V162H158.571V147.455H161.646ZM172.067 151.638C172.01 151.065 171.766 150.62 171.335 150.303C170.905 149.985 170.32 149.827 169.581 149.827C169.079 149.827 168.655 149.898 168.31 150.04C167.964 150.177 167.699 150.369 167.514 150.615C167.334 150.861 167.244 151.141 167.244 151.453C167.235 151.714 167.289 151.941 167.408 152.135C167.531 152.329 167.699 152.497 167.912 152.639C168.125 152.777 168.371 152.897 168.651 153.001C168.93 153.101 169.228 153.186 169.546 153.257L170.852 153.57C171.487 153.712 172.069 153.901 172.6 154.138C173.13 154.375 173.589 154.666 173.977 155.011C174.366 155.357 174.666 155.764 174.879 156.233C175.097 156.702 175.209 157.239 175.213 157.845C175.209 158.735 174.981 159.507 174.531 160.161C174.086 160.809 173.442 161.313 172.6 161.673C171.762 162.028 170.751 162.206 169.567 162.206C168.393 162.206 167.37 162.026 166.499 161.666C165.632 161.306 164.955 160.774 164.468 160.068C163.985 159.358 163.731 158.48 163.708 157.433H166.683C166.717 157.921 166.856 158.328 167.102 158.655C167.353 158.977 167.687 159.221 168.104 159.386C168.525 159.547 169.001 159.628 169.531 159.628C170.052 159.628 170.504 159.552 170.888 159.401C171.276 159.249 171.577 159.038 171.79 158.768C172.003 158.499 172.11 158.188 172.11 157.838C172.11 157.511 172.012 157.237 171.818 157.014C171.629 156.792 171.35 156.602 170.98 156.446C170.616 156.29 170.168 156.148 169.638 156.02L168.054 155.622C166.828 155.324 165.86 154.857 165.149 154.223C164.439 153.589 164.086 152.734 164.091 151.659C164.086 150.778 164.321 150.009 164.794 149.351C165.272 148.693 165.928 148.179 166.762 147.81C167.595 147.44 168.542 147.256 169.602 147.256C170.682 147.256 171.624 147.44 172.429 147.81C173.239 148.179 173.869 148.693 174.318 149.351C174.768 150.009 175 150.771 175.014 151.638H172.067ZM180.357 147.455V162H177.282V147.455H180.357ZM195.053 147.455V162H192.397L186.069 152.845H185.963V162H182.887V147.455H185.586L191.865 156.602H191.992V147.455H195.053ZM207.239 152.156C207.14 151.811 207 151.505 206.82 151.24C206.64 150.97 206.42 150.743 206.16 150.558C205.904 150.369 205.61 150.224 205.279 150.125C204.952 150.026 204.59 149.976 204.192 149.976C203.449 149.976 202.796 150.161 202.232 150.53C201.673 150.899 201.238 151.437 200.925 152.142C200.613 152.843 200.456 153.7 200.456 154.713C200.456 155.726 200.61 156.588 200.918 157.298C201.226 158.009 201.662 158.551 202.225 158.925C202.788 159.294 203.454 159.479 204.221 159.479C204.917 159.479 205.511 159.356 206.003 159.109C206.501 158.858 206.879 158.506 207.14 158.051C207.405 157.597 207.537 157.059 207.537 156.439L208.162 156.531H204.412V154.216H210.499V156.048C210.499 157.327 210.229 158.425 209.689 159.344C209.15 160.258 208.406 160.963 207.459 161.46C206.512 161.953 205.428 162.199 204.206 162.199C202.843 162.199 201.645 161.898 200.613 161.297C199.581 160.691 198.776 159.831 198.198 158.719C197.625 157.601 197.339 156.276 197.339 154.741C197.339 153.562 197.509 152.511 197.85 151.588C198.196 150.66 198.679 149.874 199.299 149.23C199.919 148.586 200.641 148.096 201.465 147.76C202.289 147.424 203.181 147.256 204.143 147.256C204.966 147.256 205.733 147.376 206.444 147.618C207.154 147.855 207.784 148.191 208.333 148.626C208.887 149.062 209.339 149.58 209.689 150.182C210.04 150.778 210.265 151.437 210.364 152.156H207.239Z" fill="white"/>
<defs>
<linearGradient id="paint0_linear_8_908" x1="33.3333" y1="42.9167" x2="208.75" y2="211.667" gradientUnits="userSpaceOnUse">
<stop stop-color="#2AD1FD"/>
<stop offset="1" stop-color="#02F2DF"/>
</linearGradient>
<linearGradient id="paint1_linear_8_908" x1="39.8571" y1="48.7286" x2="202.243" y2="204.943" gradientUnits="userSpaceOnUse">
<stop stop-color="#1AA7F8"/>
<stop offset="1" stop-color="#03E0C2"/>
</linearGradient>
</defs>
</svg>
