<svg width="143" height="143" viewBox="0 0 143 143" fill="none" xmlns="http://www.w3.org/2000/svg">
<circle cx="71.5" cy="71.5" r="71.5" fill="url(#paint0_linear_26_6350)" fill-opacity="0.5"/>
<circle cx="72" cy="71" r="61" fill="url(#paint1_linear_26_6350)"/>
<path d="M95.6995 36H100.895C101.398 36.3664 101.546 36.8641 101.542 37.4747C101.526 40.982 101.536 44.4911 101.529 48.0003C101.529 48.2701 101.516 48.5544 101.431 48.806C101.274 49.2708 100.9 49.4805 100.417 49.4422C99.9341 49.4039 99.6078 49.1396 99.5203 48.651C99.4766 48.4068 99.4857 48.1516 99.4857 47.9018C99.4838 44.8721 99.4857 41.8424 99.4857 38.8128V38.0909H97.1414V99.4958H99.4857V98.5862C99.4857 83.7112 99.4857 68.8344 99.4857 53.9594C99.4857 53.6641 99.4729 53.3633 99.513 53.0734C99.5841 52.5503 99.9177 52.2641 100.434 52.2313C100.948 52.1984 101.318 52.4391 101.46 52.9458C101.52 53.1609 101.531 53.3943 101.531 53.6203C101.535 69.1333 101.535 84.6482 101.531 100.161C101.531 101.26 101.197 101.585 100.096 101.59C99.1229 101.594 98.1476 101.59 97.0904 101.59C97.0904 102.659 97.063 103.656 97.0995 104.651C97.1213 105.267 96.9154 105.708 96.3794 106H89.9536C89.6966 105.643 89.3521 105.32 89.2026 104.923C88.8562 104.009 88.5901 103.067 88.3203 102.126C88.2128 101.749 88.0578 101.579 87.624 101.579C77.0529 101.592 66.4836 101.592 55.9125 101.579C55.4805 101.579 55.3255 101.747 55.2161 102.126C54.9482 103.067 54.6802 104.009 54.3339 104.923C54.1825 105.32 53.838 105.643 53.5828 106H47.157C46.6174 105.71 46.4133 105.267 46.437 104.651C46.4734 103.656 46.4461 102.659 46.4461 101.59C45.4362 101.59 44.5065 101.59 43.5786 101.59C42.2917 101.59 42.0073 101.308 42.0073 100.024C42.0073 92.5286 42.0073 85.0328 42.0073 77.5388C42.0073 76.4888 42.3281 75.9839 43.0081 75.9583C43.7135 75.9328 44.0562 76.4487 44.0562 77.5424C44.0562 84.5826 44.0562 91.6227 44.0562 98.6609V99.4776H46.4115V38.1H44.0562V39.0279C44.0562 49.8487 44.0562 60.6714 44.0562 71.4922C44.0562 71.7656 44.0672 72.0409 44.0344 72.3107C43.9669 72.8612 43.637 73.1729 43.0828 73.1966C42.5286 73.2203 42.175 72.9323 42.0565 72.3945C42.0091 72.1758 42.0091 71.9424 42.0091 71.7164C42.0073 60.3031 42.0091 48.888 42 37.4747C42 36.8622 42.1422 36.3646 42.6471 36H47.8424C48.3984 36.3664 48.5078 36.9005 48.506 37.5331C48.4914 43.1385 48.4969 48.7422 48.4969 54.3477C48.4969 54.612 48.4969 54.8745 48.4969 55.137H53.0542C53.0542 54.818 53.0542 54.5482 53.0542 54.2784C53.0542 50.0182 53.0542 45.7581 53.0542 41.4979C53.0542 40.313 53.3714 39.994 54.5508 39.9922C57.1484 39.9904 59.7461 39.9922 62.3437 39.9922C63.6781 39.9922 63.9625 40.2729 63.9625 41.5818C63.9625 45.8419 63.9625 50.1021 63.9625 54.3622V55.1534H66.3141C66.3141 54.8544 66.3141 54.5883 66.3141 54.3203C66.3141 50.0365 66.3141 45.7544 66.3141 41.4706C66.3141 40.3258 66.6385 39.994 67.7687 39.9922C70.412 39.9885 73.0552 39.9904 75.6984 39.9922C76.918 39.9922 77.2224 40.3039 77.2224 41.5398C77.2224 45.8 77.2224 50.0602 77.2224 54.3203V55.1424H79.574V54.3622C79.574 50.1021 79.574 45.8419 79.574 41.5818C79.574 40.2711 79.8565 39.994 81.1909 39.9922C83.7885 39.9922 86.3862 39.9904 88.9838 39.9922C90.1633 39.9922 90.4805 40.3148 90.4805 41.4979C90.4805 45.7818 90.4805 50.0638 90.4805 54.3477V55.137H95.0378C95.0378 54.818 95.0378 54.5482 95.0378 54.2784C95.0378 48.6966 95.0432 43.1148 95.0286 37.5331C95.0286 36.9005 95.1362 36.3664 95.6922 36L95.6995 36ZM74.0487 72.9888V66.2932C73.1865 66.0034 72.8875 65.637 72.9914 65.0117C73.088 64.4357 73.5091 64.1732 74.3495 64.1695C75.0786 64.1677 75.8078 64.1695 76.537 64.1695C77.8586 64.1695 79.1802 64.1695 80.5018 64.1695C81.0396 64.1695 81.4406 64.4047 81.5846 64.9315C81.7195 65.4237 81.5409 65.8339 81.0852 66.0872C80.9156 66.182 80.7206 66.2276 80.5839 66.2786V72.9742H85.081V66.2841C85.0026 66.2568 84.9224 66.2276 84.8385 66.2021C84.2534 66.0289 83.9471 65.6461 84.0419 65.0336C84.1385 64.4102 84.5797 64.175 85.1703 64.1695C85.4437 64.1659 85.7172 64.1695 85.9906 64.1695C87.8372 64.1695 89.6838 64.1385 91.5268 64.1987C91.8841 64.2096 92.3362 64.5068 92.544 64.8094C92.6917 65.0245 92.6005 65.5276 92.4401 65.7974C92.2906 66.049 91.9096 66.1638 91.6398 66.3352V72.9706H94.9977V61.6776H94.2156C91.8914 61.6776 89.5672 61.6776 87.243 61.6776C87.0844 61.6776 86.924 61.6849 86.7654 61.674C86.0799 61.632 85.6388 61.2219 85.6424 60.6331C85.6461 60.0388 86.0781 59.6341 86.7799 59.6323C89.2646 59.6214 91.7474 59.6268 94.232 59.6268C94.4763 59.6268 94.7206 59.6268 94.9849 59.6268V57.2898H48.5497V59.6268H49.4721C60.0687 59.6268 70.6635 59.6268 81.2602 59.6268C81.5099 59.6268 81.7651 59.6104 82.0112 59.6451C82.5271 59.718 82.8297 60.0279 82.8716 60.5492C82.9135 61.0669 82.682 61.4461 82.1807 61.5901C81.9036 61.6703 81.5974 61.6721 81.3039 61.6721C70.6617 61.6758 60.0214 61.6758 49.3792 61.6758H48.5552V72.9724H51.9367V66.2914C51.8656 66.2622 51.8091 66.2276 51.7471 66.213C51.1583 66.069 50.832 65.7044 50.8721 65.0901C50.9068 64.5341 51.3607 64.1878 52.0297 64.1695C52.5073 64.1568 52.9867 64.1659 53.4643 64.1659C55.1049 64.1659 56.7456 64.1659 58.3862 64.1659C58.9167 64.1659 59.3906 64.3719 59.4508 64.9151C59.4891 65.2633 59.2904 65.6734 59.0971 65.9961C58.9932 66.1674 58.6742 66.2076 58.4919 66.2896V72.9724H62.9927V66.2768C62.8505 66.2313 62.6992 66.1984 62.5607 66.1346C62.0922 65.9214 61.8589 65.5531 61.9354 65.0391C62.012 64.5232 62.3529 64.1896 62.856 64.1823C65.1109 64.1568 67.3677 64.1568 69.6227 64.1823C70.1221 64.1878 70.4703 64.5049 70.5523 65.0263C70.6325 65.5404 70.4174 65.9141 69.9453 66.131C69.8049 66.1948 69.6536 66.2313 69.5224 66.275V72.9833H74.0487V72.9888ZM48.5297 99.4958H95.0013V92.7857H48.5297V99.4958ZM95.0141 79.5203H48.5534V90.6419H53.0596C53.0596 90.3521 53.0596 90.1042 53.0596 89.8563C53.0596 87.6688 53.0596 85.4831 53.0596 83.2956C53.0596 82.1617 53.3823 81.8464 54.5344 81.8445C57.1995 81.8427 59.8646 81.8409 62.5297 81.8445C63.6307 81.8445 63.9643 82.1763 63.9661 83.2628C63.9698 85.3591 63.9661 87.4536 63.9661 89.55V90.6474H66.3177C66.3177 90.3667 66.3177 90.1224 66.3177 89.8763C66.3177 87.6669 66.3159 85.4576 66.3177 83.2482C66.3177 82.1891 66.6531 81.8464 67.7013 81.8445C70.412 81.8391 73.1227 81.8391 75.8333 81.8445C76.8833 81.8445 77.2224 82.1891 77.2242 83.2409C77.2279 85.4721 77.2242 87.7052 77.2242 89.9383C77.2242 90.1771 77.2242 90.4159 77.2242 90.631H79.5758C79.5758 88.119 79.5721 85.6599 79.5758 83.2008C79.5758 82.1982 79.9276 81.8464 80.9357 81.8445C83.6682 81.8391 86.4026 81.8391 89.1352 81.8445C90.1359 81.8464 90.4768 82.2018 90.4805 83.219C90.4859 85.4503 90.4805 87.6833 90.4805 89.9164V90.6438H95.0086V79.5185L95.0141 79.5203ZM95.0122 75.1198H48.5443V77.3784H95.0122V75.1198ZM55.1414 90.6383H61.888V83.9536H55.1414V90.6383ZM81.6758 83.9318V90.6474H88.3878V83.9318H81.6758ZM75.126 90.6675V83.9482H68.4177V90.6675H75.126ZM61.8789 42.0922H55.1487V45.3589H61.8789V42.0922ZM75.1224 45.357V42.094H68.4104V45.357H75.1224ZM81.663 45.3406H88.3896V42.0867H81.663V45.3406ZM61.8643 55.1479V51.9031H55.1523V55.1479H61.8643ZM68.3977 55.1224H75.1242V51.9031H68.3977V55.1224ZM88.3896 55.1443V51.8977H81.6667V55.1443H88.3896ZM61.8807 47.4898H55.1487V49.7503H61.8807V47.4898ZM75.1388 47.4898H68.4068V49.7503H75.1388V47.4898ZM81.6594 49.7576H88.3823V47.5081H81.6594V49.7576ZM56.3336 72.9906V66.2604H54.0477V72.9906H56.3336ZM67.3659 72.9906V66.2732H65.1237V72.9906H67.3659ZM78.4219 72.9888V66.2531H76.1852V72.9888H78.4219ZM89.4851 72.9924V66.2714H87.2302V72.9924H89.4851ZM48.5279 103.949C49.7839 103.949 50.9633 103.957 52.1409 103.94C52.2885 103.938 52.5273 103.836 52.5674 103.723C52.8062 103.049 52.9995 102.36 53.2164 101.647H48.5279V103.949ZM90.3164 101.623C90.5479 102.376 90.7357 103.027 90.9544 103.667C90.9945 103.783 91.1641 103.933 91.2753 103.935C92.5167 103.953 93.7581 103.947 94.9977 103.947V101.623H90.3146H90.3164Z" fill="white"/>
<defs>
<linearGradient id="paint0_linear_26_6350" x1="15.8238" y1="4.80605e-07" x2="113.697" y2="143" gradientUnits="userSpaceOnUse">
<stop stop-color="#3276E2"/>
<stop offset="1" stop-color="#1EA3D6"/>
</linearGradient>
<linearGradient id="paint1_linear_26_6350" x1="24.5" y1="10" x2="108" y2="132" gradientUnits="userSpaceOnUse">
<stop stop-color="#3276E2"/>
<stop offset="1" stop-color="#1EA3D6"/>
</linearGradient>
</defs>
</svg>
