<svg width="59" height="59" viewBox="0 0 59 59" fill="none" xmlns="http://www.w3.org/2000/svg">
<mask id="mask0_1_6090" style="mask-type:luminance" maskUnits="userSpaceOnUse" x="-1" y="0" width="60" height="59">
<path d="M58.3636 0.456299H-0.269531V58.3453H58.3636V0.456299Z" fill="white"/>
</mask>
<g mask="url(#mask0_1_6090)">
<mask id="mask1_1_6090" style="mask-type:luminance" maskUnits="userSpaceOnUse" x="1" y="0" width="58" height="59">
<path d="M1.28086 0.598975H58.2176V58.188H1.28086V0.598975Z" fill="white" stroke="white" stroke-width="0.3"/>
</mask>
<g mask="url(#mask1_1_6090)">
<mask id="path-3-inside-1_1_6090" fill="white">
<path d="M26.257 36.3928C26.1204 36.3928 25.8731 36.3928 25.6238 36.3928C19.3446 36.3868 13.0674 36.4089 6.78826 36.3667C3.78819 36.3466 1.16413 33.6412 1.15622 30.5986C1.13445 22.4965 1.13643 14.3966 1.15622 6.29451C1.16413 3.19551 3.81985 0.498182 6.87731 0.468055C10.3187 0.433912 13.76 0.456005 17.2014 0.456005C28.8612 0.456005 40.5212 0.453996 52.181 0.456005C55.3592 0.456005 57.7141 2.44034 58.2859 5.59758C58.3572 5.98923 58.3494 6.39694 58.3494 6.79662C58.3533 14.5391 58.3513 22.2796 58.3513 30.0221C58.3513 32.9986 56.9739 35.0251 54.2291 36.0855C54.154 36.1137 54.0788 36.1458 53.9145 36.21C54.152 41.4761 54.0887 46.7302 51.6466 51.6569C52.0722 51.7553 52.3155 51.7975 52.5511 51.8658C53.3742 52.1068 53.9462 52.7977 53.9758 53.6654C54.0076 54.5952 54.0135 55.5271 53.9758 56.457C53.9323 57.4974 53.0894 58.3228 52.0504 58.3249C45.7297 58.3369 39.4109 58.3369 33.0902 58.3249C32.0612 58.3249 31.2241 57.4974 31.1726 56.445C31.1271 55.5372 31.1489 54.6274 31.1667 53.7176C31.1826 52.8961 31.6436 52.3478 32.4015 51.8919C32.0296 51.5404 31.6872 51.2151 31.3408 50.8938C30.1099 49.7489 29.3125 48.331 28.8296 46.7282C28.0638 44.1876 27.2881 41.6489 26.5894 39.0902C26.3619 38.2586 26.3697 37.3609 26.257 36.3888V36.3928ZM40.4618 26.5234C42.0608 26.1298 43.3846 26.4491 44.4255 27.6763C46.0859 27.0737 47.0674 27.0215 47.9995 27.7887C48.6486 28.323 49.2976 28.4354 50.0537 28.3872C50.3446 28.3692 50.6374 28.3853 50.9303 28.3832C52.0286 28.3812 52.3492 28.0598 52.3492 26.9533C52.3492 20.6086 52.3492 14.2619 52.3492 7.91732C52.3492 6.81268 52.0622 6.51544 50.9936 6.51544C36.8304 6.51544 22.6673 6.51544 8.50597 6.51544C7.43932 6.51544 7.15436 6.81469 7.15436 7.91933C7.15436 14.2439 7.15436 20.5684 7.15436 26.893C7.15436 28.084 7.4512 28.3832 8.63658 28.3832C16.7086 28.3832 24.7807 28.3832 32.8528 28.3832H33.5494C33.6226 26.5354 33.6939 24.756 33.7631 22.9705C33.6067 22.9545 33.5236 22.9423 33.4424 22.9384C32.0296 22.8621 31.321 22.1109 31.3171 20.6849C31.3171 19.6063 31.3072 18.5279 31.3191 17.4494C31.331 16.3045 32.1621 15.441 33.2921 15.4348C35.9835 15.4209 38.6728 15.4209 41.3641 15.4348C42.4882 15.441 43.3154 16.3085 43.3272 17.4614C43.3391 18.6042 43.3371 19.7449 43.3272 20.8877C43.3174 22.0687 42.496 22.8982 41.3167 22.9344C41.0336 22.9423 40.7527 22.9344 40.4618 22.9344V26.5254V26.5234ZM42.3615 51.7633C44.5937 51.7633 46.8241 51.7493 49.0563 51.7754C49.5154 51.7814 49.7034 51.6268 49.8359 51.189C50.2317 49.8794 50.7502 48.6041 51.0846 47.2785C51.427 45.9168 51.7754 44.5189 51.8287 43.1251C51.9653 39.5561 51.9455 35.9791 51.9791 32.4061C51.9871 31.5545 51.5299 31.0585 50.7601 31.0384C49.9864 31.0163 49.4877 31.5404 49.4738 32.4201C49.4599 33.3079 49.4758 34.1977 49.4679 35.0854C49.4619 35.8526 49.1018 36.2623 48.4625 36.2583C47.8293 36.2543 47.4731 35.8365 47.4712 35.0693C47.4652 33.6313 47.4712 32.1932 47.4692 30.7552C47.4671 29.8312 47.0397 29.3112 46.258 29.3131C45.6109 29.3131 44.9005 29.7469 44.9401 30.7372C44.9975 32.1932 44.9638 33.6553 44.952 35.1155C44.944 35.957 44.2989 36.4812 43.5983 36.2161C43.0759 36.0192 42.9294 35.5835 42.9335 35.0452C42.9453 33.2256 42.9473 31.4079 42.9335 29.5882C42.9275 28.8251 42.4566 28.3973 41.6907 28.3932C40.8971 28.3892 40.444 28.8331 40.44 29.6265C40.4361 30.9802 40.44 32.3338 40.44 33.6874C40.44 34.2157 40.4637 34.7459 40.4261 35.2721C40.3846 35.8827 39.969 36.2603 39.4109 36.2603C38.8707 36.2603 38.4907 35.9129 38.4195 35.3284C38.3918 35.0994 38.3957 34.8644 38.3957 34.6315C38.3957 30.3796 38.3978 26.1298 38.3918 21.8779C38.3918 20.96 37.9901 20.5042 37.2163 20.476C36.4524 20.4479 35.9596 20.8858 35.9142 21.7655C35.7777 24.3623 35.651 26.9593 35.5738 29.5581C35.4689 33.1311 35.4234 36.7041 35.3284 40.2771C35.3047 41.1991 34.8258 41.8055 34.147 41.9361C33.4287 42.0746 32.6965 41.6951 32.3105 40.9179C32.0316 40.3534 31.8158 39.759 31.5823 39.1725C31.2775 38.4113 31.0222 37.628 30.6739 36.8869C30.4088 36.3246 29.7379 36.1257 29.168 36.3366C28.5823 36.5535 28.2853 37.0275 28.3686 37.6742C28.4141 38.0278 28.4892 38.3812 28.5882 38.7246C29.2868 41.1307 29.9872 43.5369 30.7037 45.9389C31.1073 47.2946 31.7505 48.5077 32.8033 49.4777C33.482 50.1044 34.1154 50.7813 34.8079 51.3898C35.0316 51.5866 35.3778 51.7413 35.6707 51.7453C37.903 51.7734 40.1333 51.7613 42.3655 51.7613L42.3615 51.7633ZM54.0076 33.9064C55.4858 33.3319 56.3525 31.898 56.3546 30.1165C56.3566 22.3519 56.3585 14.5873 56.3546 6.82273C56.3546 4.19369 54.6863 2.49255 52.088 2.49255C37.1926 2.48853 22.2952 2.48853 7.39975 2.49255C4.8113 2.49255 3.149 4.20374 3.14702 6.83679C3.14504 14.5592 3.14504 22.2816 3.14702 30.004C3.14702 32.6813 4.80141 34.3543 7.44526 34.3543C14.33 34.3543 21.2147 34.3543 28.0994 34.3543C28.3072 34.3543 28.5189 34.3624 28.7228 34.3262C30.6463 33.9808 32.0216 34.7279 32.7775 36.5455C32.9378 36.9331 33.0823 37.3267 33.2327 37.7184L33.4069 37.6843V30.4117C33.1575 30.4117 32.9102 30.4117 32.6608 30.4117C24.5235 30.4117 16.3881 30.4117 8.25069 30.4117C6.41227 30.4117 5.15563 29.1303 5.15365 27.2605C5.15168 20.701 5.15365 14.1434 5.15563 7.58392C5.15563 7.31279 5.16949 7.0316 5.2348 6.7685C5.61475 5.25012 6.77441 4.43069 8.5218 4.43069C22.6673 4.43069 36.8126 4.43069 50.958 4.43069C51.1044 4.43069 51.2509 4.42667 51.3953 4.43671C53.1486 4.54718 54.342 5.80847 54.344 7.56986C54.3479 14.1495 54.344 20.7291 54.3479 27.3088C54.3479 28.2567 54.0095 29.0319 53.3348 29.6746C53.2496 29.757 53.1744 29.8494 53.0735 29.9598C54.245 31.0585 53.9501 32.5005 54.0036 33.9084L54.0076 33.9064ZM33.215 56.2622H51.9436V53.8803H33.215V56.2622ZM41.291 20.8817V17.5035H33.3613V20.8757C33.7399 20.8877 33.9946 20.7405 34.1252 20.4338C34.7525 18.9637 36.1853 18.1804 37.7268 18.4636C39.0943 18.7146 39.9274 19.5722 40.3549 20.8817H41.291Z"/>
</mask>
<path d="M26.257 36.3928C26.1204 36.3928 25.8731 36.3928 25.6238 36.3928C19.3446 36.3868 13.0674 36.4089 6.78826 36.3667C3.78819 36.3466 1.16413 33.6412 1.15622 30.5986C1.13445 22.4965 1.13643 14.3966 1.15622 6.29451C1.16413 3.19551 3.81985 0.498182 6.87731 0.468055C10.3187 0.433912 13.76 0.456005 17.2014 0.456005C28.8612 0.456005 40.5212 0.453996 52.181 0.456005C55.3592 0.456005 57.7141 2.44034 58.2859 5.59758C58.3572 5.98923 58.3494 6.39694 58.3494 6.79662C58.3533 14.5391 58.3513 22.2796 58.3513 30.0221C58.3513 32.9986 56.9739 35.0251 54.2291 36.0855C54.154 36.1137 54.0788 36.1458 53.9145 36.21C54.152 41.4761 54.0887 46.7302 51.6466 51.6569C52.0722 51.7553 52.3155 51.7975 52.5511 51.8658C53.3742 52.1068 53.9462 52.7977 53.9758 53.6654C54.0076 54.5952 54.0135 55.5271 53.9758 56.457C53.9323 57.4974 53.0894 58.3228 52.0504 58.3249C45.7297 58.3369 39.4109 58.3369 33.0902 58.3249C32.0612 58.3249 31.2241 57.4974 31.1726 56.445C31.1271 55.5372 31.1489 54.6274 31.1667 53.7176C31.1826 52.8961 31.6436 52.3478 32.4015 51.8919C32.0296 51.5404 31.6872 51.2151 31.3408 50.8938C30.1099 49.7489 29.3125 48.331 28.8296 46.7282C28.0638 44.1876 27.2881 41.6489 26.5894 39.0902C26.3619 38.2586 26.3697 37.3609 26.257 36.3888V36.3928ZM40.4618 26.5234C42.0608 26.1298 43.3846 26.4491 44.4255 27.6763C46.0859 27.0737 47.0674 27.0215 47.9995 27.7887C48.6486 28.323 49.2976 28.4354 50.0537 28.3872C50.3446 28.3692 50.6374 28.3853 50.9303 28.3832C52.0286 28.3812 52.3492 28.0598 52.3492 26.9533C52.3492 20.6086 52.3492 14.2619 52.3492 7.91732C52.3492 6.81268 52.0622 6.51544 50.9936 6.51544C36.8304 6.51544 22.6673 6.51544 8.50597 6.51544C7.43932 6.51544 7.15436 6.81469 7.15436 7.91933C7.15436 14.2439 7.15436 20.5684 7.15436 26.893C7.15436 28.084 7.4512 28.3832 8.63658 28.3832C16.7086 28.3832 24.7807 28.3832 32.8528 28.3832H33.5494C33.6226 26.5354 33.6939 24.756 33.7631 22.9705C33.6067 22.9545 33.5236 22.9423 33.4424 22.9384C32.0296 22.8621 31.321 22.1109 31.3171 20.6849C31.3171 19.6063 31.3072 18.5279 31.3191 17.4494C31.331 16.3045 32.1621 15.441 33.2921 15.4348C35.9835 15.4209 38.6728 15.4209 41.3641 15.4348C42.4882 15.441 43.3154 16.3085 43.3272 17.4614C43.3391 18.6042 43.3371 19.7449 43.3272 20.8877C43.3174 22.0687 42.496 22.8982 41.3167 22.9344C41.0336 22.9423 40.7527 22.9344 40.4618 22.9344V26.5254V26.5234ZM42.3615 51.7633C44.5937 51.7633 46.8241 51.7493 49.0563 51.7754C49.5154 51.7814 49.7034 51.6268 49.8359 51.189C50.2317 49.8794 50.7502 48.6041 51.0846 47.2785C51.427 45.9168 51.7754 44.5189 51.8287 43.1251C51.9653 39.5561 51.9455 35.9791 51.9791 32.4061C51.9871 31.5545 51.5299 31.0585 50.7601 31.0384C49.9864 31.0163 49.4877 31.5404 49.4738 32.4201C49.4599 33.3079 49.4758 34.1977 49.4679 35.0854C49.4619 35.8526 49.1018 36.2623 48.4625 36.2583C47.8293 36.2543 47.4731 35.8365 47.4712 35.0693C47.4652 33.6313 47.4712 32.1932 47.4692 30.7552C47.4671 29.8312 47.0397 29.3112 46.258 29.3131C45.6109 29.3131 44.9005 29.7469 44.9401 30.7372C44.9975 32.1932 44.9638 33.6553 44.952 35.1155C44.944 35.957 44.2989 36.4812 43.5983 36.2161C43.0759 36.0192 42.9294 35.5835 42.9335 35.0452C42.9453 33.2256 42.9473 31.4079 42.9335 29.5882C42.9275 28.8251 42.4566 28.3973 41.6907 28.3932C40.8971 28.3892 40.444 28.8331 40.44 29.6265C40.4361 30.9802 40.44 32.3338 40.44 33.6874C40.44 34.2157 40.4637 34.7459 40.4261 35.2721C40.3846 35.8827 39.969 36.2603 39.4109 36.2603C38.8707 36.2603 38.4907 35.9129 38.4195 35.3284C38.3918 35.0994 38.3957 34.8644 38.3957 34.6315C38.3957 30.3796 38.3978 26.1298 38.3918 21.8779C38.3918 20.96 37.9901 20.5042 37.2163 20.476C36.4524 20.4479 35.9596 20.8858 35.9142 21.7655C35.7777 24.3623 35.651 26.9593 35.5738 29.5581C35.4689 33.1311 35.4234 36.7041 35.3284 40.2771C35.3047 41.1991 34.8258 41.8055 34.147 41.9361C33.4287 42.0746 32.6965 41.6951 32.3105 40.9179C32.0316 40.3534 31.8158 39.759 31.5823 39.1725C31.2775 38.4113 31.0222 37.628 30.6739 36.8869C30.4088 36.3246 29.7379 36.1257 29.168 36.3366C28.5823 36.5535 28.2853 37.0275 28.3686 37.6742C28.4141 38.0278 28.4892 38.3812 28.5882 38.7246C29.2868 41.1307 29.9872 43.5369 30.7037 45.9389C31.1073 47.2946 31.7505 48.5077 32.8033 49.4777C33.482 50.1044 34.1154 50.7813 34.8079 51.3898C35.0316 51.5866 35.3778 51.7413 35.6707 51.7453C37.903 51.7734 40.1333 51.7613 42.3655 51.7613L42.3615 51.7633ZM54.0076 33.9064C55.4858 33.3319 56.3525 31.898 56.3546 30.1165C56.3566 22.3519 56.3585 14.5873 56.3546 6.82273C56.3546 4.19369 54.6863 2.49255 52.088 2.49255C37.1926 2.48853 22.2952 2.48853 7.39975 2.49255C4.8113 2.49255 3.149 4.20374 3.14702 6.83679C3.14504 14.5592 3.14504 22.2816 3.14702 30.004C3.14702 32.6813 4.80141 34.3543 7.44526 34.3543C14.33 34.3543 21.2147 34.3543 28.0994 34.3543C28.3072 34.3543 28.5189 34.3624 28.7228 34.3262C30.6463 33.9808 32.0216 34.7279 32.7775 36.5455C32.9378 36.9331 33.0823 37.3267 33.2327 37.7184L33.4069 37.6843V30.4117C33.1575 30.4117 32.9102 30.4117 32.6608 30.4117C24.5235 30.4117 16.3881 30.4117 8.25069 30.4117C6.41227 30.4117 5.15563 29.1303 5.15365 27.2605C5.15168 20.701 5.15365 14.1434 5.15563 7.58392C5.15563 7.31279 5.16949 7.0316 5.2348 6.7685C5.61475 5.25012 6.77441 4.43069 8.5218 4.43069C22.6673 4.43069 36.8126 4.43069 50.958 4.43069C51.1044 4.43069 51.2509 4.42667 51.3953 4.43671C53.1486 4.54718 54.342 5.80847 54.344 7.56986C54.3479 14.1495 54.344 20.7291 54.3479 27.3088C54.3479 28.2567 54.0095 29.0319 53.3348 29.6746C53.2496 29.757 53.1744 29.8494 53.0735 29.9598C54.245 31.0585 53.9501 32.5005 54.0036 33.9084L54.0076 33.9064ZM33.215 56.2622H51.9436V53.8803H33.215V56.2622ZM41.291 20.8817V17.5035H33.3613V20.8757C33.7399 20.8877 33.9946 20.7405 34.1252 20.4338C34.7525 18.9637 36.1853 18.1804 37.7268 18.4636C39.0943 18.7146 39.9274 19.5722 40.3549 20.8817H41.291Z" fill="#01CAA9" stroke="white" stroke-width="0.6" mask="url(#path-3-inside-1_1_6090)"/>
<path d="M28.2733 21.5868L28.128 21.624C28.1295 21.6299 28.1313 21.6487 28.1211 21.6854C28.1112 21.7209 28.0927 21.7634 28.0662 21.8104C28.0131 21.9046 27.9369 22.0008 27.869 22.0706C26.9177 23.0441 25.959 24.0091 24.9828 24.9557L24.9828 24.9557C24.7243 25.2067 24.5052 25.3045 24.303 25.3006C24.0982 25.2966 23.8716 25.1877 23.6003 24.9354L23.6001 24.9353C23.2797 24.6383 22.9603 24.3402 22.6407 24.0419L22.6338 24.0354C22.3165 23.7394 21.9991 23.4431 21.6806 23.1478C21.2642 22.7614 21.2105 22.2552 21.4995 21.8791C21.641 21.6958 21.8826 21.5745 22.1439 21.5475C22.4044 21.5206 22.6636 21.5894 22.843 21.7581C23.133 22.0326 23.3881 22.3372 23.6887 22.6962C23.8263 22.8605 23.9734 23.0362 24.1377 23.2256V23.5532L24.3976 23.2736C24.6672 22.9837 24.9206 22.7086 25.1638 22.4446C25.6992 21.8633 26.1852 21.3358 26.6849 20.8217L26.6851 20.8215C26.8375 20.6641 27.0135 20.5579 27.1825 20.5241C27.3454 20.4914 27.5081 20.5239 27.657 20.6565L27.6571 20.6566C27.8906 20.8641 28.0307 21.2495 28.1281 21.6245L28.2733 21.5868ZM28.2733 21.5868C28.1763 21.2133 28.0279 20.7855 27.7568 20.5445C27.3847 20.213 26.9118 20.3717 26.5773 20.7171C26.0762 21.2327 25.5881 21.7625 25.0519 22.3447C24.8404 22.5742 24.6215 22.8119 24.3913 23.06L25.0873 25.0634C26.0648 24.1154 27.0246 23.1494 27.9764 22.1753C28.1269 22.0207 28.3149 21.7495 28.2733 21.5868Z" fill="#01CAA9" stroke="white" stroke-width="0.3"/>
<path d="M23.9152 16.9325C23.9695 17.0066 24.0288 17.0876 24.0956 17.1774L23.9454 17.3389H24.2897H24.2916H24.5923L24.4861 17.1979C24.7227 16.9428 24.9455 16.701 25.1591 16.469C25.6576 15.9277 26.1067 15.4401 26.5682 14.9635L26.5683 14.9634C26.8146 14.7088 27.0712 14.5869 27.3018 14.5712C27.5292 14.5557 27.75 14.6418 27.9358 14.8408C28.1137 15.0328 28.1874 15.252 28.1666 15.477C28.1456 15.7049 28.0258 15.9548 27.7866 16.1978C26.8726 17.1213 25.9572 18.0383 25.0262 18.9431L25.0261 18.9432C24.7494 19.2124 24.5232 19.3193 24.3169 19.3185C24.1093 19.3177 23.8803 19.208 23.5983 18.9451L23.598 18.9448L23.5702 18.919C22.9382 18.333 22.3067 17.7474 21.6792 17.1579L21.679 17.1577C21.2654 16.7704 21.2203 16.2618 21.5172 15.8931L21.5173 15.893C21.6616 15.7135 21.8989 15.602 22.159 15.581C22.4185 15.5601 22.6834 15.6308 22.8772 15.7935L22.8772 15.7935C23.1098 15.9885 23.3281 16.208 23.5321 16.4387L23.5322 16.4388C23.6577 16.5805 23.7683 16.7316 23.9152 16.9325ZM21.4004 15.799C21.7506 15.3633 22.5165 15.2949 22.9736 15.6786C23.2131 15.8794 23.4366 16.1043 23.6444 16.3393C23.7746 16.4863 23.8915 16.6459 24.0416 16.851C24.0902 16.9174 24.1423 16.9886 24.1994 17.0656L21.4004 15.799Z" fill="#01CAA9" stroke="white" stroke-width="0.3"/>
<path d="M24.2849 11.2356L24.3883 11.3313C24.6686 11.0285 24.9271 10.7462 25.172 10.4788C25.6765 9.92804 26.1234 9.44005 26.5846 8.96385L26.5847 8.96374C26.8185 8.7218 27.0653 8.60521 27.2898 8.5891C27.5118 8.57317 27.7291 8.65397 27.9136 8.84031C28.1009 9.03033 28.1824 9.2515 28.1678 9.47773C28.1531 9.70636 28.0388 9.95671 27.8028 10.1963C26.8892 11.1214 25.9658 12.0385 25.0344 12.9456C24.7569 13.2158 24.5275 13.3253 24.3189 13.3269C24.11 13.3285 23.8814 13.2221 23.6045 12.9653L23.6045 12.9652C23.3644 12.7425 23.1242 12.5206 22.8842 12.2988C22.4806 11.9259 22.0774 11.5533 21.6754 11.178L21.6753 11.1779C21.2649 10.7956 21.2202 10.2775 21.5195 9.90791L21.5197 9.90765C21.6678 9.72395 21.9115 9.60729 22.1715 9.58618C22.4307 9.56514 22.6882 9.64037 22.8671 9.81607L22.8673 9.81632C23.1541 10.0968 23.4067 10.4063 23.7018 10.7678C23.819 10.9114 23.9429 11.0632 24.0783 11.2247L24.07 11.2336L24.1723 11.3356L24.1743 11.3376L24.2849 11.2356Z" fill="#01CAA9" stroke="white" stroke-width="0.3"/>
<path d="M12.2745 24.2865L12.2744 24.2865C11.9593 24.2819 11.7215 24.1884 11.5642 24.0416C11.4082 23.8961 11.3171 23.6851 11.318 23.4148V23.4143C11.318 23.143 11.4081 22.9344 11.5625 22.7922C11.7184 22.6486 11.956 22.5578 12.277 22.556L12.2771 22.556C13.8835 22.546 15.4896 22.544 17.0936 22.556C17.394 22.5587 17.6205 22.648 17.7721 22.7884C17.9229 22.9281 18.0133 23.1311 18.0195 23.3897L18.0195 23.39C18.0265 23.6609 17.9381 23.878 17.7841 24.0292C17.6293 24.1811 17.395 24.279 17.0883 24.2845C16.5152 24.2944 15.9429 24.2924 15.3688 24.2903C15.1299 24.2894 14.8906 24.2886 14.6509 24.2886C14.4019 24.2886 14.1538 24.2895 13.906 24.2905C13.3614 24.2927 12.8189 24.2948 12.2745 24.2865Z" fill="#01CAA9" stroke="white" stroke-width="0.3"/>
<path d="M14.9735 18.3161L14.9761 18.3136H14.6177C14.3755 18.3136 14.134 18.3145 13.8928 18.3155C13.3626 18.3177 12.8342 18.3198 12.3047 18.3115L12.3045 18.3115C11.9864 18.3069 11.7444 18.2153 11.5821 18.0707C11.4214 17.9274 11.3254 17.7203 11.3184 17.4555L14.9735 18.3161ZM14.9735 18.3161C15.0937 18.3165 15.2137 18.3169 15.3337 18.3173C15.9078 18.3194 16.48 18.3215 17.0531 18.3115L14.9735 18.3161ZM12.2508 16.5689L12.2507 16.5689C11.9318 16.5726 11.6982 16.6694 11.5468 16.8185C11.3961 16.967 11.3114 17.1824 11.3184 17.4554L12.2508 16.5689ZM12.2508 16.5689C13.8565 16.5489 15.4602 16.5489 17.066 16.567C17.388 16.5707 17.625 16.6652 17.7798 16.8118C17.9335 16.9574 18.0216 17.1688 18.0199 17.4383L18.0199 17.4383M12.2508 16.5689L18.0199 17.4383M18.0199 17.4383C18.0181 17.7039 17.9249 17.9154 17.7661 18.0626M18.0199 17.4383L17.7661 18.0626M17.7661 18.0626C17.6062 18.2109 17.3667 18.306 17.0531 18.3115L17.7661 18.0626Z" fill="#01CAA9" stroke="white" stroke-width="0.3"/>
<path d="M11.3183 11.4784L11.3184 11.4786C11.3244 11.7493 11.4231 11.957 11.5917 12.1006C11.7629 12.2465 12.0212 12.3386 12.3661 12.3442C12.8953 12.3525 13.4236 12.3504 13.9536 12.3482C14.195 12.3472 14.4367 12.3462 14.6791 12.3462H14.681C14.9097 12.3462 15.1379 12.3471 15.3657 12.348C15.9093 12.3501 16.451 12.3522 16.9936 12.3423C16.9936 12.3423 16.9937 12.3423 16.9937 12.3423M11.3183 11.4784L18.1718 11.4599C18.1679 12.0785 17.7266 12.4782 16.9964 12.4923L16.9937 12.3423M11.3183 11.4784C11.3113 11.1875 11.4024 10.973 11.5675 10.828M11.3183 11.4784L11.5675 10.828M16.9937 12.3423C17.3329 12.3357 17.5882 12.24 17.757 12.0905C17.9237 11.9429 18.0201 11.7306 18.0218 11.459M16.9937 12.3423L18.0218 11.459M18.0218 11.459C18.0236 11.1799 17.9325 10.9688 17.7718 10.8251C17.6086 10.6791 17.3556 10.5864 17.005 10.5836L18.0218 11.459ZM11.5675 10.828C11.7361 10.6798 12.0021 10.5865 12.3766 10.5836L11.5675 10.828Z" fill="#01CAA9" stroke="white" stroke-width="0.3"/>
<path d="M28.325 33.2752C27.7939 33.2291 27.4711 32.8775 27.4627 32.4098L27.4627 32.4098C27.4583 32.1623 27.5364 31.9522 27.6742 31.8009C27.8115 31.6502 28.0172 31.5478 28.2873 31.5318L28.2876 31.5318C28.9662 31.49 29.6527 31.49 30.3312 31.5318L30.3316 31.5318C30.603 31.5479 30.8092 31.6499 30.9469 31.8002C31.0851 31.951 31.1636 32.1606 31.1601 32.4083C31.1534 32.876 30.8285 33.2311 30.2999 33.2772C30.0943 33.2947 29.8904 33.2921 29.6793 33.2879L29.6868 33.2808H29.3134C29.2032 33.2808 29.0964 33.2831 28.9917 33.2855C28.7646 33.2905 28.5472 33.2954 28.3256 33.2752L28.325 33.2752Z" fill="#01CAA9" stroke="white" stroke-width="0.3"/>
</g>
</g>
</svg>
