<svg width="53" height="51" viewBox="0 0 53 51" fill="none" xmlns="http://www.w3.org/2000/svg">
<mask id="mask0_1_6107" style="mask-type:luminance" maskUnits="userSpaceOnUse" x="0" y="0" width="53" height="51">
<path d="M0.1 50.9V0.1H51.9408V50.9H0.1Z" fill="white" stroke="white" stroke-width="0.2"/>
</mask>
<g mask="url(#mask0_1_6107)">
<mask id="mask1_1_6107" style="mask-type:luminance" maskUnits="userSpaceOnUse" x="1" y="1" width="51" height="50">
<path d="M1.14883 50.8948V1.13564H50.908V50.8948H1.14883Z" fill="white" stroke="white" stroke-width="0.2"/>
</mask>
<g mask="url(#mask1_1_6107)">
<mask id="mask2_1_6107" style="mask-type:luminance" maskUnits="userSpaceOnUse" x="1" y="1" width="51" height="50">
<path d="M1.15078 50.8929V1.13375H50.91V50.8929H1.15078Z" fill="white" stroke="white" stroke-width="0.2"/>
</mask>
<g mask="url(#mask2_1_6107)">
<mask id="mask3_1_6107" style="mask-type:luminance" maskUnits="userSpaceOnUse" x="1" y="1" width="51" height="50">
<path d="M1.15273 50.8907V1.13156H50.9119V50.8907H1.15273Z" fill="white" stroke="white" stroke-width="0.2"/>
</mask>
<g mask="url(#mask3_1_6107)">
<mask id="path-5-inside-1_1_6107" fill="white">
<path d="M1.05273 46.7903C1.29212 46.2459 1.45969 45.6506 1.78754 45.1666C2.45887 44.1789 3.4737 43.7323 4.53741 43.6605C4.47704 42.3241 4.36149 41.0169 4.37294 39.7117C4.38647 38.1661 4.85278 36.7048 5.46687 35.2976C5.57615 35.0457 5.57404 34.8854 5.39502 34.6533C4.85275 33.9487 4.77574 33.1577 5.16708 32.3614C5.5501 31.5819 6.20683 31.1687 7.07904 31.1478C7.82634 31.1302 8.57472 31.1302 9.32203 31.1478C10.215 31.1718 10.8739 31.6079 11.2517 32.4093C11.6233 33.1972 11.5046 33.9497 11.0144 34.6679C10.9165 34.8105 10.8489 35.0686 10.9103 35.2081C12.1125 37.9298 12.3851 40.7369 11.7107 43.6533H13.8933C13.5259 41.8943 13.3604 40.1322 13.7476 38.3805C13.9766 37.3407 14.3502 36.3321 14.6833 35.3174C14.7634 35.0717 14.8144 34.9052 14.625 34.6637C14.0754 33.9674 13.987 33.1785 14.3794 32.377C14.7697 31.5798 15.4378 31.1624 16.3298 31.1458C17.0459 31.1322 17.7609 31.1364 18.476 31.1447C19.369 31.1551 20.0497 31.5558 20.4442 32.351C20.848 33.1629 20.7627 33.9684 20.1996 34.6835C20.0258 34.9052 20.0476 35.0603 20.1486 35.2872C21.3289 37.9433 21.5828 40.6932 20.9594 43.5273C20.9521 43.5575 20.9646 43.5908 20.9709 43.647H23.1097C22.7704 41.9869 22.5955 40.332 22.9213 38.6886C23.1482 37.5509 23.5458 36.4445 23.8966 35.334C23.9798 35.0707 24.0256 34.8979 23.8289 34.645C23.2971 33.9591 23.2201 33.1826 23.5916 32.3968C23.9632 31.611 24.6095 31.1811 25.4807 31.152C26.2602 31.127 27.0419 31.1249 27.8215 31.1551C28.6958 31.1874 29.3317 31.637 29.6981 32.4218C30.0582 33.192 29.9771 33.9549 29.4598 34.6262C29.2537 34.8937 29.2734 35.0811 29.3973 35.3611C30.5692 38.0214 30.8139 40.7712 30.154 43.6376H32.6134C31.6049 41.6351 31.6704 39.7814 33.4086 38.1203C32.679 37.5062 32.1929 36.7308 32.0222 35.7618C31.5736 33.2024 33.2639 31.151 35.8493 31.1458C38.5159 31.1406 41.1814 31.1416 43.848 31.1458C45.5778 31.1478 46.8965 31.9847 47.4752 33.4397C48.0955 34.9957 47.7135 36.787 46.5135 37.9298C46.4438 37.9954 46.3418 38.0255 46.245 38.0776C47.9894 39.5347 48.1309 41.9265 47.0683 43.6356C47.3815 43.6709 47.6782 43.6834 47.9686 43.7386C49.715 44.0644 50.9661 45.5121 51.0015 47.2378C51.0379 48.9854 49.8785 50.4737 48.1539 50.8952C48.0612 50.9171 47.9727 50.9577 47.8811 50.991H19.4876C19.1202 50.7745 18.8736 50.48 19.0203 50.0324C19.1661 49.5849 19.5449 49.5006 19.9664 49.5276C20.0789 49.5339 20.1944 49.5276 20.3078 49.5276C29.1839 49.5276 38.0579 49.5276 46.934 49.5276C47.113 49.5276 47.2931 49.5328 47.4711 49.5224C48.8803 49.4381 49.8431 48.0663 49.4455 46.7122C49.1541 45.7151 48.312 45.1364 47.139 45.1364C33.062 45.1364 18.9829 45.1364 4.90586 45.1364C4.79346 45.1364 4.67792 45.1343 4.56447 45.1416C3.67249 45.1978 2.88249 45.8171 2.61396 46.6695C2.16016 48.1111 3.21557 49.5193 4.77887 49.5235C8.67985 49.5328 12.5808 49.5287 16.4828 49.5235C16.8929 49.5235 17.2708 49.5515 17.4498 50.0001C17.6319 50.4581 17.3467 50.7256 17.048 50.9879H4.17518C3.23012 50.7495 2.35374 50.3613 1.8094 49.5203C1.48362 49.0134 1.30045 48.4181 1.05273 47.8634C1.05273 47.5064 1.05273 47.1473 1.05273 46.7903ZM39.8877 38.8707C38.5221 38.8707 37.1576 38.8644 35.7921 38.8717C34.3256 38.8801 33.446 39.7835 33.446 41.2635C33.446 42.7373 34.3412 43.6657 35.7869 43.6678C38.5013 43.673 41.2147 43.672 43.9292 43.6678C45.3769 43.6657 46.2772 42.7415 46.2772 41.2698C46.2772 39.7887 45.3977 38.8811 43.9354 38.8738C42.5865 38.8655 41.2376 38.8717 39.8887 38.8717L39.8877 38.8707ZM39.8825 32.6029C38.5169 32.6029 37.1524 32.5977 35.7869 32.6039C34.3245 32.6112 33.445 33.5178 33.446 35.0009C33.446 36.4675 34.3463 37.4011 35.791 37.4052C38.5054 37.4115 41.2188 37.4115 43.9333 37.4052C45.38 37.4011 46.2762 36.4675 46.2762 34.9968C46.2762 33.5188 45.3915 32.6112 43.9292 32.6039C42.5803 32.5956 41.2314 32.6029 39.8825 32.6029ZM24.4108 38.572C24.1339 40.0739 24.1963 41.5071 24.468 42.933C24.5585 43.4076 24.8947 43.6553 25.3714 43.6626C26.2145 43.6772 27.0596 43.6741 27.9027 43.6637C28.3835 43.6584 28.7259 43.4055 28.8144 42.9392C29.0673 41.5935 29.1579 40.2362 28.9185 38.8769C28.8977 38.7625 28.7353 38.5855 28.6375 38.5845C27.2438 38.5647 25.8512 38.5709 24.4128 38.5709L24.4108 38.572ZM19.6531 38.597H15.2172C15.187 38.6823 15.1558 38.7406 15.1443 38.8041C14.9008 40.1811 14.9903 41.5529 15.2349 42.9163C15.3244 43.4076 15.6845 43.6605 16.2268 43.6668C17.0063 43.6741 17.7849 43.673 18.5634 43.6668C19.2045 43.6616 19.5126 43.4055 19.623 42.7675C19.8603 41.4009 19.9134 40.0291 19.6521 38.599L19.6531 38.597ZM5.96536 38.6011C5.69891 40.0312 5.75511 41.429 6.00595 42.8248C6.10899 43.3982 6.42546 43.6584 7.01456 43.6657C7.80974 43.6741 8.60492 43.6741 9.4001 43.6657C9.99233 43.6574 10.3285 43.3535 10.4107 42.7623C10.4763 42.2971 10.57 41.8308 10.5741 41.3624C10.5825 40.4465 10.5397 39.5306 10.5189 38.6011H5.96536ZM10.0932 37.0919C9.7914 36.38 9.51356 35.7472 9.25336 35.1061C9.03374 34.5638 9.11283 34.3119 9.58744 33.9882C9.89864 33.7759 10.0807 33.5147 9.96314 33.1254C9.84656 32.7424 9.55827 32.5998 9.17941 32.5998C8.54451 32.5998 7.91169 32.6039 7.2768 32.5987C6.88337 32.5946 6.55346 32.707 6.43793 33.115C6.32552 33.5095 6.48789 33.805 6.84698 34.007C7.25289 34.2359 7.34552 34.5898 7.18316 35.0082C7.04057 35.3704 6.86256 35.7181 6.71789 36.0792C6.58987 36.3977 6.48685 36.7245 6.35674 37.0909H10.0943L10.0932 37.0919ZM19.3034 37.0847C19.0307 36.4362 18.7987 35.8721 18.5562 35.3121C18.2366 34.5752 18.2949 34.441 18.8934 33.906C19.0745 33.7426 19.217 33.3752 19.1619 33.1566C19.1067 32.9401 18.7903 32.657 18.5686 32.6393C17.8109 32.5738 17.0407 32.5738 16.282 32.6362C16.0592 32.6549 15.7563 32.9287 15.6814 33.1514C15.6137 33.3492 15.7345 33.7124 15.8989 33.8716C16.5942 34.544 16.6129 34.568 16.208 35.4787C15.9791 35.9908 15.7772 36.5143 15.543 37.0857H19.3066L19.3034 37.0847ZM28.5334 37.0919C28.2326 36.3821 27.9547 35.7472 27.6935 35.1061C27.4739 34.5648 27.5529 34.3109 28.0276 33.9882C28.3388 33.7759 28.5209 33.5147 28.4033 33.1264C28.2867 32.7434 28.0005 32.6008 27.6196 32.6029C26.9847 32.6029 26.3519 32.606 25.717 32.5998C25.3236 32.5956 24.9936 32.708 24.8781 33.116C24.7656 33.5094 24.927 33.8071 25.2871 34.009C25.692 34.237 25.7856 34.5909 25.6233 35.0093C25.4807 35.3715 25.3027 35.7201 25.158 36.0803C25.03 36.3988 24.927 36.7256 24.7969 37.0919H28.5334Z"/>
</mask>
<path d="M1.05273 46.7903C1.29212 46.2459 1.45969 45.6506 1.78754 45.1666C2.45887 44.1789 3.4737 43.7323 4.53741 43.6605C4.47704 42.3241 4.36149 41.0169 4.37294 39.7117C4.38647 38.1661 4.85278 36.7048 5.46687 35.2976C5.57615 35.0457 5.57404 34.8854 5.39502 34.6533C4.85275 33.9487 4.77574 33.1577 5.16708 32.3614C5.5501 31.5819 6.20683 31.1687 7.07904 31.1478C7.82634 31.1302 8.57472 31.1302 9.32203 31.1478C10.215 31.1718 10.8739 31.6079 11.2517 32.4093C11.6233 33.1972 11.5046 33.9497 11.0144 34.6679C10.9165 34.8105 10.8489 35.0686 10.9103 35.2081C12.1125 37.9298 12.3851 40.7369 11.7107 43.6533H13.8933C13.5259 41.8943 13.3604 40.1322 13.7476 38.3805C13.9766 37.3407 14.3502 36.3321 14.6833 35.3174C14.7634 35.0717 14.8144 34.9052 14.625 34.6637C14.0754 33.9674 13.987 33.1785 14.3794 32.377C14.7697 31.5798 15.4378 31.1624 16.3298 31.1458C17.0459 31.1322 17.7609 31.1364 18.476 31.1447C19.369 31.1551 20.0497 31.5558 20.4442 32.351C20.848 33.1629 20.7627 33.9684 20.1996 34.6835C20.0258 34.9052 20.0476 35.0603 20.1486 35.2872C21.3289 37.9433 21.5828 40.6932 20.9594 43.5273C20.9521 43.5575 20.9646 43.5908 20.9709 43.647H23.1097C22.7704 41.9869 22.5955 40.332 22.9213 38.6886C23.1482 37.5509 23.5458 36.4445 23.8966 35.334C23.9798 35.0707 24.0256 34.8979 23.8289 34.645C23.2971 33.9591 23.2201 33.1826 23.5916 32.3968C23.9632 31.611 24.6095 31.1811 25.4807 31.152C26.2602 31.127 27.0419 31.1249 27.8215 31.1551C28.6958 31.1874 29.3317 31.637 29.6981 32.4218C30.0582 33.192 29.9771 33.9549 29.4598 34.6262C29.2537 34.8937 29.2734 35.0811 29.3973 35.3611C30.5692 38.0214 30.8139 40.7712 30.154 43.6376H32.6134C31.6049 41.6351 31.6704 39.7814 33.4086 38.1203C32.679 37.5062 32.1929 36.7308 32.0222 35.7618C31.5736 33.2024 33.2639 31.151 35.8493 31.1458C38.5159 31.1406 41.1814 31.1416 43.848 31.1458C45.5778 31.1478 46.8965 31.9847 47.4752 33.4397C48.0955 34.9957 47.7135 36.787 46.5135 37.9298C46.4438 37.9954 46.3418 38.0255 46.245 38.0776C47.9894 39.5347 48.1309 41.9265 47.0683 43.6356C47.3815 43.6709 47.6782 43.6834 47.9686 43.7386C49.715 44.0644 50.9661 45.5121 51.0015 47.2378C51.0379 48.9854 49.8785 50.4737 48.1539 50.8952C48.0612 50.9171 47.9727 50.9577 47.8811 50.991H19.4876C19.1202 50.7745 18.8736 50.48 19.0203 50.0324C19.1661 49.5849 19.5449 49.5006 19.9664 49.5276C20.0789 49.5339 20.1944 49.5276 20.3078 49.5276C29.1839 49.5276 38.0579 49.5276 46.934 49.5276C47.113 49.5276 47.2931 49.5328 47.4711 49.5224C48.8803 49.4381 49.8431 48.0663 49.4455 46.7122C49.1541 45.7151 48.312 45.1364 47.139 45.1364C33.062 45.1364 18.9829 45.1364 4.90586 45.1364C4.79346 45.1364 4.67792 45.1343 4.56447 45.1416C3.67249 45.1978 2.88249 45.8171 2.61396 46.6695C2.16016 48.1111 3.21557 49.5193 4.77887 49.5235C8.67985 49.5328 12.5808 49.5287 16.4828 49.5235C16.8929 49.5235 17.2708 49.5515 17.4498 50.0001C17.6319 50.4581 17.3467 50.7256 17.048 50.9879H4.17518C3.23012 50.7495 2.35374 50.3613 1.8094 49.5203C1.48362 49.0134 1.30045 48.4181 1.05273 47.8634C1.05273 47.5064 1.05273 47.1473 1.05273 46.7903ZM39.8877 38.8707C38.5221 38.8707 37.1576 38.8644 35.7921 38.8717C34.3256 38.8801 33.446 39.7835 33.446 41.2635C33.446 42.7373 34.3412 43.6657 35.7869 43.6678C38.5013 43.673 41.2147 43.672 43.9292 43.6678C45.3769 43.6657 46.2772 42.7415 46.2772 41.2698C46.2772 39.7887 45.3977 38.8811 43.9354 38.8738C42.5865 38.8655 41.2376 38.8717 39.8887 38.8717L39.8877 38.8707ZM39.8825 32.6029C38.5169 32.6029 37.1524 32.5977 35.7869 32.6039C34.3245 32.6112 33.445 33.5178 33.446 35.0009C33.446 36.4675 34.3463 37.4011 35.791 37.4052C38.5054 37.4115 41.2188 37.4115 43.9333 37.4052C45.38 37.4011 46.2762 36.4675 46.2762 34.9968C46.2762 33.5188 45.3915 32.6112 43.9292 32.6039C42.5803 32.5956 41.2314 32.6029 39.8825 32.6029ZM24.4108 38.572C24.1339 40.0739 24.1963 41.5071 24.468 42.933C24.5585 43.4076 24.8947 43.6553 25.3714 43.6626C26.2145 43.6772 27.0596 43.6741 27.9027 43.6637C28.3835 43.6584 28.7259 43.4055 28.8144 42.9392C29.0673 41.5935 29.1579 40.2362 28.9185 38.8769C28.8977 38.7625 28.7353 38.5855 28.6375 38.5845C27.2438 38.5647 25.8512 38.5709 24.4128 38.5709L24.4108 38.572ZM19.6531 38.597H15.2172C15.187 38.6823 15.1558 38.7406 15.1443 38.8041C14.9008 40.1811 14.9903 41.5529 15.2349 42.9163C15.3244 43.4076 15.6845 43.6605 16.2268 43.6668C17.0063 43.6741 17.7849 43.673 18.5634 43.6668C19.2045 43.6616 19.5126 43.4055 19.623 42.7675C19.8603 41.4009 19.9134 40.0291 19.6521 38.599L19.6531 38.597ZM5.96536 38.6011C5.69891 40.0312 5.75511 41.429 6.00595 42.8248C6.10899 43.3982 6.42546 43.6584 7.01456 43.6657C7.80974 43.6741 8.60492 43.6741 9.4001 43.6657C9.99233 43.6574 10.3285 43.3535 10.4107 42.7623C10.4763 42.2971 10.57 41.8308 10.5741 41.3624C10.5825 40.4465 10.5397 39.5306 10.5189 38.6011H5.96536ZM10.0932 37.0919C9.7914 36.38 9.51356 35.7472 9.25336 35.1061C9.03374 34.5638 9.11283 34.3119 9.58744 33.9882C9.89864 33.7759 10.0807 33.5147 9.96314 33.1254C9.84656 32.7424 9.55827 32.5998 9.17941 32.5998C8.54451 32.5998 7.91169 32.6039 7.2768 32.5987C6.88337 32.5946 6.55346 32.707 6.43793 33.115C6.32552 33.5095 6.48789 33.805 6.84698 34.007C7.25289 34.2359 7.34552 34.5898 7.18316 35.0082C7.04057 35.3704 6.86256 35.7181 6.71789 36.0792C6.58987 36.3977 6.48685 36.7245 6.35674 37.0909H10.0943L10.0932 37.0919ZM19.3034 37.0847C19.0307 36.4362 18.7987 35.8721 18.5562 35.3121C18.2366 34.5752 18.2949 34.441 18.8934 33.906C19.0745 33.7426 19.217 33.3752 19.1619 33.1566C19.1067 32.9401 18.7903 32.657 18.5686 32.6393C17.8109 32.5738 17.0407 32.5738 16.282 32.6362C16.0592 32.6549 15.7563 32.9287 15.6814 33.1514C15.6137 33.3492 15.7345 33.7124 15.8989 33.8716C16.5942 34.544 16.6129 34.568 16.208 35.4787C15.9791 35.9908 15.7772 36.5143 15.543 37.0857H19.3066L19.3034 37.0847ZM28.5334 37.0919C28.2326 36.3821 27.9547 35.7472 27.6935 35.1061C27.4739 34.5648 27.5529 34.3109 28.0276 33.9882C28.3388 33.7759 28.5209 33.5147 28.4033 33.1264C28.2867 32.7434 28.0005 32.6008 27.6196 32.6029C26.9847 32.6029 26.3519 32.606 25.717 32.5998C25.3236 32.5956 24.9936 32.708 24.8781 33.116C24.7656 33.5094 24.927 33.8071 25.2871 34.009C25.692 34.237 25.7856 34.5909 25.6233 35.0093C25.4807 35.3715 25.3027 35.7201 25.158 36.0803C25.03 36.3988 24.927 36.7256 24.7969 37.0919H28.5334Z" fill="#01CAA9" stroke="white" stroke-width="0.4" mask="url(#path-5-inside-1_1_6107)"/>
<path d="M20.0352 18.8596C20.0349 18.973 20.0338 19.0861 20.0327 19.1988C20.022 20.2733 20.0117 21.3107 20.7177 22.2495L20.838 22.4096H20.6377H17.7828H17.5977L17.6992 22.2548C18.1586 21.5539 18.3708 20.8537 18.3708 20.0896L19.9373 16.6164L20.0373 16.617C20.0344 17.0285 20.035 17.4382 20.0356 17.8485C20.0361 18.1846 20.0366 18.5212 20.0352 18.8596ZM20.0352 18.8596C20.0352 18.8596 20.0352 18.8597 20.0352 18.8597L19.9352 18.8593L20.0352 18.8596ZM25.8918 9.82399V9.92399C25.8918 9.92399 25.8918 9.92399 25.8919 9.92399M25.8918 9.82399L34.6676 19.2035C34.6571 20.2755 34.6468 21.3137 35.3681 22.268L35.4892 22.4283H35.2883H32.5634H32.4328L32.4669 22.3022C32.5231 22.0943 32.5913 21.885 32.6583 21.6795C32.6977 21.5588 32.7366 21.4394 32.7724 21.3224C32.8707 21.0012 32.9493 20.6874 32.9673 20.3732C33.0431 18.9836 33.0348 17.585 32.9787 16.1916C32.918 14.684 31.9778 13.505 30.5341 13.0311M25.8918 9.82399L25.8919 9.92399M25.8918 9.82399L25.8919 9.92399M25.8919 9.92399C25.999 9.92398 26.1061 9.9233 26.2129 9.92262C26.7739 9.91905 27.3288 9.91552 27.8631 10.0109M27.8631 10.0109C29.0554 10.2253 29.9182 11.2072 30.0399 12.4111L30.0399 12.4113C30.0564 12.5709 30.0931 12.7029 30.176 12.8084C30.2594 12.9144 30.3791 12.9807 30.5341 13.0311M27.8631 10.0109L27.8808 9.91245M27.8631 10.0109C27.8632 10.0109 27.8632 10.0109 27.8632 10.0109L27.8808 9.91245M30.5341 13.0311C30.534 13.0311 30.534 13.0311 30.5339 13.031L30.5651 12.936M30.5341 13.0311C30.5341 13.0311 30.5341 13.0311 30.5342 13.0311L30.5651 12.936M30.5651 12.936C30.2736 12.8413 30.1706 12.7039 30.1394 12.401M30.5651 12.936C32.0461 13.4221 33.0162 14.6357 33.0786 16.1875C33.1348 17.5833 33.1432 18.9852 33.0672 20.3789C33.0414 20.827 32.8974 21.2688 32.7521 21.7147C32.6965 21.8851 32.6407 22.0561 32.5913 22.2283H32.5634L30.1394 12.401M30.1394 12.401C30.0134 11.1552 29.1194 10.1352 27.8808 9.91245M30.1394 12.401L27.8808 9.91245M40.5226 9.82502L40.5227 9.92502C39.7286 9.92603 39.0571 10.1791 38.5567 10.6245C38.0561 11.0701 37.7205 11.7136 37.6084 12.5056L37.6084 12.5057C37.5947 12.6017 37.5415 12.7031 37.4783 12.7846C37.4155 12.8657 37.3303 12.943 37.2386 12.9775L37.2383 12.9777C36.3759 13.2988 35.7397 13.7537 35.3166 14.3518C34.8935 14.9497 34.6773 15.6995 34.6701 16.6212C34.6667 17.0967 34.6678 17.5722 34.669 18.0488C34.6696 18.2873 34.6701 18.5262 34.6701 18.7654L34.569 18.0495C34.5678 17.5727 34.5667 17.0964 34.5701 16.6205C34.5847 14.746 35.4506 13.5366 37.2034 12.884C37.3387 12.833 37.4886 12.6373 37.5094 12.4916C37.7394 10.8669 38.8906 9.8271 40.5226 9.82502ZM40.5226 9.82502C40.6311 9.82502 40.7399 9.82427 40.8489 9.82352C41.4072 9.81967 41.9701 9.81579 42.5126 9.91245M40.5226 9.82502V9.92502C40.6326 9.92502 40.7425 9.92427 40.8521 9.92353C41.4104 9.91974 41.9624 9.916 42.495 10.0109M42.5126 9.91245L42.495 10.0109M42.5126 9.91245C43.7501 10.1341 44.6452 11.1552 44.7732 12.3979C44.8045 12.7008 44.9033 12.8403 45.1968 12.936L42.5126 9.91245ZM42.495 10.0109C43.6861 10.2243 44.5501 11.2072 44.6738 12.4082C44.6902 12.5671 44.7256 12.6995 44.8075 12.8057C44.89 12.9127 45.0094 12.98 45.1657 13.031M42.495 10.0109L45.1657 13.031M45.1657 13.031C46.6117 13.5049 47.553 14.683 47.6136 16.1905C47.6698 17.584 47.678 18.9827 47.6012 20.3723C47.5837 20.687 47.5055 21.0011 47.4079 21.3218C47.3721 21.4395 47.3331 21.5595 47.2937 21.6808C47.2275 21.8846 47.1602 22.0919 47.1049 22.2971L47.0759 22.4048L47.1861 22.4219C47.2921 22.4384 47.4033 22.4518 47.5178 22.4656C47.7654 22.4954 48.0283 22.5271 48.2875 22.5957L48.2875 22.5957C49.9419 23.0328 51.0394 24.6067 50.8997 26.3065C50.758 28.025 49.3884 29.3988 47.6645 29.5446L47.6641 29.5446C47.4558 29.5632 47.2465 29.5755 47.0391 29.5755C44.7079 29.5756 42.3768 29.5758 40.0457 29.576C28.3781 29.5771 16.711 29.5781 5.04323 29.5755C3.23302 29.5755 1.92491 28.7276 1.37544 27.2468C1.32344 27.1064 1.278 26.966 1.23187 26.8234C1.20613 26.7438 1.18017 26.6636 1.15274 26.5823C1.15275 26.3932 1.153 26.2037 1.15324 26.014L1.15324 26.014C1.15349 25.8243 1.15374 25.6347 1.15375 25.4454C1.17332 25.3878 1.1932 25.3299 1.21315 25.2717C1.2537 25.1535 1.29459 25.0343 1.33397 24.9148L1.33404 24.9146C1.78163 23.5455 2.98916 22.5914 4.41718 22.479L4.41765 22.479C4.48879 22.4731 4.56165 22.4674 4.64179 22.4611C4.75439 22.4522 4.88136 22.4423 5.03811 22.429L5.21571 22.414L5.11032 22.2703C4.65972 21.6557 4.49184 21.0067 4.43521 20.3382C4.40683 20.0032 4.40645 19.6641 4.41231 19.3215C4.41391 19.2278 4.41599 19.1335 4.41807 19.0391C4.42356 18.7901 4.42909 18.5394 4.42605 18.2908L4.42605 18.2908C4.4092 16.9318 4.4151 15.5719 4.42101 14.2116C4.42166 14.0603 4.42232 13.909 4.42294 13.7576C4.42806 12.5603 4.80275 11.6039 5.4664 10.9466C6.13013 10.2893 7.09344 9.92083 8.29584 9.91981L8.29576 9.81981C9.00043 9.81981 9.7051 9.81946 10.4097 9.81911L45.1657 13.031ZM23.5944 14.109L23.5968 14.1089L23.597 14.1089H23.5972H23.5974H23.5975H23.5977H23.5979H23.5981H23.5983H23.5985H23.5987H23.5989H23.5991H23.5992H23.5994H23.5996H23.5998H23.6H23.6002H23.6004H23.6006H23.6008H23.6009H23.6011H23.6013H23.6015H23.6017H23.6019H23.6021H23.6023H23.6025H23.6026H23.6028H23.603H23.6032H23.6034H23.6036H23.6038H23.604H23.6042H23.6044H23.6045H23.6047H23.6049H23.6051H23.6053H23.6055H23.6057H23.6059H23.6061H23.6062H23.6064H23.6066H23.6068H23.607H23.6072H23.6074H23.6076H23.6078H23.6079H23.6081H23.6083H23.6085H23.6087H23.6089H23.6091H23.6093H23.6095H23.6096H23.6098H23.61H23.6102H23.6104H23.6106H23.6108H23.611H23.6112H23.6113H23.6115H23.6117H23.6119H23.6121H23.6123H23.6125H23.6127H23.6129H23.6131H23.6132H23.6134H23.6136H23.6138H23.614H23.6142H23.6144H23.6146H23.6148H23.6149H23.6151H23.6153H23.6155H23.6157H23.6159H23.6161H23.6163H23.6165H23.6166H23.6168H23.617H23.6172H23.6174H23.6176H23.6178H23.618H23.6182H23.6184H23.6185H23.6187H23.6189H23.6191H23.6193H23.6195H23.6197H23.6199H23.6201H23.6202H23.6204H23.6206H23.6208H23.621H23.6212H23.6214H23.6216H23.6218H23.622H23.6221H23.6223H23.6225H23.6227H23.6229H23.6231H23.6233H23.6235H23.6237H23.6238H23.624H23.6242H23.6244H23.6246H23.6248H23.625H23.6252H23.6254H23.6255H23.6257H23.6259H23.6261H23.6263H23.6265H23.6267H23.6269H23.6271H23.6273H23.6274H23.6276H23.6278H23.628H23.6282H23.6284H23.6286H23.6288H23.629H23.6292H23.6293H23.6295H23.6297H23.6299H23.6301H23.6303H23.6305H23.6307H23.6309H23.6311H23.6312H23.6314H23.6316H23.6318H23.632H23.6322H23.6324H23.6326H23.6328H23.6329H23.6331H23.6333H23.6335H23.6337H23.6339H23.6341H23.6343H23.6345H23.6347H23.6348H23.635H23.6352H23.6354H23.6356H23.6358H23.636H23.6362H23.6364H23.6366H23.6367H23.6369H23.6371H23.6373H23.6375H23.6377H23.6379H23.6381H23.6383H23.6385H23.6387H23.6388H23.639H23.6392H23.6394H23.6396H23.6398H23.64H23.6402H23.6404H23.6406H23.6407H23.6409H23.6411H23.6413H23.6415H23.6417H23.6419H23.6421H23.6423H23.6425H23.6426H23.6428H23.643H23.6432H23.6434H23.6436H23.6438H23.644H23.6442H23.6444H23.6446H23.6447H23.6449H23.6451H23.6453H23.6455H23.6457H23.6459H23.6461H23.6463H23.6465H23.6466H23.6468H23.647H23.6472H23.6474H23.6476H23.6478H23.648H23.6482H23.6484H23.6486H23.6487H23.6489H23.6491H23.6493H23.6495H23.6497H23.6499H23.6501H23.6503H23.6505H23.6507H23.6508H23.651H23.6512H23.6514H23.6516H23.6518H23.652H23.6522H23.6524H23.6526H23.6528H23.6529H23.6531H23.6533H23.6535H23.6537H23.6539H23.6541H23.6543H23.6545H23.6547H23.6549H23.655H23.6552H23.6554H23.6556H23.6558H23.656H23.6562H23.6564H23.6566H23.6568H23.657H23.6572H23.6573H23.6575H23.6577H23.6579H23.6581H23.6583H23.6585H23.6587H23.6589H23.6591H23.6593H23.6595H23.6596H23.6598H23.66H23.6602H23.6604H23.6606H23.6608H23.661H23.6612H23.6614H23.6616H23.6618H23.6619H23.6621H23.6623H23.6625H23.6627H23.6629H23.6631H23.6633H23.6635H23.6637H23.6639H23.6641H23.6642H23.6644H23.6646H23.6648H23.665H23.6652H23.6654H23.6656H23.6658H23.666H23.6662H23.6664H23.6665H23.6667H23.6669H23.6671H23.6673H23.6675H23.6677H23.6679H23.6681H23.6683H23.6685H23.6687H23.6689H23.669H23.6692H23.6694H23.6696H23.6698H23.67H23.6702H23.6704H23.6706H23.6708H23.671H23.6712H23.6714H23.6716H23.6717H23.6719H23.6721H23.6723H23.6725H23.6727H23.6729H23.6731H23.6733H23.6735H23.6737H23.6739H23.6741H23.6742H23.6744H23.6746H23.6748H23.675H23.6752H23.6754H23.6756H23.6758H23.676H23.6762H23.6764H23.6766H23.6768H23.677H23.6771H23.6773H23.6775H23.6777H23.6779H23.6781H23.6783H23.6785H23.6787H23.6789H23.6791H23.6793H23.6795H23.6797H23.6799H23.68H23.6802H23.6804H23.6806H23.6808H23.681H23.6812H23.6814H23.6816H23.6818H23.682H23.6822H23.6824H23.6826H23.6828H23.683H23.6831H23.6833H23.6835H23.6837H23.6839H23.6841H23.6843H23.6845H23.6847H23.6849H23.6851H23.6853H23.6855H23.6857H23.6859H23.6861H23.6862H23.6864H23.6866H23.6868H23.687H23.6872H23.6874H23.6876H23.6878H23.688H23.6882H23.6884H23.6886H23.6888H23.689H23.6892H23.6894H23.6896H23.6897H23.6899H23.6901H23.6903H23.6905H23.6907H23.6909H23.6911H23.6913H23.6915H23.6917H23.6919H23.6921H23.6923H23.6925H23.6927H23.6929H23.6931H23.6933H23.6934H23.6936H23.6938H23.694H23.6942H23.6944H23.6946H23.7002H23.7059H23.7115H23.7171H23.7227H23.7283H23.7339H23.7396H23.7452H23.7508H23.7564H23.762H23.7676H23.7733H23.7789H23.7845H23.7901H23.7957H23.8013H23.8069H23.8126H23.8182H23.8238H23.8294H23.835H23.8406H23.8463H23.8519H23.8575H23.8631H23.8687H23.8743H23.88H23.8856H23.8912H23.8968H23.9024H23.908H23.9137H23.9193H23.9249H23.9305H23.9361H23.9417H23.9473H23.953H23.9586H23.9642H23.9698H23.9754H23.981H23.9867H23.9923H23.9979H24.0035H24.0091H24.0147H24.0204H24.026H24.0316H24.0372H24.0428H24.0484H24.054H24.0597H24.0653H24.0709H24.0765H24.0821H24.0877H24.0934H24.099H24.1046H24.1102H24.1158H24.1214H24.127H24.1327H24.1383H24.1439H24.1495H24.1551H24.1607H24.1664H24.172H24.1776H24.1832H24.1888H24.1944H24.2H24.2057H24.2113H24.2169H24.2225H24.2281H24.2337H24.2394H24.245H24.2506H24.2562H24.2618H24.2674H24.273H24.2787H24.2843H24.2899H24.2955H24.3011H24.3067H24.3123H24.318H24.3236H24.3292H24.3348H24.3404H24.346H24.3517H24.3573H24.3629H24.3685H24.3741H24.3797H24.3853H24.391H24.3966H24.4022H24.4078H24.4134H24.419H24.4246H24.4303H24.4359H24.4415H24.4471H24.4527H24.4583H24.4639H24.4696H24.4752H24.4808H24.4864H24.492H24.4976H24.5033H24.5089H24.5145H24.5201H24.5257H24.5313H24.5369H24.5426H24.5482H24.5538H24.5594H24.565H24.5706H24.5762H24.5819H24.5875H24.5931H24.5987H24.6043H24.6099H24.6155H24.6212H24.6268H24.6324H24.638H24.6436H24.6492H24.6549H24.6605H24.6661H24.6717H24.6773H24.6829H24.6885H24.6942H24.6998H24.7054H24.711H24.7166H24.7222H24.7278H24.7335H24.7391H24.7447H24.7503H24.7559H24.7615H24.7671H24.7728H24.7784H24.784H24.7896H24.7952H24.8008H24.8064H24.8121H24.8177H24.8233H24.8289H24.8345H24.8401H24.8458H24.8514H24.857H24.8626H24.8682H24.8738H24.8794H24.8851H24.8907H24.8963H24.9019H24.9075H24.9131H24.9187H24.9244H24.93H24.9356H24.9412H24.9468H24.9524H24.958H24.9637H24.9693H24.9749H24.9805H24.9861H24.9917H24.9974H25.003H25.0086H25.0142H25.0198H25.0254H25.031H25.0367H25.0423H25.0479H25.0535H25.0591H25.0647H25.0703H25.076H25.0816H25.0872H25.0928H25.0984H25.104H25.1097H25.1153H25.1209H25.1265H25.1321H25.1377H25.1433H25.149H25.1546H25.1602H25.1658H25.1714H25.177H25.1827H25.1883H25.1939H25.1995H25.2051H25.2107H25.2163H25.222H25.2276H25.2332H25.2388H25.2444H25.25H25.2557H25.2613H25.2669H25.2725H25.2781H25.2837H25.2893H25.295H25.3006H25.3062H25.3118H25.3174H25.323H25.3287H25.3343H25.3399H25.3455H25.3511H25.3567H25.3624H25.368H25.3736H25.3792H25.3848H25.3904H25.396H25.4017H25.4073H25.4129H25.4185H25.4241H25.4297H25.4354H25.441H25.4466H25.4522H25.4578H25.4634H25.4691H25.4747H25.4803H25.4859H25.4915H25.4971H25.5028H25.5084H25.514H25.5196H25.5252H25.5308H25.5365H25.5421H25.5477H25.5533H25.5589H25.5645H25.5702H25.5758H25.5814H25.587H25.5926H25.5982H25.6039H25.6095H25.6151H25.6207H25.6263H25.6319H25.6376H25.6432H25.6488H25.6544H25.66H25.6656H25.6713H25.6769H25.6825H25.6881H25.6937H25.6993H25.705H25.7106H25.7162H25.7218H25.7274H25.733H25.7387H25.7443H25.7499H25.7555H25.7611H25.7667H25.7724H25.778H25.7836H25.7892H25.7948H25.8005H25.8061H25.8117H25.8173H25.8229H25.8285H25.8342H25.8398H25.8454H25.851H25.8566H25.8622H25.8679H25.8735H25.8791H25.8847H25.8903H25.896H25.9016H25.9072H25.9128H25.9184H25.924H25.9297H25.9353H25.9409H25.9465H25.9521H25.9578H25.9634H25.969H25.9746H25.9802H25.9858H25.9915H25.9971H26.0027H26.0083H26.0139H26.0196H26.0252H26.0308H26.0364H26.042H26.0477H26.0533H26.0589H26.0645H26.0701H26.0758H26.0814H26.087H26.0926H26.0982H26.1038H26.1095H26.1151H26.1207H26.1263H26.1319H26.1376H26.1432H26.1488H26.1544H26.16H26.1657H26.1713H26.1769H26.1825H26.1881H26.1938H26.1994H26.205H26.2106H26.2162H26.2219H26.2275H26.2331H26.2387H26.2443H26.25H26.2556H26.2612H26.2668H26.2724H26.2781H26.2837H26.2893H26.2949H26.3006H26.3062H26.3118H26.3174H26.323H26.3287H26.3343H26.3399H26.3455H26.3511H26.3568H26.3624H26.368H26.3736H26.3792H26.3849H26.3905H26.3961H26.4017H26.4074H26.413H26.4186H26.4242H26.4298H26.4355H26.4411H26.4467H26.4523H26.4579H26.4636H26.4692H26.4748H26.4804H26.4861H26.4917H26.4973H26.5029H26.5085H26.5096L26.5107 14.1068L26.5716 14.1069C26.8985 14.1072 27.226 14.1066 27.5538 14.1059C28.1691 14.1047 28.7854 14.1035 29.4002 14.1089L29.4004 14.1089C30.701 14.123 31.6831 15.0131 31.7267 16.3164M23.5944 14.109L31.6235 20.2665L31.7235 20.2699C31.7235 20.2699 31.7235 20.2698 31.7235 20.2698C31.7683 18.9532 31.7715 17.6333 31.7267 16.3164M23.5944 14.109C22.3541 14.1382 21.3674 15.0174 21.3226 16.2661L23.5944 14.109ZM31.7267 16.3164L31.6267 16.3197M31.7267 16.3164C31.7267 16.3164 31.7267 16.3163 31.7267 16.3163L31.6267 16.3197M31.6267 16.3197C31.5851 15.0739 30.6504 14.2225 29.3994 14.2089L31.6267 16.3197ZM41.2172 14.111C41.5036 14.1109 41.7901 14.1101 42.0767 14.1093C42.7287 14.1075 43.3812 14.1057 44.0342 14.1121C45.3349 14.124 46.3169 15.0131 46.3615 16.3163L46.3615 16.3163C46.4053 17.6166 46.4022 18.9208 46.3637 20.2204C46.3637 20.2205 46.3637 20.2205 46.3637 20.2205L46.2637 20.2176L41.2172 14.111ZM41.2172 14.111L41.2161 14.1089H41.1554C40.8641 14.1089 40.5725 14.1083 40.2808 14.1076C39.6134 14.106 38.9453 14.1045 38.2786 14.111C36.9778 14.123 35.9958 15.0164 35.9523 16.3174C35.9095 17.6177 35.9117 18.9218 35.9502 20.2216C35.985 21.4692 36.8551 22.3967 38.1085 22.4283L38.111 22.3283L38.1085 22.4283C40.1397 22.4794 42.1741 22.4794 44.2064 22.4283L44.2039 22.3283L41.2172 14.111ZM8.09225 11.1822L8.09251 11.1822C8.82886 11.1801 9.56583 11.1808 10.3027 11.1815C10.6711 11.1818 11.0395 11.1822 11.4078 11.1822H11.4099C11.7347 11.1822 12.0597 11.1817 12.3847 11.1813L8.09225 11.1822ZM8.09225 11.1822C7.40282 11.1859 6.80795 11.4125 6.38254 11.8154M8.09225 11.1822L6.38254 11.8154M5.69886 20.1585L5.69886 20.1584C5.67179 17.9314 5.66867 15.7043 5.69886 13.477V20.1585ZM5.69886 20.1585C5.70695 20.8058 5.92857 21.3683 6.31584 21.773C6.70342 22.178 7.25134 22.419 7.90026 22.4325H7.90028M5.69886 20.1585L7.90028 22.4325M7.90028 22.4325C10.2237 22.4804 12.5512 22.4804 14.8746 22.4346H14.8746M7.90028 22.4325L14.8746 22.4346M14.8746 22.4346C15.5265 22.4216 16.0784 22.1856 16.4699 21.7854C16.8612 21.3853 17.0862 20.8272 17.0959 20.1806L17.0959 20.1804M14.8746 22.4346L17.0959 20.1804M17.0959 20.1804C17.1272 17.9387 17.1293 15.6937 17.0959 13.4508L17.0959 13.4507M17.0959 20.1804L17.0959 13.4507M17.0959 13.4507C17.0857 12.7764 16.8348 12.2098 16.4119 11.8111M17.0959 13.4507L16.4119 11.8111M25.6726 11.1948C24.8488 11.2418 24.2717 11.9005 24.2795 12.7257L24.2804 12.8247H24.3795H28.676H28.7813L28.7758 12.7196C28.732 11.8696 28.1872 11.2465 27.3876 11.1959C26.8169 11.1592 26.2425 11.1613 25.6726 11.1948ZM25.6726 11.1948C25.6727 11.1948 25.6727 11.1948 25.6727 11.1948L25.6784 11.2947L25.6725 11.1948C25.6726 11.1948 25.6726 11.1948 25.6726 11.1948ZM6.38254 11.8154C5.95669 12.2188 5.70752 12.7926 5.69886 13.4769L6.38254 11.8154ZM16.4119 11.8111C15.9895 11.4129 15.4017 11.188 14.7266 11.1843L16.4119 11.8111ZM14.6362 9.91981C15.7291 9.92186 16.6516 10.2905 17.3046 10.9252C17.9573 11.5597 18.3472 12.4663 18.3635 13.5568C18.3844 15.0166 18.3796 16.4766 18.3748 17.9374L14.6362 9.91981ZM1.05375 25.4289C1.07528 25.3655 1.09706 25.302 1.11887 25.2384C1.15927 25.1206 1.19979 25.0025 1.23899 24.8835C1.69903 23.4764 2.94075 22.4949 4.40934 22.3793L1.05375 25.4289ZM2.46747 26.4771L2.46748 26.4771C2.6028 27.0783 2.89684 27.541 3.34898 27.8518C3.7992 28.1612 4.3964 28.3131 5.12751 28.3131C19.0609 28.3131 32.9954 28.3131 46.9288 28.3121C47.19 28.3121 47.4575 28.3027 47.7203 28.2653C49.006 28.0832 49.8871 26.7837 49.5907 25.5226L49.4933 25.5455L49.5907 25.5226C49.4573 24.9558 49.1703 24.5039 48.7517 24.1945C48.3338 23.8856 47.7918 23.724 47.1567 23.724C42.4738 23.7226 37.7918 23.7231 33.1095 23.7235C30.7682 23.7238 28.4269 23.724 26.0854 23.724H26.0444H26.0034H25.9625H25.9215H25.8806H25.8396H25.7986H25.7577H25.7167H25.6757H25.6348H25.5938H25.5528H25.5119H25.4709H25.4299H25.389H25.348H25.3071H25.2661H25.2251H25.1842H25.1432H25.1022H25.0613H25.0203H24.9793H24.9384H24.8974H24.8565H24.8155H24.7745H24.7336H24.6926H24.6516H24.6107H24.5697H24.5287H24.4878H24.4468H24.4059H24.3649H24.3239H24.283H24.242H24.201H24.1601H24.1191H24.0781H24.0372H23.9962H23.9553H23.9143H23.8733H23.8324H23.7914H23.7504H23.7095H23.6685H23.6275H23.5866H23.5456H23.5046H23.4637H23.4227H23.3818H23.3408H23.2998H23.2589H23.2179H23.1769H23.136H23.095H23.054H23.0131H22.9721H22.9312H22.8902H22.8492H22.8083H22.7673H22.7263H22.6854H22.6444H22.6034H22.5625H22.5215H22.4806H22.4396H22.3986H22.3577H22.3167H22.2757H22.2348H22.1938H22.1528H22.1119H22.0709H22.0299H21.989H21.948H21.9071H21.8661H21.8251H21.7842H21.7432H21.7022H21.6613H21.6203H21.5793H21.5384H21.4974H21.4565H21.4155H21.3745H21.3336H21.2926H21.2516H21.2107H21.1697H21.1287H21.0878H21.0468H21.0059H20.9649H20.9239H20.883H20.842H20.801H20.7601H20.7191H20.6781H20.6372H20.5962H20.5553H20.5143H20.4733H20.4324H20.3914H20.3504H20.3095H20.2685H20.2275H20.1866H20.1456H20.1046H20.0637H20.0227H19.9818H19.9408H19.8998H19.8589H19.8179H19.7769H19.736H19.695H19.654H19.6131H19.5721H19.5312H19.4902H19.4492H19.4083H19.3673H19.3263H19.2854H19.2444H19.2034H19.1625H19.1215H19.0806H19.0396H18.9986H18.9577H18.9167H18.8757H18.8348H18.7938H18.7528H18.7119H18.6709H18.6299H18.589H18.548H18.5071H18.4661H18.4251H18.3842H18.3432H18.3022H18.2613H18.2203H18.1793H18.1384H18.0974H18.0565H18.0155H17.9745H17.9336H17.8926H17.8516H17.8107H17.7697H17.7287H17.6878H17.6468H17.6059H17.5649H17.5239H17.483H17.442H17.401H17.3601H17.3191H17.2781H17.2372H17.1962H17.1553H17.1143H17.0733H17.0324H16.9914H16.9504H16.9095H16.8685H16.8275H16.7866H16.7456H16.7046H16.6637H16.6227H16.5818H16.5408H16.4998H16.4589H16.4179H16.3769H16.336H16.295H16.254H16.2131H16.1721H16.1312H16.0902H16.0492H16.0083H15.9673H15.9263H15.8854H15.8444H15.8034H15.7625H15.7215H15.6806H15.6396H15.5986H15.5577H15.5167H15.4757H15.4348H15.3938H15.3528H15.3119H15.2709H15.23H15.189H15.148H15.1071H15.0661H15.0251H14.9842H14.9432H14.9022H14.8613H14.8203H14.7793H14.7384H14.6974H14.6565H14.6155H14.5745H14.5336H14.4926H14.4516H14.4107H14.3697H14.3287H14.2878H14.2468H14.2059H14.1649H14.1239H14.083H14.042H14.001H13.9601H13.9191H13.8781H13.8372H13.7962H13.7553H13.7143H13.6733H13.6324H13.5914H13.5504H13.5095H13.4685H13.4275H13.3866H13.3456H13.3046H13.2637H13.2227H13.1818H13.1408H13.0998H13.0589H13.0179H12.9769H12.936H12.895H12.854H12.8131H12.7721H12.7312H12.6902H12.6492H12.6083H12.5673H12.5263H12.4854H12.4444H12.4034H12.3625H12.3215H12.2806H12.2396H12.1986H12.1577H12.1167H12.0757H12.0348H11.9938H11.9528H11.9119H11.8709H11.83H11.789H11.748H11.7071H11.6661H11.6251H11.5842H11.5432H11.5022H11.4613H11.4203H11.3793H11.3384H11.2974H11.2565H11.2155H11.1745H11.1336H11.0926H11.0516H11.0107H10.9697H10.9287H10.8878H10.8468H10.8059H10.7649H10.7239H10.683H10.642H10.601H10.5601H10.5191H10.4781H10.4372H10.3962H10.3553H10.3143H10.2733H10.2324H10.1914H10.1504H10.1095H10.0685H10.0275H9.98658H9.94561H9.90465H9.86369H9.82272H9.78176H9.74079H9.69983H9.65887H9.6179H9.57694H9.53598H9.49501H9.45405H9.41308H9.37212H9.33116H9.29019H9.24923H9.20826H9.1673H9.12634H9.08537H9.04441H9.00345H8.96248H8.92152H8.88055H8.83959H8.79863H8.75766H8.7167H8.67573H8.63477H8.59381H8.55284H8.51188H8.47092H8.42995H8.38899H8.34802H8.30706H8.2661H8.22513H8.18417H8.1432H8.10224H8.06128H8.02031H7.97935H7.93839H7.89742H7.85646H7.81549H7.77453H7.73357H7.6926H7.65164H7.61067H7.56971H7.52875H7.48778H7.44682H7.40586H7.36489H7.32393H7.28296H7.242H7.20104H7.16007H7.11911H7.07814H7.03718H6.99622H6.95525H6.91429H6.87333H6.83236H6.7914H6.75043H6.70947H6.66851H6.62754H6.58658H6.54561H6.50465H6.46369H6.42272H6.38176H6.3408H6.29983H6.25887H6.2179H6.17694H6.13598H6.09501H6.05405H6.01308H5.97212H5.93116H5.89019H5.84923H5.80827H5.7673H5.72634H5.68537H5.64441H5.60345H5.56248H5.52152H5.48055H5.43959H5.39863H5.35766H5.3167H5.27574H5.23477H5.19381H5.15284H5.11188H5.10872C4.86731 23.724 4.61632 23.724 4.3695 23.756C3.0826 23.9218 2.18403 25.2147 2.46747 26.4771ZM43.3088 12.8195V12.7234L43.4088 12.7216V12.7195V12.6195H43.4028C43.3333 11.8131 42.7738 11.2326 41.9819 11.1917C41.4289 11.1623 40.8716 11.1613 40.3172 11.1917L40.3172 11.1917C39.4936 11.2375 38.9156 11.8863 38.9134 12.7193L38.9131 12.8195H39.0134H43.3088ZM21.3226 16.2662C21.2736 17.6144 21.2746 18.9688 21.3257 20.317C21.3257 20.3171 21.3257 20.3171 21.3257 20.3171L21.4256 20.3133L21.3226 16.2662Z" fill="#01CAA9" stroke="white" stroke-width="0.2"/>
<path d="M4.80606 1.14066L4.806 1.14066C3.19864 1.14168 1.87624 2.05888 1.36236 3.49827C1.30862 3.64914 1.26385 3.80078 1.21811 3.95572C1.19686 4.02769 1.1754 4.10038 1.15273 4.17403V4.17569V4.17778V4.17987V4.18196V4.18406V4.18615V4.18824V4.19033V4.19243V4.19452V4.19661V4.19871V4.2008V4.20289V4.20499V4.20708V4.20917V4.21127V4.21336V4.21545V4.21755V4.21964V4.22173V4.22383V4.22592V4.22802V4.23011V4.2322V4.2343V4.23639V4.23849V4.24058V4.24268V4.24477V4.24686V4.24896V4.25105V4.25315V4.25524V4.25734V4.25943V4.26153V4.26362V4.26572V4.26781V4.26991V4.272V4.2741V4.27619V4.27829V4.28038V4.28248V4.28458V4.28667V4.28877V4.29086V4.29296V4.29505V4.29715V4.29925V4.30134V4.30344V4.30553V4.30763V4.30973V4.31182V4.31392V4.31602V4.31811V4.32021V4.3223V4.3244V4.3265V4.32859V4.33069V4.33279V4.33488V4.33698V4.33908V4.34118V4.34327V4.34537V4.34747V4.34956V4.35166V4.35376V4.35585V4.35795V4.36005V4.36215V4.36424V4.36634V4.36844V4.37054V4.37263V4.37473V4.37683V4.37893V4.38103V4.38312V4.38522V4.38732V4.38942V4.39151V4.39361V4.39571V4.39781V4.39991V4.40201V4.4041V4.4062V4.4083V4.4104V4.4125V4.4146V4.41669V4.41879V4.42089V4.42299V4.42509V4.42719V4.42929V4.43138V4.43348V4.43558V4.43768V4.43978V4.44188V4.44398V4.44608V4.44817V4.45027V4.45237V4.45447V4.45657V4.45867V4.46077V4.46287V4.46497V4.46707V4.46917V4.47127V4.47337V4.47546V4.47756V4.47966V4.48176V4.48386V4.48596V4.48806V4.49016V4.49226V4.49436V4.49646V4.49856V4.50066V4.50276V4.50486V4.50696V4.50906V4.51116V4.51326V4.51536V4.51746V4.51956V4.52166V4.52376V4.52586V4.52796V4.53006V4.53216V4.53426V4.53636V4.53846V4.54056V4.54266V4.54476V4.54686V4.54896V4.55106V4.55316V4.55526V4.55736V4.55946V4.56156V4.56366V4.56576V4.56786V4.56996V4.57206V4.57416V4.57626V4.57836V4.58047V4.58257V4.58467V4.58677V4.58887V4.59097V4.59307V4.59517V4.59727V4.59937V4.60147V4.60357V4.60567V4.60777V4.60987V4.61197V4.61408V4.61618V4.61828V4.62038V4.62248V4.62458V4.62668V4.62878V4.63088V4.63298V4.63508V4.63718V4.63928V4.64139V4.64349V4.64559V4.64769V4.64979V4.65189V4.65399V4.65609V4.65819V4.66029V4.66239V4.6645V4.6666V4.6687V4.6708V4.6729V4.675V4.6771V4.6792V4.6813V4.6834V4.6855V4.68761V4.68971V4.69181V4.69391V4.69601V4.69811V4.70021V4.70231V4.70441V4.70651V4.70861V4.71072V4.71282V4.71492V4.71702V4.71912V4.72122V4.72332V4.72542V4.72752V4.72962V4.73172V4.73383V4.73593V4.73803V4.74013V4.74223V4.74433V4.74643V4.74853V4.75063V4.75273V4.75483V4.75694V4.75904V4.76114V4.76324V4.76534V4.76744V4.76954V4.77164V4.77374V4.77584V4.77794V4.78004V4.78214V4.78425V4.78635V4.78845V4.79055V4.79265V4.79475V4.79685V4.79895V4.80105V4.80315V4.80525V4.80735V4.80945V4.81155V4.81365V4.81575V4.81785V4.81995V4.82206V4.82416V4.82626V4.82836V4.83046V4.83256V4.83466V4.83676V4.83886V4.84096V4.84306V4.84516V4.84726V4.84936V4.85146V4.85356V4.85566V4.85776V4.85986V4.86196V4.86406V4.86616V4.86826V4.87036V4.87246V4.87456V4.87666V4.87876V4.88086V4.88296V4.88506V4.88716V4.88926V4.89136V4.89346V4.89556V4.89766V4.89976V4.90186V4.90396V4.90606V4.90816V4.91026V4.91235V4.91445V4.91655V4.91865V4.92075V4.92285V4.92495V4.92705V4.92915V4.93125V4.93335V4.93545V4.93755V4.93965V4.94174V4.94384V4.94594V4.94804V4.95014V4.95224V4.95434V4.95644V4.95854V4.96063V4.96273V4.96483V4.96693V4.96903V4.97113V4.97323V4.97532V4.97742V4.97952V4.98162V4.98372V4.98582V4.98791V4.99001V4.99211V4.99421V4.99631V4.99841V5.0005V5.0026V5.0047V5.0068V5.00889V5.01099V5.01309V5.01519V5.01729V5.01938V5.02148V5.02358V5.02568V5.02777V5.02987V5.03197V5.03407V5.03616V5.03826V5.04036V5.04245V5.04455V5.04665V5.04875V5.05084V5.05294V5.05504V5.05713V5.05923V5.06133V5.06342V5.06552V5.06762V5.06971V5.07181V5.07391V5.076V5.0781V5.0802V5.08229V5.08439V5.08648V5.08858V5.09068V5.09277V5.09487V5.09696V5.09906V5.10116V5.10325V5.10535V5.10744V5.10954V5.11163V5.11373V5.11582V5.11792V5.12002V5.12211V5.12421V5.1263V5.1284V5.13049V5.13259V5.13468V5.13678V5.13887V5.14096V5.14306V5.14515V5.14725V5.14934V5.15144V5.15353V5.15563V5.15772V5.15981V5.16191V5.164V5.1661V5.16819V5.17028V5.17238V5.17447V5.17657V5.17866V5.18075V5.18285V5.18494V5.18703V5.18913V5.19122V5.19331V5.19541V5.1975V5.19959V5.20168V5.20378V5.20587V5.20796V5.21005V5.21215V5.21424V5.21633V5.21718C1.1629 5.24816 1.1739 5.2804 1.1851 5.31325C1.20868 5.38239 1.2332 5.45428 1.25291 5.52291L1.25352 5.52506L1.2535 5.52507C1.68662 7.17134 3.04966 8.24823 4.76013 8.24823H4.76017C18.9392 8.25343 33.1192 8.25551 47.2993 8.24823C49.335 8.24721 50.9118 6.66838 50.9088 4.68778C50.9068 2.71301 49.3243 1.14573 47.2855 1.14066L47.2858 1.04066L47.2855 1.14066C44.2868 1.13273 41.2888 1.13447 38.2902 1.1362C37.3539 1.13674 36.4174 1.13729 35.4809 1.13753C35.2057 1.13753 35.0012 1.19993 34.8659 1.3032C34.7336 1.40419 34.6576 1.55156 34.6503 1.74696L34.6503 1.74704C34.6426 1.94936 34.7146 2.10721 34.8487 2.21693C34.9857 2.32904 35.1977 2.39885 35.4809 2.39885H35.481C36.4885 2.40023 37.4968 2.39977 38.505 2.39931C39.009 2.39908 39.5129 2.39885 40.0167 2.39885C40.7304 2.39885 41.444 2.39778 42.1578 2.39671C43.8833 2.39412 45.6092 2.39154 47.3354 2.40406L4.80606 1.14066ZM4.80606 1.14066C8.22221 1.13661 11.639 1.13697 15.0554 1.13733C16.0295 1.13743 17.0035 1.13753 17.9774 1.13753H18.0048H18.0321H18.0595H18.0868H18.1142H18.1415H18.1689H18.1962H18.2235H18.2509H18.2782H18.3056H18.3329H18.3603H18.3876H18.415H18.4423H18.4697H18.497H18.5243H18.5517H18.579H18.6064H18.6337H18.6611H18.6884H18.7158H18.7431H18.7705H18.7978H18.8251H18.8525H18.8798H18.9072H18.9345H18.9619H18.9892H19.0166H19.0439H19.0713H19.0986H19.1259H19.1533H19.1806H19.208H19.2353H19.2627H19.29H19.3174H19.3447H19.372H19.3994H19.4267H19.4541H19.4814H19.5088H19.5361H19.5635H19.5908H19.6181H19.6455H19.6728H19.7002H19.7275H19.7549H19.7822H19.8096H19.8369H19.8643H19.8916H19.9189H19.9463H19.9736H20.001H20.0283H20.0557H20.083H20.1104H20.1377H20.165H20.1924H20.2197H20.2471H20.2744H20.3018H20.3291H20.3565H20.3838H20.4111H20.4385H20.4658H20.4932H20.5205H20.5479H20.5752H20.6025H20.6299H20.6572H20.6846H20.7119H20.7393H20.7666H20.794H20.8213H20.8486H20.876H20.9033H20.9307H20.958H20.9854H21.0127H21.0401H21.0674H21.0947H21.1221H21.1494H21.1768H21.2041H21.2315H21.2588H21.2862H21.3135H21.3408H21.3682H21.3955H21.4229H21.4502H21.4776H21.5049H21.5322H21.5596H21.5869H21.6143H21.6416H21.669H21.6963H21.7237H21.751H21.7783H21.8057H21.833H21.8604H21.8877H21.9151H21.9424H21.9698H21.9971H22.0244H22.0518H22.0791H22.1065H22.1338H22.1612H22.1885H22.2158H22.2432H22.2705H22.2979H22.3252H22.3526H22.3799H22.4073H22.4346H22.4619H22.4893H22.5166H22.544H22.5713H22.5987H22.626H22.6533H22.6807H22.708H22.7354H22.7627H22.7901H22.8174H22.8448H22.8721H22.8994H22.9268H22.9541H22.9815H23.0088H23.0362H23.0635H23.0908H23.1182H23.1455H23.1729H23.2002H23.2276H23.2549H23.2823H23.3096H23.3369H23.3643H23.3916H23.419H23.4463H23.4737H23.501H23.5284H23.5557H23.583H23.6104H23.6377H23.6651H23.6924H23.7198H23.7471H23.7744H23.8018H23.8291H23.8565H23.8838H23.9112H23.9385H23.9659H23.9932H24.0205H24.0479H24.0752H24.1026H24.1299H24.1573H24.1846H24.212H24.2393H24.2666H24.294H24.3213H24.3487H24.376H24.4034H24.4307H24.458H24.4854H24.5127H24.5401H24.5674H24.5948H24.6221H24.6495H24.6768H24.7041H24.7315H24.7588H24.7862H24.8135H24.8409H24.8682H24.8956H24.9229H24.9502H24.9776H25.0049H25.0323H25.0596H25.087H25.1143H25.1417H25.169H25.1963H25.2237H25.251H25.2784H25.3057H25.3331H25.3604H25.3878H25.4151H25.4424H25.4698H25.4971H25.5245H25.5518H25.5792H25.6065H25.6339H25.6612H25.6885H25.7159H25.7432H25.7706H25.7979H25.8253H25.8526H25.88H25.9073H25.9347H25.962H25.9893H26.0167H26.044H26.0714H26.0987H26.1261H26.1534H26.1808H26.2081H26.2354H26.2628H26.2901H26.3175H26.3448H26.3722H26.3995H26.4269H26.4542H26.4816H26.5089H26.5362H26.5636H26.5909H26.6183H26.6456H26.673H26.7003H26.7277H26.755H26.7824H26.8097H26.837H26.8644H26.8917H26.9191H26.9464H26.9738H27.0011H27.0285H27.0558H27.0832H27.1105H27.1378H27.1652H27.1925H27.2199H27.2472H27.2746H27.3019H27.3293H27.3566H27.384H27.4113H27.4387H27.466H27.4933H27.5207H27.548H27.5754H27.6027H27.6301H27.6574H27.6848H27.7121H27.7395H27.7668H27.7941H27.8215H27.8488H27.8762H27.9035H27.9309H27.9582H27.9856H28.0129H28.0403H28.0676H28.095H28.1223H28.1497H28.177H28.2043H28.2317H28.259H28.2864H28.3137H28.3411H28.3684H28.3958H28.4231H28.4505H28.4778H28.5052H28.5325H28.5599H28.5872H28.6146H28.6419H28.6692H28.6966H28.7239H28.7513H28.7786H28.806H28.8333H28.8607H28.888H28.9154H28.9427H28.9701H28.9974H29.0248H29.0521H29.0795H29.1068H29.1342H29.1615H29.1889H29.2162H29.2435H29.2709H29.2982H29.3256H29.3529H29.3803H29.4076H29.435H29.4623H29.4897H29.517H29.5444H29.5717H29.5991H29.6264H29.6538H29.6811H29.7085H29.7358H29.7632H29.7905H29.8179H29.8452H29.8726H29.8999H29.9273H29.9546H29.982H30.0093H30.0366H30.064H30.0913H30.1187H30.146H30.1734H30.2007H30.2281H30.2554H30.2828H30.3101H30.3375H30.3648H30.3922H30.4195H30.4469H30.4742H30.5016H30.5289H30.5563H30.5836H30.611H30.6383H30.6657H30.693H30.7204H30.7477H30.7751H30.8024H30.8298H30.8571H30.8845H30.9118H30.9392H30.9665H30.9939H31.0212H31.0486H31.0759H31.1033H31.1306H31.158H31.1853H31.2127H31.24H31.2674H31.2947H31.3221H31.3494H31.3768H31.4041H31.4315H31.4588H31.4862H31.5135H31.5409H31.5683H31.5956H31.623H31.6503H31.6777H31.705H31.7324H31.7597H31.7871H31.8144H31.8418H31.8691H31.8965H31.9238H31.9512H31.9785C32.0275 1.13753 32.0739 1.13625 32.1184 1.13503C32.236 1.13179 32.3403 1.12891 32.4435 1.1509M4.80606 1.14066L32.4435 1.1509M32.4435 1.1509C32.6165 1.18881 32.7459 1.25931 32.8321 1.35765C32.9174 1.45503 32.9683 1.58874 32.9683 1.76923C32.9683 1.94918 32.9174 2.08287 32.8321 2.18012C32.746 2.27833 32.6166 2.34856 32.4437 2.38543C32.3681 2.40147 32.2876 2.4056 32.2008 2.40522C32.159 2.40504 32.1169 2.40383 32.0734 2.40259L32.0683 2.40244C32.0234 2.40116 31.977 2.39988 31.9306 2.39988H31.8778H31.8251H31.7723H31.7195H31.6667H31.6139H31.5611H31.5083H31.4555H31.4027H31.35H31.2972H31.2444H31.1916H31.1388H31.086H31.0332H30.9804H30.9276H30.8749H30.8221H30.7693H30.7165H30.6637H30.6109H30.5581H30.5053H30.4525H30.3998H30.347H30.2942H30.2414H30.1886H30.1358H30.083H30.0302H29.9775H29.9247H29.8719H29.8191H29.7663H29.7135H29.6607H29.6079H29.5552H29.5024H29.4496H29.3968H29.344H29.2912H29.2384H29.1856H29.1328H29.0801H29.0273H28.9745H28.9217H28.8689H28.8161H28.7633H28.7105H28.6578H28.605H28.5522H28.4994H28.4466H28.3938H28.341H28.2882H28.2355H28.1827H28.1299H28.0771H28.0243H27.9715H27.9187H27.8659H27.8132H27.7604H27.7076H27.6548H27.602H27.5492H27.4964H27.4437H27.3909H27.3381H27.2853H27.2325H27.1797H27.1269H27.0741H27.0214H26.9686H26.9158H26.863H26.8102H26.7574H26.7046H26.6518H26.5991H26.5463H26.4935H26.4407H26.3879H26.3351H26.2823H26.2296H26.1768H26.124H26.0712H26.0184H25.9656H25.9128H25.86H25.8073H25.7545H25.7017H25.6489H25.5961H25.5433H25.4905H25.4378H25.385H25.3322H25.2794H25.2266H25.1738H25.121H25.0683H25.0155H24.9627H24.9099H24.8571H24.8043H24.7515H24.6987H24.646H24.5932H24.5404H24.4876H24.4348H24.382H24.3292H24.2765H24.2237H24.1709H24.1181H24.0653H24.0125H23.9597H23.907H23.8542H23.8014H23.7486H23.6958H23.643H23.5902H23.5375H23.4847H23.4319H23.3791H23.3263H23.2735H23.2207H23.168H23.1152H23.0624H23.0096H22.9568H22.904H22.8512H22.7985H22.7457H22.6929H22.6401H22.5873H22.5345H22.4817H22.429H22.3762H22.3234H22.2706H22.2178H22.165H22.1123H22.0595H22.0067H21.9539H21.9011H21.8483H21.7955H21.7428H21.69H21.6372H21.5844H21.5316H21.4788H21.426H21.3733H21.3205H21.2677H21.2149H21.1621H21.1093H21.0565H21.0038H20.951H20.8982H20.8454H20.7926H20.7398H20.6871H20.6343H20.5815H20.5287H20.4759H20.4231H20.3703H20.3176H20.2648H20.212H20.1592H20.1064H20.0536H20.0009H19.9481H19.8953H19.8425H19.7897H19.7369H19.6841H19.6314H19.5786H19.5258H19.473H19.4202H19.3674H19.3147H19.2619H19.2091H19.1563H19.1035H19.0507H18.9979H18.9452H18.8924H18.8396H18.7868H18.734H18.6812H18.6285H18.5757H18.5229H18.4701H18.4173H18.3645H18.3117H18.259H18.2062H18.1534H18.1006H18.0478H17.995H17.9423H17.8895H17.8367H17.7839H17.7311H17.6783H17.6256H17.5728H17.52H17.4672H17.4144H17.3616H17.3088H17.2561H17.2033H17.1505H17.0977H17.0449H16.9921H16.9394H16.8866H16.8338H16.781H16.7282H16.6754H16.6227H16.5699H16.5171H16.4643H16.4115H16.3587H16.306H16.2532H16.2004H16.1476H16.0948H16.042H15.9892H15.9365H15.8837H15.8309H15.7781H15.7253H15.6725H15.6198H15.567H15.5142H15.4614H15.4086H15.3558H15.3031H15.2503H15.1975H15.1447H15.0919H15.0391H14.9864H14.9336H14.8808H14.828H14.7752H14.7224H14.6697H14.6169H14.5641H14.5113H14.4585H14.4057H14.353H14.3002H14.2474H14.1946H14.1418H14.089H14.0363H13.9835H13.9307H13.8779H13.8251H13.7723H13.7196H13.6668H13.614H13.5612H13.5084H13.4556H13.4028H13.3501H13.2973H13.2445H13.1917H13.1389H13.0861H13.0334H12.9806H12.9278H12.875H12.8222H12.7694H12.7167H12.6639H12.6111H12.5583H12.5055H12.4527H12.4H12.3472H12.2944H12.2416H12.1888H12.136H12.0833H12.0305H11.9777H11.9249H11.8721H11.8194H11.7666H11.7138H11.661H11.6082H11.5554H11.5027H11.4499H11.3971H11.3443H11.2915H11.2387H11.186H11.1332H11.0804H11.0276H10.9748H10.922H10.8693H10.8165H10.7637H10.7109H10.6581H10.6053H10.5526H10.4998H10.447H10.3942H10.3414H10.2886H10.2359H10.1831H10.1303H10.0775H10.0247H9.97194H9.91916H9.86637H9.81359H9.76081H9.70803H9.65524H9.60246H9.54968H9.49689H9.44411H9.39133H9.33854H9.28576H9.23298H9.1802H9.12741H9.07463H9.02185H8.96906H8.91628H8.8635H8.81072H8.75793H8.70515H8.65237H8.59958H8.5468H8.49402H8.44123H8.38845H8.33567H8.28289H8.2301H8.17732H8.12454H8.07175H8.01897H7.96619H7.91341H7.86062H7.80784H7.75506H7.70227H7.64949H7.59671H7.54393H7.49114H7.43836H7.38558H7.33279H7.28001H7.22723H7.17445H7.12166H7.06888H7.0161H6.96331H6.91053H6.85775H6.80497H6.75218H6.6994H6.64662H6.59383H6.54105H6.48827H6.43549H6.3827H6.32992H6.27714H6.22435H6.17157H6.11879H6.06601H6.01322H5.96044H5.90766H5.85487H5.80209H5.74931H5.69653H5.64374H5.59096H5.53818H5.48539H5.43261H5.37983H5.32705H5.27426H5.22148H5.1687H5.11592H5.06313H5.01035H4.95757H4.90478C3.45934 2.39988 2.40836 3.36803 2.41924 4.71341M32.4435 1.1509L47.3354 2.40406C48.9895 2.41496 50.0822 4.02509 49.4812 5.53647L49.3883 5.49951L49.4812 5.53649C49.2922 6.01132 48.9919 6.37657 48.5867 6.62209C48.1825 6.86701 47.6803 6.98901 47.0922 6.98901H47.01H46.9278H46.8455H46.7633H46.6811H46.5989H46.5166H46.4344H46.3522H46.27H46.1877H46.1055H46.0233H45.941H45.8588H45.7766H45.6944H45.6121H45.5299H45.4477H45.3655H45.2832H45.201H45.1188H45.0366H44.9543H44.8721H44.7899H44.7076H44.6254H44.5432H44.461H44.3787H44.2965H44.2143H44.1321H44.0498H43.9676H43.8854H43.8032H43.7209H43.6387H43.5565H43.4743H43.392H43.3098H43.2276H43.1453H43.0631H42.9809H42.8987H42.8164H42.7342H42.652H42.5698H42.4875H42.4053H42.3231H42.2409H42.1586H42.0764H41.9942H41.9119H41.8297H41.7475H41.6653H41.583H41.5008H41.4186H41.3364H41.2541H41.1719H41.0897H41.0075H40.9252H40.843H40.7608H40.6785H40.5963H40.5141H40.4319H40.3496H40.2674H40.1852H40.103H40.0207H39.9385H39.8563H39.7741H39.6918H39.6096H39.5274H39.4451H39.3629H39.2807H39.1985H39.1162H39.034H38.9518H38.8696H38.7873H38.7051H38.6229H38.5407H38.4584H38.3762H38.294H38.2117H38.1295H38.0473H37.9651H37.8828H37.8006H37.7184H37.6362H37.5539H37.4717H37.3895H37.3073H37.225H37.1428H37.0606H36.9783H36.8961H36.8139H36.7317H36.6494H36.5672H36.485H36.4028H36.3205H36.2383H36.1561H36.0739H35.9916H35.9094H35.8272H35.7449H35.6627H35.5805H35.4983H35.416H35.3338H35.2516H35.1694H35.0871H35.0049H34.9227H34.8405H34.7582H34.676H34.5938H34.5116H34.4293H34.3471H34.2649H34.1826H34.1004H34.0182H33.936H33.8537H33.7715H33.6893H33.6071H33.5248H33.4426H33.3604H33.2782H33.1959H33.1137H33.0315H32.9492H32.867H32.7848H32.7026H32.6203H32.5381H32.4559H32.3737H32.2914H32.2092H32.127H32.0448H31.9625H31.8803H31.7981H31.7158H31.6336H31.5514H31.4692H31.3869H31.3047H31.2225H31.1403H31.058H30.9758H30.8936H30.8114H30.7291H30.6469H30.5647H30.4824H30.4002H30.318H30.2358H30.1535H30.0713H29.9891H29.9069H29.8246H29.7424H29.6602H29.578H29.4957H29.4135H29.3313H29.249H29.1668H29.0846H29.0024H28.9201H28.8379H28.7557H28.6735H28.5912H28.509H28.4268H28.3446H28.2623H28.1801H28.0979H28.0156H27.9334H27.8512H27.769H27.6867H27.6045H27.5223H27.4401H27.3578H27.2756H27.1934H27.1112H27.0289H26.9467H26.8645H26.7822H26.7H26.6178H26.5356H26.4533H26.3711H26.2889H26.2067H26.1244H26.0422H25.96H25.8778H25.7955H25.7133H25.6311H25.5488H25.4666H25.3844H25.3022H25.2199H25.1377H25.0555H24.9733H24.891H24.8088H24.7266H24.6444H24.5621H24.4799H24.3977H24.3154H24.2332H24.151H24.0688H23.9865H23.9043H23.8221H23.7399H23.6576H23.5754H23.4932H23.411H23.3287H23.2465H23.1643H23.082H22.9998H22.9176H22.8354H22.7531H22.6709H22.5887H22.5065H22.4242H22.342H22.2598H22.1776H22.0953H22.0131H21.9309H21.8486H21.7664H21.6842H21.602H21.5197H21.4375H21.3553H21.2731H21.1908H21.1086H21.0264H20.9442H20.8619H20.7797H20.6975H20.6152H20.533H20.4508H20.3686H20.2863H20.2041H20.1219H20.0397H19.9574H19.8752H19.793H19.7108H19.6285H19.5463H19.4641H19.3818H19.2996H19.2174H19.1352H19.0529H18.9707H18.8885H18.8063H18.724H18.6418H18.5596H18.4774H18.3951H18.3129H18.2307H18.1485H18.0662H17.984H17.9018H17.8195H17.7373H17.6551H17.5729H17.4906H17.4084H17.3262H17.244H17.1617H17.0795H16.9973H16.9151H16.8328H16.7506H16.6684H16.5861H16.5039H16.4217H16.3395H16.2572H16.175H16.0928H16.0106H15.9283H15.8461H15.7639H15.6817H15.5994H15.5172H15.435H15.3527H15.2705H15.1883H15.1061H15.0238H14.9416H14.8594H14.7772H14.6949H14.6127H14.5305H14.4483H14.366H14.2838H14.2016H14.1193H14.0371H13.9549H13.8727H13.7904H13.7082H13.626H13.5438H13.4615H13.3793H13.2971H13.2149H13.1326H13.0504H12.9682H12.8859H12.8037H12.7215H12.6393H12.557H12.4748H12.3926H12.3104H12.2281H12.1459H12.0637H11.9815H11.8992H11.817H11.7348H11.6525H11.5703H11.4881H11.4059H11.3236H11.2414H11.1592H11.077H10.9947H10.9125H10.8303H10.7481H10.6658H10.5836H10.5014H10.4191H10.3369H10.2547H10.1725H10.0902H10.008H9.92579H9.84356H9.76134H9.67911H9.59688H9.51466H9.43243H9.3502H9.26798H9.18575H9.10352H9.0213H8.93907H8.85684H8.77462H8.69239H8.61016H8.52794H8.44571H8.36348H8.28126H8.19903H8.11681H8.03458H7.95235H7.87013H7.7879H7.70567H7.62345H7.54122H7.45899H7.37677H7.29454H7.21231H7.13009H7.04786H6.96563H6.88341H6.80118H6.71895H6.63673H6.5545H6.47227H6.39005H6.30782H6.22559H6.14337H6.06114H5.97891H5.89669H5.81446H5.73224H5.65001H5.56778H5.48556H5.40333H5.3211H5.23888H5.15665H5.07442H4.9922C4.96105 6.98901 4.92942 6.98921 4.89744 6.98942C4.7827 6.99015 4.6635 6.9909 4.54585 6.9825L4.54573 6.98249C3.36243 6.89649 2.42692 5.89697 2.41924 4.71341M2.41924 4.71341C2.41924 4.71337 2.41924 4.71334 2.41924 4.7133L2.51924 4.71266L2.41924 4.71347C2.41924 4.71345 2.41924 4.71343 2.41924 4.71341Z" fill="#01CAA9" stroke="white" stroke-width="0.2"/>
<path d="M23.92 25.7894L23.9903 25.8605C24.1138 25.7384 24.2621 25.681 24.4171 25.684C24.5734 25.687 24.7439 25.7516 24.9072 25.8871C25.3163 26.2287 25.6685 26.4155 26.0362 26.4139C26.4034 26.4123 26.7602 26.223 27.1787 25.8792C27.3416 25.7454 27.5122 25.683 27.6682 25.6827C27.8229 25.6824 27.9706 25.7429 28.0925 25.8693L28.0926 25.8694C28.221 26.0019 28.2802 26.1519 28.2767 26.3028C28.2731 26.4545 28.2056 26.6186 28.0589 26.7768L28.0588 26.7768C27.5249 27.3526 26.8568 27.6353 26.072 27.6684L26.057 27.668C25.2643 27.6499 24.5868 27.3734 24.0414 26.7998L24.0412 26.7996C23.8809 26.6321 23.8059 26.4606 23.7996 26.304C23.7935 26.1489 23.8542 25.9957 23.9905 25.8604L23.92 25.7894ZM23.92 25.7894C23.6129 26.0944 23.6234 26.5076 23.9689 26.8688M23.92 25.7894C24.2041 25.5084 24.6162 25.5157 24.9712 25.8102C25.7788 26.4847 26.2878 26.4816 27.1152 25.8019L23.9689 26.8688M23.9689 26.8688C24.5341 27.4631 25.2376 27.7493 26.0547 27.768L23.9689 26.8688ZM23.9689 26.8688L23.9689 26.8688L23.9689 26.8688Z" fill="#01CAA9" stroke="white" stroke-width="0.2"/>
<path d="M20.5559 26.3523L20.5559 26.3523C20.5663 26.2233 20.5638 26.0964 20.5611 25.9643C20.5599 25.9037 20.5587 25.842 20.5587 25.7785L20.5559 26.3523ZM20.5559 26.3523C20.526 26.7259 20.2546 26.9837 19.9381 26.9682L19.9378 26.9682M20.5559 26.3523L19.9378 26.9682M19.9378 26.9682C19.7523 26.9596 19.6049 26.9035 19.501 26.8115M19.9378 26.9682L19.501 26.8115M20.5559 25.1536L20.5559 25.1533C20.5273 24.7813 20.2664 24.5405 19.9328 24.5493L19.9301 24.4494L19.9328 24.5493C19.7415 24.5546 19.5964 24.611 19.4959 24.7028C19.3956 24.7942 19.33 24.9295 19.3136 25.111L19.214 25.102L19.3136 25.1108C19.2757 25.5388 19.2767 25.9763 19.3137 26.4047L20.5559 25.1536ZM20.5559 25.1536C20.567 25.2937 20.5642 25.4311 20.5614 25.5743M20.5559 25.1536L20.5614 25.5743M19.501 26.8115C19.3981 26.7202 19.3295 26.5863 19.3137 26.4048L19.501 26.8115ZM20.5614 25.5743C20.5601 25.6405 20.5587 25.708 20.5587 25.7774L20.5614 25.5743Z" fill="#01CAA9" stroke="white" stroke-width="0.2"/>
<path d="M31.4967 25.9955C31.4936 26.1249 31.4919 26.2491 31.5045 26.3748L31.405 26.3848L31.5045 26.3748C31.5235 26.5632 31.5895 26.7043 31.688 26.7998C31.7861 26.895 31.9254 26.9533 32.1072 26.9603C32.2905 26.9674 32.4389 26.9169 32.5448 26.827C32.6504 26.7374 32.7222 26.6016 32.7398 26.4219L32.7398 26.4215C32.785 25.9781 32.788 25.5241 32.7399 25.0832L32.7399 25.083C32.7207 24.9044 32.6512 24.7699 32.5476 24.6814C32.4439 24.5929 32.2965 24.5423 32.1064 24.5498L31.4967 25.9955ZM31.4967 25.9955L31.5019 26.0008V25.7541C31.5019 25.6829 31.5001 25.6144 31.4984 25.5476C31.4946 25.4051 31.4911 25.2701 31.5055 25.1329M31.4967 25.9955L31.5055 25.1329M31.5055 25.1329C31.5261 24.9453 31.589 24.8052 31.6848 24.7104C31.7799 24.6164 31.9173 24.5574 32.1063 24.5498L31.5055 25.1329Z" fill="#01CAA9" stroke="white" stroke-width="0.2"/>
<path d="M9.97641 19.9091H9.97634C9.43305 19.9096 8.98713 19.7329 8.68868 19.4089C8.39024 19.0848 8.25055 18.6257 8.29553 18.0835L9.97641 19.9091ZM9.97641 19.9091C10.9528 19.9075 11.9848 19.3972 12.8132 18.6357C13.6424 17.8735 14.2809 16.8476 14.4597 15.7948C14.5736 15.1244 14.44 14.5658 14.0901 14.1941C13.7401 13.8222 13.1924 13.657 12.52 13.7344L12.5199 13.7344M9.97641 19.9091L12.5199 13.7344M12.5199 13.7344C11.5216 13.8497 10.5073 14.4458 9.72453 15.2518M12.5199 13.7344L9.72453 15.2518M9.72453 15.2518C8.94178 16.0578 8.37762 17.0869 8.29554 18.0835L9.72453 15.2518ZM12.0995 12.5313L12.0995 12.5312C13.2759 12.3193 14.2563 12.6038 14.901 13.2221C15.5456 13.8404 15.8687 14.8061 15.7027 15.9858C15.5187 17.2883 14.7604 18.5569 13.7161 19.5161C12.6718 20.4754 11.3508 21.1167 10.0517 21.1767C9.0221 21.2243 8.18166 20.8201 7.65288 20.1384C7.12336 19.4556 6.89945 18.4852 7.12448 17.3895C7.35911 16.2501 8.02764 15.1379 8.92849 14.258C9.82936 13.3781 10.956 12.7368 12.0995 12.5313Z" fill="#01CAA9" stroke="white" stroke-width="0.2"/>
</g>
</g>
</g>
</g>
</svg>
