<svg width="56" height="49" viewBox="0 0 56 49" fill="none" xmlns="http://www.w3.org/2000/svg">
<mask id="mask0_1_6066" style="mask-type:luminance" maskUnits="userSpaceOnUse" x="0" y="0" width="56" height="49">
<path d="M55.4313 0H0.398438V48.1537H55.4313V0Z" fill="white"/>
</mask>
<g mask="url(#mask0_1_6066)">
<mask id="mask1_1_6066" style="mask-type:luminance" maskUnits="userSpaceOnUse" x="1" y="1" width="55" height="48">
<path d="M1.64102 48.0574V1.25021H55.3273V48.0574H1.64102Z" fill="white" stroke="white" stroke-width="0.2"/>
</mask>
<g mask="url(#mask1_1_6066)">
<mask id="mask2_1_6066" style="mask-type:luminance" maskUnits="userSpaceOnUse" x="1" y="1" width="55" height="48">
<path d="M1.65078 48.0592V1.25198H55.3371V48.0592H1.65078Z" fill="white" stroke="white" stroke-width="0.2"/>
</mask>
<g mask="url(#mask2_1_6066)">
<mask id="mask3_1_6066" style="mask-type:luminance" maskUnits="userSpaceOnUse" x="1" y="1" width="55" height="48">
<path d="M1.65469 48.061V1.25375H55.341V48.061H1.65469Z" fill="white" stroke="white" stroke-width="0.2"/>
</mask>
<g mask="url(#mask3_1_6066)">
<mask id="path-5-inside-1_1_6066" fill="white">
<path d="M49.9668 18.9699V28.8891C50.7534 28.8891 51.5125 28.8891 52.2735 28.8891C52.794 28.8891 53.3145 28.8732 53.833 28.897C54.6137 28.9324 54.9173 29.2402 54.9233 30.0254C54.9351 31.7496 54.9272 33.4757 54.9291 35.2C54.9291 39.0449 54.9291 42.8879 54.9291 46.7329C54.9291 47.9323 54.7005 48.1612 53.5255 48.1612C36.8146 48.1612 20.1039 48.1612 3.39316 48.1612C2.27924 48.1612 2.02688 47.9146 2.02688 46.8237C2.02688 41.2959 2.02688 35.7682 2.02688 30.2404C2.02688 29.1633 2.29698 28.897 3.40104 28.891C4.37499 28.8871 5.34695 28.891 6.35835 28.891V19.1278C6.17105 19.1278 5.9739 19.1278 5.77675 19.1278C3.71058 19.1435 2.04265 17.5062 2.02688 15.4446C2.02294 14.8626 2.02688 14.2806 2.02688 13.6987C2.02491 13.168 2.05251 12.661 1.70749 12.1658C1.53991 11.9251 1.56357 11.4102 1.70158 11.1163C3.15066 8.04072 4.64508 4.98686 6.13162 1.92708C6.39187 1.39245 6.80392 1.15375 7.42692 1.15375C21.4781 1.16558 35.5273 1.16558 49.5785 1.15375C50.2073 1.15375 50.578 1.40824 50.8402 1.95667C52.3051 5.00265 53.7778 8.04467 55.2644 11.0808C55.4951 11.5503 55.3984 11.9429 55.1954 12.3808C55.0534 12.6847 54.9568 13.0299 54.939 13.3632C54.8996 14.0675 54.9409 14.7758 54.9193 15.4821C54.8404 17.9678 52.7329 19.5697 50.2961 19.0094C50.2172 18.9916 50.1344 18.9897 49.9668 18.9699ZM4.0418 46.1292H52.8748V30.9782H4.05166V41.7792H4.88364C15.4629 41.7792 26.0422 41.7792 36.6214 41.7792C36.8285 41.7792 37.0375 41.7733 37.2444 41.7851C37.899 41.8187 38.2953 42.2014 38.2834 42.7794C38.2716 43.3298 37.83 43.7501 37.2208 43.7875C37.0335 43.7993 36.8463 43.7915 36.6589 43.7915C26.0383 43.7915 15.4176 43.7915 4.79689 43.7915C4.55439 43.7915 4.31189 43.7915 4.0418 43.7915V46.1312V46.1292ZM4.14825 10.7296H52.8649C52.8295 10.6211 52.8137 10.5422 52.7802 10.4732C51.6545 8.18473 50.5366 5.89236 49.3813 3.61776C49.2886 3.43428 48.9357 3.28436 48.7031 3.28436C35.2158 3.26857 21.7264 3.27252 8.2392 3.26068C7.8508 3.26068 7.65365 3.38102 7.48805 3.73414C6.68169 5.4623 5.84378 7.17664 5.01967 8.89692C4.73577 9.48874 4.45582 10.0845 4.14825 10.7296ZM31.6768 17.9914C29.9912 19.5775 27.5642 19.6071 25.8627 17.4725C25.155 18.3623 24.3073 19.0154 23.1243 19.1179C21.9275 19.2205 20.9458 18.7648 20.1019 17.9855C19.1773 18.7963 18.1659 19.1948 16.983 19.116C15.7804 19.037 14.905 18.386 14.1814 17.4725C12.4524 19.5105 10.536 19.6723 8.45213 18.0921V28.8516H22.322C21.6299 26.2377 21.9867 24.7976 23.5561 23.7953C25.1037 22.807 26.748 23.0733 28.5677 24.6043C30.4012 23.0674 32.0258 22.8089 33.5794 23.8052C35.1605 24.8192 35.5312 26.2791 34.8432 28.8378H47.8908V18.6524C45.6866 19.4118 45.1208 19.3329 43.236 18.017C42.406 18.818 41.4202 19.2067 40.2511 19.1199C39.0524 19.0291 38.179 18.384 37.4496 17.4845C35.7047 19.6446 33.3547 19.5479 31.6729 17.9934L31.6768 17.9914ZM4.03588 12.7774C4.03588 13.7125 3.98068 14.624 4.05166 15.5255C4.11868 16.3619 4.8521 16.9794 5.63874 17.005C6.42933 17.0327 7.2278 16.5178 7.31651 15.7247C7.42298 14.7521 7.34215 13.7599 7.34215 12.7774H4.03588ZM21.1133 12.7774C21.1133 13.6947 21.068 14.5845 21.1272 15.4663C21.1823 16.3027 21.8921 16.9518 22.6689 17.0011C23.4851 17.0544 24.3112 16.5395 24.4059 15.7168C24.5182 14.7462 24.4314 13.7519 24.4314 12.7754H21.1154L21.1133 12.7774ZM15.6147 12.7774C15.6147 13.7164 15.5753 14.6259 15.6265 15.5314C15.6679 16.281 16.3698 16.9261 17.0973 16.9971C17.9214 17.078 18.7515 16.6045 18.8599 15.7681C18.988 14.7836 18.8894 13.7677 18.8894 12.7774H15.6147ZM27.3257 12.7675C27.3257 13.7204 27.2961 14.6101 27.3335 15.4978C27.3671 16.2771 28.0611 16.9379 28.826 16.9991C29.6225 17.0623 30.49 16.5473 30.559 15.8056C30.6536 14.8074 30.5826 13.7914 30.5826 12.7694H27.3257V12.7675ZM36.0674 12.7853H32.7001C32.7001 13.6316 32.6942 14.4365 32.7001 15.2433C32.7079 16.2317 33.4118 16.9853 34.3306 17.005C35.2532 17.0228 36.0142 16.3126 36.0576 15.3281C36.0951 14.5015 36.0655 13.6711 36.0655 12.7872L36.0674 12.7853ZM53.0266 12.7892H49.6612C49.6612 13.6415 49.6553 14.4483 49.6612 15.2552C49.6691 16.2139 50.3533 16.9617 51.2424 17.0011C52.171 17.0426 52.9596 16.352 53.0148 15.3736C53.0621 14.5272 53.0247 13.679 53.0247 12.7892H53.0266ZM9.46353 12.7715C9.46353 13.7262 9.42606 14.6377 9.47535 15.5432C9.51675 16.354 10.2502 16.9853 11.0565 17.0011C11.8688 17.0169 12.6712 16.425 12.7304 15.634C12.8013 14.6929 12.7461 13.7421 12.7461 12.7694H9.46353V12.7715ZM44.2967 12.7675C44.2967 13.7361 44.269 14.6476 44.3046 15.5551C44.3361 16.3087 45.0715 16.9636 45.8423 17.0011C46.6093 17.0385 47.4768 16.4823 47.5201 15.8115C47.5832 14.8074 47.5359 13.7973 47.5359 12.7675H44.2947H44.2967ZM38.9163 12.7814C38.9163 13.744 38.871 14.6752 38.9302 15.5984C38.9795 16.3777 39.7207 16.9834 40.4995 17.005C41.2881 17.0267 42.1142 16.4468 42.1654 15.7149C42.2305 14.7521 42.1812 13.7796 42.1812 12.7833H38.9163V12.7814ZM27.2547 27.0603C27.2764 26.0957 26.5627 25.3459 25.6123 25.3361C24.6838 25.3262 23.9583 26.0266 23.9306 26.9577C23.9031 27.9501 24.5655 28.6701 25.5394 28.7056C26.5055 28.7391 27.231 28.0428 27.2547 27.0603ZM33.2383 27.0899C33.2718 26.1212 32.5758 25.3618 31.6275 25.3361C30.699 25.3124 29.9557 26.0029 29.9182 26.9281C29.8768 27.9263 30.5195 28.6484 31.4974 28.7016C32.4615 28.755 33.2048 28.0664 33.2383 27.0879V27.0899Z"/>
</mask>
<path d="M49.9668 18.9699V28.8891C50.7534 28.8891 51.5125 28.8891 52.2735 28.8891C52.794 28.8891 53.3145 28.8732 53.833 28.897C54.6137 28.9324 54.9173 29.2402 54.9233 30.0254C54.9351 31.7496 54.9272 33.4757 54.9291 35.2C54.9291 39.0449 54.9291 42.8879 54.9291 46.7329C54.9291 47.9323 54.7005 48.1612 53.5255 48.1612C36.8146 48.1612 20.1039 48.1612 3.39316 48.1612C2.27924 48.1612 2.02688 47.9146 2.02688 46.8237C2.02688 41.2959 2.02688 35.7682 2.02688 30.2404C2.02688 29.1633 2.29698 28.897 3.40104 28.891C4.37499 28.8871 5.34695 28.891 6.35835 28.891V19.1278C6.17105 19.1278 5.9739 19.1278 5.77675 19.1278C3.71058 19.1435 2.04265 17.5062 2.02688 15.4446C2.02294 14.8626 2.02688 14.2806 2.02688 13.6987C2.02491 13.168 2.05251 12.661 1.70749 12.1658C1.53991 11.9251 1.56357 11.4102 1.70158 11.1163C3.15066 8.04072 4.64508 4.98686 6.13162 1.92708C6.39187 1.39245 6.80392 1.15375 7.42692 1.15375C21.4781 1.16558 35.5273 1.16558 49.5785 1.15375C50.2073 1.15375 50.578 1.40824 50.8402 1.95667C52.3051 5.00265 53.7778 8.04467 55.2644 11.0808C55.4951 11.5503 55.3984 11.9429 55.1954 12.3808C55.0534 12.6847 54.9568 13.0299 54.939 13.3632C54.8996 14.0675 54.9409 14.7758 54.9193 15.4821C54.8404 17.9678 52.7329 19.5697 50.2961 19.0094C50.2172 18.9916 50.1344 18.9897 49.9668 18.9699ZM4.0418 46.1292H52.8748V30.9782H4.05166V41.7792H4.88364C15.4629 41.7792 26.0422 41.7792 36.6214 41.7792C36.8285 41.7792 37.0375 41.7733 37.2444 41.7851C37.899 41.8187 38.2953 42.2014 38.2834 42.7794C38.2716 43.3298 37.83 43.7501 37.2208 43.7875C37.0335 43.7993 36.8463 43.7915 36.6589 43.7915C26.0383 43.7915 15.4176 43.7915 4.79689 43.7915C4.55439 43.7915 4.31189 43.7915 4.0418 43.7915V46.1312V46.1292ZM4.14825 10.7296H52.8649C52.8295 10.6211 52.8137 10.5422 52.7802 10.4732C51.6545 8.18473 50.5366 5.89236 49.3813 3.61776C49.2886 3.43428 48.9357 3.28436 48.7031 3.28436C35.2158 3.26857 21.7264 3.27252 8.2392 3.26068C7.8508 3.26068 7.65365 3.38102 7.48805 3.73414C6.68169 5.4623 5.84378 7.17664 5.01967 8.89692C4.73577 9.48874 4.45582 10.0845 4.14825 10.7296ZM31.6768 17.9914C29.9912 19.5775 27.5642 19.6071 25.8627 17.4725C25.155 18.3623 24.3073 19.0154 23.1243 19.1179C21.9275 19.2205 20.9458 18.7648 20.1019 17.9855C19.1773 18.7963 18.1659 19.1948 16.983 19.116C15.7804 19.037 14.905 18.386 14.1814 17.4725C12.4524 19.5105 10.536 19.6723 8.45213 18.0921V28.8516H22.322C21.6299 26.2377 21.9867 24.7976 23.5561 23.7953C25.1037 22.807 26.748 23.0733 28.5677 24.6043C30.4012 23.0674 32.0258 22.8089 33.5794 23.8052C35.1605 24.8192 35.5312 26.2791 34.8432 28.8378H47.8908V18.6524C45.6866 19.4118 45.1208 19.3329 43.236 18.017C42.406 18.818 41.4202 19.2067 40.2511 19.1199C39.0524 19.0291 38.179 18.384 37.4496 17.4845C35.7047 19.6446 33.3547 19.5479 31.6729 17.9934L31.6768 17.9914ZM4.03588 12.7774C4.03588 13.7125 3.98068 14.624 4.05166 15.5255C4.11868 16.3619 4.8521 16.9794 5.63874 17.005C6.42933 17.0327 7.2278 16.5178 7.31651 15.7247C7.42298 14.7521 7.34215 13.7599 7.34215 12.7774H4.03588ZM21.1133 12.7774C21.1133 13.6947 21.068 14.5845 21.1272 15.4663C21.1823 16.3027 21.8921 16.9518 22.6689 17.0011C23.4851 17.0544 24.3112 16.5395 24.4059 15.7168C24.5182 14.7462 24.4314 13.7519 24.4314 12.7754H21.1154L21.1133 12.7774ZM15.6147 12.7774C15.6147 13.7164 15.5753 14.6259 15.6265 15.5314C15.6679 16.281 16.3698 16.9261 17.0973 16.9971C17.9214 17.078 18.7515 16.6045 18.8599 15.7681C18.988 14.7836 18.8894 13.7677 18.8894 12.7774H15.6147ZM27.3257 12.7675C27.3257 13.7204 27.2961 14.6101 27.3335 15.4978C27.3671 16.2771 28.0611 16.9379 28.826 16.9991C29.6225 17.0623 30.49 16.5473 30.559 15.8056C30.6536 14.8074 30.5826 13.7914 30.5826 12.7694H27.3257V12.7675ZM36.0674 12.7853H32.7001C32.7001 13.6316 32.6942 14.4365 32.7001 15.2433C32.7079 16.2317 33.4118 16.9853 34.3306 17.005C35.2532 17.0228 36.0142 16.3126 36.0576 15.3281C36.0951 14.5015 36.0655 13.6711 36.0655 12.7872L36.0674 12.7853ZM53.0266 12.7892H49.6612C49.6612 13.6415 49.6553 14.4483 49.6612 15.2552C49.6691 16.2139 50.3533 16.9617 51.2424 17.0011C52.171 17.0426 52.9596 16.352 53.0148 15.3736C53.0621 14.5272 53.0247 13.679 53.0247 12.7892H53.0266ZM9.46353 12.7715C9.46353 13.7262 9.42606 14.6377 9.47535 15.5432C9.51675 16.354 10.2502 16.9853 11.0565 17.0011C11.8688 17.0169 12.6712 16.425 12.7304 15.634C12.8013 14.6929 12.7461 13.7421 12.7461 12.7694H9.46353V12.7715ZM44.2967 12.7675C44.2967 13.7361 44.269 14.6476 44.3046 15.5551C44.3361 16.3087 45.0715 16.9636 45.8423 17.0011C46.6093 17.0385 47.4768 16.4823 47.5201 15.8115C47.5832 14.8074 47.5359 13.7973 47.5359 12.7675H44.2947H44.2967ZM38.9163 12.7814C38.9163 13.744 38.871 14.6752 38.9302 15.5984C38.9795 16.3777 39.7207 16.9834 40.4995 17.005C41.2881 17.0267 42.1142 16.4468 42.1654 15.7149C42.2305 14.7521 42.1812 13.7796 42.1812 12.7833H38.9163V12.7814ZM27.2547 27.0603C27.2764 26.0957 26.5627 25.3459 25.6123 25.3361C24.6838 25.3262 23.9583 26.0266 23.9306 26.9577C23.9031 27.9501 24.5655 28.6701 25.5394 28.7056C26.5055 28.7391 27.231 28.0428 27.2547 27.0603ZM33.2383 27.0899C33.2718 26.1212 32.5758 25.3618 31.6275 25.3361C30.699 25.3124 29.9557 26.0029 29.9182 26.9281C29.8768 27.9263 30.5195 28.6484 31.4974 28.7016C32.4615 28.755 33.2048 28.0664 33.2383 27.0879V27.0899Z" fill="#01CAA9" stroke="white" stroke-width="0.4" mask="url(#path-5-inside-1_1_6066)"/>
</g>
</g>
</g>
</g>
</svg>
