<svg width="49" height="49" viewBox="0 0 49 49" fill="none" xmlns="http://www.w3.org/2000/svg">
<g filter="url(#filter0_d_1699_4116)">
<circle cx="24.5" cy="22.5" r="20.5" fill="white"/>
</g>
<path d="M17 22.25C16.5858 22.25 16.25 22.5858 16.25 23C16.25 23.4142 16.5858 23.75 17 23.75L17 22.25ZM32.5303 23.5303C32.8232 23.2374 32.8232 22.7626 32.5303 22.4697L27.7574 17.6967C27.4645 17.4038 26.9896 17.4038 26.6967 17.6967C26.4038 17.9896 26.4038 18.4645 26.6967 18.7574L30.9393 23L26.6967 27.2426C26.4038 27.5355 26.4038 28.0104 26.6967 28.3033C26.9896 28.5962 27.4645 28.5962 27.7574 28.3033L32.5303 23.5303ZM17 23.75L32 23.75L32 22.25L17 22.25L17 23.75Z" fill="#00EAC3"/>
<defs>
<filter id="filter0_d_1699_4116" x="0" y="0" width="49" height="49" filterUnits="userSpaceOnUse" color-interpolation-filters="sRGB">
<feFlood flood-opacity="0" result="BackgroundImageFix"/>
<feColorMatrix in="SourceAlpha" type="matrix" values="0 0 0 0 0 0 0 0 0 0 0 0 0 0 0 0 0 0 127 0" result="hardAlpha"/>
<feOffset dy="2"/>
<feGaussianBlur stdDeviation="2"/>
<feComposite in2="hardAlpha" operator="out"/>
<feColorMatrix type="matrix" values="0 0 0 0 0 0 0 0 0 0 0 0 0 0 0 0 0 0 0.25 0"/>
<feBlend mode="normal" in2="BackgroundImageFix" result="effect1_dropShadow_1699_4116"/>
<feBlend mode="normal" in="SourceGraphic" in2="effect1_dropShadow_1699_4116" result="shape"/>
</filter>
</defs>
</svg>
