<svg width="143" height="143" viewBox="0 0 143 143" fill="none" xmlns="http://www.w3.org/2000/svg">
<circle cx="71.5" cy="71.5" r="71.5" fill="url(#paint0_linear_39_6610)" fill-opacity="0.5"/>
<circle cx="72" cy="71" r="61" fill="url(#paint1_linear_39_6610)"/>
<path d="M70.2391 105.993C70.137 105.951 70.0368 105.894 69.9311 105.871C66.681 105.123 64.8344 102.085 65.6729 98.8545C65.6948 98.767 65.713 98.6795 65.7495 98.5082C60.4888 95.4696 55.2172 92.4254 50.0915 89.467C49.0506 90.0375 48.1593 90.7211 47.1549 91.0419C44.222 91.9752 41.1359 90.249 40.2428 87.307C39.3605 84.3996 40.9537 81.3081 43.8738 80.3894C44.459 80.2052 44.5793 79.9482 44.5774 79.3977C44.5592 73.7725 44.5592 68.1473 44.5774 62.5221C44.5774 62.0135 44.4626 61.7856 43.934 61.627C41.7338 60.9672 40.1626 58.9712 40.0259 56.7747C39.8764 54.3722 41.0758 52.2705 43.1757 51.257C45.2337 50.2618 47.7145 50.6154 49.397 52.1958C49.7779 52.553 50.0186 52.5877 50.4834 52.3161C55.3758 49.4615 60.2829 46.6325 65.1972 43.8163C65.6146 43.5775 65.7386 43.3843 65.6201 42.872C64.9055 39.7514 66.7885 36.8421 69.9311 36.1221C70.0386 36.0984 70.137 36.0419 70.2409 36C70.7878 36 71.3346 36 71.8815 36C72.3518 36.1568 72.8385 36.2771 73.2923 36.4739C75.8279 37.5804 77.1257 40.2362 76.4732 43.0087C76.3893 43.3624 76.4312 43.5264 76.7502 43.7105C81.8961 46.669 87.0364 49.642 92.0273 52.5257C93.0645 51.9552 93.9558 51.2716 94.9602 50.9471C97.8621 50.0139 100.924 51.7036 101.849 54.6183C102.771 57.5202 101.216 60.63 98.3106 61.5778C97.7017 61.7765 97.5304 62.0317 97.534 62.6588C97.5614 68.2603 97.5559 73.8637 97.5395 79.467C97.5395 79.9737 97.6543 80.1943 98.1793 80.3657C100.39 81.0875 101.737 82.6478 102.053 84.9446C102.359 87.183 101.506 89.0058 99.6558 90.3256C98.9613 90.8214 98.2249 90.6446 97.9624 89.9519C97.7309 89.3467 98.0499 88.9694 98.5074 88.6285C99.8508 87.6314 100.363 86.1641 99.911 84.6639C99.4681 83.1929 98.1574 82.1958 96.6099 82.152C95.0696 82.1065 93.7207 83.0252 93.1793 84.4852C92.6544 85.907 93.0772 87.4619 94.2548 88.4298C94.4134 88.5592 94.5938 88.6613 94.7469 88.798C95.1771 89.1845 95.2683 89.6456 94.9712 90.1451C94.6941 90.6117 94.0944 90.7685 93.5949 90.4568C93.1173 90.1579 92.6908 89.7787 92.1786 89.3868C90.631 90.28 89.0415 91.1969 87.4502 92.1156C83.9431 94.1407 80.4396 96.1713 76.9252 98.1819C76.5169 98.4152 76.3747 98.6012 76.495 99.1243C77.2132 102.241 75.3284 105.154 72.1877 105.876C72.082 105.9 71.9817 105.958 71.8797 106H70.2391V105.993ZM66.8213 45.2964C66.7393 45.3128 66.6901 45.3128 66.6536 45.3328C61.5279 48.2876 56.4075 51.2479 51.2763 54.1936C50.8953 54.4123 50.961 54.6475 51.0412 54.9829C51.7357 57.9213 50.0732 60.8104 47.1713 61.6599C46.7284 61.7893 46.6081 61.9643 46.6081 62.3999C46.6208 68.1181 46.6226 73.8345 46.6044 79.5527C46.6044 80.0284 46.7466 80.1998 47.2041 80.3383C50.0459 81.1896 51.7211 84.0259 51.0485 86.9041C50.9099 87.4984 51.0995 87.6934 51.5424 87.9486C55.7276 90.3474 59.9001 92.7663 64.078 95.1779C64.9785 95.6974 65.8826 96.2133 66.7995 96.7382C67.9733 95.4769 69.3715 94.7969 71.0557 94.7915C72.7674 94.786 74.1709 95.5097 75.3339 96.7401C80.4797 93.767 85.5836 90.8214 90.6857 87.8739C90.744 87.8392 90.8005 87.7991 90.8643 87.7736C91.2581 87.6168 91.1359 87.3434 91.0667 87.0408C90.3758 84.0587 92.0419 81.1786 94.9766 80.3201C95.3904 80.1998 95.5089 80.0357 95.5071 79.6238C95.4943 73.8837 95.4943 68.1436 95.5071 62.4036C95.5071 61.9679 95.3868 61.7929 94.9438 61.6635C92.0984 60.8305 90.4086 58.0142 91.0594 55.1214C91.1979 54.5053 91.0138 54.2938 90.5453 54.0277C87.895 52.5202 85.261 50.9854 82.6215 49.4615C80.2008 48.0634 77.7801 46.6672 75.3758 45.28C72.0984 47.8666 69.5738 47.8702 66.8231 45.3L66.8213 45.2964ZM74.6121 41.6198C74.6212 39.6584 73.0207 38.0489 71.0612 38.0489C69.1272 38.0489 67.5304 39.6201 67.5085 41.5487C67.4848 43.5137 69.0689 45.1378 71.0247 45.1542C72.9861 45.1706 74.6048 43.5775 74.6139 41.6198H74.6121ZM74.6121 100.4C74.6175 98.4389 73.0171 96.833 71.0557 96.8349C69.1235 96.8349 67.5286 98.4116 67.5067 100.34C67.4867 102.305 69.0707 103.927 71.0284 103.942C72.9898 103.957 74.6066 102.36 74.6121 100.402V100.4ZM100.055 56.3135C100.06 54.3285 98.4965 52.7554 96.5133 52.7499C94.5574 52.7444 92.9424 54.3613 92.9515 56.3153C92.9624 58.2475 94.5391 59.8243 96.4786 59.8425C98.4619 59.8607 100.05 58.2949 100.055 56.3153V56.3135ZM42.0619 56.2989C42.0638 58.2822 43.6423 59.8516 45.6219 59.8425C47.5614 59.8316 49.1436 58.2621 49.1637 56.3318C49.1837 54.3777 47.5887 52.7681 45.6183 52.7554C43.6405 52.7426 42.0601 54.3194 42.0619 56.3008V56.2989ZM42.0619 85.6956C42.0619 87.6752 43.6423 89.2464 45.6256 89.2337C47.565 89.2227 49.1436 87.6569 49.1655 85.7193C49.1874 83.767 47.5851 82.152 45.6164 82.1465C43.6332 82.1411 42.0619 83.7087 42.0619 85.6938V85.6956Z" fill="white"/>
<path d="M86.1254 63.4876C84.9442 64.1693 83.8724 64.7599 82.837 65.407C82.6712 65.5109 82.5928 65.8645 82.591 66.1051C82.5709 67.9954 82.5545 69.8875 82.591 71.7778C82.611 72.8058 82.2027 73.5076 81.3022 73.9888C80.3598 74.4919 79.4502 75.0607 78.5188 75.5838C77.2391 76.3002 76.1054 75.6476 76.0926 74.1821C76.0798 72.5962 76.0889 71.0103 76.0889 69.2932C74.7455 70.057 73.5042 70.7515 72.2792 71.4733C72.1626 71.5408 72.0915 71.7778 72.0915 71.9363C72.0842 77.1077 72.0879 82.2772 72.0915 87.4486C72.0915 87.5123 72.1225 87.5761 72.1608 87.7293C72.3941 87.609 72.6092 87.5124 72.8115 87.3939C76.9694 84.995 81.1218 82.5834 85.2924 80.2047C85.903 79.8565 86.1655 79.4445 86.1382 78.7336C86.0889 77.4376 86.1181 76.1379 86.129 74.8383C86.1345 74.2805 86.3842 73.8594 86.9621 73.7428C87.4688 73.6389 87.8717 73.8521 88.0776 74.3206C88.1724 74.5375 88.1688 74.8091 88.1706 75.0552C88.1797 76.3312 88.1451 77.6071 88.1834 78.8813C88.2235 80.2575 87.6365 81.2163 86.4553 81.8944C82.3686 84.2349 78.2927 86.5973 74.2133 88.9524C73.6609 89.2714 73.1123 89.594 72.5545 89.9021C71.5592 90.4526 70.5494 90.4671 69.5632 89.8984C64.8494 87.1861 60.1374 84.4701 55.4327 81.7431C54.4521 81.1744 53.9453 80.3031 53.9453 79.1511C53.9453 73.7063 53.9453 68.2634 53.9453 62.8186C53.9453 61.6666 54.4612 60.8025 55.4437 60.2338C60.1502 57.5087 64.8604 54.7927 69.5742 52.0803C70.5366 51.5262 71.541 51.508 72.5035 52.0603C77.2592 54.7909 82.0076 57.5342 86.7488 60.2867C87.6857 60.8299 88.167 61.6811 88.1688 62.773C88.1743 65.119 88.1779 67.465 88.1688 69.8109C88.167 70.5072 87.7641 70.9557 87.1826 70.9702C86.5829 70.9848 86.1363 70.5164 86.129 69.7909C86.1145 67.9918 86.1236 66.1926 86.1236 64.3917C86.1236 64.1438 86.1236 63.8941 86.1236 63.4839L86.1254 63.4876ZM56.0379 63.504C56.016 63.73 55.996 63.8394 55.996 63.9506C55.996 68.9615 55.9996 73.9724 55.9869 78.9834C55.9869 79.5412 56.2366 79.8529 56.6923 80.1135C60.9522 82.5634 65.2067 85.0242 69.463 87.4795C69.6125 87.5652 69.7783 87.6199 69.9734 87.7056C69.9989 87.5342 70.0299 87.4249 70.0299 87.3155C70.0335 82.2134 70.039 77.1113 70.0153 72.0093C70.0153 71.785 69.8039 71.4697 69.6015 71.3494C67.5654 70.1427 65.5111 68.9688 63.4623 67.7876C61.0215 66.3786 58.5826 64.9713 56.0397 63.5021L56.0379 63.504ZM75.0499 67.5124C74.7802 67.3501 74.5888 67.2316 74.3937 67.1186C70.3197 64.7599 66.2293 62.4303 62.1863 60.0187C61.3387 59.5138 60.7134 59.4263 59.8932 60.0133C59.02 60.6348 58.0412 61.107 57.1043 61.6483C57.1754 61.7504 57.1845 61.7759 57.2009 61.785C61.6486 64.3607 66.0908 66.9418 70.5549 69.4883C70.8155 69.6378 71.2968 69.6286 71.5684 69.4883C72.7167 68.8922 73.825 68.2178 75.0518 67.5124H75.0499ZM67.6183 55.5783C67.6821 55.6549 67.704 55.7005 67.7404 55.7223C72.261 58.3454 76.7816 60.9684 81.3077 63.5842C81.4243 63.6516 81.6303 63.6881 81.7342 63.6297C82.8334 63.0155 83.9216 62.3811 85.1064 61.6976C84.3646 61.2674 83.7393 60.9064 83.1141 60.5455C79.3554 58.3745 75.6023 56.1945 71.8272 54.0508C71.4954 53.8612 70.9468 53.7318 70.6405 53.8758C69.6015 54.3698 68.6245 54.9969 67.6165 55.5783H67.6183ZM63.0813 58.1996C67.7222 60.8864 72.2665 63.5185 76.8181 66.1398C76.9511 66.2163 77.1863 66.2546 77.3084 66.189C78.0248 65.8044 78.7229 65.3851 79.4375 64.9713C79.3682 64.8875 79.3482 64.8419 79.3135 64.8219C74.8093 62.2079 70.307 59.5922 65.7937 56.9947C65.6387 56.9054 65.3489 56.9126 65.1867 56.9983C64.5031 57.3556 63.8451 57.7584 63.0813 58.1996ZM78.1451 73.4256C78.8414 73.0264 79.3773 72.6837 79.9442 72.4084C80.3908 72.1915 80.5585 71.909 80.5439 71.4041C80.5056 70.108 80.533 68.812 80.5293 67.5142C80.5293 67.2809 80.5093 67.0494 80.4965 66.734C79.7437 67.1697 79.0911 67.5324 78.455 67.9225C78.3219 68.0045 78.1597 68.1832 78.1578 68.318C78.1378 69.9713 78.1451 71.6246 78.1451 73.4238V73.4256Z" fill="white"/>
<defs>
<linearGradient id="paint0_linear_39_6610" x1="15.8238" y1="4.80605e-07" x2="113.697" y2="143" gradientUnits="userSpaceOnUse">
<stop stop-color="#3276E2"/>
<stop offset="1" stop-color="#1EA3D6"/>
</linearGradient>
<linearGradient id="paint1_linear_39_6610" x1="24.5" y1="10" x2="108" y2="132" gradientUnits="userSpaceOnUse">
<stop stop-color="#3276E2"/>
<stop offset="1" stop-color="#1EA3D6"/>
</linearGradient>
</defs>
</svg>
