<svg width="250" height="250" viewBox="0 0 250 250" fill="none" xmlns="http://www.w3.org/2000/svg">
<circle cx="125" cy="125" r="125" fill="url(#paint0_linear_39_6665)"/>
<circle cx="124.714" cy="124.714" r="115.714" fill="url(#paint1_linear_39_6665)"/>
<path d="M59.9341 151.638C59.8773 151.065 59.6335 150.62 59.2026 150.303C58.7717 149.985 58.187 149.827 57.4483 149.827C56.9464 149.827 56.5227 149.898 56.177 150.04C55.8314 150.177 55.5662 150.369 55.3816 150.615C55.2016 150.861 55.1117 151.141 55.1117 151.453C55.1022 151.714 55.1567 151.941 55.275 152.135C55.3981 152.329 55.5662 152.497 55.7793 152.639C55.9924 152.777 56.2386 152.897 56.5179 153.001C56.7973 153.101 57.0956 153.186 57.4128 153.257L58.7196 153.57C59.3541 153.712 59.9365 153.901 60.4668 154.138C60.9971 154.375 61.4564 154.666 61.8446 155.011C62.2329 155.357 62.5336 155.764 62.7466 156.233C62.9644 156.702 63.0757 157.239 63.0804 157.845C63.0757 158.735 62.8484 159.507 62.3986 160.161C61.9535 160.809 61.3096 161.313 60.4668 161.673C59.6287 162.028 58.6178 162.206 57.4341 162.206C56.2599 162.206 55.2372 162.026 54.3659 161.666C53.4995 161.306 52.8224 160.774 52.3347 160.068C51.8517 159.358 51.5984 158.48 51.5748 157.433H54.5506C54.5837 157.921 54.7234 158.328 54.9696 158.655C55.2206 158.977 55.5544 159.221 55.9711 159.386C56.3925 159.547 56.8683 159.628 57.3986 159.628C57.9194 159.628 58.3716 159.552 58.7551 159.401C59.1434 159.249 59.4441 159.038 59.6571 158.768C59.8702 158.499 59.9767 158.188 59.9767 157.838C59.9767 157.511 59.8797 157.237 59.6855 157.014C59.4962 156.792 59.2168 156.602 58.8475 156.446C58.4829 156.29 58.0355 156.148 57.5051 156.02L55.9213 155.622C54.695 155.324 53.7267 154.857 53.0165 154.223C52.3063 153.589 51.9535 152.734 51.9583 151.659C51.9535 150.778 52.1879 150.009 52.6614 149.351C53.1396 148.693 53.7954 148.179 54.6287 147.81C55.4621 147.44 56.409 147.256 57.4696 147.256C58.5492 147.256 59.4914 147.44 60.2963 147.81C61.106 148.179 61.7357 148.693 62.1855 149.351C62.6354 150.009 62.8674 150.771 62.8816 151.638H59.9341ZM74.1333 147.455H77.2086V156.901C77.2086 157.961 76.9553 158.889 76.4487 159.685C75.9468 160.48 75.2437 161.1 74.3393 161.545C73.435 161.986 72.3815 162.206 71.1788 162.206C69.9714 162.206 68.9155 161.986 68.0112 161.545C67.1068 161.1 66.4037 160.48 65.9018 159.685C65.3999 158.889 65.149 157.961 65.149 156.901V147.455H68.2243V156.638C68.2243 157.192 68.345 157.684 68.5865 158.115C68.8327 158.546 69.1783 158.884 69.6234 159.131C70.0685 159.377 70.5869 159.5 71.1788 159.5C71.7754 159.5 72.2939 159.377 72.7342 159.131C73.1793 158.884 73.5225 158.546 73.764 158.115C74.0102 157.684 74.1333 157.192 74.1333 156.638V147.455ZM79.7388 162V147.455H85.4775C86.5807 147.455 87.5205 147.665 88.2971 148.087C89.0736 148.503 89.6654 149.083 90.0726 149.827C90.4846 150.565 90.6905 151.418 90.6905 152.384C90.6905 153.349 90.4822 154.202 90.0655 154.94C89.6489 155.679 89.0452 156.254 88.2544 156.666C87.4685 157.078 86.5167 157.284 85.3993 157.284H81.7417V154.82H84.9022C85.494 154.82 85.9817 154.718 86.3652 154.514C86.7535 154.306 87.0423 154.019 87.2317 153.655C87.4258 153.286 87.5229 152.862 87.5229 152.384C87.5229 151.901 87.4258 151.479 87.2317 151.119C87.0423 150.755 86.7535 150.473 86.3652 150.274C85.977 150.071 85.4846 149.969 84.888 149.969H82.8141V162H79.7388ZM92.688 162V147.455H98.4267C99.5299 147.455 100.47 147.665 101.246 148.087C102.023 148.503 102.615 149.083 103.022 149.827C103.434 150.565 103.64 151.418 103.64 152.384C103.64 153.349 103.431 154.202 103.015 154.94C102.598 155.679 101.994 156.254 101.204 156.666C100.418 157.078 99.466 157.284 98.3485 157.284H94.6909V154.82H97.8514C98.4432 154.82 98.9309 154.718 99.3145 154.514C99.7027 154.306 99.9915 154.019 100.181 153.655C100.375 153.286 100.472 152.862 100.472 152.384C100.472 151.901 100.375 151.479 100.181 151.119C99.9915 150.755 99.7027 150.473 99.3145 150.274C98.9262 150.071 98.4338 149.969 97.8372 149.969H95.7633V162H92.688ZM105.637 162V147.455H108.713V159.464H114.948V162H105.637ZM114.277 147.455H117.722L121.039 153.719H121.181L124.497 147.455H127.942L122.637 156.858V162H119.583V156.858L114.277 147.455ZM147.084 152.547H143.974C143.917 152.144 143.801 151.787 143.626 151.474C143.45 151.157 143.225 150.887 142.951 150.665C142.676 150.442 142.359 150.272 141.999 150.153C141.644 150.035 141.258 149.976 140.841 149.976C140.089 149.976 139.433 150.163 138.874 150.537C138.315 150.906 137.882 151.446 137.574 152.156C137.267 152.862 137.113 153.719 137.113 154.727C137.113 155.764 137.267 156.635 137.574 157.341C137.887 158.046 138.323 158.579 138.881 158.939C139.44 159.299 140.086 159.479 140.82 159.479C141.232 159.479 141.613 159.424 141.964 159.315C142.319 159.206 142.634 159.048 142.908 158.839C143.183 158.626 143.41 158.368 143.59 158.065C143.775 157.762 143.903 157.417 143.974 157.028L147.084 157.043C147.004 157.71 146.803 158.354 146.481 158.974C146.163 159.59 145.735 160.142 145.195 160.629C144.66 161.112 144.021 161.496 143.278 161.78C142.539 162.059 141.703 162.199 140.77 162.199C139.473 162.199 138.313 161.905 137.29 161.318C136.272 160.731 135.467 159.881 134.876 158.768C134.288 157.656 133.995 156.309 133.995 154.727C133.995 153.141 134.293 151.792 134.89 150.679C135.486 149.566 136.296 148.719 137.319 148.136C138.341 147.549 139.492 147.256 140.77 147.256C141.613 147.256 142.394 147.374 143.114 147.611C143.839 147.848 144.48 148.193 145.039 148.648C145.598 149.098 146.052 149.649 146.403 150.303C146.758 150.956 146.985 151.704 147.084 152.547ZM149.29 162V147.455H152.365V153.456H158.608V147.455H161.676V162H158.608V155.991H152.365V162H149.29ZM166.719 162H163.423L168.444 147.455H172.407L177.422 162H174.126L170.483 150.778H170.369L166.719 162ZM166.513 156.283H174.297V158.683H166.513V156.283ZM182.248 147.455V162H179.172V147.455H182.248ZM196.944 147.455V162H194.288L187.96 152.845H187.853V162H184.778V147.455H187.477L193.755 156.602H193.883V147.455H196.944Z" fill="white"/>
<path d="M124.599 132.995C124.526 132.965 124.455 132.924 124.379 132.908C122.058 132.374 120.739 130.203 121.338 127.896C121.353 127.834 121.366 127.771 121.393 127.649C117.635 125.478 113.869 123.304 110.208 121.191C109.465 121.598 108.828 122.087 108.111 122.316C106.016 122.982 103.811 121.749 103.173 119.648C102.543 117.571 103.681 115.363 105.767 114.707C106.185 114.575 106.271 114.392 106.27 113.998C106.257 109.98 106.257 105.962 106.27 101.944C106.27 101.581 106.188 101.418 105.81 101.305C104.238 100.834 103.116 99.408 103.018 97.8391C102.912 96.123 103.768 94.6218 105.268 93.8979C106.738 93.187 108.51 93.4396 109.712 94.5684C109.984 94.8236 110.156 94.8483 110.488 94.6543C113.983 92.6154 117.488 90.5947 120.998 88.583C121.296 88.4125 121.385 88.2745 121.3 87.9086C120.79 85.6795 122.135 83.6015 124.379 83.0872C124.456 83.0703 124.526 83.0299 124.601 83C124.991 83 125.382 83 125.772 83C126.108 83.112 126.456 83.1979 126.78 83.3385C128.591 84.1288 129.518 86.0259 129.052 88.0062C128.992 88.2588 129.022 88.376 129.25 88.5075C132.926 90.6207 136.597 92.7443 140.162 94.8041C140.903 94.3965 141.54 93.9083 142.257 93.6765C144.33 93.0099 146.517 94.2169 147.178 96.2988C147.836 98.3716 146.726 100.593 144.65 101.27C144.216 101.412 144.093 101.594 144.096 102.042C144.115 106.043 144.111 110.045 144.1 114.048C144.1 114.41 144.182 114.567 144.557 114.69C146.136 115.205 147.098 116.32 147.323 117.96C147.542 119.559 146.933 120.861 145.611 121.804C145.115 122.158 144.589 122.032 144.402 121.537C144.236 121.105 144.464 120.835 144.791 120.592C145.751 119.88 146.116 118.831 145.794 117.76C145.477 116.709 144.541 115.997 143.436 115.966C142.335 115.933 141.372 116.589 140.985 117.632C140.61 118.648 140.912 119.759 141.753 120.45C141.867 120.542 141.996 120.615 142.105 120.713C142.412 120.989 142.477 121.318 142.265 121.675C142.067 122.008 141.639 122.12 141.282 121.898C140.941 121.684 140.636 121.413 140.27 121.133C139.165 121.771 138.03 122.426 136.893 123.083C134.388 124.529 131.885 125.98 129.375 127.416C129.084 127.582 128.982 127.715 129.068 128.089C129.581 130.315 128.235 132.396 125.991 132.911C125.916 132.928 125.844 132.97 125.771 133H124.599V132.995ZM122.158 89.6403C122.099 89.652 122.064 89.652 122.038 89.6663C118.377 91.7769 114.72 93.8914 111.055 95.9954C110.782 96.1517 110.829 96.3196 110.887 96.5592C111.383 98.658 110.195 100.722 108.122 101.328C107.806 101.421 107.72 101.546 107.72 101.857C107.729 105.942 107.73 110.025 107.717 114.109C107.717 114.449 107.819 114.571 108.146 114.67C110.176 115.278 111.372 117.304 110.892 119.36C110.793 119.785 110.928 119.924 111.245 120.106C114.234 121.82 117.214 123.547 120.199 125.27C120.842 125.641 121.488 126.009 122.142 126.384C122.981 125.483 123.98 124.998 125.183 124.994C126.405 124.99 127.408 125.507 128.238 126.386C131.914 124.262 135.56 122.158 139.204 120.053C139.246 120.028 139.286 119.999 139.332 119.981C139.613 119.869 139.526 119.674 139.476 119.458C138.983 117.328 140.173 115.27 142.269 114.657C142.565 114.571 142.649 114.454 142.648 114.16C142.639 110.06 142.639 105.96 142.648 101.86C142.648 101.549 142.562 101.424 142.246 101.331C140.213 100.736 139.006 98.7244 139.471 96.6581C139.57 96.2181 139.438 96.067 139.104 95.8769C137.211 94.8002 135.329 93.7039 133.444 92.6154C131.715 91.6167 129.986 90.6194 128.268 89.6286C125.927 91.4761 124.124 91.4787 122.159 89.6429L122.158 89.6403ZM127.723 87.0141C127.729 85.6131 126.586 84.4635 125.187 84.4635C123.805 84.4635 122.665 85.5858 122.649 86.9633C122.632 88.3669 123.763 89.527 125.161 89.5387C126.562 89.5504 127.718 88.4125 127.724 87.0141H127.723ZM127.723 129C127.727 127.599 126.584 126.452 125.183 126.453C123.803 126.453 122.663 127.58 122.648 128.957C122.633 130.361 123.765 131.52 125.163 131.53C126.564 131.54 127.719 130.4 127.723 129.002V129ZM145.896 97.5097C145.9 96.0918 144.783 94.9681 143.367 94.9642C141.97 94.9603 140.816 96.1152 140.822 97.511C140.83 98.8911 141.957 100.017 143.342 100.03C144.758 100.043 145.893 98.925 145.896 97.511V97.5097ZM104.473 97.4992C104.474 98.9158 105.602 100.037 107.016 100.03C108.401 100.023 109.531 98.9015 109.545 97.5227C109.56 96.1269 108.421 94.9772 107.013 94.9681C105.6 94.959 104.472 96.0853 104.473 97.5005V97.4992ZM104.473 118.497C104.473 119.911 105.602 121.033 107.018 121.024C108.404 121.016 109.531 119.898 109.547 118.514C109.562 117.119 108.418 115.966 107.012 115.962C105.595 115.958 104.473 117.078 104.473 118.496V118.497Z" fill="white"/>
<path d="M135.947 102.633C135.103 103.12 134.337 103.542 133.598 104.004C133.479 104.079 133.423 104.331 133.422 104.503C133.408 105.853 133.396 107.205 133.422 108.555C133.436 109.289 133.145 109.79 132.502 110.134C131.828 110.494 131.179 110.9 130.513 111.273C129.599 111.785 128.79 111.319 128.78 110.272C128.771 109.139 128.778 108.007 128.778 106.78C127.818 107.326 126.932 107.822 126.057 108.337C125.973 108.386 125.923 108.555 125.923 108.668C125.917 112.362 125.92 116.054 125.923 119.748C125.923 119.794 125.945 119.839 125.972 119.949C126.139 119.863 126.292 119.794 126.437 119.709C129.407 117.996 132.373 116.273 135.352 114.574C135.788 114.325 135.975 114.031 135.956 113.523C135.921 112.598 135.942 111.669 135.949 110.741C135.953 110.343 136.132 110.042 136.544 109.958C136.906 109.884 137.194 110.037 137.341 110.371C137.409 110.526 137.406 110.72 137.408 110.896C137.414 111.807 137.389 112.719 137.417 113.629C137.445 114.612 137.026 115.297 136.182 115.781C133.263 117.453 130.352 119.14 127.438 120.822C127.044 121.05 126.652 121.281 126.253 121.501C125.542 121.894 124.821 121.904 124.117 121.498C120.75 119.561 117.384 117.621 114.023 115.673C113.323 115.267 112.961 114.644 112.961 113.821C112.961 109.932 112.961 106.045 112.961 102.155C112.961 101.333 113.329 100.715 114.031 100.309C117.393 98.3627 120.757 96.4227 124.124 94.4853C124.812 94.0894 125.529 94.0764 126.217 94.4709C129.614 96.4214 133.005 98.3809 136.392 100.347C137.061 100.735 137.405 101.343 137.406 102.123C137.41 103.799 137.413 105.474 137.406 107.15C137.405 107.647 137.117 107.968 136.702 107.978C136.274 107.988 135.955 107.654 135.949 107.136C135.939 105.851 135.945 104.565 135.945 103.279C135.945 103.102 135.945 102.924 135.945 102.631L135.947 102.633ZM114.456 102.645C114.44 102.806 114.426 102.885 114.426 102.964C114.426 106.543 114.428 110.122 114.419 113.702C114.419 114.1 114.598 114.323 114.923 114.509C117.966 116.259 121.005 118.017 124.045 119.77C124.152 119.832 124.27 119.871 124.41 119.932C124.428 119.809 124.45 119.731 124.45 119.653C124.453 116.009 124.456 112.365 124.44 108.72C124.44 108.56 124.288 108.335 124.144 108.249C122.69 107.387 121.222 106.548 119.759 105.705C118.015 104.698 116.273 103.693 114.457 102.644L114.456 102.645ZM128.036 105.508C127.843 105.392 127.706 105.308 127.567 105.227C124.657 103.542 121.735 101.878 118.847 100.156C118.242 99.7949 117.795 99.7324 117.209 100.152C116.586 100.596 115.887 100.933 115.217 101.32C115.268 101.392 115.275 101.411 115.286 101.417C118.463 103.257 121.636 105.101 124.825 106.92C125.011 107.026 125.355 107.02 125.549 106.92C126.369 106.494 127.161 106.012 128.037 105.508H128.036ZM122.727 96.9838C122.773 97.0385 122.789 97.0711 122.815 97.0867C126.044 98.9603 129.273 100.834 132.505 102.702C132.589 102.75 132.736 102.776 132.81 102.735C133.595 102.296 134.373 101.843 135.219 101.355C134.689 101.047 134.242 100.79 133.796 100.532C131.111 98.9811 128.43 97.4239 125.734 95.8927C125.497 95.7573 125.105 95.6649 124.886 95.7677C124.144 96.1206 123.446 96.5685 122.726 96.9838H122.727ZM119.487 98.8561C122.802 100.775 126.047 102.655 129.299 104.528C129.394 104.582 129.562 104.61 129.649 104.563C130.161 104.288 130.659 103.989 131.17 103.693C131.12 103.633 131.106 103.601 131.081 103.586C127.864 101.719 124.648 99.8509 121.424 97.9955C121.313 97.9317 121.106 97.9369 120.99 97.9981C120.502 98.2533 120.032 98.541 119.487 98.8561ZM130.246 109.732C130.744 109.447 131.127 109.202 131.532 109.005C131.851 108.85 131.97 108.649 131.96 108.288C131.933 107.362 131.952 106.436 131.95 105.509C131.95 105.343 131.935 105.177 131.926 104.952C131.388 105.263 130.922 105.522 130.468 105.801C130.373 105.86 130.257 105.987 130.256 106.084C130.241 107.265 130.246 108.445 130.246 109.731V109.732Z" fill="white"/>
<defs>
<linearGradient id="paint0_linear_39_6665" x1="33.3333" y1="42.9167" x2="208.75" y2="211.667" gradientUnits="userSpaceOnUse">
<stop stop-color="#2AD1FD"/>
<stop offset="1" stop-color="#02F2DF"/>
</linearGradient>
<linearGradient id="paint1_linear_39_6665" x1="39.8571" y1="48.7286" x2="202.243" y2="204.943" gradientUnits="userSpaceOnUse">
<stop stop-color="#1AA7F8"/>
<stop offset="1" stop-color="#03E0C2"/>
</linearGradient>
</defs>
</svg>
