<svg width="266" height="287" viewBox="0 0 266 287" fill="none" xmlns="http://www.w3.org/2000/svg">
<circle cx="40.5" cy="39.5" r="38" fill="white" stroke="url(#paint0_linear_13_6284)" stroke-width="3"/>
<path d="M19.961 54.0825C20.0206 53.8295 20.0728 53.5756 20.1397 53.3247C20.7867 50.8948 23.0118 49.2873 25.5933 49.3803C27.9679 49.466 30.0874 51.3243 30.5212 53.7281C30.5724 54.0124 30.6633 54.0866 30.9403 54.0835C32.0889 54.0689 33.2386 54.072 34.3882 54.0814C34.6317 54.0835 34.7446 54.0396 34.7937 53.7585C35.2379 51.2302 37.4505 49.3803 40.008 49.3762C42.579 49.372 44.7948 51.1958 45.2567 53.7198C45.3069 53.9936 45.3821 54.0877 45.6685 54.0835C46.8307 54.0668 47.9929 54.071 49.1551 54.0814C49.3965 54.0835 49.4833 54.0166 49.5272 53.7658C49.9839 51.1863 52.2153 49.3553 54.8533 49.3762C57.3961 49.396 59.592 51.2867 60.0194 53.8222C60.0341 53.9111 60.0686 53.9957 60.0936 54.0825V55.3366C60.0675 55.4213 60.032 55.5049 60.0173 55.5927C59.6735 57.6767 58.0556 59.4064 56.0029 59.8841C53.8917 60.3753 51.7136 59.5663 50.4616 57.8377C49.9233 57.0946 49.6087 56.2647 49.4697 55.3638H45.3236C44.8867 58.1805 42.67 59.9123 40.263 60.0273C39.036 60.0858 37.9125 59.743 36.9175 59.0197C35.6727 58.1157 34.9641 56.8793 34.7321 55.3638H30.5881C30.5703 55.4317 30.5567 55.4683 30.5504 55.507C30.1481 58.0049 28.1132 59.8663 25.6069 60.0283C23.1288 60.1882 20.84 58.5536 20.1564 56.1309C20.0822 55.8697 20.0258 55.6031 19.96 55.3387C19.96 54.9207 19.96 54.5026 19.96 54.0845L19.961 54.0825ZM25.3122 50.6303C23.0536 50.623 21.2173 52.4468 21.2162 54.6991C21.2152 56.9305 23.039 58.7668 25.2704 58.7783C27.5153 58.7908 29.3663 56.9482 29.3663 54.7022C29.3663 52.4646 27.5467 50.6376 25.3122 50.6303ZM44.1029 54.7075C44.105 52.4698 42.2875 50.6387 40.054 50.6303C37.7944 50.6209 35.9559 52.4426 35.9528 54.6939C35.9497 56.9409 37.7954 58.7856 40.0404 58.7783C42.2707 58.771 44.0997 56.9378 44.1029 54.7075ZM54.7728 50.6303C52.532 50.6272 50.703 52.4395 50.6894 54.673C50.6769 56.9232 52.51 58.7741 54.7561 58.7783C56.9854 58.7835 58.8269 56.9566 58.8395 54.7284C58.852 52.4729 57.0261 50.6324 54.7728 50.6303Z" fill="#14BDCF"/>
<path d="M31.4124 26.467C32.698 25.889 33.9093 25.3508 35.1122 24.7927C35.2136 24.7456 35.3119 24.569 35.315 24.4509C35.3317 23.6023 35.3234 22.7525 35.3244 21.9039C35.3244 21.2444 35.4268 21.1138 36.0675 20.9727C38.7232 20.3884 41.379 20.3999 44.0326 20.9789C44.6001 21.1023 44.7287 21.2653 44.7297 21.8328C44.7318 22.786 44.7297 23.7381 44.7297 24.6202C46.0351 25.2504 47.2976 25.8598 48.6082 26.4921C49.2949 25.9465 50.0505 25.3445 50.8072 24.7446C51.2274 24.4112 51.4667 24.4133 51.8816 24.7509C54.0096 26.4837 55.6839 28.5792 56.8973 31.0406C57.1408 31.5339 57.0959 31.7534 56.6757 32.0899C56.0037 32.6292 55.3327 33.1706 54.6513 33.6984C54.4569 33.8499 54.4402 33.9806 54.4997 34.2251C54.7903 35.3999 55.0526 36.5819 55.2982 37.7671C55.3411 37.9762 55.4184 38.0493 55.6045 38.0901C56.4322 38.2709 57.2589 38.4611 58.0856 38.6482C58.7127 38.7903 58.8444 38.9482 58.835 39.5826C58.7953 42.3104 58.1985 44.9097 57.0363 47.3783C56.8043 47.8706 56.612 47.9594 56.0675 47.8351C55.2669 47.6521 54.4632 47.4776 53.6657 47.279C53.3658 47.2048 53.1672 47.232 53.0094 47.5403C52.8505 47.8518 52.63 48.1329 52.422 48.4172C52.1649 48.7684 51.8127 48.8384 51.5085 48.6168C51.2148 48.4026 51.1678 48.0639 51.3894 47.7159C51.7123 47.2101 52.0395 46.7073 52.3614 46.2015C52.5547 45.8984 52.815 45.8043 53.1672 45.8869C54.1057 46.1085 55.0474 46.3165 55.9818 46.5286C56.7217 45.542 57.6613 41.5307 57.5484 39.8146C56.6475 39.6076 55.7351 39.3986 54.8227 39.1906C54.2646 39.0631 54.1486 38.9565 54.1047 38.3827C53.9887 36.8882 53.6657 35.4427 53.1045 34.0537C52.9498 33.6723 53.0324 33.3838 53.3605 33.1288C54.1224 32.5362 54.8697 31.9269 55.6316 31.3175C54.5509 29.2293 53.1327 27.4453 51.3329 25.9277C50.6024 26.5099 49.8791 27.0857 49.1559 27.6627C48.6574 28.0609 48.5184 28.0682 47.9801 27.7013C46.796 26.8955 45.5198 26.2799 44.1496 25.8619C43.5759 25.6863 43.4766 25.5462 43.4766 24.9338C43.4766 24.0099 43.4766 23.0849 43.4766 22.1453C41.1731 21.6823 38.9082 21.6771 36.5786 22.1474C36.5786 22.2739 36.5786 22.4108 36.5786 22.5487C36.5786 23.3849 36.5702 24.221 36.5817 25.0571C36.588 25.4731 36.4051 25.7176 36.0121 25.8326C34.5594 26.2569 33.2143 26.9081 31.9768 27.7776C31.6225 28.0264 31.3163 28.0065 30.985 27.7348C30.2481 27.1317 29.4977 26.5443 28.7253 25.9298C26.9256 27.4359 25.5063 29.2272 24.4225 31.3175C25.1886 31.93 25.939 32.5372 26.6988 33.1319C27.0249 33.3869 27.1012 33.6806 26.9475 34.061C26.3842 35.45 26.0623 36.8955 25.9473 38.39C25.9034 38.9565 25.7853 39.0642 25.2231 39.1927C24.3211 39.3997 23.4191 39.6097 22.4806 39.8261C22.5464 42.1662 23.0512 44.3923 24.0149 46.5443C24.9785 46.3259 25.9202 46.1231 26.8556 45.8953C27.2642 45.796 27.5266 45.9266 27.7366 46.2767C28.0188 46.746 28.324 47.2017 28.625 47.6595C28.8811 48.0493 28.8518 48.4005 28.5351 48.6252C28.2216 48.8478 27.8715 48.7621 27.5997 48.3785C27.3802 48.0702 27.1618 47.7598 26.9705 47.4337C26.8577 47.2404 26.7427 47.2027 26.5305 47.2539C25.6683 47.463 24.8029 47.6532 23.9375 47.8486C23.4547 47.9573 23.2394 47.858 23.0272 47.4065C21.8462 44.9024 21.241 42.2644 21.216 39.4958C21.2107 38.9764 21.3518 38.7956 21.8608 38.6764C22.7116 38.4768 23.5634 38.2834 24.4172 38.0964C24.6127 38.0535 24.7088 37.9918 24.7559 37.7598C24.9983 36.5746 25.2628 35.3926 25.5554 34.2189C25.6171 33.9701 25.5847 33.8437 25.3945 33.6952C24.7036 33.158 24.0222 32.6083 23.3407 32.0606C22.9739 31.7659 22.9164 31.5234 23.1223 31.1043C24.3545 28.5918 26.0571 26.4534 28.2373 24.6976C28.5738 24.4269 28.8434 24.4269 29.1894 24.6997C29.968 25.3132 30.7414 25.9329 31.4103 26.466L31.4124 26.467Z" fill="#14BDCF"/>
<path d="M40.0271 29.583C45.6218 29.6248 50.1368 34.3635 49.7156 39.9289C49.401 44.0782 47.2 46.9314 43.3298 48.4824C43.2326 48.5211 43.1343 48.5587 43.034 48.5827C42.6776 48.6664 42.3578 48.4918 42.2543 48.1657C42.1571 47.8574 42.3034 47.5501 42.6358 47.4059C42.9702 47.2606 43.3193 47.1478 43.6486 46.9931C47.0118 45.4055 48.8774 41.9325 48.4113 38.1396C47.9828 34.6488 45.1431 31.69 41.5833 31.0232C36.1601 30.0073 31.1611 34.4053 31.5938 39.9018C31.8739 43.4511 33.7615 45.9103 37.0631 47.268C37.1833 47.3171 37.3097 47.3526 37.4278 47.407C37.755 47.5575 37.9023 47.8647 37.802 48.171C37.6943 48.4981 37.3735 48.6789 37.0192 48.5775C36.7318 48.495 36.4517 48.3831 36.1768 48.265C32.1592 46.5301 29.8557 42.4394 30.3971 38.01C30.8977 33.9162 34.1952 30.4996 38.358 29.7753C38.9088 29.6792 39.47 29.6468 40.0271 29.5841V29.583Z" fill="#14BDCF"/>
<path d="M24.3541 54.6922C24.3582 54.1749 24.7888 53.7578 25.3093 53.7672C25.8131 53.7756 26.2228 54.1874 26.229 54.6901C26.2353 55.2033 25.8047 55.6402 25.2926 55.6412C24.7815 55.6412 24.3488 55.2054 24.3541 54.6932V54.6922Z" fill="#14BDCF"/>
<path d="M39.0904 54.6891C39.0967 54.1718 39.5294 53.7568 40.0498 53.7673C40.5536 53.7777 40.9623 54.1916 40.9654 54.6933C40.9696 55.2054 40.5358 55.6423 40.0258 55.6402C39.5137 55.6391 39.0841 55.2012 39.0904 54.6881V54.6891Z" fill="#14BDCF"/>
<path d="M54.4493 55.0774C55.0879 54.4357 55.6826 53.8337 56.2836 53.2379C56.595 52.9296 56.9514 52.9004 57.22 53.1428C57.4771 53.3749 57.52 53.7501 57.2618 54.0166C56.4727 54.8307 55.6711 55.6324 54.8559 56.4204C54.5936 56.6744 54.2706 56.643 54.0104 56.3943C53.5307 55.9355 53.0582 55.4662 52.6015 54.9833C52.3402 54.7074 52.3559 54.35 52.5994 54.1054C52.8482 53.8546 53.2182 53.8535 53.5077 54.1274C53.8191 54.4221 54.1128 54.7346 54.4504 55.0764L54.4493 55.0774Z" fill="#14BDCF"/>
<circle cx="39.5" cy="143.5" r="38" fill="white" stroke="url(#paint1_linear_13_6284)" stroke-width="3"/>
<path d="M22.825 164.04C22.2778 163.764 22.0741 163.315 22.1287 162.715C22.1564 162.409 22.1338 162.099 22.1338 161.79C22.1338 160.845 22.3632 160.582 23.3146 160.457V158.074C23.2097 158.059 23.1243 158.046 23.0379 158.036C22.4959 157.973 22.1544 157.615 22.1369 157.064C22.1235 156.652 22.1328 156.241 22.1328 155.83C22.1328 154.789 22.4383 154.487 23.4946 154.487C24.4841 154.487 25.4746 154.487 26.4641 154.487H26.9218V154C26.9218 149.796 26.9218 145.592 26.9218 141.388C26.9218 140.446 27.2478 140.122 28.1962 140.121C28.9285 140.121 29.6619 140.119 30.3942 140.117C30.4189 140.117 30.4436 140.105 30.5279 140.083C30.5279 139.964 30.5279 139.828 30.5279 139.692C30.5279 138.677 30.5259 137.661 30.5279 136.646C30.5289 136.18 30.7285 135.936 31.0967 135.934C31.4598 135.932 31.6799 136.188 31.682 136.64C31.6871 137.782 31.684 138.925 31.684 140.094H40.0812V132.91H31.684C31.684 133.175 31.6902 133.441 31.683 133.705C31.6707 134.121 31.4413 134.376 31.0936 134.372C30.7429 134.367 30.5351 134.122 30.5289 133.692C30.5248 133.397 30.5248 133.1 30.5289 132.805C30.5382 132.109 30.9064 131.732 31.6017 131.726C32.5532 131.719 33.5046 131.724 34.456 131.724C34.5959 131.724 34.7368 131.724 34.9333 131.724V131.294C34.9333 129.468 34.9518 127.643 34.923 125.818C34.9137 125.223 35.0947 124.8 35.6317 124.54H43.3469C43.8849 124.799 44.0638 125.225 44.0546 125.817C44.0278 127.629 44.0453 129.442 44.0453 131.254C44.0453 131.393 44.0453 131.532 44.0453 131.723C44.2109 131.723 44.3467 131.723 44.4825 131.723C45.4462 131.723 46.411 131.718 47.3748 131.725C48.0701 131.73 48.4466 132.107 48.4476 132.802C48.4517 135.077 48.4496 137.352 48.4496 139.627C48.4496 139.777 48.4496 139.928 48.4496 140.118C49.2848 140.118 50.0789 140.118 50.8719 140.118C51.6948 140.118 52.0537 140.47 52.0548 141.282C52.0568 143.132 52.0548 144.983 52.0548 146.834C52.0548 146.885 52.0568 146.937 52.0548 146.988C52.0352 147.396 51.7966 147.653 51.45 147.64C51.1136 147.627 50.9017 147.386 50.9007 146.983C50.8966 145.491 50.8987 144.001 50.8987 142.51C50.8987 142.114 50.8987 141.718 50.8987 141.298H38.8994V154.449H50.8987C50.8987 154.308 50.8987 154.171 50.8987 154.035C50.8987 152.672 50.8976 151.31 50.8987 149.947C50.8987 149.45 51.0941 149.2 51.4716 149.2C51.8449 149.2 52.0537 149.461 52.0548 149.947C52.0568 151.438 52.0548 152.927 52.0548 154.481H52.4765C53.5174 154.481 54.5593 154.481 55.6002 154.481C56.4951 154.482 56.8438 154.827 56.8448 155.708C56.8448 156.055 56.8448 156.402 56.8448 156.749C56.8448 157.67 56.6113 157.939 55.6753 158.065V160.451C55.7607 160.461 55.8574 160.474 55.9541 160.485C56.4529 160.543 56.815 160.894 56.8355 161.397C56.8592 161.962 56.8489 162.528 56.8397 163.093C56.8325 163.561 56.5198 163.819 56.1536 164.031H22.825V164.04ZM28.1015 154.456H37.6857V141.299H35.2706C35.2706 141.455 35.2706 141.593 35.2706 141.732C35.2706 142.49 35.2768 143.249 35.2675 144.007C35.2614 144.562 34.996 144.856 34.4478 144.866C33.4192 144.885 32.3907 144.885 31.3621 144.866C30.7953 144.857 30.5351 144.559 30.532 143.978C30.5269 143.207 30.531 142.436 30.531 141.664C30.531 141.542 30.531 141.42 30.531 141.311H28.1026V154.456H28.1015ZM37.6939 158.041C37.5232 158.041 37.372 158.041 37.2218 158.041C36.1799 158.041 35.139 158.045 34.097 158.038C33.7278 158.035 33.4881 157.81 33.4758 157.492C33.4634 157.17 33.6897 156.929 34.0528 156.892C34.1927 156.878 34.3357 156.886 34.4766 156.886C41.3813 156.886 48.2851 156.886 55.1898 156.886H55.665V155.679H23.3146V156.886H23.7949C26.2378 156.886 28.6806 156.886 31.1235 156.886C31.6449 156.886 31.9185 157.085 31.9257 157.46C31.9329 157.834 31.6593 158.041 31.143 158.042C29.8696 158.043 28.5973 158.042 27.3239 158.043C27.1892 158.043 27.0545 158.054 26.9135 158.062V160.457H37.6939V158.042V158.041ZM23.3094 162.855H55.6589V161.665H23.3094V162.855ZM46.0551 132.897C46.0551 133.416 46.0582 133.902 46.0551 134.387C46.05 135.003 45.7785 135.273 45.1551 135.279C44.5894 135.284 44.0237 135.283 43.458 135.279C42.7709 135.275 42.5076 135.008 42.5045 134.318C42.5025 133.848 42.5045 133.379 42.5045 132.905H41.297V140.105H47.2637V132.897H46.0562H46.0551ZM42.8614 131.713V125.732H41.2661C41.2661 126.007 41.2661 126.251 41.2661 126.495C41.2661 126.739 41.2692 126.983 41.2661 127.227C41.2569 127.79 40.9689 128.086 40.4124 128.093C39.822 128.1 39.2306 128.097 38.6392 128.094C38.0004 128.091 37.7196 127.813 37.7155 127.182C37.7124 126.699 37.7155 126.215 37.7155 125.727H36.1192V131.713H42.8614ZM41.2836 160.467H52.0609V158.067H41.2836V160.467ZM31.7169 141.293V143.692H34.0826V141.293H31.7169ZM38.8912 160.466H40.0843V158.076H38.8912V160.466ZM25.7101 160.479V158.064H24.5304V160.479H25.7101ZM54.4575 160.478V158.079H53.2788V160.478H54.4575ZM40.0792 126.923V125.72H38.8953V126.923H40.0792ZM44.8815 132.914H43.6812V134.099H44.8815V132.914Z" fill="#14BDCF"/>
<path d="M47.2519 153.248C46.7376 153.248 46.2244 153.255 45.7101 153.246C45.2205 153.237 44.914 152.945 44.9027 152.454C44.8873 151.799 44.8873 151.143 44.9027 150.489C44.914 150.025 45.2195 149.712 45.6854 149.704C46.7387 149.688 47.7919 149.69 48.8452 149.702C49.3327 149.709 49.6403 150.014 49.6536 150.503C49.6711 151.157 49.6732 151.813 49.6526 152.467C49.6372 152.957 49.3255 153.238 48.8308 153.246C48.3042 153.254 47.7775 153.248 47.2509 153.247L47.2519 153.248ZM48.4811 152.076V150.877H46.0835V152.076H48.4811Z" fill="#14BDCF"/>
<path d="M53.3427 129.326C53.1679 129.578 53.0506 129.8 52.885 129.976C52.4458 130.44 51.9717 130.87 51.5376 131.338C51.1231 131.787 50.6294 131.791 50.2169 131.349C49.7726 130.873 49.3108 130.412 48.8356 129.966C48.3995 129.559 48.3943 129.08 48.8263 128.672C49.3087 128.216 49.7788 127.745 50.2354 127.263C50.6397 126.836 51.12 126.845 51.5294 127.28C51.9747 127.755 52.4561 128.196 52.9025 128.67C53.0671 128.845 53.1771 129.073 53.3448 129.326H53.3427ZM50.8793 130.195C51.1632 129.918 51.4821 129.608 51.7649 129.334C51.4625 129.027 51.1509 128.712 50.8762 128.432C50.5862 128.713 50.2735 129.015 49.9845 129.295C50.2735 129.586 50.5882 129.902 50.8793 130.195Z" fill="#14BDCF"/>
<path d="M23.2329 135.895C23.4129 135.628 23.5302 135.389 23.7061 135.206C24.3273 134.56 24.9846 133.949 25.5976 133.296C26.043 132.821 26.5768 132.823 27.0232 133.3C27.6352 133.954 28.2719 134.587 28.925 135.201C29.3961 135.644 29.3848 136.182 28.9075 136.626C28.2605 137.226 27.6341 137.852 27.0345 138.5C26.5799 138.989 26.0378 138.986 25.5842 138.495C24.9856 137.846 24.3304 137.25 23.7194 136.612C23.5363 136.421 23.415 136.17 23.2329 135.895ZM24.8827 135.882C25.3446 136.353 25.8619 136.882 26.3021 137.331C26.7629 136.876 27.2896 136.358 27.7401 135.914C27.2885 135.46 26.766 134.936 26.3042 134.472C25.8496 134.923 25.325 135.444 24.8827 135.883V135.882Z" fill="#14BDCF"/>
<path d="M34.1137 137.729C34.3061 137.729 34.4984 137.722 34.6907 137.73C35.0178 137.743 35.2184 137.911 35.2585 138.24C35.2966 138.555 35.097 138.84 34.771 138.864C34.3246 138.896 33.873 138.896 33.4277 138.865C33.1016 138.843 32.8938 138.555 32.9329 138.245C32.9741 137.921 33.1705 137.743 33.4986 137.73C33.7033 137.721 33.909 137.728 34.1137 137.728V137.729Z" fill="#14BDCF"/>
<circle cx="39.5" cy="247.5" r="38" fill="white" stroke="url(#paint2_linear_13_6284)" stroke-width="3"/>
<path d="M60.0405 245.359V251.223C60.0169 251.266 59.985 251.308 59.9706 251.354C59.6466 252.377 58.9255 252.916 57.8588 252.929C57.5378 252.933 57.2159 252.94 56.896 252.926C56.6933 252.917 56.6203 252.999 56.5462 253.186C56.1296 254.232 55.6986 255.274 55.2501 256.307C55.1627 256.51 55.1709 256.626 55.3293 256.769C55.5669 256.984 55.7902 257.216 56.0124 257.448C56.8846 258.36 56.9021 259.579 56.0216 260.481C54.8459 261.685 53.6557 262.874 52.4512 264.049C51.583 264.895 50.3579 264.876 49.4753 264.04C49.2325 263.81 48.9929 263.577 48.7686 263.33C48.6236 263.171 48.5074 263.163 48.3057 263.252C47.2843 263.696 46.2567 264.127 45.2208 264.534C45.0048 264.62 44.9143 264.698 44.9215 264.935C44.9359 265.371 44.9626 265.814 44.9009 266.243C44.7621 267.217 44.115 267.753 43.2211 268.041H37.3579C37.3136 268.017 37.2725 267.986 37.2252 267.972C36.2017 267.65 35.6616 266.928 35.6513 265.862C35.6482 265.541 35.64 265.219 35.6544 264.9C35.6637 264.697 35.5814 264.624 35.3942 264.55C34.348 264.133 33.3071 263.701 32.2743 263.253C32.0727 263.165 31.9564 263.172 31.8124 263.331C31.5882 263.578 31.3475 263.811 31.1057 264.041C30.2098 264.887 28.9826 264.89 28.1011 264.024C26.9099 262.855 25.729 261.674 24.5584 260.484C23.681 259.592 23.6944 258.349 24.5666 257.451C24.7816 257.23 24.9915 257.003 25.2219 256.799C25.405 256.637 25.4153 256.505 25.3134 256.274C24.8701 255.267 24.4484 254.249 24.0462 253.224C23.9618 253.009 23.8847 252.916 23.647 252.924C23.2109 252.938 22.7675 252.965 22.3386 252.903C21.3655 252.763 20.8275 252.118 20.5405 251.223C20.5405 249.268 20.5405 247.314 20.5405 245.359C20.5642 245.315 20.595 245.274 20.6094 245.227C20.9304 244.203 21.6546 243.661 22.7202 243.653C23.0412 243.651 23.3631 243.642 23.683 243.656C23.8857 243.665 23.9577 243.582 24.0328 243.396C24.4494 242.349 24.8804 241.308 25.3289 240.274C25.4163 240.071 25.4081 239.956 25.2497 239.812C25.0121 239.597 24.7909 239.362 24.5677 239.132C23.6954 238.231 23.682 236.99 24.5584 236.1C25.73 234.909 26.9099 233.727 28.1 232.557C28.9919 231.679 30.2263 231.694 31.1335 232.565C31.365 232.787 31.5974 233.01 31.8124 233.248C31.9554 233.407 32.0716 233.418 32.2743 233.328C33.2947 232.883 34.3223 232.453 35.3592 232.045C35.5752 231.959 35.6647 231.88 35.6585 231.644C35.6462 231.196 35.6153 230.738 35.6843 230.298C35.8324 229.345 36.4773 228.82 37.3589 228.541C39.3133 228.541 41.2677 228.541 43.2222 228.541C43.2664 228.565 43.3075 228.596 43.3549 228.61C44.3763 228.932 44.9174 229.657 44.9277 230.723C44.9307 231.044 44.939 231.366 44.9246 231.686C44.9153 231.89 45.0017 231.959 45.1879 232.033C46.234 232.45 47.2761 232.881 48.3088 233.329C48.5125 233.418 48.6267 233.405 48.7707 233.248C48.996 233.001 49.2356 232.769 49.4774 232.538C50.3558 231.703 51.5871 231.686 52.4543 232.531C53.667 233.716 54.8664 234.915 56.0494 236.128C56.8846 236.985 56.8764 238.197 56.0648 239.076C55.8303 239.332 55.5855 239.578 55.3293 239.812C55.1699 239.957 55.1637 240.073 55.2522 240.275C55.6976 241.295 56.1276 242.323 56.5359 243.36C56.6213 243.577 56.7015 243.665 56.9371 243.658C57.3732 243.644 57.8166 243.617 58.2455 243.678C59.2207 243.815 59.7556 244.464 60.0416 245.359H60.0405ZM40.2967 229.698C39.4738 229.698 38.6509 229.693 37.8279 229.7C37.1922 229.705 36.8199 230.075 36.8106 230.704C36.8024 231.231 36.8055 231.759 36.8096 232.285C36.8127 232.66 36.6388 232.889 36.2768 232.984C34.8757 233.346 33.5539 233.9 32.3052 234.63C31.9811 234.819 31.6993 234.779 31.437 234.509C31.078 234.141 30.7149 233.776 30.3456 233.419C29.8631 232.952 29.354 232.943 28.8859 233.408C27.7174 234.566 26.553 235.729 25.3957 236.9C24.9472 237.353 24.9565 237.868 25.404 238.332C25.7609 238.702 26.1261 239.064 26.4954 239.422C26.7762 239.694 26.8214 239.983 26.6219 240.322C25.8957 241.558 25.3484 242.869 24.9904 244.258C24.8927 244.635 24.6603 244.817 24.2683 244.812C23.7417 244.806 23.214 244.804 22.6873 244.812C22.0825 244.822 21.7039 245.197 21.7019 245.808C21.6947 247.466 21.6947 249.125 21.7019 250.783C21.705 251.388 22.0876 251.76 22.6986 251.77C23.2253 251.779 23.753 251.777 24.2797 251.771C24.6541 251.767 24.8866 251.933 24.9812 252.298C25.3443 253.699 25.8936 255.022 26.626 256.269C26.8153 256.591 26.7834 256.876 26.5159 257.139C26.1405 257.51 25.764 257.879 25.3988 258.259C24.9534 258.721 24.9483 259.233 25.4019 259.69C26.5602 260.86 27.7246 262.022 28.8942 263.181C29.3509 263.633 29.859 263.628 30.326 263.181C30.6881 262.834 31.0358 262.472 31.3927 262.12C31.7415 261.776 31.9359 261.74 32.3484 261.976C33.5796 262.684 34.8747 263.234 36.251 263.589C36.6491 263.692 36.8209 263.939 36.8127 264.345C36.8014 264.859 36.8034 265.374 36.8127 265.888C36.823 266.497 37.1943 266.878 37.8022 266.881C39.4604 266.889 41.1196 266.888 42.7778 266.881C43.3868 266.878 43.7602 266.498 43.7704 265.89C43.7797 265.376 43.7828 264.861 43.7704 264.347C43.7602 263.941 43.9288 263.69 44.3269 263.588C45.7156 263.231 47.0282 262.686 48.2625 261.958C48.602 261.757 48.89 261.801 49.1616 262.083C49.5195 262.452 49.8827 262.817 50.2519 263.174C50.7159 263.623 51.2302 263.634 51.6838 263.186C52.8544 262.029 54.0168 260.864 55.175 259.696C55.64 259.226 55.6297 258.719 55.1627 258.235C54.815 257.874 54.4622 257.517 54.098 257.172C53.7987 256.889 53.7606 256.596 53.9684 256.243C54.6885 255.019 55.2306 253.719 55.5844 252.343C55.6852 251.95 55.9187 251.762 56.3312 251.771C56.8579 251.783 57.3856 251.782 57.9123 251.771C58.4976 251.758 58.8771 251.384 58.8802 250.797C58.8895 249.125 58.8895 247.454 58.8802 245.782C58.8771 245.197 58.4924 244.826 57.9061 244.814C57.3918 244.805 56.8774 244.814 56.3631 244.811C55.8827 244.808 55.7058 244.683 55.5865 244.232C55.2265 242.871 54.6885 241.584 53.9859 240.365C53.739 239.937 53.7658 239.754 54.1063 239.409C54.4581 239.052 54.8191 238.703 55.1668 238.342C55.6297 237.86 55.6359 237.355 55.1668 236.881C54.0188 235.721 52.8637 234.566 51.7044 233.416C51.2302 232.946 50.72 232.951 50.2447 233.412C49.8662 233.779 49.4969 234.155 49.1256 234.529C48.8725 234.783 48.5948 234.817 48.2872 234.636C47.0302 233.894 45.6919 233.344 44.2806 232.976C43.9319 232.884 43.7704 232.657 43.7715 232.302C43.7735 231.813 43.7735 231.325 43.7715 230.836C43.7684 230.048 43.4279 229.702 42.6502 229.7C41.8664 229.698 41.0816 229.7 40.2977 229.7L40.2967 229.698Z" fill="#14BDCF"/>
<path d="M50.9203 242.782C50.6786 242.902 50.4975 242.99 50.3196 243.082C47.2727 244.654 44.2279 246.228 41.178 247.792C40.9558 247.907 40.8612 248.027 40.8612 248.288C40.8704 251.94 40.8674 255.592 40.8684 259.243C40.8684 259.342 40.8797 259.442 40.89 259.594C41.0391 259.526 41.1513 259.481 41.2593 259.425C44.3411 257.837 47.4198 256.245 50.5068 254.666C50.8082 254.511 50.9378 254.337 50.9296 253.986C50.9069 252.881 50.9193 251.774 50.9224 250.668C50.9234 250.191 51.1466 249.916 51.5097 249.927C51.8574 249.938 52.0745 250.211 52.0765 250.662C52.0806 251.82 52.0673 252.977 52.0796 254.134C52.0868 254.823 51.8039 255.296 51.1816 255.615C47.7994 257.347 44.4213 259.09 41.0484 260.84C40.5197 261.113 40.0362 261.101 39.5126 260.829C36.0934 259.057 32.6691 257.292 29.2416 255.534C28.7386 255.276 28.5 254.894 28.501 254.336C28.5041 250.375 28.5041 246.415 28.503 242.456C28.503 241.82 28.754 241.348 29.3352 241.052C30.3309 240.546 31.3164 240.019 32.3111 239.51C32.6691 239.327 32.9838 239.413 33.1453 239.71C33.313 240.019 33.1988 240.346 32.8316 240.541C32.129 240.915 31.4192 241.276 30.7126 241.643C30.6138 241.695 30.5192 241.754 30.3752 241.837C31.3195 242.324 32.2134 242.791 33.1155 243.244C33.1978 243.285 33.3449 243.26 33.4344 243.214C36.6314 241.57 39.8253 239.921 43.0203 238.271C43.0501 238.256 43.0738 238.226 43.1376 238.17C42.3887 237.783 41.646 237.437 40.9455 237.021C40.4868 236.749 40.1247 236.753 39.6515 237.014C38.3029 237.758 36.9204 238.44 35.5503 239.146C35.4361 239.204 35.324 239.274 35.2026 239.31C34.9053 239.4 34.6646 239.302 34.5186 239.031C34.3694 238.755 34.4404 238.502 34.6821 238.313C34.8117 238.213 34.9701 238.148 35.1183 238.071C36.6242 237.292 38.1353 236.525 39.633 235.732C40.0856 235.492 40.4868 235.489 40.9414 235.725C44.4388 237.542 47.9414 239.35 51.4501 241.148C51.8955 241.377 52.0878 241.695 52.0847 242.188C52.0745 244.001 52.0806 245.814 52.0806 247.627C52.0806 247.678 52.0827 247.73 52.0786 247.781C52.0518 248.169 51.8204 248.416 51.4892 248.412C51.1507 248.408 50.9285 248.168 50.9265 247.768C50.9203 246.47 50.9234 245.17 50.9234 243.872C50.9234 243.538 50.9234 243.205 50.9234 242.785L50.9203 242.782ZM36.7178 246.412C36.7178 246.615 36.7178 246.751 36.7178 246.887C36.7178 247.8 36.7229 248.713 36.7157 249.625C36.7106 250.318 36.3197 250.556 35.7077 250.244C34.8621 249.812 34.0248 249.361 33.1721 248.942C32.8007 248.76 32.6444 248.508 32.6505 248.094C32.667 246.95 32.6485 245.806 32.6619 244.661C32.6649 244.411 32.5991 244.272 32.3646 244.157C31.5684 243.768 30.7866 243.352 29.9987 242.947C29.902 242.898 29.7991 242.86 29.6778 242.808C29.6675 242.899 29.6582 242.948 29.6582 242.997C29.6582 246.725 29.6541 250.452 29.6685 254.18C29.6685 254.313 29.8074 254.504 29.9318 254.57C33.0641 256.198 36.2025 257.813 39.3409 259.429C39.4396 259.48 39.5435 259.52 39.67 259.577C39.6865 259.466 39.706 259.393 39.706 259.32C39.7081 255.618 39.7091 251.916 39.7019 248.214C39.7019 248.105 39.6474 247.938 39.5672 247.895C38.6434 247.399 37.7094 246.923 36.7168 246.41L36.7178 246.412ZM50.2013 241.841C50.0614 241.756 49.9688 241.694 49.8701 241.643C49.1171 241.254 48.359 240.876 47.6132 240.474C47.4065 240.362 47.2542 240.372 47.0495 240.479C44.2691 241.922 41.4845 243.354 38.701 244.79C38.2813 245.006 37.8627 245.224 37.4019 245.464C38.2885 245.92 39.1259 246.341 39.9498 246.784C40.1905 246.914 40.3767 246.919 40.6236 246.79C42.7282 245.692 44.841 244.608 46.9518 243.518C48.0206 242.967 49.0883 242.416 50.2013 241.842V241.841ZM46.0692 239.686C45.5816 239.433 45.1548 239.227 44.7443 238.992C44.5283 238.869 44.3596 238.88 44.1405 238.992C41.2027 240.518 38.2608 242.032 35.3188 243.55C35.073 243.677 34.8272 243.805 34.5144 243.967C34.9948 244.218 35.4186 244.422 35.8229 244.657C36.0512 244.791 36.2354 244.768 36.4596 244.652C38.4398 243.621 40.424 242.6 42.4072 241.575C43.6036 240.958 44.7988 240.34 46.0682 239.685L46.0692 239.686ZM35.5606 248.868C35.5606 247.852 35.5626 246.928 35.5565 246.004C35.5565 245.924 35.5184 245.805 35.4608 245.774C34.9362 245.489 34.4044 245.221 33.816 244.917C33.816 245.935 33.8139 246.869 33.8211 247.804C33.8211 247.877 33.8736 247.985 33.9333 248.018C34.4486 248.297 34.9712 248.563 35.5606 248.869V248.868Z" fill="#14BDCF"/>
<path d="M35.4342 254.543C35.4393 255.093 35.0217 255.386 34.6246 255.19C33.4859 254.626 32.3595 254.039 31.2363 253.443C30.939 253.286 30.868 252.952 31.0182 252.677C31.1704 252.399 31.4708 252.287 31.7784 252.442C32.9016 253.008 34.0208 253.582 35.1297 254.177C35.286 254.261 35.3755 254.471 35.4342 254.543Z" fill="#14BDCF"/>
<path d="M114.472 239.562C114.419 239.066 114.195 238.68 113.801 238.403C113.411 238.127 112.903 237.989 112.278 237.989C111.839 237.989 111.462 238.055 111.148 238.188C110.833 238.32 110.593 238.5 110.426 238.727C110.259 238.955 110.174 239.214 110.17 239.506C110.17 239.748 110.225 239.958 110.335 240.136C110.449 240.314 110.602 240.466 110.795 240.591C110.989 240.712 111.203 240.814 111.438 240.898C111.672 240.981 111.909 241.051 112.148 241.108L113.239 241.381C113.678 241.483 114.1 241.621 114.506 241.795C114.915 241.97 115.28 242.189 115.602 242.455C115.928 242.72 116.186 243.04 116.375 243.415C116.564 243.79 116.659 244.229 116.659 244.733C116.659 245.415 116.485 246.015 116.136 246.534C115.788 247.049 115.284 247.453 114.625 247.744C113.97 248.032 113.176 248.176 112.244 248.176C111.339 248.176 110.553 248.036 109.886 247.756C109.223 247.475 108.705 247.066 108.33 246.528C107.958 245.991 107.758 245.335 107.727 244.562H109.801C109.831 244.968 109.956 245.305 110.176 245.574C110.396 245.843 110.682 246.044 111.034 246.176C111.39 246.309 111.788 246.375 112.227 246.375C112.686 246.375 113.087 246.307 113.432 246.17C113.78 246.03 114.053 245.837 114.25 245.591C114.447 245.341 114.547 245.049 114.551 244.716C114.547 244.413 114.458 244.163 114.284 243.966C114.11 243.765 113.866 243.598 113.551 243.466C113.241 243.33 112.877 243.208 112.46 243.102L111.136 242.761C110.178 242.515 109.42 242.142 108.864 241.642C108.311 241.138 108.034 240.47 108.034 239.636C108.034 238.951 108.22 238.35 108.591 237.835C108.966 237.32 109.475 236.92 110.119 236.636C110.763 236.348 111.492 236.205 112.307 236.205C113.133 236.205 113.856 236.348 114.477 236.636C115.102 236.92 115.593 237.316 115.949 237.824C116.305 238.328 116.489 238.907 116.5 239.562H114.472ZM124.01 244.33V239.273H126.067V248H124.072V246.449H123.982C123.785 246.937 123.461 247.337 123.01 247.648C122.563 247.958 122.012 248.114 121.357 248.114C120.785 248.114 120.279 247.987 119.839 247.733C119.404 247.475 119.063 247.102 118.817 246.614C118.571 246.121 118.447 245.527 118.447 244.83V239.273H120.504V244.511C120.504 245.064 120.656 245.504 120.959 245.83C121.262 246.155 121.66 246.318 122.152 246.318C122.455 246.318 122.749 246.244 123.033 246.097C123.317 245.949 123.55 245.729 123.732 245.438C123.917 245.142 124.01 244.773 124.01 244.33ZM128.182 251.273V239.273H130.205V240.716H130.324C130.43 240.504 130.58 240.278 130.773 240.04C130.966 239.797 131.227 239.591 131.557 239.42C131.886 239.246 132.307 239.159 132.818 239.159C133.492 239.159 134.1 239.331 134.642 239.676C135.188 240.017 135.619 240.523 135.938 241.193C136.259 241.86 136.42 242.678 136.42 243.648C136.42 244.606 136.263 245.42 135.949 246.091C135.634 246.761 135.206 247.273 134.665 247.625C134.123 247.977 133.509 248.153 132.824 248.153C132.324 248.153 131.909 248.07 131.58 247.903C131.25 247.737 130.985 247.536 130.784 247.301C130.587 247.062 130.434 246.837 130.324 246.625H130.239V251.273H128.182ZM130.199 243.636C130.199 244.201 130.278 244.695 130.438 245.119C130.6 245.544 130.833 245.875 131.136 246.114C131.443 246.348 131.814 246.466 132.25 246.466C132.705 246.466 133.085 246.345 133.392 246.102C133.699 245.856 133.93 245.521 134.085 245.097C134.244 244.669 134.324 244.182 134.324 243.636C134.324 243.095 134.246 242.614 134.091 242.193C133.936 241.773 133.705 241.443 133.398 241.205C133.091 240.966 132.708 240.847 132.25 240.847C131.811 240.847 131.438 240.962 131.131 241.193C130.824 241.424 130.591 241.748 130.432 242.165C130.277 242.581 130.199 243.072 130.199 243.636ZM138.182 251.273V239.273H140.205V240.716H140.324C140.43 240.504 140.58 240.278 140.773 240.04C140.966 239.797 141.227 239.591 141.557 239.42C141.886 239.246 142.307 239.159 142.818 239.159C143.492 239.159 144.1 239.331 144.642 239.676C145.188 240.017 145.619 240.523 145.938 241.193C146.259 241.86 146.42 242.678 146.42 243.648C146.42 244.606 146.263 245.42 145.949 246.091C145.634 246.761 145.206 247.273 144.665 247.625C144.123 247.977 143.509 248.153 142.824 248.153C142.324 248.153 141.909 248.07 141.58 247.903C141.25 247.737 140.985 247.536 140.784 247.301C140.587 247.062 140.434 246.837 140.324 246.625H140.239V251.273H138.182ZM140.199 243.636C140.199 244.201 140.278 244.695 140.438 245.119C140.6 245.544 140.833 245.875 141.136 246.114C141.443 246.348 141.814 246.466 142.25 246.466C142.705 246.466 143.085 246.345 143.392 246.102C143.699 245.856 143.93 245.521 144.085 245.097C144.244 244.669 144.324 244.182 144.324 243.636C144.324 243.095 144.246 242.614 144.091 242.193C143.936 241.773 143.705 241.443 143.398 241.205C143.091 240.966 142.708 240.847 142.25 240.847C141.811 240.847 141.438 240.962 141.131 241.193C140.824 241.424 140.591 241.748 140.432 242.165C140.277 242.581 140.199 243.072 140.199 243.636ZM150.239 236.364V248H148.182V236.364H150.239ZM153.632 251.273C153.352 251.273 153.092 251.25 152.854 251.205C152.619 251.163 152.431 251.114 152.291 251.057L152.768 249.455C153.068 249.542 153.335 249.583 153.57 249.58C153.804 249.576 154.011 249.502 154.189 249.358C154.371 249.218 154.524 248.983 154.649 248.653L154.825 248.182L151.661 239.273H153.842L155.854 245.864H155.945L157.962 239.273H160.149L156.655 249.057C156.492 249.519 156.276 249.915 156.007 250.244C155.738 250.578 155.409 250.831 155.018 251.006C154.632 251.184 154.17 251.273 153.632 251.273ZM175.592 240.29H173.467C173.407 239.941 173.295 239.633 173.132 239.364C172.969 239.091 172.767 238.86 172.524 238.67C172.282 238.481 172.005 238.339 171.695 238.244C171.388 238.146 171.056 238.097 170.7 238.097C170.068 238.097 169.507 238.256 169.018 238.574C168.53 238.888 168.147 239.35 167.871 239.96C167.594 240.566 167.456 241.307 167.456 242.182C167.456 243.072 167.594 243.822 167.871 244.432C168.151 245.038 168.534 245.496 169.018 245.807C169.507 246.114 170.066 246.267 170.695 246.267C171.043 246.267 171.369 246.222 171.672 246.131C171.979 246.036 172.253 245.898 172.496 245.716C172.742 245.534 172.948 245.311 173.115 245.045C173.286 244.78 173.403 244.477 173.467 244.136L175.592 244.148C175.513 244.701 175.34 245.22 175.075 245.705C174.814 246.189 174.471 246.617 174.047 246.989C173.623 247.356 173.126 247.644 172.558 247.852C171.99 248.057 171.359 248.159 170.666 248.159C169.643 248.159 168.731 247.922 167.928 247.449C167.125 246.975 166.492 246.292 166.03 245.398C165.568 244.504 165.337 243.432 165.337 242.182C165.337 240.928 165.57 239.856 166.036 238.966C166.501 238.072 167.136 237.388 167.939 236.915C168.742 236.441 169.651 236.205 170.666 236.205C171.314 236.205 171.916 236.295 172.473 236.477C173.03 236.659 173.526 236.926 173.962 237.278C174.397 237.627 174.755 238.055 175.036 238.562C175.32 239.066 175.505 239.642 175.592 240.29ZM179.489 242.886V248H177.432V236.364H179.443V240.756H179.545C179.75 240.263 180.066 239.875 180.494 239.591C180.926 239.303 181.475 239.159 182.142 239.159C182.748 239.159 183.277 239.286 183.727 239.54C184.178 239.794 184.527 240.165 184.773 240.653C185.023 241.142 185.148 241.739 185.148 242.443V248H183.091V242.761C183.091 242.174 182.939 241.718 182.636 241.392C182.337 241.062 181.917 240.898 181.375 240.898C181.011 240.898 180.686 240.977 180.398 241.136C180.114 241.292 179.89 241.517 179.727 241.812C179.568 242.108 179.489 242.466 179.489 242.886ZM189.756 248.176C189.203 248.176 188.705 248.078 188.261 247.881C187.822 247.68 187.473 247.384 187.216 246.994C186.962 246.604 186.835 246.123 186.835 245.551C186.835 245.059 186.926 244.652 187.108 244.33C187.29 244.008 187.538 243.75 187.852 243.557C188.167 243.364 188.521 243.218 188.915 243.119C189.313 243.017 189.723 242.943 190.148 242.898C190.659 242.845 191.074 242.797 191.392 242.756C191.71 242.71 191.941 242.642 192.085 242.551C192.233 242.456 192.307 242.311 192.307 242.114V242.08C192.307 241.652 192.18 241.32 191.926 241.085C191.672 240.85 191.307 240.733 190.83 240.733C190.326 240.733 189.926 240.843 189.631 241.062C189.339 241.282 189.142 241.542 189.04 241.841L187.119 241.568C187.271 241.038 187.521 240.595 187.869 240.239C188.218 239.879 188.644 239.61 189.148 239.432C189.652 239.25 190.208 239.159 190.818 239.159C191.239 239.159 191.657 239.208 192.074 239.307C192.491 239.405 192.871 239.568 193.216 239.795C193.561 240.019 193.837 240.324 194.045 240.71C194.258 241.097 194.364 241.58 194.364 242.159V248H192.386V246.801H192.318C192.193 247.044 192.017 247.271 191.79 247.483C191.566 247.691 191.284 247.86 190.943 247.989C190.606 248.114 190.21 248.176 189.756 248.176ZM190.29 246.665C190.703 246.665 191.061 246.583 191.364 246.42C191.667 246.254 191.9 246.034 192.062 245.761C192.229 245.489 192.312 245.191 192.312 244.869V243.841C192.248 243.894 192.138 243.943 191.983 243.989C191.831 244.034 191.661 244.074 191.472 244.108C191.282 244.142 191.095 244.172 190.909 244.199C190.723 244.225 190.563 244.248 190.426 244.267C190.119 244.309 189.845 244.377 189.602 244.472C189.36 244.566 189.169 244.699 189.028 244.869C188.888 245.036 188.818 245.252 188.818 245.517C188.818 245.896 188.956 246.182 189.233 246.375C189.509 246.568 189.862 246.665 190.29 246.665ZM196.432 248V239.273H198.489V248H196.432ZM197.466 238.034C197.14 238.034 196.86 237.926 196.625 237.71C196.39 237.491 196.273 237.227 196.273 236.92C196.273 236.61 196.39 236.347 196.625 236.131C196.86 235.911 197.14 235.801 197.466 235.801C197.795 235.801 198.076 235.911 198.307 236.131C198.542 236.347 198.659 236.61 198.659 236.92C198.659 237.227 198.542 237.491 198.307 237.71C198.076 237.926 197.795 238.034 197.466 238.034ZM202.661 242.886V248H200.604V239.273H202.57V240.756H202.672C202.873 240.267 203.193 239.879 203.632 239.591C204.075 239.303 204.623 239.159 205.274 239.159C205.876 239.159 206.401 239.288 206.848 239.545C207.299 239.803 207.647 240.176 207.893 240.665C208.143 241.153 208.267 241.746 208.263 242.443V248H206.206V242.761C206.206 242.178 206.054 241.722 205.751 241.392C205.452 241.062 205.037 240.898 204.507 240.898C204.147 240.898 203.827 240.977 203.547 241.136C203.27 241.292 203.053 241.517 202.893 241.812C202.738 242.108 202.661 242.466 202.661 242.886ZM110.256 255.364V267H108.148V255.364H110.256ZM114.504 261.886V267H112.447V258.273H114.413V259.756H114.516C114.716 259.267 115.036 258.879 115.476 258.591C115.919 258.303 116.466 258.159 117.118 258.159C117.72 258.159 118.245 258.288 118.692 258.545C119.143 258.803 119.491 259.176 119.737 259.665C119.987 260.153 120.11 260.746 120.107 261.443V267H118.05V261.761C118.05 261.178 117.898 260.722 117.595 260.392C117.296 260.062 116.881 259.898 116.351 259.898C115.991 259.898 115.671 259.977 115.391 260.136C115.114 260.292 114.896 260.517 114.737 260.812C114.582 261.108 114.504 261.466 114.504 261.886ZM126.555 258.273V259.864H121.538V258.273H126.555ZM122.777 256.182H124.834V264.375C124.834 264.652 124.875 264.864 124.959 265.011C125.046 265.155 125.16 265.254 125.3 265.307C125.44 265.36 125.595 265.386 125.766 265.386C125.894 265.386 126.012 265.377 126.118 265.358C126.228 265.339 126.311 265.322 126.368 265.307L126.714 266.915C126.605 266.953 126.447 266.994 126.243 267.04C126.042 267.085 125.796 267.112 125.504 267.119C124.989 267.134 124.525 267.057 124.112 266.886C123.699 266.712 123.372 266.443 123.129 266.08C122.891 265.716 122.773 265.261 122.777 264.716V256.182ZM132.045 267.17C131.17 267.17 130.415 266.989 129.778 266.625C129.146 266.258 128.659 265.739 128.318 265.068C127.977 264.394 127.807 263.6 127.807 262.688C127.807 261.79 127.977 261.002 128.318 260.324C128.663 259.642 129.144 259.112 129.761 258.733C130.379 258.35 131.104 258.159 131.938 258.159C132.475 258.159 132.983 258.246 133.46 258.42C133.941 258.591 134.366 258.856 134.733 259.216C135.104 259.576 135.396 260.034 135.608 260.591C135.82 261.144 135.926 261.803 135.926 262.568V263.199H128.773V261.812H133.955C133.951 261.419 133.866 261.068 133.699 260.761C133.532 260.451 133.299 260.206 133 260.028C132.705 259.85 132.36 259.761 131.966 259.761C131.545 259.761 131.176 259.864 130.858 260.068C130.54 260.269 130.292 260.534 130.114 260.864C129.939 261.189 129.85 261.547 129.847 261.938V263.148C129.847 263.655 129.939 264.091 130.125 264.455C130.311 264.814 130.57 265.091 130.903 265.284C131.237 265.473 131.627 265.568 132.074 265.568C132.373 265.568 132.644 265.527 132.886 265.443C133.129 265.356 133.339 265.229 133.517 265.062C133.695 264.896 133.83 264.689 133.92 264.443L135.841 264.659C135.72 265.167 135.489 265.61 135.148 265.989C134.811 266.364 134.379 266.655 133.852 266.864C133.326 267.068 132.723 267.17 132.045 267.17ZM139.723 255.364V267H137.666V255.364H139.723ZM143.895 255.364V267H141.838V255.364H143.895ZM146.01 267V258.273H148.067V267H146.01ZM147.044 257.034C146.718 257.034 146.438 256.926 146.203 256.71C145.968 256.491 145.851 256.227 145.851 255.92C145.851 255.61 145.968 255.347 146.203 255.131C146.438 254.911 146.718 254.801 147.044 254.801C147.374 254.801 147.654 254.911 147.885 255.131C148.12 255.347 148.237 255.61 148.237 255.92C148.237 256.227 148.12 256.491 147.885 256.71C147.654 256.926 147.374 257.034 147.044 257.034ZM153.977 270.455C153.239 270.455 152.604 270.354 152.074 270.153C151.544 269.956 151.117 269.691 150.795 269.358C150.473 269.025 150.25 268.655 150.125 268.25L151.977 267.801C152.061 267.972 152.182 268.14 152.341 268.307C152.5 268.477 152.714 268.617 152.983 268.727C153.256 268.841 153.598 268.898 154.011 268.898C154.595 268.898 155.078 268.756 155.46 268.472C155.843 268.191 156.034 267.729 156.034 267.085V265.432H155.932C155.826 265.644 155.67 265.862 155.466 266.085C155.265 266.309 154.998 266.496 154.665 266.648C154.335 266.799 153.92 266.875 153.42 266.875C152.75 266.875 152.142 266.718 151.597 266.403C151.055 266.085 150.623 265.612 150.301 264.983C149.983 264.35 149.824 263.559 149.824 262.608C149.824 261.65 149.983 260.841 150.301 260.182C150.623 259.519 151.057 259.017 151.602 258.676C152.148 258.331 152.756 258.159 153.426 258.159C153.938 258.159 154.358 258.246 154.688 258.42C155.021 258.591 155.286 258.797 155.483 259.04C155.68 259.278 155.83 259.504 155.932 259.716H156.045V258.273H158.074V267.142C158.074 267.888 157.896 268.506 157.54 268.994C157.184 269.483 156.697 269.848 156.08 270.091C155.462 270.333 154.761 270.455 153.977 270.455ZM153.994 265.261C154.43 265.261 154.801 265.155 155.108 264.943C155.415 264.731 155.648 264.426 155.807 264.028C155.966 263.631 156.045 263.153 156.045 262.597C156.045 262.047 155.966 261.566 155.807 261.153C155.652 260.741 155.42 260.42 155.114 260.193C154.811 259.962 154.438 259.847 153.994 259.847C153.536 259.847 153.153 259.966 152.847 260.205C152.54 260.443 152.309 260.771 152.153 261.188C151.998 261.6 151.92 262.07 151.92 262.597C151.92 263.131 151.998 263.598 152.153 264C152.313 264.398 152.545 264.708 152.852 264.932C153.163 265.152 153.544 265.261 153.994 265.261ZM164.045 267.17C163.17 267.17 162.415 266.989 161.778 266.625C161.146 266.258 160.659 265.739 160.318 265.068C159.977 264.394 159.807 263.6 159.807 262.688C159.807 261.79 159.977 261.002 160.318 260.324C160.663 259.642 161.144 259.112 161.761 258.733C162.379 258.35 163.104 258.159 163.938 258.159C164.475 258.159 164.983 258.246 165.46 258.42C165.941 258.591 166.366 258.856 166.733 259.216C167.104 259.576 167.396 260.034 167.608 260.591C167.82 261.144 167.926 261.803 167.926 262.568V263.199H160.773V261.812H165.955C165.951 261.419 165.866 261.068 165.699 260.761C165.532 260.451 165.299 260.206 165 260.028C164.705 259.85 164.36 259.761 163.966 259.761C163.545 259.761 163.176 259.864 162.858 260.068C162.54 260.269 162.292 260.534 162.114 260.864C161.939 261.189 161.85 261.547 161.847 261.938V263.148C161.847 263.655 161.939 264.091 162.125 264.455C162.311 264.814 162.57 265.091 162.903 265.284C163.237 265.473 163.627 265.568 164.074 265.568C164.373 265.568 164.644 265.527 164.886 265.443C165.129 265.356 165.339 265.229 165.517 265.062C165.695 264.896 165.83 264.689 165.92 264.443L167.841 264.659C167.72 265.167 167.489 265.61 167.148 265.989C166.811 266.364 166.379 266.655 165.852 266.864C165.326 267.068 164.723 267.17 164.045 267.17ZM171.723 261.886V267H169.666V258.273H171.632V259.756H171.734C171.935 259.267 172.255 258.879 172.695 258.591C173.138 258.303 173.685 258.159 174.337 258.159C174.939 258.159 175.464 258.288 175.911 258.545C176.361 258.803 176.71 259.176 176.956 259.665C177.206 260.153 177.329 260.746 177.325 261.443V267H175.268V261.761C175.268 261.178 175.117 260.722 174.814 260.392C174.515 260.062 174.1 259.898 173.57 259.898C173.21 259.898 172.89 259.977 172.609 260.136C172.333 260.292 172.115 260.517 171.956 260.812C171.801 261.108 171.723 261.466 171.723 261.886ZM183.223 267.17C182.352 267.17 181.604 266.979 180.979 266.597C180.357 266.214 179.878 265.686 179.541 265.011C179.208 264.333 179.041 263.553 179.041 262.67C179.041 261.784 179.212 261.002 179.553 260.324C179.893 259.642 180.375 259.112 180.996 258.733C181.621 258.35 182.359 258.159 183.212 258.159C183.92 258.159 184.547 258.29 185.092 258.551C185.642 258.809 186.079 259.174 186.405 259.648C186.731 260.117 186.916 260.667 186.962 261.295H184.996C184.916 260.875 184.727 260.525 184.428 260.244C184.132 259.96 183.736 259.818 183.24 259.818C182.82 259.818 182.45 259.932 182.132 260.159C181.814 260.383 181.566 260.705 181.388 261.125C181.214 261.545 181.126 262.049 181.126 262.636C181.126 263.231 181.214 263.742 181.388 264.17C181.562 264.595 181.806 264.922 182.121 265.153C182.439 265.381 182.812 265.494 183.24 265.494C183.543 265.494 183.814 265.437 184.053 265.324C184.295 265.206 184.498 265.038 184.661 264.818C184.823 264.598 184.935 264.331 184.996 264.017H186.962C186.912 264.634 186.731 265.182 186.416 265.659C186.102 266.133 185.674 266.504 185.132 266.773C184.59 267.038 183.954 267.17 183.223 267.17ZM192.514 267.17C191.639 267.17 190.884 266.989 190.247 266.625C189.615 266.258 189.128 265.739 188.787 265.068C188.446 264.394 188.276 263.6 188.276 262.688C188.276 261.79 188.446 261.002 188.787 260.324C189.132 259.642 189.613 259.112 190.23 258.733C190.848 258.35 191.573 258.159 192.406 258.159C192.944 258.159 193.452 258.246 193.929 258.42C194.41 258.591 194.834 258.856 195.202 259.216C195.573 259.576 195.865 260.034 196.077 260.591C196.289 261.144 196.395 261.803 196.395 262.568V263.199H189.241V261.812H194.423C194.42 261.419 194.334 261.068 194.168 260.761C194.001 260.451 193.768 260.206 193.469 260.028C193.173 259.85 192.829 259.761 192.435 259.761C192.014 259.761 191.645 259.864 191.327 260.068C191.009 260.269 190.76 260.534 190.582 260.864C190.408 261.189 190.319 261.547 190.315 261.938V263.148C190.315 263.655 190.408 264.091 190.594 264.455C190.779 264.814 191.039 265.091 191.372 265.284C191.705 265.473 192.096 265.568 192.543 265.568C192.842 265.568 193.113 265.527 193.355 265.443C193.598 265.356 193.808 265.229 193.986 265.062C194.164 264.896 194.298 264.689 194.389 264.443L196.31 264.659C196.188 265.167 195.957 265.61 195.616 265.989C195.279 266.364 194.848 266.655 194.321 266.864C193.795 267.068 193.192 267.17 192.514 267.17Z" fill="black"/>
<path d="M108.148 36V24.3636H115.602V26.1307H110.256V29.2898H115.091V31.0568H110.256V36H108.148ZM120.598 36.1705C119.746 36.1705 119.007 35.983 118.382 35.608C117.757 35.233 117.272 34.7083 116.928 34.0341C116.587 33.3598 116.416 32.572 116.416 31.6705C116.416 30.7689 116.587 29.9792 116.928 29.3011C117.272 28.6231 117.757 28.0966 118.382 27.7216C119.007 27.3466 119.746 27.1591 120.598 27.1591C121.45 27.1591 122.189 27.3466 122.814 27.7216C123.439 28.0966 123.922 28.6231 124.263 29.3011C124.607 29.9792 124.78 30.7689 124.78 31.6705C124.78 32.572 124.607 33.3598 124.263 34.0341C123.922 34.7083 123.439 35.233 122.814 35.608C122.189 35.983 121.45 36.1705 120.598 36.1705ZM120.609 34.5227C121.071 34.5227 121.458 34.3958 121.768 34.142C122.079 33.8845 122.31 33.5398 122.462 33.108C122.617 32.6761 122.695 32.1951 122.695 31.6648C122.695 31.1307 122.617 30.6477 122.462 30.2159C122.31 29.7803 122.079 29.4337 121.768 29.1761C121.458 28.9186 121.071 28.7898 120.609 28.7898C120.136 28.7898 119.742 28.9186 119.428 29.1761C119.117 29.4337 118.884 29.7803 118.729 30.2159C118.577 30.6477 118.501 31.1307 118.501 31.6648C118.501 32.1951 118.577 32.6761 118.729 33.108C118.884 33.5398 119.117 33.8845 119.428 34.142C119.742 34.3958 120.136 34.5227 120.609 34.5227ZM126.526 36V27.2727H128.52V28.7273H128.611C128.77 28.2235 129.043 27.8352 129.429 27.5625C129.819 27.286 130.264 27.1477 130.764 27.1477C130.878 27.1477 131.005 27.1534 131.145 27.1648C131.289 27.1723 131.408 27.1856 131.503 27.2045V29.0966C131.416 29.0663 131.277 29.0398 131.088 29.017C130.902 28.9905 130.723 28.9773 130.548 28.9773C130.173 28.9773 129.836 29.0587 129.537 29.2216C129.241 29.3807 129.009 29.6023 128.838 29.8864C128.668 30.1705 128.582 30.4981 128.582 30.8693V36H126.526ZM136.374 36.1705C135.499 36.1705 134.743 35.9886 134.107 35.625C133.474 35.2576 132.987 34.7386 132.646 34.0682C132.305 33.3939 132.135 32.6004 132.135 31.6875C132.135 30.7898 132.305 30.0019 132.646 29.3239C132.991 28.642 133.472 28.1117 134.089 27.733C134.707 27.3504 135.432 27.1591 136.266 27.1591C136.804 27.1591 137.311 27.2462 137.788 27.4205C138.269 27.5909 138.694 27.8561 139.061 28.2159C139.432 28.5758 139.724 29.0341 139.936 29.5909C140.148 30.1439 140.254 30.803 140.254 31.5682V32.1989H133.101V30.8125H138.283C138.279 30.4186 138.194 30.0682 138.027 29.7614C137.86 29.4508 137.627 29.2064 137.328 29.0284C137.033 28.8504 136.688 28.7614 136.294 28.7614C135.874 28.7614 135.504 28.8636 135.186 29.0682C134.868 29.2689 134.62 29.5341 134.442 29.8636C134.268 30.1894 134.179 30.5473 134.175 30.9375V32.1477C134.175 32.6553 134.268 33.0909 134.453 33.4545C134.639 33.8144 134.898 34.0909 135.232 34.2841C135.565 34.4735 135.955 34.5682 136.402 34.5682C136.701 34.5682 136.972 34.5265 137.214 34.4432C137.457 34.3561 137.667 34.2292 137.845 34.0625C138.023 33.8958 138.158 33.6894 138.249 33.4432L140.169 33.6591C140.048 34.1667 139.817 34.6098 139.476 34.9886C139.139 35.3636 138.707 35.6553 138.18 35.8636C137.654 36.0682 137.052 36.1705 136.374 36.1705ZM145.801 36.1705C144.93 36.1705 144.182 35.9792 143.557 35.5966C142.936 35.214 142.456 34.6856 142.119 34.0114C141.786 33.3333 141.619 32.553 141.619 31.6705C141.619 30.7841 141.79 30.0019 142.131 29.3239C142.472 28.642 142.953 28.1117 143.574 27.733C144.199 27.3504 144.938 27.1591 145.79 27.1591C146.498 27.1591 147.125 27.2898 147.67 27.5511C148.22 27.8087 148.657 28.1742 148.983 28.6477C149.309 29.1174 149.494 29.6667 149.54 30.2955H147.574C147.494 29.875 147.305 29.5246 147.006 29.2443C146.71 28.9602 146.314 28.8182 145.818 28.8182C145.398 28.8182 145.028 28.9318 144.71 29.1591C144.392 29.3826 144.144 29.7045 143.966 30.125C143.792 30.5455 143.705 31.0492 143.705 31.6364C143.705 32.2311 143.792 32.7424 143.966 33.1705C144.14 33.5947 144.384 33.9223 144.699 34.1534C145.017 34.3807 145.39 34.4943 145.818 34.4943C146.121 34.4943 146.392 34.4375 146.631 34.3239C146.873 34.2064 147.076 34.0379 147.239 33.8182C147.402 33.5985 147.513 33.3314 147.574 33.017H149.54C149.491 33.6345 149.309 34.1818 148.994 34.6591C148.68 35.1326 148.252 35.5038 147.71 35.7727C147.169 36.0379 146.532 36.1705 145.801 36.1705ZM153.74 36.1761C153.187 36.1761 152.689 36.0777 152.246 35.8807C151.806 35.6799 151.458 35.3845 151.2 34.9943C150.946 34.6042 150.82 34.1231 150.82 33.5511C150.82 33.0587 150.911 32.6515 151.092 32.3295C151.274 32.0076 151.522 31.75 151.837 31.5568C152.151 31.3636 152.505 31.2178 152.899 31.1193C153.297 31.017 153.708 30.9432 154.132 30.8977C154.643 30.8447 155.058 30.7973 155.376 30.7557C155.695 30.7102 155.926 30.642 156.07 30.5511C156.217 30.4564 156.291 30.3106 156.291 30.1136V30.0795C156.291 29.6515 156.164 29.3201 155.911 29.0852C155.657 28.8504 155.291 28.733 154.814 28.733C154.31 28.733 153.911 28.8428 153.615 29.0625C153.323 29.2822 153.126 29.5417 153.024 29.8409L151.104 29.5682C151.255 29.0379 151.505 28.5947 151.854 28.2386C152.202 27.8788 152.628 27.6098 153.132 27.4318C153.636 27.25 154.193 27.1591 154.803 27.1591C155.223 27.1591 155.642 27.2083 156.058 27.3068C156.475 27.4053 156.856 27.5682 157.2 27.7955C157.545 28.0189 157.821 28.3239 158.03 28.7102C158.242 29.0966 158.348 29.5795 158.348 30.1591V36H156.371V34.8011H156.303C156.178 35.0436 156.001 35.2708 155.774 35.483C155.551 35.6913 155.268 35.8598 154.928 35.9886C154.59 36.1136 154.195 36.1761 153.74 36.1761ZM154.274 34.6648C154.687 34.6648 155.045 34.5833 155.348 34.4205C155.651 34.2538 155.884 34.0341 156.047 33.7614C156.214 33.4886 156.297 33.1913 156.297 32.8693V31.8409C156.232 31.8939 156.123 31.9432 155.967 31.9886C155.816 32.0341 155.645 32.0739 155.456 32.108C155.267 32.142 155.079 32.1723 154.893 32.1989C154.708 32.2254 154.547 32.2481 154.411 32.267C154.104 32.3087 153.829 32.3769 153.587 32.4716C153.344 32.5663 153.153 32.6989 153.013 32.8693C152.873 33.036 152.803 33.2519 152.803 33.517C152.803 33.8958 152.941 34.1818 153.217 34.375C153.494 34.5682 153.846 34.6648 154.274 34.6648ZM167.314 29.5795L165.439 29.7841C165.386 29.5947 165.293 29.4167 165.161 29.25C165.032 29.0833 164.857 28.9489 164.638 28.8466C164.418 28.7443 164.149 28.6932 163.831 28.6932C163.403 28.6932 163.043 28.786 162.751 28.9716C162.464 29.1572 162.321 29.3977 162.325 29.6932C162.321 29.947 162.414 30.1534 162.604 30.3125C162.797 30.4716 163.115 30.6023 163.558 30.7045L165.047 31.0227C165.873 31.2008 166.486 31.483 166.888 31.8693C167.293 32.2557 167.498 32.7614 167.501 33.3864C167.498 33.9356 167.337 34.4205 167.018 34.8409C166.704 35.2576 166.267 35.5833 165.706 35.8182C165.145 36.053 164.501 36.1705 163.774 36.1705C162.706 36.1705 161.846 35.947 161.195 35.5C160.543 35.0492 160.155 34.4223 160.03 33.6193L162.036 33.4261C162.126 33.8201 162.32 34.1174 162.615 34.3182C162.911 34.5189 163.295 34.6193 163.768 34.6193C164.257 34.6193 164.649 34.5189 164.945 34.3182C165.244 34.1174 165.393 33.8693 165.393 33.5739C165.393 33.3239 165.297 33.1174 165.104 32.9545C164.914 32.7917 164.619 32.6667 164.217 32.5795L162.729 32.267C161.892 32.0928 161.272 31.7992 160.871 31.3864C160.469 30.9697 160.27 30.4432 160.274 29.8068C160.27 29.2689 160.416 28.803 160.712 28.4091C161.011 28.0114 161.426 27.7045 161.956 27.4886C162.49 27.2689 163.106 27.1591 163.803 27.1591C164.825 27.1591 165.63 27.3769 166.217 27.8125C166.808 28.2481 167.174 28.8371 167.314 29.5795ZM173.555 27.2727V28.8636H168.538V27.2727H173.555ZM169.777 25.1818H171.834V33.375C171.834 33.6515 171.875 33.8636 171.959 34.0114C172.046 34.1553 172.16 34.2538 172.3 34.3068C172.44 34.3598 172.595 34.3864 172.766 34.3864C172.894 34.3864 173.012 34.3769 173.118 34.358C173.228 34.339 173.311 34.322 173.368 34.3068L173.714 35.9148C173.605 35.9527 173.447 35.9943 173.243 36.0398C173.042 36.0852 172.796 36.1117 172.504 36.1193C171.989 36.1345 171.525 36.0568 171.112 35.8864C170.699 35.7121 170.372 35.4432 170.129 35.0795C169.891 34.7159 169.773 34.2614 169.777 33.7159V25.1818ZM175.276 36V27.2727H177.332V36H175.276ZM176.31 26.0341C175.984 26.0341 175.704 25.9261 175.469 25.7102C175.234 25.4905 175.116 25.2273 175.116 24.9205C175.116 24.6098 175.234 24.3466 175.469 24.1307C175.704 23.911 175.984 23.8011 176.31 23.8011C176.639 23.8011 176.92 23.911 177.151 24.1307C177.385 24.3466 177.503 24.6098 177.503 24.9205C177.503 25.2273 177.385 25.4905 177.151 25.7102C176.92 25.9261 176.639 26.0341 176.31 26.0341ZM181.504 30.8864V36H179.447V27.2727H181.413V28.7557H181.516C181.716 28.267 182.036 27.8788 182.476 27.5909C182.919 27.303 183.466 27.1591 184.118 27.1591C184.72 27.1591 185.245 27.2879 185.692 27.5455C186.143 27.803 186.491 28.1761 186.737 28.6648C186.987 29.1534 187.11 29.7462 187.107 30.4432V36H185.05V30.7614C185.05 30.178 184.898 29.7216 184.595 29.392C184.296 29.0625 183.881 28.8977 183.351 28.8977C182.991 28.8977 182.671 28.9773 182.391 29.1364C182.114 29.2917 181.896 29.517 181.737 29.8125C181.582 30.108 181.504 30.4659 181.504 30.8864ZM192.993 39.4545C192.254 39.4545 191.62 39.3542 191.089 39.1534C190.559 38.9564 190.133 38.6913 189.811 38.358C189.489 38.0246 189.266 37.6553 189.141 37.25L190.993 36.8011C191.076 36.9716 191.197 37.1402 191.357 37.3068C191.516 37.4773 191.73 37.6174 191.999 37.7273C192.271 37.8409 192.614 37.8977 193.027 37.8977C193.61 37.8977 194.093 37.7557 194.476 37.4716C194.858 37.1913 195.05 36.7292 195.05 36.0852V34.4318H194.947C194.841 34.6439 194.686 34.8617 194.482 35.0852C194.281 35.3087 194.014 35.4962 193.68 35.6477C193.351 35.7992 192.936 35.875 192.436 35.875C191.766 35.875 191.158 35.7178 190.612 35.4034C190.071 35.0852 189.639 34.6117 189.317 33.983C188.999 33.3504 188.839 32.5587 188.839 31.608C188.839 30.6496 188.999 29.8409 189.317 29.1818C189.639 28.5189 190.072 28.017 190.618 27.6761C191.163 27.3314 191.771 27.1591 192.442 27.1591C192.953 27.1591 193.374 27.2462 193.703 27.4205C194.036 27.5909 194.302 27.7973 194.499 28.0398C194.696 28.2784 194.845 28.5038 194.947 28.7159H195.061V27.2727H197.089V36.142C197.089 36.8883 196.911 37.5057 196.555 37.9943C196.199 38.483 195.713 38.8485 195.095 39.0909C194.478 39.3333 193.777 39.4545 192.993 39.4545ZM193.01 34.2614C193.446 34.2614 193.817 34.1553 194.124 33.9432C194.43 33.7311 194.663 33.4261 194.822 33.0284C194.982 32.6307 195.061 32.1534 195.061 31.5966C195.061 31.0473 194.982 30.5663 194.822 30.1534C194.667 29.7405 194.436 29.4205 194.129 29.1932C193.826 28.9621 193.453 28.8466 193.01 28.8466C192.552 28.8466 192.169 28.9659 191.862 29.2045C191.555 29.4432 191.324 29.7708 191.169 30.1875C191.014 30.6004 190.936 31.0701 190.936 31.5966C190.936 32.1307 191.014 32.5985 191.169 33C191.328 33.3977 191.561 33.7083 191.868 33.9318C192.179 34.1515 192.559 34.2614 193.01 34.2614ZM111.534 55.1705C110.739 55.1705 110.055 55.0265 109.483 54.7386C108.911 54.4508 108.47 54.0625 108.159 53.5739C107.852 53.0814 107.699 52.5265 107.699 51.9091C107.699 51.4432 107.794 51.0303 107.983 50.6705C108.176 50.3106 108.441 49.9773 108.778 49.6705C109.119 49.3636 109.513 49.0587 109.96 48.7557L112.023 47.3523C112.326 47.1553 112.555 46.947 112.71 46.7273C112.869 46.5076 112.949 46.25 112.949 45.9545C112.949 45.7045 112.843 45.4678 112.631 45.2443C112.422 45.0208 112.134 44.9091 111.767 44.9091C111.521 44.9091 111.303 44.9678 111.114 45.0852C110.928 45.1989 110.782 45.3485 110.676 45.5341C110.574 45.7197 110.523 45.9167 110.523 46.125C110.523 46.3788 110.593 46.6364 110.733 46.8977C110.877 47.1591 111.063 47.4299 111.29 47.7102C111.521 47.9905 111.767 48.2879 112.028 48.6023L117.489 55H115.261L110.727 49.8068C110.39 49.4129 110.064 49.0246 109.75 48.642C109.439 48.2595 109.184 47.8617 108.983 47.4489C108.786 47.0322 108.688 46.5814 108.688 46.0966C108.688 45.5473 108.814 45.0568 109.068 44.625C109.322 44.1894 109.676 43.8466 110.131 43.5966C110.589 43.3466 111.125 43.2216 111.739 43.2216C112.352 43.2216 112.879 43.3428 113.318 43.5852C113.758 43.8277 114.097 44.1496 114.335 44.5511C114.574 44.9527 114.693 45.3902 114.693 45.8636C114.693 46.4129 114.557 46.9053 114.284 47.3409C114.011 47.7727 113.633 48.1648 113.148 48.517L110.795 50.2386C110.409 50.5189 110.133 50.803 109.966 51.0909C109.799 51.375 109.716 51.6174 109.716 51.8182C109.716 52.125 109.794 52.4034 109.949 52.6534C110.104 52.9034 110.322 53.1042 110.602 53.2557C110.886 53.4034 111.218 53.4773 111.597 53.4773C112.013 53.4773 112.424 53.3845 112.83 53.1989C113.235 53.0095 113.604 52.7405 113.938 52.392C114.271 52.0436 114.536 51.6269 114.733 51.142C114.93 50.6534 115.028 50.1117 115.028 49.517H116.795C116.795 50.2519 116.714 50.892 116.551 51.4375C116.388 51.9792 116.178 52.4375 115.92 52.8125C115.663 53.1837 115.39 53.4811 115.102 53.7045C115.011 53.7689 114.924 53.8333 114.841 53.8977C114.758 53.9621 114.67 54.0265 114.58 54.0909C114.17 54.4621 113.691 54.7348 113.142 54.9091C112.597 55.0833 112.061 55.1705 111.534 55.1705ZM122.726 55V43.3636H127.089C127.983 43.3636 128.733 43.5189 129.339 43.8295C129.949 44.1402 130.41 44.5758 130.72 45.1364C131.035 45.6932 131.192 46.3428 131.192 47.0852C131.192 47.8314 131.033 48.4792 130.714 49.0284C130.4 49.5739 129.936 49.9962 129.322 50.2955C128.709 50.5909 127.955 50.7386 127.061 50.7386H123.953V48.9886H126.777C127.3 48.9886 127.728 48.9167 128.061 48.7727C128.394 48.625 128.641 48.411 128.8 48.1307C128.963 47.8466 129.044 47.4981 129.044 47.0852C129.044 46.6723 128.963 46.3201 128.8 46.0284C128.637 45.733 128.389 45.5095 128.055 45.358C127.722 45.2027 127.292 45.125 126.766 45.125H124.834V55H122.726ZM128.737 49.7273L131.618 55H129.266L126.436 49.7273H128.737ZM136.78 55.1705C135.905 55.1705 135.149 54.9886 134.513 54.625C133.88 54.2576 133.393 53.7386 133.053 53.0682C132.712 52.3939 132.541 51.6004 132.541 50.6875C132.541 49.7898 132.712 49.0019 133.053 48.3239C133.397 47.642 133.878 47.1117 134.496 46.733C135.113 46.3504 135.839 46.1591 136.672 46.1591C137.21 46.1591 137.717 46.2462 138.195 46.4205C138.676 46.5909 139.1 46.8561 139.467 47.2159C139.839 47.5758 140.13 48.0341 140.342 48.5909C140.554 49.1439 140.661 49.803 140.661 50.5682V51.1989H133.507V49.8125H138.689C138.685 49.4186 138.6 49.0682 138.433 48.7614C138.267 48.4508 138.034 48.2064 137.734 48.0284C137.439 47.8504 137.094 47.7614 136.7 47.7614C136.28 47.7614 135.911 47.8636 135.592 48.0682C135.274 48.2689 135.026 48.5341 134.848 48.8636C134.674 49.1894 134.585 49.5473 134.581 49.9375V51.1477C134.581 51.6553 134.674 52.0909 134.859 52.4545C135.045 52.8144 135.304 53.0909 135.638 53.2841C135.971 53.4735 136.361 53.5682 136.808 53.5682C137.107 53.5682 137.378 53.5265 137.621 53.4432C137.863 53.3561 138.073 53.2292 138.251 53.0625C138.429 52.8958 138.564 52.6894 138.655 52.4432L140.575 52.6591C140.454 53.1667 140.223 53.6098 139.882 53.9886C139.545 54.3636 139.113 54.6553 138.587 54.8636C138.06 55.0682 137.458 55.1705 136.78 55.1705ZM142.401 58.2727V46.2727H144.423V47.7159H144.543C144.649 47.5038 144.798 47.2784 144.991 47.0398C145.185 46.7973 145.446 46.5909 145.776 46.4205C146.105 46.2462 146.526 46.1591 147.037 46.1591C147.711 46.1591 148.319 46.3314 148.861 46.6761C149.406 47.017 149.838 47.5227 150.156 48.1932C150.478 48.8598 150.639 49.678 150.639 50.6477C150.639 51.6061 150.482 52.4205 150.168 53.0909C149.853 53.7614 149.425 54.2727 148.884 54.625C148.342 54.9773 147.728 55.1534 147.043 55.1534C146.543 55.1534 146.128 55.0701 145.798 54.9034C145.469 54.7367 145.204 54.536 145.003 54.3011C144.806 54.0625 144.652 53.8371 144.543 53.625H144.457V58.2727H142.401ZM144.418 50.6364C144.418 51.2008 144.497 51.6951 144.656 52.1193C144.819 52.5436 145.052 52.875 145.355 53.1136C145.662 53.3485 146.033 53.4659 146.469 53.4659C146.923 53.4659 147.304 53.3447 147.611 53.1023C147.918 52.8561 148.149 52.5208 148.304 52.0966C148.463 51.6686 148.543 51.1818 148.543 50.6364C148.543 50.0947 148.465 49.6136 148.31 49.1932C148.154 48.7727 147.923 48.4432 147.616 48.2045C147.31 47.9659 146.927 47.8466 146.469 47.8466C146.029 47.8466 145.656 47.9621 145.349 48.1932C145.043 48.4242 144.81 48.7481 144.651 49.1648C144.495 49.5814 144.418 50.072 144.418 50.6364ZM154.457 43.3636V55H152.401V43.3636H154.457ZM160.436 55.1705C159.561 55.1705 158.805 54.9886 158.169 54.625C157.536 54.2576 157.05 53.7386 156.709 53.0682C156.368 52.3939 156.197 51.6004 156.197 50.6875C156.197 49.7898 156.368 49.0019 156.709 48.3239C157.054 47.642 157.535 47.1117 158.152 46.733C158.769 46.3504 159.495 46.1591 160.328 46.1591C160.866 46.1591 161.374 46.2462 161.851 46.4205C162.332 46.5909 162.756 46.8561 163.124 47.2159C163.495 47.5758 163.786 48.0341 163.999 48.5909C164.211 49.1439 164.317 49.803 164.317 50.5682V51.1989H157.163V49.8125H162.345C162.341 49.4186 162.256 49.0682 162.089 48.7614C161.923 48.4508 161.69 48.2064 161.391 48.0284C161.095 47.8504 160.75 47.7614 160.357 47.7614C159.936 47.7614 159.567 47.8636 159.249 48.0682C158.93 48.2689 158.682 48.5341 158.504 48.8636C158.33 49.1894 158.241 49.5473 158.237 49.9375V51.1477C158.237 51.6553 158.33 52.0909 158.516 52.4545C158.701 52.8144 158.961 53.0909 159.294 53.2841C159.627 53.4735 160.018 53.5682 160.464 53.5682C160.764 53.5682 161.035 53.5265 161.277 53.4432C161.519 53.3561 161.73 53.2292 161.908 53.0625C162.086 52.8958 162.22 52.6894 162.311 52.4432L164.232 52.6591C164.11 53.1667 163.879 53.6098 163.538 53.9886C163.201 54.3636 162.769 54.6553 162.243 54.8636C161.716 55.0682 161.114 55.1705 160.436 55.1705ZM168.114 49.8864V55H166.057V46.2727H168.023V47.7557H168.125C168.326 47.267 168.646 46.8788 169.085 46.5909C169.528 46.303 170.076 46.1591 170.727 46.1591C171.33 46.1591 171.854 46.2879 172.301 46.5455C172.752 46.803 173.1 47.1761 173.347 47.6648C173.597 48.1534 173.72 48.7462 173.716 49.4432V55H171.659V49.7614C171.659 49.178 171.508 48.7216 171.205 48.392C170.905 48.0625 170.491 47.8977 169.96 47.8977C169.6 47.8977 169.28 47.9773 169 48.1364C168.723 48.2917 168.506 48.517 168.347 48.8125C168.191 49.108 168.114 49.4659 168.114 49.8864ZM175.807 55V46.2727H177.864V55H175.807ZM176.841 45.0341C176.515 45.0341 176.235 44.9261 176 44.7102C175.765 44.4905 175.648 44.2273 175.648 43.9205C175.648 43.6098 175.765 43.3466 176 43.1307C176.235 42.911 176.515 42.8011 176.841 42.8011C177.17 42.8011 177.451 42.911 177.682 43.1307C177.917 43.3466 178.034 43.6098 178.034 43.9205C178.034 44.2273 177.917 44.4905 177.682 44.7102C177.451 44.9261 177.17 45.0341 176.841 45.0341ZM186.876 48.5795L185.001 48.7841C184.948 48.5947 184.856 48.4167 184.723 48.25C184.594 48.0833 184.42 47.9489 184.2 47.8466C183.981 47.7443 183.712 47.6932 183.393 47.6932C182.965 47.6932 182.606 47.786 182.314 47.9716C182.026 48.1572 181.884 48.3977 181.888 48.6932C181.884 48.947 181.977 49.1534 182.166 49.3125C182.359 49.4716 182.678 49.6023 183.121 49.7045L184.609 50.0227C185.435 50.2008 186.049 50.483 186.45 50.8693C186.856 51.2557 187.06 51.7614 187.064 52.3864C187.06 52.9356 186.899 53.4205 186.581 53.8409C186.267 54.2576 185.829 54.5833 185.268 54.8182C184.708 55.053 184.064 55.1705 183.337 55.1705C182.268 55.1705 181.409 54.947 180.757 54.5C180.106 54.0492 179.717 53.4223 179.592 52.6193L181.598 52.4261C181.689 52.8201 181.882 53.1174 182.178 53.3182C182.473 53.5189 182.857 53.6193 183.331 53.6193C183.82 53.6193 184.212 53.5189 184.507 53.3182C184.806 53.1174 184.956 52.8693 184.956 52.5739C184.956 52.3239 184.859 52.1174 184.666 51.9545C184.477 51.7917 184.181 51.6667 183.78 51.5795L182.291 51.267C181.454 51.0928 180.835 50.7992 180.433 50.3864C180.032 49.9697 179.833 49.4432 179.837 48.8068C179.833 48.2689 179.979 47.803 180.274 47.4091C180.573 47.0114 180.988 46.7045 181.518 46.4886C182.053 46.2689 182.668 46.1591 183.365 46.1591C184.388 46.1591 185.193 46.3769 185.78 46.8125C186.371 47.2481 186.736 47.8371 186.876 48.5795ZM190.817 49.8864V55H188.76V43.3636H190.771V47.7557H190.874C191.078 47.2633 191.394 46.875 191.822 46.5909C192.254 46.303 192.804 46.1591 193.47 46.1591C194.076 46.1591 194.605 46.286 195.055 46.5398C195.506 46.7936 195.855 47.1648 196.101 47.6534C196.351 48.142 196.476 48.7386 196.476 49.4432V55H194.419V49.7614C194.419 49.1742 194.268 48.7178 193.964 48.392C193.665 48.0625 193.245 47.8977 192.703 47.8977C192.339 47.8977 192.014 47.9773 191.726 48.1364C191.442 48.2917 191.218 48.517 191.055 48.8125C190.896 49.108 190.817 49.4659 190.817 49.8864ZM198.572 55V46.2727H200.538V47.7557H200.641C200.822 47.2557 201.124 46.8655 201.544 46.5852C201.964 46.3011 202.466 46.1591 203.05 46.1591C203.641 46.1591 204.139 46.303 204.544 46.5909C204.953 46.875 205.241 47.2633 205.408 47.7557H205.499C205.692 47.2708 206.018 46.8845 206.476 46.5966C206.938 46.3049 207.485 46.1591 208.118 46.1591C208.921 46.1591 209.576 46.4129 210.084 46.9205C210.591 47.428 210.845 48.1686 210.845 49.142V55H208.783V49.4602C208.783 48.9186 208.639 48.5227 208.351 48.2727C208.063 48.0189 207.711 47.892 207.294 47.892C206.798 47.892 206.41 48.0473 206.129 48.358C205.853 48.6648 205.714 49.0644 205.714 49.5568V55H203.697V49.375C203.697 48.9242 203.561 48.5644 203.288 48.2955C203.019 48.0265 202.667 47.892 202.232 47.892C201.936 47.892 201.667 47.9678 201.425 48.1193C201.182 48.267 200.989 48.4773 200.845 48.75C200.701 49.0189 200.629 49.3333 200.629 49.6932V55H198.572ZM216.795 55.1705C215.92 55.1705 215.165 54.9886 214.528 54.625C213.896 54.2576 213.409 53.7386 213.068 53.0682C212.727 52.3939 212.557 51.6004 212.557 50.6875C212.557 49.7898 212.727 49.0019 213.068 48.3239C213.413 47.642 213.894 47.1117 214.511 46.733C215.129 46.3504 215.854 46.1591 216.688 46.1591C217.225 46.1591 217.733 46.2462 218.21 46.4205C218.691 46.5909 219.116 46.8561 219.483 47.2159C219.854 47.5758 220.146 48.0341 220.358 48.5909C220.57 49.1439 220.676 49.803 220.676 50.5682V51.1989H213.523V49.8125H218.705C218.701 49.4186 218.616 49.0682 218.449 48.7614C218.282 48.4508 218.049 48.2064 217.75 48.0284C217.455 47.8504 217.11 47.7614 216.716 47.7614C216.295 47.7614 215.926 47.8636 215.608 48.0682C215.29 48.2689 215.042 48.5341 214.864 48.8636C214.689 49.1894 214.6 49.5473 214.597 49.9375V51.1477C214.597 51.6553 214.689 52.0909 214.875 52.4545C215.061 52.8144 215.32 53.0909 215.653 53.2841C215.987 53.4735 216.377 53.5682 216.824 53.5682C217.123 53.5682 217.394 53.5265 217.636 53.4432C217.879 53.3561 218.089 53.2292 218.267 53.0625C218.445 52.8958 218.58 52.6894 218.67 52.4432L220.591 52.6591C220.47 53.1667 220.239 53.6098 219.898 53.9886C219.561 54.3636 219.129 54.6553 218.602 54.8636C218.076 55.0682 217.473 55.1705 216.795 55.1705ZM224.473 49.8864V55H222.416V46.2727H224.382V47.7557H224.484C224.685 47.267 225.005 46.8788 225.445 46.5909C225.888 46.303 226.435 46.1591 227.087 46.1591C227.689 46.1591 228.214 46.2879 228.661 46.5455C229.111 46.803 229.46 47.1761 229.706 47.6648C229.956 48.1534 230.079 48.7462 230.075 49.4432V55H228.018V49.7614C228.018 49.178 227.867 48.7216 227.564 48.392C227.265 48.0625 226.85 47.8977 226.32 47.8977C225.96 47.8977 225.64 47.9773 225.359 48.1364C225.083 48.2917 224.865 48.517 224.706 48.8125C224.551 49.108 224.473 49.4659 224.473 49.8864ZM236.524 46.2727V47.8636H231.507V46.2727H236.524ZM232.746 44.1818H234.803V52.375C234.803 52.6515 234.844 52.8636 234.928 53.0114C235.015 53.1553 235.128 53.2538 235.268 53.3068C235.409 53.3598 235.564 53.3864 235.734 53.3864C235.863 53.3864 235.981 53.3769 236.087 53.358C236.196 53.339 236.28 53.322 236.337 53.3068L236.683 54.9148C236.573 54.9527 236.416 54.9943 236.212 55.0398C236.011 55.0852 235.765 55.1117 235.473 55.1193C234.958 55.1345 234.494 55.0568 234.081 54.8864C233.668 54.7121 233.34 54.4432 233.098 54.0795C232.859 53.7159 232.742 53.2614 232.746 52.7159V44.1818Z" fill="black"/>
<path d="M114.472 135.562C114.419 135.066 114.195 134.68 113.801 134.403C113.411 134.127 112.903 133.989 112.278 133.989C111.839 133.989 111.462 134.055 111.148 134.188C110.833 134.32 110.593 134.5 110.426 134.727C110.259 134.955 110.174 135.214 110.17 135.506C110.17 135.748 110.225 135.958 110.335 136.136C110.449 136.314 110.602 136.466 110.795 136.591C110.989 136.712 111.203 136.814 111.438 136.898C111.672 136.981 111.909 137.051 112.148 137.108L113.239 137.381C113.678 137.483 114.1 137.621 114.506 137.795C114.915 137.97 115.28 138.189 115.602 138.455C115.928 138.72 116.186 139.04 116.375 139.415C116.564 139.79 116.659 140.229 116.659 140.733C116.659 141.415 116.485 142.015 116.136 142.534C115.788 143.049 115.284 143.453 114.625 143.744C113.97 144.032 113.176 144.176 112.244 144.176C111.339 144.176 110.553 144.036 109.886 143.756C109.223 143.475 108.705 143.066 108.33 142.528C107.958 141.991 107.758 141.335 107.727 140.562H109.801C109.831 140.968 109.956 141.305 110.176 141.574C110.396 141.843 110.682 142.044 111.034 142.176C111.39 142.309 111.788 142.375 112.227 142.375C112.686 142.375 113.087 142.307 113.432 142.17C113.78 142.03 114.053 141.837 114.25 141.591C114.447 141.341 114.547 141.049 114.551 140.716C114.547 140.413 114.458 140.163 114.284 139.966C114.11 139.765 113.866 139.598 113.551 139.466C113.241 139.33 112.877 139.208 112.46 139.102L111.136 138.761C110.178 138.515 109.42 138.142 108.864 137.642C108.311 137.138 108.034 136.47 108.034 135.636C108.034 134.951 108.22 134.35 108.591 133.835C108.966 133.32 109.475 132.92 110.119 132.636C110.763 132.348 111.492 132.205 112.307 132.205C113.133 132.205 113.856 132.348 114.477 132.636C115.102 132.92 115.593 133.316 115.949 133.824C116.305 134.328 116.489 134.907 116.5 135.562H114.472ZM124.01 140.33V135.273H126.067V144H124.072V142.449H123.982C123.785 142.937 123.461 143.337 123.01 143.648C122.563 143.958 122.012 144.114 121.357 144.114C120.785 144.114 120.279 143.987 119.839 143.733C119.404 143.475 119.063 143.102 118.817 142.614C118.571 142.121 118.447 141.527 118.447 140.83V135.273H120.504V140.511C120.504 141.064 120.656 141.504 120.959 141.83C121.262 142.155 121.66 142.318 122.152 142.318C122.455 142.318 122.749 142.244 123.033 142.097C123.317 141.949 123.55 141.729 123.732 141.438C123.917 141.142 124.01 140.773 124.01 140.33ZM128.182 147.273V135.273H130.205V136.716H130.324C130.43 136.504 130.58 136.278 130.773 136.04C130.966 135.797 131.227 135.591 131.557 135.42C131.886 135.246 132.307 135.159 132.818 135.159C133.492 135.159 134.1 135.331 134.642 135.676C135.188 136.017 135.619 136.523 135.938 137.193C136.259 137.86 136.42 138.678 136.42 139.648C136.42 140.606 136.263 141.42 135.949 142.091C135.634 142.761 135.206 143.273 134.665 143.625C134.123 143.977 133.509 144.153 132.824 144.153C132.324 144.153 131.909 144.07 131.58 143.903C131.25 143.737 130.985 143.536 130.784 143.301C130.587 143.062 130.434 142.837 130.324 142.625H130.239V147.273H128.182ZM130.199 139.636C130.199 140.201 130.278 140.695 130.438 141.119C130.6 141.544 130.833 141.875 131.136 142.114C131.443 142.348 131.814 142.466 132.25 142.466C132.705 142.466 133.085 142.345 133.392 142.102C133.699 141.856 133.93 141.521 134.085 141.097C134.244 140.669 134.324 140.182 134.324 139.636C134.324 139.095 134.246 138.614 134.091 138.193C133.936 137.773 133.705 137.443 133.398 137.205C133.091 136.966 132.708 136.847 132.25 136.847C131.811 136.847 131.438 136.962 131.131 137.193C130.824 137.424 130.591 137.748 130.432 138.165C130.277 138.581 130.199 139.072 130.199 139.636ZM138.182 147.273V135.273H140.205V136.716H140.324C140.43 136.504 140.58 136.278 140.773 136.04C140.966 135.797 141.227 135.591 141.557 135.42C141.886 135.246 142.307 135.159 142.818 135.159C143.492 135.159 144.1 135.331 144.642 135.676C145.188 136.017 145.619 136.523 145.938 137.193C146.259 137.86 146.42 138.678 146.42 139.648C146.42 140.606 146.263 141.42 145.949 142.091C145.634 142.761 145.206 143.273 144.665 143.625C144.123 143.977 143.509 144.153 142.824 144.153C142.324 144.153 141.909 144.07 141.58 143.903C141.25 143.737 140.985 143.536 140.784 143.301C140.587 143.062 140.434 142.837 140.324 142.625H140.239V147.273H138.182ZM140.199 139.636C140.199 140.201 140.278 140.695 140.438 141.119C140.6 141.544 140.833 141.875 141.136 142.114C141.443 142.348 141.814 142.466 142.25 142.466C142.705 142.466 143.085 142.345 143.392 142.102C143.699 141.856 143.93 141.521 144.085 141.097C144.244 140.669 144.324 140.182 144.324 139.636C144.324 139.095 144.246 138.614 144.091 138.193C143.936 137.773 143.705 137.443 143.398 137.205C143.091 136.966 142.708 136.847 142.25 136.847C141.811 136.847 141.438 136.962 141.131 137.193C140.824 137.424 140.591 137.748 140.432 138.165C140.277 138.581 140.199 139.072 140.199 139.636ZM150.239 132.364V144H148.182V132.364H150.239ZM153.632 147.273C153.352 147.273 153.092 147.25 152.854 147.205C152.619 147.163 152.431 147.114 152.291 147.057L152.768 145.455C153.068 145.542 153.335 145.583 153.57 145.58C153.804 145.576 154.011 145.502 154.189 145.358C154.371 145.218 154.524 144.983 154.649 144.653L154.825 144.182L151.661 135.273H153.842L155.854 141.864H155.945L157.962 135.273H160.149L156.655 145.057C156.492 145.519 156.276 145.915 156.007 146.244C155.738 146.578 155.409 146.831 155.018 147.006C154.632 147.184 154.17 147.273 153.632 147.273ZM175.592 136.29H173.467C173.407 135.941 173.295 135.633 173.132 135.364C172.969 135.091 172.767 134.86 172.524 134.67C172.282 134.481 172.005 134.339 171.695 134.244C171.388 134.146 171.056 134.097 170.7 134.097C170.068 134.097 169.507 134.256 169.018 134.574C168.53 134.888 168.147 135.35 167.871 135.96C167.594 136.566 167.456 137.307 167.456 138.182C167.456 139.072 167.594 139.822 167.871 140.432C168.151 141.038 168.534 141.496 169.018 141.807C169.507 142.114 170.066 142.267 170.695 142.267C171.043 142.267 171.369 142.222 171.672 142.131C171.979 142.036 172.253 141.898 172.496 141.716C172.742 141.534 172.948 141.311 173.115 141.045C173.286 140.78 173.403 140.477 173.467 140.136L175.592 140.148C175.513 140.701 175.34 141.22 175.075 141.705C174.814 142.189 174.471 142.617 174.047 142.989C173.623 143.356 173.126 143.644 172.558 143.852C171.99 144.057 171.359 144.159 170.666 144.159C169.643 144.159 168.731 143.922 167.928 143.449C167.125 142.975 166.492 142.292 166.03 141.398C165.568 140.504 165.337 139.432 165.337 138.182C165.337 136.928 165.57 135.856 166.036 134.966C166.501 134.072 167.136 133.388 167.939 132.915C168.742 132.441 169.651 132.205 170.666 132.205C171.314 132.205 171.916 132.295 172.473 132.477C173.03 132.659 173.526 132.926 173.962 133.278C174.397 133.627 174.755 134.055 175.036 134.562C175.32 135.066 175.505 135.642 175.592 136.29ZM179.489 138.886V144H177.432V132.364H179.443V136.756H179.545C179.75 136.263 180.066 135.875 180.494 135.591C180.926 135.303 181.475 135.159 182.142 135.159C182.748 135.159 183.277 135.286 183.727 135.54C184.178 135.794 184.527 136.165 184.773 136.653C185.023 137.142 185.148 137.739 185.148 138.443V144H183.091V138.761C183.091 138.174 182.939 137.718 182.636 137.392C182.337 137.062 181.917 136.898 181.375 136.898C181.011 136.898 180.686 136.977 180.398 137.136C180.114 137.292 179.89 137.517 179.727 137.812C179.568 138.108 179.489 138.466 179.489 138.886ZM189.756 144.176C189.203 144.176 188.705 144.078 188.261 143.881C187.822 143.68 187.473 143.384 187.216 142.994C186.962 142.604 186.835 142.123 186.835 141.551C186.835 141.059 186.926 140.652 187.108 140.33C187.29 140.008 187.538 139.75 187.852 139.557C188.167 139.364 188.521 139.218 188.915 139.119C189.313 139.017 189.723 138.943 190.148 138.898C190.659 138.845 191.074 138.797 191.392 138.756C191.71 138.71 191.941 138.642 192.085 138.551C192.233 138.456 192.307 138.311 192.307 138.114V138.08C192.307 137.652 192.18 137.32 191.926 137.085C191.672 136.85 191.307 136.733 190.83 136.733C190.326 136.733 189.926 136.843 189.631 137.062C189.339 137.282 189.142 137.542 189.04 137.841L187.119 137.568C187.271 137.038 187.521 136.595 187.869 136.239C188.218 135.879 188.644 135.61 189.148 135.432C189.652 135.25 190.208 135.159 190.818 135.159C191.239 135.159 191.657 135.208 192.074 135.307C192.491 135.405 192.871 135.568 193.216 135.795C193.561 136.019 193.837 136.324 194.045 136.71C194.258 137.097 194.364 137.58 194.364 138.159V144H192.386V142.801H192.318C192.193 143.044 192.017 143.271 191.79 143.483C191.566 143.691 191.284 143.86 190.943 143.989C190.606 144.114 190.21 144.176 189.756 144.176ZM190.29 142.665C190.703 142.665 191.061 142.583 191.364 142.42C191.667 142.254 191.9 142.034 192.062 141.761C192.229 141.489 192.312 141.191 192.312 140.869V139.841C192.248 139.894 192.138 139.943 191.983 139.989C191.831 140.034 191.661 140.074 191.472 140.108C191.282 140.142 191.095 140.172 190.909 140.199C190.723 140.225 190.563 140.248 190.426 140.267C190.119 140.309 189.845 140.377 189.602 140.472C189.36 140.566 189.169 140.699 189.028 140.869C188.888 141.036 188.818 141.252 188.818 141.517C188.818 141.896 188.956 142.182 189.233 142.375C189.509 142.568 189.862 142.665 190.29 142.665ZM196.432 144V135.273H198.489V144H196.432ZM197.466 134.034C197.14 134.034 196.86 133.926 196.625 133.71C196.39 133.491 196.273 133.227 196.273 132.92C196.273 132.61 196.39 132.347 196.625 132.131C196.86 131.911 197.14 131.801 197.466 131.801C197.795 131.801 198.076 131.911 198.307 132.131C198.542 132.347 198.659 132.61 198.659 132.92C198.659 133.227 198.542 133.491 198.307 133.71C198.076 133.926 197.795 134.034 197.466 134.034ZM202.661 138.886V144H200.604V135.273H202.57V136.756H202.672C202.873 136.267 203.193 135.879 203.632 135.591C204.075 135.303 204.623 135.159 205.274 135.159C205.876 135.159 206.401 135.288 206.848 135.545C207.299 135.803 207.647 136.176 207.893 136.665C208.143 137.153 208.267 137.746 208.263 138.443V144H206.206V138.761C206.206 138.178 206.054 137.722 205.751 137.392C205.452 137.062 205.037 136.898 204.507 136.898C204.147 136.898 203.827 136.977 203.547 137.136C203.27 137.292 203.053 137.517 202.893 137.812C202.738 138.108 202.661 138.466 202.661 138.886ZM108.148 151.364H110.727L114.182 159.795H114.318L117.773 151.364H120.352V163H118.33V155.006H118.222L115.006 162.966H113.494L110.278 154.989H110.17V163H108.148V151.364ZM125.068 163.176C124.515 163.176 124.017 163.078 123.574 162.881C123.134 162.68 122.786 162.384 122.528 161.994C122.275 161.604 122.148 161.123 122.148 160.551C122.148 160.059 122.239 159.652 122.42 159.33C122.602 159.008 122.85 158.75 123.165 158.557C123.479 158.364 123.833 158.218 124.227 158.119C124.625 158.017 125.036 157.943 125.46 157.898C125.972 157.845 126.386 157.797 126.705 157.756C127.023 157.71 127.254 157.642 127.398 157.551C127.545 157.456 127.619 157.311 127.619 157.114V157.08C127.619 156.652 127.492 156.32 127.239 156.085C126.985 155.85 126.619 155.733 126.142 155.733C125.638 155.733 125.239 155.843 124.943 156.062C124.652 156.282 124.455 156.542 124.352 156.841L122.432 156.568C122.583 156.038 122.833 155.595 123.182 155.239C123.53 154.879 123.956 154.61 124.46 154.432C124.964 154.25 125.521 154.159 126.131 154.159C126.551 154.159 126.97 154.208 127.386 154.307C127.803 154.405 128.184 154.568 128.528 154.795C128.873 155.019 129.15 155.324 129.358 155.71C129.57 156.097 129.676 156.58 129.676 157.159V163H127.699V161.801H127.631C127.506 162.044 127.33 162.271 127.102 162.483C126.879 162.691 126.597 162.86 126.256 162.989C125.919 163.114 125.523 163.176 125.068 163.176ZM125.602 161.665C126.015 161.665 126.373 161.583 126.676 161.42C126.979 161.254 127.212 161.034 127.375 160.761C127.542 160.489 127.625 160.191 127.625 159.869V158.841C127.561 158.894 127.451 158.943 127.295 158.989C127.144 159.034 126.973 159.074 126.784 159.108C126.595 159.142 126.407 159.172 126.222 159.199C126.036 159.225 125.875 159.248 125.739 159.267C125.432 159.309 125.157 159.377 124.915 159.472C124.672 159.566 124.481 159.699 124.341 159.869C124.201 160.036 124.131 160.252 124.131 160.517C124.131 160.896 124.269 161.182 124.545 161.375C124.822 161.568 125.174 161.665 125.602 161.665ZM133.801 157.886V163H131.744V154.273H133.71V155.756H133.812C134.013 155.267 134.333 154.879 134.773 154.591C135.216 154.303 135.763 154.159 136.415 154.159C137.017 154.159 137.542 154.288 137.989 154.545C138.439 154.803 138.788 155.176 139.034 155.665C139.284 156.153 139.407 156.746 139.403 157.443V163H137.347V157.761C137.347 157.178 137.195 156.722 136.892 156.392C136.593 156.062 136.178 155.898 135.648 155.898C135.288 155.898 134.968 155.977 134.688 156.136C134.411 156.292 134.193 156.517 134.034 156.812C133.879 157.108 133.801 157.466 133.801 157.886ZM144.006 163.176C143.453 163.176 142.955 163.078 142.511 162.881C142.072 162.68 141.723 162.384 141.466 161.994C141.212 161.604 141.085 161.123 141.085 160.551C141.085 160.059 141.176 159.652 141.358 159.33C141.54 159.008 141.788 158.75 142.102 158.557C142.417 158.364 142.771 158.218 143.165 158.119C143.563 158.017 143.973 157.943 144.398 157.898C144.909 157.845 145.324 157.797 145.642 157.756C145.96 157.71 146.191 157.642 146.335 157.551C146.483 157.456 146.557 157.311 146.557 157.114V157.08C146.557 156.652 146.43 156.32 146.176 156.085C145.922 155.85 145.557 155.733 145.08 155.733C144.576 155.733 144.176 155.843 143.881 156.062C143.589 156.282 143.392 156.542 143.29 156.841L141.369 156.568C141.521 156.038 141.771 155.595 142.119 155.239C142.468 154.879 142.894 154.61 143.398 154.432C143.902 154.25 144.458 154.159 145.068 154.159C145.489 154.159 145.907 154.208 146.324 154.307C146.741 154.405 147.121 154.568 147.466 154.795C147.811 155.019 148.087 155.324 148.295 155.71C148.508 156.097 148.614 156.58 148.614 157.159V163H146.636V161.801H146.568C146.443 162.044 146.267 162.271 146.04 162.483C145.816 162.691 145.534 162.86 145.193 162.989C144.856 163.114 144.46 163.176 144.006 163.176ZM144.54 161.665C144.953 161.665 145.311 161.583 145.614 161.42C145.917 161.254 146.15 161.034 146.312 160.761C146.479 160.489 146.562 160.191 146.562 159.869V158.841C146.498 158.894 146.388 158.943 146.233 158.989C146.081 159.034 145.911 159.074 145.722 159.108C145.532 159.142 145.345 159.172 145.159 159.199C144.973 159.225 144.813 159.248 144.676 159.267C144.369 159.309 144.095 159.377 143.852 159.472C143.61 159.566 143.419 159.699 143.278 159.869C143.138 160.036 143.068 160.252 143.068 160.517C143.068 160.896 143.206 161.182 143.483 161.375C143.759 161.568 144.112 161.665 144.54 161.665ZM154.477 166.455C153.739 166.455 153.104 166.354 152.574 166.153C152.044 165.956 151.617 165.691 151.295 165.358C150.973 165.025 150.75 164.655 150.625 164.25L152.477 163.801C152.561 163.972 152.682 164.14 152.841 164.307C153 164.477 153.214 164.617 153.483 164.727C153.756 164.841 154.098 164.898 154.511 164.898C155.095 164.898 155.578 164.756 155.96 164.472C156.343 164.191 156.534 163.729 156.534 163.085V161.432H156.432C156.326 161.644 156.17 161.862 155.966 162.085C155.765 162.309 155.498 162.496 155.165 162.648C154.835 162.799 154.42 162.875 153.92 162.875C153.25 162.875 152.642 162.718 152.097 162.403C151.555 162.085 151.123 161.612 150.801 160.983C150.483 160.35 150.324 159.559 150.324 158.608C150.324 157.65 150.483 156.841 150.801 156.182C151.123 155.519 151.557 155.017 152.102 154.676C152.648 154.331 153.256 154.159 153.926 154.159C154.438 154.159 154.858 154.246 155.188 154.42C155.521 154.591 155.786 154.797 155.983 155.04C156.18 155.278 156.33 155.504 156.432 155.716H156.545V154.273H158.574V163.142C158.574 163.888 158.396 164.506 158.04 164.994C157.684 165.483 157.197 165.848 156.58 166.091C155.962 166.333 155.261 166.455 154.477 166.455ZM154.494 161.261C154.93 161.261 155.301 161.155 155.608 160.943C155.915 160.731 156.148 160.426 156.307 160.028C156.466 159.631 156.545 159.153 156.545 158.597C156.545 158.047 156.466 157.566 156.307 157.153C156.152 156.741 155.92 156.42 155.614 156.193C155.311 155.962 154.938 155.847 154.494 155.847C154.036 155.847 153.653 155.966 153.347 156.205C153.04 156.443 152.809 156.771 152.653 157.188C152.498 157.6 152.42 158.07 152.42 158.597C152.42 159.131 152.498 159.598 152.653 160C152.813 160.398 153.045 160.708 153.352 160.932C153.663 161.152 154.044 161.261 154.494 161.261ZM164.545 163.17C163.67 163.17 162.915 162.989 162.278 162.625C161.646 162.258 161.159 161.739 160.818 161.068C160.477 160.394 160.307 159.6 160.307 158.688C160.307 157.79 160.477 157.002 160.818 156.324C161.163 155.642 161.644 155.112 162.261 154.733C162.879 154.35 163.604 154.159 164.438 154.159C164.975 154.159 165.483 154.246 165.96 154.42C166.441 154.591 166.866 154.856 167.233 155.216C167.604 155.576 167.896 156.034 168.108 156.591C168.32 157.144 168.426 157.803 168.426 158.568V159.199H161.273V157.812H166.455C166.451 157.419 166.366 157.068 166.199 156.761C166.032 156.451 165.799 156.206 165.5 156.028C165.205 155.85 164.86 155.761 164.466 155.761C164.045 155.761 163.676 155.864 163.358 156.068C163.04 156.269 162.792 156.534 162.614 156.864C162.439 157.189 162.35 157.547 162.347 157.938V159.148C162.347 159.655 162.439 160.091 162.625 160.455C162.811 160.814 163.07 161.091 163.403 161.284C163.737 161.473 164.127 161.568 164.574 161.568C164.873 161.568 165.144 161.527 165.386 161.443C165.629 161.356 165.839 161.229 166.017 161.062C166.195 160.896 166.33 160.689 166.42 160.443L168.341 160.659C168.22 161.167 167.989 161.61 167.648 161.989C167.311 162.364 166.879 162.655 166.352 162.864C165.826 163.068 165.223 163.17 164.545 163.17ZM170.166 163V154.273H172.132V155.756H172.234C172.416 155.256 172.717 154.866 173.138 154.585C173.558 154.301 174.06 154.159 174.643 154.159C175.234 154.159 175.732 154.303 176.138 154.591C176.547 154.875 176.835 155.263 177.001 155.756H177.092C177.286 155.271 177.611 154.884 178.07 154.597C178.532 154.305 179.079 154.159 179.712 154.159C180.515 154.159 181.17 154.413 181.678 154.92C182.185 155.428 182.439 156.169 182.439 157.142V163H180.376V157.46C180.376 156.919 180.232 156.523 179.945 156.273C179.657 156.019 179.304 155.892 178.888 155.892C178.392 155.892 178.003 156.047 177.723 156.358C177.446 156.665 177.308 157.064 177.308 157.557V163H175.291V157.375C175.291 156.924 175.155 156.564 174.882 156.295C174.613 156.027 174.261 155.892 173.825 155.892C173.53 155.892 173.261 155.968 173.018 156.119C172.776 156.267 172.583 156.477 172.439 156.75C172.295 157.019 172.223 157.333 172.223 157.693V163H170.166ZM188.389 163.17C187.514 163.17 186.759 162.989 186.122 162.625C185.49 162.258 185.003 161.739 184.662 161.068C184.321 160.394 184.151 159.6 184.151 158.688C184.151 157.79 184.321 157.002 184.662 156.324C185.007 155.642 185.488 155.112 186.105 154.733C186.723 154.35 187.448 154.159 188.281 154.159C188.819 154.159 189.327 154.246 189.804 154.42C190.285 154.591 190.709 154.856 191.077 155.216C191.448 155.576 191.74 156.034 191.952 156.591C192.164 157.144 192.27 157.803 192.27 158.568V159.199H185.116V157.812H190.298C190.295 157.419 190.209 157.068 190.043 156.761C189.876 156.451 189.643 156.206 189.344 156.028C189.048 155.85 188.704 155.761 188.31 155.761C187.889 155.761 187.52 155.864 187.202 156.068C186.884 156.269 186.635 156.534 186.457 156.864C186.283 157.189 186.194 157.547 186.19 157.938V159.148C186.19 159.655 186.283 160.091 186.469 160.455C186.654 160.814 186.914 161.091 187.247 161.284C187.58 161.473 187.971 161.568 188.418 161.568C188.717 161.568 188.988 161.527 189.23 161.443C189.473 161.356 189.683 161.229 189.861 161.062C190.039 160.896 190.173 160.689 190.264 160.443L192.185 160.659C192.063 161.167 191.832 161.61 191.491 161.989C191.154 162.364 190.723 162.655 190.196 162.864C189.67 163.068 189.067 163.17 188.389 163.17ZM196.067 157.886V163H194.01V154.273H195.976V155.756H196.078C196.279 155.267 196.599 154.879 197.038 154.591C197.482 154.303 198.029 154.159 198.68 154.159C199.283 154.159 199.807 154.288 200.254 154.545C200.705 154.803 201.054 155.176 201.3 155.665C201.55 156.153 201.673 156.746 201.669 157.443V163H199.612V157.761C199.612 157.178 199.461 156.722 199.158 156.392C198.858 156.062 198.444 155.898 197.913 155.898C197.554 155.898 197.233 155.977 196.953 156.136C196.677 156.292 196.459 156.517 196.3 156.812C196.144 157.108 196.067 157.466 196.067 157.886ZM208.118 154.273V155.864H203.101V154.273H208.118ZM204.339 152.182H206.396V160.375C206.396 160.652 206.438 160.864 206.521 161.011C206.608 161.155 206.722 161.254 206.862 161.307C207.002 161.36 207.158 161.386 207.328 161.386C207.457 161.386 207.574 161.377 207.68 161.358C207.79 161.339 207.874 161.322 207.93 161.307L208.277 162.915C208.167 162.953 208.01 162.994 207.805 163.04C207.605 163.085 207.358 163.112 207.067 163.119C206.552 163.134 206.088 163.057 205.675 162.886C205.262 162.712 204.934 162.443 204.692 162.08C204.453 161.716 204.336 161.261 204.339 160.716V152.182Z" fill="black"/>
<defs>
<linearGradient id="paint0_linear_13_6284" x1="8.9" y1="15.8" x2="68.15" y2="68.73" gradientUnits="userSpaceOnUse">
<stop stop-color="#0AD5C9"/>
<stop offset="1" stop-color="#14BDCF"/>
</linearGradient>
<linearGradient id="paint1_linear_13_6284" x1="7.9" y1="119.8" x2="67.15" y2="172.73" gradientUnits="userSpaceOnUse">
<stop stop-color="#0AD5C9"/>
<stop offset="1" stop-color="#14BDCF"/>
</linearGradient>
<linearGradient id="paint2_linear_13_6284" x1="7.9" y1="223.8" x2="67.15" y2="276.73" gradientUnits="userSpaceOnUse">
<stop stop-color="#0AD5C9"/>
<stop offset="1" stop-color="#14BDCF"/>
</linearGradient>
</defs>
</svg>
