<svg width="143" height="143" viewBox="0 0 143 143" fill="none" xmlns="http://www.w3.org/2000/svg">
<circle cx="71.5" cy="71.5" r="71.5" fill="url(#paint0_linear_37_6537)" fill-opacity="0.5"/>
<circle cx="72" cy="71" r="61" fill="url(#paint1_linear_37_6537)"/>
<path d="M99.978 60.9574C99.978 61.3615 99.978 61.6524 99.978 61.9453C99.978 73.9322 99.978 85.9191 99.978 97.9041C99.978 99.3078 99.6638 99.6377 98.3299 99.6377C80.6185 99.6377 62.9071 99.6377 45.1956 99.6377C43.841 99.6377 43.525 99.3136 43.525 97.9275C43.525 85.9406 43.525 73.9537 43.525 61.9687C43.525 61.6759 43.525 61.385 43.525 60.9711C42.6181 61.301 41.7715 61.6095 40.9249 61.9179C39.6136 62.3982 39.0096 61.9531 39.0096 60.4947C39.0096 58.4195 39.0247 56.3442 39.0002 54.269C38.9908 53.4783 39.2768 53.0058 40.0143 52.7345C50.3921 48.9002 60.7604 45.0425 71.1419 41.2239C71.5577 41.0716 72.1259 41.1302 72.5549 41.2883C80.7239 44.289 88.8835 47.3169 97.0431 50.341C99.0994 51.1024 101.156 51.8657 103.212 52.6291C104.362 53.0547 104.493 53.244 104.493 54.4779C104.493 56.5043 104.495 58.5308 104.493 60.5572C104.491 61.9433 103.863 62.3904 102.588 61.9219C101.75 61.6134 100.913 61.303 99.978 60.9574ZM79.6552 97.2403H97.6997V60.1277C97.4908 60.0438 97.297 59.9579 97.0976 59.8856C88.8496 56.8264 80.6035 53.7633 72.3479 50.7315C71.9716 50.5928 71.4618 50.6202 71.078 50.7607C65.6313 52.754 60.196 54.7785 54.7569 56.7971C51.7749 57.9041 48.7929 59.0091 45.8278 60.1082V97.2403H50.2999C50.2999 96.8928 50.2999 96.6019 50.2999 96.3091C50.2999 87.7894 50.2999 79.2697 50.2999 70.752C50.2999 69.5494 50.6592 69.1726 51.8106 69.1726C56.0682 69.1706 60.3239 69.1726 64.5815 69.1726C65.7405 69.1726 66.1054 69.5474 66.1054 70.7383C66.1073 74.6194 66.1054 78.5005 66.1054 82.3816C66.1054 82.6432 66.1054 82.9048 66.1054 83.2328H66.9333C70.6264 83.2328 74.3177 83.2328 78.0109 83.2328C79.3429 83.2328 79.6534 83.5627 79.6534 84.9703C79.6534 85.9718 79.6534 86.9714 79.6534 87.9729V97.2403H79.6552ZM41.2673 59.2551C41.5552 59.1711 41.779 59.1203 41.9935 59.0423C51.6357 55.4696 61.2797 51.9009 70.9162 48.3106C71.5126 48.0881 72.0243 48.0978 72.6113 48.3145C82.2045 51.8833 91.8015 55.4345 101.4 58.9895C101.654 59.0833 101.912 59.1692 102.238 59.2824C102.238 57.9509 102.2 56.7288 102.253 55.5126C102.279 54.9113 102.072 54.6848 101.543 54.4896C91.8504 50.915 82.1688 47.3111 72.4758 43.7423C72.0563 43.5881 71.4919 43.5823 71.0723 43.7345C64.7377 46.0499 58.4162 48.4024 52.0928 50.7471C48.6875 52.0102 45.2803 53.2655 41.8825 54.5481C41.6455 54.6379 41.3012 54.9015 41.2936 55.0948C41.2428 56.4555 41.2673 57.8201 41.2673 59.2551ZM52.5688 83.1879H63.7989V71.5719H59.2967V74.3207H57.0616V71.5719H52.5688V83.1879ZM52.6065 85.6087V97.2364H63.8101V85.6224H59.3174V88.3673H57.0616V85.6087H52.6065ZM77.343 97.2657V85.6126H72.8615V88.379H70.6039V85.6126H66.1468V97.2657H77.3449H77.343Z" fill="white"/>
<path d="M51.1065 38.5733C50.4141 38.8759 49.7857 39.2293 49.1141 39.4128C48.7359 39.5163 48.1677 39.487 47.9006 39.2527C47.6315 39.0165 47.4622 38.4152 47.5375 38.0364C47.9006 36.2013 48.3446 34.3818 48.7905 32.5662C49.0238 31.6174 49.7519 31.2894 50.5797 31.7677C52.1582 32.6794 53.7348 33.6009 55.27 34.5907C55.5898 34.7976 55.904 35.3306 55.8852 35.6937C55.8664 36.0588 55.492 36.5078 55.1552 36.7245C54.5682 37.1033 53.8928 37.3317 53.191 37.6519C54.0791 39.8052 54.9445 41.9019 55.8495 44.0982C55.1816 44.4008 54.5306 44.6976 53.7912 45.0334C52.8919 42.8703 52.0039 40.7384 51.1065 38.5753V38.5733ZM50.6512 34.5087C50.5082 35.1861 50.3915 35.7308 50.2504 36.3985C50.9842 36.0608 51.5693 35.7913 52.2692 35.4692C51.6765 35.1159 51.2156 34.8425 50.6512 34.5087Z" fill="white"/>
<path d="M87.6535 44.0837C88.5472 41.9167 89.4126 39.818 90.31 37.6412C89.6478 37.3425 88.9968 37.1278 88.4324 36.7646C88.0749 36.5343 87.7137 36.1262 87.5971 35.7221C87.4409 35.1813 87.8379 34.785 88.3045 34.5098C89.8133 33.6195 91.3128 32.7098 92.8255 31.8215C93.768 31.269 94.4754 31.5833 94.737 32.6688C95.1565 34.4161 95.593 36.1633 95.9392 37.9262C96.0201 38.3362 95.8771 38.9024 95.6363 39.2479C95.3164 39.7087 94.7727 39.6325 94.2817 39.4041C93.6834 39.1249 93.0776 38.8633 92.4003 38.5607C91.5122 40.6965 90.6336 42.8089 89.7212 45.0032C89.025 44.6928 88.3534 44.3941 87.6535 44.0837ZM91.215 35.4781C91.9619 35.81 92.5489 36.0716 93.277 36.3937C93.1152 35.7026 92.9854 35.154 92.8349 34.5137C92.2893 34.8377 91.8283 35.113 91.215 35.4781Z" fill="white"/>
<path d="M72.9113 38.6666H70.6499V34.0104C69.935 34.0104 69.2652 34.0006 68.5954 34.0123C68.063 34.0221 67.6227 33.8757 67.3631 33.3505C67.0997 32.8156 67.2878 32.3724 67.6058 31.9371C68.6406 30.5197 69.6584 29.0887 70.695 27.6733C71.3592 26.7675 72.1569 26.7772 72.8267 27.6929C73.8633 29.1082 74.883 30.5373 75.9159 31.9586C76.2339 32.3959 76.4032 32.8507 76.1285 33.3779C75.8595 33.8972 75.4098 34.026 74.8811 34.0163C74.249 34.0026 73.6168 34.0123 72.9094 34.0123V38.6685L72.9113 38.6666ZM70.6762 31.6013H72.8417C72.4428 31.0644 72.1098 30.6174 71.743 30.1254C71.361 30.6525 71.0431 31.0937 70.6762 31.6013Z" fill="white"/>
<path d="M93.2095 66.0988C93.1606 66.8992 92.8916 67.5083 92.2801 67.8851C91.9151 68.1096 91.8116 68.3634 91.8004 68.8105C91.7815 69.6167 91.8606 70.2356 92.6056 70.7608C93.313 71.2586 93.392 72.2601 92.9574 73.0879C92.4758 74.0074 91.9584 74.9113 91.394 75.7781C90.8032 76.6898 89.7967 76.9768 88.8484 76.4965C88.4026 76.272 88.0827 76.2915 87.7121 76.5981C87.4938 76.7777 87.1947 76.8518 86.984 77.0373C86.7977 77.2013 86.5908 77.4375 86.5531 77.6698C86.3368 79.013 85.6162 79.7002 84.3143 79.7119C83.4206 79.7217 82.527 79.7275 81.6352 79.708C80.5063 79.6826 79.6823 78.9662 79.5788 77.8163C79.5337 77.3145 79.3455 77.0861 78.9354 76.9202C78.6758 76.8148 78.4575 76.5883 78.196 76.5063C77.9439 76.4282 77.6203 76.3696 77.3945 76.4672C76.2412 76.9612 75.2403 76.6898 74.5743 75.6083C74.1059 74.8488 73.6562 74.0757 73.2254 73.2929C72.6026 72.1606 72.8641 71.1258 73.882 70.3586C74.0776 70.2102 74.1999 69.8901 74.2564 69.6265C74.3203 69.3239 74.3147 68.9881 74.2582 68.6816C74.2131 68.4356 74.1059 68.1311 73.9271 67.9964C72.8303 67.1686 72.5951 66.1671 73.278 64.9547C73.7051 64.1972 74.1322 63.4398 74.5894 62.7018C75.2422 61.6495 76.2657 61.3255 77.3381 61.8721C77.7144 62.0634 77.9796 62.0459 78.2863 61.7921C78.4312 61.673 78.5986 61.5636 78.7717 61.5012C79.3023 61.3059 79.5581 60.9819 79.6277 60.3513C79.7406 59.3302 80.527 58.6606 81.5223 58.6294C82.5326 58.5962 83.5448 58.5962 84.5532 58.6294C85.6294 58.6626 86.4102 59.4005 86.5155 60.5407C86.5588 61.0111 86.7413 61.2298 87.1194 61.3899C87.3565 61.4895 87.5936 61.6183 87.793 61.7842C88.1279 62.0654 88.4157 62.0537 88.8052 61.8545C89.6875 61.3996 90.6866 61.5597 91.2265 62.3485C91.917 63.3578 92.4795 64.4589 93.0778 65.5326C93.1775 65.7122 93.1794 65.9523 93.2114 66.0988H93.2095ZM76.4538 74.3178C77.5074 73.6248 78.4368 73.7516 79.338 74.4623C79.56 74.638 79.8102 74.7942 80.0717 74.8937C81.163 75.3135 81.8591 76.0338 81.8233 77.3223H84.2748C84.2334 76.0495 84.8806 75.3427 85.9304 74.9367C86.1693 74.843 86.4102 74.718 86.6096 74.556C87.5522 73.7907 88.5343 73.5662 89.6311 74.3237C90.0394 73.6189 90.4194 72.9629 90.8314 72.2543C89.6819 71.7076 89.4053 70.7705 89.5558 69.6206C89.5878 69.3805 89.5972 69.1287 89.5653 68.8905C89.4053 67.6781 89.6142 66.6415 90.8371 66.0831C90.4119 65.353 90.03 64.6951 89.6367 64.0196C88.5851 64.7107 87.6538 64.5897 86.7526 63.8771C86.5306 63.7014 86.2803 63.5432 86.0207 63.4437C84.9295 63.0259 84.2296 62.3075 84.2691 60.9662C83.8176 60.9662 83.4225 60.9662 83.0274 60.9662C82.6323 60.9662 82.2429 60.9662 81.8666 60.9662C81.6559 62.3992 81.3906 62.8072 80.4179 63.2777C80.1846 63.391 79.9306 63.4788 79.7256 63.633C78.7021 64.4003 77.6542 64.9176 76.4557 64.0137C76.0286 64.7517 75.658 65.392 75.261 66.0792C76.4256 66.6532 76.6928 67.6176 76.5272 68.7909C76.4971 69.0057 76.4933 69.2341 76.5216 69.4488C76.6834 70.6632 76.4726 71.6998 75.2516 72.2543C75.6693 72.9707 76.0456 73.613 76.4557 74.3178H76.4538Z" fill="white"/>
<path d="M87.5562 69.1747C87.5543 71.7615 85.5074 73.8699 83.0164 73.8523C80.5217 73.8367 78.5124 71.7166 78.5274 69.12C78.5425 66.5684 80.5631 64.4873 83.0315 64.4795C85.5262 64.4736 87.5581 66.5821 87.5543 69.1728L87.5562 69.1747ZM80.787 69.1708C80.7945 70.4534 81.7973 71.4979 83.0296 71.5057C84.2882 71.5135 85.3193 70.43 85.2967 69.124C85.2741 67.8472 84.2525 66.8183 83.0164 66.8261C81.7879 66.8339 80.7795 67.894 80.787 69.1708Z" fill="white"/>
<defs>
<linearGradient id="paint0_linear_37_6537" x1="15.8238" y1="4.80605e-07" x2="113.697" y2="143" gradientUnits="userSpaceOnUse">
<stop stop-color="#3276E2"/>
<stop offset="1" stop-color="#1EA3D6"/>
</linearGradient>
<linearGradient id="paint1_linear_37_6537" x1="24.5" y1="10" x2="108" y2="132" gradientUnits="userSpaceOnUse">
<stop stop-color="#3276E2"/>
<stop offset="1" stop-color="#1EA3D6"/>
</linearGradient>
</defs>
</svg>
