<svg width="250" height="250" viewBox="0 0 250 250" fill="none" xmlns="http://www.w3.org/2000/svg">
<circle cx="125" cy="125" r="125" fill="url(#paint0_linear_39_6609)"/>
<circle cx="124.714" cy="124.714" r="115.714" fill="url(#paint1_linear_39_6609)"/>
<path d="M41.5396 151.638C41.4828 151.065 41.2389 150.62 40.8081 150.303C40.3772 149.985 39.7924 149.827 39.0538 149.827C38.5519 149.827 38.1281 149.898 37.7825 150.04C37.4368 150.177 37.1717 150.369 36.987 150.615C36.8071 150.861 36.7172 151.141 36.7172 151.453C36.7077 151.714 36.7621 151.941 36.8805 152.135C37.0036 152.329 37.1717 152.497 37.3848 152.639C37.5978 152.777 37.844 152.897 38.1234 153.001C38.4028 153.101 38.7011 153.186 39.0183 153.257L40.3251 153.57C40.9596 153.712 41.542 153.901 42.0723 154.138C42.6026 154.375 43.0618 154.666 43.4501 155.011C43.8384 155.357 44.139 155.764 44.3521 156.233C44.5699 156.702 44.6812 157.239 44.6859 157.845C44.6812 158.735 44.4539 159.507 44.0041 160.161C43.559 160.809 42.9151 161.313 42.0723 161.673C41.2342 162.028 40.2233 162.206 39.0396 162.206C37.8654 162.206 36.8426 162.026 35.9714 161.666C35.1049 161.306 34.4279 160.774 33.9402 160.068C33.4572 159.358 33.2039 158.48 33.1802 157.433H36.1561C36.1892 157.921 36.3289 158.328 36.5751 158.655C36.8261 158.977 37.1599 159.221 37.5765 159.386C37.9979 159.547 38.4738 159.628 39.0041 159.628C39.5249 159.628 39.9771 159.552 40.3606 159.401C40.7489 159.249 41.0495 159.038 41.2626 158.768C41.4757 158.499 41.5822 158.188 41.5822 157.838C41.5822 157.511 41.4851 157.237 41.291 157.014C41.1016 156.792 40.8223 156.602 40.4529 156.446C40.0884 156.29 39.6409 156.148 39.1106 156.02L37.5268 155.622C36.3005 155.324 35.3322 154.857 34.622 154.223C33.9118 153.589 33.559 152.734 33.5637 151.659C33.559 150.778 33.7934 150.009 34.2669 149.351C34.7451 148.693 35.4009 148.179 36.2342 147.81C37.0675 147.44 38.0145 147.256 39.0751 147.256C40.1547 147.256 41.0969 147.44 41.9018 147.81C42.7115 148.179 43.3412 148.693 43.791 149.351C44.2408 150.009 44.4728 150.771 44.487 151.638H41.5396ZM46.2005 149.99V147.455H58.1465V149.99H53.6934V162H50.6536V149.99H46.2005ZM72.8162 154.727C72.8162 156.313 72.5156 157.663 71.9142 158.776C71.3176 159.888 70.5033 160.738 69.4711 161.325C68.4436 161.908 67.2883 162.199 66.0051 162.199C64.7125 162.199 63.5525 161.905 62.525 161.318C61.4976 160.731 60.6855 159.881 60.089 158.768C59.4924 157.656 59.1941 156.309 59.1941 154.727C59.1941 153.141 59.4924 151.792 60.089 150.679C60.6855 149.566 61.4976 148.719 62.525 148.136C63.5525 147.549 64.7125 147.256 66.0051 147.256C67.2883 147.256 68.4436 147.549 69.4711 148.136C70.5033 148.719 71.3176 149.566 71.9142 150.679C72.5156 151.792 72.8162 153.141 72.8162 154.727ZM69.6983 154.727C69.6983 153.7 69.5444 152.833 69.2367 152.128C68.9337 151.422 68.5051 150.887 67.9512 150.523C67.3972 150.158 66.7485 149.976 66.0051 149.976C65.2618 149.976 64.6131 150.158 64.0591 150.523C63.5051 150.887 63.0743 151.422 62.7665 152.128C62.4635 152.833 62.312 153.7 62.312 154.727C62.312 155.755 62.4635 156.621 62.7665 157.327C63.0743 158.032 63.5051 158.567 64.0591 158.932C64.6131 159.296 65.2618 159.479 66.0051 159.479C66.7485 159.479 67.3972 159.296 67.9512 158.932C68.5051 158.567 68.9337 158.032 69.2367 157.327C69.5444 156.621 69.6983 155.755 69.6983 154.727ZM75.0943 162V147.455H80.8329C81.9314 147.455 82.8689 147.651 83.6454 148.044C84.4267 148.432 85.0209 148.984 85.4281 149.699C85.84 150.409 86.046 151.245 86.046 152.206C86.046 153.172 85.8377 154.003 85.421 154.699C85.0043 155.39 84.4006 155.92 83.6099 156.29C82.8239 156.659 81.8722 156.844 80.7548 156.844H76.9125V154.372H80.2576C80.8448 154.372 81.3324 154.292 81.7207 154.131C82.109 153.97 82.3978 153.728 82.5872 153.406C82.7813 153.084 82.8784 152.684 82.8784 152.206C82.8784 151.723 82.7813 151.316 82.5872 150.984C82.3978 150.653 82.1066 150.402 81.7136 150.232C81.3253 150.056 80.8353 149.969 80.2434 149.969H78.1696V162H75.0943ZM82.9494 155.381L86.5645 162H83.1696L79.6326 155.381H82.9494ZM88.2193 162V147.455H98.0204V149.99H91.2946V153.456H97.5162V155.991H91.2946V159.464H98.0488V162H88.2193ZM107.601 162H104.306L109.327 147.455H113.29L118.305 162H115.009L111.366 150.778H111.252L107.601 162ZM107.395 156.283H115.18V158.683H107.395V156.283ZM132.221 147.455V162H129.565L123.237 152.845H123.131V162H120.055V147.455H122.754L129.032 156.602H129.16V147.455H132.221ZM139.919 162H134.762V147.455H139.961C141.424 147.455 142.684 147.746 143.74 148.328C144.795 148.906 145.607 149.737 146.176 150.821C146.749 151.905 147.035 153.203 147.035 154.713C147.035 156.228 146.749 157.53 146.176 158.619C145.607 159.708 144.791 160.544 143.725 161.126C142.665 161.709 141.396 162 139.919 162ZM137.838 159.365H139.791C140.7 159.365 141.464 159.204 142.085 158.882C142.71 158.555 143.178 158.051 143.491 157.369C143.808 156.683 143.967 155.797 143.967 154.713C143.967 153.638 143.808 152.76 143.491 152.078C143.178 151.396 142.712 150.894 142.092 150.572C141.472 150.25 140.707 150.089 139.798 150.089H137.838V159.365ZM161.833 151.638C161.776 151.065 161.532 150.62 161.101 150.303C160.67 149.985 160.085 149.827 159.347 149.827C158.845 149.827 158.421 149.898 158.075 150.04C157.73 150.177 157.465 150.369 157.28 150.615C157.1 150.861 157.01 151.141 157.01 151.453C157.001 151.714 157.055 151.941 157.173 152.135C157.297 152.329 157.465 152.497 157.678 152.639C157.891 152.777 158.137 152.897 158.416 153.001C158.696 153.101 158.994 153.186 159.311 153.257L160.618 153.57C161.253 153.712 161.835 153.901 162.365 154.138C162.896 154.375 163.355 154.666 163.743 155.011C164.131 155.357 164.432 155.764 164.645 156.233C164.863 156.702 164.974 157.239 164.979 157.845C164.974 158.735 164.747 159.507 164.297 160.161C163.852 160.809 163.208 161.313 162.365 161.673C161.527 162.028 160.516 162.206 159.333 162.206C158.158 162.206 157.136 162.026 156.264 161.666C155.398 161.306 154.721 160.774 154.233 160.068C153.75 159.358 153.497 158.48 153.473 157.433H156.449C156.482 157.921 156.622 158.328 156.868 158.655C157.119 158.977 157.453 159.221 157.869 159.386C158.291 159.547 158.767 159.628 159.297 159.628C159.818 159.628 160.27 159.552 160.654 159.401C161.042 159.249 161.343 159.038 161.556 158.768C161.769 158.499 161.875 158.188 161.875 157.838C161.875 157.511 161.778 157.237 161.584 157.014C161.395 156.792 161.115 156.602 160.746 156.446C160.381 156.29 159.934 156.148 159.404 156.02L157.82 155.622C156.593 155.324 155.625 154.857 154.915 154.223C154.205 153.589 153.852 152.734 153.857 151.659C153.852 150.778 154.086 150.009 154.56 149.351C155.038 148.693 155.694 148.179 156.527 147.81C157.36 147.44 158.307 147.256 159.368 147.256C160.448 147.256 161.39 147.44 162.195 147.81C163.004 148.179 163.634 148.693 164.084 149.351C164.534 150.009 164.766 150.771 164.78 151.638H161.833ZM167.047 162V147.455H172.786C173.889 147.455 174.829 147.665 175.606 148.087C176.382 148.503 176.974 149.083 177.381 149.827C177.793 150.565 177.999 151.418 177.999 152.384C177.999 153.349 177.791 154.202 177.374 154.94C176.957 155.679 176.354 156.254 175.563 156.666C174.777 157.078 173.825 157.284 172.708 157.284H169.05V154.82H172.211C172.803 154.82 173.29 154.718 173.674 154.514C174.062 154.306 174.351 154.019 174.54 153.655C174.734 153.286 174.831 152.862 174.831 152.384C174.831 151.901 174.734 151.479 174.54 151.119C174.351 150.755 174.062 150.473 173.674 150.274C173.286 150.071 172.793 149.969 172.197 149.969H170.123V162H167.047ZM180.824 162H177.529L182.55 147.455H186.513L191.527 162H188.232L184.588 150.778H184.475L180.824 162ZM180.618 156.283H188.402V158.683H180.618V156.283ZM205.428 152.547H202.317C202.26 152.144 202.144 151.787 201.969 151.474C201.794 151.157 201.569 150.887 201.295 150.665C201.02 150.442 200.703 150.272 200.343 150.153C199.988 150.035 199.602 149.976 199.185 149.976C198.432 149.976 197.777 150.163 197.218 150.537C196.659 150.906 196.226 151.446 195.918 152.156C195.61 152.862 195.456 153.719 195.456 154.727C195.456 155.764 195.61 156.635 195.918 157.341C196.231 158.046 196.666 158.579 197.225 158.939C197.784 159.299 198.43 159.479 199.164 159.479C199.576 159.479 199.957 159.424 200.307 159.315C200.662 159.206 200.977 159.048 201.252 158.839C201.527 158.626 201.754 158.368 201.934 158.065C202.118 157.762 202.246 157.417 202.317 157.028L205.428 157.043C205.348 157.71 205.146 158.354 204.824 158.974C204.507 159.59 204.079 160.142 203.539 160.629C203.004 161.112 202.365 161.496 201.621 161.78C200.883 162.059 200.047 162.199 199.114 162.199C197.817 162.199 196.657 161.905 195.634 161.318C194.616 160.731 193.811 159.881 193.219 158.768C192.632 157.656 192.339 156.309 192.339 154.727C192.339 153.141 192.637 151.792 193.233 150.679C193.83 149.566 194.64 148.719 195.662 148.136C196.685 147.549 197.836 147.256 199.114 147.256C199.957 147.256 200.738 147.374 201.458 147.611C202.182 147.848 202.824 148.193 203.383 148.648C203.941 149.098 204.396 149.649 204.746 150.303C205.101 150.956 205.329 151.704 205.428 152.547ZM207.633 162V147.455H217.434V149.99H210.709V153.456H216.93V155.991H210.709V159.464H217.463V162H207.633Z" fill="white"/>
<path d="M145.555 106.375C145.555 106.653 145.555 106.853 145.555 107.055C145.555 115.306 145.555 123.557 145.555 131.807C145.555 132.773 145.331 133 144.378 133C131.727 133 119.076 133 106.425 133C105.458 133 105.232 132.777 105.232 131.823C105.232 123.572 105.232 115.32 105.232 107.071C105.232 106.869 105.232 106.669 105.232 106.384C104.584 106.611 103.98 106.823 103.375 107.036C102.438 107.366 102.007 107.06 102.007 106.056C102.007 104.628 102.018 103.199 102 101.771C101.993 101.226 102.198 100.901 102.724 100.714C110.137 98.075 117.543 95.4196 124.958 92.791C125.255 92.6862 125.661 92.7265 125.968 92.8354C131.802 94.9008 137.631 96.9851 143.459 99.0667C144.928 99.5908 146.397 100.116 147.865 100.642C148.686 100.935 148.781 101.065 148.781 101.914C148.781 103.309 148.782 104.704 148.781 106.099C148.779 107.053 148.33 107.361 147.419 107.038C146.821 106.826 146.223 106.612 145.555 106.375ZM131.039 131.35H143.928V105.803C143.779 105.746 143.64 105.686 143.498 105.637C137.607 103.531 131.716 101.422 125.82 99.3355C125.551 99.2401 125.187 99.2589 124.913 99.3557C121.022 100.728 117.14 102.121 113.255 103.511C111.125 104.273 108.995 105.033 106.877 105.79V131.35H110.071C110.071 131.111 110.071 130.91 110.071 130.709C110.071 124.844 110.071 118.98 110.071 113.117C110.071 112.289 110.328 112.029 111.15 112.029C114.191 112.028 117.231 112.029 120.272 112.029C121.1 112.029 121.361 112.287 121.361 113.107C121.362 115.779 121.361 118.45 121.361 121.122C121.361 121.302 121.361 121.482 121.361 121.708H121.952C124.59 121.708 127.227 121.708 129.865 121.708C130.816 121.708 131.038 121.935 131.038 122.904C131.038 123.593 131.038 124.281 131.038 124.971V131.35H131.039ZM103.619 105.203C103.825 105.145 103.985 105.11 104.138 105.056C111.025 102.597 117.914 100.14 124.797 97.6691C125.223 97.5159 125.589 97.5227 126.008 97.6718C132.86 100.128 139.715 102.573 146.571 105.02C146.753 105.084 146.937 105.144 147.169 105.222C147.169 104.305 147.142 103.464 147.18 102.627C147.199 102.213 147.051 102.057 146.673 101.922C139.75 99.4618 132.835 96.9811 125.911 94.5246C125.611 94.4184 125.208 94.4144 124.909 94.5192C120.384 96.113 115.869 97.7323 111.352 99.3463C108.92 100.216 106.486 101.08 104.059 101.963C103.89 102.025 103.644 102.206 103.638 102.339C103.602 103.276 103.619 104.215 103.619 105.203ZM111.692 121.677H119.713V113.681H116.497V115.573H114.901V113.681H111.692V121.677ZM111.719 123.343V131.347H119.721V123.353H116.512V125.242H114.901V123.343H111.719ZM129.388 131.367V123.346H126.187V125.25H124.574V123.346H121.39V131.367H129.389H129.388Z" fill="white"/>
<path d="M110.648 90.9665C110.153 91.1748 109.705 91.418 109.225 91.5443C108.955 91.6155 108.549 91.5954 108.358 91.4341C108.166 91.2715 108.045 90.8576 108.099 90.5969C108.358 89.3337 108.675 88.0812 108.994 86.8315C109.16 86.1784 109.68 85.9526 110.272 86.2818C111.399 86.9094 112.525 87.5437 113.622 88.225C113.85 88.3675 114.075 88.7343 114.061 88.9843C114.048 89.2356 113.781 89.5447 113.54 89.6938C113.121 89.9545 112.638 90.1118 112.137 90.3322C112.771 91.8144 113.389 93.2577 114.036 94.7695C113.559 94.9778 113.094 95.1821 112.566 95.4132C111.923 93.9242 111.289 92.4568 110.648 90.9678V90.9665ZM110.323 88.1686C110.221 88.6349 110.137 89.0098 110.037 89.4694C110.561 89.2369 110.979 89.0515 111.479 88.8298C111.055 88.5865 110.726 88.3984 110.323 88.1686Z" fill="white"/>
<path d="M136.753 94.7594C137.391 93.2678 138.009 91.8231 138.65 90.3247C138.177 90.1191 137.712 89.9713 137.309 89.7214C137.054 89.5628 136.796 89.2819 136.712 89.0037C136.601 88.6315 136.884 88.3587 137.217 88.1692C138.295 87.5564 139.366 86.9302 140.447 86.3188C141.12 85.9385 141.625 86.1548 141.812 86.902C142.112 88.1047 142.424 89.3075 142.671 90.5209C142.729 90.8031 142.626 91.1929 142.454 91.4307C142.226 91.7479 141.838 91.6955 141.487 91.5382C141.06 91.3461 140.627 91.166 140.143 90.9577C139.509 92.4278 138.881 93.8819 138.229 95.3924C137.732 95.1787 137.252 94.9731 136.753 94.7594ZM139.296 88.8358C139.83 89.0642 140.249 89.2443 140.769 89.466C140.654 88.9903 140.561 88.6127 140.453 88.1719C140.064 88.395 139.734 88.5845 139.296 88.8358Z" fill="white"/>
<path d="M126.222 91.0306H124.607V87.8256C124.096 87.8256 123.618 87.8189 123.139 87.8269C122.759 87.8337 122.445 87.7329 122.259 87.3714C122.071 87.0032 122.205 86.6981 122.432 86.3984C123.172 85.4228 123.899 84.4378 124.639 83.4635C125.113 82.8399 125.683 82.8467 126.162 83.4769C126.902 84.4512 127.63 85.4349 128.368 86.4132C128.595 86.7142 128.716 87.0273 128.52 87.3902C128.328 87.7476 128.007 87.8363 127.629 87.8296C127.178 87.8202 126.726 87.8269 126.221 87.8269V91.032L126.222 91.0306ZM124.626 86.1673H126.172C125.887 85.7977 125.65 85.49 125.388 85.1513C125.115 85.5142 124.888 85.8179 124.626 86.1673Z" fill="white"/>
<path d="M140.72 109.914C140.685 110.465 140.493 110.884 140.057 111.143C139.796 111.298 139.722 111.472 139.714 111.78C139.7 112.335 139.757 112.761 140.289 113.123C140.794 113.465 140.851 114.155 140.54 114.724C140.196 115.357 139.827 115.98 139.424 116.576C139.002 117.204 138.283 117.401 137.605 117.071C137.287 116.916 137.058 116.93 136.794 117.141C136.638 117.264 136.424 117.315 136.274 117.443C136.141 117.556 135.993 117.719 135.966 117.878C135.811 118.803 135.297 119.276 134.367 119.284C133.728 119.291 133.09 119.295 132.453 119.281C131.647 119.264 131.058 118.771 130.984 117.979C130.952 117.634 130.818 117.477 130.525 117.362C130.339 117.29 130.183 117.134 129.997 117.078C129.816 117.024 129.585 116.983 129.424 117.051C128.6 117.391 127.885 117.204 127.41 116.459C127.075 115.937 126.754 115.404 126.446 114.866C126.001 114.086 126.188 113.374 126.915 112.846C127.055 112.744 127.142 112.523 127.183 112.342C127.228 112.134 127.224 111.902 127.184 111.691C127.152 111.522 127.075 111.312 126.947 111.22C126.164 110.65 125.996 109.961 126.484 109.126C126.789 108.605 127.094 108.083 127.42 107.575C127.887 106.851 128.618 106.628 129.384 107.004C129.653 107.136 129.842 107.124 130.061 106.949C130.165 106.867 130.284 106.792 130.408 106.749C130.787 106.614 130.969 106.391 131.019 105.957C131.1 105.254 131.662 104.794 132.372 104.772C133.094 104.749 133.817 104.749 134.537 104.772C135.306 104.795 135.864 105.303 135.939 106.088C135.97 106.411 136.1 106.562 136.37 106.672C136.54 106.741 136.709 106.829 136.851 106.944C137.091 107.137 137.296 107.129 137.574 106.992C138.205 106.679 138.918 106.789 139.304 107.332C139.797 108.027 140.199 108.785 140.626 109.524C140.698 109.647 140.699 109.813 140.722 109.914H140.72ZM128.752 115.571C129.505 115.094 130.169 115.181 130.812 115.671C130.971 115.791 131.15 115.899 131.336 115.968C132.116 116.256 132.613 116.752 132.587 117.639H134.338C134.309 116.763 134.771 116.277 135.521 115.997C135.692 115.933 135.864 115.847 136.006 115.735C136.679 115.208 137.381 115.054 138.164 115.575C138.456 115.09 138.727 114.638 139.022 114.151C138.201 113.774 138.003 113.129 138.111 112.338C138.133 112.173 138.14 111.999 138.117 111.835C138.003 111.001 138.152 110.287 139.026 109.903C138.722 109.4 138.449 108.947 138.168 108.482C137.417 108.958 136.752 108.875 136.108 108.384C135.95 108.263 135.771 108.154 135.586 108.086C134.806 107.798 134.306 107.304 134.334 106.381C134.012 106.381 133.73 106.381 133.448 106.381C133.165 106.381 132.887 106.381 132.618 106.381C132.468 107.367 132.278 107.648 131.584 107.972C131.417 108.05 131.236 108.11 131.089 108.216C130.358 108.744 129.61 109.101 128.753 108.478C128.448 108.986 128.184 109.427 127.9 109.9C128.732 110.295 128.923 110.959 128.805 111.767C128.783 111.915 128.78 112.072 128.801 112.22C128.916 113.055 128.766 113.769 127.893 114.151C128.192 114.644 128.461 115.086 128.753 115.571H128.752Z" fill="white"/>
<path d="M136.684 112.031C136.682 113.812 135.22 115.263 133.441 115.251C131.659 115.24 130.224 113.781 130.234 111.994C130.245 110.237 131.688 108.805 133.452 108.799C135.234 108.795 136.685 110.247 136.682 112.03L136.684 112.031ZM131.848 112.029C131.854 112.911 132.57 113.63 133.45 113.636C134.349 113.641 135.086 112.895 135.07 111.996C135.053 111.117 134.324 110.409 133.441 110.415C132.563 110.42 131.843 111.15 131.848 112.029Z" fill="white"/>
<defs>
<linearGradient id="paint0_linear_39_6609" x1="33.3333" y1="42.9167" x2="208.75" y2="211.667" gradientUnits="userSpaceOnUse">
<stop stop-color="#2AD1FD"/>
<stop offset="1" stop-color="#02F2DF"/>
</linearGradient>
<linearGradient id="paint1_linear_39_6609" x1="39.8571" y1="48.7286" x2="202.243" y2="204.943" gradientUnits="userSpaceOnUse">
<stop stop-color="#1AA7F8"/>
<stop offset="1" stop-color="#03E0C2"/>
</linearGradient>
</defs>
</svg>
