<svg width="220" height="391" viewBox="0 0 220 391" fill="none" xmlns="http://www.w3.org/2000/svg">
<circle cx="180" cy="39.501" r="38" fill="white" stroke="#17B6D1" stroke-width="3"/>
<path d="M193.697 57.5079H167.884C167.884 58.0886 167.885 58.6671 167.884 59.2445C167.882 59.8251 167.682 60.0357 167.126 60.0378C166.409 60.04 165.692 60.04 164.975 60.0378C164.396 60.0368 164.201 59.8326 164.201 59.2222C164.2 51.4581 164.2 43.6939 164.2 35.9298C164.2 31.0859 164.2 26.242 164.2 21.397C164.2 20.7313 164.379 20.543 165.013 20.542C165.718 20.542 166.421 20.5398 167.126 20.542C167.683 20.5441 167.884 20.7525 167.884 21.3342C167.884 26.6301 167.884 31.9249 167.884 37.2208V37.7175H168.502C168.502 37.5686 168.502 37.4261 168.502 37.2836C168.502 34.324 168.502 31.3645 168.502 28.405C168.502 27.7382 168.681 27.55 169.315 27.55C172.17 27.55 175.025 27.55 177.88 27.55H178.334C178.334 26.8832 178.334 26.2505 178.334 25.6177C178.334 24.8085 178.331 23.9981 178.335 23.1888C178.337 22.6837 178.551 22.4551 179.033 22.4551C181.413 22.4519 183.795 22.4529 186.176 22.4551C186.733 22.4551 186.934 22.6656 186.935 23.2473C186.935 27.9052 186.935 32.5641 186.935 37.2219V37.7185H188.166C188.166 36.7306 188.166 35.7522 188.166 34.7749C188.166 34.1103 188.346 33.9221 188.982 33.9221C190.096 33.9221 191.209 33.921 192.323 33.9221C192.878 33.9221 193.078 34.1337 193.079 34.7164C193.082 35.7097 193.079 36.7029 193.079 37.7196H193.697V37.2421C193.697 31.9728 193.697 26.7045 193.697 21.4352C193.697 20.7164 193.863 20.543 194.551 20.543C195.255 20.543 195.959 20.5398 196.663 20.543C197.168 20.5452 197.38 20.7674 197.38 21.2981C197.38 33.9593 197.38 46.6205 197.38 59.2817C197.38 59.8124 197.167 60.0346 196.663 60.0378C195.908 60.0421 195.153 60.0421 194.397 60.0378C193.915 60.0346 193.701 59.8092 193.698 59.3051C193.694 58.7213 193.698 58.1385 193.698 57.509L193.697 57.5079ZM182.022 46.662C182.022 46.0484 182.022 45.4922 182.022 44.9371C182.023 44.3086 182.212 44.1151 182.827 44.114C185.964 44.114 189.099 44.114 192.236 44.114C192.902 44.114 193.079 44.2948 193.079 44.9775C193.079 47.937 193.079 50.8966 193.079 53.8561C193.079 53.9975 193.079 54.139 193.079 54.2793H193.666V40.9471H167.908V54.2793H168.502C168.502 53.2308 168.499 52.211 168.503 51.1901C168.505 50.7487 168.719 50.4925 169.114 50.4893C170.343 50.4797 171.572 50.4808 172.801 50.4893C173.184 50.4925 173.407 50.7402 173.412 51.1497C173.42 51.7867 173.414 52.4237 173.414 53.0606C173.414 53.4669 173.414 53.8742 173.414 54.2793H174.646C174.646 54.106 174.646 53.9614 174.646 53.8167C174.646 51.7069 174.646 49.597 174.646 47.4861C174.646 46.8566 174.836 46.663 175.452 46.663C177.397 46.663 179.343 46.663 181.288 46.663H182.019L182.022 46.662ZM178.308 37.7249V28.8527H176.488C176.488 29.9065 176.492 30.9274 176.486 31.9483C176.484 32.4003 176.259 32.6385 175.825 32.6406C174.636 32.647 173.445 32.6459 172.255 32.6406C171.797 32.6385 171.579 32.4067 171.576 31.9271C171.571 31.0253 171.576 30.1224 171.574 29.2206C171.574 29.093 171.563 28.9665 171.557 28.8527H169.749V37.7249H178.307H178.308ZM190.008 45.3933C190.008 46.4312 190.01 47.4362 190.008 48.4411C190.007 48.9909 189.797 49.2057 189.261 49.2068C188.122 49.2089 186.983 49.2089 185.844 49.2068C185.306 49.2068 185.098 48.993 185.096 48.4454C185.092 47.7286 185.096 47.0129 185.096 46.2962C185.096 45.9973 185.096 45.6996 185.096 45.4071H183.273V54.2804H191.825V45.3944H190.009L190.008 45.3933ZM166.63 58.7489V21.8468H165.447V58.75H166.63V58.7489ZM196.128 58.7489V21.8457H194.943V58.7489H196.128ZM179.577 30.0703H185.678V23.7461H184.476C184.476 24.3607 184.48 24.9541 184.475 25.5475C184.471 26.0452 184.253 26.2685 183.766 26.2717C183.05 26.276 182.333 26.2739 181.617 26.2717C180.975 26.2717 180.793 26.0846 180.792 25.4284C180.792 24.8648 180.792 24.3001 180.792 23.745H179.577V30.0692V30.0703ZM179.579 37.7175H185.68V31.389H184.477C184.477 32.0004 184.48 32.5938 184.476 33.1872C184.472 33.6892 184.257 33.9136 183.774 33.9167C183.044 33.921 182.314 33.9189 181.585 33.9167C180.981 33.9167 180.794 33.7168 180.793 33.0798C180.793 32.5151 180.793 31.9505 180.793 31.3879H179.58V37.7164L179.579 37.7175ZM181.994 54.29V47.9657H180.789C180.789 48.5815 180.792 49.1642 180.789 49.7481C180.785 50.2511 180.571 50.4776 180.089 50.4808C179.347 50.485 178.605 50.484 177.863 50.4808C177.307 50.4797 177.107 50.2691 177.106 49.6874C177.104 49.1089 177.106 48.5315 177.106 47.9657H175.895V54.2889H181.995L181.994 54.29ZM167.901 39.6274H193.68V39.035H167.901V39.6274ZM167.901 56.1914H193.68V55.6001H167.901V56.1914ZM172.818 31.3443H175.231V28.8431H172.818V31.3443ZM189.412 37.7196H191.827V35.2226H189.412V37.7196ZM186.339 47.9136H188.755V45.4146H186.339V47.9136ZM169.746 54.2857H172.165V51.7845H169.746V54.2857ZM182.04 23.744V24.9754H183.222V23.744H182.04ZM183.234 31.39H182.041V32.6194H183.234V31.39ZM178.347 49.1908H179.54V47.9615H178.347V49.1908Z" fill="#17B6D1"/>
<circle cx="179.5" cy="351.501" r="38" fill="white" stroke="#17B6D1" stroke-width="3"/>
<path d="M162.12 345.933V344.035C162.349 343.379 162.847 342.991 163.424 342.648C164.461 342.029 165.474 341.37 166.504 340.739C166.681 340.631 166.75 340.514 166.747 340.308C166.737 339.382 166.74 338.457 166.743 337.531C166.749 336.437 167.484 335.701 168.574 335.701C175.858 335.701 183.142 335.701 190.426 335.701C191.514 335.701 192.25 336.437 192.255 337.531C192.259 338.445 192.264 339.36 192.25 340.274C192.247 340.51 192.328 340.635 192.526 340.755C193.538 341.371 194.532 342.017 195.549 342.626C196.131 342.975 196.65 343.364 196.88 344.035V345.932C196.68 346.362 196.474 346.799 196.021 347.011C195.758 347.134 195.718 347.3 195.718 347.56C195.725 353.59 195.725 359.619 195.724 365.649C195.724 367.105 194.736 368.085 193.272 368.086C191.7 368.088 190.128 368.086 188.555 368.086C188.437 368.086 188.319 368.086 188.201 368.086C188.17 368.762 187.968 369.335 187.484 369.728C187.136 370.011 186.692 370.176 186.291 370.393H172.711C171.565 370.057 170.886 369.328 170.789 368.086C170.656 368.086 170.534 368.086 170.411 368.086C168.872 368.086 167.335 368.086 165.796 368.086C164.237 368.086 163.276 367.131 163.276 365.581C163.276 359.574 163.276 353.567 163.276 347.56C163.276 347.47 163.286 347.377 163.271 347.29C163.261 347.233 163.227 347.154 163.181 347.134C162.634 346.9 162.347 346.443 162.12 345.931V345.933ZM194.564 347.298H164.453C164.447 347.415 164.436 347.513 164.436 347.612C164.436 353.609 164.434 359.606 164.436 365.603C164.436 366.458 164.9 366.924 165.756 366.925C167.34 366.929 168.924 366.927 170.508 366.925C170.604 366.925 170.701 366.911 170.811 366.903C170.811 366.734 170.811 366.599 170.811 366.464C170.811 361.822 170.811 357.18 170.811 352.538C170.811 351.297 171.571 350.361 172.805 350.191C173.449 350.102 174.114 350.163 174.769 350.137C174.896 350.131 175.051 350.066 175.139 349.977C175.393 349.722 175.681 349.578 176.042 349.581C176.324 349.583 176.61 349.603 176.889 349.571C177.048 349.552 177.238 349.481 177.343 349.368C178.413 348.206 180.243 348.066 181.393 349.151C181.776 349.512 182.14 349.627 182.617 349.583C182.763 349.569 182.917 349.56 183.057 349.593C183.262 349.64 183.538 349.669 183.641 349.809C183.931 350.205 184.317 350.143 184.705 350.144C185.044 350.145 185.383 350.144 185.723 350.144C187.209 350.148 188.189 351.125 188.189 352.605C188.189 357.235 188.189 361.866 188.189 366.496C188.189 366.629 188.189 366.76 188.189 366.91C188.337 366.916 188.448 366.925 188.558 366.925C190.097 366.926 191.636 366.927 193.175 366.925C194.121 366.925 194.563 366.482 194.564 365.534C194.564 359.582 194.564 353.631 194.564 347.679V347.297V347.298ZM184.691 366.909V353.671H174.309V366.909H184.691ZM191.08 340.298C191.08 339.432 191.08 338.587 191.08 337.742C191.08 337.006 190.927 336.854 190.184 336.854C183.059 336.854 175.933 336.854 168.808 336.854C168.752 336.854 168.695 336.854 168.639 336.854C168.128 336.863 167.925 337.062 167.921 337.579C167.916 338.403 167.919 339.228 167.921 340.052C167.921 340.129 167.936 340.205 167.946 340.297H191.082L191.08 340.298ZM184.156 352.455C184.344 352.455 184.502 352.45 184.658 352.455C185.403 352.48 185.876 352.962 185.876 353.708C185.878 358.089 185.878 362.47 185.876 366.85C185.876 367.596 185.39 368.085 184.648 368.086C181.21 368.089 177.771 368.089 174.333 368.086C173.61 368.086 173.122 367.593 173.122 366.868C173.12 362.476 173.121 358.084 173.122 353.692C173.122 352.967 173.595 352.485 174.322 352.456C174.488 352.448 174.656 352.455 174.838 352.455V351.324C174.316 351.324 173.82 351.322 173.324 351.324C172.392 351.328 171.966 351.758 171.966 352.7C171.966 357.747 171.966 362.794 171.966 367.841C171.966 368.805 172.407 369.24 173.381 369.24C177.454 369.24 181.525 369.24 185.598 369.24C186.609 369.24 187.033 368.813 187.033 367.792C187.033 362.779 187.033 357.766 187.033 352.753C187.033 352.639 187.037 352.526 187.027 352.414C186.979 351.889 186.639 351.409 186.166 351.369C185.507 351.314 184.84 351.356 184.156 351.356V352.454V352.455ZM182.955 350.74C182.506 350.74 182.089 350.728 181.673 350.745C181.345 350.758 181.121 350.635 180.934 350.368C180.2 349.316 178.799 349.319 178.059 350.373C177.871 350.641 177.644 350.758 177.318 350.745C176.894 350.728 176.47 350.74 176.056 350.74V352.429H182.955V350.74ZM182.368 346.078V344.395H176.63V346.078H182.368ZM175.414 344.396H169.671V346.078H175.414V344.396ZM189.326 344.393H183.594V346.08H189.326V344.393ZM168.474 344.401H163.276C163.276 344.722 163.276 345.015 163.276 345.307C163.278 345.912 163.458 346.096 164.062 346.097C165.419 346.098 166.776 346.097 168.134 346.097C168.243 346.097 168.352 346.084 168.475 346.077V344.401H168.474ZM195.72 344.39H190.534V346.09C192.1 346.09 193.637 346.097 195.173 346.085C195.506 346.082 195.701 345.861 195.716 345.51C195.733 345.151 195.72 344.789 195.72 344.39ZM176.724 341.488C175.601 341.488 174.563 341.519 173.527 341.475C172.979 341.453 172.558 341.594 172.163 341.971C171.722 342.392 171.231 342.763 170.687 343.218C172.381 343.218 173.97 343.219 175.557 343.213C175.622 343.213 175.713 343.164 175.747 343.109C176.064 342.594 176.372 342.074 176.723 341.488H176.724ZM188.283 343.219C188.154 343.098 188.088 343.028 188.015 342.966C187.504 342.54 187.001 342.104 186.476 341.696C186.329 341.583 186.118 341.501 185.934 341.498C184.839 341.48 183.744 341.489 182.649 341.49C182.544 341.49 182.438 341.499 182.282 341.506C182.594 342.024 182.882 342.479 183.143 342.951C183.256 343.156 183.385 343.228 183.619 343.226C185.053 343.215 186.487 343.221 187.92 343.221C188.016 343.221 188.112 343.221 188.283 343.221V343.219ZM181.936 343.208C181.632 342.7 181.349 342.253 181.094 341.791C180.97 341.567 180.828 341.473 180.562 341.482C179.919 341.504 179.272 341.517 178.63 341.478C178.224 341.454 177.987 341.577 177.808 341.943C177.598 342.37 177.327 342.767 177.065 343.208H181.936ZM170.875 341.533C170.779 341.51 170.738 341.491 170.697 341.491C169.68 341.489 168.662 341.485 167.644 341.495C167.529 341.495 167.404 341.553 167.303 341.616C166.543 342.083 165.788 342.556 165.033 343.03C164.964 343.072 164.905 343.131 164.796 343.219C166.141 343.219 167.419 343.22 168.696 343.216C168.77 343.216 168.863 343.201 168.916 343.157C169.56 342.631 170.199 342.096 170.875 341.533ZM194.137 343.218C194.143 343.194 194.15 343.17 194.157 343.147C193.306 342.615 192.455 342.082 191.602 341.554C191.539 341.515 191.454 341.492 191.379 341.492C190.328 341.492 189.277 341.495 188.226 341.501C188.212 341.501 188.199 341.53 188.167 341.565C188.799 342.093 189.429 342.621 190.063 343.143C190.119 343.188 190.206 343.214 190.28 343.214C191.566 343.219 192.851 343.217 194.138 343.217L194.137 343.218Z" fill="#17B6D1"/>
<path d="M181.526 359.973C181.978 359.973 182.429 359.967 182.881 359.975C183.294 359.982 183.566 360.228 183.562 360.572C183.557 360.907 183.303 361.149 182.901 361.153C181.986 361.164 181.071 361.163 180.156 361.153C179.749 361.149 179.506 360.917 179.501 360.574C179.496 360.217 179.751 359.981 180.171 359.975C180.623 359.967 181.074 359.973 181.526 359.973Z" fill="#17B6D1"/>
<path d="M181.53 357.106C181.079 357.106 180.627 357.111 180.175 357.105C179.756 357.1 179.499 356.869 179.501 356.512C179.504 356.164 179.737 355.941 180.152 355.937C181.066 355.928 181.981 355.928 182.896 355.937C183.301 355.941 183.555 356.173 183.562 356.508C183.569 356.852 183.294 357.101 182.885 357.106C182.433 357.112 181.981 357.108 181.53 357.108L181.53 357.106Z" fill="#17B6D1"/>
<path d="M181.538 365.19C181.076 365.19 180.612 365.195 180.15 365.188C179.738 365.182 179.503 364.966 179.503 364.613C179.503 364.266 179.752 364.033 180.148 364.031C181.074 364.027 182 364.026 182.925 364.031C183.292 364.033 183.552 364.273 183.564 364.594C183.577 364.928 183.315 365.18 182.927 365.188C182.464 365.197 182.001 365.19 181.538 365.191V365.19Z" fill="#17B6D1"/>
<path d="M176.529 364.248C176.759 363.905 176.976 363.577 177.197 363.252C177.458 362.869 177.773 362.77 178.078 362.97C178.389 363.173 178.429 363.507 178.18 363.886C177.846 364.393 177.509 364.9 177.167 365.403C176.845 365.878 176.499 365.905 176.082 365.496C175.969 365.386 175.858 365.272 175.747 365.161C175.399 364.811 175.351 364.526 175.587 364.246C175.812 363.98 176.088 363.972 176.528 364.247L176.529 364.248Z" fill="#17B6D1"/>
<path d="M176.523 356.16C176.76 355.806 176.982 355.47 177.209 355.136C177.454 354.777 177.806 354.681 178.099 354.888C178.388 355.089 178.424 355.419 178.186 355.782C177.839 356.308 177.491 356.833 177.134 357.352C176.86 357.753 176.488 357.786 176.138 357.454C176 357.322 175.866 357.185 175.731 357.048C175.401 356.715 175.354 356.435 175.582 356.16C175.801 355.894 176.113 355.885 176.523 356.16Z" fill="#17B6D1"/>
<path d="M176.53 360.197C176.767 359.842 176.987 359.503 177.216 359.171C177.464 358.812 177.777 358.726 178.077 358.922C178.379 359.12 178.428 359.453 178.195 359.808C177.85 360.335 177.501 360.86 177.145 361.38C176.847 361.814 176.484 361.842 176.103 361.471C175.958 361.33 175.814 361.187 175.673 361.04C175.396 360.752 175.367 360.457 175.585 360.198C175.785 359.959 176.078 359.932 176.404 360.125C176.432 360.142 176.461 360.158 176.53 360.197Z" fill="#17B6D1"/>
<path d="M187.586 339.169C187.044 339.169 186.501 339.174 185.959 339.167C185.543 339.163 185.272 338.917 185.285 338.573C185.297 338.241 185.565 338.01 185.959 338.009C187.066 338.005 188.174 338.005 189.281 338.009C189.667 338.01 189.938 338.258 189.939 338.589C189.939 338.922 189.676 339.161 189.281 339.166C188.716 339.174 188.151 339.168 187.585 339.168L187.586 339.169Z" fill="#17B6D1"/>
<path d="M169.937 339.165C169.355 339.168 169.074 338.986 169.064 338.602C169.054 338.208 169.352 338.007 169.946 338.007C170.036 338.007 170.127 338.003 170.217 338.009C170.566 338.028 170.803 338.258 170.809 338.578C170.816 338.909 170.596 339.139 170.242 339.164C170.14 339.171 170.038 339.165 169.937 339.165Z" fill="#17B6D1"/>
<path d="M172.822 339.16C172.709 339.16 172.595 339.17 172.484 339.159C172.174 339.125 171.968 338.895 171.966 338.594C171.964 338.302 172.179 338.045 172.476 338.015C172.689 337.994 172.906 338 173.12 338.01C173.457 338.025 173.711 338.278 173.714 338.586C173.717 338.896 173.47 339.141 173.127 339.164C173.026 339.17 172.924 339.165 172.822 339.165C172.822 339.163 172.822 339.161 172.822 339.159V339.16Z" fill="#17B6D1"/>
<path d="M175.73 339.162C175.617 339.162 175.504 339.171 175.392 339.16C175.077 339.128 174.876 338.909 174.872 338.602C174.866 338.286 175.078 338.04 175.401 338.014C175.603 337.998 175.808 338.002 176.01 338.01C176.363 338.026 176.594 338.253 176.601 338.577C176.608 338.916 176.375 339.146 176.001 339.166C175.912 339.171 175.821 339.166 175.731 339.166C175.731 339.164 175.731 339.163 175.731 339.161L175.73 339.162Z" fill="#17B6D1"/>
<circle cx="179.5" cy="143.501" r="38" fill="white" stroke="#17B6D1" stroke-width="3"/>
<path d="M168.379 164.04C167.986 163.86 167.553 163.736 167.206 163.489C166.181 162.759 165.858 161.391 166.389 160.25C166.438 160.147 166.493 160.047 166.581 159.876C166.198 159.876 165.862 159.877 165.524 159.876C165.014 159.874 164.742 159.663 164.752 159.282C164.761 158.915 165.023 158.721 165.517 158.721C171.907 158.721 178.296 158.721 184.687 158.721C184.854 158.721 185.023 158.73 185.188 158.708C185.686 158.646 186.05 158.222 186.044 157.727C186.038 157.229 185.667 156.825 185.161 156.776C184.996 156.759 184.827 156.763 184.66 156.763C178.656 156.763 172.652 156.763 166.648 156.761C165.187 156.761 164.099 155.924 163.848 154.611C163.776 154.232 163.735 153.848 163.683 153.467C163.17 149.687 162.659 145.906 162.145 142.125C161.996 141.027 162.511 140.434 163.621 140.433C164.29 140.433 164.959 140.431 165.627 140.433C166.103 140.435 166.376 140.653 166.37 141.019C166.364 141.384 166.095 141.588 165.609 141.589C164.966 141.591 164.323 141.589 163.68 141.59C163.556 141.59 163.43 141.601 163.255 141.609C163.357 142.382 163.451 143.117 163.55 143.851C164.001 147.174 164.452 150.495 164.904 153.817C164.919 153.932 164.933 154.047 164.951 154.161C165.117 155.161 165.638 155.603 166.664 155.604C169.904 155.606 173.144 155.604 176.384 155.604C179.11 155.604 181.836 155.604 184.561 155.604C185.64 155.604 186.184 155.148 186.329 154.083C186.808 150.57 187.277 147.057 187.75 143.543C187.836 142.907 187.924 142.273 188.018 141.591C187.836 141.591 187.684 141.591 187.534 141.591C181.17 141.591 174.806 141.591 168.441 141.591C168.313 141.591 168.183 141.598 168.056 141.586C167.72 141.558 167.495 141.324 167.493 141.015C167.491 140.704 167.715 140.466 168.048 140.438C168.176 140.426 168.306 140.433 168.434 140.433C174.85 140.433 181.265 140.433 187.681 140.433C187.833 140.433 187.987 140.433 188.172 140.433C188.262 139.765 188.361 139.122 188.434 138.475C188.593 137.072 189.312 136.42 190.723 136.42C191.944 136.42 193.166 136.41 194.387 136.425C195.236 136.435 195.961 137.085 196.072 137.894C196.195 138.784 195.702 139.591 194.86 139.84C194.63 139.908 194.378 139.921 194.137 139.923C192.684 139.93 191.231 139.936 189.779 139.92C189.479 139.917 189.393 140.014 189.354 140.304C188.91 143.653 188.45 146.999 187.996 150.347C187.822 151.633 187.643 152.917 187.484 154.205C187.39 154.961 187.125 155.621 186.537 156.123C187.788 158.045 187.108 159.659 184.949 159.901C185.056 160.175 185.19 160.44 185.262 160.719C185.623 162.125 184.799 163.54 183.4 163.944C183.304 163.972 183.209 164.008 183.113 164.04H182.265C182.169 164.008 182.075 163.972 181.979 163.944C180.583 163.54 179.759 162.126 180.117 160.723C180.189 160.444 180.323 160.18 180.429 159.908H171.035C171.091 160.023 171.13 160.103 171.168 160.182C171.917 161.716 171.118 163.496 169.475 163.953C169.391 163.977 169.31 164.011 169.227 164.041H168.379V164.04ZM182.672 162.881C183.494 162.891 184.178 162.227 184.192 161.407C184.207 160.585 183.547 159.896 182.728 159.878C181.89 159.858 181.192 160.535 181.188 161.371C181.183 162.192 181.852 162.873 182.672 162.882V162.881ZM167.298 161.379C167.298 162.202 167.965 162.876 168.787 162.881C169.607 162.887 170.291 162.218 170.302 161.399C170.314 160.566 169.624 159.873 168.789 159.877C167.967 159.881 167.299 160.554 167.299 161.378L167.298 161.379ZM189.618 138.766C191.207 138.766 192.772 138.777 194.334 138.751C194.52 138.748 194.775 138.573 194.872 138.405C195.1 138.009 194.765 137.581 194.249 137.579C193.056 137.573 191.862 137.576 190.669 137.577C189.877 137.577 189.57 137.912 189.617 138.766H189.618Z" fill="#17B6D1"/>
<path d="M175.938 124.542C176.04 124.589 176.141 124.637 176.244 124.682C176.953 124.993 177.367 125.526 177.418 126.305C177.471 127.098 177.142 127.713 176.442 128.085C176.187 128.221 176.108 128.363 176.11 128.644C176.122 130.701 176.117 132.757 176.117 134.814C176.117 134.952 176.117 135.09 176.117 135.266H179.044C179.657 135.266 179.964 134.961 179.964 134.35C179.964 133.27 179.962 132.19 179.966 131.111C179.966 130.921 179.945 130.794 179.739 130.686C178.887 130.239 178.505 129.353 178.753 128.484C178.991 127.654 179.782 127.071 180.628 127.102C181.492 127.134 182.251 127.763 182.419 128.588C182.607 129.503 182.192 130.308 181.315 130.735C181.257 130.762 181.2 130.793 181.144 130.822V132.395C181.78 132.395 182.394 132.409 183.006 132.38C183.103 132.376 183.213 132.19 183.282 132.068C183.698 131.334 184.585 130.932 185.386 131.127C186.208 131.325 186.796 132.034 186.83 132.866C186.866 133.745 186.363 134.486 185.543 134.761C184.68 135.049 183.711 134.671 183.283 133.839C183.161 133.6 183.023 133.543 182.781 133.549C182.244 133.563 181.707 133.554 181.119 133.554C181.119 134.034 181.121 134.481 181.119 134.926C181.113 135.89 180.577 136.421 179.606 136.422C178.462 136.424 177.32 136.422 176.116 136.422C176.116 136.911 176.116 137.381 176.116 137.853C176.116 138.213 176.122 138.573 176.113 138.933C176.104 139.338 175.893 139.576 175.557 139.585C175.206 139.594 174.969 139.348 174.962 138.925C174.951 138.219 174.959 137.511 174.957 136.804C174.957 136.691 174.946 136.578 174.937 136.423C174.514 136.423 174.106 136.423 173.699 136.423C172.915 136.423 172.13 136.429 171.347 136.421C170.566 136.412 170.005 135.883 169.969 135.103C169.947 134.605 169.965 134.105 169.965 133.558C169.3 133.558 168.674 133.547 168.051 133.572C167.963 133.575 167.868 133.752 167.803 133.865C167.261 134.82 166.055 135.143 165.14 134.573C164.215 133.998 163.966 132.771 164.592 131.877C165.39 130.737 167.145 130.846 167.801 132.096C167.934 132.348 168.076 132.41 168.332 132.402C168.856 132.386 169.381 132.397 169.958 132.397C169.958 131.894 169.976 131.421 169.944 130.952C169.936 130.852 169.755 130.742 169.633 130.675C168.942 130.296 168.527 129.524 168.629 128.781C168.742 127.956 169.315 127.329 170.112 127.155C171.02 126.958 171.925 127.437 172.268 128.299C172.617 129.172 172.283 130.177 171.449 130.626C171.177 130.773 171.107 130.937 171.11 131.223C171.124 132.419 171.125 133.615 171.11 134.81C171.106 135.16 171.219 135.281 171.578 135.273C172.58 135.251 173.583 135.266 174.586 135.265C174.698 135.265 174.81 135.252 174.936 135.245C174.945 135.135 174.956 135.048 174.956 134.96C174.957 132.826 174.96 130.693 174.949 128.558C174.949 128.424 174.86 128.225 174.754 128.168C174.01 127.772 173.608 127.164 173.661 126.328C173.716 125.441 174.215 124.862 175.073 124.604C175.107 124.594 175.134 124.562 175.165 124.541C175.422 124.541 175.679 124.541 175.936 124.541L175.938 124.542ZM170.508 129.725C170.923 129.727 171.241 129.414 171.242 129.002C171.244 128.592 170.921 128.261 170.517 128.258C170.126 128.255 169.778 128.598 169.775 128.992C169.772 129.394 170.1 129.723 170.508 129.725ZM180.557 129.725C180.969 129.732 181.298 129.421 181.309 129.014C181.32 128.62 180.987 128.27 180.589 128.259C180.193 128.248 179.851 128.578 179.843 128.981C179.833 129.393 180.145 129.718 180.557 129.726V129.725ZM166.141 132.243C165.728 132.241 165.403 132.558 165.401 132.965C165.399 133.361 165.738 133.705 166.133 133.707C166.53 133.71 166.865 133.375 166.868 132.973C166.871 132.561 166.554 132.244 166.141 132.242V132.243ZM185.676 132.979C185.68 132.563 185.371 132.247 184.957 132.243C184.546 132.239 184.214 132.557 184.21 132.961C184.206 133.351 184.549 133.703 184.94 133.708C185.343 133.714 185.673 133.386 185.677 132.978L185.676 132.979ZM175.548 125.701C175.15 125.698 174.808 126.033 174.804 126.429C174.8 126.827 175.133 127.162 175.536 127.167C175.944 127.171 176.268 126.851 176.271 126.441C176.275 126.034 175.952 125.704 175.548 125.701Z" fill="#17B6D1"/>
<path d="M171.478 148.617C171.478 149.76 171.491 150.904 171.474 152.046C171.463 152.827 170.931 153.428 170.161 153.587C169.477 153.729 168.737 153.376 168.435 152.72C168.321 152.472 168.254 152.178 168.252 151.905C168.237 149.696 168.237 147.487 168.247 145.277C168.251 144.269 168.95 143.569 169.901 143.582C170.828 143.595 171.475 144.294 171.481 145.303C171.487 146.408 171.482 147.512 171.482 148.617H171.478ZM170.325 148.569C170.325 148.093 170.325 147.619 170.325 147.144C170.325 146.502 170.327 145.86 170.322 145.218C170.32 144.933 170.175 144.753 169.88 144.743C169.582 144.734 169.441 144.918 169.407 145.195C169.394 145.309 169.401 145.425 169.401 145.541C169.401 147.325 169.401 149.11 169.401 150.893C169.401 151.266 169.387 151.639 169.412 152.009C169.431 152.287 169.605 152.468 169.894 152.451C170.157 152.435 170.309 152.267 170.321 151.995C170.325 151.892 170.325 151.789 170.325 151.687C170.325 150.647 170.325 149.609 170.325 148.569Z" fill="#17B6D1"/>
<path d="M174.07 148.583C174.07 147.491 174.066 146.399 174.071 145.308C174.076 144.282 174.736 143.581 175.684 143.582C176.627 143.582 177.302 144.29 177.305 145.311C177.312 147.507 177.313 149.704 177.305 151.9C177.302 152.814 176.739 153.476 175.893 153.604C175.136 153.72 174.366 153.229 174.144 152.466C174.084 152.261 174.075 152.036 174.073 151.82C174.066 150.741 174.07 149.662 174.07 148.583ZM175.226 148.58C175.226 148.964 175.226 149.35 175.226 149.735C175.226 150.48 175.226 151.223 175.229 151.968C175.229 152.258 175.384 152.44 175.667 152.451C175.955 152.463 176.108 152.274 176.144 151.998C176.157 151.897 176.151 151.793 176.151 151.69C176.151 149.624 176.151 147.557 176.151 145.491C176.151 145.363 176.187 145.197 176.122 145.115C176.001 144.964 175.832 144.791 175.657 144.757C175.416 144.71 175.262 144.9 175.234 145.152C175.223 145.254 175.227 145.357 175.227 145.46C175.227 146.5 175.227 147.539 175.227 148.579L175.226 148.58Z" fill="#17B6D1"/>
<path d="M179.875 148.556C179.875 147.476 179.872 146.397 179.875 145.317C179.878 144.3 180.547 143.585 181.489 143.582C182.434 143.579 183.109 144.292 183.112 145.304C183.115 146.384 183.114 147.463 183.112 148.543C183.112 149.022 182.895 149.297 182.531 149.295C182.169 149.292 181.958 149.016 181.957 148.534C181.955 147.48 181.957 146.427 181.956 145.373C181.956 144.945 181.813 144.749 181.506 144.742C181.188 144.735 181.032 144.944 181.032 145.389C181.031 147.536 181.027 149.681 181.04 151.828C181.041 152.011 181.121 152.249 181.249 152.366C181.518 152.61 181.927 152.381 181.952 151.987C181.97 151.693 181.952 151.396 181.959 151.101C181.969 150.707 182.188 150.463 182.525 150.457C182.88 150.45 183.105 150.697 183.113 151.115C183.119 151.41 183.119 151.707 183.113 152.002C183.091 152.913 182.376 153.623 181.49 153.619C180.603 153.615 179.89 152.906 179.88 151.988C179.868 150.845 179.877 149.701 179.876 148.557L179.875 148.556Z" fill="#17B6D1"/>
<circle cx="179.5" cy="247.501" r="38" fill="white" stroke="#17B6D1" stroke-width="3"/>
<path d="M193.04 259.196C194.584 259.196 196.109 259.196 197.635 259.196C198.284 259.196 198.455 259.371 198.455 260.028C198.455 261.908 198.455 263.788 198.455 265.667C198.455 266.271 198.268 266.46 197.671 266.46C186.077 266.46 174.483 266.46 162.889 266.46C162.313 266.46 162.12 266.267 162.12 265.69C162.12 263.785 162.12 261.879 162.12 259.975C162.12 259.379 162.309 259.195 162.916 259.195C164.317 259.195 165.717 259.195 167.118 259.195C167.254 259.195 167.39 259.195 167.571 259.195V258.725C167.571 252.821 167.589 246.916 167.556 241.013C167.549 239.688 167.686 238.407 168.051 237.14C168.295 236.295 168.493 235.435 168.699 234.58C168.751 234.363 168.777 234.133 168.778 233.91C168.786 232.888 168.78 231.866 168.782 230.844C168.783 230.337 168.988 230.126 169.487 230.125C171.443 230.123 173.398 230.123 175.353 230.125C175.798 230.125 176.054 230.36 176.045 230.744C176.037 231.108 175.784 231.331 175.359 231.331C173.719 231.334 172.08 231.332 170.44 231.332C170.303 231.332 170.168 231.332 170.011 231.332V233.757H170.398C173.565 233.757 176.732 233.755 179.898 233.761C180.141 233.761 180.319 233.704 180.493 233.523C180.998 232.993 181.522 232.482 182.041 231.967C182.447 231.563 182.737 231.561 183.139 231.957C183.462 232.276 183.78 232.601 184.103 232.92C184.4 233.215 184.748 233.305 185.14 233.133C185.521 232.967 185.733 232.674 185.739 232.251C185.743 231.962 185.739 231.674 185.739 231.331C185.586 231.331 185.453 231.331 185.32 231.331C182.885 231.331 180.451 231.329 178.015 231.334C177.718 231.334 177.463 231.284 177.32 230.99C177.141 230.621 177.364 230.191 177.77 230.13C177.869 230.116 177.972 230.123 178.073 230.123C181.971 230.123 185.87 230.123 189.768 230.123C190.401 230.123 190.582 230.301 190.583 230.924C190.583 231.352 190.581 231.782 190.583 232.21C190.586 232.642 190.766 232.968 191.177 233.131C191.581 233.293 191.939 233.215 192.246 232.898C192.562 232.571 192.884 232.252 193.208 231.933C193.569 231.58 193.877 231.567 194.225 231.912C195.05 232.728 195.871 233.549 196.686 234.375C197.001 234.694 196.995 235.01 196.68 235.337C196.365 235.665 196.042 235.984 195.715 236.3C195.394 236.609 195.258 236.962 195.442 237.39C195.627 237.822 195.966 238.01 196.433 237.999C196.887 237.988 197.341 237.992 197.795 237.999C198.226 238.005 198.451 238.222 198.453 238.65C198.459 239.836 198.459 241.022 198.453 242.208C198.451 242.611 198.221 242.831 197.813 242.837C197.347 242.845 196.88 242.842 196.413 242.838C195.968 242.835 195.624 243.001 195.45 243.428C195.277 243.848 195.372 244.21 195.702 244.525C196.022 244.829 196.332 245.144 196.641 245.459C197.006 245.831 197.009 246.133 196.644 246.502C195.898 247.255 195.146 248.002 194.397 248.751C193.847 249.302 193.658 249.308 193.04 248.758V259.193V259.196ZM186.922 249.505H189.373C189.373 249.151 189.369 248.848 189.373 248.547C189.387 247.619 189.833 246.966 190.669 246.592C191.512 246.215 192.396 246.379 193.045 247.014C193.269 247.233 193.474 247.474 193.673 247.689C194.272 247.089 194.833 246.529 195.428 245.934C195.209 245.73 194.969 245.524 194.749 245.299C194.127 244.657 193.955 243.761 194.319 242.958C194.7 242.116 195.341 241.635 196.293 241.631C196.603 241.63 196.914 241.631 197.246 241.631C197.246 241.191 197.246 240.801 197.246 240.412C197.246 240.023 197.246 239.617 197.246 239.206C196.885 239.206 196.583 239.211 196.281 239.206C195.355 239.187 194.692 238.744 194.333 237.902C193.969 237.05 194.089 236.247 194.734 235.558C194.956 235.321 195.207 235.112 195.479 234.858C195.151 234.546 194.861 234.283 194.587 234.005C194.306 233.72 194.041 233.42 193.739 233.093C193.469 233.38 193.262 233.619 193.035 233.836C192.388 234.457 191.493 234.625 190.692 234.257C189.852 233.871 189.375 233.227 189.373 232.276C189.373 231.967 189.373 231.657 189.373 231.353H186.948C186.948 231.672 186.949 231.971 186.948 232.27C186.944 233.172 186.452 233.914 185.636 234.258C184.787 234.614 183.914 234.454 183.262 233.813C183.041 233.595 182.832 233.366 182.663 233.188C182.065 233.785 181.508 234.343 180.936 234.915C181.144 235.119 181.394 235.334 181.609 235.58C182.215 236.269 182.363 237.057 181.99 237.897C181.621 238.726 180.978 239.197 180.043 239.207C179.731 239.21 179.419 239.207 179.097 239.207V241.632C179.421 241.632 179.722 241.628 180.022 241.632C180.93 241.645 181.592 242.062 181.962 242.888C182.35 243.75 182.242 244.562 181.595 245.271C181.375 245.512 181.119 245.721 180.891 245.934C181.487 246.528 182.048 247.088 182.631 247.671C183.392 246.769 184.267 246.037 185.577 246.565C186.9 247.097 187.06 248.221 186.921 249.507L186.922 249.505ZM163.345 265.226H197.216V260.425H163.345V265.226ZM171.204 259.178V258.701C171.204 255.106 171.204 251.511 171.204 247.916C171.204 247.257 171.374 247.082 172.021 247.082C174.304 247.082 176.588 247.082 178.87 247.082C179.5 247.082 179.68 247.261 179.68 247.888C179.68 251.508 179.68 255.128 179.68 258.748C179.68 258.893 179.68 259.038 179.68 259.176H191.77V247.685C191.137 247.536 190.607 247.932 190.585 248.565C190.569 249.006 190.582 249.448 190.581 249.89C190.581 250.451 190.507 250.558 189.975 250.762C189.975 251.687 189.975 252.62 189.975 253.552C189.975 254.158 189.788 254.348 189.193 254.348C186.885 254.348 184.576 254.348 182.268 254.348C181.692 254.348 181.499 254.155 181.499 253.579C181.498 252.128 181.495 250.677 181.502 249.226C181.503 248.97 181.551 248.714 181.583 248.399C180.982 247.803 180.337 247.166 179.695 246.524C179.307 246.135 179.306 245.84 179.687 245.456C179.93 245.209 180.181 244.971 180.407 244.75C179.915 244.617 179.431 244.553 179.014 244.354C178.584 244.149 178.217 243.81 177.812 243.522C177.203 244.234 176.421 244.658 175.434 244.658C174.437 244.658 173.656 244.207 173.022 243.475C171.693 244.83 170.78 244.964 168.798 244.119V259.178H171.204ZM172.429 259.175H178.448V248.318H172.429V259.175ZM185.719 249.529H182.738V253.119H188.743V250.714C188.091 250.714 187.462 250.694 186.835 250.719C185.957 250.752 185.667 250.621 185.737 249.665C185.74 249.629 185.728 249.591 185.719 249.53V249.529ZM177.233 238.584V234.996H173.643V238.584H177.233ZM168.784 239.826C168.784 240.489 168.751 241.12 168.791 241.746C168.849 242.682 169.593 243.388 170.514 243.443C171.397 243.495 172.236 242.868 172.355 241.94C172.444 241.251 172.372 240.542 172.372 239.826H168.783H168.784ZM177.215 239.832H173.631C173.631 240.493 173.592 241.136 173.64 241.773C173.708 242.709 174.471 243.409 175.388 243.444C176.263 243.478 177.08 242.862 177.198 241.95C177.287 241.26 177.216 240.55 177.216 239.832H177.215ZM169.859 234.982C169.561 236.183 169.264 237.372 168.964 238.576H172.386V234.982H169.859ZM178.467 237.97C178.553 237.984 178.59 237.994 178.626 237.994C179.055 237.996 179.484 237.999 179.913 237.995C180.4 237.991 180.725 237.789 180.873 237.401C181.035 236.977 180.934 236.625 180.613 236.302C180.207 235.892 179.832 235.454 179.438 235.032C179.402 234.994 179.333 234.969 179.278 234.968C179.018 234.962 178.756 234.965 178.466 234.965C178.466 235.092 178.466 235.178 178.466 235.264C178.466 236.158 178.466 237.052 178.466 237.969L178.467 237.97ZM185.67 248.271C185.535 247.865 185.245 247.694 184.882 247.634C184.368 247.551 184.089 247.898 183.772 248.271H185.67ZM178.982 242.821C179.49 243.397 180.174 243.565 180.795 243.31C180.357 242.6 179.657 242.915 178.982 242.821Z" fill="#17B6D1"/>
<path d="M191.188 240.445C191.186 242.113 189.831 243.449 188.146 243.446C186.47 243.443 185.134 242.096 185.134 240.414C185.134 238.735 186.477 237.393 188.156 237.393C189.853 237.393 191.19 238.739 191.188 240.445ZM186.347 240.429C186.354 241.408 187.181 242.23 188.163 242.235C189.135 242.24 189.976 241.403 189.977 240.429C189.978 239.434 189.132 238.592 188.143 238.606C187.161 238.62 186.339 239.454 186.347 240.429Z" fill="#17B6D1"/>
<path d="M191.798 238.646C191.798 238.24 192.044 237.998 192.456 237.999C192.861 238 193.155 238.282 193.157 238.67C193.159 239.055 192.849 239.363 192.464 239.356C192.083 239.35 191.798 239.045 191.798 238.645V238.646Z" fill="#17B6D1"/>
<path d="M190.581 244.693C190.587 245.098 190.312 245.401 189.928 245.413C189.544 245.424 189.227 245.122 189.224 244.739C189.22 244.355 189.517 244.061 189.915 244.054C190.326 244.047 190.576 244.286 190.581 244.693Z" fill="#17B6D1"/>
<path d="M183.85 242.84C183.448 242.836 183.167 242.569 183.17 242.196C183.173 241.826 183.469 241.553 183.859 241.559C184.269 241.565 184.528 241.817 184.526 242.209C184.524 242.606 184.27 242.844 183.85 242.84Z" fill="#17B6D1"/>
<path d="M185.741 236.099C185.743 235.692 185.977 235.429 186.34 235.427C186.709 235.425 187.026 235.784 187.016 236.192C187.008 236.534 186.73 236.787 186.365 236.785C185.971 236.782 185.739 236.528 185.741 236.1V236.099Z" fill="#17B6D1"/>
<path d="M190.582 236.097C190.584 236.525 190.351 236.781 189.958 236.784C189.593 236.787 189.314 236.535 189.305 236.193C189.294 235.786 189.611 235.425 189.979 235.427C190.343 235.428 190.58 235.692 190.582 236.097Z" fill="#17B6D1"/>
<path d="M193.154 242.247C193.148 242.58 192.882 242.84 192.547 242.84C192.161 242.84 191.787 242.483 191.802 242.131C191.816 241.804 192.126 241.521 192.46 241.529C192.817 241.539 193.162 241.894 193.154 242.247Z" fill="#17B6D1"/>
<path d="M186.435 244.061C186.763 244.066 187.054 244.368 187.052 244.704C187.05 245.059 186.702 245.411 186.348 245.413C185.999 245.415 185.729 245.134 185.741 244.782C185.753 244.413 186.098 244.055 186.435 244.062V244.061Z" fill="#17B6D1"/>
<path d="M184.525 238.625C184.524 238.985 184.241 239.276 183.89 239.278C183.542 239.28 183.245 238.985 183.243 238.633C183.241 238.267 183.511 238 183.884 237.999C184.271 237.999 184.526 238.248 184.525 238.624V238.625Z" fill="#17B6D1"/>
<path d="M169.385 262.828C168.996 262.828 168.606 262.834 168.217 262.826C167.811 262.819 167.561 262.571 167.572 262.204C167.582 261.855 167.827 261.625 168.218 261.622C168.997 261.616 169.776 261.616 170.555 261.622C170.945 261.625 171.192 261.856 171.201 262.205C171.211 262.572 170.96 262.819 170.554 262.827C170.164 262.834 169.775 262.829 169.385 262.829V262.828Z" fill="#17B6D1"/>
<path d="M190.555 262.828C190.166 262.828 189.776 262.835 189.387 262.826C189.006 262.817 188.763 262.569 188.767 262.216C188.771 261.866 189.016 261.626 189.402 261.622C190.193 261.615 190.985 261.614 191.776 261.622C192.157 261.626 192.4 261.878 192.396 262.23C192.392 262.58 192.146 262.818 191.761 262.826C191.36 262.834 190.957 262.828 190.555 262.828Z" fill="#17B6D1"/>
<path d="M180.883 264.039C180.493 264.039 180.104 264.045 179.714 264.037C179.329 264.029 179.084 263.791 179.081 263.441C179.077 263.089 179.32 262.837 179.7 262.833C180.491 262.825 181.284 262.826 182.075 262.833C182.459 262.836 182.706 263.077 182.71 263.427C182.714 263.78 182.47 264.028 182.089 264.037C181.687 264.046 181.285 264.039 180.883 264.039Z" fill="#17B6D1"/>
<path d="M7.47159 28.5635C7.41856 28.0673 7.19508 27.6809 6.80114 27.4044C6.41099 27.1279 5.90341 26.9896 5.27841 26.9896C4.83902 26.9896 4.46212 27.0559 4.14773 27.1885C3.83333 27.3211 3.5928 27.501 3.42614 27.7282C3.25947 27.9555 3.17424 28.215 3.17045 28.5067C3.17045 28.7491 3.22538 28.9593 3.33523 29.1373C3.44886 29.3154 3.60227 29.4669 3.79545 29.5919C3.98864 29.7131 4.20265 29.8154 4.4375 29.8987C4.67235 29.982 4.90909 30.0521 5.14773 30.1089L6.23864 30.3817C6.67803 30.4839 7.10038 30.6222 7.50568 30.7964C7.91477 30.9707 8.2803 31.1904 8.60227 31.4555C8.92803 31.7207 9.18561 32.0407 9.375 32.4157C9.56439 32.7907 9.65909 33.2301 9.65909 33.7339C9.65909 34.4157 9.48485 35.0161 9.13636 35.5351C8.78788 36.0502 8.28409 36.4536 7.625 36.7453C6.9697 37.0332 6.17614 37.1771 5.24432 37.1771C4.33902 37.1771 3.55303 37.037 2.88636 36.7567C2.22348 36.4764 1.70455 36.0673 1.32955 35.5294C0.958333 34.9915 0.757576 34.3362 0.727273 33.5635H2.80114C2.83144 33.9688 2.95644 34.3059 3.17614 34.5748C3.39583 34.8438 3.68182 35.0445 4.03409 35.1771C4.39015 35.3097 4.78788 35.376 5.22727 35.376C5.68561 35.376 6.08712 35.3078 6.43182 35.1714C6.7803 35.0313 7.05303 34.8381 7.25 34.5919C7.44697 34.3419 7.54735 34.0502 7.55114 33.7169C7.54735 33.4139 7.45833 33.1639 7.28409 32.9669C7.10985 32.7661 6.86553 32.5995 6.55114 32.4669C6.24053 32.3305 5.87689 32.2093 5.46023 32.1032L4.13636 31.7623C3.17803 31.5161 2.42045 31.143 1.86364 30.643C1.31061 30.1392 1.03409 29.4707 1.03409 28.6373C1.03409 27.9517 1.2197 27.3514 1.59091 26.8362C1.96591 26.3211 2.47538 25.9214 3.11932 25.6373C3.76326 25.3495 4.49242 25.2055 5.30682 25.2055C6.13258 25.2055 6.85606 25.3495 7.47727 25.6373C8.10227 25.9214 8.5928 26.3173 8.94886 26.8248C9.30492 27.3286 9.48864 27.9082 9.5 28.5635H7.47159ZM15.8054 28.2737V29.8646H10.7884V28.2737H15.8054ZM12.027 26.1828H14.0838V34.376C14.0838 34.6525 14.1255 34.8646 14.2088 35.0123C14.2959 35.1563 14.4096 35.2548 14.5497 35.3078C14.6899 35.3608 14.8452 35.3873 15.0156 35.3873C15.1444 35.3873 15.2618 35.3779 15.3679 35.3589C15.4777 35.34 15.5611 35.3229 15.6179 35.3078L15.9645 36.9157C15.8546 36.9536 15.6974 36.9953 15.4929 37.0407C15.2921 37.0862 15.0459 37.1127 14.7543 37.1203C14.2391 37.1354 13.7751 37.0578 13.3622 36.8873C12.9493 36.7131 12.6217 36.4442 12.3793 36.0805C12.1406 35.7169 12.0232 35.2623 12.027 34.7169V26.1828ZM21.2386 37.1714C20.3864 37.1714 19.6477 36.9839 19.0227 36.6089C18.3977 36.2339 17.9129 35.7093 17.5682 35.0351C17.2273 34.3608 17.0568 33.5729 17.0568 32.6714C17.0568 31.7699 17.2273 30.9801 17.5682 30.3021C17.9129 29.6241 18.3977 29.0976 19.0227 28.7226C19.6477 28.3476 20.3864 28.1601 21.2386 28.1601C22.0909 28.1601 22.8295 28.3476 23.4545 28.7226C24.0795 29.0976 24.5625 29.6241 24.9034 30.3021C25.2481 30.9801 25.4205 31.7699 25.4205 32.6714C25.4205 33.5729 25.2481 34.3608 24.9034 35.0351C24.5625 35.7093 24.0795 36.2339 23.4545 36.6089C22.8295 36.9839 22.0909 37.1714 21.2386 37.1714ZM21.25 35.5237C21.7121 35.5237 22.0985 35.3968 22.4091 35.143C22.7197 34.8854 22.9508 34.5407 23.1023 34.1089C23.2576 33.6771 23.3352 33.1961 23.3352 32.6657C23.3352 32.1317 23.2576 31.6487 23.1023 31.2169C22.9508 30.7813 22.7197 30.4347 22.4091 30.1771C22.0985 29.9195 21.7121 29.7907 21.25 29.7907C20.7765 29.7907 20.3826 29.9195 20.0682 30.1771C19.7576 30.4347 19.5246 30.7813 19.3693 31.2169C19.2178 31.6487 19.142 32.1317 19.142 32.6657C19.142 33.1961 19.2178 33.6771 19.3693 34.1089C19.5246 34.5407 19.7576 34.8854 20.0682 35.143C20.3826 35.3968 20.7765 35.5237 21.25 35.5237ZM27.1662 37.001V28.2737H29.1605V29.7282H29.2514C29.4105 29.2245 29.6832 28.8362 30.0696 28.5635C30.4598 28.287 30.9048 28.1487 31.4048 28.1487C31.5185 28.1487 31.6454 28.1544 31.7855 28.1657C31.9295 28.1733 32.0488 28.1866 32.1435 28.2055V30.0976C32.0563 30.0673 31.9181 30.0407 31.7287 30.018C31.5431 29.9915 31.3632 29.9782 31.1889 29.9782C30.8139 29.9782 30.4768 30.0597 30.1776 30.2226C29.8821 30.3817 29.6491 30.6032 29.4787 30.8873C29.3082 31.1714 29.223 31.4991 29.223 31.8703V37.001H27.1662ZM37.0142 37.1714C36.1392 37.1714 35.3835 36.9896 34.7472 36.626C34.1146 36.2586 33.6278 35.7396 33.2869 35.0692C32.946 34.3949 32.7756 33.6014 32.7756 32.6885C32.7756 31.7907 32.946 31.0029 33.2869 30.3248C33.6316 29.643 34.1127 29.1127 34.7301 28.7339C35.3475 28.3514 36.0729 28.1601 36.9062 28.1601C37.4441 28.1601 37.9517 28.2472 38.429 28.4214C38.91 28.5919 39.3343 28.857 39.7017 29.2169C40.0729 29.5767 40.3646 30.0351 40.5767 30.5919C40.7888 31.1449 40.8949 31.804 40.8949 32.5692V33.1998H33.7415V31.8135H38.9233C38.9195 31.4195 38.8343 31.0692 38.6676 30.7623C38.5009 30.4517 38.268 30.2074 37.9688 30.0294C37.6733 29.8514 37.3286 29.7623 36.9347 29.7623C36.5142 29.7623 36.1449 29.8646 35.8267 30.0692C35.5085 30.2699 35.2604 30.5351 35.0824 30.8646C34.9081 31.1904 34.8191 31.5483 34.8153 31.9385V33.1487C34.8153 33.6563 34.9081 34.0919 35.0938 34.4555C35.2794 34.8154 35.5388 35.0919 35.8722 35.2851C36.2055 35.4745 36.5956 35.5692 37.0426 35.5692C37.3419 35.5692 37.6127 35.5275 37.8551 35.4442C38.0975 35.357 38.3078 35.2301 38.4858 35.0635C38.6638 34.8968 38.7983 34.6904 38.8892 34.4442L40.8097 34.6601C40.6884 35.1676 40.4574 35.6108 40.1165 35.9896C39.7794 36.3646 39.3475 36.6563 38.821 36.8646C38.2945 37.0692 37.6922 37.1714 37.0142 37.1714ZM3.25568 44.3646V56.001H1.14773V44.3646H3.25568ZM7.50426 50.8873V56.001H5.44744V47.2737H7.41335V48.7567H7.51562C7.71638 48.268 8.03646 47.8798 8.47585 47.5919C8.91903 47.304 9.46638 47.1601 10.1179 47.1601C10.7202 47.1601 11.2448 47.2889 11.6918 47.5464C12.1425 47.804 12.491 48.1771 12.7372 48.6657C12.9872 49.1544 13.1103 49.7472 13.1065 50.4442V56.001H11.0497V50.7623C11.0497 50.179 10.8982 49.7226 10.5952 49.393C10.2959 49.0635 9.88116 48.8987 9.35085 48.8987C8.991 48.8987 8.67093 48.9782 8.39062 49.1373C8.11411 49.2926 7.89631 49.518 7.73722 49.8135C7.58191 50.1089 7.50426 50.4669 7.50426 50.8873ZM19.5554 47.2737V48.8646H14.5384V47.2737H19.5554ZM15.777 45.1828H17.8338V53.376C17.8338 53.6525 17.8755 53.8646 17.9588 54.0123C18.0459 54.1563 18.1596 54.2548 18.2997 54.3078C18.4399 54.3608 18.5952 54.3873 18.7656 54.3873C18.8944 54.3873 19.0118 54.3779 19.1179 54.3589C19.2277 54.34 19.3111 54.3229 19.3679 54.3078L19.7145 55.9157C19.6046 55.9536 19.4474 55.9953 19.2429 56.0407C19.0421 56.0862 18.7959 56.1127 18.5043 56.1203C17.9891 56.1354 17.5251 56.0578 17.1122 55.8873C16.6993 55.7131 16.3717 55.4442 16.1293 55.0805C15.8906 54.7169 15.7732 54.2623 15.777 53.7169V45.1828ZM25.0455 56.1714C24.1705 56.1714 23.4148 55.9896 22.7784 55.626C22.1458 55.2586 21.6591 54.7396 21.3182 54.0692C20.9773 53.3949 20.8068 52.6014 20.8068 51.6885C20.8068 50.7907 20.9773 50.0029 21.3182 49.3248C21.6629 48.643 22.1439 48.1127 22.7614 47.7339C23.3788 47.3514 24.1042 47.1601 24.9375 47.1601C25.4754 47.1601 25.983 47.2472 26.4602 47.4214C26.9413 47.5919 27.3655 47.857 27.733 48.2169C28.1042 48.5767 28.3958 49.0351 28.608 49.5919C28.8201 50.1449 28.9261 50.804 28.9261 51.5692V52.1998H21.7727V50.8135H26.9545C26.9508 50.4195 26.8655 50.0692 26.6989 49.7623C26.5322 49.4517 26.2992 49.2074 26 49.0294C25.7045 48.8514 25.3598 48.7623 24.9659 48.7623C24.5455 48.7623 24.1761 48.8646 23.858 49.0692C23.5398 49.2699 23.2917 49.5351 23.1136 49.8646C22.9394 50.1904 22.8504 50.5483 22.8466 50.9385V52.1487C22.8466 52.6563 22.9394 53.0919 23.125 53.4555C23.3106 53.8154 23.5701 54.0919 23.9034 54.2851C24.2367 54.4745 24.6269 54.5692 25.0739 54.5692C25.3731 54.5692 25.6439 54.5275 25.8864 54.4442C26.1288 54.357 26.339 54.2301 26.517 54.0635C26.6951 53.8968 26.8295 53.6904 26.9205 53.4442L28.8409 53.6601C28.7197 54.1676 28.4886 54.6108 28.1477 54.9896C27.8106 55.3646 27.3788 55.6563 26.8523 55.8646C26.3258 56.0692 25.7235 56.1714 25.0455 56.1714ZM32.723 44.3646V56.001H30.6662V44.3646H32.723ZM36.8949 44.3646V56.001H34.8381V44.3646H36.8949ZM39.0099 56.001V47.2737H41.0668V56.001H39.0099ZM40.044 46.0351C39.7183 46.0351 39.438 45.9271 39.2031 45.7112C38.9683 45.4915 38.8509 45.2282 38.8509 44.9214C38.8509 44.6108 38.9683 44.3476 39.2031 44.1317C39.438 43.912 39.7183 43.8021 40.044 43.8021C40.3736 43.8021 40.6539 43.912 40.8849 44.1317C41.1198 44.3476 41.2372 44.6108 41.2372 44.9214C41.2372 45.2282 41.1198 45.4915 40.8849 45.7112C40.6539 45.9271 40.3736 46.0351 40.044 46.0351ZM46.9773 59.4555C46.2386 59.4555 45.6042 59.3551 45.0739 59.1544C44.5436 58.9574 44.1174 58.6923 43.7955 58.3589C43.4735 58.0256 43.25 57.6563 43.125 57.251L44.9773 56.8021C45.0606 56.9726 45.1818 57.1411 45.3409 57.3078C45.5 57.4782 45.714 57.6184 45.983 57.7282C46.2557 57.8419 46.5985 57.8987 47.0114 57.8987C47.5947 57.8987 48.0777 57.7567 48.4602 57.4726C48.8428 57.1923 49.0341 56.7301 49.0341 56.0862V54.4328H48.9318C48.8258 54.6449 48.6705 54.8627 48.4659 55.0862C48.2652 55.3097 47.9981 55.4972 47.6648 55.6487C47.3352 55.8002 46.9205 55.876 46.4205 55.876C45.75 55.876 45.142 55.7188 44.5966 55.4044C44.0549 55.0862 43.6231 54.6127 43.3011 53.9839C42.983 53.3514 42.8239 52.5597 42.8239 51.6089C42.8239 50.6506 42.983 49.8419 43.3011 49.1828C43.6231 48.5199 44.0568 48.018 44.6023 47.6771C45.1477 47.3324 45.7557 47.1601 46.4261 47.1601C46.9375 47.1601 47.358 47.2472 47.6875 47.4214C48.0208 47.5919 48.286 47.7983 48.483 48.0407C48.6799 48.2794 48.8295 48.5048 48.9318 48.7169H49.0455V47.2737H51.0739V56.143C51.0739 56.8892 50.8958 57.5067 50.5398 57.9953C50.1837 58.4839 49.697 58.8495 49.0795 59.0919C48.4621 59.3343 47.7614 59.4555 46.9773 59.4555ZM46.9943 54.2623C47.4299 54.2623 47.8011 54.1563 48.108 53.9442C48.4148 53.732 48.6477 53.4271 48.8068 53.0294C48.9659 52.6317 49.0455 52.1544 49.0455 51.5976C49.0455 51.0483 48.9659 50.5673 48.8068 50.1544C48.6515 49.7415 48.4205 49.4214 48.1136 49.1942C47.8106 48.9631 47.4375 48.8476 46.9943 48.8476C46.536 48.8476 46.1534 48.9669 45.8466 49.2055C45.5398 49.4442 45.3087 49.7718 45.1534 50.1885C44.9981 50.6014 44.9205 51.0711 44.9205 51.5976C44.9205 52.1317 44.9981 52.5995 45.1534 53.001C45.3125 53.3987 45.5455 53.7093 45.8523 53.9328C46.1629 54.1525 46.5436 54.2623 46.9943 54.2623ZM57.0455 56.1714C56.1705 56.1714 55.4148 55.9896 54.7784 55.626C54.1458 55.2586 53.6591 54.7396 53.3182 54.0692C52.9773 53.3949 52.8068 52.6014 52.8068 51.6885C52.8068 50.7907 52.9773 50.0029 53.3182 49.3248C53.6629 48.643 54.1439 48.1127 54.7614 47.7339C55.3788 47.3514 56.1042 47.1601 56.9375 47.1601C57.4754 47.1601 57.983 47.2472 58.4602 47.4214C58.9413 47.5919 59.3655 47.857 59.733 48.2169C60.1042 48.5767 60.3958 49.0351 60.608 49.5919C60.8201 50.1449 60.9261 50.804 60.9261 51.5692V52.1998H53.7727V50.8135H58.9545C58.9508 50.4195 58.8655 50.0692 58.6989 49.7623C58.5322 49.4517 58.2992 49.2074 58 49.0294C57.7045 48.8514 57.3598 48.7623 56.9659 48.7623C56.5455 48.7623 56.1761 48.8646 55.858 49.0692C55.5398 49.2699 55.2917 49.5351 55.1136 49.8646C54.9394 50.1904 54.8504 50.5483 54.8466 50.9385V52.1487C54.8466 52.6563 54.9394 53.0919 55.125 53.4555C55.3106 53.8154 55.5701 54.0919 55.9034 54.2851C56.2367 54.4745 56.6269 54.5692 57.0739 54.5692C57.3731 54.5692 57.6439 54.5275 57.8864 54.4442C58.1288 54.357 58.339 54.2301 58.517 54.0635C58.6951 53.8968 58.8295 53.6904 58.9205 53.4442L60.8409 53.6601C60.7197 54.1676 60.4886 54.6108 60.1477 54.9896C59.8106 55.3646 59.3788 55.6563 58.8523 55.8646C58.3258 56.0692 57.7235 56.1714 57.0455 56.1714ZM64.723 50.8873V56.001H62.6662V47.2737H64.6321V48.7567H64.7344C64.9351 48.268 65.2552 47.8798 65.6946 47.5919C66.1378 47.304 66.6851 47.1601 67.3366 47.1601C67.9389 47.1601 68.4635 47.2889 68.9105 47.5464C69.3613 47.804 69.7098 48.1771 69.956 48.6657C70.206 49.1544 70.3291 49.7472 70.3253 50.4442V56.001H68.2685V50.7623C68.2685 50.179 68.117 49.7226 67.8139 49.393C67.5147 49.0635 67.0999 48.8987 66.5696 48.8987C66.2098 48.8987 65.8897 48.9782 65.6094 49.1373C65.3329 49.2926 65.1151 49.518 64.956 49.8135C64.8007 50.1089 64.723 50.4669 64.723 50.8873ZM76.223 56.1714C75.3518 56.1714 74.6037 55.9801 73.9787 55.5976C73.3575 55.215 72.8783 54.6866 72.5412 54.0123C72.2079 53.3343 72.0412 52.554 72.0412 51.6714C72.0412 50.7851 72.2116 50.0029 72.5526 49.3248C72.8935 48.643 73.3745 48.1127 73.9957 47.7339C74.6207 47.3514 75.3594 47.1601 76.2116 47.1601C76.92 47.1601 77.5469 47.2907 78.0923 47.5521C78.6416 47.8097 79.0791 48.1752 79.4048 48.6487C79.7306 49.1184 79.9162 49.6676 79.9616 50.2964H77.9957C77.9162 49.876 77.7268 49.5256 77.4276 49.2453C77.1321 48.9612 76.7363 48.8192 76.2401 48.8192C75.8196 48.8192 75.4503 48.9328 75.1321 49.1601C74.8139 49.3836 74.5658 49.7055 74.3878 50.126C74.2135 50.5464 74.1264 51.0502 74.1264 51.6373C74.1264 52.232 74.2135 52.7434 74.3878 53.1714C74.562 53.5957 74.8063 53.9233 75.1207 54.1544C75.4389 54.3817 75.812 54.4953 76.2401 54.4953C76.5431 54.4953 76.8139 54.4385 77.0526 54.3248C77.295 54.2074 77.4976 54.0389 77.6605 53.8192C77.8234 53.5995 77.9351 53.3324 77.9957 53.018H79.9616C79.9124 53.6354 79.7306 54.1828 79.4162 54.6601C79.1018 55.1336 78.6738 55.5048 78.1321 55.7737C77.5904 56.0389 76.9541 56.1714 76.223 56.1714ZM85.5142 56.1714C84.6392 56.1714 83.8835 55.9896 83.2472 55.626C82.6146 55.2586 82.1278 54.7396 81.7869 54.0692C81.446 53.3949 81.2756 52.6014 81.2756 51.6885C81.2756 50.7907 81.446 50.0029 81.7869 49.3248C82.1316 48.643 82.6127 48.1127 83.2301 47.7339C83.8475 47.3514 84.5729 47.1601 85.4062 47.1601C85.9441 47.1601 86.4517 47.2472 86.929 47.4214C87.41 47.5919 87.8343 47.857 88.2017 48.2169C88.5729 48.5767 88.8646 49.0351 89.0767 49.5919C89.2888 50.1449 89.3949 50.804 89.3949 51.5692V52.1998H82.2415V50.8135H87.4233C87.4195 50.4195 87.3343 50.0692 87.1676 49.7623C87.0009 49.4517 86.768 49.2074 86.4688 49.0294C86.1733 48.8514 85.8286 48.7623 85.4347 48.7623C85.0142 48.7623 84.6449 48.8646 84.3267 49.0692C84.0085 49.2699 83.7604 49.5351 83.5824 49.8646C83.4081 50.1904 83.3191 50.5483 83.3153 50.9385V52.1487C83.3153 52.6563 83.4081 53.0919 83.5938 53.4555C83.7794 53.8154 84.0388 54.0919 84.3722 54.2851C84.7055 54.4745 85.0956 54.5692 85.5426 54.5692C85.8419 54.5692 86.1127 54.5275 86.3551 54.4442C86.5975 54.357 86.8078 54.2301 86.9858 54.0635C87.1638 53.8968 87.2983 53.6904 87.3892 53.4442L89.3097 53.6601C89.1884 54.1676 88.9574 54.6108 88.6165 54.9896C88.2794 55.3646 87.8475 55.6563 87.321 55.8646C86.7945 56.0692 86.1922 56.1714 85.5142 56.1714Z" fill="black"/>
<path d="M7.47159 126.563C7.41856 126.067 7.19508 125.681 6.80114 125.404C6.41099 125.128 5.90341 124.99 5.27841 124.99C4.83902 124.99 4.46212 125.056 4.14773 125.188C3.83333 125.321 3.5928 125.501 3.42614 125.728C3.25947 125.956 3.17424 126.215 3.17045 126.507C3.17045 126.749 3.22538 126.959 3.33523 127.137C3.44886 127.315 3.60227 127.467 3.79545 127.592C3.98864 127.713 4.20265 127.815 4.4375 127.899C4.67235 127.982 4.90909 128.052 5.14773 128.109L6.23864 128.382C6.67803 128.484 7.10038 128.622 7.50568 128.796C7.91477 128.971 8.2803 129.19 8.60227 129.456C8.92803 129.721 9.18561 130.041 9.375 130.416C9.56439 130.791 9.65909 131.23 9.65909 131.734C9.65909 132.416 9.48485 133.016 9.13636 133.535C8.78788 134.05 8.28409 134.454 7.625 134.745C6.9697 135.033 6.17614 135.177 5.24432 135.177C4.33902 135.177 3.55303 135.037 2.88636 134.757C2.22348 134.476 1.70455 134.067 1.32955 133.529C0.958333 132.992 0.757576 132.336 0.727273 131.563H2.80114C2.83144 131.969 2.95644 132.306 3.17614 132.575C3.39583 132.844 3.68182 133.045 4.03409 133.177C4.39015 133.31 4.78788 133.376 5.22727 133.376C5.68561 133.376 6.08712 133.308 6.43182 133.171C6.7803 133.031 7.05303 132.838 7.25 132.592C7.44697 132.342 7.54735 132.05 7.55114 131.717C7.54735 131.414 7.45833 131.164 7.28409 130.967C7.10985 130.766 6.86553 130.599 6.55114 130.467C6.24053 130.331 5.87689 130.209 5.46023 130.103L4.13636 129.762C3.17803 129.516 2.42045 129.143 1.86364 128.643C1.31061 128.139 1.03409 127.471 1.03409 126.637C1.03409 125.952 1.2197 125.351 1.59091 124.836C1.96591 124.321 2.47538 123.921 3.11932 123.637C3.76326 123.349 4.49242 123.206 5.30682 123.206C6.13258 123.206 6.85606 123.349 7.47727 123.637C8.10227 123.921 8.5928 124.317 8.94886 124.825C9.30492 125.329 9.48864 125.908 9.5 126.563H7.47159ZM15.8054 126.274V127.865H10.7884V126.274H15.8054ZM12.027 124.183H14.0838V132.376C14.0838 132.652 14.1255 132.865 14.2088 133.012C14.2959 133.156 14.4096 133.255 14.5497 133.308C14.6899 133.361 14.8452 133.387 15.0156 133.387C15.1444 133.387 15.2618 133.378 15.3679 133.359C15.4777 133.34 15.5611 133.323 15.6179 133.308L15.9645 134.916C15.8546 134.954 15.6974 134.995 15.4929 135.041C15.2921 135.086 15.0459 135.113 14.7543 135.12C14.2391 135.135 13.7751 135.058 13.3622 134.887C12.9493 134.713 12.6217 134.444 12.3793 134.081C12.1406 133.717 12.0232 133.262 12.027 132.717V124.183ZM21.2386 135.171C20.3864 135.171 19.6477 134.984 19.0227 134.609C18.3977 134.234 17.9129 133.709 17.5682 133.035C17.2273 132.361 17.0568 131.573 17.0568 130.671C17.0568 129.77 17.2273 128.98 17.5682 128.302C17.9129 127.624 18.3977 127.098 19.0227 126.723C19.6477 126.348 20.3864 126.16 21.2386 126.16C22.0909 126.16 22.8295 126.348 23.4545 126.723C24.0795 127.098 24.5625 127.624 24.9034 128.302C25.2481 128.98 25.4205 129.77 25.4205 130.671C25.4205 131.573 25.2481 132.361 24.9034 133.035C24.5625 133.709 24.0795 134.234 23.4545 134.609C22.8295 134.984 22.0909 135.171 21.2386 135.171ZM21.25 133.524C21.7121 133.524 22.0985 133.397 22.4091 133.143C22.7197 132.885 22.9508 132.541 23.1023 132.109C23.2576 131.677 23.3352 131.196 23.3352 130.666C23.3352 130.132 23.2576 129.649 23.1023 129.217C22.9508 128.781 22.7197 128.435 22.4091 128.177C22.0985 127.92 21.7121 127.791 21.25 127.791C20.7765 127.791 20.3826 127.92 20.0682 128.177C19.7576 128.435 19.5246 128.781 19.3693 129.217C19.2178 129.649 19.142 130.132 19.142 130.666C19.142 131.196 19.2178 131.677 19.3693 132.109C19.5246 132.541 19.7576 132.885 20.0682 133.143C20.3826 133.397 20.7765 133.524 21.25 133.524ZM27.1662 135.001V126.274H29.1605V127.728H29.2514C29.4105 127.224 29.6832 126.836 30.0696 126.563C30.4598 126.287 30.9048 126.149 31.4048 126.149C31.5185 126.149 31.6454 126.154 31.7855 126.166C31.9295 126.173 32.0488 126.187 32.1435 126.206V128.098C32.0563 128.067 31.9181 128.041 31.7287 128.018C31.5431 127.992 31.3632 127.978 31.1889 127.978C30.8139 127.978 30.4768 128.06 30.1776 128.223C29.8821 128.382 29.6491 128.603 29.4787 128.887C29.3082 129.171 29.223 129.499 29.223 129.87V135.001H27.1662ZM37.0142 135.171C36.1392 135.171 35.3835 134.99 34.7472 134.626C34.1146 134.259 33.6278 133.74 33.2869 133.069C32.946 132.395 32.7756 131.601 32.7756 130.688C32.7756 129.791 32.946 129.003 33.2869 128.325C33.6316 127.643 34.1127 127.113 34.7301 126.734C35.3475 126.351 36.0729 126.16 36.9062 126.16C37.4441 126.16 37.9517 126.247 38.429 126.421C38.91 126.592 39.3343 126.857 39.7017 127.217C40.0729 127.577 40.3646 128.035 40.5767 128.592C40.7888 129.145 40.8949 129.804 40.8949 130.569V131.2H33.7415V129.813H38.9233C38.9195 129.42 38.8343 129.069 38.6676 128.762C38.5009 128.452 38.268 128.207 37.9688 128.029C37.6733 127.851 37.3286 127.762 36.9347 127.762C36.5142 127.762 36.1449 127.865 35.8267 128.069C35.5085 128.27 35.2604 128.535 35.0824 128.865C34.9081 129.19 34.8191 129.548 34.8153 129.938V131.149C34.8153 131.656 34.9081 132.092 35.0938 132.456C35.2794 132.815 35.5388 133.092 35.8722 133.285C36.2055 133.474 36.5956 133.569 37.0426 133.569C37.3419 133.569 37.6127 133.527 37.8551 133.444C38.0975 133.357 38.3078 133.23 38.4858 133.063C38.6638 132.897 38.7983 132.69 38.8892 132.444L40.8097 132.66C40.6884 133.168 40.4574 133.611 40.1165 133.99C39.7794 134.365 39.3475 134.656 38.821 134.865C38.2945 135.069 37.6922 135.171 37.0142 135.171ZM11.5455 148.183C11.5455 149.437 11.3106 150.51 10.8409 151.404C10.375 152.295 9.73864 152.976 8.93182 153.45C8.12879 153.923 7.2178 154.16 6.19886 154.16C5.17992 154.16 4.26705 153.923 3.46023 153.45C2.6572 152.973 2.02083 152.289 1.55114 151.399C1.08523 150.505 0.852273 149.433 0.852273 148.183C0.852273 146.929 1.08523 145.857 1.55114 144.967C2.02083 144.073 2.6572 143.389 3.46023 142.916C4.26705 142.442 5.17992 142.206 6.19886 142.206C7.2178 142.206 8.12879 142.442 8.93182 142.916C9.73864 143.389 10.375 144.073 10.8409 144.967C11.3106 145.857 11.5455 146.929 11.5455 148.183ZM9.42614 148.183C9.42614 147.3 9.28788 146.556 9.01136 145.95C8.73864 145.34 8.35985 144.88 7.875 144.569C7.39015 144.255 6.83144 144.098 6.19886 144.098C5.56629 144.098 5.00758 144.255 4.52273 144.569C4.03788 144.88 3.6572 145.34 3.38068 145.95C3.10795 146.556 2.97159 147.3 2.97159 148.183C2.97159 149.065 3.10795 149.812 3.38068 150.421C3.6572 151.027 4.03788 151.488 4.52273 151.802C5.00758 152.113 5.56629 152.268 6.19886 152.268C6.83144 152.268 7.39015 152.113 7.875 151.802C8.35985 151.488 8.73864 151.027 9.01136 150.421C9.28788 149.812 9.42614 149.065 9.42614 148.183ZM13.4474 157.274V145.274H15.4702V146.717H15.5895C15.6955 146.505 15.8452 146.279 16.0384 146.041C16.2315 145.798 16.4929 145.592 16.8224 145.421C17.152 145.247 17.5724 145.16 18.0838 145.16C18.758 145.16 19.366 145.332 19.9077 145.677C20.4531 146.018 20.8849 146.524 21.2031 147.194C21.5251 147.861 21.6861 148.679 21.6861 149.649C21.6861 150.607 21.5289 151.421 21.2145 152.092C20.9001 152.762 20.4721 153.274 19.9304 153.626C19.3887 153.978 18.7751 154.154 18.0895 154.154C17.5895 154.154 17.1747 154.071 16.8452 153.904C16.5156 153.738 16.2505 153.537 16.0497 153.302C15.8527 153.063 15.6993 152.838 15.5895 152.626H15.5043V157.274H13.4474ZM15.4645 149.637C15.4645 150.202 15.544 150.696 15.7031 151.12C15.866 151.545 16.099 151.876 16.402 152.115C16.7088 152.349 17.08 152.467 17.5156 152.467C17.9702 152.467 18.3509 152.346 18.6577 152.103C18.9645 151.857 19.1955 151.522 19.3509 151.098C19.5099 150.67 19.5895 150.183 19.5895 149.637C19.5895 149.096 19.5118 148.615 19.3565 148.194C19.2012 147.774 18.9702 147.444 18.6634 147.206C18.3565 146.967 17.974 146.848 17.5156 146.848C17.0762 146.848 16.7031 146.963 16.3963 147.194C16.0895 147.425 15.8565 147.749 15.6974 148.166C15.5421 148.582 15.4645 149.073 15.4645 149.637ZM27.3111 154.171C26.4361 154.171 25.6804 153.99 25.044 153.626C24.4115 153.259 23.9247 152.74 23.5838 152.069C23.2429 151.395 23.0724 150.601 23.0724 149.688C23.0724 148.791 23.2429 148.003 23.5838 147.325C23.9285 146.643 24.4096 146.113 25.027 145.734C25.6444 145.351 26.3698 145.16 27.2031 145.16C27.741 145.16 28.2486 145.247 28.7259 145.421C29.2069 145.592 29.6312 145.857 29.9986 146.217C30.3698 146.577 30.6615 147.035 30.8736 147.592C31.0857 148.145 31.1918 148.804 31.1918 149.569V150.2H24.0384V148.813H29.2202C29.2164 148.42 29.1312 148.069 28.9645 147.762C28.7978 147.452 28.5649 147.207 28.2656 147.029C27.9702 146.851 27.6255 146.762 27.2315 146.762C26.8111 146.762 26.4418 146.865 26.1236 147.069C25.8054 147.27 25.5573 147.535 25.3793 147.865C25.205 148.19 25.116 148.548 25.1122 148.938V150.149C25.1122 150.656 25.205 151.092 25.3906 151.456C25.5762 151.815 25.8357 152.092 26.169 152.285C26.5024 152.474 26.8925 152.569 27.3395 152.569C27.6387 152.569 27.9096 152.527 28.152 152.444C28.3944 152.357 28.6046 152.23 28.7827 152.063C28.9607 151.897 29.0952 151.69 29.1861 151.444L31.1065 151.66C30.9853 152.168 30.7543 152.611 30.4134 152.99C30.0762 153.365 29.6444 153.656 29.1179 153.865C28.5914 154.069 27.9891 154.171 27.3111 154.171ZM32.9318 154.001V145.274H34.9261V146.728H35.017C35.1761 146.224 35.4489 145.836 35.8352 145.563C36.2254 145.287 36.6705 145.149 37.1705 145.149C37.2841 145.149 37.411 145.154 37.5511 145.166C37.6951 145.173 37.8144 145.187 37.9091 145.206V147.098C37.822 147.067 37.6837 147.041 37.4943 147.018C37.3087 146.992 37.1288 146.978 36.9545 146.978C36.5795 146.978 36.2424 147.06 35.9432 147.223C35.6477 147.382 35.4148 147.603 35.2443 147.887C35.0739 148.171 34.9886 148.499 34.9886 148.87V154.001H32.9318ZM41.6307 154.177C41.0777 154.177 40.5795 154.079 40.1364 153.882C39.697 153.681 39.3485 153.385 39.0909 152.995C38.8371 152.605 38.7102 152.124 38.7102 151.552C38.7102 151.06 38.8011 150.652 38.983 150.331C39.1648 150.009 39.4129 149.751 39.7273 149.558C40.0417 149.365 40.3958 149.219 40.7898 149.12C41.1875 149.018 41.5985 148.944 42.0227 148.899C42.5341 148.846 42.9489 148.798 43.267 148.757C43.5852 148.711 43.8163 148.643 43.9602 148.552C44.108 148.457 44.1818 148.312 44.1818 148.115V148.081C44.1818 147.652 44.0549 147.321 43.8011 147.086C43.5473 146.851 43.1818 146.734 42.7045 146.734C42.2008 146.734 41.8011 146.844 41.5057 147.063C41.214 147.283 41.017 147.543 40.9148 147.842L38.9943 147.569C39.1458 147.039 39.3958 146.596 39.7443 146.24C40.0928 145.88 40.5189 145.611 41.0227 145.433C41.5265 145.251 42.0833 145.16 42.6932 145.16C43.1136 145.16 43.5322 145.209 43.9489 145.308C44.3655 145.406 44.7462 145.569 45.0909 145.796C45.4356 146.02 45.7121 146.325 45.9205 146.711C46.1326 147.098 46.2386 147.581 46.2386 148.16V154.001H44.2614V152.802H44.1932C44.0682 153.045 43.892 153.272 43.6648 153.484C43.4413 153.692 43.1591 153.861 42.8182 153.99C42.4811 154.115 42.0852 154.177 41.6307 154.177ZM42.1648 152.666C42.5777 152.666 42.9356 152.584 43.2386 152.421C43.5417 152.255 43.7746 152.035 43.9375 151.762C44.1042 151.49 44.1875 151.192 44.1875 150.87V149.842C44.1231 149.895 44.0133 149.944 43.858 149.99C43.7064 150.035 43.536 150.075 43.3466 150.109C43.1572 150.143 42.9697 150.173 42.7841 150.2C42.5985 150.226 42.4375 150.249 42.3011 150.268C41.9943 150.31 41.7197 150.378 41.4773 150.473C41.2348 150.567 41.0436 150.7 40.9034 150.87C40.7633 151.037 40.6932 151.253 40.6932 151.518C40.6932 151.897 40.8314 152.183 41.108 152.376C41.3845 152.569 41.7367 152.666 42.1648 152.666ZM52.6648 145.274V146.865H47.6477V145.274H52.6648ZM48.8864 143.183H50.9432V151.376C50.9432 151.652 50.9848 151.865 51.0682 152.012C51.1553 152.156 51.2689 152.255 51.4091 152.308C51.5492 152.361 51.7045 152.387 51.875 152.387C52.0038 152.387 52.1212 152.378 52.2273 152.359C52.3371 152.34 52.4205 152.323 52.4773 152.308L52.8239 153.916C52.714 153.954 52.5568 153.995 52.3523 154.041C52.1515 154.086 51.9053 154.113 51.6136 154.12C51.0985 154.135 50.6345 154.058 50.2216 153.887C49.8087 153.713 49.4811 153.444 49.2386 153.081C49 152.717 48.8826 152.262 48.8864 151.717V143.183ZM54.3849 154.001V145.274H56.4418V154.001H54.3849ZM55.419 144.035C55.0933 144.035 54.813 143.927 54.5781 143.711C54.3433 143.492 54.2259 143.228 54.2259 142.921C54.2259 142.611 54.3433 142.348 54.5781 142.132C54.813 141.912 55.0933 141.802 55.419 141.802C55.7486 141.802 56.0289 141.912 56.2599 142.132C56.4948 142.348 56.6122 142.611 56.6122 142.921C56.6122 143.228 56.4948 143.492 56.2599 143.711C56.0289 143.927 55.7486 144.035 55.419 144.035ZM62.3636 154.171C61.5114 154.171 60.7727 153.984 60.1477 153.609C59.5227 153.234 59.0379 152.709 58.6932 152.035C58.3523 151.361 58.1818 150.573 58.1818 149.671C58.1818 148.77 58.3523 147.98 58.6932 147.302C59.0379 146.624 59.5227 146.098 60.1477 145.723C60.7727 145.348 61.5114 145.16 62.3636 145.16C63.2159 145.16 63.9545 145.348 64.5795 145.723C65.2045 146.098 65.6875 146.624 66.0284 147.302C66.3731 147.98 66.5455 148.77 66.5455 149.671C66.5455 150.573 66.3731 151.361 66.0284 152.035C65.6875 152.709 65.2045 153.234 64.5795 153.609C63.9545 153.984 63.2159 154.171 62.3636 154.171ZM62.375 152.524C62.8371 152.524 63.2235 152.397 63.5341 152.143C63.8447 151.885 64.0758 151.541 64.2273 151.109C64.3826 150.677 64.4602 150.196 64.4602 149.666C64.4602 149.132 64.3826 148.649 64.2273 148.217C64.0758 147.781 63.8447 147.435 63.5341 147.177C63.2235 146.92 62.8371 146.791 62.375 146.791C61.9015 146.791 61.5076 146.92 61.1932 147.177C60.8826 147.435 60.6496 147.781 60.4943 148.217C60.3428 148.649 60.267 149.132 60.267 149.666C60.267 150.196 60.3428 150.677 60.4943 151.109C60.6496 151.541 60.8826 151.885 61.1932 152.143C61.5076 152.397 61.9015 152.524 62.375 152.524ZM70.348 148.887V154.001H68.2912V145.274H70.2571V146.757H70.3594C70.5601 146.268 70.8802 145.88 71.3196 145.592C71.7628 145.304 72.3101 145.16 72.9616 145.16C73.5639 145.16 74.0885 145.289 74.5355 145.546C74.9863 145.804 75.3348 146.177 75.581 146.666C75.831 147.154 75.9541 147.747 75.9503 148.444V154.001H73.8935V148.762C73.8935 148.179 73.742 147.723 73.4389 147.393C73.1397 147.063 72.7249 146.899 72.1946 146.899C71.8348 146.899 71.5147 146.978 71.2344 147.137C70.9579 147.293 70.7401 147.518 70.581 147.813C70.4257 148.109 70.348 148.467 70.348 148.887ZM84.9389 147.581L83.0639 147.785C83.0109 147.596 82.9181 147.418 82.7855 147.251C82.6567 147.084 82.4825 146.95 82.2628 146.848C82.0431 146.745 81.7741 146.694 81.456 146.694C81.0279 146.694 80.6681 146.787 80.3764 146.973C80.0885 147.158 79.9465 147.399 79.9503 147.694C79.9465 147.948 80.0393 148.154 80.2287 148.313C80.4219 148.473 80.7401 148.603 81.1832 148.706L82.6719 149.024C83.4976 149.202 84.1113 149.484 84.5128 149.87C84.9181 150.257 85.1226 150.762 85.1264 151.387C85.1226 151.937 84.9616 152.421 84.6435 152.842C84.3291 153.259 83.8916 153.584 83.331 153.819C82.7704 154.054 82.1264 154.171 81.3991 154.171C80.331 154.171 79.4711 153.948 78.8196 153.501C78.1681 153.05 77.7798 152.423 77.6548 151.62L79.6605 151.427C79.7514 151.821 79.9446 152.118 80.2401 152.319C80.5355 152.52 80.92 152.62 81.3935 152.62C81.8821 152.62 82.2741 152.52 82.5696 152.319C82.8688 152.118 83.0185 151.87 83.0185 151.575C83.0185 151.325 82.9219 151.118 82.7287 150.956C82.5393 150.793 82.2438 150.668 81.8423 150.581L80.3537 150.268C79.5166 150.094 78.8973 149.8 78.4957 149.387C78.0942 148.971 77.8954 148.444 77.8991 147.808C77.8954 147.27 78.0412 146.804 78.3366 146.41C78.6359 146.012 79.0507 145.706 79.581 145.49C80.1151 145.27 80.7306 145.16 81.4276 145.16C82.4503 145.16 83.2552 145.378 83.8423 145.813C84.4332 146.249 84.7988 146.838 84.9389 147.581Z" fill="black"/>
<path d="M7.47159 240.563C7.41856 240.067 7.19508 239.681 6.80114 239.404C6.41099 239.128 5.90341 238.99 5.27841 238.99C4.83902 238.99 4.46212 239.056 4.14773 239.188C3.83333 239.321 3.5928 239.501 3.42614 239.728C3.25947 239.956 3.17424 240.215 3.17045 240.507C3.17045 240.749 3.22538 240.959 3.33523 241.137C3.44886 241.315 3.60227 241.467 3.79545 241.592C3.98864 241.713 4.20265 241.815 4.4375 241.899C4.67235 241.982 4.90909 242.052 5.14773 242.109L6.23864 242.382C6.67803 242.484 7.10038 242.622 7.50568 242.796C7.91477 242.971 8.2803 243.19 8.60227 243.456C8.92803 243.721 9.18561 244.041 9.375 244.416C9.56439 244.791 9.65909 245.23 9.65909 245.734C9.65909 246.416 9.48485 247.016 9.13636 247.535C8.78788 248.05 8.28409 248.454 7.625 248.745C6.9697 249.033 6.17614 249.177 5.24432 249.177C4.33902 249.177 3.55303 249.037 2.88636 248.757C2.22348 248.476 1.70455 248.067 1.32955 247.529C0.958333 246.992 0.757576 246.336 0.727273 245.563H2.80114C2.83144 245.969 2.95644 246.306 3.17614 246.575C3.39583 246.844 3.68182 247.045 4.03409 247.177C4.39015 247.31 4.78788 247.376 5.22727 247.376C5.68561 247.376 6.08712 247.308 6.43182 247.171C6.7803 247.031 7.05303 246.838 7.25 246.592C7.44697 246.342 7.54735 246.05 7.55114 245.717C7.54735 245.414 7.45833 245.164 7.28409 244.967C7.10985 244.766 6.86553 244.599 6.55114 244.467C6.24053 244.331 5.87689 244.209 5.46023 244.103L4.13636 243.762C3.17803 243.516 2.42045 243.143 1.86364 242.643C1.31061 242.139 1.03409 241.471 1.03409 240.637C1.03409 239.952 1.2197 239.351 1.59091 238.836C1.96591 238.321 2.47538 237.921 3.11932 237.637C3.76326 237.349 4.49242 237.206 5.30682 237.206C6.13258 237.206 6.85606 237.349 7.47727 237.637C8.10227 237.921 8.5928 238.317 8.94886 238.825C9.30492 239.329 9.48864 239.908 9.5 240.563H7.47159ZM13.5043 243.887V249.001H11.4474V237.365H13.4588V241.757H13.5611C13.7656 241.264 14.0819 240.876 14.5099 240.592C14.9418 240.304 15.491 240.16 16.1577 240.16C16.7637 240.16 17.2921 240.287 17.7429 240.541C18.1937 240.795 18.5421 241.166 18.7884 241.654C19.0384 242.143 19.1634 242.74 19.1634 243.444V249.001H17.1065V243.762C17.1065 243.175 16.955 242.719 16.652 242.393C16.3527 242.063 15.9323 241.899 15.3906 241.899C15.027 241.899 14.7012 241.978 14.4134 242.137C14.1293 242.293 13.9058 242.518 13.7429 242.813C13.5838 243.109 13.5043 243.467 13.5043 243.887ZM25.1236 249.171C24.2486 249.171 23.4929 248.99 22.8565 248.626C22.224 248.259 21.7372 247.74 21.3963 247.069C21.0554 246.395 20.8849 245.601 20.8849 244.688C20.8849 243.791 21.0554 243.003 21.3963 242.325C21.741 241.643 22.2221 241.113 22.8395 240.734C23.4569 240.351 24.1823 240.16 25.0156 240.16C25.5535 240.16 26.0611 240.247 26.5384 240.421C27.0194 240.592 27.4437 240.857 27.8111 241.217C28.1823 241.577 28.474 242.035 28.6861 242.592C28.8982 243.145 29.0043 243.804 29.0043 244.569V245.2H21.8509V243.813H27.0327C27.0289 243.42 26.9437 243.069 26.777 242.762C26.6103 242.452 26.3774 242.207 26.0781 242.029C25.7827 241.851 25.438 241.762 25.044 241.762C24.6236 241.762 24.2543 241.865 23.9361 242.069C23.6179 242.27 23.3698 242.535 23.1918 242.865C23.0175 243.19 22.9285 243.548 22.9247 243.938V245.149C22.9247 245.656 23.0175 246.092 23.2031 246.456C23.3887 246.815 23.6482 247.092 23.9815 247.285C24.3149 247.474 24.705 247.569 25.152 247.569C25.4512 247.569 25.7221 247.527 25.9645 247.444C26.2069 247.357 26.4171 247.23 26.5952 247.063C26.7732 246.897 26.9077 246.69 26.9986 246.444L28.919 246.66C28.7978 247.168 28.5668 247.611 28.2259 247.99C27.8887 248.365 27.4569 248.656 26.9304 248.865C26.4039 249.069 25.8016 249.171 25.1236 249.171ZM32.8011 237.365V249.001H30.7443V237.365H32.8011ZM39.3366 240.274V241.865H34.1776V240.274H39.3366ZM35.4673 249.001V239.45C35.4673 238.863 35.5885 238.374 35.831 237.984C36.0772 237.594 36.4067 237.302 36.8196 237.109C37.2325 236.916 37.6908 236.819 38.1946 236.819C38.5507 236.819 38.867 236.848 39.1435 236.904C39.42 236.961 39.6245 237.012 39.7571 237.058L39.348 238.649C39.2609 238.622 39.151 238.596 39.0185 238.569C38.8859 238.539 38.7382 238.524 38.5753 238.524C38.1927 238.524 37.9219 238.617 37.7628 238.802C37.6075 238.984 37.5298 239.245 37.5298 239.586V249.001H35.4673ZM45.0071 249.001V237.365H49.3707C50.2647 237.365 51.0147 237.531 51.6207 237.865C52.2306 238.198 52.6908 238.656 53.0014 239.24C53.3158 239.819 53.473 240.478 53.473 241.217C53.473 241.963 53.3158 242.626 53.0014 243.206C52.687 243.785 52.223 244.242 51.6094 244.575C50.9957 244.904 50.2401 245.069 49.3423 245.069H46.4503V243.336H49.0582C49.581 243.336 50.009 243.245 50.3423 243.063C50.6757 242.882 50.9219 242.632 51.081 242.313C51.2438 241.995 51.3253 241.63 51.3253 241.217C51.3253 240.804 51.2438 240.44 51.081 240.126C50.9219 239.812 50.6738 239.567 50.3366 239.393C50.0033 239.215 49.5734 239.126 49.0469 239.126H47.1151V249.001H45.0071ZM57.2699 237.365V249.001H55.2131V237.365H57.2699ZM61.8963 249.177C61.3433 249.177 60.8452 249.079 60.402 248.882C59.9626 248.681 59.6141 248.385 59.3565 247.995C59.1027 247.605 58.9759 247.124 58.9759 246.552C58.9759 246.06 59.0668 245.652 59.2486 245.331C59.4304 245.009 59.6785 244.751 59.9929 244.558C60.3073 244.365 60.6615 244.219 61.0554 244.12C61.4531 244.018 61.8641 243.944 62.2884 243.899C62.7997 243.846 63.2145 243.798 63.5327 243.757C63.8509 243.711 64.0819 243.643 64.2259 243.552C64.3736 243.457 64.4474 243.312 64.4474 243.115V243.081C64.4474 242.652 64.3205 242.321 64.0668 242.086C63.813 241.851 63.4474 241.734 62.9702 241.734C62.4664 241.734 62.0668 241.844 61.7713 242.063C61.4796 242.283 61.2827 242.543 61.1804 242.842L59.2599 242.569C59.4115 242.039 59.6615 241.596 60.0099 241.24C60.3584 240.88 60.7846 240.611 61.2884 240.433C61.7921 240.251 62.349 240.16 62.9588 240.16C63.3793 240.16 63.7978 240.209 64.2145 240.308C64.6312 240.406 65.0118 240.569 65.3565 240.796C65.7012 241.02 65.9777 241.325 66.1861 241.711C66.3982 242.098 66.5043 242.581 66.5043 243.16V249.001H64.527V247.802H64.4588C64.3338 248.045 64.1577 248.272 63.9304 248.484C63.7069 248.692 63.4247 248.861 63.0838 248.99C62.7467 249.115 62.3509 249.177 61.8963 249.177ZM62.4304 247.666C62.8433 247.666 63.2012 247.584 63.5043 247.421C63.8073 247.255 64.0402 247.035 64.2031 246.762C64.3698 246.49 64.4531 246.192 64.4531 245.87V244.842C64.3887 244.895 64.2789 244.944 64.1236 244.99C63.9721 245.035 63.8016 245.075 63.6122 245.109C63.4228 245.143 63.2353 245.173 63.0497 245.2C62.8641 245.226 62.7031 245.249 62.5668 245.268C62.2599 245.31 61.9853 245.378 61.7429 245.473C61.5005 245.567 61.3092 245.7 61.169 245.87C61.0289 246.037 60.9588 246.253 60.9588 246.518C60.9588 246.897 61.0971 247.183 61.3736 247.376C61.6501 247.569 62.0024 247.666 62.4304 247.666ZM70.6293 243.887V249.001H68.5724V240.274H70.5384V241.757H70.6406C70.8414 241.268 71.1615 240.88 71.6009 240.592C72.044 240.304 72.5914 240.16 73.2429 240.16C73.8452 240.16 74.3698 240.289 74.8168 240.546C75.2675 240.804 75.616 241.177 75.8622 241.666C76.1122 242.154 76.2353 242.747 76.2315 243.444V249.001H74.1747V243.762C74.1747 243.179 74.0232 242.723 73.7202 242.393C73.4209 242.063 73.0062 241.899 72.4759 241.899C72.116 241.899 71.7959 241.978 71.5156 242.137C71.2391 242.293 71.0213 242.518 70.8622 242.813C70.7069 243.109 70.6293 243.467 70.6293 243.887ZM80.3793 243.887V249.001H78.3224V240.274H80.2884V241.757H80.3906C80.5914 241.268 80.9115 240.88 81.3509 240.592C81.794 240.304 82.3414 240.16 82.9929 240.16C83.5952 240.16 84.1198 240.289 84.5668 240.546C85.0175 240.804 85.366 241.177 85.6122 241.666C85.8622 242.154 85.9853 242.747 85.9815 243.444V249.001H83.9247V243.762C83.9247 243.179 83.7732 242.723 83.4702 242.393C83.1709 242.063 82.7562 241.899 82.2259 241.899C81.866 241.899 81.5459 241.978 81.2656 242.137C80.9891 242.293 80.7713 242.518 80.6122 242.813C80.4569 243.109 80.3793 243.467 80.3793 243.887ZM88.0724 249.001V240.274H90.1293V249.001H88.0724ZM89.1065 239.035C88.7808 239.035 88.5005 238.927 88.2656 238.711C88.0308 238.492 87.9134 238.228 87.9134 237.921C87.9134 237.611 88.0308 237.348 88.2656 237.132C88.5005 236.912 88.7808 236.802 89.1065 236.802C89.4361 236.802 89.7164 236.912 89.9474 237.132C90.1823 237.348 90.2997 237.611 90.2997 237.921C90.2997 238.228 90.1823 238.492 89.9474 238.711C89.7164 238.927 89.4361 239.035 89.1065 239.035ZM94.3011 243.887V249.001H92.2443V240.274H94.2102V241.757H94.3125C94.5133 241.268 94.8333 240.88 95.2727 240.592C95.7159 240.304 96.2633 240.16 96.9148 240.16C97.517 240.16 98.0417 240.289 98.4886 240.546C98.9394 240.804 99.2879 241.177 99.5341 241.666C99.7841 242.154 99.9072 242.747 99.9034 243.444V249.001H97.8466V243.762C97.8466 243.179 97.6951 242.723 97.392 242.393C97.0928 242.063 96.678 241.899 96.1477 241.899C95.7879 241.899 95.4678 241.978 95.1875 242.137C94.911 242.293 94.6932 242.518 94.5341 242.813C94.3788 243.109 94.3011 243.467 94.3011 243.887ZM105.79 252.456C105.051 252.456 104.417 252.355 103.886 252.154C103.356 251.957 102.93 251.692 102.608 251.359C102.286 251.026 102.062 250.656 101.938 250.251L103.79 249.802C103.873 249.973 103.994 250.141 104.153 250.308C104.313 250.478 104.527 250.618 104.795 250.728C105.068 250.842 105.411 250.899 105.824 250.899C106.407 250.899 106.89 250.757 107.273 250.473C107.655 250.192 107.847 249.73 107.847 249.086V247.433H107.744C107.638 247.645 107.483 247.863 107.278 248.086C107.078 248.31 106.811 248.497 106.477 248.649C106.148 248.8 105.733 248.876 105.233 248.876C104.562 248.876 103.955 248.719 103.409 248.404C102.867 248.086 102.436 247.613 102.114 246.984C101.795 246.351 101.636 245.56 101.636 244.609C101.636 243.651 101.795 242.842 102.114 242.183C102.436 241.52 102.869 241.018 103.415 240.677C103.96 240.332 104.568 240.16 105.239 240.16C105.75 240.16 106.17 240.247 106.5 240.421C106.833 240.592 107.098 240.798 107.295 241.041C107.492 241.279 107.642 241.505 107.744 241.717H107.858V240.274H109.886V249.143C109.886 249.889 109.708 250.507 109.352 250.995C108.996 251.484 108.509 251.849 107.892 252.092C107.275 252.334 106.574 252.456 105.79 252.456ZM105.807 247.262C106.242 247.262 106.614 247.156 106.92 246.944C107.227 246.732 107.46 246.427 107.619 246.029C107.778 245.632 107.858 245.154 107.858 244.598C107.858 244.048 107.778 243.567 107.619 243.154C107.464 242.742 107.233 242.421 106.926 242.194C106.623 241.963 106.25 241.848 105.807 241.848C105.348 241.848 104.966 241.967 104.659 242.206C104.352 242.444 104.121 242.772 103.966 243.188C103.811 243.601 103.733 244.071 103.733 244.598C103.733 245.132 103.811 245.599 103.966 246.001C104.125 246.399 104.358 246.709 104.665 246.933C104.975 247.152 105.356 247.262 105.807 247.262Z" fill="black"/>
<path d="M1.14773 337.365H3.72727L7.18182 345.796H7.31818L10.7727 337.365H13.3523V349.001H11.3295V341.007H11.2216L8.00568 348.967H6.49432L3.27841 340.99H3.17045V349.001H1.14773V337.365ZM18.0682 349.177C17.5152 349.177 17.017 349.079 16.5739 348.882C16.1345 348.681 15.786 348.385 15.5284 347.995C15.2746 347.605 15.1477 347.124 15.1477 346.552C15.1477 346.06 15.2386 345.652 15.4205 345.331C15.6023 345.009 15.8504 344.751 16.1648 344.558C16.4792 344.365 16.8333 344.219 17.2273 344.12C17.625 344.018 18.036 343.944 18.4602 343.899C18.9716 343.846 19.3864 343.798 19.7045 343.757C20.0227 343.711 20.2538 343.643 20.3977 343.552C20.5455 343.457 20.6193 343.312 20.6193 343.115V343.081C20.6193 342.652 20.4924 342.321 20.2386 342.086C19.9848 341.851 19.6193 341.734 19.142 341.734C18.6383 341.734 18.2386 341.844 17.9432 342.063C17.6515 342.283 17.4545 342.543 17.3523 342.842L15.4318 342.569C15.5833 342.039 15.8333 341.596 16.1818 341.24C16.5303 340.88 16.9564 340.611 17.4602 340.433C17.964 340.251 18.5208 340.16 19.1307 340.16C19.5511 340.16 19.9697 340.209 20.3864 340.308C20.803 340.406 21.1837 340.569 21.5284 340.796C21.8731 341.02 22.1496 341.325 22.358 341.711C22.5701 342.098 22.6761 342.581 22.6761 343.16V349.001H20.6989V347.802H20.6307C20.5057 348.045 20.3295 348.272 20.1023 348.484C19.8788 348.692 19.5966 348.861 19.2557 348.99C18.9186 349.115 18.5227 349.177 18.0682 349.177ZM18.6023 347.666C19.0152 347.666 19.3731 347.584 19.6761 347.421C19.9792 347.255 20.2121 347.035 20.375 346.762C20.5417 346.49 20.625 346.192 20.625 345.87V344.842C20.5606 344.895 20.4508 344.944 20.2955 344.99C20.1439 345.035 19.9735 345.075 19.7841 345.109C19.5947 345.143 19.4072 345.173 19.2216 345.2C19.036 345.226 18.875 345.249 18.7386 345.268C18.4318 345.31 18.1572 345.378 17.9148 345.473C17.6723 345.567 17.4811 345.7 17.3409 345.87C17.2008 346.037 17.1307 346.253 17.1307 346.518C17.1307 346.897 17.2689 347.183 17.5455 347.376C17.822 347.569 18.1742 347.666 18.6023 347.666ZM28.5511 349.171C27.6799 349.171 26.9318 348.98 26.3068 348.598C25.6856 348.215 25.2064 347.687 24.8693 347.012C24.536 346.334 24.3693 345.554 24.3693 344.671C24.3693 343.785 24.5398 343.003 24.8807 342.325C25.2216 341.643 25.7027 341.113 26.3239 340.734C26.9489 340.351 27.6875 340.16 28.5398 340.16C29.2481 340.16 29.875 340.291 30.4205 340.552C30.9697 340.81 31.4072 341.175 31.733 341.649C32.0587 342.118 32.2443 342.668 32.2898 343.296H30.3239C30.2443 342.876 30.0549 342.526 29.7557 342.245C29.4602 341.961 29.0644 341.819 28.5682 341.819C28.1477 341.819 27.7784 341.933 27.4602 342.16C27.142 342.384 26.8939 342.706 26.7159 343.126C26.5417 343.546 26.4545 344.05 26.4545 344.637C26.4545 345.232 26.5417 345.743 26.7159 346.171C26.8902 346.596 27.1345 346.923 27.4489 347.154C27.767 347.382 28.1402 347.495 28.5682 347.495C28.8712 347.495 29.142 347.438 29.3807 347.325C29.6231 347.207 29.8258 347.039 29.9886 346.819C30.1515 346.599 30.2633 346.332 30.3239 346.018H32.2898C32.2405 346.635 32.0587 347.183 31.7443 347.66C31.4299 348.134 31.0019 348.505 30.4602 348.774C29.9186 349.039 29.2822 349.171 28.5511 349.171ZM33.9787 349.001V340.274H35.973V341.728H36.0639C36.223 341.224 36.4957 340.836 36.8821 340.563C37.2723 340.287 37.7173 340.149 38.2173 340.149C38.331 340.149 38.4579 340.154 38.598 340.166C38.742 340.173 38.8613 340.187 38.956 340.206V342.098C38.8688 342.067 38.7306 342.041 38.5412 342.018C38.3556 341.992 38.1757 341.978 38.0014 341.978C37.6264 341.978 37.2893 342.06 36.9901 342.223C36.6946 342.382 36.4616 342.603 36.2912 342.887C36.1207 343.171 36.0355 343.499 36.0355 343.87V349.001H33.9787ZM43.7699 349.171C42.9176 349.171 42.179 348.984 41.554 348.609C40.929 348.234 40.4441 347.709 40.0994 347.035C39.7585 346.361 39.5881 345.573 39.5881 344.671C39.5881 343.77 39.7585 342.98 40.0994 342.302C40.4441 341.624 40.929 341.098 41.554 340.723C42.179 340.348 42.9176 340.16 43.7699 340.16C44.6222 340.16 45.3608 340.348 45.9858 340.723C46.6108 341.098 47.0938 341.624 47.4347 342.302C47.7794 342.98 47.9517 343.77 47.9517 344.671C47.9517 345.573 47.7794 346.361 47.4347 347.035C47.0938 347.709 46.6108 348.234 45.9858 348.609C45.3608 348.984 44.6222 349.171 43.7699 349.171ZM43.7812 347.524C44.2434 347.524 44.6297 347.397 44.9403 347.143C45.2509 346.885 45.482 346.541 45.6335 346.109C45.7888 345.677 45.8665 345.196 45.8665 344.666C45.8665 344.132 45.7888 343.649 45.6335 343.217C45.482 342.781 45.2509 342.435 44.9403 342.177C44.6297 341.92 44.2434 341.791 43.7812 341.791C43.3078 341.791 42.9138 341.92 42.5994 342.177C42.2888 342.435 42.0559 342.781 41.9006 343.217C41.7491 343.649 41.6733 344.132 41.6733 344.666C41.6733 345.196 41.7491 345.677 41.9006 346.109C42.0559 346.541 42.2888 346.885 42.5994 347.143C42.9138 347.397 43.3078 347.524 43.7812 347.524ZM60.081 340.563C60.0279 340.067 59.8045 339.681 59.4105 339.404C59.0204 339.128 58.5128 338.99 57.8878 338.99C57.4484 338.99 57.0715 339.056 56.7571 339.188C56.4427 339.321 56.2022 339.501 56.0355 339.728C55.8688 339.956 55.7836 340.215 55.7798 340.507C55.7798 340.749 55.8348 340.959 55.9446 341.137C56.0582 341.315 56.2116 341.467 56.4048 341.592C56.598 341.713 56.812 341.815 57.0469 341.899C57.2817 341.982 57.5185 342.052 57.7571 342.109L58.848 342.382C59.2874 342.484 59.7098 342.622 60.1151 342.796C60.5241 342.971 60.8897 343.19 61.2116 343.456C61.5374 343.721 61.795 344.041 61.9844 344.416C62.1738 344.791 62.2685 345.23 62.2685 345.734C62.2685 346.416 62.0942 347.016 61.7457 347.535C61.3973 348.05 60.8935 348.454 60.2344 348.745C59.5791 349.033 58.7855 349.177 57.8537 349.177C56.9484 349.177 56.1624 349.037 55.4957 348.757C54.8329 348.476 54.3139 348.067 53.9389 347.529C53.5677 346.992 53.367 346.336 53.3366 345.563H55.4105C55.4408 345.969 55.5658 346.306 55.7855 346.575C56.0052 346.844 56.2912 347.045 56.6435 347.177C56.9995 347.31 57.3973 347.376 57.8366 347.376C58.295 347.376 58.6965 347.308 59.0412 347.171C59.3897 347.031 59.6624 346.838 59.8594 346.592C60.0563 346.342 60.1567 346.05 60.1605 345.717C60.1567 345.414 60.0677 345.164 59.8935 344.967C59.7192 344.766 59.4749 344.599 59.1605 344.467C58.8499 344.331 58.4863 344.209 58.0696 344.103L56.7457 343.762C55.7874 343.516 55.0298 343.143 54.473 342.643C53.92 342.139 53.6435 341.471 53.6435 340.637C53.6435 339.952 53.8291 339.351 54.2003 338.836C54.5753 338.321 55.0848 337.921 55.7287 337.637C56.3726 337.349 57.1018 337.206 57.9162 337.206C58.742 337.206 59.4654 337.349 60.0866 337.637C60.7116 337.921 61.2022 338.317 61.5582 338.825C61.9143 339.329 62.098 339.908 62.1094 340.563H60.081ZM64.0568 352.274V340.274H66.0795V341.717H66.1989C66.3049 341.505 66.4545 341.279 66.6477 341.041C66.8409 340.798 67.1023 340.592 67.4318 340.421C67.7614 340.247 68.1818 340.16 68.6932 340.16C69.3674 340.16 69.9754 340.332 70.517 340.677C71.0625 341.018 71.4943 341.524 71.8125 342.194C72.1345 342.861 72.2955 343.679 72.2955 344.649C72.2955 345.607 72.1383 346.421 71.8239 347.092C71.5095 347.762 71.0814 348.274 70.5398 348.626C69.9981 348.978 69.3845 349.154 68.6989 349.154C68.1989 349.154 67.7841 349.071 67.4545 348.904C67.125 348.738 66.8598 348.537 66.6591 348.302C66.4621 348.063 66.3087 347.838 66.1989 347.626H66.1136V352.274H64.0568ZM66.0739 344.637C66.0739 345.202 66.1534 345.696 66.3125 346.12C66.4754 346.545 66.7083 346.876 67.0114 347.115C67.3182 347.349 67.6894 347.467 68.125 347.467C68.5795 347.467 68.9602 347.346 69.267 347.103C69.5739 346.857 69.8049 346.522 69.9602 346.098C70.1193 345.67 70.1989 345.183 70.1989 344.637C70.1989 344.096 70.1212 343.615 69.9659 343.194C69.8106 342.774 69.5795 342.444 69.2727 342.206C68.9659 341.967 68.5833 341.848 68.125 341.848C67.6856 341.848 67.3125 341.963 67.0057 342.194C66.6989 342.425 66.4659 342.749 66.3068 343.166C66.1515 343.582 66.0739 344.073 66.0739 344.637ZM76.5682 349.177C76.0152 349.177 75.517 349.079 75.0739 348.882C74.6345 348.681 74.286 348.385 74.0284 347.995C73.7746 347.605 73.6477 347.124 73.6477 346.552C73.6477 346.06 73.7386 345.652 73.9205 345.331C74.1023 345.009 74.3504 344.751 74.6648 344.558C74.9792 344.365 75.3333 344.219 75.7273 344.12C76.125 344.018 76.536 343.944 76.9602 343.899C77.4716 343.846 77.8864 343.798 78.2045 343.757C78.5227 343.711 78.7538 343.643 78.8977 343.552C79.0455 343.457 79.1193 343.312 79.1193 343.115V343.081C79.1193 342.652 78.9924 342.321 78.7386 342.086C78.4848 341.851 78.1193 341.734 77.642 341.734C77.1383 341.734 76.7386 341.844 76.4432 342.063C76.1515 342.283 75.9545 342.543 75.8523 342.842L73.9318 342.569C74.0833 342.039 74.3333 341.596 74.6818 341.24C75.0303 340.88 75.4564 340.611 75.9602 340.433C76.464 340.251 77.0208 340.16 77.6307 340.16C78.0511 340.16 78.4697 340.209 78.8864 340.308C79.303 340.406 79.6837 340.569 80.0284 340.796C80.3731 341.02 80.6496 341.325 80.858 341.711C81.0701 342.098 81.1761 342.581 81.1761 343.16V349.001H79.1989V347.802H79.1307C79.0057 348.045 78.8295 348.272 78.6023 348.484C78.3788 348.692 78.0966 348.861 77.7557 348.99C77.4186 349.115 77.0227 349.177 76.5682 349.177ZM77.1023 347.666C77.5152 347.666 77.8731 347.584 78.1761 347.421C78.4792 347.255 78.7121 347.035 78.875 346.762C79.0417 346.49 79.125 346.192 79.125 345.87V344.842C79.0606 344.895 78.9508 344.944 78.7955 344.99C78.6439 345.035 78.4735 345.075 78.2841 345.109C78.0947 345.143 77.9072 345.173 77.7216 345.2C77.536 345.226 77.375 345.249 77.2386 345.268C76.9318 345.31 76.6572 345.378 76.4148 345.473C76.1723 345.567 75.9811 345.7 75.8409 345.87C75.7008 346.037 75.6307 346.253 75.6307 346.518C75.6307 346.897 75.7689 347.183 76.0455 347.376C76.322 347.569 76.6742 347.666 77.1023 347.666ZM87.0511 349.171C86.1799 349.171 85.4318 348.98 84.8068 348.598C84.1856 348.215 83.7064 347.687 83.3693 347.012C83.036 346.334 82.8693 345.554 82.8693 344.671C82.8693 343.785 83.0398 343.003 83.3807 342.325C83.7216 341.643 84.2027 341.113 84.8239 340.734C85.4489 340.351 86.1875 340.16 87.0398 340.16C87.7481 340.16 88.375 340.291 88.9205 340.552C89.4697 340.81 89.9072 341.175 90.233 341.649C90.5587 342.118 90.7443 342.668 90.7898 343.296H88.8239C88.7443 342.876 88.5549 342.526 88.2557 342.245C87.9602 341.961 87.5644 341.819 87.0682 341.819C86.6477 341.819 86.2784 341.933 85.9602 342.16C85.642 342.384 85.3939 342.706 85.2159 343.126C85.0417 343.546 84.9545 344.05 84.9545 344.637C84.9545 345.232 85.0417 345.743 85.2159 346.171C85.3902 346.596 85.6345 346.923 85.9489 347.154C86.267 347.382 86.6402 347.495 87.0682 347.495C87.3712 347.495 87.642 347.438 87.8807 347.325C88.1231 347.207 88.3258 347.039 88.4886 346.819C88.6515 346.599 88.7633 346.332 88.8239 346.018H90.7898C90.7405 346.635 90.5587 347.183 90.2443 347.66C89.9299 348.134 89.5019 348.505 88.9602 348.774C88.4186 349.039 87.7822 349.171 87.0511 349.171ZM96.3423 349.171C95.4673 349.171 94.7116 348.99 94.0753 348.626C93.4427 348.259 92.956 347.74 92.6151 347.069C92.2741 346.395 92.1037 345.601 92.1037 344.688C92.1037 343.791 92.2741 343.003 92.6151 342.325C92.9598 341.643 93.4408 341.113 94.0582 340.734C94.6757 340.351 95.401 340.16 96.2344 340.16C96.7723 340.16 97.2798 340.247 97.7571 340.421C98.2382 340.592 98.6624 340.857 99.0298 341.217C99.401 341.577 99.6927 342.035 99.9048 342.592C100.117 343.145 100.223 343.804 100.223 344.569V345.2H93.0696V343.813H98.2514C98.2476 343.42 98.1624 343.069 97.9957 342.762C97.8291 342.452 97.5961 342.207 97.2969 342.029C97.0014 341.851 96.6567 341.762 96.2628 341.762C95.8423 341.762 95.473 341.865 95.1548 342.069C94.8366 342.27 94.5885 342.535 94.4105 342.865C94.2363 343.19 94.1473 343.548 94.1435 343.938V345.149C94.1435 345.656 94.2363 346.092 94.4219 346.456C94.6075 346.815 94.867 347.092 95.2003 347.285C95.5336 347.474 95.9238 347.569 96.3707 347.569C96.67 347.569 96.9408 347.527 97.1832 347.444C97.4257 347.357 97.6359 347.23 97.8139 347.063C97.992 346.897 98.1264 346.69 98.2173 346.444L100.138 346.66C100.017 347.168 99.7855 347.611 99.4446 347.99C99.1075 348.365 98.6757 348.656 98.1491 348.865C97.6226 349.069 97.0204 349.171 96.3423 349.171ZM1.14773 368.001V356.365H5.51136C6.4053 356.365 7.1553 356.531 7.76136 356.865C8.37121 357.198 8.83144 357.656 9.14205 358.24C9.45644 358.819 9.61364 359.478 9.61364 360.217C9.61364 360.963 9.45644 361.626 9.14205 362.206C8.82765 362.785 8.36364 363.242 7.75 363.575C7.13636 363.904 6.38068 364.069 5.48295 364.069H2.59091V362.336H5.19886C5.72159 362.336 6.14962 362.245 6.48295 362.063C6.81629 361.882 7.0625 361.632 7.22159 361.313C7.38447 360.995 7.46591 360.63 7.46591 360.217C7.46591 359.804 7.38447 359.44 7.22159 359.126C7.0625 358.812 6.81439 358.567 6.47727 358.393C6.14394 358.215 5.71402 358.126 5.1875 358.126H3.25568V368.001H1.14773ZM13.4105 356.365V368.001H11.3537V356.365H13.4105ZM18.0369 368.177C17.4839 368.177 16.9858 368.079 16.5426 367.882C16.1032 367.681 15.7547 367.385 15.4972 366.995C15.2434 366.605 15.1165 366.124 15.1165 365.552C15.1165 365.06 15.2074 364.652 15.3892 364.331C15.571 364.009 15.8191 363.751 16.1335 363.558C16.4479 363.365 16.8021 363.219 17.196 363.12C17.5938 363.018 18.0047 362.944 18.429 362.899C18.9403 362.846 19.3551 362.798 19.6733 362.757C19.9915 362.711 20.2225 362.643 20.3665 362.552C20.5142 362.457 20.5881 362.312 20.5881 362.115V362.081C20.5881 361.652 20.4612 361.321 20.2074 361.086C19.9536 360.851 19.5881 360.734 19.1108 360.734C18.607 360.734 18.2074 360.844 17.9119 361.063C17.6203 361.283 17.4233 361.543 17.321 361.842L15.4006 361.569C15.5521 361.039 15.8021 360.596 16.1506 360.24C16.4991 359.88 16.9252 359.611 17.429 359.433C17.9328 359.251 18.4896 359.16 19.0994 359.16C19.5199 359.16 19.9384 359.209 20.3551 359.308C20.7718 359.406 21.1525 359.569 21.4972 359.796C21.8419 360.02 22.1184 360.325 22.3267 360.711C22.5388 361.098 22.6449 361.581 22.6449 362.16V368.001H20.6676V366.802H20.5994C20.4744 367.045 20.2983 367.272 20.071 367.484C19.8475 367.692 19.5653 367.861 19.2244 367.99C18.8873 368.115 18.4915 368.177 18.0369 368.177ZM18.571 366.666C18.9839 366.666 19.3419 366.584 19.6449 366.421C19.9479 366.255 20.1809 366.035 20.3438 365.762C20.5104 365.49 20.5938 365.192 20.5938 364.87V363.842C20.5294 363.895 20.4195 363.944 20.2642 363.99C20.1127 364.035 19.9422 364.075 19.7528 364.109C19.5634 364.143 19.3759 364.173 19.1903 364.2C19.0047 364.226 18.8438 364.249 18.7074 364.268C18.4006 364.31 18.1259 364.378 17.8835 364.473C17.6411 364.567 17.4498 364.7 17.3097 364.87C17.1695 365.037 17.0994 365.253 17.0994 365.518C17.0994 365.897 17.2377 366.183 17.5142 366.376C17.7907 366.569 18.143 366.666 18.571 366.666ZM26.7699 362.887V368.001H24.7131V359.274H26.679V360.757H26.7812C26.982 360.268 27.3021 359.88 27.7415 359.592C28.1847 359.304 28.732 359.16 29.3835 359.16C29.9858 359.16 30.5104 359.289 30.9574 359.546C31.4081 359.804 31.7566 360.177 32.0028 360.666C32.2528 361.154 32.3759 361.747 32.3722 362.444V368.001H30.3153V362.762C30.3153 362.179 30.1638 361.723 29.8608 361.393C29.5616 361.063 29.1468 360.899 28.6165 360.899C28.2566 360.899 27.9366 360.978 27.6562 361.137C27.3797 361.293 27.1619 361.518 27.0028 361.813C26.8475 362.109 26.7699 362.467 26.7699 362.887ZM36.5199 362.887V368.001H34.4631V359.274H36.429V360.757H36.5312C36.732 360.268 37.0521 359.88 37.4915 359.592C37.9347 359.304 38.482 359.16 39.1335 359.16C39.7358 359.16 40.2604 359.289 40.7074 359.546C41.1581 359.804 41.5066 360.177 41.7528 360.666C42.0028 361.154 42.1259 361.747 42.1222 362.444V368.001H40.0653V362.762C40.0653 362.179 39.9138 361.723 39.6108 361.393C39.3116 361.063 38.8968 360.899 38.3665 360.899C38.0066 360.899 37.6866 360.978 37.4062 361.137C37.1297 361.293 36.9119 361.518 36.7528 361.813C36.5975 362.109 36.5199 362.467 36.5199 362.887ZM44.2131 368.001V359.274H46.2699V368.001H44.2131ZM45.2472 358.035C44.9214 358.035 44.6411 357.927 44.4062 357.711C44.1714 357.492 44.054 357.228 44.054 356.921C44.054 356.611 44.1714 356.348 44.4062 356.132C44.6411 355.912 44.9214 355.802 45.2472 355.802C45.5767 355.802 45.857 355.912 46.0881 356.132C46.3229 356.348 46.4403 356.611 46.4403 356.921C46.4403 357.228 46.3229 357.492 46.0881 357.711C45.857 357.927 45.5767 358.035 45.2472 358.035ZM50.4418 362.887V368.001H48.3849V359.274H50.3509V360.757H50.4531C50.6539 360.268 50.974 359.88 51.4134 359.592C51.8565 359.304 52.4039 359.16 53.0554 359.16C53.6577 359.16 54.1823 359.289 54.6293 359.546C55.08 359.804 55.4285 360.177 55.6747 360.666C55.9247 361.154 56.0478 361.747 56.044 362.444V368.001H53.9872V362.762C53.9872 362.179 53.8357 361.723 53.5327 361.393C53.2334 361.063 52.8187 360.899 52.2884 360.899C51.9285 360.899 51.6084 360.978 51.3281 361.137C51.0516 361.293 50.8338 361.518 50.6747 361.813C50.5194 362.109 50.4418 362.467 50.4418 362.887ZM61.9304 371.456C61.1918 371.456 60.5573 371.355 60.027 371.154C59.4967 370.957 59.0705 370.692 58.7486 370.359C58.4266 370.026 58.2031 369.656 58.0781 369.251L59.9304 368.802C60.0137 368.973 60.1349 369.141 60.294 369.308C60.4531 369.478 60.6671 369.618 60.9361 369.728C61.2088 369.842 61.5516 369.899 61.9645 369.899C62.5478 369.899 63.0308 369.757 63.4134 369.473C63.7959 369.192 63.9872 368.73 63.9872 368.086V366.433H63.8849C63.7789 366.645 63.6236 366.863 63.419 367.086C63.2183 367.31 62.9512 367.497 62.6179 367.649C62.2884 367.8 61.8736 367.876 61.3736 367.876C60.7031 367.876 60.0952 367.719 59.5497 367.404C59.008 367.086 58.5762 366.613 58.2543 365.984C57.9361 365.351 57.777 364.56 57.777 363.609C57.777 362.651 57.9361 361.842 58.2543 361.183C58.5762 360.52 59.0099 360.018 59.5554 359.677C60.1009 359.332 60.7088 359.16 61.3793 359.16C61.8906 359.16 62.3111 359.247 62.6406 359.421C62.974 359.592 63.2391 359.798 63.4361 360.041C63.633 360.279 63.7827 360.505 63.8849 360.717H63.9986V359.274H66.027V368.143C66.027 368.889 65.849 369.507 65.4929 369.995C65.1368 370.484 64.6501 370.849 64.0327 371.092C63.4152 371.334 62.7145 371.456 61.9304 371.456ZM61.9474 366.262C62.383 366.262 62.7543 366.156 63.0611 365.944C63.3679 365.732 63.6009 365.427 63.7599 365.029C63.919 364.632 63.9986 364.154 63.9986 363.598C63.9986 363.048 63.919 362.567 63.7599 362.154C63.6046 361.742 63.3736 361.421 63.0668 361.194C62.7637 360.963 62.3906 360.848 61.9474 360.848C61.4891 360.848 61.1065 360.967 60.7997 361.206C60.4929 361.444 60.2618 361.772 60.1065 362.188C59.9512 362.601 59.8736 363.071 59.8736 363.598C59.8736 364.132 59.9512 364.599 60.1065 365.001C60.2656 365.399 60.4986 365.709 60.8054 365.933C61.116 366.152 61.4967 366.262 61.9474 366.262Z" fill="black"/>
</svg>
