<svg width="364" height="33" viewBox="0 0 364 33" fill="none" xmlns="http://www.w3.org/2000/svg">
<rect width="77" height="33" rx="4" fill="#57BBE9"/>
<path d="M14.1665 11.8182V22H12.0138V11.8182H14.1665ZM18.0158 17.5852V22H15.8979V14.3636H17.9164V15.7109H18.0059C18.1749 15.2668 18.4583 14.9155 18.856 14.657C19.2537 14.3951 19.736 14.2642 20.3027 14.2642C20.833 14.2642 21.2954 14.3802 21.6898 14.6122C22.0842 14.8442 22.3908 15.1757 22.6096 15.6065C22.8283 16.0341 22.9377 16.5445 22.9377 17.1378V22H20.8198V17.5156C20.8231 17.0483 20.7038 16.6837 20.4618 16.4219C20.2199 16.1567 19.8868 16.0241 19.4625 16.0241C19.1775 16.0241 18.9256 16.0855 18.7069 16.2081C18.4914 16.3307 18.3224 16.5097 18.1998 16.745C18.0804 16.977 18.0191 17.2571 18.0158 17.5852ZM29.3647 16.9787V18.6591H24.7212V16.9787H29.3647ZM37.5231 16.5412L35.5842 16.6605C35.551 16.4948 35.4798 16.3456 35.3704 16.2131C35.261 16.0772 35.1168 15.9695 34.9379 15.8899C34.7622 15.8071 34.5517 15.7656 34.3065 15.7656C33.9783 15.7656 33.7016 15.8352 33.4762 15.9744C33.2508 16.1103 33.1381 16.2926 33.1381 16.5213C33.1381 16.7036 33.2111 16.8577 33.3569 16.9837C33.5027 17.1096 33.753 17.2107 34.1076 17.2869L35.4897 17.5653C36.2321 17.7178 36.7856 17.9631 37.1502 18.3011C37.5148 18.6392 37.6971 19.0833 37.6971 19.6335C37.6971 20.134 37.5496 20.5732 37.2546 20.951C36.963 21.3288 36.5619 21.6238 36.0515 21.8359C35.5444 22.0447 34.9594 22.1491 34.2965 22.1491C33.2856 22.1491 32.4802 21.9387 31.8803 21.5178C31.2837 21.0935 30.9341 20.5168 30.8313 19.7876L32.9144 19.6783C32.9774 19.9865 33.1299 20.2218 33.3718 20.3842C33.6138 20.5433 33.9237 20.6229 34.3015 20.6229C34.6727 20.6229 34.971 20.5516 35.1964 20.4091C35.4251 20.2633 35.5411 20.076 35.5444 19.8473C35.5411 19.6551 35.4599 19.4976 35.3008 19.375C35.1417 19.2491 34.8964 19.1529 34.565 19.0866L33.2425 18.8232C32.4968 18.674 31.9416 18.4155 31.5771 18.0476C31.2158 17.6797 31.0352 17.2107 31.0352 16.6406C31.0352 16.1501 31.1677 15.7275 31.4329 15.3729C31.7013 15.0182 32.0775 14.7448 32.5614 14.5526C33.0487 14.3603 33.6187 14.2642 34.2717 14.2642C35.2362 14.2642 35.9951 14.468 36.5487 14.8757C37.1055 15.2834 37.4303 15.8385 37.5231 16.5412ZM43.0925 14.3636V15.9545H38.4938V14.3636H43.0925ZM39.5378 12.5341H41.6557V19.6534C41.6557 19.849 41.6855 20.0014 41.7452 20.1108C41.8049 20.2169 41.8877 20.2914 41.9938 20.3345C42.1032 20.3776 42.2291 20.3991 42.3716 20.3991C42.4711 20.3991 42.5705 20.3909 42.6699 20.3743C42.7694 20.3544 42.8456 20.3395 42.8986 20.3295L43.2317 21.9055C43.1257 21.9387 42.9765 21.9768 42.7843 22.0199C42.592 22.0663 42.3584 22.0945 42.0833 22.1044C41.5729 22.1243 41.1254 22.0563 40.7409 21.9006C40.3598 21.7448 40.0632 21.5028 39.851 21.1747C39.6389 20.8466 39.5345 20.4323 39.5378 19.9318V12.5341ZM47.8404 22.1491C47.0681 22.1491 46.4003 21.9851 45.8368 21.657C45.2767 21.3255 44.8442 20.8648 44.5392 20.2749C44.2343 19.6816 44.0819 18.9938 44.0819 18.2116C44.0819 17.4228 44.2343 16.7334 44.5392 16.1435C44.8442 15.5502 45.2767 15.0895 45.8368 14.7614C46.4003 14.4299 47.0681 14.2642 47.8404 14.2642C48.6126 14.2642 49.2788 14.4299 49.839 14.7614C50.4024 15.0895 50.8366 15.5502 51.1415 16.1435C51.4464 16.7334 51.5989 17.4228 51.5989 18.2116C51.5989 18.9938 51.4464 19.6816 51.1415 20.2749C50.8366 20.8648 50.4024 21.3255 49.839 21.657C49.2788 21.9851 48.6126 22.1491 47.8404 22.1491ZM47.8503 20.5085C48.2016 20.5085 48.495 20.4091 48.7303 20.2102C48.9656 20.008 49.1429 19.733 49.2623 19.3849C49.3849 19.0369 49.4462 18.6409 49.4462 18.1967C49.4462 17.7526 49.3849 17.3565 49.2623 17.0085C49.1429 16.6605 48.9656 16.3854 48.7303 16.1832C48.495 15.9811 48.2016 15.88 47.8503 15.88C47.4957 15.88 47.1974 15.9811 46.9554 16.1832C46.7168 16.3854 46.5362 16.6605 46.4135 17.0085C46.2942 17.3565 46.2346 17.7526 46.2346 18.1967C46.2346 18.6409 46.2942 19.0369 46.4135 19.3849C46.5362 19.733 46.7168 20.008 46.9554 20.2102C47.1974 20.4091 47.4957 20.5085 47.8503 20.5085ZM52.976 22V14.3636H55.0293V15.696H55.1088C55.248 15.2221 55.4817 14.8641 55.8098 14.6222C56.138 14.3769 56.5158 14.2543 56.9434 14.2543C57.0494 14.2543 57.1638 14.2609 57.2864 14.2741C57.409 14.2874 57.5167 14.3056 57.6096 14.3288V16.2081C57.5101 16.1783 57.3726 16.1518 57.1969 16.1286C57.0212 16.1054 56.8605 16.0938 56.7147 16.0938C56.4031 16.0938 56.1247 16.1617 55.8794 16.2976C55.6375 16.4302 55.4453 16.6158 55.3027 16.8544C55.1635 17.093 55.0939 17.3681 55.0939 17.6797V22H52.976ZM61.8292 22.1491C61.0437 22.1491 60.3675 21.9901 59.8008 21.6719C59.2373 21.3504 58.8031 20.8963 58.4982 20.3097C58.1933 19.7197 58.0408 19.022 58.0408 18.2166C58.0408 17.4311 58.1933 16.7417 58.4982 16.1484C58.8031 15.5552 59.2324 15.0928 59.7859 14.7614C60.3427 14.4299 60.9956 14.2642 61.7447 14.2642C62.2485 14.2642 62.7174 14.3454 63.1516 14.5078C63.5891 14.6669 63.9703 14.9072 64.2951 15.2287C64.6232 15.5502 64.8784 15.9545 65.0607 16.4418C65.243 16.9257 65.3342 17.4924 65.3342 18.142V18.7237H58.886V17.4112H63.3406C63.3406 17.1063 63.2743 16.8362 63.1417 16.6009C63.0091 16.3655 62.8252 16.1816 62.5898 16.049C62.3578 15.9131 62.0877 15.8452 61.7795 15.8452C61.458 15.8452 61.1729 15.9197 60.9244 16.0689C60.6791 16.2147 60.4869 16.4119 60.3477 16.6605C60.2085 16.9058 60.1372 17.1792 60.1339 17.4808V18.7287C60.1339 19.1065 60.2035 19.433 60.3427 19.7081C60.4852 19.9832 60.6857 20.1953 60.9442 20.3445C61.2028 20.4936 61.5094 20.5682 61.864 20.5682C62.0993 20.5682 62.3147 20.535 62.5103 20.4688C62.7058 20.4025 62.8732 20.303 63.0124 20.1705C63.1516 20.0379 63.2577 19.8755 63.3306 19.6832L65.2894 19.8125C65.19 20.2831 64.9862 20.6941 64.6779 21.0455C64.373 21.3935 63.9786 21.6652 63.4947 21.8608C63.0141 22.053 62.4589 22.1491 61.8292 22.1491Z" fill="white"/>
<rect x="88" width="132" height="33" rx="4" fill="#57BBE9"/>
<path d="M108.617 16.9091C108.617 18.0194 108.407 18.964 107.986 19.7429C107.568 20.5218 106.998 21.1167 106.276 21.5277C105.557 21.9354 104.748 22.1392 103.85 22.1392C102.945 22.1392 102.133 21.9337 101.414 21.5227C100.694 21.1117 100.126 20.5168 99.7084 19.7379C99.2907 18.959 99.0819 18.0161 99.0819 16.9091C99.0819 15.7988 99.2907 14.8542 99.7084 14.0753C100.126 13.2964 100.694 12.7031 101.414 12.2955C102.133 11.8845 102.945 11.679 103.85 11.679C104.748 11.679 105.557 11.8845 106.276 12.2955C106.998 12.7031 107.568 13.2964 107.986 14.0753C108.407 14.8542 108.617 15.7988 108.617 16.9091ZM106.435 16.9091C106.435 16.1899 106.327 15.5833 106.112 15.0895C105.9 14.5956 105.6 14.2211 105.212 13.9659C104.824 13.7107 104.37 13.5831 103.85 13.5831C103.329 13.5831 102.875 13.7107 102.487 13.9659C102.1 14.2211 101.798 14.5956 101.583 15.0895C101.371 15.5833 101.264 16.1899 101.264 16.9091C101.264 17.6283 101.371 18.2348 101.583 18.7287C101.798 19.2225 102.1 19.5971 102.487 19.8523C102.875 20.1075 103.329 20.2351 103.85 20.2351C104.37 20.2351 104.824 20.1075 105.212 19.8523C105.6 19.5971 105.9 19.2225 106.112 18.7287C106.327 18.2348 106.435 17.6283 106.435 16.9091ZM112.29 17.5852V22H110.172V14.3636H112.191V15.7109H112.28C112.449 15.2668 112.733 14.9155 113.13 14.657C113.528 14.3951 114.01 14.2642 114.577 14.2642C115.107 14.2642 115.57 14.3802 115.964 14.6122C116.359 14.8442 116.665 15.1757 116.884 15.6065C117.103 16.0341 117.212 16.5445 117.212 17.1378V22H115.094V17.5156C115.098 17.0483 114.978 16.6837 114.736 16.4219C114.494 16.1567 114.161 16.0241 113.737 16.0241C113.452 16.0241 113.2 16.0855 112.981 16.2081C112.766 16.3307 112.597 16.5097 112.474 16.745C112.355 16.977 112.294 17.2571 112.29 17.5852ZM120.999 11.8182V22H118.881V11.8182H120.999ZM122.696 22V14.3636H124.814V22H122.696ZM123.76 13.3793C123.445 13.3793 123.175 13.2749 122.949 13.0661C122.727 12.8539 122.616 12.6004 122.616 12.3054C122.616 12.0137 122.727 11.7635 122.949 11.5547C123.175 11.3426 123.445 11.2365 123.76 11.2365C124.075 11.2365 124.343 11.3426 124.565 11.5547C124.79 11.7635 124.903 12.0137 124.903 12.3054C124.903 12.6004 124.79 12.8539 124.565 13.0661C124.343 13.2749 124.075 13.3793 123.76 13.3793ZM128.628 17.5852V22H126.51V14.3636H128.529V15.7109H128.618C128.787 15.2668 129.071 14.9155 129.468 14.657C129.866 14.3951 130.348 14.2642 130.915 14.2642C131.445 14.2642 131.908 14.3802 132.302 14.6122C132.697 14.8442 133.003 15.1757 133.222 15.6065C133.441 16.0341 133.55 16.5445 133.55 17.1378V22H131.432V17.5156C131.435 17.0483 131.316 16.6837 131.074 16.4219C130.832 16.1567 130.499 16.0241 130.075 16.0241C129.79 16.0241 129.538 16.0855 129.319 16.2081C129.104 16.3307 128.935 16.5097 128.812 16.745C128.693 16.977 128.631 17.2571 128.628 17.5852ZM138.699 22.1491C137.914 22.1491 137.238 21.9901 136.671 21.6719C136.107 21.3504 135.673 20.8963 135.368 20.3097C135.063 19.7197 134.911 19.022 134.911 18.2166C134.911 17.4311 135.063 16.7417 135.368 16.1484C135.673 15.5552 136.102 15.0928 136.656 14.7614C137.213 14.4299 137.866 14.2642 138.615 14.2642C139.119 14.2642 139.588 14.3454 140.022 14.5078C140.459 14.6669 140.84 14.9072 141.165 15.2287C141.493 15.5502 141.749 15.9545 141.931 16.4418C142.113 16.9257 142.204 17.4924 142.204 18.142V18.7237H135.756V17.4112H140.211C140.211 17.1063 140.144 16.8362 140.012 16.6009C139.879 16.3655 139.695 16.1816 139.46 16.049C139.228 15.9131 138.958 15.8452 138.65 15.8452C138.328 15.8452 138.043 15.9197 137.794 16.0689C137.549 16.2147 137.357 16.4119 137.218 16.6605C137.079 16.9058 137.007 17.1792 137.004 17.4808V18.7287C137.004 19.1065 137.074 19.433 137.213 19.7081C137.355 19.9832 137.556 20.1953 137.814 20.3445C138.073 20.4936 138.379 20.5682 138.734 20.5682C138.969 20.5682 139.185 20.535 139.38 20.4688C139.576 20.4025 139.743 20.303 139.883 20.1705C140.022 20.0379 140.128 19.8755 140.201 19.6832L142.16 19.8125C142.06 20.2831 141.856 20.6941 141.548 21.0455C141.243 21.3935 140.849 21.6652 140.365 21.8608C139.884 22.053 139.329 22.1491 138.699 22.1491ZM150.888 14.3636V15.9545H146.29V14.3636H150.888ZM147.334 12.5341H149.452V19.6534C149.452 19.849 149.481 20.0014 149.541 20.1108C149.601 20.2169 149.684 20.2914 149.79 20.3345C149.899 20.3776 150.025 20.3991 150.168 20.3991C150.267 20.3991 150.366 20.3909 150.466 20.3743C150.565 20.3544 150.641 20.3395 150.695 20.3295L151.028 21.9055C150.922 21.9387 150.772 21.9768 150.58 22.0199C150.388 22.0663 150.154 22.0945 149.879 22.1044C149.369 22.1243 148.921 22.0563 148.537 21.9006C148.156 21.7448 147.859 21.5028 147.647 21.1747C147.435 20.8466 147.33 20.4323 147.334 19.9318V12.5341ZM155.636 22.1491C154.864 22.1491 154.196 21.9851 153.633 21.657C153.073 21.3255 152.64 20.8648 152.335 20.2749C152.03 19.6816 151.878 18.9938 151.878 18.2116C151.878 17.4228 152.03 16.7334 152.335 16.1435C152.64 15.5502 153.073 15.0895 153.633 14.7614C154.196 14.4299 154.864 14.2642 155.636 14.2642C156.409 14.2642 157.075 14.4299 157.635 14.7614C158.198 15.0895 158.632 15.5502 158.937 16.1435C159.242 16.7334 159.395 17.4228 159.395 18.2116C159.395 18.9938 159.242 19.6816 158.937 20.2749C158.632 20.8648 158.198 21.3255 157.635 21.657C157.075 21.9851 156.409 22.1491 155.636 22.1491ZM155.646 20.5085C155.998 20.5085 156.291 20.4091 156.526 20.2102C156.762 20.008 156.939 19.733 157.058 19.3849C157.181 19.0369 157.242 18.6409 157.242 18.1967C157.242 17.7526 157.181 17.3565 157.058 17.0085C156.939 16.6605 156.762 16.3854 156.526 16.1832C156.291 15.9811 155.998 15.88 155.646 15.88C155.292 15.88 154.993 15.9811 154.751 16.1832C154.513 16.3854 154.332 16.6605 154.209 17.0085C154.09 17.3565 154.03 17.7526 154.03 18.1967C154.03 18.6409 154.09 19.0369 154.209 19.3849C154.332 19.733 154.513 20.008 154.751 20.2102C154.993 20.4091 155.292 20.5085 155.646 20.5085ZM173.408 16.9091C173.408 18.0194 173.198 18.964 172.777 19.7429C172.359 20.5218 171.789 21.1167 171.067 21.5277C170.348 21.9354 169.539 22.1392 168.641 22.1392C167.736 22.1392 166.924 21.9337 166.205 21.5227C165.485 21.1117 164.917 20.5168 164.499 19.7379C164.082 18.959 163.873 18.0161 163.873 16.9091C163.873 15.7988 164.082 14.8542 164.499 14.0753C164.917 13.2964 165.485 12.7031 166.205 12.2955C166.924 11.8845 167.736 11.679 168.641 11.679C169.539 11.679 170.348 11.8845 171.067 12.2955C171.789 12.7031 172.359 13.2964 172.777 14.0753C173.198 14.8542 173.408 15.7988 173.408 16.9091ZM171.226 16.9091C171.226 16.1899 171.118 15.5833 170.903 15.0895C170.691 14.5956 170.391 14.2211 170.003 13.9659C169.615 13.7107 169.161 13.5831 168.641 13.5831C168.12 13.5831 167.666 13.7107 167.278 13.9659C166.891 14.2211 166.589 14.5956 166.374 15.0895C166.162 15.5833 166.055 16.1899 166.055 16.9091C166.055 17.6283 166.162 18.2348 166.374 18.7287C166.589 19.2225 166.891 19.5971 167.278 19.8523C167.666 20.1075 168.12 20.2351 168.641 20.2351C169.161 20.2351 169.615 20.1075 170.003 19.8523C170.391 19.5971 170.691 19.2225 170.903 18.7287C171.118 18.2348 171.226 17.6283 171.226 16.9091ZM179.07 14.3636V15.9545H174.357V14.3636H179.07ZM175.436 22V13.8118C175.436 13.2583 175.543 12.7992 175.759 12.4347C175.978 12.0701 176.276 11.7966 176.654 11.6143C177.032 11.4321 177.461 11.3409 177.941 11.3409C178.266 11.3409 178.563 11.3658 178.831 11.4155C179.103 11.4652 179.305 11.5099 179.438 11.5497L179.06 13.1406C178.977 13.1141 178.874 13.0893 178.752 13.0661C178.632 13.0429 178.51 13.0312 178.384 13.0312C178.072 13.0312 177.855 13.1042 177.733 13.25C177.61 13.3925 177.549 13.593 177.549 13.8516V22H175.436ZM184.47 14.3636V15.9545H179.757V14.3636H184.47ZM180.836 22V13.8118C180.836 13.2583 180.944 12.7992 181.159 12.4347C181.378 12.0701 181.676 11.7966 182.054 11.6143C182.432 11.4321 182.861 11.3409 183.342 11.3409C183.667 11.3409 183.963 11.3658 184.232 11.4155C184.503 11.4652 184.706 11.5099 184.838 11.5497L184.46 13.1406C184.377 13.1141 184.275 13.0893 184.152 13.0661C184.033 13.0429 183.91 13.0312 183.784 13.0312C183.473 13.0312 183.256 13.1042 183.133 13.25C183.01 13.3925 182.949 13.593 182.949 13.8516V22H180.836ZM187.882 11.8182V22H185.764V11.8182H187.882ZM189.579 22V14.3636H191.696V22H189.579ZM190.642 13.3793C190.328 13.3793 190.057 13.2749 189.832 13.0661C189.61 12.8539 189.499 12.6004 189.499 12.3054C189.499 12.0137 189.61 11.7635 189.832 11.5547C190.057 11.3426 190.328 11.2365 190.642 11.2365C190.957 11.2365 191.226 11.3426 191.448 11.5547C191.673 11.7635 191.786 12.0137 191.786 12.3054C191.786 12.6004 191.673 12.8539 191.448 13.0661C191.226 13.2749 190.957 13.3793 190.642 13.3793ZM195.511 17.5852V22H193.393V14.3636H195.411V15.7109H195.501C195.67 15.2668 195.953 14.9155 196.351 14.657C196.749 14.3951 197.231 14.2642 197.798 14.2642C198.328 14.2642 198.791 14.3802 199.185 14.6122C199.579 14.8442 199.886 15.1757 200.105 15.6065C200.323 16.0341 200.433 16.5445 200.433 17.1378V22H198.315V17.5156C198.318 17.0483 198.199 16.6837 197.957 16.4219C197.715 16.1567 197.382 16.0241 196.958 16.0241C196.673 16.0241 196.421 16.0855 196.202 16.2081C195.987 16.3307 195.818 16.5097 195.695 16.745C195.576 16.977 195.514 17.2571 195.511 17.5852ZM205.582 22.1491C204.797 22.1491 204.12 21.9901 203.554 21.6719C202.99 21.3504 202.556 20.8963 202.251 20.3097C201.946 19.7197 201.794 19.022 201.794 18.2166C201.794 17.4311 201.946 16.7417 202.251 16.1484C202.556 15.5552 202.985 15.0928 203.539 14.7614C204.096 14.4299 204.749 14.2642 205.498 14.2642C206.001 14.2642 206.47 14.3454 206.905 14.5078C207.342 14.6669 207.723 14.9072 208.048 15.2287C208.376 15.5502 208.631 15.9545 208.814 16.4418C208.996 16.9257 209.087 17.4924 209.087 18.142V18.7237H202.639V17.4112H207.093C207.093 17.1063 207.027 16.8362 206.895 16.6009C206.762 16.3655 206.578 16.1816 206.343 16.049C206.111 15.9131 205.841 15.8452 205.532 15.8452C205.211 15.8452 204.926 15.9197 204.677 16.0689C204.432 16.2147 204.24 16.4119 204.101 16.6605C203.961 16.9058 203.89 17.1792 203.887 17.4808V18.7287C203.887 19.1065 203.956 19.433 204.096 19.7081C204.238 19.9832 204.439 20.1953 204.697 20.3445C204.956 20.4936 205.262 20.5682 205.617 20.5682C205.852 20.5682 206.068 20.535 206.263 20.4688C206.459 20.4025 206.626 20.303 206.765 20.1705C206.905 20.0379 207.011 19.8755 207.084 19.6832L209.042 19.8125C208.943 20.2831 208.739 20.6941 208.431 21.0455C208.126 21.3935 207.732 21.6652 207.248 21.8608C206.767 22.053 206.212 22.1491 205.582 22.1491Z" fill="white"/>
<rect x="232" width="132" height="33" rx="4" fill="#57BBE9"/>
<path d="M252.617 16.9091C252.617 18.0194 252.407 18.964 251.986 19.7429C251.568 20.5218 250.998 21.1167 250.276 21.5277C249.557 21.9354 248.748 22.1392 247.85 22.1392C246.945 22.1392 246.133 21.9337 245.414 21.5227C244.694 21.1117 244.126 20.5168 243.708 19.7379C243.291 18.959 243.082 18.0161 243.082 16.9091C243.082 15.7988 243.291 14.8542 243.708 14.0753C244.126 13.2964 244.694 12.7031 245.414 12.2955C246.133 11.8845 246.945 11.679 247.85 11.679C248.748 11.679 249.557 11.8845 250.276 12.2955C250.998 12.7031 251.568 13.2964 251.986 14.0753C252.407 14.8542 252.617 15.7988 252.617 16.9091ZM250.435 16.9091C250.435 16.1899 250.327 15.5833 250.112 15.0895C249.9 14.5956 249.6 14.2211 249.212 13.9659C248.824 13.7107 248.37 13.5831 247.85 13.5831C247.329 13.5831 246.875 13.7107 246.487 13.9659C246.1 14.2211 245.798 14.5956 245.583 15.0895C245.371 15.5833 245.264 16.1899 245.264 16.9091C245.264 17.6283 245.371 18.2348 245.583 18.7287C245.798 19.2225 246.1 19.5971 246.487 19.8523C246.875 20.1075 247.329 20.2351 247.85 20.2351C248.37 20.2351 248.824 20.1075 249.212 19.8523C249.6 19.5971 249.9 19.2225 250.112 18.7287C250.327 18.2348 250.435 17.6283 250.435 16.9091ZM258.279 14.3636V15.9545H253.566V14.3636H258.279ZM254.645 22V13.8118C254.645 13.2583 254.752 12.7992 254.968 12.4347C255.187 12.0701 255.485 11.7966 255.863 11.6143C256.241 11.4321 256.67 11.3409 257.15 11.3409C257.475 11.3409 257.772 11.3658 258.04 11.4155C258.312 11.4652 258.514 11.5099 258.647 11.5497L258.269 13.1406C258.186 13.1141 258.083 13.0893 257.961 13.0661C257.841 13.0429 257.719 13.0312 257.593 13.0312C257.281 13.0312 257.064 13.1042 256.941 13.25C256.819 13.3925 256.758 13.593 256.758 13.8516V22H254.645ZM263.679 14.3636V15.9545H258.966V14.3636H263.679ZM260.045 22V13.8118C260.045 13.2583 260.153 12.7992 260.368 12.4347C260.587 12.0701 260.885 11.7966 261.263 11.6143C261.641 11.4321 262.07 11.3409 262.551 11.3409C262.876 11.3409 263.172 11.3658 263.441 11.4155C263.712 11.4652 263.915 11.5099 264.047 11.5497L263.669 13.1406C263.586 13.1141 263.484 13.0893 263.361 13.0661C263.242 13.0429 263.119 13.0312 262.993 13.0312C262.682 13.0312 262.465 13.1042 262.342 13.25C262.219 13.3925 262.158 13.593 262.158 13.8516V22H260.045ZM267.091 11.8182V22H264.973V11.8182H267.091ZM268.788 22V14.3636H270.905V22H268.788ZM269.851 13.3793C269.537 13.3793 269.266 13.2749 269.041 13.0661C268.819 12.8539 268.708 12.6004 268.708 12.3054C268.708 12.0137 268.819 11.7635 269.041 11.5547C269.266 11.3426 269.537 11.2365 269.851 11.2365C270.166 11.2365 270.435 11.3426 270.657 11.5547C270.882 11.7635 270.995 12.0137 270.995 12.3054C270.995 12.6004 270.882 12.8539 270.657 13.0661C270.435 13.2749 270.166 13.3793 269.851 13.3793ZM274.72 17.5852V22H272.602V14.3636H274.62V15.7109H274.71C274.879 15.2668 275.162 14.9155 275.56 14.657C275.958 14.3951 276.44 14.2642 277.007 14.2642C277.537 14.2642 277.999 14.3802 278.394 14.6122C278.788 14.8442 279.095 15.1757 279.314 15.6065C279.532 16.0341 279.642 16.5445 279.642 17.1378V22H277.524V17.5156C277.527 17.0483 277.408 16.6837 277.166 16.4219C276.924 16.1567 276.591 16.0241 276.167 16.0241C275.882 16.0241 275.63 16.0855 275.411 16.2081C275.196 16.3307 275.026 16.5097 274.904 16.745C274.785 16.977 274.723 17.2571 274.72 17.5852ZM284.791 22.1491C284.006 22.1491 283.329 21.9901 282.763 21.6719C282.199 21.3504 281.765 20.8963 281.46 20.3097C281.155 19.7197 281.003 19.022 281.003 18.2166C281.003 17.4311 281.155 16.7417 281.46 16.1484C281.765 15.5552 282.194 15.0928 282.748 14.7614C283.305 14.4299 283.958 14.2642 284.707 14.2642C285.21 14.2642 285.679 14.3454 286.114 14.5078C286.551 14.6669 286.932 14.9072 287.257 15.2287C287.585 15.5502 287.84 15.9545 288.023 16.4418C288.205 16.9257 288.296 17.4924 288.296 18.142V18.7237H281.848V17.4112H286.302C286.302 17.1063 286.236 16.8362 286.104 16.6009C285.971 16.3655 285.787 16.1816 285.552 16.049C285.32 15.9131 285.05 15.8452 284.741 15.8452C284.42 15.8452 284.135 15.9197 283.886 16.0689C283.641 16.2147 283.449 16.4119 283.31 16.6605C283.17 16.9058 283.099 17.1792 283.096 17.4808V18.7287C283.096 19.1065 283.165 19.433 283.305 19.7081C283.447 19.9832 283.648 20.1953 283.906 20.3445C284.165 20.4936 284.471 20.5682 284.826 20.5682C285.061 20.5682 285.277 20.535 285.472 20.4688C285.668 20.4025 285.835 20.303 285.974 20.1705C286.114 20.0379 286.22 19.8755 286.293 19.6832L288.251 19.8125C288.152 20.2831 287.948 20.6941 287.64 21.0455C287.335 21.3935 286.94 21.6652 286.457 21.8608C285.976 22.053 285.421 22.1491 284.791 22.1491ZM296.98 14.3636V15.9545H292.381V14.3636H296.98ZM293.426 12.5341H295.543V19.6534C295.543 19.849 295.573 20.0014 295.633 20.1108C295.693 20.2169 295.775 20.2914 295.881 20.3345C295.991 20.3776 296.117 20.3991 296.259 20.3991C296.359 20.3991 296.458 20.3909 296.558 20.3743C296.657 20.3544 296.733 20.3395 296.786 20.3295L297.119 21.9055C297.013 21.9387 296.864 21.9768 296.672 22.0199C296.48 22.0663 296.246 22.0945 295.971 22.1044C295.461 22.1243 295.013 22.0563 294.629 21.9006C294.247 21.7448 293.951 21.5028 293.739 21.1747C293.527 20.8466 293.422 20.4323 293.426 19.9318V12.5341ZM301.728 22.1491C300.956 22.1491 300.288 21.9851 299.725 21.657C299.164 21.3255 298.732 20.8648 298.427 20.2749C298.122 19.6816 297.97 18.9938 297.97 18.2116C297.97 17.4228 298.122 16.7334 298.427 16.1435C298.732 15.5502 299.164 15.0895 299.725 14.7614C300.288 14.4299 300.956 14.2642 301.728 14.2642C302.5 14.2642 303.167 14.4299 303.727 14.7614C304.29 15.0895 304.724 15.5502 305.029 16.1435C305.334 16.7334 305.487 17.4228 305.487 18.2116C305.487 18.9938 305.334 19.6816 305.029 20.2749C304.724 20.8648 304.29 21.3255 303.727 21.657C303.167 21.9851 302.5 22.1491 301.728 22.1491ZM301.738 20.5085C302.089 20.5085 302.383 20.4091 302.618 20.2102C302.853 20.008 303.031 19.733 303.15 19.3849C303.273 19.0369 303.334 18.6409 303.334 18.1967C303.334 17.7526 303.273 17.3565 303.15 17.0085C303.031 16.6605 302.853 16.3854 302.618 16.1832C302.383 15.9811 302.089 15.88 301.738 15.88C301.383 15.88 301.085 15.9811 300.843 16.1832C300.604 16.3854 300.424 16.6605 300.301 17.0085C300.182 17.3565 300.122 17.7526 300.122 18.1967C300.122 18.6409 300.182 19.0369 300.301 19.3849C300.424 19.733 300.604 20.008 300.843 20.2102C301.085 20.4091 301.383 20.5085 301.738 20.5085ZM319.5 16.9091C319.5 18.0194 319.29 18.964 318.869 19.7429C318.451 20.5218 317.881 21.1167 317.159 21.5277C316.439 21.9354 315.631 22.1392 314.733 22.1392C313.828 22.1392 313.016 21.9337 312.296 21.5227C311.577 21.1117 311.009 20.5168 310.591 19.7379C310.174 18.959 309.965 18.0161 309.965 16.9091C309.965 15.7988 310.174 14.8542 310.591 14.0753C311.009 13.2964 311.577 12.7031 312.296 12.2955C313.016 11.8845 313.828 11.679 314.733 11.679C315.631 11.679 316.439 11.8845 317.159 12.2955C317.881 12.7031 318.451 13.2964 318.869 14.0753C319.29 14.8542 319.5 15.7988 319.5 16.9091ZM317.318 16.9091C317.318 16.1899 317.21 15.5833 316.995 15.0895C316.782 14.5956 316.483 14.2211 316.095 13.9659C315.707 13.7107 315.253 13.5831 314.733 13.5831C314.212 13.5831 313.758 13.7107 313.37 13.9659C312.983 14.2211 312.681 14.5956 312.465 15.0895C312.253 15.5833 312.147 16.1899 312.147 16.9091C312.147 17.6283 312.253 18.2348 312.465 18.7287C312.681 19.2225 312.983 19.5971 313.37 19.8523C313.758 20.1075 314.212 20.2351 314.733 20.2351C315.253 20.2351 315.707 20.1075 316.095 19.8523C316.483 19.5971 316.782 19.2225 316.995 18.7287C317.21 18.2348 317.318 17.6283 317.318 16.9091ZM323.173 17.5852V22H321.055V14.3636H323.074V15.7109H323.163C323.332 15.2668 323.616 14.9155 324.013 14.657C324.411 14.3951 324.893 14.2642 325.46 14.2642C325.99 14.2642 326.453 14.3802 326.847 14.6122C327.241 14.8442 327.548 15.1757 327.767 15.6065C327.986 16.0341 328.095 16.5445 328.095 17.1378V22H325.977V17.5156C325.98 17.0483 325.861 16.6837 325.619 16.4219C325.377 16.1567 325.044 16.0241 324.62 16.0241C324.335 16.0241 324.083 16.0855 323.864 16.2081C323.649 16.3307 323.48 16.5097 323.357 16.745C323.238 16.977 323.176 17.2571 323.173 17.5852ZM331.882 11.8182V22H329.764V11.8182H331.882ZM333.579 22V14.3636H335.696V22H333.579ZM334.642 13.3793C334.328 13.3793 334.057 13.2749 333.832 13.0661C333.61 12.8539 333.499 12.6004 333.499 12.3054C333.499 12.0137 333.61 11.7635 333.832 11.5547C334.057 11.3426 334.328 11.2365 334.642 11.2365C334.957 11.2365 335.226 11.3426 335.448 11.5547C335.673 11.7635 335.786 12.0137 335.786 12.3054C335.786 12.6004 335.673 12.8539 335.448 13.0661C335.226 13.2749 334.957 13.3793 334.642 13.3793ZM339.511 17.5852V22H337.393V14.3636H339.411V15.7109H339.501C339.67 15.2668 339.953 14.9155 340.351 14.657C340.749 14.3951 341.231 14.2642 341.798 14.2642C342.328 14.2642 342.791 14.3802 343.185 14.6122C343.579 14.8442 343.886 15.1757 344.105 15.6065C344.323 16.0341 344.433 16.5445 344.433 17.1378V22H342.315V17.5156C342.318 17.0483 342.199 16.6837 341.957 16.4219C341.715 16.1567 341.382 16.0241 340.958 16.0241C340.673 16.0241 340.421 16.0855 340.202 16.2081C339.987 16.3307 339.818 16.5097 339.695 16.745C339.576 16.977 339.514 17.2571 339.511 17.5852ZM349.582 22.1491C348.797 22.1491 348.12 21.9901 347.554 21.6719C346.99 21.3504 346.556 20.8963 346.251 20.3097C345.946 19.7197 345.794 19.022 345.794 18.2166C345.794 17.4311 345.946 16.7417 346.251 16.1484C346.556 15.5552 346.985 15.0928 347.539 14.7614C348.096 14.4299 348.749 14.2642 349.498 14.2642C350.001 14.2642 350.47 14.3454 350.905 14.5078C351.342 14.6669 351.723 14.9072 352.048 15.2287C352.376 15.5502 352.631 15.9545 352.814 16.4418C352.996 16.9257 353.087 17.4924 353.087 18.142V18.7237H346.639V17.4112H351.093C351.093 17.1063 351.027 16.8362 350.895 16.6009C350.762 16.3655 350.578 16.1816 350.343 16.049C350.111 15.9131 349.841 15.8452 349.532 15.8452C349.211 15.8452 348.926 15.9197 348.677 16.0689C348.432 16.2147 348.24 16.4119 348.101 16.6605C347.961 16.9058 347.89 17.1792 347.887 17.4808V18.7287C347.887 19.1065 347.956 19.433 348.096 19.7081C348.238 19.9832 348.439 20.1953 348.697 20.3445C348.956 20.4936 349.262 20.5682 349.617 20.5682C349.852 20.5682 350.068 20.535 350.263 20.4688C350.459 20.4025 350.626 20.303 350.765 20.1705C350.905 20.0379 351.011 19.8755 351.084 19.6832L353.042 19.8125C352.943 20.2831 352.739 20.6941 352.431 21.0455C352.126 21.3935 351.732 21.6652 351.248 21.8608C350.767 22.053 350.212 22.1491 349.582 22.1491Z" fill="white"/>
</svg>
