<svg width="361" height="78" viewBox="0 0 361 78" fill="none" xmlns="http://www.w3.org/2000/svg">
<rect width="88" height="33" rx="4" fill="#229CD8"/>
<path d="M25.7014 16.9091C25.7014 18.0194 25.491 18.964 25.07 19.7429C24.6524 20.5218 24.0824 21.1167 23.3598 21.5277C22.6406 21.9354 21.8319 22.1392 20.9337 22.1392C20.0289 22.1392 19.2168 21.9337 18.4976 21.5227C17.7784 21.1117 17.21 20.5168 16.7923 19.7379C16.3747 18.959 16.1659 18.0161 16.1659 16.9091C16.1659 15.7988 16.3747 14.8542 16.7923 14.0753C17.21 13.2964 17.7784 12.7031 18.4976 12.2955C19.2168 11.8845 20.0289 11.679 20.9337 11.679C21.8319 11.679 22.6406 11.8845 23.3598 12.2955C24.0824 12.7031 24.6524 13.2964 25.07 14.0753C25.491 14.8542 25.7014 15.7988 25.7014 16.9091ZM23.5189 16.9091C23.5189 16.1899 23.4112 15.5833 23.1958 15.0895C22.9836 14.5956 22.6837 14.2211 22.2959 13.9659C21.9081 13.7107 21.454 13.5831 20.9337 13.5831C20.4133 13.5831 19.9593 13.7107 19.5715 13.9659C19.1837 14.2211 18.8821 14.5956 18.6666 15.0895C18.4545 15.5833 18.3485 16.1899 18.3485 16.9091C18.3485 17.6283 18.4545 18.2348 18.6666 18.7287C18.8821 19.2225 19.1837 19.5971 19.5715 19.8523C19.9593 20.1075 20.4133 20.2351 20.9337 20.2351C21.454 20.2351 21.9081 20.1075 22.2959 19.8523C22.6837 19.5971 22.9836 19.2225 23.1958 18.7287C23.4112 18.2348 23.5189 17.6283 23.5189 16.9091ZM29.3742 17.5852V22H27.2563V14.3636H29.2748V15.7109H29.3643C29.5333 15.2668 29.8167 14.9155 30.2144 14.657C30.6121 14.3951 31.0944 14.2642 31.6611 14.2642C32.1914 14.2642 32.6538 14.3802 33.0482 14.6122C33.4426 14.8442 33.7492 15.1757 33.968 15.6065C34.1867 16.0341 34.2961 16.5445 34.2961 17.1378V22H32.1782V17.5156C32.1815 17.0483 32.0622 16.6837 31.8202 16.4219C31.5783 16.1567 31.2452 16.0241 30.8209 16.0241C30.5359 16.0241 30.284 16.0855 30.0653 16.2081C29.8498 16.3307 29.6808 16.5097 29.5581 16.745C29.4388 16.977 29.3775 17.2571 29.3742 17.5852ZM45.5592 16.5412L43.6203 16.6605C43.5872 16.4948 43.5159 16.3456 43.4065 16.2131C43.2971 16.0772 43.153 15.9695 42.974 15.8899C42.7983 15.8071 42.5879 15.7656 42.3426 15.7656C42.0145 15.7656 41.7377 15.8352 41.5123 15.9744C41.287 16.1103 41.1743 16.2926 41.1743 16.5213C41.1743 16.7036 41.2472 16.8577 41.393 16.9837C41.5389 17.1096 41.7891 17.2107 42.1437 17.2869L43.5258 17.5653C44.2683 17.7178 44.8218 17.9631 45.1863 18.3011C45.5509 18.6392 45.7332 19.0833 45.7332 19.6335C45.7332 20.134 45.5857 20.5732 45.2907 20.951C44.9991 21.3288 44.598 21.6238 44.0876 21.8359C43.5805 22.0447 42.9955 22.1491 42.3327 22.1491C41.3218 22.1491 40.5164 21.9387 39.9165 21.5178C39.3199 21.0935 38.9702 20.5168 38.8675 19.7876L40.9506 19.6783C41.0135 19.9865 41.166 20.2218 41.4079 20.3842C41.6499 20.5433 41.9598 20.6229 42.3376 20.6229C42.7088 20.6229 43.0071 20.5516 43.2325 20.4091C43.4612 20.2633 43.5772 20.076 43.5805 19.8473C43.5772 19.6551 43.496 19.4976 43.3369 19.375C43.1778 19.2491 42.9326 19.1529 42.6011 19.0866L41.2787 18.8232C40.5329 18.674 39.9778 18.4155 39.6132 18.0476C39.2519 17.6797 39.0713 17.2107 39.0713 16.6406C39.0713 16.1501 39.2039 15.7275 39.469 15.3729C39.7375 15.0182 40.1137 14.7448 40.5976 14.5526C41.0848 14.3603 41.6549 14.2642 42.3078 14.2642C43.2723 14.2642 44.0313 14.468 44.5848 14.8757C45.1416 15.2834 45.4664 15.8385 45.5592 16.5412ZM49.1847 17.5852V22H47.0669V11.8182H49.1251V15.7109H49.2146C49.3869 15.2602 49.6653 14.9072 50.0498 14.652C50.4343 14.3935 50.9165 14.2642 51.4965 14.2642C52.0268 14.2642 52.4892 14.3802 52.8836 14.6122C53.2813 14.8409 53.5896 15.1707 53.8083 15.6016C54.0304 16.0291 54.1398 16.5412 54.1365 17.1378V22H52.0186V17.5156C52.0219 17.045 51.9026 16.6787 51.6606 16.4169C51.422 16.1551 51.0872 16.0241 50.6563 16.0241C50.368 16.0241 50.1128 16.0855 49.8907 16.2081C49.672 16.3307 49.4996 16.5097 49.3737 16.745C49.251 16.977 49.1881 17.2571 49.1847 17.5852ZM59.2833 22.1491C58.4978 22.1491 57.8216 21.9901 57.2549 21.6719C56.6914 21.3504 56.2573 20.8963 55.9523 20.3097C55.6474 19.7197 55.4949 19.022 55.4949 18.2166C55.4949 17.4311 55.6474 16.7417 55.9523 16.1484C56.2573 15.5552 56.6865 15.0928 57.24 14.7614C57.7968 14.4299 58.4497 14.2642 59.1988 14.2642C59.7026 14.2642 60.1715 14.3454 60.6057 14.5078C61.0432 14.6669 61.4244 14.9072 61.7492 15.2287C62.0773 15.5502 62.3325 15.9545 62.5148 16.4418C62.6971 16.9257 62.7883 17.4924 62.7883 18.142V18.7237H56.3401V17.4112H60.7947C60.7947 17.1063 60.7284 16.8362 60.5958 16.6009C60.4632 16.3655 60.2793 16.1816 60.0439 16.049C59.8119 15.9131 59.5418 15.8452 59.2336 15.8452C58.9121 15.8452 58.627 15.9197 58.3785 16.0689C58.1332 16.2147 57.941 16.4119 57.8018 16.6605C57.6626 16.9058 57.5913 17.1792 57.588 17.4808V18.7287C57.588 19.1065 57.6576 19.433 57.7968 19.7081C57.9393 19.9832 58.1398 20.1953 58.3983 20.3445C58.6569 20.4936 58.9635 20.5682 59.3181 20.5682C59.5534 20.5682 59.7689 20.535 59.9644 20.4688C60.1599 20.4025 60.3273 20.303 60.4665 20.1705C60.6057 20.0379 60.7118 19.8755 60.7847 19.6832L62.7435 19.8125C62.6441 20.2831 62.4403 20.6941 62.132 21.0455C61.8271 21.3935 61.4327 21.6652 60.9488 21.8608C60.4682 22.053 59.913 22.1491 59.2833 22.1491ZM66.2883 11.8182V22H64.1704V11.8182H66.2883ZM72.0914 14.3636V15.9545H67.3783V14.3636H72.0914ZM68.4571 22V13.8118C68.4571 13.2583 68.5648 12.7992 68.7803 12.4347C68.999 12.0701 69.2973 11.7966 69.6752 11.6143C70.053 11.4321 70.4822 11.3409 70.9628 11.3409C71.2876 11.3409 71.5843 11.3658 71.8527 11.4155C72.1245 11.4652 72.3267 11.5099 72.4593 11.5497L72.0814 13.1406C71.9986 13.1141 71.8958 13.0893 71.7732 13.0661C71.6539 13.0429 71.5312 13.0312 71.4053 13.0312C71.0937 13.0312 70.8766 13.1042 70.754 13.25C70.6314 13.3925 70.57 13.593 70.57 13.8516V22H68.4571Z" fill="white"/>
<rect x="0.5" y="0.5" width="87" height="32" rx="3.5" stroke="url(#paint0_linear_7_7078)" stroke-opacity="0.4"/>
<rect x="264" width="97" height="33" rx="4" fill="#229CD8"/>
<path d="M282.787 11.8182V22H280.634V11.8182H282.787ZM286.636 17.5852V22H284.518V14.3636H286.536V15.7109H286.626C286.795 15.2668 287.078 14.9155 287.476 14.657C287.874 14.3951 288.356 14.2642 288.923 14.2642C289.453 14.2642 289.916 14.3802 290.31 14.6122C290.704 14.8442 291.011 15.1757 291.23 15.6065C291.448 16.0341 291.558 16.5445 291.558 17.1378V22H289.44V17.5156C289.443 17.0483 289.324 16.6837 289.082 16.4219C288.84 16.1567 288.507 16.0241 288.083 16.0241C287.798 16.0241 287.546 16.0855 287.327 16.2081C287.112 16.3307 286.943 16.5097 286.82 16.745C286.701 16.977 286.639 17.2571 286.636 17.5852ZM300.073 14.3636L297.403 22H295.017L292.347 14.3636H294.584L296.17 19.8274H296.25L297.831 14.3636H300.073ZM304.391 22.1491C303.605 22.1491 302.929 21.9901 302.362 21.6719C301.799 21.3504 301.365 20.8963 301.06 20.3097C300.755 19.7197 300.602 19.022 300.602 18.2166C300.602 17.4311 300.755 16.7417 301.06 16.1484C301.365 15.5552 301.794 15.0928 302.347 14.7614C302.904 14.4299 303.557 14.2642 304.306 14.2642C304.81 14.2642 305.279 14.3454 305.713 14.5078C306.151 14.6669 306.532 14.9072 306.857 15.2287C307.185 15.5502 307.44 15.9545 307.622 16.4418C307.805 16.9257 307.896 17.4924 307.896 18.142V18.7237H301.448V17.4112H305.902C305.902 17.1063 305.836 16.8362 305.703 16.6009C305.571 16.3655 305.387 16.1816 305.151 16.049C304.919 15.9131 304.649 15.8452 304.341 15.8452C304.02 15.8452 303.734 15.9197 303.486 16.0689C303.241 16.2147 303.048 16.4119 302.909 16.6605C302.77 16.9058 302.699 17.1792 302.695 17.4808V18.7287C302.695 19.1065 302.765 19.433 302.904 19.7081C303.047 19.9832 303.247 20.1953 303.506 20.3445C303.764 20.4936 304.071 20.5682 304.426 20.5682C304.661 20.5682 304.876 20.535 305.072 20.4688C305.267 20.4025 305.435 20.303 305.574 20.1705C305.713 20.0379 305.819 19.8755 305.892 19.6832L307.851 19.8125C307.752 20.2831 307.548 20.6941 307.239 21.0455C306.935 21.3935 306.54 21.6652 306.056 21.8608C305.576 22.053 305.02 22.1491 304.391 22.1491ZM311.396 17.5852V22H309.278V14.3636H311.296V15.7109H311.386C311.555 15.2668 311.838 14.9155 312.236 14.657C312.634 14.3951 313.116 14.2642 313.683 14.2642C314.213 14.2642 314.675 14.3802 315.07 14.6122C315.464 14.8442 315.771 15.1757 315.989 15.6065C316.208 16.0341 316.318 16.5445 316.318 17.1378V22H314.2V17.5156C314.203 17.0483 314.084 16.6837 313.842 16.4219C313.6 16.1567 313.267 16.0241 312.842 16.0241C312.557 16.0241 312.305 16.0855 312.087 16.2081C311.871 16.3307 311.702 16.5097 311.58 16.745C311.46 16.977 311.399 17.2571 311.396 17.5852ZM322.049 14.3636V15.9545H317.45V14.3636H322.049ZM318.494 12.5341H320.612V19.6534C320.612 19.849 320.642 20.0014 320.701 20.1108C320.761 20.2169 320.844 20.2914 320.95 20.3345C321.059 20.3776 321.185 20.3991 321.328 20.3991C321.427 20.3991 321.527 20.3909 321.626 20.3743C321.725 20.3544 321.802 20.3395 321.855 20.3295L322.188 21.9055C322.082 21.9387 321.933 21.9768 321.74 22.0199C321.548 22.0663 321.314 22.0945 321.039 22.1044C320.529 22.1243 320.081 22.0563 319.697 21.9006C319.316 21.7448 319.019 21.5028 318.807 21.1747C318.595 20.8466 318.491 20.4323 318.494 19.9318V12.5341ZM326.796 22.1491C326.024 22.1491 325.356 21.9851 324.793 21.657C324.233 21.3255 323.8 20.8648 323.495 20.2749C323.19 19.6816 323.038 18.9938 323.038 18.2116C323.038 17.4228 323.19 16.7334 323.495 16.1435C323.8 15.5502 324.233 15.0895 324.793 14.7614C325.356 14.4299 326.024 14.2642 326.796 14.2642C327.569 14.2642 328.235 14.4299 328.795 14.7614C329.358 15.0895 329.793 15.5502 330.098 16.1435C330.402 16.7334 330.555 17.4228 330.555 18.2116C330.555 18.9938 330.402 19.6816 330.098 20.2749C329.793 20.8648 329.358 21.3255 328.795 21.657C328.235 21.9851 327.569 22.1491 326.796 22.1491ZM326.806 20.5085C327.158 20.5085 327.451 20.4091 327.686 20.2102C327.922 20.008 328.099 19.733 328.218 19.3849C328.341 19.0369 328.402 18.6409 328.402 18.1967C328.402 17.7526 328.341 17.3565 328.218 17.0085C328.099 16.6605 327.922 16.3854 327.686 16.1832C327.451 15.9811 327.158 15.88 326.806 15.88C326.452 15.88 326.153 15.9811 325.911 16.1832C325.673 16.3854 325.492 16.6605 325.37 17.0085C325.25 17.3565 325.191 17.7526 325.191 18.1967C325.191 18.6409 325.25 19.0369 325.37 19.3849C325.492 19.733 325.673 20.008 325.911 20.2102C326.153 20.4091 326.452 20.5085 326.806 20.5085ZM331.932 22V14.3636H333.985V15.696H334.065C334.204 15.2221 334.438 14.8641 334.766 14.6222C335.094 14.3769 335.472 14.2543 335.899 14.2543C336.005 14.2543 336.12 14.2609 336.242 14.2741C336.365 14.2874 336.473 14.3056 336.566 14.3288V16.2081C336.466 16.1783 336.329 16.1518 336.153 16.1286C335.977 16.1054 335.817 16.0938 335.671 16.0938C335.359 16.0938 335.081 16.1617 334.835 16.2976C334.594 16.4302 334.401 16.6158 334.259 16.8544C334.12 17.093 334.05 17.3681 334.05 17.6797V22H331.932ZM339.201 24.8636C338.932 24.8636 338.68 24.8421 338.445 24.799C338.213 24.7592 338.021 24.7079 337.868 24.6449L338.345 23.0639C338.594 23.1402 338.818 23.1816 339.017 23.1882C339.219 23.1948 339.393 23.1484 339.539 23.049C339.688 22.9496 339.809 22.7805 339.902 22.5419L340.026 22.2188L337.286 14.3636H339.514L341.095 19.9716H341.174L342.77 14.3636H345.012L342.044 22.8253C341.902 23.2363 341.708 23.5942 341.463 23.8991C341.221 24.2074 340.914 24.4444 340.543 24.6101C340.172 24.7791 339.724 24.8636 339.201 24.8636Z" fill="white"/>
<rect x="264.5" y="0.5" width="96" height="32" rx="3.5" stroke="url(#paint1_linear_7_7078)" stroke-opacity="0.4"/>
<rect x="101" width="146" height="33" rx="4" fill="#229CD8"/>
<path d="M119.562 22V11.8182H123.579C124.348 11.8182 125.004 11.9557 125.547 12.2308C126.094 12.5026 126.51 12.8887 126.795 13.3892C127.084 13.8864 127.228 14.4714 127.228 15.1442C127.228 15.8203 127.082 16.402 126.79 16.8892C126.499 17.3731 126.076 17.7443 125.523 18.0028C124.972 18.2614 124.306 18.3906 123.524 18.3906H120.834V16.6605H123.176C123.587 16.6605 123.928 16.6042 124.2 16.4915C124.472 16.3788 124.674 16.2098 124.807 15.9844C124.943 15.759 125.011 15.4789 125.011 15.1442C125.011 14.8061 124.943 14.5211 124.807 14.2891C124.674 14.0571 124.47 13.8814 124.195 13.7621C123.923 13.6394 123.58 13.5781 123.166 13.5781H121.714V22H119.562ZM125.06 17.3665L127.591 22H125.214L122.739 17.3665H125.06ZM132.066 22.1491C131.281 22.1491 130.605 21.9901 130.038 21.6719C129.475 21.3504 129.04 20.8963 128.736 20.3097C128.431 19.7197 128.278 19.022 128.278 18.2166C128.278 17.4311 128.431 16.7417 128.736 16.1484C129.04 15.5552 129.47 15.0928 130.023 14.7614C130.58 14.4299 131.233 14.2642 131.982 14.2642C132.486 14.2642 132.955 14.3454 133.389 14.5078C133.826 14.6669 134.208 14.9072 134.532 15.2287C134.861 15.5502 135.116 15.9545 135.298 16.4418C135.48 16.9257 135.571 17.4924 135.571 18.142V18.7237H129.123V17.4112H133.578C133.578 17.1063 133.512 16.8362 133.379 16.6009C133.246 16.3655 133.062 16.1816 132.827 16.049C132.595 15.9131 132.325 15.8452 132.017 15.8452C131.695 15.8452 131.41 15.9197 131.162 16.0689C130.916 16.2147 130.724 16.4119 130.585 16.6605C130.446 16.9058 130.374 17.1792 130.371 17.4808V18.7287C130.371 19.1065 130.441 19.433 130.58 19.7081C130.723 19.9832 130.923 20.1953 131.182 20.3445C131.44 20.4936 131.747 20.5682 132.101 20.5682C132.337 20.5682 132.552 20.535 132.748 20.4688C132.943 20.4025 133.111 20.303 133.25 20.1705C133.389 20.0379 133.495 19.8755 133.568 19.6832L135.527 19.8125C135.427 20.2831 135.223 20.6941 134.915 21.0455C134.61 21.3935 134.216 21.6652 133.732 21.8608C133.251 22.053 132.696 22.1491 132.066 22.1491ZM136.954 24.8636V14.3636H139.042V15.6463H139.136C139.229 15.4408 139.363 15.232 139.539 15.0199C139.718 14.8045 139.95 14.6255 140.235 14.483C140.523 14.3371 140.881 14.2642 141.309 14.2642C141.866 14.2642 142.379 14.41 142.85 14.7017C143.321 14.9901 143.697 15.4259 143.978 16.0092C144.26 16.5893 144.401 17.3168 144.401 18.1918C144.401 19.0436 144.263 19.7628 143.988 20.3494C143.717 20.9328 143.345 21.3752 142.875 21.6768C142.407 21.9751 141.884 22.1243 141.304 22.1243C140.893 22.1243 140.543 22.0563 140.255 21.9205C139.97 21.7846 139.736 21.6139 139.554 21.4084C139.371 21.1996 139.232 20.9891 139.136 20.777H139.071V24.8636H136.954ZM139.027 18.1818C139.027 18.6359 139.09 19.032 139.216 19.37C139.342 19.7081 139.524 19.9716 139.763 20.1605C140.001 20.3461 140.291 20.4389 140.633 20.4389C140.977 20.4389 141.269 20.3445 141.508 20.1555C141.746 19.9633 141.927 19.6982 142.049 19.3601C142.175 19.0187 142.238 18.6259 142.238 18.1818C142.238 17.741 142.177 17.3532 142.054 17.0185C141.932 16.6837 141.751 16.4219 141.513 16.233C141.274 16.044 140.981 15.9496 140.633 15.9496C140.288 15.9496 139.996 16.0407 139.758 16.223C139.522 16.4053 139.342 16.6638 139.216 16.9986C139.09 17.3333 139.027 17.7277 139.027 18.1818ZM147.931 11.8182V22H145.813V11.8182H147.931ZM153.108 22.1491C152.322 22.1491 151.646 21.9901 151.079 21.6719C150.516 21.3504 150.081 20.8963 149.777 20.3097C149.472 19.7197 149.319 19.022 149.319 18.2166C149.319 17.4311 149.472 16.7417 149.777 16.1484C150.081 15.5552 150.511 15.0928 151.064 14.7614C151.621 14.4299 152.274 14.2642 153.023 14.2642C153.527 14.2642 153.996 14.3454 154.43 14.5078C154.867 14.6669 155.249 14.9072 155.573 15.2287C155.902 15.5502 156.157 15.9545 156.339 16.4418C156.521 16.9257 156.612 17.4924 156.612 18.142V18.7237H150.164V17.4112H154.619C154.619 17.1063 154.553 16.8362 154.42 16.6009C154.287 16.3655 154.103 16.1816 153.868 16.049C153.636 15.9131 153.366 15.8452 153.058 15.8452C152.736 15.8452 152.451 15.9197 152.203 16.0689C151.957 16.2147 151.765 16.4119 151.626 16.6605C151.487 16.9058 151.416 17.1792 151.412 17.4808V18.7287C151.412 19.1065 151.482 19.433 151.621 19.7081C151.764 19.9832 151.964 20.1953 152.223 20.3445C152.481 20.4936 152.788 20.5682 153.142 20.5682C153.378 20.5682 153.593 20.535 153.789 20.4688C153.984 20.4025 154.152 20.303 154.291 20.1705C154.43 20.0379 154.536 19.8755 154.609 19.6832L156.568 19.8125C156.468 20.2831 156.264 20.6941 155.956 21.0455C155.651 21.3935 155.257 21.6652 154.773 21.8608C154.292 22.053 153.737 22.1491 153.108 22.1491ZM160.112 17.5852V22H157.995V14.3636H160.013V15.7109H160.103C160.272 15.2668 160.555 14.9155 160.953 14.657C161.35 14.3951 161.833 14.2642 162.399 14.2642C162.93 14.2642 163.392 14.3802 163.786 14.6122C164.181 14.8442 164.487 15.1757 164.706 15.6065C164.925 16.0341 165.034 16.5445 165.034 17.1378V22H162.916V17.5156C162.92 17.0483 162.8 16.6837 162.559 16.4219C162.317 16.1567 161.983 16.0241 161.559 16.0241C161.274 16.0241 161.022 16.0855 160.804 16.2081C160.588 16.3307 160.419 16.5097 160.296 16.745C160.177 16.977 160.116 17.2571 160.112 17.5852ZM166.704 22V14.3636H168.821V22H166.704ZM167.767 13.3793C167.453 13.3793 167.182 13.2749 166.957 13.0661C166.735 12.8539 166.624 12.6004 166.624 12.3054C166.624 12.0137 166.735 11.7635 166.957 11.5547C167.182 11.3426 167.453 11.2365 167.767 11.2365C168.082 11.2365 168.351 11.3426 168.573 11.5547C168.798 11.7635 168.911 12.0137 168.911 12.3054C168.911 12.6004 168.798 12.8539 168.573 13.0661C168.351 13.2749 168.082 13.3793 167.767 13.3793ZM176.872 16.5412L174.933 16.6605C174.9 16.4948 174.828 16.3456 174.719 16.2131C174.61 16.0772 174.465 15.9695 174.286 15.8899C174.111 15.8071 173.9 15.7656 173.655 15.7656C173.327 15.7656 173.05 15.8352 172.825 15.9744C172.599 16.1103 172.487 16.2926 172.487 16.5213C172.487 16.7036 172.56 16.8577 172.706 16.9837C172.851 17.1096 173.102 17.2107 173.456 17.2869L174.838 17.5653C175.581 17.7178 176.134 17.9631 176.499 18.3011C176.863 18.6392 177.046 19.0833 177.046 19.6335C177.046 20.134 176.898 20.5732 176.603 20.951C176.312 21.3288 175.911 21.6238 175.4 21.8359C174.893 22.0447 174.308 22.1491 173.645 22.1491C172.634 22.1491 171.829 21.9387 171.229 21.5178C170.632 21.0935 170.283 20.5168 170.18 19.7876L172.263 19.6783C172.326 19.9865 172.478 20.2218 172.72 20.3842C172.962 20.5433 173.272 20.6229 173.65 20.6229C174.021 20.6229 174.32 20.5516 174.545 20.4091C174.774 20.2633 174.89 20.076 174.893 19.8473C174.89 19.6551 174.809 19.4976 174.649 19.375C174.49 19.2491 174.245 19.1529 173.914 19.0866L172.591 18.8232C171.845 18.674 171.29 18.4155 170.926 18.0476C170.564 17.6797 170.384 17.2107 170.384 16.6406C170.384 16.1501 170.516 15.7275 170.782 15.3729C171.05 15.0182 171.426 14.7448 171.91 14.5526C172.397 14.3603 172.967 14.2642 173.62 14.2642C174.585 14.2642 175.344 14.468 175.897 14.8757C176.454 15.2834 176.779 15.8385 176.872 16.5412ZM180.497 17.5852V22H178.379V11.8182H180.438V15.7109H180.527C180.699 15.2602 180.978 14.9072 181.362 14.652C181.747 14.3935 182.229 14.2642 182.809 14.2642C183.339 14.2642 183.802 14.3802 184.196 14.6122C184.594 14.8409 184.902 15.1707 185.121 15.6016C185.343 16.0291 185.452 16.5412 185.449 17.1378V22H183.331V17.5156C183.334 17.045 183.215 16.6787 182.973 16.4169C182.734 16.1551 182.4 16.0241 181.969 16.0241C181.68 16.0241 181.425 16.0855 181.203 16.2081C180.984 16.3307 180.812 16.5097 180.686 16.745C180.564 16.977 180.501 17.2571 180.497 17.5852ZM187.116 22V14.3636H189.134V15.7109H189.224C189.383 15.2635 189.648 14.9105 190.019 14.652C190.39 14.3935 190.834 14.2642 191.351 14.2642C191.875 14.2642 192.321 14.3951 192.689 14.657C193.057 14.9155 193.302 15.2668 193.425 15.7109H193.504C193.66 15.2734 193.942 14.9238 194.349 14.6619C194.76 14.3968 195.246 14.2642 195.806 14.2642C196.519 14.2642 197.097 14.4912 197.541 14.9453C197.989 15.3961 198.212 16.0357 198.212 16.8643V22H196.099V17.282C196.099 16.8577 195.987 16.5395 195.761 16.3274C195.536 16.1153 195.254 16.0092 194.916 16.0092C194.532 16.0092 194.232 16.1319 194.016 16.3771C193.801 16.6191 193.693 16.9389 193.693 17.3366V22H191.64V17.2372C191.64 16.8627 191.532 16.5644 191.317 16.3423C191.105 16.1203 190.824 16.0092 190.476 16.0092C190.241 16.0092 190.029 16.0689 189.84 16.1882C189.655 16.3042 189.507 16.4683 189.398 16.6804C189.288 16.8892 189.234 17.1345 189.234 17.4162V22H187.116ZM203.365 22.1491C202.58 22.1491 201.904 21.9901 201.337 21.6719C200.773 21.3504 200.339 20.8963 200.034 20.3097C199.729 19.7197 199.577 19.022 199.577 18.2166C199.577 17.4311 199.729 16.7417 200.034 16.1484C200.339 15.5552 200.768 15.0928 201.322 14.7614C201.879 14.4299 202.532 14.2642 203.281 14.2642C203.785 14.2642 204.254 14.3454 204.688 14.5078C205.125 14.6669 205.506 14.9072 205.831 15.2287C206.159 15.5502 206.415 15.9545 206.597 16.4418C206.779 16.9257 206.87 17.4924 206.87 18.142V18.7237H200.422V17.4112H204.877C204.877 17.1063 204.81 16.8362 204.678 16.6009C204.545 16.3655 204.361 16.1816 204.126 16.049C203.894 15.9131 203.624 15.8452 203.316 15.8452C202.994 15.8452 202.709 15.9197 202.46 16.0689C202.215 16.2147 202.023 16.4119 201.884 16.6605C201.745 16.9058 201.673 17.1792 201.67 17.4808V18.7287C201.67 19.1065 201.74 19.433 201.879 19.7081C202.021 19.9832 202.222 20.1953 202.48 20.3445C202.739 20.4936 203.045 20.5682 203.4 20.5682C203.635 20.5682 203.851 20.535 204.046 20.4688C204.242 20.4025 204.409 20.303 204.549 20.1705C204.688 20.0379 204.794 19.8755 204.867 19.6832L206.826 19.8125C206.726 20.2831 206.522 20.6941 206.214 21.0455C205.909 21.3935 205.515 21.6652 205.031 21.8608C204.55 22.053 203.995 22.1491 203.365 22.1491ZM210.37 17.5852V22H208.252V14.3636H210.271V15.7109H210.36C210.529 15.2668 210.813 14.9155 211.21 14.657C211.608 14.3951 212.09 14.2642 212.657 14.2642C213.188 14.2642 213.65 14.3802 214.044 14.6122C214.439 14.8442 214.745 15.1757 214.964 15.6065C215.183 16.0341 215.292 16.5445 215.292 17.1378V22H213.174V17.5156C213.178 17.0483 213.058 16.6837 212.816 16.4219C212.574 16.1567 212.241 16.0241 211.817 16.0241C211.532 16.0241 211.28 16.0855 211.061 16.2081C210.846 16.3307 210.677 16.5097 210.554 16.745C210.435 16.977 210.374 17.2571 210.37 17.5852ZM221.023 14.3636V15.9545H216.424V14.3636H221.023ZM217.468 12.5341H219.586V19.6534C219.586 19.849 219.616 20.0014 219.676 20.1108C219.736 20.2169 219.818 20.2914 219.924 20.3345C220.034 20.3776 220.16 20.3991 220.302 20.3991C220.402 20.3991 220.501 20.3909 220.601 20.3743C220.7 20.3544 220.776 20.3395 220.829 20.3295L221.162 21.9055C221.056 21.9387 220.907 21.9768 220.715 22.0199C220.523 22.0663 220.289 22.0945 220.014 22.1044C219.504 22.1243 219.056 22.0563 218.672 21.9006C218.29 21.7448 217.994 21.5028 217.782 21.1747C217.57 20.8466 217.465 20.4323 217.468 19.9318V12.5341ZM228.661 16.5412L226.722 16.6605C226.689 16.4948 226.617 16.3456 226.508 16.2131C226.399 16.0772 226.255 15.9695 226.076 15.8899C225.9 15.8071 225.689 15.7656 225.444 15.7656C225.116 15.7656 224.839 15.8352 224.614 15.9744C224.389 16.1103 224.276 16.2926 224.276 16.5213C224.276 16.7036 224.349 16.8577 224.495 16.9837C224.64 17.1096 224.891 17.2107 225.245 17.2869L226.627 17.5653C227.37 17.7178 227.923 17.9631 228.288 18.3011C228.652 18.6392 228.835 19.0833 228.835 19.6335C228.835 20.134 228.687 20.5732 228.392 20.951C228.101 21.3288 227.7 21.6238 227.189 21.8359C226.682 22.0447 226.097 22.1491 225.434 22.1491C224.423 22.1491 223.618 21.9387 223.018 21.5178C222.421 21.0935 222.072 20.5168 221.969 19.7876L224.052 19.6783C224.115 19.9865 224.268 20.2218 224.509 20.3842C224.751 20.5433 225.061 20.6229 225.439 20.6229C225.81 20.6229 226.109 20.5516 226.334 20.4091C226.563 20.2633 226.679 20.076 226.682 19.8473C226.679 19.6551 226.598 19.4976 226.438 19.375C226.279 19.2491 226.034 19.1529 225.703 19.0866L224.38 18.8232C223.634 18.674 223.079 18.4155 222.715 18.0476C222.353 17.6797 222.173 17.2107 222.173 16.6406C222.173 16.1501 222.305 15.7275 222.571 15.3729C222.839 15.0182 223.215 14.7448 223.699 14.5526C224.186 14.3603 224.756 14.2642 225.409 14.2642C226.374 14.2642 227.133 14.468 227.686 14.8757C228.243 15.2834 228.568 15.8385 228.661 16.5412Z" fill="white"/>
<rect x="101.5" y="0.5" width="145" height="32" rx="3.5" stroke="url(#paint2_linear_7_7078)" stroke-opacity="0.4"/>
<rect y="45" width="90" height="33" rx="4" fill="#229CD8"/>
<path d="M16.0871 67V56.8182H22.8286V58.593H18.2398V61.0192H22.3811V62.794H18.2398V67H16.0871ZM27.1265 67.1491C26.3543 67.1491 25.6864 66.9851 25.123 66.657C24.5628 66.3255 24.1303 65.8648 23.8254 65.2749C23.5204 64.6816 23.368 63.9938 23.368 63.2116C23.368 62.4228 23.5204 61.7334 23.8254 61.1435C24.1303 60.5502 24.5628 60.0895 25.123 59.7614C25.6864 59.4299 26.3543 59.2642 27.1265 59.2642C27.8988 59.2642 28.565 59.4299 29.1251 59.7614C29.6885 60.0895 30.1227 60.5502 30.4276 61.1435C30.7326 61.7334 30.885 62.4228 30.885 63.2116C30.885 63.9938 30.7326 64.6816 30.4276 65.2749C30.1227 65.8648 29.6885 66.3255 29.1251 66.657C28.565 66.9851 27.8988 67.1491 27.1265 67.1491ZM27.1365 65.5085C27.4878 65.5085 27.7811 65.4091 28.0164 65.2102C28.2517 65.008 28.4291 64.733 28.5484 64.3849C28.671 64.0369 28.7323 63.6409 28.7323 63.1967C28.7323 62.7526 28.671 62.3565 28.5484 62.0085C28.4291 61.6605 28.2517 61.3854 28.0164 61.1832C27.7811 60.9811 27.4878 60.88 27.1365 60.88C26.7818 60.88 26.4835 60.9811 26.2416 61.1832C26.0029 61.3854 25.8223 61.6605 25.6997 62.0085C25.5803 62.3565 25.5207 62.7526 25.5207 63.1967C25.5207 63.6409 25.5803 64.0369 25.6997 64.3849C25.8223 64.733 26.0029 65.008 26.2416 65.2102C26.4835 65.4091 26.7818 65.5085 27.1365 65.5085ZM32.2622 67V59.3636H34.3154V60.696H34.395C34.5342 60.2221 34.7678 59.8641 35.096 59.6222C35.4241 59.3769 35.8019 59.2543 36.2295 59.2543C36.3356 59.2543 36.4499 59.2609 36.5725 59.2741C36.6952 59.2874 36.8029 59.3056 36.8957 59.3288V61.2081C36.7963 61.1783 36.6587 61.1518 36.483 61.1286C36.3074 61.1054 36.1466 61.0938 36.0008 61.0938C35.6892 61.0938 35.4108 61.1617 35.1656 61.2976C34.9236 61.4302 34.7314 61.6158 34.5889 61.8544C34.4497 62.093 34.3801 62.3681 34.3801 62.6797V67H32.2622ZM41.1153 67.1491C40.3298 67.1491 39.6537 66.9901 39.0869 66.6719C38.5235 66.3504 38.0893 65.8963 37.7844 65.3097C37.4794 64.7197 37.327 64.022 37.327 63.2166C37.327 62.4311 37.4794 61.7417 37.7844 61.1484C38.0893 60.5552 38.5185 60.0928 39.072 59.7614C39.6288 59.4299 40.2818 59.2642 41.0308 59.2642C41.5346 59.2642 42.0036 59.3454 42.4378 59.5078C42.8753 59.6669 43.2564 59.9072 43.5812 60.2287C43.9094 60.5502 44.1646 60.9545 44.3469 61.4418C44.5291 61.9257 44.6203 62.4924 44.6203 63.142V63.7237H38.1721V62.4112H42.6267C42.6267 62.1063 42.5604 61.8362 42.4278 61.6009C42.2952 61.3655 42.1113 61.1816 41.876 61.049C41.644 60.9131 41.3738 60.8452 41.0656 60.8452C40.7441 60.8452 40.4591 60.9197 40.2105 61.0689C39.9652 61.2147 39.773 61.4119 39.6338 61.6605C39.4946 61.9058 39.4233 62.1792 39.42 62.4808V63.7287C39.42 64.1065 39.4896 64.433 39.6288 64.7081C39.7713 64.9832 39.9719 65.1953 40.2304 65.3445C40.4889 65.4936 40.7955 65.5682 41.1501 65.5682C41.3854 65.5682 41.6009 65.535 41.7964 65.4688C41.992 65.4025 42.1594 65.303 42.2986 65.1705C42.4378 65.0379 42.5438 64.8755 42.6167 64.6832L44.5756 64.8125C44.4761 65.2831 44.2723 65.6941 43.964 66.0455C43.6591 66.3935 43.2647 66.6652 42.7808 66.8608C42.3002 67.053 41.7451 67.1491 41.1153 67.1491ZM49.4527 67.1491C48.6705 67.1491 47.9977 66.9834 47.4342 66.652C46.8741 66.3172 46.4432 65.8532 46.1416 65.2599C45.8433 64.6667 45.6942 63.9839 45.6942 63.2116C45.6942 62.4295 45.845 61.7434 46.1466 61.1534C46.4515 60.5601 46.884 60.0978 47.4442 59.7663C48.0043 59.4316 48.6705 59.2642 49.4427 59.2642C50.1089 59.2642 50.6923 59.3852 51.1927 59.6271C51.6932 59.8691 52.0893 60.2088 52.3809 60.6463C52.6726 61.0838 52.8334 61.5975 52.8632 62.1875H50.8646C50.8083 61.8063 50.6591 61.4998 50.4172 61.2678C50.1785 61.0324 49.8653 60.9148 49.4775 60.9148C49.1494 60.9148 48.8627 61.0043 48.6175 61.1832C48.3755 61.3589 48.1866 61.6158 48.0507 61.9538C47.9148 62.2919 47.8469 62.7012 47.8469 63.1818C47.8469 63.669 47.9131 64.0833 48.0457 64.4247C48.1816 64.7661 48.3722 65.0263 48.6175 65.2053C48.8627 65.3842 49.1494 65.4737 49.4775 65.4737C49.7195 65.4737 49.9366 65.424 50.1288 65.3246C50.3244 65.2251 50.4851 65.081 50.6111 64.892C50.7403 64.6998 50.8248 64.4695 50.8646 64.201H52.8632C52.83 64.7843 52.671 65.2981 52.3859 65.7422C52.1042 66.183 51.7148 66.5277 51.2176 66.7763C50.7204 67.0249 50.1321 67.1491 49.4527 67.1491ZM56.3968 67.1442C55.9095 67.1442 55.4753 67.0597 55.0942 66.8906C54.713 66.7183 54.4114 66.4647 54.1894 66.13C53.9706 65.7919 53.8612 65.371 53.8612 64.8672C53.8612 64.4429 53.9391 64.0866 54.0949 63.7983C54.2507 63.5099 54.4628 63.2779 54.7313 63.1023C54.9997 62.9266 55.3047 62.794 55.646 62.7045C55.9907 62.6151 56.352 62.5521 56.7298 62.5156C57.174 62.4692 57.5319 62.4261 57.8037 62.3864C58.0755 62.3433 58.2727 62.2803 58.3953 62.1974C58.518 62.1146 58.5793 61.992 58.5793 61.8295V61.7997C58.5793 61.4848 58.4798 61.2412 58.281 61.0689C58.0854 60.8965 57.807 60.8104 57.4458 60.8104C57.0646 60.8104 56.7613 60.8949 56.536 61.0639C56.3106 61.2296 56.1614 61.4384 56.0885 61.6903L54.1297 61.5312C54.2291 61.0672 54.4247 60.6662 54.7164 60.3281C55.008 59.9867 55.3842 59.7249 55.8449 59.5426C56.3089 59.357 56.8459 59.2642 57.4557 59.2642C57.8799 59.2642 58.286 59.3139 58.6737 59.4134C59.0648 59.5128 59.4112 59.6669 59.7128 59.8757C60.0177 60.0845 60.258 60.353 60.4337 60.6811C60.6093 61.0059 60.6972 61.3954 60.6972 61.8494V67H58.6887V65.9411H58.629C58.5064 66.1797 58.3423 66.3902 58.1368 66.5724C57.9313 66.7514 57.6844 66.8923 57.396 66.995C57.1077 67.0945 56.7746 67.1442 56.3968 67.1442ZM57.0033 65.6825C57.3148 65.6825 57.5899 65.6212 57.8286 65.4986C58.0672 65.3726 58.2545 65.2036 58.3904 64.9915C58.5262 64.7794 58.5942 64.5391 58.5942 64.2706V63.4602C58.5279 63.5033 58.4368 63.5431 58.3208 63.5795C58.2081 63.6127 58.0805 63.6442 57.9379 63.674C57.7954 63.7005 57.6529 63.7254 57.5104 63.7486C57.3679 63.7685 57.2386 63.7867 57.1226 63.8033C56.874 63.8397 56.6569 63.8977 56.4713 63.9773C56.2857 64.0568 56.1415 64.1645 56.0388 64.3004C55.9361 64.433 55.8847 64.5987 55.8847 64.7976C55.8847 65.0859 55.9891 65.3063 56.1979 65.4588C56.41 65.608 56.6785 65.6825 57.0033 65.6825ZM68.694 61.5412L66.7551 61.6605C66.7219 61.4948 66.6507 61.3456 66.5413 61.2131C66.4319 61.0772 66.2877 60.9695 66.1088 60.8899C65.9331 60.8071 65.7226 60.7656 65.4774 60.7656C65.1492 60.7656 64.8725 60.8352 64.6471 60.9744C64.4217 61.1103 64.309 61.2926 64.309 61.5213C64.309 61.7036 64.382 61.8577 64.5278 61.9837C64.6736 62.1096 64.9239 62.2107 65.2785 62.2869L66.6606 62.5653C67.403 62.7178 67.9565 62.9631 68.3211 63.3011C68.6857 63.6392 68.868 64.0833 68.868 64.6335C68.868 65.134 68.7205 65.5732 68.4255 65.951C68.1338 66.3288 67.7328 66.6238 67.2224 66.8359C66.7153 67.0447 66.1303 67.1491 65.4674 67.1491C64.4565 67.1491 63.6511 66.9387 63.0512 66.5178C62.4546 66.0935 62.105 65.5168 62.0022 64.7876L64.0853 64.6783C64.1483 64.9865 64.3008 65.2218 64.5427 65.3842C64.7847 65.5433 65.0945 65.6229 65.4724 65.6229C65.8436 65.6229 66.1419 65.5516 66.3673 65.4091C66.596 65.2633 66.712 65.076 66.7153 64.8473C66.712 64.6551 66.6308 64.4976 66.4717 64.375C66.3126 64.2491 66.0673 64.1529 65.7359 64.0866L64.4134 63.8232C63.6677 63.674 63.1125 63.4155 62.748 63.0476C62.3867 62.6797 62.2061 62.2107 62.2061 61.6406C62.2061 61.1501 62.3386 60.7275 62.6038 60.3729C62.8722 60.0182 63.2484 59.7448 63.7323 59.5526C64.2195 59.3603 64.7896 59.2642 65.4426 59.2642C66.407 59.2642 67.166 59.468 67.7195 59.8757C68.2764 60.2834 68.6012 60.8385 68.694 61.5412ZM74.2634 59.3636V60.9545H69.6647V59.3636H74.2634ZM70.7087 57.5341H72.8266V64.6534C72.8266 64.849 72.8564 65.0014 72.9161 65.1108C72.9758 65.2169 73.0586 65.2914 73.1647 65.3345C73.2741 65.3776 73.4 65.3991 73.5425 65.3991C73.642 65.3991 73.7414 65.3909 73.8408 65.3743C73.9403 65.3544 74.0165 65.3395 74.0695 65.3295L74.4026 66.9055C74.2965 66.9387 74.1474 66.9768 73.9552 67.0199C73.7629 67.0663 73.5293 67.0945 73.2542 67.1044C72.7438 67.1243 72.2963 67.0563 71.9118 66.9006C71.5307 66.7448 71.234 66.5028 71.0219 66.1747C70.8098 65.8466 70.7054 65.4323 70.7087 64.9318V57.5341Z" fill="white"/>
<rect x="0.5" y="45.5" width="89" height="32" rx="3.5" stroke="url(#paint3_linear_7_7078)" stroke-opacity="0.4"/>
<rect x="103" y="45" width="132" height="33" rx="4" fill="#229CD8"/>
<path d="M126.49 59.7464C126.451 59.3454 126.28 59.0339 125.978 58.8118C125.677 58.5897 125.267 58.4787 124.75 58.4787C124.399 58.4787 124.102 58.5284 123.86 58.6278C123.618 58.724 123.433 58.8582 123.304 59.0305C123.178 59.2029 123.115 59.3984 123.115 59.6172C123.108 59.7995 123.146 59.9586 123.229 60.0945C123.315 60.2304 123.433 60.348 123.582 60.4474C123.731 60.5436 123.904 60.6281 124.099 60.701C124.295 60.7706 124.503 60.8303 124.725 60.88L125.64 61.0987C126.084 61.1982 126.492 61.3307 126.863 61.4964C127.234 61.6622 127.556 61.866 127.828 62.108C128.1 62.3499 128.31 62.6349 128.459 62.9631C128.612 63.2912 128.69 63.6674 128.693 64.0916C128.69 64.7147 128.53 65.255 128.216 65.7124C127.904 66.1664 127.453 66.5194 126.863 66.7713C126.277 67.0199 125.569 67.1442 124.74 67.1442C123.918 67.1442 123.203 67.0182 122.593 66.7663C121.986 66.5144 121.512 66.1416 121.171 65.6477C120.833 65.1506 120.655 64.5357 120.639 63.8033H122.722C122.745 64.1446 122.843 64.4297 123.015 64.6584C123.191 64.8838 123.425 65.0545 123.716 65.1705C124.011 65.2831 124.344 65.3395 124.716 65.3395C125.08 65.3395 125.397 65.2865 125.665 65.1804C125.937 65.0743 126.147 64.9268 126.297 64.7379C126.446 64.549 126.52 64.3319 126.52 64.0866C126.52 63.858 126.452 63.6657 126.316 63.5099C126.184 63.3542 125.988 63.2216 125.73 63.1122C125.475 63.0028 125.161 62.9034 124.79 62.8139L123.681 62.5355C122.823 62.3267 122.145 62.0002 121.648 61.5561C121.151 61.112 120.904 60.5137 120.907 59.7614C120.904 59.1449 121.068 58.6063 121.4 58.1456C121.734 57.6849 122.193 57.3253 122.777 57.0668C123.36 56.8082 124.023 56.679 124.765 56.679C125.521 56.679 126.181 56.8082 126.744 57.0668C127.311 57.3253 127.752 57.6849 128.066 58.1456C128.381 58.6063 128.544 59.1399 128.554 59.7464H126.49ZM134.163 59.3636V60.9545H129.564V59.3636H134.163ZM130.608 57.5341H132.726V64.6534C132.726 64.849 132.756 65.0014 132.816 65.1108C132.875 65.2169 132.958 65.2914 133.064 65.3345C133.173 65.3776 133.299 65.3991 133.442 65.3991C133.541 65.3991 133.641 65.3909 133.74 65.3743C133.84 65.3544 133.916 65.3395 133.969 65.3295L134.302 66.9055C134.196 66.9387 134.047 66.9768 133.855 67.0199C133.662 67.0663 133.429 67.0945 133.154 67.1044C132.643 67.1243 132.196 67.0563 131.811 66.9006C131.43 66.7448 131.133 66.5028 130.921 66.1747C130.709 65.8466 130.605 65.4323 130.608 64.9318V57.5341ZM138.911 67.1491C138.138 67.1491 137.471 66.9851 136.907 66.657C136.347 66.3255 135.914 65.8648 135.61 65.2749C135.305 64.6816 135.152 63.9938 135.152 63.2116C135.152 62.4228 135.305 61.7334 135.61 61.1435C135.914 60.5502 136.347 60.0895 136.907 59.7614C137.471 59.4299 138.138 59.2642 138.911 59.2642C139.683 59.2642 140.349 59.4299 140.909 59.7614C141.473 60.0895 141.907 60.5502 142.212 61.1435C142.517 61.7334 142.669 62.4228 142.669 63.2116C142.669 63.9938 142.517 64.6816 142.212 65.2749C141.907 65.8648 141.473 66.3255 140.909 66.657C140.349 66.9851 139.683 67.1491 138.911 67.1491ZM138.921 65.5085C139.272 65.5085 139.565 65.4091 139.801 65.2102C140.036 65.008 140.213 64.733 140.333 64.3849C140.455 64.0369 140.517 63.6409 140.517 63.1967C140.517 62.7526 140.455 62.3565 140.333 62.0085C140.213 61.6605 140.036 61.3854 139.801 61.1832C139.565 60.9811 139.272 60.88 138.921 60.88C138.566 60.88 138.268 60.9811 138.026 61.1832C137.787 61.3854 137.606 61.6605 137.484 62.0085C137.365 62.3565 137.305 62.7526 137.305 63.1967C137.305 63.6409 137.365 64.0369 137.484 64.3849C137.606 64.733 137.787 65.008 138.026 65.2102C138.268 65.4091 138.566 65.5085 138.921 65.5085ZM147.497 67.1491C146.714 67.1491 146.042 66.9834 145.478 66.652C144.918 66.3172 144.487 65.8532 144.186 65.2599C143.887 64.6667 143.738 63.9839 143.738 63.2116C143.738 62.4295 143.889 61.7434 144.191 61.1534C144.495 60.5601 144.928 60.0978 145.488 59.7663C146.048 59.4316 146.714 59.2642 147.487 59.2642C148.153 59.2642 148.736 59.3852 149.237 59.6271C149.737 59.8691 150.133 60.2088 150.425 60.6463C150.717 61.0838 150.877 61.5975 150.907 62.1875H148.909C148.852 61.8063 148.703 61.4998 148.461 61.2678C148.222 61.0324 147.909 60.9148 147.521 60.9148C147.193 60.9148 146.907 61.0043 146.661 61.1832C146.419 61.3589 146.231 61.6158 146.095 61.9538C145.959 62.2919 145.891 62.7012 145.891 63.1818C145.891 63.669 145.957 64.0833 146.09 64.4247C146.226 64.7661 146.416 65.0263 146.661 65.2053C146.907 65.3842 147.193 65.4737 147.521 65.4737C147.763 65.4737 147.981 65.424 148.173 65.3246C148.368 65.2251 148.529 65.081 148.655 64.892C148.784 64.6998 148.869 64.4695 148.909 64.201H150.907C150.874 64.7843 150.715 65.2981 150.43 65.7422C150.148 66.183 149.759 66.5277 149.262 66.7763C148.764 67.0249 148.176 67.1491 147.497 67.1491ZM154.182 64.8026L154.187 62.2621H154.495L156.941 59.3636H159.373L156.086 63.2017H155.584L154.182 64.8026ZM152.263 67V56.8182H154.381V67H152.263ZM157.036 67L154.789 63.674L156.201 62.1776L159.517 67H157.036ZM165.844 56.8182V67H163.692V56.8182H165.844ZM169.694 62.5852V67H167.576V59.3636H169.594V60.7109H169.684C169.853 60.2668 170.136 59.9155 170.534 59.657C170.931 59.3951 171.414 59.2642 171.98 59.2642C172.511 59.2642 172.973 59.3802 173.368 59.6122C173.762 59.8442 174.069 60.1757 174.287 60.6065C174.506 61.0341 174.615 61.5445 174.615 62.1378V67H172.498V62.5156C172.501 62.0483 172.382 61.6837 172.14 61.4219C171.898 61.1567 171.565 61.0241 171.14 61.0241C170.855 61.0241 170.603 61.0855 170.385 61.2081C170.169 61.3307 170 61.5097 169.877 61.745C169.758 61.977 169.697 62.2571 169.694 62.5852ZM182.638 61.5412L180.699 61.6605C180.666 61.4948 180.595 61.3456 180.486 61.2131C180.376 61.0772 180.232 60.9695 180.053 60.8899C179.877 60.8071 179.667 60.7656 179.422 60.7656C179.094 60.7656 178.817 60.8352 178.591 60.9744C178.366 61.1103 178.253 61.2926 178.253 61.5213C178.253 61.7036 178.326 61.8577 178.472 61.9837C178.618 62.1096 178.868 62.2107 179.223 62.2869L180.605 62.5653C181.347 62.7178 181.901 62.9631 182.265 63.3011C182.63 63.6392 182.812 64.0833 182.812 64.6335C182.812 65.134 182.665 65.5732 182.37 65.951C182.078 66.3288 181.677 66.6238 181.167 66.8359C180.66 67.0447 180.075 67.1491 179.412 67.1491C178.401 67.1491 177.595 66.9387 176.996 66.5178C176.399 66.0935 176.049 65.5168 175.947 64.7876L178.03 64.6783C178.093 64.9865 178.245 65.2218 178.487 65.3842C178.729 65.5433 179.039 65.6229 179.417 65.6229C179.788 65.6229 180.086 65.5516 180.312 65.4091C180.54 65.2633 180.656 65.076 180.66 64.8473C180.656 64.6551 180.575 64.4976 180.416 64.375C180.257 64.2491 180.012 64.1529 179.68 64.0866L178.358 63.8232C177.612 63.674 177.057 63.4155 176.692 63.0476C176.331 62.6797 176.15 62.2107 176.15 61.6406C176.15 61.1501 176.283 60.7275 176.548 60.3729C176.817 60.0182 177.193 59.7448 177.677 59.5526C178.164 59.3603 178.734 59.2642 179.387 59.2642C180.351 59.2642 181.11 59.468 181.664 59.8757C182.221 60.2834 182.546 60.8385 182.638 61.5412ZM184.146 67V59.3636H186.264V67H184.146ZM185.21 58.3793C184.895 58.3793 184.625 58.2749 184.4 58.0661C184.177 57.8539 184.066 57.6004 184.066 57.3054C184.066 57.0137 184.177 56.7635 184.4 56.5547C184.625 56.3426 184.895 56.2365 185.21 56.2365C185.525 56.2365 185.793 56.3426 186.015 56.5547C186.241 56.7635 186.353 57.0137 186.353 57.3054C186.353 57.6004 186.241 57.8539 186.015 58.0661C185.793 58.2749 185.525 58.3793 185.21 58.3793ZM191.401 70.0227C190.715 70.0227 190.126 69.9283 189.636 69.7393C189.149 69.5537 188.761 69.3002 188.472 68.9787C188.184 68.6572 187.997 68.2959 187.911 67.8949L189.869 67.6314C189.929 67.7839 190.024 67.9264 190.153 68.0589C190.282 68.1915 190.453 68.2976 190.665 68.3771C190.88 68.46 191.142 68.5014 191.45 68.5014C191.911 68.5014 192.291 68.3887 192.589 68.1634C192.891 67.9413 193.041 67.5684 193.041 67.0447V65.6477H192.952C192.859 65.8598 192.72 66.0604 192.534 66.2493C192.349 66.4382 192.11 66.5923 191.818 66.7116C191.527 66.831 191.179 66.8906 190.774 66.8906C190.201 66.8906 189.679 66.758 189.208 66.4929C188.741 66.2244 188.368 65.8151 188.09 65.2649C187.815 64.7114 187.677 64.0121 187.677 63.1669C187.677 62.3018 187.818 61.5793 188.1 60.9993C188.381 60.4193 188.756 59.9851 189.223 59.6967C189.694 59.4084 190.209 59.2642 190.769 59.2642C191.197 59.2642 191.555 59.3371 191.843 59.483C192.132 59.6255 192.364 59.8045 192.539 60.0199C192.718 60.232 192.856 60.4408 192.952 60.6463H193.031V59.3636H195.134V67.0746C195.134 67.7242 194.975 68.2678 194.657 68.7053C194.339 69.1428 193.898 69.4709 193.335 69.6896C192.775 69.9117 192.13 70.0227 191.401 70.0227ZM191.445 65.2997C191.787 65.2997 192.075 65.2152 192.311 65.0462C192.549 64.8738 192.731 64.6286 192.857 64.3104C192.987 63.9889 193.051 63.6044 193.051 63.157C193.051 62.7095 192.988 62.3217 192.862 61.9936C192.736 61.6622 192.554 61.4053 192.316 61.223C192.077 61.0407 191.787 60.9496 191.445 60.9496C191.097 60.9496 190.804 61.044 190.566 61.233C190.327 61.4186 190.146 61.6771 190.024 62.0085C189.901 62.34 189.84 62.7228 189.84 63.157C189.84 63.5978 189.901 63.9789 190.024 64.3004C190.15 64.6186 190.33 64.8655 190.566 65.0412C190.804 65.2135 191.097 65.2997 191.445 65.2997ZM198.938 62.5852V67H196.82V56.8182H198.878V60.7109H198.968C199.14 60.2602 199.418 59.9072 199.803 59.652C200.187 59.3935 200.669 59.2642 201.249 59.2642C201.78 59.2642 202.242 59.3802 202.637 59.6122C203.034 59.8409 203.343 60.1707 203.561 60.6016C203.783 61.0291 203.893 61.5412 203.889 62.1378V67H201.771V62.5156C201.775 62.045 201.655 61.6787 201.414 61.4169C201.175 61.1551 200.84 61.0241 200.409 61.0241C200.121 61.0241 199.866 61.0855 199.644 61.2081C199.425 61.3307 199.253 61.5097 199.127 61.745C199.004 61.977 198.941 62.2571 198.938 62.5852ZM209.618 59.3636V60.9545H205.019V59.3636H209.618ZM206.063 57.5341H208.181V64.6534C208.181 64.849 208.211 65.0014 208.271 65.1108C208.33 65.2169 208.413 65.2914 208.519 65.3345C208.629 65.3776 208.754 65.3991 208.897 65.3991C208.996 65.3991 209.096 65.3909 209.195 65.3743C209.295 65.3544 209.371 65.3395 209.424 65.3295L209.757 66.9055C209.651 66.9387 209.502 66.9768 209.31 67.0199C209.117 67.0663 208.884 67.0945 208.609 67.1044C208.098 67.1243 207.651 67.0563 207.266 66.9006C206.885 66.7448 206.589 66.5028 206.376 66.1747C206.164 65.8466 206.06 65.4323 206.063 64.9318V57.5341ZM217.256 61.5412L215.317 61.6605C215.283 61.4948 215.212 61.3456 215.103 61.2131C214.993 61.0772 214.849 60.9695 214.67 60.8899C214.495 60.8071 214.284 60.7656 214.039 60.7656C213.711 60.7656 213.434 60.8352 213.209 60.9744C212.983 61.1103 212.871 61.2926 212.871 61.5213C212.871 61.7036 212.943 61.8577 213.089 61.9837C213.235 62.1096 213.485 62.2107 213.84 62.2869L215.222 62.5653C215.965 62.7178 216.518 62.9631 216.883 63.3011C217.247 63.6392 217.43 64.0833 217.43 64.6335C217.43 65.134 217.282 65.5732 216.987 65.951C216.695 66.3288 216.294 66.6238 215.784 66.8359C215.277 67.0447 214.692 67.1491 214.029 67.1491C213.018 67.1491 212.213 66.9387 211.613 66.5178C211.016 66.0935 210.666 65.5168 210.564 64.7876L212.647 64.6783C212.71 64.9865 212.862 65.2218 213.104 65.3842C213.346 65.5433 213.656 65.6229 214.034 65.6229C214.405 65.6229 214.703 65.5516 214.929 65.4091C215.157 65.2633 215.273 65.076 215.277 64.8473C215.273 64.6551 215.192 64.4976 215.033 64.375C214.874 64.2491 214.629 64.1529 214.297 64.0866L212.975 63.8232C212.229 63.674 211.674 63.4155 211.309 63.0476C210.948 62.6797 210.768 62.2107 210.768 61.6406C210.768 61.1501 210.9 60.7275 211.165 60.3729C211.434 60.0182 211.81 59.7448 212.294 59.5526C212.781 59.3603 213.351 59.2642 214.004 59.2642C214.969 59.2642 215.728 59.468 216.281 59.8757C216.838 60.2834 217.163 60.8385 217.256 61.5412Z" fill="white"/>
<rect x="103.5" y="45.5" width="131" height="32" rx="3.5" stroke="url(#paint4_linear_7_7078)" stroke-opacity="0.4"/>
<defs>
<linearGradient id="paint0_linear_7_7078" x1="44" y1="0" x2="44" y2="33" gradientUnits="userSpaceOnUse">
<stop stop-color="#EE8044"/>
<stop offset="1" stop-color="#E84D93"/>
</linearGradient>
<linearGradient id="paint1_linear_7_7078" x1="312.5" y1="0" x2="312.5" y2="33" gradientUnits="userSpaceOnUse">
<stop stop-color="#EE8044"/>
<stop offset="1" stop-color="#E84D93"/>
</linearGradient>
<linearGradient id="paint2_linear_7_7078" x1="174" y1="0" x2="174" y2="33" gradientUnits="userSpaceOnUse">
<stop stop-color="#EE8044"/>
<stop offset="1" stop-color="#E84D93"/>
</linearGradient>
<linearGradient id="paint3_linear_7_7078" x1="45" y1="45" x2="45" y2="78" gradientUnits="userSpaceOnUse">
<stop stop-color="#EE8044"/>
<stop offset="1" stop-color="#E84D93"/>
</linearGradient>
<linearGradient id="paint4_linear_7_7078" x1="169" y1="45" x2="169" y2="78" gradientUnits="userSpaceOnUse">
<stop stop-color="#EE8044"/>
<stop offset="1" stop-color="#E84D93"/>
</linearGradient>
</defs>
</svg>
