<svg width="364" height="273" viewBox="0 0 364 273" fill="none" xmlns="http://www.w3.org/2000/svg">
<rect width="364" height="273" rx="7" fill="url(#paint0_linear_29_7127)"/>
<path d="M47.5376 179.617C47.4912 179.183 47.2957 178.845 46.951 178.603C46.6096 178.361 46.1655 178.24 45.6186 178.24C45.2341 178.24 44.9044 178.298 44.6293 178.414C44.3542 178.53 44.1437 178.687 43.9979 178.886C43.852 179.085 43.7775 179.312 43.7741 179.567C43.7741 179.78 43.8222 179.964 43.9183 180.119C44.0178 180.275 44.152 180.408 44.321 180.517C44.4901 180.623 44.6773 180.713 44.8828 180.786C45.0883 180.858 45.2955 180.92 45.5043 180.969L46.4588 181.208C46.8433 181.298 47.2128 181.419 47.5675 181.571C47.9254 181.723 48.2453 181.916 48.527 182.148C48.812 182.38 49.0374 182.66 49.2031 182.988C49.3688 183.316 49.4517 183.701 49.4517 184.141C49.4517 184.738 49.2992 185.263 48.9943 185.717C48.6894 186.168 48.2486 186.521 47.6719 186.776C47.0985 187.028 46.4041 187.154 45.5888 187.154C44.7966 187.154 44.1089 187.031 43.5256 186.786C42.9455 186.541 42.4915 186.183 42.1634 185.712C41.8385 185.242 41.6629 184.668 41.6364 183.992H43.451C43.4775 184.347 43.5869 184.642 43.7791 184.877C43.9714 185.112 44.2216 185.288 44.5298 185.404C44.8414 185.52 45.1894 185.578 45.5739 185.578C45.9749 185.578 46.3262 185.518 46.6278 185.399C46.9328 185.277 47.1714 185.107 47.3438 184.892C47.5161 184.673 47.6039 184.418 47.6072 184.126C47.6039 183.861 47.526 183.643 47.3736 183.47C47.2211 183.295 47.0073 183.149 46.7322 183.033C46.4605 182.913 46.1423 182.807 45.7777 182.714L44.6193 182.416C43.7808 182.201 43.1179 181.874 42.6307 181.437C42.1468 180.996 41.9048 180.411 41.9048 179.682C41.9048 179.082 42.0672 178.557 42.392 178.106C42.7202 177.655 43.166 177.305 43.7294 177.057C44.2929 176.805 44.9309 176.679 45.6435 176.679C46.366 176.679 46.9991 176.805 47.5426 177.057C48.0895 177.305 48.5187 177.652 48.8303 178.096C49.1418 178.537 49.3026 179.044 49.3125 179.617H47.5376ZM54.8297 179.364V180.756H50.4398V179.364H54.8297ZM51.5236 177.534H53.3233V184.703C53.3233 184.945 53.3598 185.131 53.4327 185.26C53.5089 185.386 53.6084 185.472 53.731 185.518C53.8536 185.565 53.9895 185.588 54.1387 185.588C54.2514 185.588 54.3541 185.58 54.4469 185.563C54.543 185.547 54.6159 185.532 54.6657 185.518L54.9689 186.925C54.8728 186.959 54.7353 186.995 54.5563 187.035C54.3806 187.075 54.1652 187.098 53.91 187.104C53.4592 187.118 53.0532 187.05 52.6919 186.901C52.3307 186.748 52.044 186.513 51.8319 186.195C51.623 185.876 51.5203 185.479 51.5236 185.001V177.534ZM59.5838 187.149C58.8381 187.149 58.1918 186.985 57.6449 186.657C57.098 186.329 56.6738 185.87 56.3722 185.28C56.0739 184.69 55.9247 184 55.9247 183.212C55.9247 182.423 56.0739 181.732 56.3722 181.138C56.6738 180.545 57.098 180.085 57.6449 179.756C58.1918 179.428 58.8381 179.264 59.5838 179.264C60.3295 179.264 60.9759 179.428 61.5227 179.756C62.0696 180.085 62.4922 180.545 62.7905 181.138C63.0921 181.732 63.2429 182.423 63.2429 183.212C63.2429 184 63.0921 184.69 62.7905 185.28C62.4922 185.87 62.0696 186.329 61.5227 186.657C60.9759 186.985 60.3295 187.149 59.5838 187.149ZM59.5938 185.707C59.9981 185.707 60.3362 185.596 60.608 185.374C60.8797 185.149 61.0819 184.847 61.2145 184.469C61.3504 184.092 61.4183 183.671 61.4183 183.207C61.4183 182.739 61.3504 182.317 61.2145 181.939C61.0819 181.558 60.8797 181.254 60.608 181.029C60.3362 180.804 59.9981 180.691 59.5938 180.691C59.1795 180.691 58.8348 180.804 58.5597 181.029C58.2879 181.254 58.084 181.558 57.9482 181.939C57.8156 182.317 57.7493 182.739 57.7493 183.207C57.7493 183.671 57.8156 184.092 57.9482 184.469C58.084 184.847 58.2879 185.149 58.5597 185.374C58.8348 185.596 59.1795 185.707 59.5938 185.707ZM64.7704 187V179.364H66.5154V180.636H66.595C66.7342 180.196 66.9728 179.856 67.3109 179.617C67.6523 179.375 68.0417 179.254 68.4792 179.254C68.5787 179.254 68.6897 179.259 68.8123 179.269C68.9383 179.276 69.0427 179.287 69.1255 179.304V180.96C69.0493 180.933 68.9283 180.91 68.7626 180.89C68.6002 180.867 68.4428 180.855 68.2903 180.855C67.9622 180.855 67.6672 180.926 67.4054 181.069C67.1468 181.208 66.943 181.402 66.7939 181.651C66.6447 181.899 66.5701 182.186 66.5701 182.511V187H64.7704ZM73.3874 187.149C72.6218 187.149 71.9606 186.99 71.4038 186.672C70.8503 186.35 70.4244 185.896 70.1261 185.31C69.8278 184.72 69.6786 184.025 69.6786 183.227C69.6786 182.441 69.8278 181.752 70.1261 181.158C70.4277 180.562 70.8486 180.098 71.3888 179.766C71.9291 179.432 72.5638 179.264 73.293 179.264C73.7636 179.264 74.2077 179.34 74.6254 179.493C75.0463 179.642 75.4175 179.874 75.739 180.189C76.0638 180.504 76.319 180.905 76.5046 181.392C76.6902 181.876 76.783 182.453 76.783 183.122V183.674H70.5238V182.461H75.0579C75.0546 182.116 74.98 181.81 74.8342 181.541C74.6883 181.269 74.4845 181.056 74.2227 180.9C73.9641 180.744 73.6625 180.666 73.3178 180.666C72.9499 180.666 72.6268 180.756 72.3484 180.935C72.07 181.11 71.8529 181.342 71.6971 181.631C71.5446 181.916 71.4667 182.229 71.4634 182.57V183.629C71.4634 184.073 71.5446 184.455 71.707 184.773C71.8694 185.088 72.0965 185.33 72.3881 185.499C72.6798 185.664 73.0212 185.747 73.4123 185.747C73.6741 185.747 73.9111 185.711 74.1232 185.638C74.3353 185.562 74.5193 185.451 74.6751 185.305C74.8308 185.159 74.9485 184.978 75.0281 184.763L76.7085 184.952C76.6024 185.396 76.4002 185.784 76.1019 186.115C75.8069 186.443 75.4291 186.698 74.9684 186.881C74.5077 187.06 73.9807 187.149 73.3874 187.149ZM83.7022 176.818V187H81.8578V176.818H83.7022ZM87.4197 182.526V187H85.62V179.364H87.3402V180.661H87.4297C87.6054 180.234 87.8854 179.894 88.2699 179.642C88.6577 179.39 89.1366 179.264 89.7067 179.264C90.2337 179.264 90.6927 179.377 91.0838 179.602C91.4782 179.828 91.7831 180.154 91.9986 180.582C92.2173 181.009 92.325 181.528 92.3217 182.138V187H90.522V182.416C90.522 181.906 90.3894 181.506 90.1243 181.218C89.8625 180.93 89.4995 180.786 89.0355 180.786C88.7206 180.786 88.4406 180.855 88.1953 180.994C87.9534 181.13 87.7628 181.327 87.6236 181.586C87.4877 181.844 87.4197 182.158 87.4197 182.526ZM97.9645 179.364V180.756H93.5746V179.364H97.9645ZM94.6584 177.534H96.4581V184.703C96.4581 184.945 96.4946 185.131 96.5675 185.26C96.6437 185.386 96.7431 185.472 96.8658 185.518C96.9884 185.565 97.1243 185.588 97.2734 185.588C97.3861 185.588 97.4889 185.58 97.5817 185.563C97.6778 185.547 97.7507 185.532 97.8004 185.518L98.1037 186.925C98.0076 186.959 97.87 186.995 97.6911 187.035C97.5154 187.075 97.3 187.098 97.0447 187.104C96.594 187.118 96.188 187.05 95.8267 186.901C95.4654 186.748 95.1787 186.513 94.9666 186.195C94.7578 185.876 94.6551 185.479 94.6584 185.001V177.534ZM102.768 187.149C102.003 187.149 101.341 186.99 100.785 186.672C100.231 186.35 99.8052 185.896 99.5069 185.31C99.2086 184.72 99.0595 184.025 99.0595 183.227C99.0595 182.441 99.2086 181.752 99.5069 181.158C99.8085 180.562 100.229 180.098 100.77 179.766C101.31 179.432 101.945 179.264 102.674 179.264C103.144 179.264 103.589 179.34 104.006 179.493C104.427 179.642 104.798 179.874 105.12 180.189C105.445 180.504 105.7 180.905 105.885 181.392C106.071 181.876 106.164 182.453 106.164 183.122V183.674H99.9047V182.461H104.439C104.435 182.116 104.361 181.81 104.215 181.541C104.069 181.269 103.865 181.056 103.604 180.9C103.345 180.744 103.043 180.666 102.699 180.666C102.331 180.666 102.008 180.756 101.729 180.935C101.451 181.11 101.234 181.342 101.078 181.631C100.925 181.916 100.848 182.229 100.844 182.57V183.629C100.844 184.073 100.925 184.455 101.088 184.773C101.25 185.088 101.477 185.33 101.769 185.499C102.061 185.664 102.402 185.747 102.793 185.747C103.055 185.747 103.292 185.711 103.504 185.638C103.716 185.562 103.9 185.451 104.056 185.305C104.212 185.159 104.329 184.978 104.409 184.763L106.089 184.952C105.983 185.396 105.781 185.784 105.483 186.115C105.188 186.443 104.81 186.698 104.349 186.881C103.889 187.06 103.362 187.149 102.768 187.149ZM109.486 176.818V187H107.686V176.818H109.486ZM113.137 176.818V187H111.337V176.818H113.137ZM114.987 187V179.364H116.787V187H114.987ZM115.892 178.28C115.607 178.28 115.362 178.185 115.156 177.996C114.951 177.804 114.848 177.574 114.848 177.305C114.848 177.034 114.951 176.803 115.156 176.614C115.362 176.422 115.607 176.326 115.892 176.326C116.18 176.326 116.426 176.422 116.628 176.614C116.833 176.803 116.936 177.034 116.936 177.305C116.936 177.574 116.833 177.804 116.628 177.996C116.426 178.185 116.18 178.28 115.892 178.28ZM121.959 190.023C121.312 190.023 120.757 189.935 120.293 189.759C119.829 189.587 119.456 189.355 119.175 189.063C118.893 188.772 118.697 188.448 118.588 188.094L120.209 187.701C120.282 187.85 120.388 187.998 120.527 188.143C120.666 188.293 120.853 188.415 121.089 188.511C121.327 188.611 121.627 188.661 121.988 188.661C122.499 188.661 122.921 188.536 123.256 188.288C123.591 188.042 123.758 187.638 123.758 187.075V185.628H123.669C123.576 185.813 123.44 186.004 123.261 186.2C123.086 186.395 122.852 186.559 122.56 186.692C122.272 186.824 121.909 186.891 121.471 186.891C120.885 186.891 120.353 186.753 119.876 186.478C119.402 186.2 119.024 185.785 118.742 185.235C118.464 184.682 118.324 183.989 118.324 183.157C118.324 182.318 118.464 181.611 118.742 181.034C119.024 180.454 119.403 180.015 119.881 179.717C120.358 179.415 120.89 179.264 121.476 179.264C121.924 179.264 122.292 179.34 122.58 179.493C122.872 179.642 123.104 179.823 123.276 180.035C123.448 180.244 123.579 180.441 123.669 180.626H123.768V179.364H125.543V187.124C125.543 187.777 125.387 188.317 125.076 188.745C124.764 189.173 124.338 189.492 123.798 189.705C123.258 189.917 122.645 190.023 121.959 190.023ZM121.974 185.479C122.355 185.479 122.68 185.386 122.948 185.2C123.216 185.015 123.42 184.748 123.559 184.4C123.699 184.052 123.768 183.634 123.768 183.147C123.768 182.666 123.699 182.246 123.559 181.884C123.424 181.523 123.221 181.243 122.953 181.044C122.688 180.842 122.361 180.741 121.974 180.741C121.573 180.741 121.238 180.845 120.969 181.054C120.701 181.263 120.499 181.549 120.363 181.914C120.227 182.275 120.159 182.686 120.159 183.147C120.159 183.614 120.227 184.024 120.363 184.375C120.502 184.723 120.706 184.995 120.974 185.19C121.246 185.383 121.579 185.479 121.974 185.479ZM130.768 187.149C130.003 187.149 129.341 186.99 128.785 186.672C128.231 186.35 127.805 185.896 127.507 185.31C127.209 184.72 127.059 184.025 127.059 183.227C127.059 182.441 127.209 181.752 127.507 181.158C127.809 180.562 128.229 180.098 128.77 179.766C129.31 179.432 129.945 179.264 130.674 179.264C131.144 179.264 131.589 179.34 132.006 179.493C132.427 179.642 132.798 179.874 133.12 180.189C133.445 180.504 133.7 180.905 133.885 181.392C134.071 181.876 134.164 182.453 134.164 183.122V183.674H127.905V182.461H132.439C132.435 182.116 132.361 181.81 132.215 181.541C132.069 181.269 131.865 181.056 131.604 180.9C131.345 180.744 131.043 180.666 130.699 180.666C130.331 180.666 130.008 180.756 129.729 180.935C129.451 181.11 129.234 181.342 129.078 181.631C128.925 181.916 128.848 182.229 128.844 182.57V183.629C128.844 184.073 128.925 184.455 129.088 184.773C129.25 185.088 129.477 185.33 129.769 185.499C130.061 185.664 130.402 185.747 130.793 185.747C131.055 185.747 131.292 185.711 131.504 185.638C131.716 185.562 131.9 185.451 132.056 185.305C132.212 185.159 132.329 184.978 132.409 184.763L134.089 184.952C133.983 185.396 133.781 185.784 133.483 186.115C133.188 186.443 132.81 186.698 132.349 186.881C131.889 187.06 131.362 187.149 130.768 187.149ZM137.486 182.526V187H135.686V179.364H137.407V180.661H137.496C137.672 180.234 137.952 179.894 138.336 179.642C138.724 179.39 139.203 179.264 139.773 179.264C140.3 179.264 140.759 179.377 141.15 179.602C141.545 179.828 141.85 180.154 142.065 180.582C142.284 181.009 142.391 181.528 142.388 182.138V187H140.588V182.416C140.588 181.906 140.456 181.506 140.191 181.218C139.929 180.93 139.566 180.786 139.102 180.786C138.787 180.786 138.507 180.855 138.262 180.994C138.02 181.13 137.829 181.327 137.69 181.586C137.554 181.844 137.486 182.158 137.486 182.526ZM147.549 187.149C146.786 187.149 146.132 186.982 145.585 186.647C145.041 186.312 144.622 185.85 144.327 185.26C144.035 184.667 143.89 183.984 143.89 183.212C143.89 182.436 144.039 181.752 144.337 181.158C144.635 180.562 145.056 180.098 145.6 179.766C146.147 179.432 146.793 179.264 147.539 179.264C148.158 179.264 148.707 179.379 149.184 179.607C149.665 179.833 150.048 180.152 150.333 180.567C150.618 180.978 150.78 181.458 150.82 182.009H149.1C149.03 181.641 148.864 181.334 148.603 181.089C148.344 180.84 147.998 180.716 147.564 180.716C147.196 180.716 146.873 180.815 146.594 181.014C146.316 181.21 146.099 181.491 145.943 181.859C145.79 182.227 145.714 182.668 145.714 183.182C145.714 183.702 145.79 184.15 145.943 184.524C146.095 184.895 146.309 185.182 146.584 185.384C146.863 185.583 147.189 185.683 147.564 185.683C147.829 185.683 148.066 185.633 148.275 185.533C148.487 185.431 148.664 185.283 148.806 185.091C148.949 184.899 149.047 184.665 149.1 184.39H150.82C150.777 184.93 150.618 185.409 150.343 185.827C150.068 186.241 149.693 186.566 149.219 186.801C148.745 187.033 148.188 187.149 147.549 187.149ZM155.678 187.149C154.913 187.149 154.252 186.99 153.695 186.672C153.141 186.35 152.715 185.896 152.417 185.31C152.119 184.72 151.97 184.025 151.97 183.227C151.97 182.441 152.119 181.752 152.417 181.158C152.719 180.562 153.14 180.098 153.68 179.766C154.22 179.432 154.855 179.264 155.584 179.264C156.055 179.264 156.499 179.34 156.916 179.493C157.337 179.642 157.709 179.874 158.03 180.189C158.355 180.504 158.61 180.905 158.796 181.392C158.981 181.876 159.074 182.453 159.074 183.122V183.674H152.815V182.461H157.349C157.346 182.116 157.271 181.81 157.125 181.541C156.979 181.269 156.776 181.056 156.514 180.9C156.255 180.744 155.954 180.666 155.609 180.666C155.241 180.666 154.918 180.756 154.639 180.935C154.361 181.11 154.144 181.342 153.988 181.631C153.836 181.916 153.758 182.229 153.754 182.57V183.629C153.754 184.073 153.836 184.455 153.998 184.773C154.16 185.088 154.387 185.33 154.679 185.499C154.971 185.664 155.312 185.747 155.703 185.747C155.965 185.747 156.202 185.711 156.414 185.638C156.626 185.562 156.81 185.451 156.966 185.305C157.122 185.159 157.24 184.978 157.319 184.763L158.999 184.952C158.893 185.396 158.691 185.784 158.393 186.115C158.098 186.443 157.72 186.698 157.259 186.881C156.799 187.06 156.272 187.149 155.678 187.149ZM164.149 187V176.818H167.967C168.749 176.818 169.405 176.964 169.936 177.256C170.469 177.547 170.872 177.948 171.144 178.459C171.419 178.966 171.556 179.543 171.556 180.189C171.556 180.842 171.419 181.422 171.144 181.929C170.869 182.436 170.463 182.835 169.926 183.127C169.389 183.415 168.728 183.56 167.942 183.56H165.412V182.043H167.694C168.151 182.043 168.525 181.964 168.817 181.805C169.109 181.646 169.324 181.427 169.463 181.148C169.606 180.87 169.677 180.55 169.677 180.189C169.677 179.828 169.606 179.509 169.463 179.234C169.324 178.959 169.107 178.746 168.812 178.593C168.52 178.437 168.144 178.359 167.684 178.359H165.993V187H164.149ZM173.079 187V179.364H174.824V180.636H174.904C175.043 180.196 175.281 179.856 175.619 179.617C175.961 179.375 176.35 179.254 176.788 179.254C176.887 179.254 176.998 179.259 177.121 179.269C177.247 179.276 177.351 179.287 177.434 179.304V180.96C177.358 180.933 177.237 180.91 177.071 180.89C176.909 180.867 176.751 180.855 176.599 180.855C176.271 180.855 175.976 180.926 175.714 181.069C175.455 181.208 175.252 181.402 175.102 181.651C174.953 181.899 174.879 182.186 174.879 182.511V187H173.079ZM181.646 187.149C180.901 187.149 180.254 186.985 179.707 186.657C179.161 186.329 178.736 185.87 178.435 185.28C178.136 184.69 177.987 184 177.987 183.212C177.987 182.423 178.136 181.732 178.435 181.138C178.736 180.545 179.161 180.085 179.707 179.756C180.254 179.428 180.901 179.264 181.646 179.264C182.392 179.264 183.038 179.428 183.585 179.756C184.132 180.085 184.555 180.545 184.853 181.138C185.155 181.732 185.305 182.423 185.305 183.212C185.305 184 185.155 184.69 184.853 185.28C184.555 185.87 184.132 186.329 183.585 186.657C183.038 186.985 182.392 187.149 181.646 187.149ZM181.656 185.707C182.061 185.707 182.399 185.596 182.67 185.374C182.942 185.149 183.144 184.847 183.277 184.469C183.413 184.092 183.481 183.671 183.481 183.207C183.481 182.739 183.413 182.317 183.277 181.939C183.144 181.558 182.942 181.254 182.67 181.029C182.399 180.804 182.061 180.691 181.656 180.691C181.242 180.691 180.897 180.804 180.622 181.029C180.35 181.254 180.147 181.558 180.011 181.939C179.878 182.317 179.812 182.739 179.812 183.207C179.812 183.671 179.878 184.092 180.011 184.469C180.147 184.847 180.35 185.149 180.622 185.374C180.897 185.596 181.242 185.707 181.656 185.707ZM189.667 187.134C189.067 187.134 188.53 186.98 188.056 186.672C187.582 186.364 187.207 185.916 186.932 185.33C186.657 184.743 186.52 184.03 186.52 183.192C186.52 182.343 186.659 181.627 186.937 181.044C187.219 180.457 187.599 180.015 188.076 179.717C188.553 179.415 189.085 179.264 189.672 179.264C190.119 179.264 190.487 179.34 190.775 179.493C191.064 179.642 191.292 179.823 191.461 180.035C191.631 180.244 191.761 180.441 191.854 180.626H191.929V176.818H193.733V187H191.964V185.797H191.854C191.761 185.982 191.627 186.18 191.452 186.388C191.276 186.594 191.044 186.77 190.756 186.915C190.467 187.061 190.104 187.134 189.667 187.134ZM190.169 185.658C190.55 185.658 190.875 185.555 191.143 185.349C191.412 185.141 191.616 184.851 191.755 184.479C191.894 184.108 191.964 183.676 191.964 183.182C191.964 182.688 191.894 182.259 191.755 181.894C191.619 181.53 191.417 181.246 191.148 181.044C190.883 180.842 190.557 180.741 190.169 180.741C189.768 180.741 189.433 180.845 189.165 181.054C188.896 181.263 188.694 181.551 188.558 181.919C188.422 182.287 188.354 182.708 188.354 183.182C188.354 183.659 188.422 184.085 188.558 184.46C188.697 184.831 188.901 185.124 189.17 185.339C189.441 185.552 189.774 185.658 190.169 185.658ZM200.518 183.788V179.364H202.318V187H200.573V185.643H200.494C200.321 186.07 200.038 186.42 199.643 186.692C199.252 186.964 198.77 187.099 198.197 187.099C197.696 187.099 197.254 186.988 196.869 186.766C196.488 186.541 196.19 186.214 195.974 185.787C195.759 185.356 195.651 184.836 195.651 184.226V179.364H197.451V183.947C197.451 184.431 197.584 184.816 197.849 185.101C198.114 185.386 198.462 185.528 198.893 185.528C199.158 185.528 199.415 185.464 199.663 185.335C199.912 185.205 200.116 185.013 200.275 184.758C200.437 184.499 200.518 184.176 200.518 183.788ZM207.5 187.149C206.738 187.149 206.083 186.982 205.536 186.647C204.992 186.312 204.573 185.85 204.278 185.26C203.987 184.667 203.841 183.984 203.841 183.212C203.841 182.436 203.99 181.752 204.288 181.158C204.586 180.562 205.007 180.098 205.551 179.766C206.098 179.432 206.744 179.264 207.49 179.264C208.11 179.264 208.658 179.379 209.135 179.607C209.616 179.833 209.999 180.152 210.284 180.567C210.569 180.978 210.731 181.458 210.771 182.009H209.051C208.981 181.641 208.816 181.334 208.554 181.089C208.295 180.84 207.949 180.716 207.515 180.716C207.147 180.716 206.824 180.815 206.545 181.014C206.267 181.21 206.05 181.491 205.894 181.859C205.742 182.227 205.665 182.668 205.665 183.182C205.665 183.702 205.742 184.15 205.894 184.524C206.046 184.895 206.26 185.182 206.535 185.384C206.814 185.583 207.14 185.683 207.515 185.683C207.78 185.683 208.017 185.633 208.226 185.533C208.438 185.431 208.615 185.283 208.758 185.091C208.9 184.899 208.998 184.665 209.051 184.39H210.771C210.728 184.93 210.569 185.409 210.294 185.827C210.019 186.241 209.644 186.566 209.17 186.801C208.696 187.033 208.14 187.149 207.5 187.149ZM215.63 187.149C214.864 187.149 214.203 186.99 213.646 186.672C213.092 186.35 212.667 185.896 212.368 185.31C212.07 184.72 211.921 184.025 211.921 183.227C211.921 182.441 212.07 181.752 212.368 181.158C212.67 180.562 213.091 180.098 213.631 179.766C214.171 179.432 214.806 179.264 215.535 179.264C216.006 179.264 216.45 179.34 216.868 179.493C217.288 179.642 217.66 179.874 217.981 180.189C218.306 180.504 218.561 180.905 218.747 181.392C218.932 181.876 219.025 182.453 219.025 183.122V183.674H212.766V182.461H217.3C217.297 182.116 217.222 181.81 217.076 181.541C216.931 181.269 216.727 181.056 216.465 180.9C216.206 180.744 215.905 180.666 215.56 180.666C215.192 180.666 214.869 180.756 214.591 180.935C214.312 181.11 214.095 181.342 213.939 181.631C213.787 181.916 213.709 182.229 213.706 182.57V183.629C213.706 184.073 213.787 184.455 213.949 184.773C214.112 185.088 214.339 185.33 214.63 185.499C214.922 185.664 215.263 185.747 215.654 185.747C215.916 185.747 216.153 185.711 216.365 185.638C216.578 185.562 216.761 185.451 216.917 185.305C217.073 185.159 217.191 184.978 217.27 184.763L218.951 184.952C218.845 185.396 218.642 185.784 218.344 186.115C218.049 186.443 217.671 186.698 217.211 186.881C216.75 187.06 216.223 187.149 215.63 187.149ZM226.583 181.382L224.943 181.561C224.896 181.395 224.815 181.24 224.699 181.094C224.586 180.948 224.434 180.83 224.242 180.741C224.049 180.651 223.814 180.607 223.536 180.607C223.161 180.607 222.846 180.688 222.591 180.85C222.339 181.013 222.215 181.223 222.218 181.482C222.215 181.704 222.296 181.884 222.462 182.023C222.631 182.163 222.909 182.277 223.297 182.366L224.6 182.645C225.322 182.801 225.859 183.048 226.21 183.386C226.565 183.724 226.744 184.166 226.747 184.713C226.744 185.194 226.603 185.618 226.325 185.986C226.05 186.35 225.667 186.635 225.176 186.841C224.686 187.046 224.122 187.149 223.486 187.149C222.551 187.149 221.799 186.954 221.229 186.562C220.659 186.168 220.319 185.62 220.21 184.917L221.965 184.748C222.044 185.093 222.213 185.353 222.472 185.528C222.73 185.704 223.067 185.792 223.481 185.792C223.909 185.792 224.252 185.704 224.51 185.528C224.772 185.353 224.903 185.136 224.903 184.877C224.903 184.658 224.818 184.478 224.649 184.335C224.484 184.193 224.225 184.083 223.874 184.007L222.571 183.734C221.839 183.581 221.297 183.324 220.945 182.963C220.594 182.598 220.42 182.138 220.423 181.581C220.42 181.11 220.548 180.703 220.806 180.358C221.068 180.01 221.431 179.741 221.895 179.553C222.362 179.36 222.901 179.264 223.511 179.264C224.406 179.264 225.11 179.455 225.624 179.836C226.141 180.217 226.461 180.732 226.583 181.382ZM231.784 187V176.818H235.602C236.384 176.818 237.04 176.954 237.57 177.226C238.104 177.498 238.507 177.879 238.779 178.369C239.054 178.857 239.191 179.425 239.191 180.075C239.191 180.728 239.052 181.294 238.774 181.775C238.499 182.252 238.093 182.622 237.556 182.884C237.019 183.142 236.359 183.271 235.577 183.271H232.857V181.74H235.328C235.786 181.74 236.16 181.677 236.452 181.551C236.744 181.422 236.959 181.235 237.098 180.989C237.241 180.741 237.312 180.436 237.312 180.075C237.312 179.713 237.241 179.405 237.098 179.15C236.956 178.891 236.739 178.696 236.447 178.563C236.155 178.427 235.779 178.359 235.318 178.359H233.628V187H231.784ZM237.044 182.386L239.564 187H237.506L235.03 182.386H237.044ZM244.081 187.149C243.315 187.149 242.654 186.99 242.097 186.672C241.544 186.35 241.118 185.896 240.819 185.31C240.521 184.72 240.372 184.025 240.372 183.227C240.372 182.441 240.521 181.752 240.819 181.158C241.121 180.562 241.542 180.098 242.082 179.766C242.622 179.432 243.257 179.264 243.986 179.264C244.457 179.264 244.901 179.34 245.319 179.493C245.74 179.642 246.111 179.874 246.432 180.189C246.757 180.504 247.012 180.905 247.198 181.392C247.384 181.876 247.476 182.453 247.476 183.122V183.674H241.217V182.461H245.751C245.748 182.116 245.673 181.81 245.528 181.541C245.382 181.269 245.178 181.056 244.916 180.9C244.657 180.744 244.356 180.666 244.011 180.666C243.643 180.666 243.32 180.756 243.042 180.935C242.763 181.11 242.546 181.342 242.39 181.631C242.238 181.916 242.16 182.229 242.157 182.57V183.629C242.157 184.073 242.238 184.455 242.4 184.773C242.563 185.088 242.79 185.33 243.081 185.499C243.373 185.664 243.715 185.747 244.106 185.747C244.367 185.747 244.604 185.711 244.817 185.638C245.029 185.562 245.213 185.451 245.368 185.305C245.524 185.159 245.642 184.978 245.721 184.763L247.402 184.952C247.296 185.396 247.094 185.784 246.795 186.115C246.5 186.443 246.122 186.698 245.662 186.881C245.201 187.06 244.674 187.149 244.081 187.149ZM251.196 187.154C250.712 187.154 250.277 187.068 249.889 186.896C249.504 186.72 249.199 186.461 248.974 186.12C248.752 185.779 248.641 185.358 248.641 184.857C248.641 184.426 248.721 184.07 248.88 183.788C249.039 183.507 249.256 183.281 249.531 183.112C249.806 182.943 250.116 182.816 250.461 182.729C250.809 182.64 251.168 182.575 251.539 182.536C251.987 182.489 252.35 182.448 252.628 182.411C252.907 182.371 253.109 182.312 253.235 182.232C253.364 182.149 253.429 182.022 253.429 181.849V181.82C253.429 181.445 253.318 181.155 253.096 180.95C252.873 180.744 252.554 180.641 252.136 180.641C251.695 180.641 251.346 180.737 251.087 180.93C250.832 181.122 250.659 181.349 250.57 181.611L248.89 181.372C249.022 180.908 249.241 180.52 249.546 180.209C249.851 179.894 250.224 179.659 250.664 179.503C251.105 179.344 251.592 179.264 252.126 179.264C252.494 179.264 252.86 179.307 253.225 179.393C253.589 179.48 253.922 179.622 254.224 179.821C254.526 180.017 254.768 180.283 254.95 180.621C255.136 180.96 255.228 181.382 255.228 181.889V187H253.498V185.951H253.439C253.329 186.163 253.175 186.362 252.976 186.548C252.781 186.73 252.534 186.877 252.235 186.99C251.94 187.099 251.594 187.154 251.196 187.154ZM251.664 185.832C252.025 185.832 252.338 185.76 252.603 185.618C252.868 185.472 253.072 185.28 253.215 185.041C253.361 184.803 253.434 184.542 253.434 184.261V183.361C253.377 183.407 253.281 183.45 253.145 183.49C253.013 183.53 252.864 183.565 252.698 183.594C252.532 183.624 252.368 183.651 252.206 183.674C252.043 183.697 251.902 183.717 251.783 183.734C251.515 183.77 251.274 183.83 251.062 183.913C250.85 183.996 250.683 184.112 250.56 184.261C250.437 184.406 250.376 184.595 250.376 184.827C250.376 185.159 250.497 185.409 250.739 185.578C250.981 185.747 251.289 185.832 251.664 185.832ZM258.838 176.818V187H257.038V176.818H258.838ZM265.317 182.018V183.5H260.733V182.018H265.317ZM271.023 179.364V180.756H266.633V179.364H271.023ZM267.717 177.534H269.517V184.703C269.517 184.945 269.553 185.131 269.626 185.26C269.702 185.386 269.802 185.472 269.924 185.518C270.047 185.565 270.183 185.588 270.332 185.588C270.445 185.588 270.547 185.58 270.64 185.563C270.736 185.547 270.809 185.532 270.859 185.518L271.162 186.925C271.066 186.959 270.929 186.995 270.75 187.035C270.574 187.075 270.359 187.098 270.103 187.104C269.653 187.118 269.247 187.05 268.885 186.901C268.524 186.748 268.237 186.513 268.025 186.195C267.816 185.876 267.714 185.479 267.717 185.001V177.534ZM272.528 187V179.364H274.328V187H272.528ZM273.433 178.28C273.148 178.28 272.903 178.185 272.697 177.996C272.492 177.804 272.389 177.574 272.389 177.305C272.389 177.034 272.492 176.803 272.697 176.614C272.903 176.422 273.148 176.326 273.433 176.326C273.721 176.326 273.967 176.422 274.169 176.614C274.374 176.803 274.477 177.034 274.477 177.305C274.477 177.574 274.374 177.804 274.169 177.996C273.967 178.185 273.721 178.28 273.433 178.28ZM276.179 187V179.364H277.899V180.661H277.988C278.147 180.224 278.411 179.882 278.779 179.637C279.147 179.388 279.586 179.264 280.096 179.264C280.613 179.264 281.049 179.39 281.404 179.642C281.762 179.891 282.014 180.23 282.159 180.661H282.239C282.408 180.237 282.693 179.899 283.094 179.647C283.498 179.392 283.977 179.264 284.531 179.264C285.234 179.264 285.807 179.486 286.251 179.93C286.695 180.375 286.917 181.022 286.917 181.874V187H285.113V182.153C285.113 181.679 284.987 181.332 284.735 181.114C284.483 180.892 284.175 180.781 283.81 180.781C283.376 180.781 283.036 180.916 282.791 181.188C282.549 181.457 282.428 181.806 282.428 182.237V187H280.663V182.078C280.663 181.684 280.544 181.369 280.305 181.134C280.07 180.898 279.761 180.781 279.38 180.781C279.122 180.781 278.886 180.847 278.674 180.979C278.462 181.109 278.293 181.293 278.167 181.531C278.041 181.767 277.978 182.042 277.978 182.357V187H276.179ZM292.124 187.149C291.358 187.149 290.697 186.99 290.14 186.672C289.587 186.35 289.161 185.896 288.862 185.31C288.564 184.72 288.415 184.025 288.415 183.227C288.415 182.441 288.564 181.752 288.862 181.158C289.164 180.562 289.585 180.098 290.125 179.766C290.665 179.432 291.3 179.264 292.029 179.264C292.5 179.264 292.944 179.34 293.362 179.493C293.783 179.642 294.154 179.874 294.475 180.189C294.8 180.504 295.055 180.905 295.241 181.392C295.427 181.876 295.519 182.453 295.519 183.122V183.674H289.26V182.461H293.794C293.791 182.116 293.716 181.81 293.57 181.541C293.425 181.269 293.221 181.056 292.959 180.9C292.7 180.744 292.399 180.666 292.054 180.666C291.686 180.666 291.363 180.756 291.085 180.935C290.806 181.11 290.589 181.342 290.433 181.631C290.281 181.916 290.203 182.229 290.2 182.57V183.629C290.2 184.073 290.281 184.455 290.443 184.773C290.606 185.088 290.833 185.33 291.124 185.499C291.416 185.664 291.758 185.747 292.149 185.747C292.41 185.747 292.647 185.711 292.86 185.638C293.072 185.562 293.256 185.451 293.411 185.305C293.567 185.159 293.685 184.978 293.764 184.763L295.445 184.952C295.339 185.396 295.137 185.784 294.838 186.115C294.543 186.443 294.165 186.698 293.705 186.881C293.244 187.06 292.717 187.149 292.124 187.149ZM51.1023 198.909C51.1023 200.006 50.8968 200.946 50.4858 201.728C50.0781 202.507 49.5213 203.103 48.8153 203.518C48.1127 203.932 47.3156 204.139 46.424 204.139C45.5324 204.139 44.7337 203.932 44.0277 203.518C43.325 203.1 42.7682 202.502 42.3572 201.723C41.9496 200.941 41.7457 200.003 41.7457 198.909C41.7457 197.812 41.9496 196.874 42.3572 196.095C42.7682 195.313 43.325 194.715 44.0277 194.3C44.7337 193.886 45.5324 193.679 46.424 193.679C47.3156 193.679 48.1127 193.886 48.8153 194.3C49.5213 194.715 50.0781 195.313 50.4858 196.095C50.8968 196.874 51.1023 197.812 51.1023 198.909ZM49.2479 198.909C49.2479 198.137 49.1269 197.486 48.8849 196.955C48.6463 196.422 48.3149 196.019 47.8906 195.747C47.4664 195.472 46.9775 195.335 46.424 195.335C45.8705 195.335 45.3816 195.472 44.9574 195.747C44.5331 196.019 44.2 196.422 43.9581 196.955C43.7195 197.486 43.6001 198.137 43.6001 198.909C43.6001 199.681 43.7195 200.334 43.9581 200.868C44.2 201.398 44.5331 201.801 44.9574 202.076C45.3816 202.348 45.8705 202.484 46.424 202.484C46.9775 202.484 47.4664 202.348 47.8906 202.076C48.3149 201.801 48.6463 201.398 48.8849 200.868C49.1269 200.334 49.2479 199.681 49.2479 198.909ZM54.5662 199.526V204H52.7665V196.364H54.4867V197.661H54.5762C54.7518 197.234 55.0319 196.894 55.4164 196.642C55.8042 196.39 56.2831 196.264 56.8532 196.264C57.3801 196.264 57.8392 196.377 58.2303 196.602C58.6247 196.828 58.9296 197.154 59.1451 197.582C59.3638 198.009 59.4715 198.528 59.4682 199.138V204H57.6685V199.416C57.6685 198.906 57.5359 198.506 57.2708 198.218C57.0089 197.93 56.646 197.786 56.182 197.786C55.8671 197.786 55.5871 197.855 55.3418 197.994C55.0998 198.13 54.9093 198.327 54.7701 198.586C54.6342 198.844 54.5662 199.158 54.5662 199.526ZM65.9263 199.018V200.5H61.3425V199.018H65.9263ZM73.8548 198.382L72.2141 198.561C72.1677 198.395 72.0865 198.24 71.9705 198.094C71.8578 197.948 71.7054 197.83 71.5131 197.741C71.3209 197.651 71.0856 197.607 70.8072 197.607C70.4326 197.607 70.1178 197.688 69.8626 197.85C69.6107 198.013 69.4864 198.223 69.4897 198.482C69.4864 198.704 69.5676 198.884 69.7333 199.023C69.9023 199.163 70.1808 199.277 70.5685 199.366L71.8711 199.645C72.5936 199.801 73.1306 200.048 73.4819 200.386C73.8365 200.724 74.0155 201.166 74.0188 201.713C74.0155 202.194 73.8746 202.618 73.5962 202.986C73.3211 203.35 72.9383 203.635 72.4478 203.841C71.9573 204.046 71.3938 204.149 70.7575 204.149C69.8228 204.149 69.0704 203.954 68.5004 203.562C67.9303 203.168 67.5906 202.62 67.4812 201.917L69.2362 201.748C69.3157 202.093 69.4847 202.353 69.7433 202.528C70.0018 202.704 70.3382 202.792 70.7525 202.792C71.18 202.792 71.5231 202.704 71.7816 202.528C72.0434 202.353 72.1744 202.136 72.1744 201.877C72.1744 201.658 72.0898 201.478 71.9208 201.335C71.7551 201.193 71.4966 201.083 71.1452 201.007L69.8427 200.734C69.1102 200.581 68.5683 200.324 68.217 199.963C67.8656 199.598 67.6916 199.138 67.695 198.581C67.6916 198.11 67.8192 197.703 68.0778 197.358C68.3396 197.01 68.7025 196.741 69.1665 196.553C69.6339 196.36 70.1725 196.264 70.7823 196.264C71.6772 196.264 72.3815 196.455 72.8952 196.836C73.4123 197.217 73.7321 197.732 73.8548 198.382ZM77.3026 199.526V204H75.5028V193.818H77.2628V197.661H77.3523C77.5313 197.23 77.808 196.891 78.1825 196.642C78.5604 196.39 79.041 196.264 79.6243 196.264C80.1546 196.264 80.617 196.375 81.0114 196.597C81.4058 196.819 81.7107 197.144 81.9261 197.572C82.1449 197.999 82.2543 198.521 82.2543 199.138V204H80.4545V199.416C80.4545 198.902 80.322 198.503 80.0568 198.218C79.795 197.93 79.4271 197.786 78.9531 197.786C78.6349 197.786 78.3499 197.855 78.098 197.994C77.8494 198.13 77.6539 198.327 77.5114 198.586C77.3722 198.844 77.3026 199.158 77.3026 199.526ZM87.4695 204.149C86.7038 204.149 86.0426 203.99 85.4858 203.672C84.9323 203.35 84.5064 202.896 84.2081 202.31C83.9098 201.72 83.7607 201.025 83.7607 200.227C83.7607 199.441 83.9098 198.752 84.2081 198.158C84.5097 197.562 84.9306 197.098 85.4709 196.766C86.0111 196.432 86.6458 196.264 87.375 196.264C87.8456 196.264 88.2898 196.34 88.7074 196.493C89.1283 196.642 89.4995 196.874 89.821 197.189C90.1458 197.504 90.401 197.905 90.5866 198.392C90.7723 198.876 90.8651 199.453 90.8651 200.122V200.674H84.6058V199.461H89.1399C89.1366 199.116 89.062 198.81 88.9162 198.541C88.7704 198.269 88.5665 198.056 88.3047 197.9C88.0462 197.744 87.7446 197.666 87.3999 197.666C87.032 197.666 86.7088 197.756 86.4304 197.935C86.152 198.11 85.9349 198.342 85.7791 198.631C85.6267 198.916 85.5488 199.229 85.5455 199.57V200.629C85.5455 201.073 85.6267 201.455 85.7891 201.773C85.9515 202.088 86.1785 202.33 86.4702 202.499C86.7618 202.664 87.1032 202.747 87.4943 202.747C87.7562 202.747 87.9931 202.711 88.2053 202.638C88.4174 202.562 88.6013 202.451 88.7571 202.305C88.9129 202.159 89.0305 201.978 89.1101 201.763L90.7905 201.952C90.6844 202.396 90.4822 202.784 90.1839 203.115C89.889 203.443 89.5111 203.698 89.0504 203.881C88.5897 204.06 88.0627 204.149 87.4695 204.149ZM94.1873 193.818V204H92.3876V193.818H94.1873ZM99.9059 196.364V197.756H95.3917V196.364H99.9059ZM96.5202 204V195.643C96.5202 195.129 96.6263 194.701 96.8384 194.36C97.0539 194.019 97.3422 193.763 97.7035 193.594C98.0647 193.425 98.4658 193.341 98.9066 193.341C99.2182 193.341 99.4949 193.366 99.7369 193.415C99.9788 193.465 100.158 193.51 100.274 193.55L99.9158 194.942C99.8396 194.919 99.7435 194.895 99.6275 194.872C99.5115 194.846 99.3822 194.832 99.2397 194.832C98.9049 194.832 98.668 194.914 98.5288 195.076C98.3929 195.235 98.3249 195.464 98.3249 195.762V204H96.5202ZM106.985 204.154C106.502 204.154 106.066 204.068 105.678 203.896C105.293 203.72 104.989 203.461 104.763 203.12C104.541 202.779 104.43 202.358 104.43 201.857C104.43 201.426 104.51 201.07 104.669 200.788C104.828 200.507 105.045 200.281 105.32 200.112C105.595 199.943 105.905 199.816 106.25 199.729C106.598 199.64 106.957 199.575 107.328 199.536C107.776 199.489 108.139 199.448 108.417 199.411C108.696 199.371 108.898 199.312 109.024 199.232C109.153 199.149 109.218 199.022 109.218 198.849V198.82C109.218 198.445 109.107 198.155 108.885 197.95C108.663 197.744 108.343 197.641 107.925 197.641C107.484 197.641 107.135 197.737 106.876 197.93C106.621 198.122 106.449 198.349 106.359 198.611L104.679 198.372C104.811 197.908 105.03 197.52 105.335 197.209C105.64 196.894 106.013 196.659 106.453 196.503C106.894 196.344 107.382 196.264 107.915 196.264C108.283 196.264 108.649 196.307 109.014 196.393C109.378 196.48 109.712 196.622 110.013 196.821C110.315 197.017 110.557 197.283 110.739 197.621C110.925 197.96 111.017 198.382 111.017 198.889V204H109.287V202.951H109.228C109.118 203.163 108.964 203.362 108.765 203.548C108.57 203.73 108.323 203.877 108.025 203.99C107.73 204.099 107.383 204.154 106.985 204.154ZM107.453 202.832C107.814 202.832 108.127 202.76 108.392 202.618C108.658 202.472 108.861 202.28 109.004 202.041C109.15 201.803 109.223 201.542 109.223 201.261V200.361C109.166 200.407 109.07 200.45 108.934 200.49C108.802 200.53 108.653 200.565 108.487 200.594C108.321 200.624 108.157 200.651 107.995 200.674C107.832 200.697 107.691 200.717 107.572 200.734C107.304 200.77 107.063 200.83 106.851 200.913C106.639 200.996 106.472 201.112 106.349 201.261C106.226 201.406 106.165 201.595 106.165 201.827C106.165 202.159 106.286 202.409 106.528 202.578C106.77 202.747 107.078 202.832 107.453 202.832ZM119.375 196.364L116.655 204H114.667L111.947 196.364H113.866L115.621 202.036H115.701L117.461 196.364H119.375ZM122.599 204.154C122.115 204.154 121.679 204.068 121.291 203.896C120.907 203.72 120.602 203.461 120.376 203.12C120.154 202.779 120.043 202.358 120.043 201.857C120.043 201.426 120.123 201.07 120.282 200.788C120.441 200.507 120.658 200.281 120.933 200.112C121.208 199.943 121.518 199.816 121.863 199.729C122.211 199.64 122.571 199.575 122.942 199.536C123.389 199.489 123.752 199.448 124.031 199.411C124.309 199.371 124.511 199.312 124.637 199.232C124.766 199.149 124.831 199.022 124.831 198.849V198.82C124.831 198.445 124.72 198.155 124.498 197.95C124.276 197.744 123.956 197.641 123.538 197.641C123.098 197.641 122.748 197.737 122.489 197.93C122.234 198.122 122.062 198.349 121.972 198.611L120.292 198.372C120.424 197.908 120.643 197.52 120.948 197.209C121.253 196.894 121.626 196.659 122.067 196.503C122.508 196.344 122.995 196.264 123.528 196.264C123.896 196.264 124.263 196.307 124.627 196.393C124.992 196.48 125.325 196.622 125.626 196.821C125.928 197.017 126.17 197.283 126.352 197.621C126.538 197.96 126.631 198.382 126.631 198.889V204H124.901V202.951H124.841C124.732 203.163 124.577 203.362 124.379 203.548C124.183 203.73 123.936 203.877 123.638 203.99C123.343 204.099 122.996 204.154 122.599 204.154ZM123.066 202.832C123.427 202.832 123.741 202.76 124.006 202.618C124.271 202.472 124.475 202.28 124.617 202.041C124.763 201.803 124.836 201.542 124.836 201.261V200.361C124.78 200.407 124.683 200.45 124.548 200.49C124.415 200.53 124.266 200.565 124.1 200.594C123.934 200.624 123.77 200.651 123.608 200.674C123.446 200.697 123.305 200.717 123.185 200.734C122.917 200.77 122.677 200.83 122.464 200.913C122.252 200.996 122.085 201.112 121.962 201.261C121.84 201.406 121.778 201.595 121.778 201.827C121.778 202.159 121.899 202.409 122.141 202.578C122.383 202.747 122.692 202.832 123.066 202.832ZM128.44 204V196.364H130.24V204H128.44ZM129.345 195.28C129.06 195.28 128.815 195.185 128.609 194.996C128.404 194.804 128.301 194.574 128.301 194.305C128.301 194.034 128.404 193.803 128.609 193.614C128.815 193.422 129.06 193.326 129.345 193.326C129.634 193.326 129.879 193.422 130.081 193.614C130.286 193.803 130.389 194.034 130.389 194.305C130.389 194.574 130.286 194.804 130.081 194.996C129.879 195.185 129.634 195.28 129.345 195.28ZM133.89 193.818V204H132.091V193.818H133.89ZM137.939 204.154C137.455 204.154 137.019 204.068 136.631 203.896C136.247 203.72 135.942 203.461 135.716 203.12C135.494 202.779 135.383 202.358 135.383 201.857C135.383 201.426 135.463 201.07 135.622 200.788C135.781 200.507 135.998 200.281 136.273 200.112C136.548 199.943 136.858 199.816 137.203 199.729C137.551 199.64 137.91 199.575 138.282 199.536C138.729 199.489 139.092 199.448 139.37 199.411C139.649 199.371 139.851 199.312 139.977 199.232C140.106 199.149 140.171 199.022 140.171 198.849V198.82C140.171 198.445 140.06 198.155 139.838 197.95C139.616 197.744 139.296 197.641 138.878 197.641C138.437 197.641 138.088 197.737 137.829 197.93C137.574 198.122 137.402 198.349 137.312 198.611L135.632 198.372C135.764 197.908 135.983 197.52 136.288 197.209C136.593 196.894 136.966 196.659 137.407 196.503C137.847 196.344 138.335 196.264 138.868 196.264C139.236 196.264 139.602 196.307 139.967 196.393C140.332 196.48 140.665 196.622 140.966 196.821C141.268 197.017 141.51 197.283 141.692 197.621C141.878 197.96 141.971 198.382 141.971 198.889V204H140.24V202.951H140.181C140.071 203.163 139.917 203.362 139.718 203.548C139.523 203.73 139.276 203.877 138.978 203.99C138.683 204.099 138.336 204.154 137.939 204.154ZM138.406 202.832C138.767 202.832 139.08 202.76 139.346 202.618C139.611 202.472 139.815 202.28 139.957 202.041C140.103 201.803 140.176 201.542 140.176 201.261V200.361C140.119 200.407 140.023 200.45 139.887 200.49C139.755 200.53 139.606 200.565 139.44 200.594C139.274 200.624 139.11 200.651 138.948 200.674C138.785 200.697 138.645 200.717 138.525 200.734C138.257 200.77 138.016 200.83 137.804 200.913C137.592 200.996 137.425 201.112 137.302 201.261C137.18 201.406 137.118 201.595 137.118 201.827C137.118 202.159 137.239 202.409 137.481 202.578C137.723 202.747 138.031 202.832 138.406 202.832ZM143.86 204V193.818H145.659V197.626H145.734C145.827 197.441 145.958 197.244 146.127 197.035C146.296 196.823 146.525 196.642 146.813 196.493C147.101 196.34 147.469 196.264 147.917 196.264C148.507 196.264 149.038 196.415 149.512 196.717C149.99 197.015 150.368 197.457 150.646 198.044C150.928 198.627 151.069 199.343 151.069 200.192C151.069 201.03 150.931 201.743 150.656 202.33C150.381 202.916 150.006 203.364 149.532 203.672C149.058 203.98 148.521 204.134 147.922 204.134C147.484 204.134 147.121 204.061 146.833 203.915C146.544 203.77 146.312 203.594 146.137 203.388C145.964 203.18 145.83 202.982 145.734 202.797H145.63V204H143.86ZM145.625 200.182C145.625 200.676 145.694 201.108 145.833 201.479C145.976 201.851 146.18 202.141 146.445 202.349C146.713 202.555 147.038 202.658 147.419 202.658C147.817 202.658 148.15 202.552 148.419 202.339C148.687 202.124 148.889 201.831 149.025 201.46C149.164 201.085 149.234 200.659 149.234 200.182C149.234 199.708 149.166 199.287 149.03 198.919C148.894 198.551 148.692 198.263 148.424 198.054C148.155 197.845 147.82 197.741 147.419 197.741C147.035 197.741 146.708 197.842 146.44 198.044C146.172 198.246 145.968 198.53 145.828 198.894C145.693 199.259 145.625 199.688 145.625 200.182ZM152.599 204V196.364H154.398V204H152.599ZM153.503 195.28C153.218 195.28 152.973 195.185 152.768 194.996C152.562 194.804 152.459 194.574 152.459 194.305C152.459 194.034 152.562 193.803 152.768 193.614C152.973 193.422 153.218 193.326 153.503 193.326C153.792 193.326 154.037 193.422 154.239 193.614C154.445 193.803 154.547 194.034 154.547 194.305C154.547 194.574 154.445 194.804 154.239 194.996C154.037 195.185 153.792 195.28 153.503 195.28ZM158.049 193.818V204H156.249V193.818H158.049ZM159.899 204V196.364H161.699V204H159.899ZM160.804 195.28C160.519 195.28 160.274 195.185 160.068 194.996C159.863 194.804 159.76 194.574 159.76 194.305C159.76 194.034 159.863 193.803 160.068 193.614C160.274 193.422 160.519 193.326 160.804 193.326C161.093 193.326 161.338 193.422 161.54 193.614C161.745 193.803 161.848 194.034 161.848 194.305C161.848 194.574 161.745 194.804 161.54 194.996C161.338 195.185 161.093 195.28 160.804 195.28ZM167.363 196.364V197.756H162.973V196.364H167.363ZM164.057 194.534H165.857V201.703C165.857 201.945 165.893 202.131 165.966 202.26C166.042 202.386 166.142 202.472 166.264 202.518C166.387 202.565 166.523 202.588 166.672 202.588C166.785 202.588 166.887 202.58 166.98 202.563C167.076 202.547 167.149 202.532 167.199 202.518L167.502 203.925C167.406 203.959 167.268 203.995 167.089 204.035C166.914 204.075 166.698 204.098 166.443 204.104C165.992 204.118 165.586 204.05 165.225 203.901C164.864 203.748 164.577 203.513 164.365 203.195C164.156 202.876 164.054 202.479 164.057 202.001V194.534ZM169.987 206.864C169.741 206.864 169.514 206.844 169.306 206.804C169.1 206.768 168.936 206.724 168.813 206.675L169.231 205.273C169.493 205.349 169.727 205.385 169.932 205.382C170.137 205.379 170.318 205.314 170.474 205.188C170.633 205.066 170.767 204.86 170.877 204.572L171.031 204.159L168.262 196.364H170.171L171.931 202.131H172.01L173.775 196.364H175.689L172.632 204.925C172.489 205.329 172.3 205.675 172.065 205.964C171.829 206.255 171.541 206.478 171.2 206.63C170.862 206.786 170.457 206.864 169.987 206.864ZM183.241 204.134C182.641 204.134 182.104 203.98 181.63 203.672C181.156 203.364 180.782 202.916 180.507 202.33C180.231 201.743 180.094 201.03 180.094 200.192C180.094 199.343 180.233 198.627 180.512 198.044C180.793 197.457 181.173 197.015 181.65 196.717C182.127 196.415 182.659 196.264 183.246 196.264C183.693 196.264 184.061 196.34 184.35 196.493C184.638 196.642 184.867 196.823 185.036 197.035C185.205 197.244 185.336 197.441 185.428 197.626H185.503V193.818H187.308V204H185.538V202.797H185.428C185.336 202.982 185.201 203.18 185.026 203.388C184.85 203.594 184.618 203.77 184.33 203.915C184.041 204.061 183.678 204.134 183.241 204.134ZM183.743 202.658C184.124 202.658 184.449 202.555 184.718 202.349C184.986 202.141 185.19 201.851 185.329 201.479C185.468 201.108 185.538 200.676 185.538 200.182C185.538 199.688 185.468 199.259 185.329 198.894C185.193 198.53 184.991 198.246 184.722 198.044C184.457 197.842 184.131 197.741 183.743 197.741C183.342 197.741 183.007 197.845 182.739 198.054C182.47 198.263 182.268 198.551 182.132 198.919C181.996 199.287 181.928 199.708 181.928 200.182C181.928 200.659 181.996 201.085 182.132 201.46C182.271 201.831 182.475 202.124 182.744 202.339C183.016 202.552 183.349 202.658 183.743 202.658ZM191.423 204.154C190.939 204.154 190.503 204.068 190.115 203.896C189.731 203.72 189.426 203.461 189.201 203.12C188.979 202.779 188.868 202.358 188.868 201.857C188.868 201.426 188.947 201.07 189.106 200.788C189.265 200.507 189.482 200.281 189.757 200.112C190.033 199.943 190.342 199.816 190.687 199.729C191.035 199.64 191.395 199.575 191.766 199.536C192.213 199.489 192.576 199.448 192.855 199.411C193.133 199.371 193.335 199.312 193.461 199.232C193.591 199.149 193.655 199.022 193.655 198.849V198.82C193.655 198.445 193.544 198.155 193.322 197.95C193.1 197.744 192.78 197.641 192.363 197.641C191.922 197.641 191.572 197.737 191.314 197.93C191.058 198.122 190.886 198.349 190.797 198.611L189.116 198.372C189.249 197.908 189.467 197.52 189.772 197.209C190.077 196.894 190.45 196.659 190.891 196.503C191.332 196.344 191.819 196.264 192.353 196.264C192.721 196.264 193.087 196.307 193.451 196.393C193.816 196.48 194.149 196.622 194.451 196.821C194.752 197.017 194.994 197.283 195.176 197.621C195.362 197.96 195.455 198.382 195.455 198.889V204H193.725V202.951H193.665C193.556 203.163 193.402 203.362 193.203 203.548C193.007 203.73 192.76 203.877 192.462 203.99C192.167 204.099 191.821 204.154 191.423 204.154ZM191.89 202.832C192.252 202.832 192.565 202.76 192.83 202.618C193.095 202.472 193.299 202.28 193.441 202.041C193.587 201.803 193.66 201.542 193.66 201.261V200.361C193.604 200.407 193.508 200.45 193.372 200.49C193.239 200.53 193.09 200.565 192.924 200.594C192.759 200.624 192.595 200.651 192.432 200.674C192.27 200.697 192.129 200.717 192.01 200.734C191.741 200.77 191.501 200.83 191.289 200.913C191.077 200.996 190.909 201.112 190.787 201.261C190.664 201.406 190.603 201.595 190.603 201.827C190.603 202.159 190.724 202.409 190.966 202.578C191.208 202.747 191.516 202.832 191.89 202.832ZM201.078 196.364V197.756H196.688V196.364H201.078ZM197.772 194.534H199.571V201.703C199.571 201.945 199.608 202.131 199.681 202.26C199.757 202.386 199.856 202.472 199.979 202.518C200.102 202.565 200.238 202.588 200.387 202.588C200.499 202.588 200.602 202.58 200.695 202.563C200.791 202.547 200.864 202.532 200.914 202.518L201.217 203.925C201.121 203.959 200.983 203.995 200.804 204.035C200.629 204.075 200.413 204.098 200.158 204.104C199.707 204.118 199.301 204.05 198.94 203.901C198.579 203.748 198.292 203.513 198.08 203.195C197.871 202.876 197.768 202.479 197.772 202.001V194.534ZM204.78 204.154C204.296 204.154 203.861 204.068 203.473 203.896C203.088 203.72 202.783 203.461 202.558 203.12C202.336 202.779 202.225 202.358 202.225 201.857C202.225 201.426 202.305 201.07 202.464 200.788C202.623 200.507 202.84 200.281 203.115 200.112C203.39 199.943 203.7 199.816 204.045 199.729C204.393 199.64 204.752 199.575 205.123 199.536C205.571 199.489 205.934 199.448 206.212 199.411C206.491 199.371 206.693 199.312 206.819 199.232C206.948 199.149 207.013 199.022 207.013 198.849V198.82C207.013 198.445 206.902 198.155 206.68 197.95C206.457 197.744 206.138 197.641 205.72 197.641C205.279 197.641 204.93 197.737 204.671 197.93C204.416 198.122 204.243 198.349 204.154 198.611L202.474 198.372C202.606 197.908 202.825 197.52 203.13 197.209C203.435 196.894 203.808 196.659 204.248 196.503C204.689 196.344 205.176 196.264 205.71 196.264C206.078 196.264 206.444 196.307 206.809 196.393C207.173 196.48 207.506 196.622 207.808 196.821C208.11 197.017 208.352 197.283 208.534 197.621C208.72 197.96 208.812 198.382 208.812 198.889V204H207.082V202.951H207.023C206.913 203.163 206.759 203.362 206.56 203.548C206.365 203.73 206.118 203.877 205.819 203.99C205.524 204.099 205.178 204.154 204.78 204.154ZM205.248 202.832C205.609 202.832 205.922 202.76 206.187 202.618C206.452 202.472 206.656 202.28 206.799 202.041C206.945 201.803 207.018 201.542 207.018 201.261V200.361C206.961 200.407 206.865 200.45 206.729 200.49C206.597 200.53 206.448 200.565 206.282 200.594C206.116 200.624 205.952 200.651 205.79 200.674C205.627 200.697 205.486 200.717 205.367 200.734C205.099 200.77 204.858 200.83 204.646 200.913C204.434 200.996 204.267 201.112 204.144 201.261C204.021 201.406 203.96 201.595 203.96 201.827C203.96 202.159 204.081 202.409 204.323 202.578C204.565 202.747 204.873 202.832 205.248 202.832ZM211.731 204.109C211.429 204.109 211.171 204.003 210.955 203.791C210.74 203.579 210.634 203.321 210.637 203.016C210.634 202.717 210.74 202.462 210.955 202.25C211.171 202.038 211.429 201.932 211.731 201.932C212.022 201.932 212.276 202.038 212.491 202.25C212.71 202.462 212.821 202.717 212.824 203.016C212.821 203.218 212.768 203.402 212.665 203.567C212.566 203.733 212.433 203.866 212.268 203.965C212.105 204.061 211.926 204.109 211.731 204.109Z" fill="white"/>
<path d="M50.3395 151.453C50.2732 150.833 49.9938 150.35 49.5014 150.004C49.0137 149.659 48.3793 149.486 47.598 149.486C47.0488 149.486 46.5777 149.569 46.1847 149.734C45.7917 149.9 45.491 150.125 45.2827 150.409C45.0743 150.693 44.9678 151.018 44.9631 151.382C44.9631 151.685 45.0317 151.948 45.169 152.17C45.3111 152.393 45.5028 152.582 45.7443 152.739C45.9858 152.89 46.2533 153.018 46.5469 153.122C46.8404 153.226 47.1364 153.314 47.4347 153.385L48.7983 153.726C49.3475 153.854 49.8755 154.027 50.3821 154.244C50.8935 154.462 51.3504 154.737 51.7528 155.068C52.16 155.4 52.482 155.8 52.7188 156.268C52.9555 156.737 53.0739 157.286 53.0739 157.916C53.0739 158.768 52.8561 159.519 52.4205 160.168C51.9848 160.812 51.3551 161.316 50.5312 161.68C49.7121 162.04 48.7202 162.22 47.5554 162.22C46.4238 162.22 45.4413 162.045 44.608 161.695C43.7794 161.344 43.1307 160.833 42.6619 160.161C42.1979 159.488 41.947 158.669 41.9091 157.703H44.5014C44.5393 158.21 44.6955 158.631 44.9702 158.967C45.2448 159.304 45.6023 159.554 46.0426 159.72C46.4877 159.886 46.9848 159.969 47.5341 159.969C48.107 159.969 48.6089 159.884 49.0398 159.713C49.4754 159.538 49.8163 159.296 50.0625 158.989C50.3087 158.676 50.4342 158.312 50.4389 157.895C50.4342 157.516 50.3229 157.204 50.1051 156.957C49.8873 156.706 49.5819 156.498 49.1889 156.332C48.8007 156.162 48.3461 156.01 47.8253 155.878L46.1705 155.452C44.9725 155.144 44.0256 154.678 43.3295 154.053C42.6383 153.423 42.2926 152.587 42.2926 151.545C42.2926 150.688 42.5246 149.938 42.9886 149.294C43.4574 148.65 44.0942 148.151 44.8991 147.795C45.7041 147.436 46.6155 147.256 47.6335 147.256C48.6657 147.256 49.5701 147.436 50.3466 147.795C51.1278 148.151 51.741 148.645 52.1861 149.28C52.6312 149.91 52.8608 150.634 52.875 151.453H50.3395ZM60.7567 151.091V153.08H54.4854V151.091H60.7567ZM56.0337 148.477H58.6048V158.719C58.6048 159.064 58.6568 159.33 58.761 159.514C58.8699 159.694 59.012 159.817 59.1871 159.884C59.3623 159.95 59.5565 159.983 59.7695 159.983C59.9305 159.983 60.0773 159.971 60.2099 159.947C60.3472 159.924 60.4513 159.902 60.5224 159.884L60.9556 161.893C60.8183 161.941 60.6218 161.993 60.3661 162.05C60.1152 162.107 59.8074 162.14 59.4428 162.149C58.7989 162.168 58.2189 162.071 57.7028 161.858C57.1867 161.64 56.7771 161.304 56.4741 160.849C56.1758 160.395 56.029 159.827 56.0337 159.145V148.477ZM67.5483 162.213C66.483 162.213 65.5597 161.979 64.7784 161.51C63.9972 161.041 63.3911 160.385 62.9602 159.543C62.5341 158.7 62.321 157.715 62.321 156.588C62.321 155.461 62.5341 154.474 62.9602 153.626C63.3911 152.779 63.9972 152.121 64.7784 151.652C65.5597 151.183 66.483 150.949 67.5483 150.949C68.6136 150.949 69.5369 151.183 70.3182 151.652C71.0994 152.121 71.7031 152.779 72.1293 153.626C72.5601 154.474 72.7756 155.461 72.7756 156.588C72.7756 157.715 72.5601 158.7 72.1293 159.543C71.7031 160.385 71.0994 161.041 70.3182 161.51C69.5369 161.979 68.6136 162.213 67.5483 162.213ZM67.5625 160.153C68.1402 160.153 68.6231 159.995 69.0114 159.678C69.3996 159.356 69.6884 158.925 69.8778 158.385C70.072 157.845 70.169 157.244 70.169 156.581C70.169 155.913 70.072 155.31 69.8778 154.77C69.6884 154.225 69.3996 153.792 69.0114 153.47C68.6231 153.148 68.1402 152.987 67.5625 152.987C66.9706 152.987 66.4782 153.148 66.0852 153.47C65.697 153.792 65.4058 154.225 65.2116 154.77C65.0223 155.31 64.9276 155.913 64.9276 156.581C64.9276 157.244 65.0223 157.845 65.2116 158.385C65.4058 158.925 65.697 159.356 66.0852 159.678C66.4782 159.995 66.9706 160.153 67.5625 160.153ZM74.9577 162V151.091H77.4506V152.909H77.5643C77.7631 152.279 78.104 151.794 78.587 151.453C79.0747 151.107 79.631 150.935 80.256 150.935C80.3981 150.935 80.5567 150.942 80.7319 150.956C80.9118 150.965 81.061 150.982 81.1793 151.006V153.371C81.0704 153.333 80.8976 153.3 80.6609 153.271C80.4289 153.238 80.204 153.222 79.9862 153.222C79.5174 153.222 79.096 153.323 78.7219 153.527C78.3526 153.726 78.0614 154.003 77.8484 154.358C77.6353 154.713 77.5288 155.123 77.5288 155.587V162H74.9577ZM87.2678 162.213C86.174 162.213 85.2294 161.986 84.4339 161.531C83.6432 161.072 83.0348 160.423 82.6087 159.585C82.1825 158.742 81.9695 157.75 81.9695 156.609C81.9695 155.487 82.1825 154.502 82.6087 153.655C83.0395 152.803 83.6409 152.14 84.4126 151.666C85.1844 151.188 86.0911 150.949 87.1328 150.949C87.8052 150.949 88.4396 151.058 89.0362 151.276C89.6375 151.489 90.1679 151.82 90.6271 152.27C91.0911 152.72 91.4557 153.293 91.7209 153.989C91.986 154.68 92.1186 155.504 92.1186 156.46V157.249H83.1768V155.516H89.6541C89.6494 155.023 89.5429 154.585 89.3345 154.202C89.1262 153.813 88.835 153.508 88.4609 153.286C88.0916 153.063 87.6607 152.952 87.1683 152.952C86.6428 152.952 86.1811 153.08 85.7834 153.335C85.3857 153.586 85.0755 153.918 84.853 154.33C84.6352 154.737 84.5239 155.184 84.5192 155.672V157.185C84.5192 157.819 84.6352 158.364 84.8672 158.818C85.0992 159.268 85.4235 159.614 85.8402 159.855C86.2569 160.092 86.7446 160.21 87.3033 160.21C87.6773 160.21 88.0159 160.158 88.3189 160.054C88.6219 159.945 88.8847 159.786 89.1072 159.578C89.3298 159.37 89.4979 159.112 89.6115 158.804L92.0121 159.074C91.8606 159.708 91.5717 160.262 91.1456 160.736C90.7242 161.205 90.1844 161.569 89.5263 161.83C88.8681 162.085 88.1153 162.213 87.2678 162.213ZM102.003 147.455V162H99.3683V147.455H102.003ZM107.314 155.608V162H104.743V151.091H107.2V152.945H107.328C107.579 152.334 107.979 151.848 108.528 151.489C109.082 151.129 109.767 150.949 110.581 150.949C111.334 150.949 111.99 151.11 112.548 151.432C113.112 151.754 113.547 152.22 113.855 152.831C114.168 153.442 114.321 154.183 114.317 155.054V162H111.746V155.452C111.746 154.723 111.556 154.152 111.178 153.74C110.804 153.328 110.285 153.122 109.622 153.122C109.172 153.122 108.772 153.222 108.422 153.42C108.076 153.615 107.804 153.896 107.605 154.266C107.411 154.635 107.314 155.082 107.314 155.608ZM122.378 151.091V153.08H116.107V151.091H122.378ZM117.655 148.477H120.226V158.719C120.226 159.064 120.278 159.33 120.382 159.514C120.491 159.694 120.633 159.817 120.808 159.884C120.983 159.95 121.178 159.983 121.391 159.983C121.552 159.983 121.698 159.971 121.831 159.947C121.968 159.924 122.072 159.902 122.143 159.884L122.577 161.893C122.439 161.941 122.243 161.993 121.987 162.05C121.736 162.107 121.429 162.14 121.064 162.149C120.42 162.168 119.84 162.071 119.324 161.858C118.808 161.64 118.398 161.304 118.095 160.849C117.797 160.395 117.65 159.827 117.655 159.145V148.477ZM129.24 162.213C128.147 162.213 127.202 161.986 126.407 161.531C125.616 161.072 125.007 160.423 124.581 159.585C124.155 158.742 123.942 157.75 123.942 156.609C123.942 155.487 124.155 154.502 124.581 153.655C125.012 152.803 125.614 152.14 126.385 151.666C127.157 151.188 128.064 150.949 129.105 150.949C129.778 150.949 130.412 151.058 131.009 151.276C131.61 151.489 132.141 151.82 132.6 152.27C133.064 152.72 133.428 153.293 133.694 153.989C133.959 154.68 134.091 155.504 134.091 156.46V157.249H125.15V155.516H131.627C131.622 155.023 131.516 154.585 131.307 154.202C131.099 153.813 130.808 153.508 130.434 153.286C130.064 153.063 129.633 152.952 129.141 152.952C128.615 152.952 128.154 153.08 127.756 153.335C127.358 153.586 127.048 153.918 126.826 154.33C126.608 154.737 126.497 155.184 126.492 155.672V157.185C126.492 157.819 126.608 158.364 126.84 158.818C127.072 159.268 127.396 159.614 127.813 159.855C128.23 160.092 128.717 160.21 129.276 160.21C129.65 160.21 129.989 160.158 130.292 160.054C130.595 159.945 130.857 159.786 131.08 159.578C131.302 159.37 131.471 159.112 131.584 158.804L133.985 159.074C133.833 159.708 133.544 160.262 133.118 160.736C132.697 161.205 132.157 161.569 131.499 161.83C130.841 162.085 130.088 162.213 129.24 162.213ZM138.837 147.455V162H136.266V147.455H138.837ZM144.052 147.455V162H141.481V147.455H144.052ZM146.696 162V151.091H149.267V162H146.696ZM147.989 149.543C147.581 149.543 147.231 149.408 146.938 149.138C146.644 148.863 146.497 148.534 146.497 148.151C146.497 147.762 146.644 147.433 146.938 147.163C147.231 146.889 147.581 146.751 147.989 146.751C148.401 146.751 148.751 146.889 149.04 147.163C149.333 147.433 149.48 147.762 149.48 148.151C149.48 148.534 149.333 148.863 149.04 149.138C148.751 149.408 148.401 149.543 147.989 149.543ZM156.655 166.318C155.732 166.318 154.939 166.193 154.276 165.942C153.613 165.696 153.08 165.364 152.678 164.947C152.275 164.531 151.996 164.069 151.84 163.562L154.155 163.001C154.259 163.214 154.411 163.425 154.61 163.634C154.809 163.847 155.076 164.022 155.412 164.159C155.753 164.301 156.182 164.372 156.698 164.372C157.427 164.372 158.031 164.195 158.509 163.839C158.987 163.489 159.226 162.911 159.226 162.107V160.04H159.098C158.966 160.305 158.772 160.577 158.516 160.857C158.265 161.136 157.931 161.37 157.515 161.56C157.103 161.749 156.584 161.844 155.959 161.844C155.121 161.844 154.361 161.647 153.679 161.254C153.002 160.857 152.462 160.265 152.06 159.479C151.662 158.688 151.463 157.698 151.463 156.51C151.463 155.312 151.662 154.301 152.06 153.477C152.462 152.649 153.005 152.021 153.686 151.595C154.368 151.164 155.128 150.949 155.966 150.949C156.605 150.949 157.131 151.058 157.543 151.276C157.96 151.489 158.291 151.747 158.537 152.05C158.783 152.348 158.971 152.63 159.098 152.895H159.24V151.091H161.776V162.178C161.776 163.11 161.553 163.882 161.108 164.493C160.663 165.104 160.055 165.561 159.283 165.864C158.511 166.167 157.635 166.318 156.655 166.318ZM156.676 159.827C157.221 159.827 157.685 159.694 158.069 159.429C158.452 159.164 158.743 158.783 158.942 158.286C159.141 157.788 159.24 157.192 159.24 156.496C159.24 155.809 159.141 155.208 158.942 154.692C158.748 154.176 158.459 153.776 158.076 153.491C157.697 153.203 157.23 153.058 156.676 153.058C156.104 153.058 155.625 153.207 155.242 153.506C154.858 153.804 154.569 154.214 154.375 154.734C154.181 155.25 154.084 155.838 154.084 156.496C154.084 157.163 154.181 157.748 154.375 158.25C154.574 158.747 154.865 159.135 155.249 159.415C155.637 159.689 156.113 159.827 156.676 159.827ZM169.24 162.213C168.147 162.213 167.202 161.986 166.407 161.531C165.616 161.072 165.007 160.423 164.581 159.585C164.155 158.742 163.942 157.75 163.942 156.609C163.942 155.487 164.155 154.502 164.581 153.655C165.012 152.803 165.614 152.14 166.385 151.666C167.157 151.188 168.064 150.949 169.105 150.949C169.778 150.949 170.412 151.058 171.009 151.276C171.61 151.489 172.141 151.82 172.6 152.27C173.064 152.72 173.428 153.293 173.694 153.989C173.959 154.68 174.091 155.504 174.091 156.46V157.249H165.15V155.516H171.627C171.622 155.023 171.516 154.585 171.307 154.202C171.099 153.813 170.808 153.508 170.434 153.286C170.064 153.063 169.633 152.952 169.141 152.952C168.615 152.952 168.154 153.08 167.756 153.335C167.358 153.586 167.048 153.918 166.826 154.33C166.608 154.737 166.497 155.184 166.492 155.672V157.185C166.492 157.819 166.608 158.364 166.84 158.818C167.072 159.268 167.396 159.614 167.813 159.855C168.23 160.092 168.717 160.21 169.276 160.21C169.65 160.21 169.989 160.158 170.292 160.054C170.595 159.945 170.857 159.786 171.08 159.578C171.302 159.37 171.471 159.112 171.584 158.804L173.985 159.074C173.833 159.708 173.544 160.262 173.118 160.736C172.697 161.205 172.157 161.569 171.499 161.83C170.841 162.085 170.088 162.213 169.24 162.213ZM178.837 155.608V162H176.266V151.091H178.724V152.945H178.852C179.103 152.334 179.503 151.848 180.052 151.489C180.606 151.129 181.29 150.949 182.104 150.949C182.857 150.949 183.513 151.11 184.072 151.432C184.635 151.754 185.071 152.22 185.379 152.831C185.691 153.442 185.845 154.183 185.84 155.054V162H183.269V155.452C183.269 154.723 183.08 154.152 182.701 153.74C182.327 153.328 181.808 153.122 181.146 153.122C180.696 153.122 180.296 153.222 179.945 153.42C179.6 153.615 179.327 153.896 179.129 154.266C178.934 154.635 178.837 155.082 178.837 155.608ZM193.212 162.213C192.123 162.213 191.188 161.974 190.407 161.496C189.63 161.018 189.031 160.357 188.61 159.514C188.193 158.667 187.985 157.691 187.985 156.588C187.985 155.48 188.198 154.502 188.624 153.655C189.05 152.803 189.652 152.14 190.428 151.666C191.21 151.188 192.133 150.949 193.198 150.949C194.084 150.949 194.867 151.112 195.549 151.439C196.236 151.761 196.782 152.218 197.19 152.81C197.597 153.397 197.829 154.083 197.886 154.869H195.428C195.329 154.344 195.092 153.906 194.718 153.555C194.349 153.2 193.854 153.023 193.234 153.023C192.708 153.023 192.246 153.165 191.849 153.449C191.451 153.728 191.141 154.131 190.918 154.656C190.701 155.182 190.592 155.812 190.592 156.545C190.592 157.289 190.701 157.928 190.918 158.463C191.136 158.993 191.442 159.403 191.835 159.692C192.232 159.976 192.699 160.118 193.234 160.118C193.612 160.118 193.951 160.047 194.249 159.905C194.552 159.758 194.806 159.547 195.009 159.273C195.213 158.998 195.353 158.664 195.428 158.271H197.886C197.824 159.043 197.597 159.727 197.204 160.324C196.811 160.916 196.276 161.38 195.599 161.716C194.922 162.047 194.126 162.213 193.212 162.213ZM204.826 162.213C203.733 162.213 202.788 161.986 201.993 161.531C201.202 161.072 200.593 160.423 200.167 159.585C199.741 158.742 199.528 157.75 199.528 156.609C199.528 155.487 199.741 154.502 200.167 153.655C200.598 152.803 201.199 152.14 201.971 151.666C202.743 151.188 203.65 150.949 204.691 150.949C205.364 150.949 205.998 151.058 206.595 151.276C207.196 151.489 207.726 151.82 208.186 152.27C208.65 152.72 209.014 153.293 209.279 153.989C209.545 154.68 209.677 155.504 209.677 156.46V157.249H200.735V155.516H207.213C207.208 155.023 207.101 154.585 206.893 154.202C206.685 153.813 206.394 153.508 206.02 153.286C205.65 153.063 205.219 152.952 204.727 152.952C204.201 152.952 203.74 153.08 203.342 153.335C202.944 153.586 202.634 153.918 202.412 154.33C202.194 154.737 202.083 155.184 202.078 155.672V157.185C202.078 157.819 202.194 158.364 202.426 158.818C202.658 159.268 202.982 159.614 203.399 159.855C203.815 160.092 204.303 160.21 204.862 160.21C205.236 160.21 205.574 160.158 205.877 160.054C206.181 159.945 206.443 159.786 206.666 159.578C206.888 159.37 207.056 159.112 207.17 158.804L209.571 159.074C209.419 159.708 209.13 160.262 208.704 160.736C208.283 161.205 207.743 161.569 207.085 161.83C206.427 162.085 205.674 162.213 204.826 162.213Z" fill="white"/>
<path d="M46.9979 67.0031H45.6376C44.5741 67.4968 43.9985 68.289 44 69.5498C44.0106 88.2671 44.0091 106.983 44 125.7C44 126.224 44.1076 126.661 44.5045 126.998H48.1326C48.7643 126.528 48.6279 125.83 48.6325 125.177C48.6386 124.23 48.634 124.228 49.5278 124.228C62.5088 124.228 75.4882 124.228 88.4692 124.228C88.601 124.228 88.7343 124.236 88.8661 124.228C89.2342 124.21 89.3751 124.405 89.3645 124.766C89.3554 125.078 89.3827 125.392 89.3599 125.703C89.3205 126.228 89.4599 126.666 89.8644 127H93.4895C93.947 126.611 93.9894 126.088 93.9894 125.519C93.9833 106.939 93.9788 88.3608 94 69.7826C94.0015 68.4483 93.5334 67.5328 92.3548 67.0031H90.9945C89.8114 67.5265 89.3327 68.4421 89.3448 69.7795C89.3842 74.1323 89.3599 78.4866 89.3599 82.8394C89.3599 83.0144 89.3569 83.1909 89.3584 83.3659C89.3614 83.6799 89.213 83.8315 88.907 83.8299C88.454 83.8268 87.9996 83.8315 87.5466 83.8299C87.0033 83.8299 86.7306 83.5471 86.7286 82.9816C86.7286 78.9788 86.7301 74.9775 86.7256 70.9747C86.7256 70.1294 86.3999 69.7748 85.6091 69.7732C80.8857 69.767 76.1638 69.7685 71.4405 69.7732C70.6421 69.7732 70.3179 70.1232 70.3149 70.9638C70.3073 72.4668 70.3119 73.9698 70.3119 75.4728C70.3119 78.0101 70.2998 80.5489 70.321 83.0862C70.3255 83.6362 70.1816 83.8893 69.6166 83.8362C69.2227 83.7987 68.8243 83.8299 68.4274 83.8284C67.6896 83.8252 67.6775 83.8159 67.6775 83.0269C67.6775 79.0444 67.6775 75.0619 67.676 71.0794C67.676 70.0857 67.3791 69.7701 66.4353 69.7701C61.7877 69.767 57.14 69.767 52.4939 69.7701C51.5744 69.7701 51.2653 70.0888 51.2638 71.0325C51.2593 73.1792 51.2623 75.3275 51.2623 77.4742C51.2623 79.3881 51.2532 81.3004 51.2684 83.2144C51.2714 83.6674 51.1154 83.8581 50.6715 83.8331C50.2564 83.8096 49.8398 83.8299 49.4248 83.8284C48.634 83.8268 48.6325 83.8252 48.6325 83.0112C48.6325 78.5991 48.6067 74.1869 48.6476 69.7748C48.6598 68.4374 48.1811 67.5234 46.9979 67V67.0031ZM69.0545 101.569C64.01 101.569 58.9655 101.569 53.9224 101.569C53.215 101.569 53.1665 101.518 53.1665 100.818C53.1635 98.2413 53.1786 95.6634 53.1559 93.087C53.1514 92.5199 53.3286 92.3433 53.874 92.348C56.7643 92.3699 59.6547 92.359 62.5451 92.359C63.4328 92.359 64.3205 92.3715 65.2083 92.3543C65.6173 92.3465 65.8006 92.5043 65.7809 92.937C65.7627 93.3464 65.7657 93.7573 65.7854 94.1666C65.8127 94.7541 66.1399 95.1447 66.7004 95.1541C68.2304 95.179 69.7605 95.179 71.2905 95.1541C71.8525 95.1447 72.1797 94.7572 72.2085 94.1698C72.2267 93.7995 72.2403 93.4261 72.2085 93.0573C72.1631 92.5152 72.3751 92.3465 72.8932 92.348C76.6335 92.3652 80.3752 92.3668 84.1154 92.348C84.6562 92.3449 84.8426 92.5121 84.8365 93.0839C84.8123 95.6025 84.8259 98.121 84.8259 100.64C84.8259 101.259 84.5179 101.57 83.9018 101.572C78.9527 101.572 74.0021 101.572 69.053 101.572L69.0545 101.569ZM68.9955 106.416C74.343 106.416 79.692 106.416 85.0395 106.416C86.2862 106.416 87.5345 106.422 88.7812 106.413C89.1372 106.409 89.3614 106.498 89.3599 106.93C89.3554 110.893 89.3554 114.859 89.3599 118.823C89.3599 119.227 89.1797 119.385 88.807 119.379C88.3541 119.371 87.8981 119.357 87.4466 119.385C86.9164 119.418 86.7104 119.219 86.7165 118.644C86.7407 116.282 86.7271 113.918 86.7256 111.556C86.7256 110.312 86.4983 110.072 85.3152 110.072C80.1752 110.072 75.0353 110.072 69.8938 110.072C68.7319 110.072 68.491 110.317 68.491 111.503C68.4895 113.846 68.491 116.19 68.491 118.533C68.491 119.352 68.4668 119.376 67.6518 119.379C67.3109 119.38 66.9716 119.382 66.6307 119.379C65.9036 119.371 65.8627 119.332 65.8627 118.579C65.8627 115.298 65.8627 112.017 65.8627 108.736C65.8627 107.508 65.6052 107.214 64.3978 107.211C60.5046 107.198 56.6113 107.198 52.7181 107.211C51.5138 107.216 51.2593 107.508 51.2593 108.742C51.2593 112.023 51.2593 115.304 51.2593 118.585C51.2593 119.333 51.2184 119.372 50.4852 119.379C50.1262 119.382 49.7671 119.382 49.4081 119.379C48.6704 119.372 48.631 119.335 48.631 118.587C48.631 114.818 48.631 111.048 48.631 107.28C48.631 106.704 48.9178 106.415 49.4914 106.414C55.9918 106.414 62.4936 106.414 68.9939 106.414L68.9955 106.416ZM78.5528 83.8315C76.6441 83.8315 74.7368 83.8268 72.8281 83.8346C72.4569 83.8362 72.21 83.7674 72.2115 83.2972C72.2191 79.6271 72.2176 75.9571 72.2115 72.2871C72.2115 71.9262 72.3358 71.7387 72.7039 71.7418C73.5537 71.7481 74.4036 71.7481 75.2549 71.7418C75.617 71.7387 75.7669 71.909 75.7563 72.2777C75.7442 72.7074 75.7457 73.137 75.7609 73.5667C75.7806 74.1354 76.0699 74.501 76.6183 74.5478C77.8802 74.6572 79.1466 74.6588 80.4085 74.5478C80.9872 74.4963 81.2584 74.1369 81.2796 73.5214C81.2932 73.112 81.2978 72.7011 81.2826 72.2918C81.2675 71.884 81.4492 71.734 81.828 71.7403C82.6218 71.7512 83.4156 71.7621 84.2078 71.7356C84.682 71.7199 84.8305 71.9199 84.8289 72.3949C84.8168 75.9868 84.8153 79.5787 84.8289 83.1706C84.8305 83.6909 84.6426 83.844 84.1594 83.8393C82.29 83.819 80.4191 83.8315 78.5483 83.8315H78.5528ZM59.4714 83.8315C57.5824 83.8315 55.6933 83.8252 53.8028 83.8362C53.4043 83.8377 53.1574 83.7643 53.1589 83.2659C53.1695 79.6146 53.168 75.9634 53.1605 72.3136C53.1605 71.9215 53.2953 71.7371 53.6876 71.7418C54.5193 71.7528 55.351 71.7528 56.1811 71.7418C56.575 71.7371 56.7204 71.9246 56.7068 72.3152C56.6916 72.7449 56.6931 73.1745 56.7128 73.6026C56.7386 74.1432 57.0249 74.4979 57.546 74.5447C58.8276 74.6603 60.1122 74.6603 61.3938 74.5447C61.9149 74.4979 62.2012 74.1463 62.227 73.6042C62.2452 73.2151 62.2618 72.8214 62.23 72.434C62.1846 71.8793 62.4209 71.7137 62.9269 71.7356C63.6434 71.7668 64.3645 71.7715 65.0795 71.7356C65.637 71.7059 65.7885 71.9356 65.7854 72.4886C65.7657 76.0227 65.7763 79.5568 65.7748 83.0894C65.7748 83.8096 65.7506 83.8315 65.025 83.8315C63.1738 83.8331 61.3241 83.8315 59.4714 83.8315ZM68.9697 88.6092C75.5276 88.6092 82.0855 88.6139 88.6434 88.5999C89.1797 88.5999 89.3781 88.7546 89.3705 89.3311C89.3433 91.284 89.3599 93.237 89.3599 95.19C89.3599 97.0445 89.3599 98.9006 89.3599 100.755C89.3599 101.521 89.319 101.561 88.604 101.569C88.2268 101.574 87.8481 101.574 87.4694 101.569C86.774 101.561 86.7301 101.518 86.7301 100.799C86.7286 97.7913 86.7301 94.7838 86.7301 91.7762C86.7301 90.6747 86.4665 90.3904 85.4091 90.3388C85.2576 90.331 85.1062 90.331 84.9562 90.331C74.3157 90.331 63.6767 90.331 53.0362 90.3326C52.7166 90.3326 52.3924 90.3466 52.0758 90.3966C51.5835 90.4747 51.3138 90.7981 51.2729 91.3106C51.2578 91.5043 51.2638 91.7012 51.2638 91.8965C51.2638 94.865 51.2638 97.8335 51.2638 100.802C51.2638 101.516 51.2184 101.56 50.52 101.568C50.161 101.572 49.802 101.571 49.4429 101.568C48.6688 101.563 48.6355 101.53 48.6355 100.749C48.6355 96.9805 48.6355 93.2105 48.6355 89.442C48.6355 88.8879 48.9132 88.6103 49.4687 88.6092C55.9705 88.6092 62.4709 88.6092 68.9727 88.6092H68.9697ZM58.5928 119.38C57.0052 119.38 55.4191 119.377 53.8315 119.382C53.4559 119.382 53.1605 119.338 53.162 118.827C53.1711 115.801 53.168 112.775 53.162 109.748C53.162 109.372 53.3225 109.222 53.6785 109.228C54.2269 109.239 54.7738 109.236 55.3222 109.23C55.657 109.226 55.8024 109.39 55.7963 109.731C55.7903 110.14 55.7888 110.551 55.8009 110.961C55.8206 111.661 56.1448 112.026 56.8052 112.036C57.9762 112.053 59.1488 112.053 60.3198 112.036C60.9802 112.026 61.3044 111.661 61.3256 110.962C61.3362 110.572 61.3408 110.181 61.3256 109.79C61.3105 109.395 61.4665 109.215 61.8589 109.226C62.3497 109.242 62.842 109.25 63.3328 109.223C63.7919 109.198 63.9721 109.372 63.9691 109.862C63.9539 112.81 63.9539 115.759 63.9691 118.707C63.9721 119.227 63.7706 119.39 63.2965 119.385C61.7286 119.369 60.1607 119.38 58.5928 119.38ZM77.6121 119.38C75.4397 119.38 73.2674 119.377 71.0951 119.382C70.6967 119.382 70.3922 119.34 70.3952 118.796C70.4103 116.727 70.4043 114.657 70.3982 112.589C70.3982 112.232 70.5134 112.039 70.8875 112.042C72.0404 112.05 73.1917 112.05 74.3445 112.042C74.7065 112.039 74.8595 112.204 74.8504 112.573C74.8414 113.003 74.8368 113.432 74.8565 113.86C74.8823 114.456 75.2095 114.831 75.7715 114.842C76.9985 114.865 78.2271 114.865 79.4542 114.842C80.0177 114.831 80.3449 114.456 80.3722 113.864C80.3904 113.474 80.3979 113.082 80.3752 112.693C80.3464 112.217 80.5191 112.025 80.9948 112.036C82.0325 112.061 83.0732 112.068 84.1109 112.032C84.6517 112.014 84.8441 112.192 84.8365 112.765C84.8092 114.717 84.8274 116.67 84.8259 118.621C84.8259 119.326 84.7759 119.377 84.0745 119.379C81.9219 119.382 79.7677 119.379 77.6151 119.379L77.6121 119.38ZM46.7283 97.1195C46.7283 106.103 46.7283 115.085 46.7283 124.069C46.7283 124.264 46.7283 124.46 46.7253 124.655C46.7222 124.944 46.5813 125.081 46.2996 125.074C46.039 125.067 45.9254 124.92 45.9178 124.667C45.9133 124.511 45.9133 124.355 45.9133 124.199C45.9133 106.134 45.9133 88.0718 45.9133 70.0076C45.9133 69.8326 45.9057 69.6545 45.9239 69.4811C45.9496 69.2342 46.0345 68.9967 46.3163 68.992C46.5965 68.9889 46.6965 69.2155 46.7177 69.467C46.7359 69.681 46.7283 69.8966 46.7283 70.1107C46.7283 79.1131 46.7283 88.1171 46.7283 97.1195ZM91.2656 97.1195C91.2656 88.0984 91.2656 79.0787 91.2656 70.0576C91.2656 69.8232 91.2611 69.5873 91.2959 69.3576C91.3262 69.1545 91.4489 68.9873 91.6731 68.9889C91.8989 68.9889 92.0185 69.1592 92.0458 69.3623C92.0806 69.6123 92.0791 69.867 92.0791 70.1201C92.064 81.327 92.0428 92.5339 92.0307 103.741C92.0231 110.554 92.0276 117.37 92.0155 124.183C92.0155 124.511 92.1897 125.05 91.6322 125.047C91.0551 125.044 91.2747 124.496 91.2747 124.178C91.2626 115.157 91.2656 106.138 91.2656 97.1164V97.1195ZM68.9939 86.6438C62.5148 86.6438 56.0357 86.6438 49.5581 86.6438C49.3884 86.6438 49.2188 86.6438 49.0476 86.6407C48.7688 86.6375 48.631 86.4954 48.637 86.2047C48.6431 85.9423 48.7719 85.811 49.0233 85.8032C49.1551 85.8001 49.2884 85.7985 49.4202 85.7985C62.4724 85.7985 75.5246 85.7985 88.5767 85.7985C88.6904 85.7985 88.804 85.8017 88.9161 85.8001C89.1827 85.7985 89.3508 85.9063 89.3554 86.2079C89.3599 86.5016 89.219 86.6391 88.9418 86.6407C88.7722 86.6407 88.6025 86.6438 88.4313 86.6438C81.9522 86.6438 75.4715 86.6438 68.9939 86.6438ZM68.9939 103.603C75.4731 103.603 81.9522 103.603 88.4313 103.603C88.6207 103.603 88.8085 103.603 88.9979 103.611C89.2221 103.621 89.3493 103.744 89.3493 103.98C89.3493 104.211 89.2266 104.344 89.0039 104.363C88.8161 104.378 88.6267 104.381 88.4374 104.381C85.3955 104.381 82.3551 104.381 79.3133 104.381C69.3393 104.381 59.3654 104.381 49.3914 104.377C49.0945 104.377 48.6582 104.492 48.6537 103.986C48.6492 103.458 49.096 103.646 49.3839 103.605C49.4581 103.594 49.5354 103.603 49.6096 103.603C56.0705 103.603 62.53 103.603 68.9909 103.603H68.9939ZM68.997 121.415C75.4579 121.415 81.9173 121.415 88.3783 121.415C88.5677 121.415 88.7555 121.414 88.9449 121.418C89.1857 121.421 89.3524 121.521 89.3493 121.794C89.3463 122.061 89.1827 122.169 88.9433 122.182C88.8115 122.188 88.6798 122.191 88.5464 122.191C75.5125 122.191 62.4785 122.191 49.4445 122.185C49.1385 122.185 48.6582 122.339 48.6582 121.793C48.6582 121.232 49.1475 121.421 49.4445 121.419C55.9615 121.41 62.4785 121.411 68.9955 121.411L68.997 121.415ZM69.0136 93.1292V93.1261C68.694 93.1261 68.3728 93.137 68.0532 93.123C67.8063 93.112 67.6775 92.9589 67.6927 92.698C67.7078 92.4543 67.8608 92.3636 68.0744 92.3621C68.6773 92.359 69.2803 92.359 69.8847 92.3605C70.118 92.3605 70.2967 92.4449 70.3028 92.723C70.3089 92.9886 70.1589 93.1183 69.918 93.1277C69.6166 93.1386 69.3151 93.1292 69.0136 93.1292ZM78.5528 72.5793V72.5824C78.4028 72.5824 78.2529 72.5824 78.1029 72.5824C77.8423 72.5824 77.6696 72.4855 77.6621 72.1824C77.6545 71.8902 77.7969 71.7512 78.068 71.7481C78.3862 71.7434 78.7043 71.7403 79.0224 71.7543C79.2739 71.7653 79.383 71.9199 79.3784 72.1762C79.3739 72.4371 79.2496 72.5699 79.0012 72.5777C78.8512 72.5824 78.7013 72.5777 78.5513 72.5777L78.5528 72.5793ZM59.4729 71.7434C59.585 71.7434 59.6971 71.7434 59.8092 71.7434C60.1001 71.7403 60.3395 71.7965 60.3288 72.1793C60.3198 72.5214 60.1062 72.5871 59.8335 72.5839C59.6093 72.5808 59.3836 72.5839 59.1594 72.5839C58.8806 72.5855 58.6201 72.5668 58.6125 72.1777C58.6049 71.7949 58.8458 71.7403 59.1351 71.7434C59.2472 71.7434 59.3608 71.7434 59.4729 71.7434ZM58.514 109.237V109.233C58.664 109.233 58.814 109.234 58.9639 109.233C59.2533 109.228 59.4305 109.34 59.423 109.672C59.4169 109.978 59.2351 110.069 58.9791 110.07C58.6792 110.07 58.3792 110.075 58.0808 110.065C57.8354 110.058 57.7066 109.923 57.7051 109.661C57.7051 109.406 57.8096 109.253 58.0641 109.24C58.2141 109.233 58.3641 109.24 58.514 109.24V109.237ZM77.6257 112.882C77.4636 112.882 77.3515 112.882 77.2394 112.882C76.9652 112.882 76.7577 112.809 76.7562 112.467C76.7562 112.128 76.9516 112.04 77.2318 112.045C77.3439 112.046 77.4606 112.025 77.5681 112.046C77.9029 112.117 78.474 111.804 78.4559 112.487C78.4392 113.12 77.8878 112.782 77.6257 112.882Z" fill="white"/>
<path d="M105.78 82.4252C105.586 82.4777 105.389 82.4893 105.189 82.4893C97.6779 82.4877 90.1663 82.4877 82.6555 82.4877C82.5931 82.4877 82.5307 82.4843 82.4684 82.4877C82.1258 82.5101 82.0243 82.6108 82.0018 82.9546C81.9977 83.017 82.0018 83.0794 82.0018 83.1419V100.774C82.0018 100.836 81.9985 100.898 82.0018 100.961C82.0243 101.304 82.1249 101.405 82.4684 101.428C82.5307 101.432 82.5931 101.428 82.6555 101.428H96.8006" fill="white"/>
<path d="M105.78 82.4252C105.586 82.4777 105.389 82.4893 105.189 82.4893C97.6779 82.4877 90.1663 82.4877 82.6555 82.4877C82.5931 82.4877 82.5307 82.4843 82.4684 82.4877C82.1258 82.5101 82.0243 82.6108 82.0018 82.9546C81.9977 83.017 82.0018 83.0794 82.0018 83.1419V100.774C82.0018 100.836 81.9985 100.898 82.0018 100.961C82.0243 101.304 82.1249 101.405 82.4684 101.428C82.5307 101.432 82.5931 101.428 82.6555 101.428H96.8006" stroke="black" stroke-linecap="round" stroke-linejoin="round"/>
<path d="M97.0379 99.527C96.82 99.4937 96.6113 99.4296 96.3843 99.4263C96.0475 99.4213 95.9527 99.2898 95.9494 98.9044C95.9444 98.271 95.9485 97.6377 95.9485 97.0043C95.9485 96.3401 95.9394 95.6751 95.9519 95.0109C95.961 94.529 96.0275 94.4682 96.509 94.4524C96.83 94.4416 97.1527 94.4407 97.4737 94.4524C97.8171 94.4649 97.926 94.5739 97.9377 94.9176C97.9493 95.2597 97.9493 95.6035 97.9377 95.9456C97.9285 96.2011 97.9701 96.4433 98.1007 96.6597C98.1647 96.7654 98.2005 96.8644 98.1564 96.9726C98.02 97.3114 97.9859 97.6876 97.7838 98.0005C97.4811 98.4691 97.4312 99.0576 97.0678 99.4954C97.0013 99.5753 97.0737 99.6419 97.0695 99.7143C97.0379 100.259 97.0346 100.81 96.8467 101.332C96.8309 101.376 96.8101 101.422 96.8225 101.458C97.0978 102.225 97.0246 103.07 97.3481 103.827C97.4579 104.084 97.5111 104.378 97.6699 104.598C97.9485 104.985 98.1348 105.418 98.3834 105.815C98.657 106.252 99.0154 106.632 99.4054 106.97C100.546 107.956 101.839 108.607 103.355 108.817C105.513 109.117 107.413 108.553 109.116 107.225C109.573 106.869 109.952 106.44 110.323 106.004C110.519 105.773 110.671 105.505 110.734 105.198C110.74 105.167 110.714 105.141 110.76 105.099C111.399 104.517 111.566 103.707 111.719 102.921C112.252 100.179 111.433 97.8541 109.455 95.9156C109.308 95.7716 109.148 95.6401 108.989 95.5111C108.853 95.4021 108.808 95.2356 108.708 95.1033C108.835 94.8719 108.9 94.6288 108.9 94.3575C108.896 92.3569 108.939 88.0724 108.824 85.3112C108.035 84.9168 105.273 83.6229 105.273 82.55" fill="white"/>
<path d="M97.0379 99.527C96.82 99.4937 96.6113 99.4296 96.3843 99.4263C96.0475 99.4213 95.9527 99.2898 95.9494 98.9044C95.9444 98.271 95.9485 97.6377 95.9485 97.0043C95.9485 96.3401 95.9394 95.6751 95.9519 95.0109C95.961 94.529 96.0275 94.4682 96.509 94.4524C96.83 94.4416 97.1527 94.4407 97.4737 94.4524C97.8171 94.4649 97.926 94.5739 97.9377 94.9176C97.9493 95.2597 97.9493 95.6035 97.9377 95.9456C97.9285 96.2011 97.9701 96.4433 98.1007 96.6597C98.1647 96.7654 98.2005 96.8644 98.1564 96.9726C98.02 97.3114 97.9859 97.6876 97.7838 98.0005C97.4811 98.4691 97.4312 99.0576 97.0678 99.4954C97.0013 99.5753 97.0737 99.6419 97.0695 99.7143C97.0379 100.259 97.0346 100.81 96.8467 101.332C96.8309 101.376 96.8101 101.422 96.8225 101.458C97.0978 102.225 97.0246 103.07 97.3481 103.827C97.4579 104.084 97.5111 104.378 97.6699 104.598C97.9485 104.985 98.1348 105.418 98.3834 105.815C98.657 106.252 99.0154 106.632 99.4054 106.97C100.546 107.956 101.839 108.607 103.355 108.817C105.513 109.117 107.413 108.553 109.116 107.225C109.573 106.869 109.952 106.44 110.323 106.004C110.519 105.773 110.671 105.505 110.734 105.198C110.74 105.167 110.714 105.141 110.76 105.099C111.399 104.517 111.566 103.707 111.719 102.921C112.252 100.179 111.433 97.8541 109.455 95.9156C109.308 95.7716 109.148 95.6401 108.989 95.5111C108.853 95.4021 108.808 95.2356 108.708 95.1033C108.835 94.8719 108.9 94.6288 108.9 94.3575C108.896 92.3569 108.939 88.0724 108.824 85.3112M108.824 85.3112C108.035 84.9168 105.273 83.6229 105.273 82.55L108.824 85.3112Z" stroke="black" stroke-linecap="round" stroke-linejoin="round"/>
<path d="M106.716 84.1997C106.799 84.2305 106.895 84.2447 106.963 84.2963C107.501 84.7024 108.128 84.8897 108.77 85.0429C108.814 85.0537 108.861 85.1094 108.894 85.1003C109.863 84.8231 110.851 84.5593 111.413 83.6071C112.029 82.5625 112.08 81.4805 111.439 80.436C110.824 79.4339 109.883 78.9345 108.708 79.0069C107.124 79.1043 105.952 80.386 105.907 81.9267C105.907 81.9366 105.909 81.9483 105.907 81.9575C105.733 82.6375 106.165 83.1302 106.44 83.6687C106.525 83.8343 106.647 83.98 106.695 84.1906L103.199 87.6896" fill="white"/>
<path d="M106.716 84.1997C106.799 84.2305 106.895 84.2447 106.963 84.2963C107.501 84.7024 108.128 84.8897 108.77 85.0429C108.814 85.0537 108.861 85.1094 108.894 85.1003C109.863 84.8231 110.851 84.5593 111.413 83.6071C112.029 82.5625 112.08 81.4805 111.439 80.436C110.824 79.4339 109.883 78.9345 108.708 79.0069C107.124 79.1043 105.952 80.386 105.907 81.9267C105.907 81.9366 105.909 81.9483 105.907 81.9575C105.733 82.6375 106.165 83.1302 106.44 83.6687C106.525 83.8343 106.647 83.98 106.695 84.1906L103.199 87.6896" stroke="black" stroke-linecap="round" stroke-linejoin="round"/>
<path d="M104.414 96.8166C104.148 96.9423 103.858 96.9839 103.573 97.0322C101.807 97.3318 100.323 98.8391 100.017 100.584C99.8532 101.522 100.01 102.383 100.317 103.271C100.582 104.039 101.16 104.485 101.712 104.972C102.239 105.437 102.877 105.698 103.574 105.821C105.376 106.139 106.809 105.531 107.973 104.145C108.234 103.834 108.413 103.518 108.564 103.144C109.518 100.786 108.349 98.2124 106.127 97.2827C105.765 97.1312 105.39 97.0305 105.005 96.9789C104.806 96.9523 104.624 96.8965 104.445 96.8166" stroke="black" stroke-linecap="round" stroke-linejoin="round"/>
<path d="M108.675 95.104C108.38 95.0666 108.127 94.9359 107.862 94.8011C107.024 94.3733 106.137 94.0903 105.19 94.0062C104.939 93.9837 104.702 93.9272 104.473 94.0745C104.45 94.0886 104.407 94.0861 104.381 94.0745C103.82 93.8214 103.269 94.0453 102.734 94.151C101.91 94.3133 101.14 94.6538 100.43 95.1074C99.8315 95.4902 99.2902 95.9488 98.812 96.4765C98.6399 96.6663 98.4403 96.7853 98.1875 96.8178" stroke="black" stroke-linecap="round" stroke-linejoin="round"/>
<path d="M91.964 84.4807H85.9883" stroke="black" stroke-linecap="round" stroke-linejoin="round"/>
<path d="M91.964 86.4745H85.9883" stroke="black" stroke-linecap="round" stroke-linejoin="round"/>
<path d="M91.964 88.4684H85.9883" stroke="black" stroke-linecap="round" stroke-linejoin="round"/>
<path d="M91.964 90.4622H85.9883" stroke="black" stroke-linecap="round" stroke-linejoin="round"/>
<path d="M95.6961 89.1857C95.5298 89.1233 95.3676 89.05 95.1972 89.0009C94.7606 88.8761 94.3107 89.08 94.077 89.497C93.8566 89.8915 93.9298 90.3568 94.2641 90.6805C94.5818 90.9885 95.035 91.0493 95.4159 90.8362C95.8325 90.6031 96.0362 90.152 95.9115 89.7151C95.8632 89.5453 95.7892 89.3821 95.7269 89.2157" stroke="black" stroke-linecap="round" stroke-linejoin="round"/>
<path d="M100.209 86.2569C100.261 86.1113 100.315 85.9673 100.365 85.8208C100.521 85.3597 100.389 84.9552 99.9913 84.6681C99.6395 84.4142 99.2221 84.4142 98.8712 84.6681C98.4737 84.9552 98.3315 85.363 98.5036 85.8183C98.5651 85.9798 98.5244 86.207 98.7464 86.2877C99.0483 86.3968 99.3443 86.5508 99.6795 86.4426C99.8483 86.3885 100.012 86.3194 100.178 86.2569" stroke="black" stroke-linecap="round" stroke-linejoin="round"/>
<path d="M101.641 87.7208C101.579 87.8873 101.506 88.0496 101.457 88.2202C101.342 88.6172 101.5 89.02 101.859 89.2789C102.211 89.5328 102.629 89.5328 102.979 89.2789C103.338 89.02 103.492 88.6189 103.384 88.2194C103.222 87.6176 102.677 87.3313 102.077 87.5352C101.941 87.5818 101.807 87.6384 101.672 87.69" stroke="black" stroke-linecap="round" stroke-linejoin="round"/>
<path d="M98.6232 86.2881C97.6586 87.2536 96.694 88.2191 95.7285 89.1854" stroke="black" stroke-linecap="round" stroke-linejoin="round"/>
<path d="M104.412 94.1063V96.8005" stroke="black" stroke-linecap="round" stroke-linejoin="round"/>
<path d="M108.426 103.732C109.166 104.218 109.978 104.582 110.698 105.103" stroke="black" stroke-linecap="round" stroke-linejoin="round"/>
<path d="M100.399 103.732C99.6604 104.22 98.8454 104.582 98.127 105.103" stroke="black" stroke-linecap="round" stroke-linejoin="round"/>
<path d="M84.4006 95.4459C84.0355 95.5541 83.9989 95.5932 83.9973 95.9752C83.9931 96.9515 83.9757 97.9279 84.0048 98.9033C84.0189 99.3927 84.0364 99.3852 84.5262 99.4277C84.8555 99.4568 85.1898 99.4418 85.5216 99.431C85.8558 99.4194 85.9806 99.3178 85.9839 98.9974C85.9956 97.9595 85.9964 96.9207 85.9839 95.882C85.9798 95.5541 85.8484 95.455 85.4908 95.4475C85.1382 95.4401 84.7856 95.4459 84.433 95.4459" stroke="black" stroke-linecap="round" stroke-linejoin="round"/>
<path d="M88.3826 96.4428C88.0176 96.551 87.9818 96.5901 87.9793 96.9721C87.9751 97.6155 87.9544 98.2606 87.986 98.9031C88.0101 99.3925 88.0184 99.385 88.5074 99.4275C88.8367 99.4566 89.171 99.4416 89.5028 99.4308C89.837 99.4191 89.9585 99.3176 89.9651 98.9971C89.9792 98.2913 89.9801 97.5847 89.9651 96.8789C89.9585 96.551 89.8296 96.4519 89.472 96.4444C89.1194 96.4369 88.7668 96.4428 88.4142 96.4428" stroke="black" stroke-linecap="round" stroke-linejoin="round"/>
<path d="M104.163 98.9348C103.644 99.0246 103.157 99.2003 102.764 99.5598C101.33 100.877 101.854 103.018 103.413 103.706C104.738 104.292 106.445 103.608 106.837 101.987C107.202 100.47 106.034 98.8374 104.194 98.9348" stroke="black" stroke-linecap="round" stroke-linejoin="round"/>
<path d="M92.3673 92.4561C92.0023 92.5643 91.9648 92.6034 91.964 92.9854C91.9615 94.958 91.9507 96.9314 91.9715 98.904C91.9765 99.3926 92.0031 99.3859 92.4921 99.4284C92.8214 99.4575 93.1557 99.4433 93.4875 99.4317C93.8309 99.4192 93.9315 99.3102 93.954 98.9673C93.9581 98.9048 93.954 98.8424 93.954 98.78C93.954 96.8798 93.954 94.9796 93.954 93.0795C93.954 92.5393 93.8717 92.4594 93.332 92.4569C93.021 92.4552 92.7091 92.4569 92.3981 92.4569" stroke="black" stroke-linecap="round" stroke-linejoin="round"/>
<defs>
<linearGradient id="paint0_linear_29_7127" x1="-43.9489" y1="57.0267" x2="280.158" y2="183.804" gradientUnits="userSpaceOnUse">
<stop stop-color="#56B8EB"/>
<stop offset="1" stop-color="#65D9CF"/>
</linearGradient>
</defs>
</svg>
