<svg width="201" height="42" viewBox="0 0 201 42" fill="none" xmlns="http://www.w3.org/2000/svg">
<path d="M52.9359 36.2807H51.2385V39.9547H49.0576V30.4866H53.5178C55.3761 30.4866 56.7147 31.4855 56.7147 33.2476C56.7147 34.4926 56.0212 35.3676 54.9801 35.7876L56.9871 39.9547H54.5962L52.9359 36.2807ZM51.2385 34.6286H53.2706C53.952 34.6286 54.5218 34.2336 54.5218 33.3956C54.5218 32.5576 53.952 32.1626 53.2706 32.1626H51.2385V34.6286Z" fill="white"/>
<path d="M58.5981 39.9547V30.4866H65.2513V32.1636H60.766V34.3456H64.6563V36.0097H60.766V38.2777H65.3377V39.9547H58.5981Z" fill="white"/>
<path d="M69.9468 39.9547V32.1885H66.9238V30.4875H75.1498V32.1885H72.1267V39.9547H69.9458H69.9468Z" fill="white"/>
<path d="M80.9735 37.8837H77.2691L76.5626 39.9547H74.3696L77.8389 30.4866H80.465L83.9463 39.9547H81.679L80.9725 37.8837H80.9735ZM80.4157 36.2437L79.1394 32.4585H79.1143L77.8258 36.2437H80.4147H80.4157Z" fill="white"/>
<path d="M85.1743 39.9547V30.4866H87.3552V39.9547H85.1743Z" fill="white"/>
<path d="M89.3862 30.4876H91.567V38.2537H96.002V39.9547H89.3862V30.4866V30.4876Z" fill="white"/>
<path d="M102.446 29.2216H104.118V41.6107H102.446V29.2216Z" fill="white"/>
<path d="M110.833 35.2455C110.833 32.4715 112.494 30.3514 115.48 30.3514C117.214 30.3514 118.49 31.0915 119.295 32.3855L117.721 33.4085C117.226 32.4964 116.533 32.0154 115.554 32.0154C113.831 32.0154 113.038 33.4825 113.038 35.2205C113.038 36.9585 113.82 38.4255 115.591 38.4255C116.57 38.4255 117.276 37.9446 117.772 37.0815L119.333 38.0555C118.514 39.3256 117.288 40.0896 115.492 40.0896C112.506 40.0896 110.834 38.0436 110.834 35.2445L110.833 35.2455Z" fill="white"/>
<path d="M125.353 30.4875C127.274 30.4875 128.846 31.6095 128.846 33.6186C128.846 35.6276 127.31 36.8116 125.316 36.8116H123.209V39.9557H121.028V30.4875H125.352H125.353ZM125.143 35.1346C125.961 35.1346 126.642 34.6786 126.642 33.6556C126.642 32.6325 125.961 32.1636 125.143 32.1636H123.21V35.1346H125.143Z" fill="white"/>
<path d="M139.18 34.7155V39.9546H137.273L137.223 38.9806H137.199C136.715 39.5846 135.947 40.0906 134.622 40.0906C131.797 40.0906 130.322 37.9456 130.322 35.2945C130.322 32.6435 131.995 30.3514 135.129 30.3514C136.913 30.3514 138.201 31.0665 139.045 32.2625L137.496 33.3345C136.927 32.4715 136.208 32.0154 135.191 32.0154C133.42 32.0154 132.529 33.4335 132.529 35.2575C132.529 37.0815 133.346 38.4376 135.056 38.4376C136.232 38.4376 137.1 37.7476 137.1 36.5145V36.3545H135.105V34.7145H139.181L139.18 34.7155Z" fill="white"/>
<path d="M6.22348 0.0250005C4.97527 0.171003 3.70395 0.761013 2.43362 1.78303L2.41352 1.79903L2.38739 1.79503C2.22257 1.76803 2.0879 1.76803 1.91705 1.76803C0.808531 1.84903 -0.0527564 2.82905 0.00251877 3.95307C0.083924 5.06109 1.07084 5.9191 2.19745 5.86311C3.12406 5.8111 3.92002 5.09809 4.08987 4.17007L4.09389 4.15108L4.10795 4.13807C4.91799 3.40306 5.74711 3.04205 6.63253 3.04205C6.73504 3.04205 6.83955 3.04706 6.94408 3.05705C8.13099 3.19406 9.38724 3.95307 10.7882 5.3761C12.165 6.77511 13.57 8.66115 14.8836 10.4902L16.8092 13.2033C17.6212 14.3463 18.4604 15.5283 19.3106 16.6353C20.0624 17.5763 21.0684 18.7654 22.1759 19.5993C23.3528 20.4854 24.5025 20.8304 25.6864 20.6543L26.0663 20.5874L25.8492 20.3283C23.6121 17.9894 21.8051 15.3313 20.4855 13.3902L18.2323 10.1332C16.6273 7.82513 15.1108 5.6451 13.5238 3.91007C11.1591 1.26702 9.05759 0.0250005 6.9099 0C6.58026 0 6.35011 0.00900016 6.22348 0.0250005Z" fill="#A933FB"/>
<path d="M4.17519 11.5082L4.17318 11.5282C4.08976 12.5552 3.28174 13.3592 2.25362 13.4392C2.21946 13.4412 2.18528 13.4412 2.15111 13.4412C1.06571 13.4412 0.13709 12.6022 0.0576945 11.5292C0.00241931 10.4051 0.863707 9.42512 1.97423 9.34412H2.13905L5.48571 5.93208C5.97214 5.43406 6.6465 5.15406 7.33894 5.17806C8.01229 5.19607 8.62535 5.48207 9.06554 5.98308L9.17909 6.14108L4.17519 11.5072V11.5082Z" fill="#1EACFC"/>
<path d="M2.15805 16.7564L2.11483 16.7544C0.981184 16.7544 0.0585938 17.6723 0.0585938 18.8014C0.0585938 19.9304 0.981184 20.8484 2.11583 20.8484C2.2103 20.8484 2.30076 20.8354 2.39523 20.8214L2.43542 20.8154C3.38214 20.6674 4.08966 19.9014 4.158 18.9464V18.9264L12.6473 9.78718L10.8001 7.57617L2.15805 16.7564Z" fill="#FFB600"/>
<path d="M33.1508 22.1154C34.7196 21.9404 36.2673 21.0834 37.8953 19.4904L37.9125 19.4743H38.1617C39.2682 19.3913 40.1044 18.4123 40.022 17.2913C39.9406 16.1823 38.9527 15.3223 37.826 15.3802C36.7868 15.4622 35.9909 16.2653 35.9346 17.2903V17.3103L35.9206 17.3253C34.7698 18.6303 33.6171 19.2053 32.402 19.0843C31.2161 18.9473 29.9589 18.1883 28.5589 16.7653C27.181 15.3653 25.7761 13.4792 24.4635 11.6502L22.5319 8.92915C21.7218 7.78913 20.8847 6.60911 20.0364 5.50509C19.2837 4.56407 18.2777 3.37505 17.1702 2.54105C15.9934 1.65502 14.8446 1.31002 13.6598 1.48602L13.2969 1.52902L13.5512 1.78203C15.7893 4.12107 17.5973 6.78112 18.9169 8.72215L20.7781 11.4162C22.6635 14.1992 24.2474 16.4223 25.8504 18.2303C28.2142 20.8724 30.3156 22.1144 32.4644 22.1394C32.804 22.1394 32.9849 22.1304 33.1508 22.1144V22.1154Z" fill="#0074E8"/>
<path d="M37.9968 12.3172H38.1054C38.6591 12.2912 39.1636 12.0542 39.5234 11.6503C39.8842 11.2453 40.0611 10.7173 40.0219 10.1622C39.9425 9.08718 39.0138 8.24817 37.9285 8.24817C37.8943 8.24817 37.8612 8.24817 37.8269 8.25016C36.7707 8.33116 35.9627 9.15821 35.9064 10.2162V10.2382L30.2261 16.3033L30.3367 16.4353C30.7799 16.9413 31.403 17.2283 32.0904 17.2423C32.1075 17.2423 32.1245 17.2423 32.1407 17.2423C32.814 17.2423 33.4592 16.9694 33.9155 16.4883L37.9948 12.3162L37.9968 12.3172Z" fill="#FB24A9"/>
<path d="M26.7315 12.6302L28.6028 14.8453L38.1633 4.68706L38.1835 4.68506C39.296 4.57405 40.103 3.61504 40.0216 2.50102C39.9402 1.393 38.9543 0.529984 37.8257 0.589985C36.695 0.671986 35.8509 1.62 35.9061 2.74702V2.77102L26.7305 12.6302H26.7315Z" fill="#FF8500"/>
<path d="M48.3443 18.4794L50.5905 16.0603C52.0709 17.6123 54.1321 18.5063 56.4315 18.5063C59.2596 18.5063 60.528 17.4023 60.528 15.6923C60.528 13.8253 58.7572 13.3253 55.718 12.6152C52.3352 11.8002 49.0579 10.6432 49.0579 6.72413C49.0579 3.22707 51.7542 0.702026 56.5642 0.702026C59.7099 0.702026 62.1148 1.72805 63.938 3.51607L61.8495 5.96212C60.4485 4.54209 58.6778 3.67408 56.5109 3.67408C54.0527 3.67408 52.8367 4.83109 52.8367 6.35612C52.8367 8.19716 54.5281 8.59116 57.5149 9.32821C61.0827 10.2222 64.2806 11.3272 64.2806 15.3243C64.2806 18.9533 61.4796 21.4784 56.4044 21.4784C52.9161 21.4784 50.2991 20.4264 48.3433 18.4804L48.3443 18.4794Z" fill="#35224A"/>
<path d="M78.1365 7.06616L72.3487 22.1354C71.2392 25.0284 69.9176 26.2905 67.3005 26.2905C66.4543 26.2905 65.8202 26.1595 65.3448 26.0015V23.4245C65.6885 23.5035 66.0855 23.5825 66.587 23.5825C67.8553 23.5825 68.596 23.1094 69.0975 21.5314L63.5479 7.06716H67.3277L70.8954 17.5073H70.9487L74.5165 7.06716H78.1375L78.1365 7.06616Z" fill="#35224A"/>
<path d="M82.9454 8.95915C83.8439 7.56514 85.2186 6.77612 87.0951 6.77612C88.9714 6.77612 90.5311 7.61814 91.2708 9.03816C92.2745 7.51313 93.8348 6.77612 95.7367 6.77612C98.6448 6.77612 100.574 8.59116 100.574 11.3262V21.1883H97.0067V11.9042C97.0067 10.5892 96.2403 9.56418 94.6278 9.56418C92.8825 9.56418 91.7992 10.7742 91.7992 12.4042V21.1883H88.2317V11.9042C88.2317 10.5892 87.4387 9.56418 85.8789 9.56418C84.1343 9.56418 83.0248 10.7742 83.0248 12.4042V21.1883H79.457V7.06613H82.8137L82.8931 8.95915H82.9464H82.9454Z" fill="#35224A"/>
<path d="M106.059 19.3733H106.007V26.0005H102.439V7.0661H105.796L105.875 9.1701H105.928C107.011 7.67111 108.65 6.7771 110.527 6.7771C114.359 6.7771 116.632 9.93318 116.632 14.0623C116.632 18.1913 114.254 21.4783 110.421 21.4783C108.571 21.4783 107.118 20.7164 106.06 19.3743L106.059 19.3733ZM113.011 14.1132C113.011 11.7202 111.928 9.56417 109.443 9.56417C107.092 9.56417 105.902 11.6152 105.902 14.1923C105.902 16.7692 107.144 18.6893 109.417 18.6893C111.822 18.6893 113.012 16.6643 113.012 14.1132H113.011Z" fill="#35224A"/>
<path d="M118.498 0.990967H122.065V8.9851H122.117C123.015 7.59107 124.496 6.77607 126.399 6.77607C129.332 6.77607 131.235 8.6961 131.235 11.5891V21.1883H127.668V12.1681C127.668 10.7212 126.822 9.56513 125.131 9.56513C123.228 9.56513 122.064 10.9061 122.064 12.6941V21.1883H118.497V0.990967H118.498Z" fill="#35224A"/>
<path d="M133.137 14.1402C133.137 9.93217 135.727 6.7771 140.432 6.7771C145.138 6.7771 147.727 9.93318 147.727 14.1402C147.727 18.3473 145.137 21.4773 140.432 21.4773C135.728 21.4773 133.137 18.3213 133.137 14.1402ZM136.758 14.1402C136.758 16.7433 137.974 18.7423 140.432 18.7423C142.89 18.7423 144.105 16.7433 144.105 14.1402C144.105 11.5372 142.889 9.51214 140.432 9.51214C137.975 9.51214 136.758 11.5112 136.758 14.1402Z" fill="#35224A"/>
<path d="M149.592 7.0661H152.949L153.028 9.06514H153.081C153.953 7.64512 155.486 6.7771 157.415 6.7771C160.402 6.7771 162.33 8.72314 162.33 11.6422V21.1883H158.763V12.1682C158.763 10.7211 157.89 9.56517 156.225 9.56517C154.323 9.56517 153.159 10.9062 153.159 12.6942V21.1883H149.591V7.0661H149.592Z" fill="#35224A"/>
<path d="M177.613 7.06616L171.825 22.1354C170.716 25.0284 169.394 26.2905 166.777 26.2905C165.931 26.2905 165.297 26.1595 164.821 26.0015V23.4245C165.166 23.5035 165.562 23.5825 166.064 23.5825C167.332 23.5825 168.073 23.1094 168.575 21.5314L163.025 7.06716H166.805L170.372 17.5073H170.425L173.994 7.06716H177.614L177.613 7.06616Z" fill="#35224A"/>
<path d="M190.299 16.2442H181.841L180.07 21.1883H176.239L183.877 0.990967H188.397L196.034 21.1883H192.069L190.299 16.2442ZM189.215 13.2462L186.097 4.56802H186.043L182.926 13.2462H189.215Z" fill="#01CAA9"/>
<path d="M201 0.990967H197.248V21.1883H201V0.990967Z" fill="#01CAA9"/>
</svg>
